Track,Message Type,Note,Velocity,Time
1,note_on,48,28,240
1,note_on,52,33,0
1,note_on,52,0,180
1,note_on,48,0,0
1,note_on,48,28,60
1,note_on,52,33,0
1,note_on,52,0,180
1,note_on,48,0,0
1,note_on,48,28,60
1,note_on,52,34,0
1,note_on,52,0,180
1,note_on,48,0,0
1,note_on,48,28,60
1,note_on,52,34,0
1,note_on,52,0,180
1,note_on,48,0,0
1,note_on,48,28,60
1,note_on,52,34,0
1,note_on,52,0,180
1,note_on,48,0,0
1,note_on,48,29,60
1,note_on,52,35,0
1,note_on,52,0,180
1,note_on,48,0,0
1,note_on,48,29,60
1,note_on,52,35,0
1,note_on,52,0,180
1,note_on,48,0,0
1,note_on,48,30,60
1,note_on,52,36,0
1,note_on,52,0,180
1,note_on,48,0,0
1,note_on,48,30,60
1,note_on,52,36,0
1,note_on,52,0,180
1,note_on,48,0,0
1,note_on,48,31,60
1,note_on,52,37,0
1,note_on,52,0,180
1,note_on,48,0,0
1,note_on,48,32,60
1,note_on,52,38,0
1,note_on,52,0,180
1,note_on,48,0,0
1,note_on,48,33,60
1,note_on,52,39,0
1,note_on,52,0,180
1,note_on,48,0,0
1,note_on,48,34,60
1,note_on,52,40,0
1,note_on,52,0,180
1,note_on,48,0,0
1,note_on,50,34,60
1,note_on,54,40,0
1,note_on,54,0,180
1,note_on,50,0,0
1,note_on,50,34,60
1,note_on,54,40,0
1,note_on,54,0,180
1,note_on,50,0,0
1,note_on,50,39,60
1,note_on,55,46,0
1,note_on,55,0,720
1,note_on,50,0,0
1,note_on,59,40,0
1,note_on,59,0,120
1,note_on,57,40,0
1,note_on,57,0,120
1,note_on,55,45,0
1,note_on,55,0,120
1,note_on,85,46,780
1,note_on,85,0,60
1,note_on,86,57,0
1,note_on,86,0,600
1,note_on,84,48,0
1,note_on,84,0,120
1,note_on,83,47,0
1,note_on,83,0,120
1,note_on,81,45,0
1,note_on,81,0,120
1,note_on,79,44,0
1,note_on,79,0,240
1,note_on,46,29,720
1,note_on,50,35,0
1,note_on,50,0,180
1,note_on,46,0,0
1,note_on,46,29,60
1,note_on,50,35,0
1,note_on,50,0,180
1,note_on,46,0,0
1,note_on,46,29,60
1,note_on,50,35,0
1,note_on,50,0,180
1,note_on,46,0,0
1,note_on,46,30,60
1,note_on,50,36,0
1,note_on,50,0,180
1,note_on,46,0,0
1,note_on,46,31,60
1,note_on,50,37,0
1,note_on,50,0,180
1,note_on,46,0,0
1,note_on,46,31,60
1,note_on,50,37,0
1,note_on,50,0,180
1,note_on,46,0,0
1,note_on,46,32,60
1,note_on,50,38,0
1,note_on,50,0,180
1,note_on,46,0,0
1,note_on,46,33,60
1,note_on,50,39,0
1,note_on,50,0,180
1,note_on,46,0,0
1,note_on,46,33,60
1,note_on,50,39,0
1,note_on,50,0,180
1,note_on,46,0,0
1,note_on,46,34,60
1,note_on,50,40,0
1,note_on,50,0,180
1,note_on,46,0,0
1,note_on,46,34,60
1,note_on,50,40,0
1,note_on,50,0,180
1,note_on,46,0,0
1,note_on,46,34,60
1,note_on,50,40,0
1,note_on,50,0,180
1,note_on,46,0,0
1,note_on,46,34,60
1,note_on,50,40,0
1,note_on,50,0,180
1,note_on,46,0,0
1,note_on,46,34,60
1,note_on,50,40,0
1,note_on,50,0,180
1,note_on,46,0,0
1,note_on,48,34,60
1,note_on,52,40,0
1,note_on,52,0,180
1,note_on,48,0,0
1,note_on,48,34,60
1,note_on,52,40,0
1,note_on,52,0,180
1,note_on,48,0,0
1,note_on,48,39,60
1,note_on,53,46,0
1,note_on,53,0,720
1,note_on,48,0,0
1,note_on,57,40,0
1,note_on,57,0,120
1,note_on,55,40,0
1,note_on,55,0,120
1,note_on,53,45,0
1,note_on,53,0,120
1,note_on,83,46,780
1,note_on,83,0,60
1,note_on,84,57,0
1,note_on,84,0,600
1,note_on,82,50,0
1,note_on,82,0,120
1,note_on,80,49,0
1,note_on,80,0,120
1,note_on,79,47,0
1,note_on,79,0,120
1,note_on,77,46,0
1,note_on,77,0,240
1,note_on,88,67,660
1,note_on,88,0,60
1,note_on,89,73,0
1,note_on,89,0,1440
1,note_on,89,74,0
1,note_on,89,0,120
1,note_on,87,73,0
1,note_on,87,0,120
1,note_on,86,71,0
1,note_on,86,0,120
1,note_on,84,70,0
1,note_on,84,0,120
1,note_on,83,72,0
1,note_on,83,0,120
1,note_on,84,71,0
1,note_on,84,0,120
1,note_on,86,72,0
1,note_on,86,0,120
1,note_on,87,73,0
1,note_on,87,0,120
1,note_on,89,74,0
1,note_on,89,0,120
1,note_on,87,72,0
1,note_on,87,0,120
1,note_on,86,71,0
1,note_on,86,0,120
1,note_on,84,69,0
1,note_on,84,0,120
1,note_on,83,72,0
1,note_on,83,0,120
1,note_on,84,75,0
1,note_on,84,0,120
1,note_on,86,77,0
1,note_on,86,0,120
1,note_on,87,80,0
1,note_on,87,0,120
1,note_on,89,80,0
1,note_on,89,0,120
1,note_on,87,80,0
1,note_on,87,0,120
1,note_on,86,79,0
1,note_on,86,0,120
1,note_on,84,81,0
1,note_on,84,0,120
1,note_on,83,85,0
1,note_on,83,0,120
1,note_on,84,89,0
1,note_on,84,0,120
1,note_on,86,94,0
1,note_on,86,0,120
1,note_on,87,98,0
1,note_on,87,0,120
1,note_on,89,100,0
1,note_on,89,0,120
1,note_on,87,98,0
1,note_on,87,0,120
1,note_on,86,96,0
1,note_on,86,0,120
1,note_on,84,94,0
1,note_on,84,0,120
1,note_on,83,93,0
1,note_on,83,0,120
1,note_on,80,91,0
1,note_on,80,0,120
1,note_on,79,89,0
1,note_on,79,0,120
1,note_on,77,87,0
1,note_on,77,0,120
1,note_on,75,85,0
1,note_on,75,0,120
1,note_on,74,83,0
1,note_on,74,0,120
1,note_on,72,81,0
1,note_on,72,0,120
1,note_on,71,79,0
1,note_on,71,0,120
1,note_on,72,93,0
1,note_on,72,0,180
1,note_on,67,83,300
1,note_on,67,0,180
1,note_on,63,72,300
1,note_on,63,0,180
1,note_on,60,64,300
1,note_on,60,0,180
1,note_on,55,60,300
1,note_on,55,0,1920
1,note_on,64,37,0
1,note_on,64,0,119
1,note_on,60,33,1
1,note_on,60,0,120
1,note_on,64,37,0
1,note_on,64,0,119
1,note_on,60,33,1
1,note_on,60,0,120
1,note_on,64,37,0
1,note_on,64,0,119
1,note_on,60,33,1
1,note_on,60,0,120
1,note_on,64,36,0
1,note_on,64,0,119
1,note_on,60,33,1
1,note_on,60,0,120
1,note_on,64,36,0
1,note_on,64,0,119
1,note_on,60,33,1
1,note_on,60,0,120
1,note_on,64,37,0
1,note_on,64,0,119
1,note_on,60,33,1
1,note_on,60,0,120
1,note_on,64,36,0
1,note_on,64,0,119
1,note_on,60,33,1
1,note_on,60,0,120
1,note_on,64,36,0
1,note_on,64,0,119
1,note_on,60,33,1
1,note_on,60,0,120
1,note_on,64,37,0
1,note_on,64,0,119
1,note_on,60,33,1
1,note_on,60,0,120
1,note_on,64,37,0
1,note_on,64,0,119
1,note_on,60,33,1
1,note_on,60,0,120
1,note_on,64,37,0
1,note_on,64,0,119
1,note_on,60,33,1
1,note_on,60,0,120
1,note_on,64,36,0
1,note_on,64,0,119
1,note_on,60,33,1
1,note_on,60,0,120
1,note_on,64,36,0
1,note_on,64,0,119
1,note_on,60,33,1
1,note_on,60,0,120
1,note_on,64,37,0
1,note_on,64,0,119
1,note_on,60,33,1
1,note_on,60,0,120
1,note_on,66,36,0
1,note_on,66,0,119
1,note_on,62,33,1
1,note_on,62,0,120
1,note_on,66,36,0
1,note_on,66,0,119
1,note_on,62,33,1
1,note_on,62,0,120
1,note_on,67,46,0
1,note_on,67,0,720
1,note_on,71,40,0
1,note_on,71,0,120
1,note_on,69,40,0
1,note_on,69,0,120
1,note_on,67,45,0
1,note_on,67,0,120
1,note_on,85,46,780
1,note_on,85,0,60
1,note_on,86,57,0
1,note_on,86,0,600
1,note_on,84,48,0
1,note_on,84,0,120
1,note_on,83,47,0
1,note_on,83,0,120
1,note_on,81,45,0
1,note_on,81,0,120
1,note_on,79,44,0
1,note_on,79,0,240
1,note_on,65,40,720
1,note_on,65,0,119
1,note_on,62,36,1
1,note_on,62,0,120
1,note_on,65,40,0
1,note_on,65,0,119
1,note_on,62,36,1
1,note_on,62,0,120
1,note_on,65,40,0
1,note_on,65,0,119
1,note_on,62,36,1
1,note_on,62,0,120
1,note_on,65,39,0
1,note_on,65,0,119
1,note_on,62,36,1
1,note_on,62,0,120
1,note_on,65,39,0
1,note_on,65,0,119
1,note_on,62,36,1
1,note_on,62,0,120
1,note_on,65,41,0
1,note_on,65,0,119
1,note_on,62,36,1
1,note_on,62,0,120
1,note_on,65,40,0
1,note_on,65,0,119
1,note_on,62,37,1
1,note_on,62,0,120
1,note_on,65,40,0
1,note_on,65,0,119
1,note_on,62,37,1
1,note_on,62,0,120
1,note_on,65,41,0
1,note_on,65,0,119
1,note_on,62,37,1
1,note_on,62,0,120
1,note_on,65,41,0
1,note_on,65,0,119
1,note_on,62,37,1
1,note_on,62,0,120
1,note_on,65,42,0
1,note_on,65,0,119
1,note_on,62,37,1
1,note_on,62,0,120
1,note_on,65,41,0
1,note_on,65,0,119
1,note_on,62,38,1
1,note_on,62,0,120
1,note_on,65,41,0
1,note_on,65,0,119
1,note_on,62,38,1
1,note_on,62,0,120
1,note_on,65,42,0
1,note_on,65,0,119
1,note_on,62,38,1
1,note_on,62,0,120
1,note_on,68,41,0
1,note_on,68,0,119
1,note_on,64,38,1
1,note_on,64,0,120
1,note_on,68,42,0
1,note_on,68,0,119
1,note_on,64,38,1
1,note_on,64,0,120
1,note_on,69,55,0
1,note_on,69,0,720
1,note_on,72,48,0
1,note_on,72,0,120
1,note_on,71,48,0
1,note_on,71,0,120
1,note_on,69,53,0
1,note_on,69,0,120
1,note_on,87,55,780
1,note_on,87,0,60
1,note_on,88,68,0
1,note_on,88,0,600
1,note_on,86,59,0
1,note_on,86,0,120
1,note_on,84,58,0
1,note_on,84,0,120
1,note_on,83,57,0
1,note_on,83,0,120
1,note_on,81,57,0
1,note_on,81,0,240
1,note_on,87,66,660
1,note_on,87,0,60
1,note_on,88,85,0
1,note_on,88,0,600
1,note_on,86,76,0
1,note_on,86,0,120
1,note_on,84,75,0
1,note_on,84,0,120
1,note_on,83,71,0
1,note_on,83,0,120
1,note_on,82,71,0
1,note_on,82,0,240
1,note_on,83,56,720
1,note_on,81,54,600
1,note_on,83,0,20
1,note_on,79,53,100
1,note_on,81,0,20
1,note_on,78,51,100
1,note_on,79,0,20
1,note_on,79,53,100
1,note_on,78,0,20
1,note_on,78,52,100
1,note_on,79,0,20
1,note_on,76,51,100
1,note_on,78,0,20
1,note_on,75,50,100
1,note_on,76,0,20
1,note_on,76,50,100
1,note_on,75,0,20
1,note_on,79,52,100
1,note_on,76,0,20
1,note_on,78,50,100
1,note_on,79,0,20
1,note_on,76,50,100
1,note_on,78,0,20
1,note_on,75,50,100
1,note_on,76,0,20
1,note_on,73,49,100
1,note_on,75,0,20
1,note_on,71,48,100
1,note_on,73,0,20
1,note_on,70,47,100
1,note_on,71,0,20
1,note_on,71,49,100
1,note_on,70,0,20
1,note_on,73,49,100
1,note_on,71,0,20
1,note_on,74,49,100
1,note_on,73,0,20
1,note_on,75,50,100
1,note_on,74,0,20
1,note_on,76,50,100
1,note_on,75,0,20
1,note_on,75,50,100
1,note_on,76,0,20
1,note_on,76,51,100
1,note_on,75,0,20
1,note_on,78,51,100
1,note_on,76,0,20
1,note_on,79,49,100
1,note_on,78,0,20
1,note_on,80,50,100
1,note_on,79,0,20
1,note_on,81,52,100
1,note_on,80,0,20
1,note_on,82,53,100
1,note_on,81,0,20
1,note_on,83,55,100
1,note_on,82,0,20
1,note_on,82,53,100
1,note_on,83,0,20
1,note_on,83,53,100
1,note_on,82,0,20
1,note_on,82,50,100
1,note_on,83,0,20
1,note_on,83,52,100
1,note_on,82,0,20
1,note_on,81,52,100
1,note_on,83,0,20
1,note_on,79,51,100
1,note_on,81,0,20
1,note_on,78,50,100
1,note_on,79,0,20
1,note_on,79,52,100
1,note_on,78,0,20
1,note_on,78,51,100
1,note_on,79,0,20
1,note_on,76,49,100
1,note_on,78,0,20
1,note_on,75,50,100
1,note_on,76,0,20
1,note_on,76,50,100
1,note_on,75,0,20
1,note_on,79,53,100
1,note_on,76,0,20
1,note_on,78,50,100
1,note_on,79,0,20
1,note_on,76,50,100
1,note_on,78,0,20
1,note_on,75,50,100
1,note_on,76,0,20
1,note_on,73,49,100
1,note_on,75,0,20
1,note_on,71,48,100
1,note_on,73,0,20
1,note_on,70,47,100
1,note_on,71,0,20
1,note_on,71,49,100
1,note_on,70,0,20
1,note_on,73,50,100
1,note_on,71,0,20
1,note_on,74,50,100
1,note_on,73,0,20
1,note_on,75,52,100
1,note_on,74,0,20
1,note_on,76,52,100
1,note_on,75,0,20
1,note_on,75,52,100
1,note_on,76,0,20
1,note_on,76,54,100
1,note_on,75,0,20
1,note_on,78,54,100
1,note_on,76,0,20
1,note_on,79,56,100
1,note_on,78,0,20
1,note_on,80,58,100
1,note_on,79,0,20
1,note_on,81,60,100
1,note_on,80,0,20
1,note_on,82,62,100
1,note_on,81,0,20
1,note_on,83,68,100
1,note_on,82,0,20
1,note_on,83,0,100
1,note_on,78,60,0
1,note_on,78,0,120
1,note_on,75,61,0
1,note_on,75,0,120
1,note_on,71,61,0
1,note_on,71,0,120
1,note_on,70,75,0
1,note_on,70,0,120
1,note_on,71,63,0
1,note_on,71,0,120
1,note_on,76,63,0
1,note_on,76,0,120
1,note_on,79,63,0
1,note_on,79,0,120
1,note_on,83,74,0
1,note_on,83,0,120
1,note_on,78,65,0
1,note_on,78,0,120
1,note_on,75,68,0
1,note_on,75,0,120
1,note_on,71,68,0
1,note_on,71,0,120
1,note_on,70,80,0
1,note_on,70,0,120
1,note_on,71,71,0
1,note_on,71,0,120
1,note_on,76,71,0
1,note_on,76,0,120
1,note_on,79,72,0
1,note_on,79,0,120
1,note_on,83,91,0
1,note_on,83,0,120
1,note_on,78,82,0
1,note_on,78,0,120
1,note_on,75,82,0
1,note_on,75,0,120
1,note_on,71,82,0
1,note_on,71,0,120
1,note_on,83,91,0
1,note_on,83,0,120
1,note_on,79,82,0
1,note_on,79,0,120
1,note_on,76,82,0
1,note_on,76,0,120
1,note_on,71,82,0
1,note_on,71,0,120
1,note_on,83,91,0
1,note_on,83,0,120
1,note_on,78,82,0
1,note_on,78,0,120
1,note_on,75,81,0
1,note_on,75,0,120
1,note_on,71,81,0
1,note_on,71,0,120
1,note_on,83,91,0
1,note_on,83,0,120
1,note_on,79,81,0
1,note_on,79,0,120
1,note_on,76,81,0
1,note_on,76,0,120
1,note_on,71,82,0
1,note_on,71,0,120
1,note_on,83,91,0
1,note_on,83,0,120
1,note_on,78,82,0
1,note_on,78,0,120
1,note_on,75,82,0
1,note_on,75,0,120
1,note_on,71,82,0
1,note_on,71,0,120
1,note_on,78,91,0
1,note_on,78,0,120
1,note_on,75,82,0
1,note_on,75,0,120
1,note_on,71,82,0
1,note_on,71,0,120
1,note_on,66,82,0
1,note_on,66,0,120
1,note_on,75,91,0
1,note_on,75,0,120
1,note_on,71,82,0
1,note_on,71,0,120
1,note_on,66,81,0
1,note_on,66,0,120
1,note_on,63,81,0
1,note_on,63,0,120
1,note_on,71,91,0
1,note_on,71,0,120
1,note_on,66,81,0
1,note_on,66,0,120
1,note_on,63,81,0
1,note_on,63,0,120
1,note_on,59,82,0
1,note_on,59,0,120
1,note_on,66,91,0
1,note_on,66,0,120
1,note_on,63,81,0
1,note_on,63,0,120
1,note_on,59,80,0
1,note_on,59,0,120
1,note_on,54,80,0
1,note_on,54,0,120
1,note_on,63,89,0
1,note_on,63,0,120
1,note_on,59,79,0
1,note_on,59,0,120
1,note_on,54,79,0
1,note_on,54,0,120
1,note_on,51,78,0
1,note_on,51,0,120
1,note_on,59,87,0
1,note_on,59,0,120
1,note_on,54,78,0
1,note_on,54,0,120
1,note_on,51,77,0
1,note_on,51,0,120
1,note_on,47,77,0
1,note_on,47,0,120
1,note_on,71,75,1440
1,note_on,71,0,120
1,note_on,59,69,120
1,note_on,59,0,120
1,note_on,73,74,120
1,note_on,73,0,120
1,note_on,61,65,120
1,note_on,61,0,120
1,note_on,75,71,120
1,note_on,75,0,120
1,note_on,63,64,120
1,note_on,63,0,120
1,note_on,75,67,600
1,note_on,75,0,120
1,note_on,63,53,120
1,note_on,63,0,120
1,note_on,76,59,120
1,note_on,76,0,120
1,note_on,64,50,120
1,note_on,64,0,120
1,note_on,78,52,120
1,note_on,78,0,120
1,note_on,66,49,120
1,note_on,66,0,120
1,note_on,80,52,120
1,note_on,80,0,120
1,note_on,68,49,120
1,note_on,68,0,120
1,note_on,81,52,120
1,note_on,81,0,120
1,note_on,69,48,120
1,note_on,69,0,120
1,note_on,81,52,120
1,note_on,81,0,120
1,note_on,71,46,120
1,note_on,71,0,120
1,note_on,81,51,120
1,note_on,81,0,120
1,note_on,73,46,120
1,note_on,73,0,120
1,note_on,81,51,120
1,note_on,81,0,120
1,note_on,75,46,120
1,note_on,75,0,120
1,note_on,81,51,120
1,note_on,81,0,120
1,note_on,76,47,120
1,note_on,76,0,120
1,note_on,81,50,120
1,note_on,81,0,120
1,note_on,78,46,120
1,note_on,78,0,120
1,note_on,71,42,120
1,note_on,76,42,0
1,note_on,80,55,0
1,note_on,80,0,960
1,note_on,76,0,0
1,note_on,71,0,0
1,note_on,69,40,0
1,note_on,75,40,0
1,note_on,78,52,0
1,note_on,78,0,480
1,note_on,75,0,0
1,note_on,69,0,0
1,note_on,68,40,0
1,note_on,73,40,0
1,note_on,76,52,0
1,note_on,76,0,480
1,note_on,73,0,0
1,note_on,68,0,0
1,note_on,66,42,0
1,note_on,72,42,0
1,note_on,75,55,0
1,note_on,75,0,960
1,note_on,72,0,0
1,note_on,66,0,0
1,note_on,64,40,0
1,note_on,73,52,0
1,note_on,73,0,960
1,note_on,64,0,0
1,note_on,69,49,0
1,note_on,71,49,0
1,note_on,75,63,0
1,note_on,75,0,960
1,note_on,71,0,0
1,note_on,69,0,0
1,note_on,71,50,0
1,note_on,76,66,0
1,note_on,76,0,480
1,note_on,71,0,0
1,note_on,73,48,0
1,note_on,76,55,0
1,note_on,78,72,0
1,note_on,78,0,480
1,note_on,76,0,0
1,note_on,73,0,0
1,note_on,71,59,0
1,note_on,76,59,0
1,note_on,80,77,0
1,note_on,80,0,960
1,note_on,76,0,0
1,note_on,75,32,0
1,note_on,78,49,0
1,note_on,71,0,480
1,note_on,69,48,0
1,note_on,69,0,480
1,note_on,78,0,0
1,note_on,75,0,0
1,note_on,59,37,0
1,note_on,64,37,0
1,note_on,68,45,0
1,note_on,68,0,960
1,note_on,64,0,0
1,note_on,59,0,0
1,note_on,57,36,0
1,note_on,63,36,0
1,note_on,66,43,0
1,note_on,66,0,480
1,note_on,63,0,0
1,note_on,57,0,0
1,note_on,56,36,0
1,note_on,61,36,0
1,note_on,64,43,0
1,note_on,64,0,480
1,note_on,61,0,0
1,note_on,56,0,0
1,note_on,54,37,0
1,note_on,60,37,0
1,note_on,63,45,0
1,note_on,63,0,960
1,note_on,60,0,0
1,note_on,54,0,0
1,note_on,57,36,0
1,note_on,52,36,0
1,note_on,61,43,0
1,note_on,61,0,960
1,note_on,52,0,0
1,note_on,57,0,0
1,note_on,52,44,0
1,note_on,56,44,0
1,note_on,59,52,0
1,note_on,56,0,480
1,note_on,52,0,0
1,note_on,54,50,0
1,note_on,57,50,0
1,note_on,59,0,480
1,note_on,61,61,0
1,note_on,61,0,480
1,note_on,63,69,0
1,note_on,63,0,480
1,note_on,57,0,0
1,note_on,54,0,0
1,note_on,56,43,0
1,note_on,64,49,0
1,note_on,64,0,120
1,note_on,56,0,40
1,note_on,66,48,0
1,note_on,66,0,120
1,note_on,68,49,40
1,note_on,68,0,120
1,note_on,69,47,40
1,note_on,69,0,120
1,note_on,71,48,40
1,note_on,71,0,120
1,note_on,73,49,40
1,note_on,73,0,120
1,note_on,74,50,40
1,note_on,74,0,120
1,note_on,75,51,40
1,note_on,75,0,120
1,note_on,76,52,40
1,note_on,76,0,120
1,note_on,77,52,40
1,note_on,77,0,120
1,note_on,78,53,40
1,note_on,78,0,120
1,note_on,79,53,40
1,note_on,79,0,120
1,note_on,71,45,40
1,note_on,80,57,0
1,note_on,80,0,160
1,note_on,79,53,0
1,note_on,79,0,160
1,note_on,80,53,0
1,note_on,80,0,160
1,note_on,81,53,0
1,note_on,81,0,160
1,note_on,79,53,0
1,note_on,79,0,160
1,note_on,80,53,0
1,note_on,80,0,160
1,note_on,71,0,0
1,note_on,69,60,0
1,note_on,80,54,160
1,note_on,80,0,160
1,note_on,78,54,0
1,note_on,78,0,160
1,note_on,69,0,0
1,note_on,68,60,0
1,note_on,78,53,160
1,note_on,78,0,160
1,note_on,76,53,0
1,note_on,76,0,160
1,note_on,68,0,0
1,note_on,66,60,0
1,note_on,72,54,160
1,note_on,72,0,160
1,note_on,75,54,0
1,note_on,75,0,160
1,note_on,76,54,0
1,note_on,76,0,160
1,note_on,72,54,0
1,note_on,72,0,160
1,note_on,75,54,0
1,note_on,75,0,160
1,note_on,66,0,0
1,note_on,64,60,0
1,note_on,69,54,160
1,note_on,69,0,160
1,note_on,73,54,0
1,note_on,73,0,160
1,note_on,75,54,0
1,note_on,75,0,160
1,note_on,69,54,0
1,note_on,69,0,160
1,note_on,73,54,0
1,note_on,73,0,160
1,note_on,64,0,0
1,note_on,69,62,0
1,note_on,74,62,160
1,note_on,74,0,160
1,note_on,75,57,0
1,note_on,75,0,160
1,note_on,76,57,0
1,note_on,76,0,160
1,note_on,74,59,0
1,note_on,74,0,160
1,note_on,75,59,0
1,note_on,75,0,160
1,note_on,69,0,0
1,note_on,71,71,0
1,note_on,78,63,160
1,note_on,78,0,160
1,note_on,76,64,0
1,note_on,76,0,160
1,note_on,71,0,0
1,note_on,73,74,0
1,note_on,80,65,160
1,note_on,80,0,160
1,note_on,78,65,0
1,note_on,78,0,160
1,note_on,73,0,0
1,note_on,80,79,0
1,note_on,76,79,0
1,note_on,80,0,160
1,note_on,79,72,0
1,note_on,79,0,160
1,note_on,80,72,0
1,note_on,80,0,160
1,note_on,83,68,0
1,note_on,83,0,160
1,note_on,81,72,0
1,note_on,81,0,160
1,note_on,80,69,0
1,note_on,80,0,160
1,note_on,76,0,0
1,note_on,75,67,0
1,note_on,78,67,0
1,note_on,78,0,160
1,note_on,75,0,0
1,note_on,73,64,0
1,note_on,76,64,0
1,note_on,76,0,160
1,note_on,73,0,0
1,note_on,75,60,0
1,note_on,71,60,0
1,note_on,71,0,160
1,note_on,75,0,0
1,note_on,69,60,0
1,note_on,73,60,0
1,note_on,73,0,160
1,note_on,69,0,0
1,note_on,68,56,0
1,note_on,71,56,0
1,note_on,71,0,160
1,note_on,68,0,0
1,note_on,66,53,0
1,note_on,69,53,0
1,note_on,69,0,160
1,note_on,66,0,0
1,note_on,59,57,0
1,note_on,68,57,0
1,note_on,68,0,160
1,note_on,67,49,0
1,note_on,67,0,160
1,note_on,68,49,0
1,note_on,68,0,160
1,note_on,69,49,0
1,note_on,69,0,160
1,note_on,67,49,0
1,note_on,67,0,160
1,note_on,68,49,0
1,note_on,68,0,160
1,note_on,59,0,0
1,note_on,57,56,0
1,note_on,68,50,160
1,note_on,68,0,160
1,note_on,66,50,0
1,note_on,66,0,160
1,note_on,57,0,0
1,note_on,56,56,0
1,note_on,66,49,160
1,note_on,66,0,160
1,note_on,64,49,0
1,note_on,64,0,160
1,note_on,56,0,0
1,note_on,60,50,160
1,note_on,60,0,160
1,note_on,63,50,0
1,note_on,63,0,160
1,note_on,64,53,0
1,note_on,64,0,160
1,note_on,60,50,0
1,note_on,60,0,160
1,note_on,63,50,0
1,note_on,63,0,160
1,note_on,57,50,160
1,note_on,57,0,160
1,note_on,61,50,0
1,note_on,61,0,160
1,note_on,63,53,0
1,note_on,63,0,160
1,note_on,57,50,0
1,note_on,57,0,160
1,note_on,61,50,0
1,note_on,61,0,160
1,note_on,52,60,0
1,note_on,56,56,160
1,note_on,56,0,160
1,note_on,59,57,0
1,note_on,59,0,160
1,note_on,52,0,0
1,note_on,54,66,0
1,note_on,57,61,160
1,note_on,57,0,160
1,note_on,59,61,0
1,note_on,59,0,160
1,note_on,54,0,0
1,note_on,54,74,0
1,note_on,57,67,160
1,note_on,57,0,160
1,note_on,61,65,0
1,note_on,61,0,160
1,note_on,54,0,0
1,note_on,54,80,0
1,note_on,57,71,160
1,note_on,57,0,160
1,note_on,63,70,0
1,note_on,63,0,160
1,note_on,54,0,0
1,note_on,56,77,0
1,note_on,64,82,0
1,note_on,64,0,160
1,note_on,56,0,0
1,note_on,59,75,0
1,note_on,59,0,160
1,note_on,56,77,0
1,note_on,56,0,160
1,note_on,59,82,0
1,note_on,59,0,160
1,note_on,64,77,0
1,note_on,64,0,160
1,note_on,68,77,0
1,note_on,68,0,160
1,note_on,66,82,0
1,note_on,66,0,160
1,note_on,63,77,0
1,note_on,63,0,160
1,note_on,59,77,0
1,note_on,59,0,160
1,note_on,63,82,0
1,note_on,63,0,160
1,note_on,66,77,0
1,note_on,66,0,160
1,note_on,69,77,0
1,note_on,69,0,160
1,note_on,68,82,0
1,note_on,68,0,160
1,note_on,64,75,0
1,note_on,64,0,160
1,note_on,59,77,0
1,note_on,59,0,160
1,note_on,64,82,0
1,note_on,64,0,160
1,note_on,68,77,0
1,note_on,68,0,160
1,note_on,71,77,0
1,note_on,71,0,160
1,note_on,69,82,0
1,note_on,69,0,160
1,note_on,66,77,0
1,note_on,66,0,160
1,note_on,63,77,0
1,note_on,63,0,160
1,note_on,75,82,0
1,note_on,75,0,160
1,note_on,69,77,0
1,note_on,69,0,160
1,note_on,66,77,0
1,note_on,66,0,160
1,note_on,68,63,0
1,note_on,76,75,0
1,note_on,76,0,480
1,note_on,68,0,0
1,note_on,71,80,0
1,note_on,71,0,960
1,note_on,71,80,0
1,note_on,71,0,960
1,note_on,71,80,0
1,note_on,71,0,960
1,note_on,71,80,0
1,note_on,71,0,480
1,note_on,76,82,0
1,note_on,76,0,160
1,note_on,71,75,0
1,note_on,71,0,160
1,note_on,68,77,0
1,note_on,68,0,160
1,note_on,71,82,0
1,note_on,71,0,160
1,note_on,76,77,0
1,note_on,76,0,160
1,note_on,80,77,0
1,note_on,80,0,160
1,note_on,78,82,0
1,note_on,78,0,160
1,note_on,75,77,0
1,note_on,75,0,160
1,note_on,71,77,0
1,note_on,71,0,160
1,note_on,75,82,0
1,note_on,75,0,160
1,note_on,78,77,0
1,note_on,78,0,160
1,note_on,81,77,0
1,note_on,81,0,160
1,note_on,80,82,0
1,note_on,80,0,160
1,note_on,76,75,0
1,note_on,76,0,160
1,note_on,71,77,0
1,note_on,71,0,160
1,note_on,76,82,0
1,note_on,76,0,160
1,note_on,80,77,0
1,note_on,80,0,160
1,note_on,83,77,0
1,note_on,83,0,160
1,note_on,81,82,0
1,note_on,81,0,160
1,note_on,78,77,0
1,note_on,78,0,160
1,note_on,75,77,0
1,note_on,75,0,160
1,note_on,87,82,0
1,note_on,87,0,160
1,note_on,81,77,0
1,note_on,81,0,160
1,note_on,78,77,0
1,note_on,78,0,160
1,note_on,88,84,0
1,note_on,83,74,160
1,note_on,88,0,80
1,note_on,83,0,80
1,note_on,80,74,0
1,note_on,80,0,160
1,note_on,83,79,0
1,note_on,80,73,160
1,note_on,83,0,80
1,note_on,80,0,80
1,note_on,76,72,0
1,note_on,76,0,160
1,note_on,81,78,0
1,note_on,78,71,160
1,note_on,81,0,80
1,note_on,78,0,80
1,note_on,75,70,0
1,note_on,75,0,160
1,note_on,87,77,0
1,note_on,83,69,160
1,note_on,87,0,80
1,note_on,83,0,80
1,note_on,78,67,0
1,note_on,78,0,160
1,note_on,88,74,0
1,note_on,83,65,160
1,note_on,88,0,80
1,note_on,83,0,80
1,note_on,80,65,0
1,note_on,80,0,160
1,note_on,83,72,0
1,note_on,80,64,160
1,note_on,83,0,80
1,note_on,80,0,80
1,note_on,76,63,0
1,note_on,76,0,160
1,note_on,81,69,0
1,note_on,78,62,160
1,note_on,81,0,80
1,note_on,78,0,80
1,note_on,75,60,0
1,note_on,75,0,160
1,note_on,87,68,0
1,note_on,83,59,160
1,note_on,87,0,80
1,note_on,83,0,80
1,note_on,78,58,0
1,note_on,78,0,160
1,note_on,88,64,0
1,note_on,88,0,120
1,note_on,83,58,0
1,note_on,83,0,120
1,note_on,80,58,0
1,note_on,80,0,120
1,note_on,76,59,0
1,note_on,76,0,120
1,note_on,81,65,0
1,note_on,81,0,120
1,note_on,78,59,0
1,note_on,78,0,120
1,note_on,87,62,0
1,note_on,87,0,120
1,note_on,83,63,0
1,note_on,83,0,120
1,note_on,88,69,0
1,note_on,88,0,120
1,note_on,83,63,0
1,note_on,83,0,120
1,note_on,80,63,0
1,note_on,80,0,120
1,note_on,76,64,0
1,note_on,76,0,120
1,note_on,81,71,0
1,note_on,81,0,120
1,note_on,78,66,0
1,note_on,78,0,120
1,note_on,87,67,0
1,note_on,87,0,120
1,note_on,83,67,0
1,note_on,83,0,120
1,note_on,88,74,0
1,note_on,88,0,120
1,note_on,83,67,0
1,note_on,83,0,120
1,note_on,87,69,0
1,note_on,87,0,120
1,note_on,83,69,0
1,note_on,83,0,120
1,note_on,88,77,0
1,note_on,88,0,120
1,note_on,83,77,0
1,note_on,83,0,120
1,note_on,87,72,0
1,note_on,87,0,120
1,note_on,83,73,0
1,note_on,83,0,120
1,note_on,88,80,0
1,note_on,88,0,120
1,note_on,83,73,0
1,note_on,83,0,120
1,note_on,87,74,0
1,note_on,87,0,120
1,note_on,83,74,0
1,note_on,83,0,120
1,note_on,88,82,0
1,note_on,88,0,120
1,note_on,83,85,0
1,note_on,83,0,120
1,note_on,87,78,0
1,note_on,87,0,120
1,note_on,83,79,0
1,note_on,83,0,120
1,note_on,88,89,0
1,note_on,88,0,120
1,note_on,83,81,0
1,note_on,83,0,120
1,note_on,86,81,0
1,note_on,86,0,120
1,note_on,83,81,0
1,note_on,83,0,120
1,note_on,86,89,0
1,note_on,86,0,120
1,note_on,83,83,0
1,note_on,83,0,120
1,note_on,86,82,0
1,note_on,86,0,120
1,note_on,83,82,0
1,note_on,83,0,120
1,note_on,86,89,0
1,note_on,86,0,120
1,note_on,83,81,0
1,note_on,83,0,120
1,note_on,86,81,0
1,note_on,86,0,120
1,note_on,83,81,0
1,note_on,83,0,120
1,note_on,86,89,0
1,note_on,86,0,120
1,note_on,83,83,0
1,note_on,83,0,120
1,note_on,86,82,0
1,note_on,86,0,120
1,note_on,83,82,0
1,note_on,83,0,120
1,note_on,86,89,0
1,note_on,86,0,240
1,note_on,85,81,0
1,note_on,85,0,120
1,note_on,83,81,0
1,note_on,83,0,120
1,note_on,81,88,0
1,note_on,81,0,120
1,note_on,80,83,0
1,note_on,80,0,120
1,note_on,78,83,0
1,note_on,78,0,120
1,note_on,76,83,0
1,note_on,76,0,120
1,note_on,74,88,0
1,note_on,74,0,120
1,note_on,73,82,0
1,note_on,73,0,120
1,note_on,71,83,0
1,note_on,71,0,120
1,note_on,69,83,0
1,note_on,69,0,120
1,note_on,68,91,0
1,note_on,68,0,120
1,note_on,66,86,0
1,note_on,66,0,120
1,note_on,64,85,0
1,note_on,64,0,120
1,note_on,62,85,0
1,note_on,62,0,120
1,note_on,61,93,0
1,note_on,61,0,120
1,note_on,63,84,0
1,note_on,63,0,120
1,note_on,64,84,0
1,note_on,64,0,120
1,note_on,63,86,0
1,note_on,63,0,120
1,note_on,64,92,0
1,note_on,64,0,120
1,note_on,68,85,0
1,note_on,68,0,120
1,note_on,69,85,0
1,note_on,69,0,120
1,note_on,68,85,0
1,note_on,68,0,120
1,note_on,69,93,0
1,note_on,69,0,120
1,note_on,72,84,0
1,note_on,72,0,120
1,note_on,73,84,0
1,note_on,73,0,120
1,note_on,72,84,0
1,note_on,72,0,120
1,note_on,73,93,0
1,note_on,73,0,120
1,note_on,75,84,0
1,note_on,75,0,120
1,note_on,76,84,0
1,note_on,76,0,120
1,note_on,75,84,0
1,note_on,75,0,120
1,note_on,76,95,0
1,note_on,76,0,120
1,note_on,80,86,0
1,note_on,80,0,120
1,note_on,81,86,0
1,note_on,81,0,120
1,note_on,80,86,0
1,note_on,80,0,120
1,note_on,81,95,0
1,note_on,81,0,120
1,note_on,84,86,0
1,note_on,84,0,120
1,note_on,85,86,0
1,note_on,85,0,120
1,note_on,84,86,0
1,note_on,84,0,120
1,note_on,85,95,0
1,note_on,85,0,120
1,note_on,87,86,0
1,note_on,87,0,120
1,note_on,88,86,0
1,note_on,88,0,120
1,note_on,87,86,0
1,note_on,87,0,120
1,note_on,88,95,0
1,note_on,88,0,120
1,note_on,87,86,0
1,note_on,87,0,120
1,note_on,85,86,0
1,note_on,85,0,120
1,note_on,84,86,0
1,note_on,84,0,120
1,note_on,85,95,0
1,note_on,85,0,120
1,note_on,84,86,0
1,note_on,84,0,120
1,note_on,85,86,0
1,note_on,85,0,120
1,note_on,87,86,0
1,note_on,87,0,120
1,note_on,88,95,0
1,note_on,88,0,120
1,note_on,87,86,0
1,note_on,87,0,120
1,note_on,85,86,0
1,note_on,85,0,120
1,note_on,84,86,0
1,note_on,84,0,120
1,note_on,85,95,0
1,note_on,85,0,120
1,note_on,84,86,0
1,note_on,84,0,120
1,note_on,85,86,0
1,note_on,85,0,120
1,note_on,87,86,0
1,note_on,87,0,120
1,note_on,88,95,0
1,note_on,88,0,120
1,note_on,87,86,0
1,note_on,87,0,120
1,note_on,85,86,0
1,note_on,85,0,120
1,note_on,84,86,0
1,note_on,84,0,120
1,note_on,85,95,0
1,note_on,85,0,120
1,note_on,84,86,0
1,note_on,84,0,120
1,note_on,85,86,0
1,note_on,85,0,120
1,note_on,87,86,0
1,note_on,87,0,120
1,note_on,88,95,0
1,note_on,88,0,120
1,note_on,87,86,0
1,note_on,87,0,120
1,note_on,85,86,0
1,note_on,85,0,120
1,note_on,84,86,0
1,note_on,84,0,120
1,note_on,85,95,0
1,note_on,85,0,120
1,note_on,84,86,0
1,note_on,84,0,120
1,note_on,85,86,0
1,note_on,85,0,120
1,note_on,87,86,0
1,note_on,87,0,120
1,note_on,88,95,0
1,note_on,88,0,120
1,note_on,87,86,0
1,note_on,87,0,120
1,note_on,88,86,0
1,note_on,88,0,120
1,note_on,85,86,0
1,note_on,85,0,120
1,note_on,71,87,0
1,note_on,83,103,0
1,note_on,83,0,120
1,note_on,71,0,0
1,note_on,71,73,120
1,note_on,83,87,0
1,note_on,83,0,120
1,note_on,71,0,0
1,note_on,68,74,120
1,note_on,80,88,0
1,note_on,80,0,120
1,note_on,68,0,0
1,note_on,64,73,120
1,note_on,76,87,0
1,note_on,76,0,120
1,note_on,64,0,0
1,note_on,76,87,120
1,note_on,88,103,0
1,note_on,88,0,120
1,note_on,76,0,0
1,note_on,76,73,120
1,note_on,88,87,0
1,note_on,88,0,120
1,note_on,76,0,0
1,note_on,71,73,120
1,note_on,83,87,0
1,note_on,83,0,120
1,note_on,71,0,0
1,note_on,68,73,120
1,note_on,80,87,0
1,note_on,80,0,120
1,note_on,68,0,0
1,note_on,71,87,120
1,note_on,83,103,0
1,note_on,83,0,120
1,note_on,71,0,0
1,note_on,71,73,120
1,note_on,83,87,0
1,note_on,83,0,120
1,note_on,71,0,0
1,note_on,68,74,120
1,note_on,80,88,0
1,note_on,80,0,120
1,note_on,68,0,0
1,note_on,64,73,120
1,note_on,76,87,0
1,note_on,76,0,120
1,note_on,64,0,0
1,note_on,76,87,120
1,note_on,88,103,0
1,note_on,88,0,120
1,note_on,76,0,0
1,note_on,76,73,120
1,note_on,88,87,0
1,note_on,88,0,120
1,note_on,76,0,0
1,note_on,71,73,120
1,note_on,83,87,0
1,note_on,83,0,120
1,note_on,71,0,0
1,note_on,68,73,120
1,note_on,80,87,0
1,note_on,80,0,120
1,note_on,68,0,0
1,note_on,80,47,240
1,note_on,80,0,120
1,note_on,83,50,0
1,note_on,83,0,119
1,note_on,80,47,1
1,note_on,80,0,120
1,note_on,83,51,0
1,note_on,83,0,119
1,note_on,80,47,1
1,note_on,80,0,120
1,note_on,83,50,0
1,note_on,83,0,119
1,note_on,80,47,1
1,note_on,80,0,120
1,note_on,83,51,0
1,note_on,83,0,119
1,note_on,80,47,1
1,note_on,80,0,120
1,note_on,83,50,0
1,note_on,83,0,119
1,note_on,80,47,1
1,note_on,80,0,120
1,note_on,83,52,0
1,note_on,83,0,119
1,note_on,80,47,1
1,note_on,80,0,120
1,note_on,83,51,0
1,note_on,83,0,119
1,note_on,80,47,1
1,note_on,80,0,120
1,note_on,83,50,0
1,note_on,83,0,119
1,note_on,80,47,1
1,note_on,80,0,120
1,note_on,83,50,0
1,note_on,83,0,119
1,note_on,80,47,1
1,note_on,80,0,120
1,note_on,83,51,0
1,note_on,83,0,119
1,note_on,80,47,1
1,note_on,80,0,120
1,note_on,83,50,0
1,note_on,83,0,119
1,note_on,80,47,1
1,note_on,80,0,120
1,note_on,83,51,0
1,note_on,83,0,119
1,note_on,80,47,1
1,note_on,80,0,120
1,note_on,83,50,0
1,note_on,83,0,119
1,note_on,80,47,1
1,note_on,80,0,120
1,note_on,83,52,0
1,note_on,83,0,119
1,note_on,80,47,1
1,note_on,80,0,120
1,note_on,83,51,0
1,note_on,83,0,119
1,note_on,80,47,1
1,note_on,80,0,120
1,note_on,81,42,120
1,note_on,81,0,120
1,note_on,83,45,0
1,note_on,83,0,119
1,note_on,81,41,1
1,note_on,81,0,120
1,note_on,84,44,0
1,note_on,84,0,119
1,note_on,81,40,1
1,note_on,81,0,120
1,note_on,83,42,0
1,note_on,83,0,119
1,note_on,81,39,1
1,note_on,81,0,120
1,note_on,84,42,0
1,note_on,84,0,119
1,note_on,81,38,1
1,note_on,81,0,120
1,note_on,83,40,0
1,note_on,83,0,119
1,note_on,81,37,1
1,note_on,81,0,120
1,note_on,84,40,0
1,note_on,84,0,119
1,note_on,81,36,1
1,note_on,81,0,120
1,note_on,83,39,0
1,note_on,83,0,119
1,note_on,81,35,1
1,note_on,81,0,120
1,note_on,84,37,0
1,note_on,84,0,119
1,note_on,81,34,1
1,note_on,81,0,120
1,note_on,83,36,0
1,note_on,83,0,119
1,note_on,81,34,1
1,note_on,81,0,120
1,note_on,84,37,0
1,note_on,84,0,119
1,note_on,81,34,1
1,note_on,81,0,120
1,note_on,83,36,0
1,note_on,83,0,119
1,note_on,81,34,1
1,note_on,81,0,120
1,note_on,84,37,0
1,note_on,84,0,119
1,note_on,81,34,1
1,note_on,81,0,120
1,note_on,83,36,0
1,note_on,83,0,119
1,note_on,81,34,1
1,note_on,81,0,120
1,note_on,84,38,0
1,note_on,84,0,119
1,note_on,81,34,1
1,note_on,81,0,120
1,note_on,83,37,0
1,note_on,83,0,119
1,note_on,81,34,1
1,note_on,81,0,120
1,note_on,85,37,0
1,note_on,81,34,120
1,note_on,85,0,1
1,note_on,81,0,89
1,note_on,83,36,30
1,note_on,81,35,120
1,note_on,83,0,1
1,note_on,81,0,119
1,note_on,85,38,0
1,note_on,81,36,120
1,note_on,85,0,1
1,note_on,81,0,119
1,note_on,83,38,0
1,note_on,81,36,120
1,note_on,83,0,1
1,note_on,81,0,119
1,note_on,85,40,0
1,note_on,81,37,120
1,note_on,85,0,1
1,note_on,81,0,119
1,note_on,83,40,0
1,note_on,81,38,120
1,note_on,83,0,1
1,note_on,81,0,119
1,note_on,85,43,0
1,note_on,81,39,120
1,note_on,85,0,1
1,note_on,81,0,119
1,note_on,83,43,0
1,note_on,81,40,120
1,note_on,83,0,1
1,note_on,81,0,119
1,note_on,90,44,0
1,note_on,83,41,120
1,note_on,81,41,0
1,note_on,90,0,1
1,note_on,81,0,119
1,note_on,83,0,0
1,note_on,90,43,0
1,note_on,83,41,120
1,note_on,81,41,0
1,note_on,90,0,1
1,note_on,81,0,119
1,note_on,83,0,0
1,note_on,90,46,0
1,note_on,83,42,120
1,note_on,81,42,0
1,note_on,90,0,1
1,note_on,81,0,119
1,note_on,83,0,0
1,note_on,90,46,0
1,note_on,83,44,120
1,note_on,81,44,0
1,note_on,90,0,1
1,note_on,81,0,119
1,note_on,83,0,0
1,note_on,90,49,0
1,note_on,90,0,81
1,note_on,83,45,39
1,note_on,81,45,0
1,note_on,81,0,120
1,note_on,83,0,0
1,note_on,90,49,0
1,note_on,83,47,120
1,note_on,81,47,0
1,note_on,90,0,1
1,note_on,81,0,119
1,note_on,83,0,0
1,note_on,90,54,0
1,note_on,83,48,120
1,note_on,81,48,0
1,note_on,90,0,1
1,note_on,81,0,119
1,note_on,83,0,0
1,note_on,90,53,0
1,note_on,83,49,120
1,note_on,81,49,0
1,note_on,90,0,1
1,note_on,81,0,119
1,note_on,83,0,0
1,note_on,80,72,0
1,note_on,83,72,0
1,note_on,88,72,0
1,note_on,88,0,1440
1,note_on,83,0,0
1,note_on,80,0,0
1,note_on,88,58,0
1,note_on,88,0,120
1,note_on,86,57,0
1,note_on,86,0,120
1,note_on,84,56,0
1,note_on,84,0,120
1,note_on,83,55,0
1,note_on,83,0,120
1,note_on,84,58,0
1,note_on,84,0,120
1,note_on,83,57,0
1,note_on,83,0,120
1,note_on,81,56,0
1,note_on,81,0,120
1,note_on,80,55,0
1,note_on,80,0,120
1,note_on,81,51,0
1,note_on,81,0,120
1,note_on,83,52,0
1,note_on,83,0,120
1,note_on,84,53,0
1,note_on,84,0,120
1,note_on,86,54,0
1,note_on,86,0,120
1,note_on,88,56,0
1,note_on,88,0,120
1,note_on,89,57,0
1,note_on,89,0,120
1,note_on,88,57,0
1,note_on,88,0,120
1,note_on,87,56,0
1,note_on,87,0,120
1,note_on,88,56,0
1,note_on,88,0,120
1,note_on,86,56,0
1,note_on,86,0,120
1,note_on,84,56,0
1,note_on,84,0,120
1,note_on,83,56,0
1,note_on,83,0,120
1,note_on,84,57,0
1,note_on,84,0,120
1,note_on,86,57,0
1,note_on,86,0,120
1,note_on,84,57,0
1,note_on,84,0,120
1,note_on,83,53,0
1,note_on,83,0,120
1,note_on,81,56,0
1,note_on,81,0,120
1,note_on,80,52,0
1,note_on,80,0,120
1,note_on,81,56,0
1,note_on,81,0,120
1,note_on,83,52,0
1,note_on,83,0,120
1,note_on,72,45,0
1,note_on,84,59,0
1,note_on,84,0,480
1,note_on,81,52,0
1,note_on,81,0,240
1,note_on,78,52,0
1,note_on,78,0,240
1,note_on,72,0,0
1,note_on,71,45,0
1,note_on,83,57,0
1,note_on,83,0,480
1,note_on,79,52,0
1,note_on,79,0,240
1,note_on,76,52,0
1,note_on,76,0,240
1,note_on,71,0,0
1,note_on,69,45,0
1,note_on,81,57,0
1,note_on,81,0,480
1,note_on,78,52,0
1,note_on,78,0,240
1,note_on,75,52,0
1,note_on,75,0,240
1,note_on,69,0,0
1,note_on,76,72,0
1,note_on,76,0,1440
1,note_on,76,58,0
1,note_on,76,0,120
1,note_on,74,57,0
1,note_on,74,0,120
1,note_on,72,56,0
1,note_on,72,0,120
1,note_on,71,55,0
1,note_on,71,0,120
1,note_on,72,58,0
1,note_on,72,0,120
1,note_on,71,57,0
1,note_on,71,0,120
1,note_on,69,56,0
1,note_on,69,0,120
1,note_on,68,55,0
1,note_on,68,0,120
1,note_on,69,51,0
1,note_on,69,0,120
1,note_on,71,52,0
1,note_on,71,0,120
1,note_on,72,53,0
1,note_on,72,0,120
1,note_on,74,54,0
1,note_on,74,0,120
1,note_on,76,56,0
1,note_on,76,0,120
1,note_on,77,57,0
1,note_on,77,0,120
1,note_on,76,57,0
1,note_on,76,0,120
1,note_on,75,56,0
1,note_on,75,0,120
1,note_on,76,56,0
1,note_on,76,0,120
1,note_on,74,56,0
1,note_on,74,0,120
1,note_on,72,56,0
1,note_on,72,0,120
1,note_on,71,56,0
1,note_on,71,0,120
1,note_on,72,57,0
1,note_on,72,0,120
1,note_on,74,57,0
1,note_on,74,0,120
1,note_on,72,57,0
1,note_on,72,0,120
1,note_on,71,53,0
1,note_on,71,0,120
1,note_on,69,56,0
1,note_on,69,0,120
1,note_on,68,52,0
1,note_on,68,0,120
1,note_on,69,56,0
1,note_on,69,0,120
1,note_on,71,52,0
1,note_on,71,0,120
1,note_on,60,45,0
1,note_on,72,59,0
1,note_on,72,0,480
1,note_on,69,52,0
1,note_on,69,0,240
1,note_on,66,52,0
1,note_on,66,0,240
1,note_on,60,0,0
1,note_on,59,45,0
1,note_on,71,57,0
1,note_on,71,0,480
1,note_on,67,52,0
1,note_on,67,0,240
1,note_on,64,52,0
1,note_on,64,0,240
1,note_on,59,0,0
1,note_on,57,45,0
1,note_on,69,57,0
1,note_on,69,0,480
1,note_on,66,52,0
1,note_on,66,0,240
1,note_on,63,52,0
1,note_on,63,0,240
1,note_on,57,0,0
1,note_on,64,55,0
1,note_on,64,0,240
1,note_on,76,67,240
1,note_on,76,0,240
1,note_on,74,62,0
1,note_on,74,0,240
1,note_on,72,66,0
1,note_on,72,0,480
1,note_on,69,61,0
1,note_on,69,0,240
1,note_on,65,54,0
1,note_on,65,0,240
1,note_on,71,51,0
1,note_on,71,0,480
1,note_on,67,46,0
1,note_on,67,0,240
1,note_on,64,46,0
1,note_on,64,0,240
1,note_on,69,51,0
1,note_on,69,0,480
1,note_on,66,46,0
1,note_on,66,0,240
1,note_on,63,46,0
1,note_on,63,0,240
1,note_on,64,55,0
1,note_on,64,0,240
1,note_on,72,66,240
1,note_on,72,0,240
1,note_on,71,62,0
1,note_on,71,0,240
1,note_on,69,66,0
1,note_on,69,0,480
1,note_on,65,61,0
1,note_on,65,0,240
1,note_on,62,54,0
1,note_on,62,0,240
1,note_on,67,51,0
1,note_on,67,0,480
1,note_on,64,46,0
1,note_on,64,0,240
1,note_on,60,46,0
1,note_on,60,0,240
1,note_on,65,51,0
1,note_on,65,0,480
1,note_on,62,46,0
1,note_on,62,0,240
1,note_on,59,46,0
1,note_on,59,0,240
1,note_on,48,28,0
1,note_on,52,33,0
1,note_on,60,40,0
1,note_on,52,0,180
1,note_on,48,0,0
1,note_on,60,0,60
1,note_on,48,28,0
1,note_on,52,33,0
1,note_on,52,0,180
1,note_on,48,0,0
1,note_on,48,28,60
1,note_on,52,33,0
1,note_on,52,0,180
1,note_on,48,0,0
1,note_on,48,28,60
1,note_on,52,34,0
1,note_on,52,0,180
1,note_on,48,0,0
1,note_on,48,28,60
1,note_on,52,34,0
1,note_on,52,0,180
1,note_on,48,0,0
1,note_on,48,28,60
1,note_on,52,34,0
1,note_on,52,0,180
1,note_on,48,0,0
1,note_on,48,29,60
1,note_on,52,35,0
1,note_on,52,0,180
1,note_on,48,0,0
1,note_on,48,29,60
1,note_on,52,35,0
1,note_on,52,0,180
1,note_on,48,0,0
1,note_on,48,30,60
1,note_on,52,36,0
1,note_on,52,0,180
1,note_on,48,0,0
1,note_on,48,30,60
1,note_on,52,36,0
1,note_on,52,0,180
1,note_on,48,0,0
1,note_on,48,31,60
1,note_on,52,37,0
1,note_on,52,0,180
1,note_on,48,0,0
1,note_on,48,32,60
1,note_on,52,38,0
1,note_on,52,0,180
1,note_on,48,0,0
1,note_on,48,33,60
1,note_on,52,39,0
1,note_on,52,0,180
1,note_on,48,0,0
1,note_on,48,34,60
1,note_on,52,40,0
1,note_on,52,0,180
1,note_on,48,0,0
1,note_on,50,34,60
1,note_on,54,40,0
1,note_on,54,0,180
1,note_on,50,0,0
1,note_on,50,34,60
1,note_on,54,40,0
1,note_on,54,0,180
1,note_on,50,0,0
1,note_on,50,39,60
1,note_on,55,46,0
1,note_on,55,0,720
1,note_on,50,0,0
1,note_on,59,40,0
1,note_on,59,0,120
1,note_on,57,40,0
1,note_on,57,0,120
1,note_on,55,45,0
1,note_on,55,0,120
1,note_on,85,46,780
1,note_on,85,0,60
1,note_on,86,57,0
1,note_on,86,0,600
1,note_on,84,48,0
1,note_on,84,0,120
1,note_on,83,47,0
1,note_on,83,0,120
1,note_on,81,45,0
1,note_on,81,0,120
1,note_on,79,44,0
1,note_on,79,0,240
1,note_on,46,29,720
1,note_on,50,35,0
1,note_on,50,0,180
1,note_on,46,0,0
1,note_on,46,29,60
1,note_on,50,35,0
1,note_on,50,0,180
1,note_on,46,0,0
1,note_on,46,29,60
1,note_on,50,35,0
1,note_on,50,0,180
1,note_on,46,0,0
1,note_on,46,30,60
1,note_on,50,36,0
1,note_on,50,0,180
1,note_on,46,0,0
1,note_on,46,31,60
1,note_on,50,37,0
1,note_on,50,0,180
1,note_on,46,0,0
1,note_on,46,31,60
1,note_on,50,37,0
1,note_on,50,0,180
1,note_on,46,0,0
1,note_on,46,32,60
1,note_on,50,38,0
1,note_on,50,0,180
1,note_on,46,0,0
1,note_on,46,33,60
1,note_on,50,39,0
1,note_on,50,0,180
1,note_on,46,0,0
1,note_on,46,33,60
1,note_on,50,39,0
1,note_on,50,0,180
1,note_on,46,0,0
1,note_on,46,34,60
1,note_on,50,40,0
1,note_on,50,0,180
1,note_on,46,0,0
1,note_on,46,34,60
1,note_on,50,40,0
1,note_on,50,0,180
1,note_on,46,0,0
1,note_on,46,34,60
1,note_on,50,40,0
1,note_on,50,0,180
1,note_on,46,0,0
1,note_on,46,34,60
1,note_on,50,40,0
1,note_on,50,0,180
1,note_on,46,0,0
1,note_on,46,34,60
1,note_on,50,40,0
1,note_on,50,0,180
1,note_on,46,0,0
1,note_on,48,34,60
1,note_on,52,40,0
1,note_on,52,0,180
1,note_on,48,0,0
1,note_on,48,34,60
1,note_on,52,40,0
1,note_on,52,0,180
1,note_on,48,0,0
1,note_on,48,39,60
1,note_on,53,46,0
1,note_on,53,0,720
1,note_on,48,0,0
1,note_on,57,40,0
1,note_on,57,0,120
1,note_on,55,40,0
1,note_on,55,0,120
1,note_on,53,45,0
1,note_on,53,0,120
1,note_on,83,46,780
1,note_on,83,0,60
1,note_on,84,57,0
1,note_on,84,0,600
1,note_on,82,50,0
1,note_on,82,0,120
1,note_on,80,49,0
1,note_on,80,0,120
1,note_on,79,47,0
1,note_on,79,0,120
1,note_on,77,46,0
1,note_on,77,0,240
1,note_on,88,67,660
1,note_on,88,0,60
1,note_on,89,73,0
1,note_on,89,0,1440
1,note_on,89,74,0
1,note_on,89,0,120
1,note_on,87,73,0
1,note_on,87,0,120
1,note_on,86,71,0
1,note_on,86,0,120
1,note_on,84,70,0
1,note_on,84,0,120
1,note_on,83,72,0
1,note_on,83,0,120
1,note_on,84,71,0
1,note_on,84,0,120
1,note_on,86,72,0
1,note_on,86,0,120
1,note_on,87,73,0
1,note_on,87,0,120
1,note_on,89,74,0
1,note_on,89,0,120
1,note_on,87,72,0
1,note_on,87,0,120
1,note_on,86,71,0
1,note_on,86,0,120
1,note_on,84,69,0
1,note_on,84,0,120
1,note_on,83,72,0
1,note_on,83,0,120
1,note_on,84,75,0
1,note_on,84,0,120
1,note_on,86,77,0
1,note_on,86,0,120
1,note_on,87,80,0
1,note_on,87,0,120
1,note_on,89,80,0
1,note_on,89,0,120
1,note_on,87,80,0
1,note_on,87,0,120
1,note_on,86,79,0
1,note_on,86,0,120
1,note_on,84,81,0
1,note_on,84,0,120
1,note_on,83,85,0
1,note_on,83,0,120
1,note_on,84,89,0
1,note_on,84,0,120
1,note_on,86,94,0
1,note_on,86,0,120
1,note_on,87,98,0
1,note_on,87,0,120
1,note_on,89,100,0
1,note_on,89,0,120
1,note_on,87,98,0
1,note_on,87,0,120
1,note_on,86,96,0
1,note_on,86,0,120
1,note_on,84,94,0
1,note_on,84,0,120
1,note_on,83,93,0
1,note_on,83,0,120
1,note_on,80,91,0
1,note_on,80,0,120
1,note_on,79,89,0
1,note_on,79,0,120
1,note_on,77,87,0
1,note_on,77,0,120
1,note_on,75,85,0
1,note_on,75,0,120
1,note_on,74,83,0
1,note_on,74,0,120
1,note_on,72,81,0
1,note_on,72,0,120
1,note_on,71,79,0
1,note_on,71,0,120
1,note_on,72,93,0
1,note_on,72,0,180
1,note_on,67,83,300
1,note_on,67,0,180
1,note_on,63,72,300
1,note_on,63,0,180
1,note_on,60,64,300
1,note_on,60,0,180
1,note_on,55,60,300
1,note_on,55,0,1920
1,note_on,64,37,0
1,note_on,64,0,119
1,note_on,60,33,1
1,note_on,60,0,120
1,note_on,64,37,0
1,note_on,64,0,119
1,note_on,60,33,1
1,note_on,60,0,120
1,note_on,64,37,0
1,note_on,64,0,119
1,note_on,60,33,1
1,note_on,60,0,120
1,note_on,64,36,0
1,note_on,64,0,119
1,note_on,60,33,1
1,note_on,60,0,120
1,note_on,64,36,0
1,note_on,64,0,119
1,note_on,60,33,1
1,note_on,60,0,120
1,note_on,64,37,0
1,note_on,64,0,119
1,note_on,60,33,1
1,note_on,60,0,120
1,note_on,64,36,0
1,note_on,64,0,119
1,note_on,60,33,1
1,note_on,60,0,120
1,note_on,64,36,0
1,note_on,64,0,119
1,note_on,60,33,1
1,note_on,60,0,120
1,note_on,64,37,0
1,note_on,64,0,119
1,note_on,60,33,1
1,note_on,60,0,120
1,note_on,64,37,0
1,note_on,64,0,119
1,note_on,60,33,1
1,note_on,60,0,120
1,note_on,64,37,0
1,note_on,64,0,119
1,note_on,60,33,1
1,note_on,60,0,120
1,note_on,64,36,0
1,note_on,64,0,119
1,note_on,60,33,1
1,note_on,60,0,120
1,note_on,64,36,0
1,note_on,64,0,119
1,note_on,60,33,1
1,note_on,60,0,120
1,note_on,64,37,0
1,note_on,64,0,119
1,note_on,60,33,1
1,note_on,60,0,120
1,note_on,66,36,0
1,note_on,66,0,119
1,note_on,62,33,1
1,note_on,62,0,120
1,note_on,66,36,0
1,note_on,66,0,119
1,note_on,62,33,1
1,note_on,62,0,120
1,note_on,67,46,0
1,note_on,67,0,720
1,note_on,71,40,0
1,note_on,71,0,120
1,note_on,69,40,0
1,note_on,69,0,120
1,note_on,67,45,0
1,note_on,67,0,120
1,note_on,85,46,780
1,note_on,85,0,60
1,note_on,86,57,0
1,note_on,86,0,600
1,note_on,84,48,0
1,note_on,84,0,120
1,note_on,83,47,0
1,note_on,83,0,120
1,note_on,81,45,0
1,note_on,81,0,120
1,note_on,79,44,0
1,note_on,79,0,240
1,note_on,65,40,720
1,note_on,65,0,119
1,note_on,62,36,1
1,note_on,62,0,120
1,note_on,65,40,0
1,note_on,65,0,119
1,note_on,62,36,1
1,note_on,62,0,120
1,note_on,65,40,0
1,note_on,65,0,119
1,note_on,62,36,1
1,note_on,62,0,120
1,note_on,65,39,0
1,note_on,65,0,119
1,note_on,62,36,1
1,note_on,62,0,120
1,note_on,65,39,0
1,note_on,65,0,119
1,note_on,62,36,1
1,note_on,62,0,120
1,note_on,65,41,0
1,note_on,65,0,119
1,note_on,62,36,1
1,note_on,62,0,120
1,note_on,65,40,0
1,note_on,65,0,119
1,note_on,62,37,1
1,note_on,62,0,120
1,note_on,65,40,0
1,note_on,65,0,119
1,note_on,62,37,1
1,note_on,62,0,120
1,note_on,65,41,0
1,note_on,65,0,119
1,note_on,62,37,1
1,note_on,62,0,120
1,note_on,65,41,0
1,note_on,65,0,119
1,note_on,62,37,1
1,note_on,62,0,120
1,note_on,65,42,0
1,note_on,65,0,119
1,note_on,62,37,1
1,note_on,62,0,120
1,note_on,65,41,0
1,note_on,65,0,119
1,note_on,62,38,1
1,note_on,62,0,120
1,note_on,65,41,0
1,note_on,65,0,119
1,note_on,62,38,1
1,note_on,62,0,120
1,note_on,65,42,0
1,note_on,65,0,119
1,note_on,62,38,1
1,note_on,62,0,120
1,note_on,68,41,0
1,note_on,68,0,119
1,note_on,64,38,1
1,note_on,64,0,120
1,note_on,68,42,0
1,note_on,68,0,119
1,note_on,64,38,1
1,note_on,64,0,120
1,note_on,69,55,0
1,note_on,69,0,720
1,note_on,72,48,0
1,note_on,72,0,120
1,note_on,71,48,0
1,note_on,71,0,120
1,note_on,69,53,0
1,note_on,69,0,120
1,note_on,87,55,780
1,note_on,87,0,60
1,note_on,88,68,0
1,note_on,88,0,600
1,note_on,86,59,0
1,note_on,86,0,120
1,note_on,84,58,0
1,note_on,84,0,120
1,note_on,83,57,0
1,note_on,83,0,120
1,note_on,81,57,0
1,note_on,81,0,240
1,note_on,87,66,660
1,note_on,87,0,60
1,note_on,88,85,0
1,note_on,88,0,600
1,note_on,86,76,0
1,note_on,86,0,120
1,note_on,84,75,0
1,note_on,84,0,120
1,note_on,83,71,0
1,note_on,83,0,120
1,note_on,82,71,0
1,note_on,82,0,240
1,note_on,83,56,720
1,note_on,81,54,600
1,note_on,83,0,20
1,note_on,79,53,100
1,note_on,81,0,20
1,note_on,78,51,100
1,note_on,79,0,20
1,note_on,79,53,100
1,note_on,78,0,20
1,note_on,78,52,100
1,note_on,79,0,20
1,note_on,76,51,100
1,note_on,78,0,20
1,note_on,75,50,100
1,note_on,76,0,20
1,note_on,76,50,100
1,note_on,75,0,20
1,note_on,79,52,100
1,note_on,76,0,20
1,note_on,78,50,100
1,note_on,79,0,20
1,note_on,76,50,100
1,note_on,78,0,20
1,note_on,75,50,100
1,note_on,76,0,20
1,note_on,73,49,100
1,note_on,75,0,20
1,note_on,71,48,100
1,note_on,73,0,20
1,note_on,70,47,100
1,note_on,71,0,20
1,note_on,71,49,100
1,note_on,70,0,20
1,note_on,73,49,100
1,note_on,71,0,20
1,note_on,74,49,100
1,note_on,73,0,20
1,note_on,75,50,100
1,note_on,74,0,20
1,note_on,76,50,100
1,note_on,75,0,20
1,note_on,75,50,100
1,note_on,76,0,20
1,note_on,76,51,100
1,note_on,75,0,20
1,note_on,78,51,100
1,note_on,76,0,20
1,note_on,79,49,100
1,note_on,78,0,20
1,note_on,80,50,100
1,note_on,79,0,20
1,note_on,81,52,100
1,note_on,80,0,20
1,note_on,82,53,100
1,note_on,81,0,20
1,note_on,83,55,100
1,note_on,82,0,20
1,note_on,82,53,100
1,note_on,83,0,20
1,note_on,83,53,100
1,note_on,82,0,20
1,note_on,82,50,100
1,note_on,83,0,20
1,note_on,83,52,100
1,note_on,82,0,20
1,note_on,81,52,100
1,note_on,83,0,20
1,note_on,79,51,100
1,note_on,81,0,20
1,note_on,78,50,100
1,note_on,79,0,20
1,note_on,79,52,100
1,note_on,78,0,20
1,note_on,78,51,100
1,note_on,79,0,20
1,note_on,76,49,100
1,note_on,78,0,20
1,note_on,75,50,100
1,note_on,76,0,20
1,note_on,76,50,100
1,note_on,75,0,20
1,note_on,79,53,100
1,note_on,76,0,20
1,note_on,78,50,100
1,note_on,79,0,20
1,note_on,76,50,100
1,note_on,78,0,20
1,note_on,75,50,100
1,note_on,76,0,20
1,note_on,73,49,100
1,note_on,75,0,20
1,note_on,71,48,100
1,note_on,73,0,20
1,note_on,70,47,100
1,note_on,71,0,20
1,note_on,71,49,100
1,note_on,70,0,20
1,note_on,73,50,100
1,note_on,71,0,20
1,note_on,74,50,100
1,note_on,73,0,20
1,note_on,75,52,100
1,note_on,74,0,20
1,note_on,76,52,100
1,note_on,75,0,20
1,note_on,75,52,100
1,note_on,76,0,20
1,note_on,76,54,100
1,note_on,75,0,20
1,note_on,78,54,100
1,note_on,76,0,20
1,note_on,79,56,100
1,note_on,78,0,20
1,note_on,80,58,100
1,note_on,79,0,20
1,note_on,81,60,100
1,note_on,80,0,20
1,note_on,82,62,100
1,note_on,81,0,20
1,note_on,83,68,100
1,note_on,82,0,20
1,note_on,83,0,100
1,note_on,78,60,0
1,note_on,78,0,120
1,note_on,75,61,0
1,note_on,75,0,120
1,note_on,71,61,0
1,note_on,71,0,120
1,note_on,70,75,0
1,note_on,70,0,120
1,note_on,71,63,0
1,note_on,71,0,120
1,note_on,76,63,0
1,note_on,76,0,120
1,note_on,79,63,0
1,note_on,79,0,120
1,note_on,83,74,0
1,note_on,83,0,120
1,note_on,78,65,0
1,note_on,78,0,120
1,note_on,75,68,0
1,note_on,75,0,120
1,note_on,71,68,0
1,note_on,71,0,120
1,note_on,70,80,0
1,note_on,70,0,120
1,note_on,71,71,0
1,note_on,71,0,120
1,note_on,76,71,0
1,note_on,76,0,120
1,note_on,79,72,0
1,note_on,79,0,120
1,note_on,83,91,0
1,note_on,83,0,120
1,note_on,78,82,0
1,note_on,78,0,120
1,note_on,75,82,0
1,note_on,75,0,120
1,note_on,71,82,0
1,note_on,71,0,120
1,note_on,83,91,0
1,note_on,83,0,120
1,note_on,79,82,0
1,note_on,79,0,120
1,note_on,76,82,0
1,note_on,76,0,120
1,note_on,71,82,0
1,note_on,71,0,120
1,note_on,83,91,0
1,note_on,83,0,120
1,note_on,78,82,0
1,note_on,78,0,120
1,note_on,75,81,0
1,note_on,75,0,120
1,note_on,71,81,0
1,note_on,71,0,120
1,note_on,83,91,0
1,note_on,83,0,120
1,note_on,79,81,0
1,note_on,79,0,120
1,note_on,76,81,0
1,note_on,76,0,120
1,note_on,71,82,0
1,note_on,71,0,120
1,note_on,83,91,0
1,note_on,83,0,120
1,note_on,78,82,0
1,note_on,78,0,120
1,note_on,75,82,0
1,note_on,75,0,120
1,note_on,71,82,0
1,note_on,71,0,120
1,note_on,78,91,0
1,note_on,78,0,120
1,note_on,75,82,0
1,note_on,75,0,120
1,note_on,71,82,0
1,note_on,71,0,120
1,note_on,66,82,0
1,note_on,66,0,120
1,note_on,75,91,0
1,note_on,75,0,120
1,note_on,71,82,0
1,note_on,71,0,120
1,note_on,66,81,0
1,note_on,66,0,120
1,note_on,63,81,0
1,note_on,63,0,120
1,note_on,71,91,0
1,note_on,71,0,120
1,note_on,66,81,0
1,note_on,66,0,120
1,note_on,63,81,0
1,note_on,63,0,120
1,note_on,59,82,0
1,note_on,59,0,120
1,note_on,66,91,0
1,note_on,66,0,120
1,note_on,63,81,0
1,note_on,63,0,120
1,note_on,59,80,0
1,note_on,59,0,120
1,note_on,54,80,0
1,note_on,54,0,120
1,note_on,63,89,0
1,note_on,63,0,120
1,note_on,59,79,0
1,note_on,59,0,120
1,note_on,54,79,0
1,note_on,54,0,120
1,note_on,51,78,0
1,note_on,51,0,120
1,note_on,59,87,0
1,note_on,59,0,120
1,note_on,54,78,0
1,note_on,54,0,120
1,note_on,51,77,0
1,note_on,51,0,120
1,note_on,47,77,0
1,note_on,47,0,120
1,note_on,71,75,1440
1,note_on,71,0,120
1,note_on,59,69,120
1,note_on,59,0,120
1,note_on,73,74,120
1,note_on,73,0,120
1,note_on,61,65,120
1,note_on,61,0,120
1,note_on,75,71,120
1,note_on,75,0,120
1,note_on,63,64,120
1,note_on,63,0,120
1,note_on,75,67,600
1,note_on,75,0,120
1,note_on,63,53,120
1,note_on,63,0,120
1,note_on,76,59,120
1,note_on,76,0,120
1,note_on,64,50,120
1,note_on,64,0,120
1,note_on,78,52,120
1,note_on,78,0,120
1,note_on,66,49,120
1,note_on,66,0,120
1,note_on,80,52,120
1,note_on,80,0,120
1,note_on,68,49,120
1,note_on,68,0,120
1,note_on,81,52,120
1,note_on,81,0,120
1,note_on,69,48,120
1,note_on,69,0,120
1,note_on,81,52,120
1,note_on,81,0,120
1,note_on,71,46,120
1,note_on,71,0,120
1,note_on,81,51,120
1,note_on,81,0,120
1,note_on,73,46,120
1,note_on,73,0,120
1,note_on,81,51,120
1,note_on,81,0,120
1,note_on,75,46,120
1,note_on,75,0,120
1,note_on,81,51,120
1,note_on,81,0,120
1,note_on,76,47,120
1,note_on,76,0,120
1,note_on,81,50,120
1,note_on,81,0,120
1,note_on,78,46,120
1,note_on,78,0,120
1,note_on,71,42,120
1,note_on,76,42,0
1,note_on,80,55,0
1,note_on,80,0,960
1,note_on,76,0,0
1,note_on,71,0,0
1,note_on,69,40,0
1,note_on,75,40,0
1,note_on,78,52,0
1,note_on,78,0,480
1,note_on,75,0,0
1,note_on,69,0,0
1,note_on,68,40,0
1,note_on,73,40,0
1,note_on,76,52,0
1,note_on,76,0,480
1,note_on,73,0,0
1,note_on,68,0,0
1,note_on,66,42,0
1,note_on,72,42,0
1,note_on,75,55,0
1,note_on,75,0,960
1,note_on,72,0,0
1,note_on,66,0,0
1,note_on,64,40,0
1,note_on,73,52,0
1,note_on,73,0,960
1,note_on,64,0,0
1,note_on,69,49,0
1,note_on,71,49,0
1,note_on,75,63,0
1,note_on,75,0,960
1,note_on,71,0,0
1,note_on,69,0,0
1,note_on,71,50,0
1,note_on,76,66,0
1,note_on,76,0,480
1,note_on,71,0,0
1,note_on,73,49,0
1,note_on,76,55,0
1,note_on,78,72,0
1,note_on,78,0,480
1,note_on,76,0,0
1,note_on,73,0,0
1,note_on,71,59,0
1,note_on,76,59,0
1,note_on,80,77,0
1,note_on,80,0,960
1,note_on,76,0,0
1,note_on,75,32,0
1,note_on,78,49,0
1,note_on,71,0,480
1,note_on,69,48,0
1,note_on,69,0,480
1,note_on,78,0,0
1,note_on,75,0,0
1,note_on,59,37,0
1,note_on,64,37,0
1,note_on,68,45,0
1,note_on,68,0,960
1,note_on,64,0,0
1,note_on,59,0,0
1,note_on,57,36,0
1,note_on,63,36,0
1,note_on,66,43,0
1,note_on,66,0,480
1,note_on,63,0,0
1,note_on,57,0,0
1,note_on,56,36,0
1,note_on,61,36,0
1,note_on,64,43,0
1,note_on,64,0,480
1,note_on,61,0,0
1,note_on,56,0,0
1,note_on,54,37,0
1,note_on,60,37,0
1,note_on,63,45,0
1,note_on,63,0,960
1,note_on,60,0,0
1,note_on,54,0,0
1,note_on,57,36,0
1,note_on,52,36,0
1,note_on,61,43,0
1,note_on,61,0,960
1,note_on,52,0,0
1,note_on,57,0,0
1,note_on,52,44,0
1,note_on,56,44,0
1,note_on,59,52,0
1,note_on,56,0,480
1,note_on,52,0,0
1,note_on,54,49,0
1,note_on,57,49,0
1,note_on,59,0,480
1,note_on,61,61,0
1,note_on,61,0,480
1,note_on,63,68,0
1,note_on,63,0,480
1,note_on,57,0,0
1,note_on,54,0,0
1,note_on,56,42,0
1,note_on,64,49,0
1,note_on,64,0,120
1,note_on,56,0,40
1,note_on,66,48,0
1,note_on,66,0,120
1,note_on,68,49,40
1,note_on,68,0,120
1,note_on,69,46,40
1,note_on,69,0,120
1,note_on,71,47,40
1,note_on,71,0,120
1,note_on,73,48,40
1,note_on,73,0,120
1,note_on,74,50,40
1,note_on,74,0,120
1,note_on,75,51,40
1,note_on,75,0,120
1,note_on,76,52,40
1,note_on,76,0,120
1,note_on,77,53,40
1,note_on,77,0,120
1,note_on,78,51,40
1,note_on,78,0,120
1,note_on,79,52,40
1,note_on,79,0,120
1,note_on,71,46,40
1,note_on,80,56,0
1,note_on,80,0,160
1,note_on,79,53,0
1,note_on,79,0,160
1,note_on,80,53,0
1,note_on,80,0,160
1,note_on,81,53,0
1,note_on,81,0,160
1,note_on,79,53,0
1,note_on,79,0,160
1,note_on,80,53,0
1,note_on,80,0,160
1,note_on,71,0,0
1,note_on,69,60,0
1,note_on,80,54,160
1,note_on,80,0,160
1,note_on,78,54,0
1,note_on,78,0,160
1,note_on,69,0,0
1,note_on,68,60,0
1,note_on,78,53,160
1,note_on,78,0,160
1,note_on,76,53,0
1,note_on,76,0,160
1,note_on,68,0,0
1,note_on,66,60,0
1,note_on,72,54,160
1,note_on,72,0,160
1,note_on,75,54,0
1,note_on,75,0,160
1,note_on,76,54,0
1,note_on,76,0,160
1,note_on,72,54,0
1,note_on,72,0,160
1,note_on,75,54,0
1,note_on,75,0,160
1,note_on,66,0,0
1,note_on,64,60,0
1,note_on,69,54,160
1,note_on,69,0,160
1,note_on,73,54,0
1,note_on,73,0,160
1,note_on,75,54,0
1,note_on,75,0,160
1,note_on,69,54,0
1,note_on,69,0,160
1,note_on,73,54,0
1,note_on,73,0,160
1,note_on,64,0,0
1,note_on,69,62,0
1,note_on,74,62,160
1,note_on,74,0,160
1,note_on,75,57,0
1,note_on,75,0,160
1,note_on,76,57,0
1,note_on,76,0,160
1,note_on,74,59,0
1,note_on,74,0,160
1,note_on,75,59,0
1,note_on,75,0,160
1,note_on,69,0,0
1,note_on,71,71,0
1,note_on,78,63,160
1,note_on,78,0,160
1,note_on,76,64,0
1,note_on,76,0,160
1,note_on,71,0,0
1,note_on,73,74,0
1,note_on,80,65,160
1,note_on,80,0,160
1,note_on,78,65,0
1,note_on,78,0,160
1,note_on,73,0,0
1,note_on,80,79,0
1,note_on,76,79,0
1,note_on,80,0,160
1,note_on,79,72,0
1,note_on,79,0,160
1,note_on,80,72,0
1,note_on,80,0,160
1,note_on,83,68,0
1,note_on,83,0,160
1,note_on,81,72,0
1,note_on,81,0,160
1,note_on,80,69,0
1,note_on,80,0,160
1,note_on,76,0,0
1,note_on,75,67,0
1,note_on,78,67,0
1,note_on,78,0,160
1,note_on,75,0,0
1,note_on,73,64,0
1,note_on,76,64,0
1,note_on,76,0,160
1,note_on,73,0,0
1,note_on,75,60,0
1,note_on,71,60,0
1,note_on,71,0,160
1,note_on,75,0,0
1,note_on,69,60,0
1,note_on,73,60,0
1,note_on,73,0,160
1,note_on,69,0,0
1,note_on,68,56,0
1,note_on,71,56,0
1,note_on,71,0,160
1,note_on,68,0,0
1,note_on,66,53,0
1,note_on,69,53,0
1,note_on,69,0,160
1,note_on,66,0,0
1,note_on,59,57,0
1,note_on,68,57,0
1,note_on,68,0,160
1,note_on,67,49,0
1,note_on,67,0,160
1,note_on,68,49,0
1,note_on,68,0,160
1,note_on,69,49,0
1,note_on,69,0,160
1,note_on,67,49,0
1,note_on,67,0,160
1,note_on,68,49,0
1,note_on,68,0,160
1,note_on,59,0,0
1,note_on,57,56,0
1,note_on,68,50,160
1,note_on,68,0,160
1,note_on,66,50,0
1,note_on,66,0,160
1,note_on,57,0,0
1,note_on,56,56,0
1,note_on,66,49,160
1,note_on,66,0,160
1,note_on,64,49,0
1,note_on,64,0,160
1,note_on,56,0,0
1,note_on,60,50,160
1,note_on,60,0,160
1,note_on,63,50,0
1,note_on,63,0,160
1,note_on,64,53,0
1,note_on,64,0,160
1,note_on,60,50,0
1,note_on,60,0,160
1,note_on,63,50,0
1,note_on,63,0,160
1,note_on,57,50,160
1,note_on,57,0,160
1,note_on,61,50,0
1,note_on,61,0,160
1,note_on,63,53,0
1,note_on,63,0,160
1,note_on,57,50,0
1,note_on,57,0,160
1,note_on,61,50,0
1,note_on,61,0,160
1,note_on,52,60,0
1,note_on,56,56,160
1,note_on,56,0,160
1,note_on,59,57,0
1,note_on,59,0,160
1,note_on,52,0,0
1,note_on,54,66,0
1,note_on,57,61,160
1,note_on,57,0,160
1,note_on,59,61,0
1,note_on,59,0,160
1,note_on,54,0,0
1,note_on,54,74,0
1,note_on,57,67,160
1,note_on,57,0,160
1,note_on,61,65,0
1,note_on,61,0,160
1,note_on,54,0,0
1,note_on,54,80,0
1,note_on,57,71,160
1,note_on,57,0,160
1,note_on,63,70,0
1,note_on,63,0,160
1,note_on,54,0,0
1,note_on,56,77,0
1,note_on,64,82,0
1,note_on,64,0,160
1,note_on,56,0,0
1,note_on,59,75,0
1,note_on,59,0,160
1,note_on,56,77,0
1,note_on,56,0,160
1,note_on,59,82,0
1,note_on,59,0,160
1,note_on,64,77,0
1,note_on,64,0,160
1,note_on,68,77,0
1,note_on,68,0,160
1,note_on,66,82,0
1,note_on,66,0,160
1,note_on,63,77,0
1,note_on,63,0,160
1,note_on,59,77,0
1,note_on,59,0,160
1,note_on,63,82,0
1,note_on,63,0,160
1,note_on,66,77,0
1,note_on,66,0,160
1,note_on,69,77,0
1,note_on,69,0,160
1,note_on,68,82,0
1,note_on,68,0,160
1,note_on,64,75,0
1,note_on,64,0,160
1,note_on,59,77,0
1,note_on,59,0,160
1,note_on,64,82,0
1,note_on,64,0,160
1,note_on,68,77,0
1,note_on,68,0,160
1,note_on,71,77,0
1,note_on,71,0,160
1,note_on,69,82,0
1,note_on,69,0,160
1,note_on,66,77,0
1,note_on,66,0,160
1,note_on,63,77,0
1,note_on,63,0,160
1,note_on,75,82,0
1,note_on,75,0,160
1,note_on,69,77,0
1,note_on,69,0,160
1,note_on,66,77,0
1,note_on,66,0,160
1,note_on,68,63,0
1,note_on,76,75,0
1,note_on,76,0,480
1,note_on,68,0,0
1,note_on,71,80,0
1,note_on,71,0,960
1,note_on,71,80,0
1,note_on,71,0,960
1,note_on,71,80,0
1,note_on,71,0,960
1,note_on,71,80,0
1,note_on,71,0,480
1,note_on,76,82,0
1,note_on,76,0,160
1,note_on,71,75,0
1,note_on,71,0,160
1,note_on,68,77,0
1,note_on,68,0,160
1,note_on,71,82,0
1,note_on,71,0,160
1,note_on,76,77,0
1,note_on,76,0,160
1,note_on,80,77,0
1,note_on,80,0,160
1,note_on,78,82,0
1,note_on,78,0,160
1,note_on,75,77,0
1,note_on,75,0,160
1,note_on,71,77,0
1,note_on,71,0,160
1,note_on,75,82,0
1,note_on,75,0,160
1,note_on,78,77,0
1,note_on,78,0,160
1,note_on,81,77,0
1,note_on,81,0,160
1,note_on,80,82,0
1,note_on,80,0,160
1,note_on,76,75,0
1,note_on,76,0,160
1,note_on,71,77,0
1,note_on,71,0,160
1,note_on,76,82,0
1,note_on,76,0,160
1,note_on,80,77,0
1,note_on,80,0,160
1,note_on,83,77,0
1,note_on,83,0,160
1,note_on,81,82,0
1,note_on,81,0,160
1,note_on,78,77,0
1,note_on,78,0,160
1,note_on,75,77,0
1,note_on,75,0,160
1,note_on,87,82,0
1,note_on,87,0,160
1,note_on,81,77,0
1,note_on,81,0,160
1,note_on,78,77,0
1,note_on,78,0,160
1,note_on,88,86,0
1,note_on,83,74,160
1,note_on,88,0,80
1,note_on,83,0,80
1,note_on,80,74,0
1,note_on,80,0,160
1,note_on,83,82,0
1,note_on,80,73,160
1,note_on,83,0,80
1,note_on,80,0,80
1,note_on,76,72,0
1,note_on,76,0,160
1,note_on,81,79,0
1,note_on,78,71,160
1,note_on,81,0,80
1,note_on,78,0,80
1,note_on,75,70,0
1,note_on,75,0,160
1,note_on,87,76,0
1,note_on,83,69,160
1,note_on,87,0,80
1,note_on,83,0,80
1,note_on,78,67,0
1,note_on,78,0,160
1,note_on,88,75,0
1,note_on,83,65,160
1,note_on,88,0,80
1,note_on,83,0,80
1,note_on,80,65,0
1,note_on,80,0,160
1,note_on,83,72,0
1,note_on,80,64,160
1,note_on,83,0,80
1,note_on,80,0,80
1,note_on,76,63,0
1,note_on,76,0,160
1,note_on,81,69,0
1,note_on,78,62,160
1,note_on,81,0,80
1,note_on,78,0,80
1,note_on,75,60,0
1,note_on,75,0,160
1,note_on,87,69,0
1,note_on,83,59,160
1,note_on,87,0,80
1,note_on,83,0,80
1,note_on,78,58,0
1,note_on,78,0,160
1,note_on,88,64,0
1,note_on,88,0,120
1,note_on,83,58,0
1,note_on,83,0,120
1,note_on,80,58,0
1,note_on,80,0,120
1,note_on,76,59,0
1,note_on,76,0,120
1,note_on,81,65,0
1,note_on,81,0,120
1,note_on,78,59,0
1,note_on,78,0,120
1,note_on,87,62,0
1,note_on,87,0,120
1,note_on,83,63,0
1,note_on,83,0,120
1,note_on,88,69,0
1,note_on,88,0,120
1,note_on,83,63,0
1,note_on,83,0,120
1,note_on,80,63,0
1,note_on,80,0,120
1,note_on,76,64,0
1,note_on,76,0,120
1,note_on,81,71,0
1,note_on,81,0,120
1,note_on,78,66,0
1,note_on,78,0,120
1,note_on,87,67,0
1,note_on,87,0,120
1,note_on,83,67,0
1,note_on,83,0,120
1,note_on,88,74,0
1,note_on,88,0,120
1,note_on,83,67,0
1,note_on,83,0,120
1,note_on,87,69,0
1,note_on,87,0,120
1,note_on,83,69,0
1,note_on,83,0,120
1,note_on,88,77,0
1,note_on,88,0,120
1,note_on,83,77,0
1,note_on,83,0,120
1,note_on,87,72,0
1,note_on,87,0,120
1,note_on,83,73,0
1,note_on,83,0,120
1,note_on,88,80,0
1,note_on,88,0,120
1,note_on,83,73,0
1,note_on,83,0,120
1,note_on,87,74,0
1,note_on,87,0,120
1,note_on,83,74,0
1,note_on,83,0,120
1,note_on,88,82,0
1,note_on,88,0,120
1,note_on,83,85,0
1,note_on,83,0,120
1,note_on,87,78,0
1,note_on,87,0,120
1,note_on,83,79,0
1,note_on,83,0,120
1,note_on,88,89,0
1,note_on,88,0,120
1,note_on,83,81,0
1,note_on,83,0,120
1,note_on,86,81,0
1,note_on,86,0,120
1,note_on,83,81,0
1,note_on,83,0,120
1,note_on,86,89,0
1,note_on,86,0,120
1,note_on,83,83,0
1,note_on,83,0,120
1,note_on,86,82,0
1,note_on,86,0,120
1,note_on,83,82,0
1,note_on,83,0,120
1,note_on,86,89,0
1,note_on,86,0,120
1,note_on,83,81,0
1,note_on,83,0,120
1,note_on,86,81,0
1,note_on,86,0,120
1,note_on,83,81,0
1,note_on,83,0,120
1,note_on,86,89,0
1,note_on,86,0,120
1,note_on,83,83,0
1,note_on,83,0,120
1,note_on,86,82,0
1,note_on,86,0,120
1,note_on,83,82,0
1,note_on,83,0,120
1,note_on,86,89,0
1,note_on,86,0,240
1,note_on,85,81,0
1,note_on,85,0,120
1,note_on,83,81,0
1,note_on,83,0,120
1,note_on,81,86,0
1,note_on,81,0,120
1,note_on,80,82,0
1,note_on,80,0,120
1,note_on,78,83,0
1,note_on,78,0,120
1,note_on,76,83,0
1,note_on,76,0,120
1,note_on,74,86,0
1,note_on,74,0,120
1,note_on,73,82,0
1,note_on,73,0,120
1,note_on,71,83,0
1,note_on,71,0,120
1,note_on,69,83,0
1,note_on,69,0,120
1,note_on,68,88,0
1,note_on,68,0,120
1,note_on,66,85,0
1,note_on,66,0,120
1,note_on,64,85,0
1,note_on,64,0,120
1,note_on,62,85,0
1,note_on,62,0,120
1,note_on,61,93,0
1,note_on,61,0,120
1,note_on,63,83,0
1,note_on,63,0,120
1,note_on,64,83,0
1,note_on,64,0,120
1,note_on,63,84,0
1,note_on,63,0,120
1,note_on,64,92,0
1,note_on,64,0,120
1,note_on,68,84,0
1,note_on,68,0,120
1,note_on,69,84,0
1,note_on,69,0,120
1,note_on,68,84,0
1,note_on,68,0,120
1,note_on,69,93,0
1,note_on,69,0,120
1,note_on,72,84,0
1,note_on,72,0,120
1,note_on,73,84,0
1,note_on,73,0,120
1,note_on,72,84,0
1,note_on,72,0,120
1,note_on,73,93,0
1,note_on,73,0,120
1,note_on,75,84,0
1,note_on,75,0,120
1,note_on,76,84,0
1,note_on,76,0,120
1,note_on,75,84,0
1,note_on,75,0,120
1,note_on,76,95,0
1,note_on,76,0,120
1,note_on,80,85,0
1,note_on,80,0,120
1,note_on,81,85,0
1,note_on,81,0,120
1,note_on,80,85,0
1,note_on,80,0,120
1,note_on,81,95,0
1,note_on,81,0,120
1,note_on,84,85,0
1,note_on,84,0,120
1,note_on,85,85,0
1,note_on,85,0,120
1,note_on,84,86,0
1,note_on,84,0,120
1,note_on,85,95,0
1,note_on,85,0,120
1,note_on,87,86,0
1,note_on,87,0,120
1,note_on,88,86,0
1,note_on,88,0,120
1,note_on,87,86,0
1,note_on,87,0,120
1,note_on,88,95,0
1,note_on,88,0,120
1,note_on,87,86,0
1,note_on,87,0,120
1,note_on,85,86,0
1,note_on,85,0,120
1,note_on,84,86,0
1,note_on,84,0,120
1,note_on,85,95,0
1,note_on,85,0,120
1,note_on,84,86,0
1,note_on,84,0,120
1,note_on,85,86,0
1,note_on,85,0,120
1,note_on,87,86,0
1,note_on,87,0,120
1,note_on,88,95,0
1,note_on,88,0,120
1,note_on,87,86,0
1,note_on,87,0,120
1,note_on,85,86,0
1,note_on,85,0,120
1,note_on,84,86,0
1,note_on,84,0,120
1,note_on,85,95,0
1,note_on,85,0,120
1,note_on,84,86,0
1,note_on,84,0,120
1,note_on,85,86,0
1,note_on,85,0,120
1,note_on,87,86,0
1,note_on,87,0,120
1,note_on,88,95,0
1,note_on,88,0,120
1,note_on,87,86,0
1,note_on,87,0,120
1,note_on,85,86,0
1,note_on,85,0,120
1,note_on,84,86,0
1,note_on,84,0,120
1,note_on,85,95,0
1,note_on,85,0,120
1,note_on,84,86,0
1,note_on,84,0,120
1,note_on,85,86,0
1,note_on,85,0,120
1,note_on,87,86,0
1,note_on,87,0,120
1,note_on,88,95,0
1,note_on,88,0,120
1,note_on,87,86,0
1,note_on,87,0,120
1,note_on,85,86,0
1,note_on,85,0,120
1,note_on,84,86,0
1,note_on,84,0,120
1,note_on,85,95,0
1,note_on,85,0,120
1,note_on,84,86,0
1,note_on,84,0,120
1,note_on,85,86,0
1,note_on,85,0,120
1,note_on,87,86,0
1,note_on,87,0,120
1,note_on,88,95,0
1,note_on,88,0,120
1,note_on,87,86,0
1,note_on,87,0,120
1,note_on,88,86,0
1,note_on,88,0,120
1,note_on,85,86,0
1,note_on,85,0,120
1,note_on,71,87,0
1,note_on,83,103,0
1,note_on,83,0,120
1,note_on,71,0,0
1,note_on,71,73,120
1,note_on,83,87,0
1,note_on,83,0,120
1,note_on,71,0,0
1,note_on,68,74,120
1,note_on,80,88,0
1,note_on,80,0,120
1,note_on,68,0,0
1,note_on,64,73,120
1,note_on,76,87,0
1,note_on,76,0,120
1,note_on,64,0,0
1,note_on,76,87,120
1,note_on,88,103,0
1,note_on,88,0,120
1,note_on,76,0,0
1,note_on,76,73,120
1,note_on,88,87,0
1,note_on,88,0,120
1,note_on,76,0,0
1,note_on,71,73,120
1,note_on,83,87,0
1,note_on,83,0,120
1,note_on,71,0,0
1,note_on,68,73,120
1,note_on,80,87,0
1,note_on,80,0,120
1,note_on,68,0,0
1,note_on,71,87,120
1,note_on,83,103,0
1,note_on,83,0,120
1,note_on,71,0,0
1,note_on,71,73,120
1,note_on,83,87,0
1,note_on,83,0,120
1,note_on,71,0,0
1,note_on,68,74,120
1,note_on,80,88,0
1,note_on,80,0,120
1,note_on,68,0,0
1,note_on,64,73,120
1,note_on,76,87,0
1,note_on,76,0,120
1,note_on,64,0,0
1,note_on,76,87,120
1,note_on,88,103,0
1,note_on,88,0,120
1,note_on,76,0,0
1,note_on,76,73,120
1,note_on,88,87,0
1,note_on,88,0,120
1,note_on,76,0,0
1,note_on,71,73,120
1,note_on,83,87,0
1,note_on,83,0,120
1,note_on,71,0,0
1,note_on,68,73,120
1,note_on,80,87,0
1,note_on,80,0,120
1,note_on,68,0,0
1,note_on,80,47,240
1,note_on,80,0,120
1,note_on,83,50,0
1,note_on,83,0,119
1,note_on,80,47,1
1,note_on,80,0,120
1,note_on,83,51,0
1,note_on,83,0,119
1,note_on,80,47,1
1,note_on,80,0,120
1,note_on,83,50,0
1,note_on,83,0,119
1,note_on,80,47,1
1,note_on,80,0,120
1,note_on,83,51,0
1,note_on,83,0,119
1,note_on,80,47,1
1,note_on,80,0,120
1,note_on,83,50,0
1,note_on,83,0,119
1,note_on,80,47,1
1,note_on,80,0,120
1,note_on,83,52,0
1,note_on,83,0,119
1,note_on,80,47,1
1,note_on,80,0,120
1,note_on,83,51,0
1,note_on,83,0,119
1,note_on,80,47,1
1,note_on,80,0,120
1,note_on,83,50,0
1,note_on,83,0,119
1,note_on,80,47,1
1,note_on,80,0,120
1,note_on,83,50,0
1,note_on,83,0,119
1,note_on,80,47,1
1,note_on,80,0,120
1,note_on,83,51,0
1,note_on,83,0,119
1,note_on,80,47,1
1,note_on,80,0,120
1,note_on,83,50,0
1,note_on,83,0,119
1,note_on,80,47,1
1,note_on,80,0,120
1,note_on,83,51,0
1,note_on,83,0,119
1,note_on,80,47,1
1,note_on,80,0,120
1,note_on,83,50,0
1,note_on,83,0,119
1,note_on,80,47,1
1,note_on,80,0,120
1,note_on,83,52,0
1,note_on,83,0,119
1,note_on,80,47,1
1,note_on,80,0,120
1,note_on,83,51,0
1,note_on,83,0,119
1,note_on,80,47,1
1,note_on,80,0,120
1,note_on,81,42,120
1,note_on,81,0,120
1,note_on,83,45,0
1,note_on,83,0,119
1,note_on,81,41,1
1,note_on,81,0,120
1,note_on,84,44,0
1,note_on,84,0,119
1,note_on,81,40,1
1,note_on,81,0,120
1,note_on,83,42,0
1,note_on,83,0,119
1,note_on,81,39,1
1,note_on,81,0,120
1,note_on,84,42,0
1,note_on,84,0,119
1,note_on,81,38,1
1,note_on,81,0,120
1,note_on,83,40,0
1,note_on,83,0,119
1,note_on,81,37,1
1,note_on,81,0,120
1,note_on,84,40,0
1,note_on,84,0,119
1,note_on,81,36,1
1,note_on,81,0,120
1,note_on,83,39,0
1,note_on,83,0,119
1,note_on,81,35,1
1,note_on,81,0,120
1,note_on,84,37,0
1,note_on,84,0,119
1,note_on,81,34,1
1,note_on,81,0,120
1,note_on,83,36,0
1,note_on,83,0,119
1,note_on,81,34,1
1,note_on,81,0,120
1,note_on,84,37,0
1,note_on,84,0,119
1,note_on,81,34,1
1,note_on,81,0,120
1,note_on,83,36,0
1,note_on,83,0,119
1,note_on,81,34,1
1,note_on,81,0,120
1,note_on,84,37,0
1,note_on,84,0,119
1,note_on,81,34,1
1,note_on,81,0,120
1,note_on,83,36,0
1,note_on,83,0,119
1,note_on,81,34,1
1,note_on,81,0,120
1,note_on,84,38,0
1,note_on,84,0,119
1,note_on,81,34,1
1,note_on,81,0,120
1,note_on,83,37,0
1,note_on,83,0,119
1,note_on,81,34,1
1,note_on,81,0,120
1,note_on,85,37,0
1,note_on,85,0,120
1,note_on,81,34,0
1,note_on,81,0,120
1,note_on,83,36,0
1,note_on,83,0,120
1,note_on,81,35,0
1,note_on,81,0,120
1,note_on,85,38,0
1,note_on,85,0,120
1,note_on,81,36,0
1,note_on,81,0,120
1,note_on,83,38,0
1,note_on,83,0,120
1,note_on,81,36,0
1,note_on,81,0,120
1,note_on,85,40,0
1,note_on,85,0,120
1,note_on,81,37,0
1,note_on,81,0,120
1,note_on,83,40,0
1,note_on,83,0,120
1,note_on,81,38,0
1,note_on,81,0,120
1,note_on,85,43,0
1,note_on,85,0,120
1,note_on,81,39,0
1,note_on,81,0,120
1,note_on,83,43,0
1,note_on,83,0,120
1,note_on,81,40,0
1,note_on,81,0,120
1,note_on,90,44,0
1,note_on,90,0,120
1,note_on,83,41,0
1,note_on,81,41,0
1,note_on,81,0,120
1,note_on,83,0,0
1,note_on,90,43,0
1,note_on,90,0,120
1,note_on,83,41,0
1,note_on,81,41,0
1,note_on,81,0,120
1,note_on,83,0,0
1,note_on,90,46,0
1,note_on,90,0,120
1,note_on,83,42,0
1,note_on,81,42,0
1,note_on,81,0,120
1,note_on,83,0,0
1,note_on,90,46,0
1,note_on,90,0,120
1,note_on,83,44,0
1,note_on,81,44,0
1,note_on,81,0,120
1,note_on,83,0,0
1,note_on,90,49,0
1,note_on,90,0,120
1,note_on,83,45,0
1,note_on,81,45,0
1,note_on,81,0,120
1,note_on,83,0,0
1,note_on,90,49,0
1,note_on,90,0,120
1,note_on,83,47,0
1,note_on,81,47,0
1,note_on,81,0,120
1,note_on,83,0,0
1,note_on,90,54,0
1,note_on,90,0,120
1,note_on,83,48,0
1,note_on,81,48,0
1,note_on,81,0,120
1,note_on,83,0,0
1,note_on,90,53,0
1,note_on,90,0,120
1,note_on,83,49,0
1,note_on,81,49,0
1,note_on,81,0,120
1,note_on,83,0,0
1,note_on,80,72,0
1,note_on,83,72,0
1,note_on,88,72,0
1,note_on,88,0,1440
1,note_on,83,0,0
1,note_on,80,0,0
1,note_on,88,58,0
1,note_on,88,0,120
1,note_on,86,57,0
1,note_on,86,0,120
1,note_on,84,56,0
1,note_on,84,0,120
1,note_on,83,55,0
1,note_on,83,0,120
1,note_on,84,58,0
1,note_on,84,0,120
1,note_on,83,57,0
1,note_on,83,0,120
1,note_on,81,56,0
1,note_on,81,0,120
1,note_on,80,55,0
1,note_on,80,0,120
1,note_on,81,51,0
1,note_on,81,0,120
1,note_on,83,52,0
1,note_on,83,0,120
1,note_on,84,53,0
1,note_on,84,0,120
1,note_on,86,54,0
1,note_on,86,0,120
1,note_on,88,56,0
1,note_on,88,0,120
1,note_on,89,57,0
1,note_on,89,0,120
1,note_on,88,57,0
1,note_on,88,0,120
1,note_on,87,56,0
1,note_on,87,0,120
1,note_on,88,56,0
1,note_on,88,0,120
1,note_on,86,56,0
1,note_on,86,0,120
1,note_on,84,56,0
1,note_on,84,0,120
1,note_on,83,56,0
1,note_on,83,0,120
1,note_on,84,57,0
1,note_on,84,0,120
1,note_on,86,57,0
1,note_on,86,0,120
1,note_on,84,57,0
1,note_on,84,0,120
1,note_on,83,53,0
1,note_on,83,0,120
1,note_on,81,56,0
1,note_on,81,0,120
1,note_on,80,52,0
1,note_on,80,0,120
1,note_on,81,56,0
1,note_on,81,0,120
1,note_on,83,52,0
1,note_on,83,0,120
1,note_on,72,45,0
1,note_on,84,59,0
1,note_on,84,0,480
1,note_on,81,52,0
1,note_on,81,0,240
1,note_on,78,52,0
1,note_on,78,0,240
1,note_on,72,0,0
1,note_on,71,45,0
1,note_on,83,57,0
1,note_on,83,0,480
1,note_on,79,52,0
1,note_on,79,0,240
1,note_on,76,52,0
1,note_on,76,0,240
1,note_on,71,0,0
1,note_on,69,45,0
1,note_on,81,57,0
1,note_on,81,0,480
1,note_on,78,52,0
1,note_on,78,0,240
1,note_on,75,52,0
1,note_on,75,0,240
1,note_on,69,0,0
1,note_on,76,72,0
1,note_on,76,0,1440
1,note_on,76,58,0
1,note_on,76,0,120
1,note_on,74,57,0
1,note_on,74,0,120
1,note_on,72,56,0
1,note_on,72,0,120
1,note_on,71,55,0
1,note_on,71,0,120
1,note_on,72,58,0
1,note_on,72,0,120
1,note_on,71,57,0
1,note_on,71,0,120
1,note_on,69,56,0
1,note_on,69,0,120
1,note_on,68,55,0
1,note_on,68,0,120
1,note_on,69,51,0
1,note_on,69,0,120
1,note_on,71,52,0
1,note_on,71,0,120
1,note_on,72,53,0
1,note_on,72,0,120
1,note_on,74,54,0
1,note_on,74,0,120
1,note_on,76,56,0
1,note_on,76,0,120
1,note_on,77,57,0
1,note_on,77,0,120
1,note_on,76,57,0
1,note_on,76,0,120
1,note_on,75,56,0
1,note_on,75,0,120
1,note_on,76,56,0
1,note_on,76,0,120
1,note_on,74,56,0
1,note_on,74,0,120
1,note_on,72,56,0
1,note_on,72,0,120
1,note_on,71,56,0
1,note_on,71,0,120
1,note_on,72,57,0
1,note_on,72,0,120
1,note_on,74,57,0
1,note_on,74,0,120
1,note_on,72,57,0
1,note_on,72,0,120
1,note_on,71,53,0
1,note_on,71,0,120
1,note_on,69,56,0
1,note_on,69,0,120
1,note_on,68,52,0
1,note_on,68,0,120
1,note_on,69,56,0
1,note_on,69,0,120
1,note_on,71,52,0
1,note_on,71,0,120
1,note_on,60,45,0
1,note_on,72,59,0
1,note_on,72,0,480
1,note_on,69,52,0
1,note_on,69,0,240
1,note_on,66,52,0
1,note_on,66,0,240
1,note_on,60,0,0
1,note_on,59,45,0
1,note_on,71,57,0
1,note_on,71,0,480
1,note_on,67,52,0
1,note_on,67,0,240
1,note_on,64,52,0
1,note_on,64,0,240
1,note_on,59,0,0
1,note_on,57,45,0
1,note_on,69,57,0
1,note_on,69,0,480
1,note_on,66,52,0
1,note_on,66,0,240
1,note_on,63,52,0
1,note_on,63,0,240
1,note_on,57,0,0
1,note_on,64,55,0
1,note_on,64,0,240
1,note_on,76,68,240
1,note_on,76,0,240
1,note_on,74,63,0
1,note_on,74,0,240
1,note_on,72,66,0
1,note_on,72,0,480
1,note_on,69,61,0
1,note_on,69,0,240
1,note_on,65,54,0
1,note_on,65,0,240
1,note_on,71,51,0
1,note_on,71,0,480
1,note_on,67,46,0
1,note_on,67,0,240
1,note_on,64,46,0
1,note_on,64,0,240
1,note_on,69,51,0
1,note_on,69,0,480
1,note_on,66,46,0
1,note_on,66,0,240
1,note_on,63,46,0
1,note_on,63,0,240
1,note_on,64,55,0
1,note_on,64,0,240
1,note_on,72,67,240
1,note_on,72,0,240
1,note_on,71,63,0
1,note_on,71,0,240
1,note_on,69,66,0
1,note_on,69,0,480
1,note_on,65,61,0
1,note_on,65,0,240
1,note_on,62,54,0
1,note_on,62,0,240
1,note_on,67,51,0
1,note_on,67,0,480
1,note_on,64,46,0
1,note_on,64,0,240
1,note_on,60,46,0
1,note_on,60,0,240
1,note_on,65,51,0
1,note_on,65,0,480
1,note_on,62,46,0
1,note_on,62,0,240
1,note_on,59,46,0
1,note_on,59,0,240
1,note_on,60,55,0
1,note_on,60,0,480
1,note_on,77,69,0
1,note_on,77,0,240
1,note_on,76,64,0
1,note_on,76,0,240
1,note_on,74,66,0
1,note_on,74,0,480
1,note_on,70,61,0
1,note_on,70,0,240
1,note_on,67,54,0
1,note_on,67,0,240
1,note_on,72,51,0
1,note_on,72,0,480
1,note_on,69,46,0
1,note_on,69,0,240
1,note_on,65,46,0
1,note_on,65,0,240
1,note_on,70,51,0
1,note_on,70,0,480
1,note_on,67,46,0
1,note_on,67,0,240
1,note_on,64,46,0
1,note_on,64,0,240
1,note_on,65,55,0
1,note_on,65,0,240
1,note_on,65,68,240
1,note_on,65,0,240
1,note_on,64,63,0
1,note_on,64,0,240
1,note_on,62,66,0
1,note_on,62,0,480
1,note_on,58,61,0
1,note_on,58,0,240
1,note_on,55,54,0
1,note_on,55,0,240
1,note_on,60,51,0
1,note_on,60,0,480
1,note_on,57,46,0
1,note_on,57,0,240
1,note_on,53,46,0
1,note_on,53,0,240
1,note_on,58,51,0
1,note_on,58,0,480
1,note_on,55,46,0
1,note_on,55,0,240
1,note_on,52,46,0
1,note_on,52,0,240
1,note_on,45,33,0
1,note_on,53,40,0
1,note_on,45,0,120
1,note_on,53,0,120
1,note_on,41,28,0
1,note_on,45,33,0
1,note_on,45,0,120
1,note_on,41,0,0
1,note_on,41,28,120
1,note_on,45,33,0
1,note_on,45,0,120
1,note_on,41,0,0
1,note_on,41,28,120
1,note_on,45,34,0
1,note_on,45,0,120
1,note_on,41,0,0
1,note_on,41,28,120
1,note_on,45,34,0
1,note_on,45,0,120
1,note_on,41,0,0
1,note_on,41,28,120
1,note_on,45,34,0
1,note_on,45,0,120
1,note_on,41,0,0
1,note_on,41,29,120
1,note_on,45,35,0
1,note_on,45,0,120
1,note_on,41,0,0
1,note_on,41,29,120
1,note_on,45,35,0
1,note_on,45,0,120
1,note_on,41,0,0
1,note_on,41,30,120
1,note_on,45,36,0
1,note_on,45,0,120
1,note_on,41,0,0
1,note_on,41,30,120
1,note_on,45,36,0
1,note_on,45,0,120
1,note_on,41,0,0
1,note_on,41,31,120
1,note_on,45,37,0
1,note_on,45,0,120
1,note_on,41,0,0
1,note_on,41,32,120
1,note_on,45,38,0
1,note_on,45,0,120
1,note_on,41,0,0
1,note_on,41,33,120
1,note_on,45,39,0
1,note_on,45,0,120
1,note_on,41,0,0
1,note_on,41,34,120
1,note_on,45,40,0
1,note_on,45,0,120
1,note_on,41,0,0
1,note_on,43,34,120
1,note_on,47,40,0
1,note_on,47,0,120
1,note_on,43,0,0
1,note_on,43,34,120
1,note_on,47,40,0
1,note_on,47,0,120
1,note_on,43,0,0
1,note_on,48,46,120
1,note_on,48,0,720
1,note_on,52,40,0
1,note_on,52,0,120
1,note_on,50,40,0
1,note_on,50,0,120
1,note_on,48,45,0
1,note_on,48,0,120
1,note_on,78,46,780
1,note_on,78,0,60
1,note_on,79,57,0
1,note_on,79,0,600
1,note_on,77,48,0
1,note_on,77,0,120
1,note_on,75,47,0
1,note_on,75,0,120
1,note_on,74,45,0
1,note_on,74,0,120
1,note_on,72,44,0
1,note_on,72,0,240
1,note_on,54,46,720
1,note_on,54,0,720
1,note_on,57,40,0
1,note_on,57,0,120
1,note_on,55,40,0
1,note_on,55,0,120
1,note_on,54,45,0
1,note_on,54,0,120
1,note_on,86,46,780
1,note_on,86,0,60
1,note_on,87,57,0
1,note_on,87,0,600
1,note_on,86,48,0
1,note_on,86,0,120
1,note_on,84,47,0
1,note_on,84,0,120
1,note_on,82,45,0
1,note_on,82,0,120
1,note_on,81,44,0
1,note_on,81,0,240
1,note_on,58,57,720
1,note_on,58,0,240
1,note_on,62,48,0
1,note_on,62,0,120
1,note_on,60,48,0
1,note_on,60,0,120
1,note_on,58,51,0
1,note_on,58,0,240
1,note_on,84,54,240
1,note_on,84,0,120
1,note_on,82,52,0
1,note_on,82,0,120
1,note_on,81,50,0
1,note_on,81,0,120
1,note_on,79,48,0
1,note_on,79,0,120
1,note_on,78,51,0
1,note_on,78,0,240
1,note_on,67,57,240
1,note_on,67,0,240
1,note_on,70,48,0
1,note_on,70,0,120
1,note_on,69,48,0
1,note_on,69,0,120
1,note_on,67,51,0
1,note_on,67,0,240
1,note_on,87,54,240
1,note_on,87,0,120
1,note_on,86,52,0
1,note_on,86,0,120
1,note_on,84,50,0
1,note_on,84,0,120
1,note_on,82,48,0
1,note_on,82,0,120
1,note_on,81,51,0
1,note_on,81,0,240
1,note_on,58,59,240
1,note_on,58,0,240
1,note_on,62,50,0
1,note_on,62,0,120
1,note_on,60,51,0
1,note_on,60,0,120
1,note_on,58,56,0
1,note_on,58,0,240
1,note_on,84,63,240
1,note_on,84,0,120
1,note_on,82,63,0
1,note_on,82,0,120
1,note_on,81,62,0
1,note_on,81,0,120
1,note_on,79,60,0
1,note_on,79,0,120
1,note_on,78,64,0
1,note_on,78,0,240
1,note_on,74,73,240
1,note_on,74,0,120
1,note_on,72,71,0
1,note_on,72,0,120
1,note_on,70,71,0
1,note_on,70,0,120
1,note_on,69,67,0
1,note_on,69,0,120
1,note_on,67,74,0
1,note_on,67,0,240
1,note_on,80,87,240
1,note_on,80,0,120
1,note_on,79,83,0
1,note_on,79,0,120
1,note_on,77,81,0
1,note_on,77,0,120
1,note_on,75,78,0
1,note_on,75,0,120
1,note_on,74,83,0
1,note_on,74,0,240
1,note_on,63,57,240
1,note_on,63,0,240
1,note_on,67,48,0
1,note_on,67,0,120
1,note_on,65,48,0
1,note_on,65,0,120
1,note_on,63,51,0
1,note_on,63,0,240
1,note_on,77,54,240
1,note_on,77,0,120
1,note_on,75,52,0
1,note_on,75,0,120
1,note_on,74,50,0
1,note_on,74,0,120
1,note_on,72,48,0
1,note_on,72,0,120
1,note_on,71,51,0
1,note_on,71,0,240
1,note_on,60,57,240
1,note_on,60,0,240
1,note_on,63,48,0
1,note_on,63,0,120
1,note_on,62,48,0
1,note_on,62,0,120
1,note_on,60,51,0
1,note_on,60,0,240
1,note_on,80,54,240
1,note_on,80,0,120
1,note_on,79,52,0
1,note_on,79,0,120
1,note_on,77,50,0
1,note_on,77,0,120
1,note_on,75,48,0
1,note_on,75,0,120
1,note_on,74,51,0
1,note_on,74,0,240
1,note_on,63,59,240
1,note_on,63,0,240
1,note_on,67,50,0
1,note_on,67,0,120
1,note_on,65,51,0
1,note_on,65,0,120
1,note_on,63,56,0
1,note_on,63,0,240
1,note_on,77,63,240
1,note_on,77,0,120
1,note_on,75,63,0
1,note_on,75,0,120
1,note_on,74,62,0
1,note_on,74,0,120
1,note_on,72,60,0
1,note_on,72,0,120
1,note_on,71,64,0
1,note_on,71,0,240
1,note_on,79,73,240
1,note_on,79,0,120
1,note_on,77,71,0
1,note_on,77,0,120
1,note_on,75,71,0
1,note_on,75,0,120
1,note_on,74,67,0
1,note_on,74,0,120
1,note_on,72,74,0
1,note_on,72,0,240
1,note_on,85,87,240
1,note_on,85,0,120
1,note_on,84,83,0
1,note_on,84,0,120
1,note_on,82,81,0
1,note_on,82,0,120
1,note_on,80,78,0
1,note_on,80,0,120
1,note_on,79,83,0
1,note_on,79,0,240
1,note_on,80,48,240
1,note_on,80,0,240
1,note_on,84,40,0
1,note_on,84,0,120
1,note_on,82,40,0
1,note_on,82,0,120
1,note_on,80,43,0
1,note_on,80,0,240
1,note_on,85,48,240
1,note_on,85,0,240
1,note_on,89,40,0
1,note_on,89,0,120
1,note_on,87,40,0
1,note_on,87,0,120
1,note_on,85,43,0
1,note_on,85,0,240
1,note_on,66,40,240
1,note_on,66,0,240
1,note_on,70,34,0
1,note_on,70,0,120
1,note_on,68,34,0
1,note_on,68,0,120
1,note_on,66,36,0
1,note_on,66,0,240
1,note_on,71,40,240
1,note_on,71,0,960
1,note_on,77,48,0
1,note_on,77,0,240
1,note_on,81,40,0
1,note_on,81,0,120
1,note_on,79,40,0
1,note_on,79,0,120
1,note_on,77,43,0
1,note_on,77,0,240
1,note_on,82,48,240
1,note_on,82,0,240
1,note_on,85,40,0
1,note_on,85,0,120
1,note_on,84,40,0
1,note_on,84,0,120
1,note_on,82,43,0
1,note_on,82,0,240
1,note_on,63,40,240
1,note_on,63,0,240
1,note_on,67,34,0
1,note_on,67,0,120
1,note_on,65,34,0
1,note_on,65,0,120
1,note_on,63,36,0
1,note_on,63,0,240
1,note_on,68,40,240
1,note_on,68,0,960
1,note_on,73,48,0
1,note_on,73,0,240
1,note_on,77,40,0
1,note_on,77,0,120
1,note_on,75,40,0
1,note_on,75,0,120
1,note_on,73,43,0
1,note_on,73,0,240
1,note_on,78,48,240
1,note_on,78,0,240
1,note_on,82,40,0
1,note_on,82,0,120
1,note_on,80,40,0
1,note_on,80,0,120
1,note_on,78,43,0
1,note_on,78,0,240
1,note_on,60,42,240
1,note_on,60,0,240
1,note_on,64,35,0
1,note_on,64,0,120
1,note_on,62,35,0
1,note_on,62,0,120
1,note_on,60,38,0
1,note_on,60,0,240
1,note_on,72,42,240
1,note_on,72,0,960
1,note_on,72,59,0
1,note_on,72,0,240
1,note_on,76,52,0
1,note_on,76,0,120
1,note_on,74,52,0
1,note_on,74,0,120
1,note_on,72,56,0
1,note_on,72,0,240
1,note_on,84,69,240
1,note_on,84,0,960
1,note_on,84,68,0
1,note_on,84,0,240
1,note_on,88,70,0
1,note_on,88,0,120
1,note_on,86,71,0
1,note_on,86,0,120
1,note_on,84,73,0
1,note_on,84,0,120
1,note_on,84,77,120
1,note_on,84,0,120
1,note_on,84,81,120
1,note_on,84,0,120
1,note_on,84,83,120
1,note_on,84,0,240
1,note_on,89,86,0
1,note_on,89,0,240
1,note_on,83,90,0
1,note_on,83,0,240
1,note_on,84,93,0
1,note_on,84,0,480
1,note_on,67,75,0
1,note_on,67,0,960
1,note_on,67,75,0
1,note_on,67,0,480
1,note_on,72,82,0
1,note_on,72,0,160
1,note_on,67,74,0
1,note_on,67,0,160
1,note_on,64,74,0
1,note_on,64,0,160
1,note_on,67,82,0
1,note_on,67,0,160
1,note_on,72,74,0
1,note_on,72,0,160
1,note_on,76,73,0
1,note_on,76,0,160
1,note_on,74,82,0
1,note_on,74,0,160
1,note_on,71,74,0
1,note_on,71,0,160
1,note_on,68,74,0
1,note_on,68,0,160
1,note_on,71,82,0
1,note_on,71,0,160
1,note_on,74,75,0
1,note_on,74,0,160
1,note_on,77,75,0
1,note_on,77,0,160
1,note_on,76,82,0
1,note_on,76,0,160
1,note_on,73,74,0
1,note_on,73,0,160
1,note_on,70,77,0
1,note_on,70,0,160
1,note_on,73,82,0
1,note_on,73,0,160
1,note_on,76,75,0
1,note_on,76,0,160
1,note_on,79,74,0
1,note_on,79,0,160
1,note_on,82,82,0
1,note_on,82,0,160
1,note_on,76,74,0
1,note_on,76,0,160
1,note_on,85,74,0
1,note_on,85,0,160
1,note_on,76,82,0
1,note_on,76,0,160
1,note_on,73,74,0
1,note_on,73,0,160
1,note_on,82,74,0
1,note_on,82,0,160
1,note_on,73,82,0
1,note_on,73,0,160
1,note_on,70,74,0
1,note_on,70,0,160
1,note_on,76,74,0
1,note_on,76,0,160
1,note_on,70,78,0
1,note_on,70,0,160
1,note_on,64,74,0
1,note_on,64,0,160
1,note_on,73,74,0
1,note_on,73,0,160
1,note_on,70,77,0
1,note_on,70,0,160
1,note_on,64,71,0
1,note_on,64,0,160
1,note_on,72,71,0
1,note_on,72,0,160
1,note_on,70,76,0
1,note_on,70,0,160
1,note_on,64,71,0
1,note_on,64,0,160
1,note_on,72,71,0
1,note_on,72,0,160
1,note_on,65,67,0
1,note_on,69,67,0
1,note_on,72,79,0
1,note_on,72,0,480
1,note_on,69,0,0
1,note_on,65,0,0
1,note_on,72,75,0
1,note_on,72,0,960
1,note_on,72,75,0
1,note_on,72,0,480
1,note_on,77,82,0
1,note_on,77,0,160
1,note_on,72,74,0
1,note_on,72,0,160
1,note_on,69,74,0
1,note_on,69,0,160
1,note_on,72,82,0
1,note_on,72,0,160
1,note_on,77,74,0
1,note_on,77,0,160
1,note_on,81,73,0
1,note_on,81,0,160
1,note_on,79,82,0
1,note_on,79,0,160
1,note_on,76,74,0
1,note_on,76,0,160
1,note_on,73,74,0
1,note_on,73,0,160
1,note_on,76,82,0
1,note_on,76,0,160
1,note_on,79,75,0
1,note_on,79,0,160
1,note_on,82,75,0
1,note_on,82,0,160
1,note_on,81,82,0
1,note_on,81,0,160
1,note_on,78,74,0
1,note_on,78,0,160
1,note_on,75,77,0
1,note_on,75,0,160
1,note_on,78,82,0
1,note_on,78,0,160
1,note_on,81,75,0
1,note_on,81,0,160
1,note_on,84,74,0
1,note_on,84,0,160
1,note_on,81,82,0
1,note_on,81,0,160
1,note_on,78,74,0
1,note_on,78,0,160
1,note_on,87,74,0
1,note_on,87,0,160
1,note_on,78,82,0
1,note_on,78,0,160
1,note_on,75,74,0
1,note_on,75,0,160
1,note_on,84,74,0
1,note_on,84,0,160
1,note_on,75,82,0
1,note_on,75,0,160
1,note_on,72,74,0
1,note_on,72,0,160
1,note_on,81,74,0
1,note_on,81,0,160
1,note_on,75,78,0
1,note_on,75,0,160
1,note_on,69,74,0
1,note_on,69,0,160
1,note_on,78,74,0
1,note_on,78,0,160
1,note_on,75,77,0
1,note_on,75,0,160
1,note_on,69,71,0
1,note_on,69,0,160
1,note_on,77,71,0
1,note_on,77,0,160
1,note_on,75,76,0
1,note_on,75,0,160
1,note_on,69,71,0
1,note_on,69,0,160
1,note_on,77,71,0
1,note_on,77,0,160
1,note_on,70,67,0
1,note_on,74,67,0
1,note_on,77,79,0
1,note_on,77,0,480
1,note_on,74,0,0
1,note_on,70,0,0
1,note_on,65,75,0
1,note_on,65,0,960
1,note_on,65,75,0
1,note_on,65,0,480
1,note_on,70,82,0
1,note_on,70,0,160
1,note_on,65,74,0
1,note_on,65,0,160
1,note_on,62,74,0
1,note_on,62,0,160
1,note_on,65,82,0
1,note_on,65,0,160
1,note_on,70,74,0
1,note_on,70,0,160
1,note_on,74,73,0
1,note_on,74,0,160
1,note_on,72,82,0
1,note_on,72,0,160
1,note_on,69,74,0
1,note_on,69,0,160
1,note_on,66,74,0
1,note_on,66,0,160
1,note_on,69,82,0
1,note_on,69,0,160
1,note_on,72,75,0
1,note_on,72,0,160
1,note_on,75,75,0
1,note_on,75,0,160
1,note_on,74,82,0
1,note_on,74,0,160
1,note_on,71,74,0
1,note_on,71,0,160
1,note_on,68,77,0
1,note_on,68,0,160
1,note_on,71,82,0
1,note_on,71,0,160
1,note_on,74,75,0
1,note_on,74,0,160
1,note_on,77,74,0
1,note_on,77,0,160
1,note_on,80,82,0
1,note_on,80,0,160
1,note_on,74,74,0
1,note_on,74,0,160
1,note_on,83,74,0
1,note_on,83,0,160
1,note_on,74,82,0
1,note_on,74,0,160
1,note_on,71,74,0
1,note_on,71,0,160
1,note_on,80,74,0
1,note_on,80,0,160
1,note_on,71,82,0
1,note_on,71,0,160
1,note_on,68,74,0
1,note_on,68,0,160
1,note_on,77,74,0
1,note_on,77,0,160
1,note_on,68,78,0
1,note_on,68,0,160
1,note_on,65,74,0
1,note_on,65,0,160
1,note_on,74,74,0
1,note_on,74,0,160
1,note_on,68,77,0
1,note_on,68,0,160
1,note_on,62,71,0
1,note_on,62,0,160
1,note_on,71,71,0
1,note_on,71,0,160
1,note_on,68,76,0
1,note_on,68,0,160
1,note_on,62,71,0
1,note_on,62,0,160
1,note_on,70,71,0
1,note_on,70,0,160
1,note_on,78,82,0
1,note_on,78,0,160
1,note_on,75,74,0
1,note_on,75,0,160
1,note_on,70,77,0
1,note_on,70,0,160
1,note_on,75,82,0
1,note_on,75,0,160
1,note_on,78,75,0
1,note_on,78,0,160
1,note_on,82,74,0
1,note_on,82,0,160
1,note_on,78,82,0
1,note_on,78,0,160
1,note_on,75,74,0
1,note_on,75,0,160
1,note_on,87,74,0
1,note_on,87,0,160
1,note_on,75,82,0
1,note_on,75,0,160
1,note_on,70,74,0
1,note_on,70,0,160
1,note_on,82,74,0
1,note_on,82,0,160
1,note_on,70,82,0
1,note_on,70,0,160
1,note_on,66,74,0
1,note_on,66,0,160
1,note_on,78,74,0
1,note_on,78,0,160
1,note_on,66,78,0
1,note_on,66,0,160
1,note_on,63,74,0
1,note_on,63,0,160
1,note_on,75,74,0
1,note_on,75,0,160
1,note_on,66,77,0
1,note_on,66,0,160
1,note_on,63,71,0
1,note_on,63,0,160
1,note_on,75,71,0
1,note_on,75,0,160
1,note_on,66,76,0
1,note_on,66,0,160
1,note_on,63,71,0
1,note_on,63,0,160
1,note_on,75,71,0
1,note_on,75,0,160
1,note_on,78,82,0
1,note_on,78,0,160
1,note_on,76,74,0
1,note_on,76,0,160
1,note_on,73,77,0
1,note_on,73,0,160
1,note_on,76,82,0
1,note_on,76,0,160
1,note_on,78,75,0
1,note_on,78,0,160
1,note_on,85,74,0
1,note_on,85,0,160
1,note_on,78,82,0
1,note_on,78,0,160
1,note_on,76,74,0
1,note_on,76,0,160
1,note_on,88,74,0
1,note_on,88,0,160
1,note_on,76,82,0
1,note_on,76,0,160
1,note_on,73,74,0
1,note_on,73,0,160
1,note_on,85,74,0
1,note_on,85,0,160
1,note_on,73,82,0
1,note_on,73,0,160
1,note_on,66,74,0
1,note_on,66,0,160
1,note_on,78,74,0
1,note_on,78,0,160
1,note_on,66,78,0
1,note_on,66,0,160
1,note_on,64,74,0
1,note_on,64,0,160
1,note_on,76,74,0
1,note_on,76,0,160
1,note_on,66,77,0
1,note_on,66,0,160
1,note_on,64,71,0
1,note_on,64,0,160
1,note_on,76,71,0
1,note_on,76,0,160
1,note_on,66,76,0
1,note_on,66,0,160
1,note_on,64,71,0
1,note_on,64,0,160
1,note_on,76,71,0
1,note_on,76,0,160
1,note_on,78,82,0
1,note_on,78,0,160
1,note_on,74,74,0
1,note_on,74,0,160
1,note_on,71,77,0
1,note_on,71,0,160
1,note_on,74,82,0
1,note_on,74,0,160
1,note_on,78,75,0
1,note_on,78,0,160
1,note_on,83,74,0
1,note_on,83,0,160
1,note_on,78,82,0
1,note_on,78,0,160
1,note_on,74,74,0
1,note_on,74,0,160
1,note_on,86,74,0
1,note_on,86,0,160
1,note_on,74,82,0
1,note_on,74,0,160
1,note_on,71,74,0
1,note_on,71,0,160
1,note_on,83,74,0
1,note_on,83,0,160
1,note_on,71,82,0
1,note_on,71,0,160
1,note_on,66,74,0
1,note_on,66,0,160
1,note_on,78,74,0
1,note_on,78,0,160
1,note_on,66,78,0
1,note_on,66,0,160
1,note_on,62,74,0
1,note_on,62,0,160
1,note_on,74,74,0
1,note_on,74,0,160
1,note_on,66,77,0
1,note_on,66,0,160
1,note_on,62,71,0
1,note_on,62,0,160
1,note_on,74,71,0
1,note_on,74,0,160
1,note_on,66,76,0
1,note_on,66,0,160
1,note_on,62,71,0
1,note_on,62,0,160
1,note_on,74,71,0
1,note_on,74,0,160
1,note_on,79,82,0
1,note_on,79,0,160
1,note_on,74,74,0
1,note_on,74,0,160
1,note_on,71,77,0
1,note_on,71,0,160
1,note_on,74,82,0
1,note_on,74,0,160
1,note_on,79,75,0
1,note_on,79,0,160
1,note_on,83,74,0
1,note_on,83,0,160
1,note_on,79,82,0
1,note_on,79,0,160
1,note_on,74,74,0
1,note_on,74,0,160
1,note_on,86,74,0
1,note_on,86,0,160
1,note_on,74,82,0
1,note_on,74,0,160
1,note_on,71,74,0
1,note_on,71,0,160
1,note_on,83,74,0
1,note_on,83,0,160
1,note_on,71,82,0
1,note_on,71,0,160
1,note_on,67,74,0
1,note_on,67,0,160
1,note_on,79,74,0
1,note_on,79,0,160
1,note_on,67,78,0
1,note_on,67,0,160
1,note_on,65,74,0
1,note_on,65,0,160
1,note_on,77,74,0
1,note_on,77,0,160
1,note_on,67,77,0
1,note_on,67,0,160
1,note_on,62,71,0
1,note_on,62,0,160
1,note_on,74,71,0
1,note_on,74,0,160
1,note_on,67,76,0
1,note_on,67,0,160
1,note_on,62,71,0
1,note_on,62,0,160
1,note_on,74,71,0
1,note_on,74,0,160
1,note_on,84,82,0
1,note_on,84,0,160
1,note_on,79,74,0
1,note_on,79,0,160
1,note_on,75,77,0
1,note_on,75,0,160
1,note_on,79,82,0
1,note_on,79,0,160
1,note_on,84,75,0
1,note_on,84,0,160
1,note_on,87,74,0
1,note_on,87,0,160
1,note_on,79,82,0
1,note_on,79,0,160
1,note_on,75,74,0
1,note_on,75,0,160
1,note_on,87,74,0
1,note_on,87,0,160
1,note_on,75,82,0
1,note_on,75,0,160
1,note_on,72,74,0
1,note_on,72,0,160
1,note_on,84,74,0
1,note_on,84,0,160
1,note_on,72,82,0
1,note_on,72,0,160
1,note_on,67,74,0
1,note_on,67,0,160
1,note_on,79,74,0
1,note_on,79,0,160
1,note_on,67,78,0
1,note_on,67,0,160
1,note_on,63,74,0
1,note_on,63,0,160
1,note_on,75,74,0
1,note_on,75,0,160
1,note_on,67,77,0
1,note_on,67,0,160
1,note_on,63,71,0
1,note_on,63,0,160
1,note_on,75,71,0
1,note_on,75,0,160
1,note_on,67,76,0
1,note_on,67,0,160
1,note_on,63,71,0
1,note_on,63,0,160
1,note_on,75,71,0
1,note_on,75,0,160
1,note_on,77,82,0
1,note_on,77,0,160
1,note_on,73,74,0
1,note_on,73,0,160
1,note_on,68,77,0
1,note_on,68,0,160
1,note_on,73,82,0
1,note_on,73,0,160
1,note_on,77,75,0
1,note_on,77,0,160
1,note_on,80,74,0
1,note_on,80,0,160
1,note_on,77,82,0
1,note_on,77,0,160
1,note_on,73,74,0
1,note_on,73,0,160
1,note_on,68,74,0
1,note_on,68,0,160
1,note_on,77,82,0
1,note_on,77,0,160
1,note_on,73,74,0
1,note_on,73,0,160
1,note_on,68,74,0
1,note_on,68,0,160
1,note_on,75,82,0
1,note_on,75,0,160
1,note_on,72,74,0
1,note_on,72,0,160
1,note_on,69,77,0
1,note_on,69,0,160
1,note_on,72,82,0
1,note_on,72,0,160
1,note_on,75,75,0
1,note_on,75,0,160
1,note_on,81,74,0
1,note_on,81,0,160
1,note_on,75,82,0
1,note_on,75,0,160
1,note_on,72,74,0
1,note_on,72,0,160
1,note_on,69,74,0
1,note_on,69,0,160
1,note_on,75,82,0
1,note_on,75,0,160
1,note_on,72,74,0
1,note_on,72,0,160
1,note_on,69,74,0
1,note_on,69,0,160
1,note_on,71,83,480
1,note_on,71,0,160
1,note_on,74,72,0
1,note_on,74,0,160
1,note_on,79,72,0
1,note_on,79,0,160
1,note_on,74,83,0
1,note_on,74,0,160
1,note_on,71,71,0
1,note_on,71,0,160
1,note_on,67,70,0
1,note_on,67,0,160
1,note_on,77,58,0
1,note_on,77,0,160
1,note_on,71,47,0
1,note_on,71,0,160
1,note_on,67,47,0
1,note_on,67,0,160
1,note_on,77,55,0
1,note_on,77,0,160
1,note_on,74,47,0
1,note_on,74,0,160
1,note_on,67,47,0
1,note_on,67,0,160
1,note_on,75,55,0
1,note_on,75,0,160
1,note_on,74,47,0
1,note_on,74,0,160
1,note_on,67,47,0
1,note_on,67,0,160
1,note_on,75,55,0
1,note_on,75,0,160
1,note_on,72,48,0
1,note_on,72,0,160
1,note_on,67,48,0
1,note_on,67,0,160
1,note_on,74,55,0
1,note_on,74,0,160
1,note_on,72,47,0
1,note_on,72,0,160
1,note_on,69,47,0
1,note_on,69,0,160
1,note_on,59,78,480
1,note_on,59,0,160
1,note_on,62,71,0
1,note_on,62,0,160
1,note_on,67,71,0
1,note_on,67,0,160
1,note_on,62,74,0
1,note_on,62,0,160
1,note_on,59,63,0
1,note_on,59,0,160
1,note_on,55,62,0
1,note_on,55,0,160
1,note_on,65,52,0
1,note_on,65,0,160
1,note_on,59,42,0
1,note_on,59,0,160
1,note_on,55,42,0
1,note_on,55,0,160
1,note_on,65,49,0
1,note_on,65,0,160
1,note_on,62,42,0
1,note_on,62,0,160
1,note_on,55,42,0
1,note_on,55,0,160
1,note_on,63,49,0
1,note_on,63,0,160
1,note_on,62,42,0
1,note_on,62,0,160
1,note_on,55,42,0
1,note_on,55,0,160
1,note_on,63,49,0
1,note_on,63,0,160
1,note_on,60,43,0
1,note_on,60,0,160
1,note_on,55,43,0
1,note_on,55,0,160
1,note_on,62,49,0
1,note_on,62,0,160
1,note_on,60,42,0
1,note_on,60,0,160
1,note_on,57,42,0
1,note_on,57,0,160
1,note_on,62,49,0
1,note_on,62,0,160
1,note_on,59,42,0
1,note_on,59,0,160
1,note_on,55,42,0
1,note_on,55,0,160
1,note_on,60,49,0
1,note_on,60,0,160
1,note_on,55,42,0
1,note_on,55,0,160
1,note_on,51,41,0
1,note_on,51,0,160
1,note_on,59,48,0
1,note_on,59,0,160
1,note_on,55,41,0
1,note_on,55,0,160
1,note_on,50,41,0
1,note_on,50,0,160
1,note_on,57,46,0
1,note_on,57,0,160
1,note_on,51,39,0
1,note_on,51,0,160
1,note_on,48,39,0
1,note_on,48,0,160
1,note_on,55,45,0
1,note_on,55,0,160
1,note_on,50,38,0
1,note_on,50,0,160
1,note_on,47,37,0
1,note_on,47,0,160
1,note_on,54,43,0
1,note_on,54,0,160
1,note_on,51,36,0
1,note_on,51,0,160
1,note_on,45,36,0
1,note_on,45,0,160
1,note_on,55,42,0
1,note_on,55,0,160
1,note_on,50,36,0
1,note_on,50,0,160
1,note_on,47,36,0
1,note_on,47,0,160
1,note_on,54,40,0
1,note_on,54,0,160
1,note_on,51,34,0
1,note_on,51,0,160
1,note_on,45,34,0
1,note_on,45,0,160
1,note_on,47,38,0
1,note_on,50,38,0
1,note_on,55,45,0
1,note_on,55,0,2040
1,note_on,50,0,0
1,note_on,47,0,0
1,note_on,50,40,0
1,note_on,50,0,120
1,note_on,52,40,0
1,note_on,52,0,120
1,note_on,54,40,0
1,note_on,54,0,120
1,note_on,55,45,0
1,note_on,55,0,120
1,note_on,50,40,0
1,note_on,50,0,120
1,note_on,52,40,0
1,note_on,52,0,120
1,note_on,54,40,0
1,note_on,54,0,120
1,note_on,55,45,0
1,note_on,55,0,120
1,note_on,50,40,0
1,note_on,50,0,120
1,note_on,52,40,0
1,note_on,52,0,120
1,note_on,54,40,0
1,note_on,54,0,120
1,note_on,55,46,0
1,note_on,55,0,120
1,note_on,50,40,0
1,note_on,50,0,120
1,note_on,52,40,0
1,note_on,52,0,120
1,note_on,54,40,0
1,note_on,54,0,120
1,note_on,55,45,0
1,note_on,55,0,2040
1,note_on,54,40,0
1,note_on,54,0,120
1,note_on,55,40,0
1,note_on,55,0,120
1,note_on,57,40,0
1,note_on,57,0,120
1,note_on,59,45,0
1,note_on,59,0,120
1,note_on,54,40,0
1,note_on,54,0,120
1,note_on,55,40,0
1,note_on,55,0,120
1,note_on,57,40,0
1,note_on,57,0,120
1,note_on,59,45,0
1,note_on,59,0,120
1,note_on,54,40,0
1,note_on,54,0,120
1,note_on,55,40,0
1,note_on,55,0,120
1,note_on,57,40,0
1,note_on,57,0,120
1,note_on,59,46,0
1,note_on,59,0,120
1,note_on,54,40,0
1,note_on,54,0,120
1,note_on,55,40,0
1,note_on,55,0,120
1,note_on,57,40,0
1,note_on,57,0,120
1,note_on,59,45,0
1,note_on,59,0,240
1,note_on,59,41,480
1,note_on,59,0,120
1,note_on,60,44,0
1,note_on,60,0,120
1,note_on,62,48,0
1,note_on,62,0,120
1,note_on,62,45,600
1,note_on,62,0,80
1,note_on,64,47,0
1,note_on,64,0,80
1,note_on,66,48,0
1,note_on,66,0,80
1,note_on,67,53,0
1,note_on,67,0,240
1,note_on,67,51,480
1,note_on,67,0,120
1,note_on,69,51,0
1,note_on,69,0,120
1,note_on,71,55,0
1,note_on,71,0,120
1,note_on,71,51,120
1,note_on,71,0,120
1,note_on,72,52,0
1,note_on,72,0,120
1,note_on,74,55,0
1,note_on,74,0,120
1,note_on,74,52,120
1,note_on,74,0,80
1,note_on,76,54,0
1,note_on,76,0,80
1,note_on,78,56,0
1,note_on,78,0,80
1,note_on,79,58,0
1,note_on,79,0,240
1,note_on,62,50,480
1,note_on,62,0,80
1,note_on,64,53,0
1,note_on,64,0,80
1,note_on,66,55,0
1,note_on,66,0,80
1,note_on,67,58,0
1,note_on,67,0,240
1,note_on,67,55,480
1,note_on,67,0,120
1,note_on,69,59,0
1,note_on,69,0,120
1,note_on,71,63,0
1,note_on,71,0,120
1,note_on,71,57,600
1,note_on,71,0,120
1,note_on,72,58,0
1,note_on,72,0,120
1,note_on,74,63,0
1,note_on,74,0,120
1,note_on,74,58,120
1,note_on,74,0,80
1,note_on,76,60,0
1,note_on,76,0,80
1,note_on,78,63,0
1,note_on,78,0,80
1,note_on,79,66,0
1,note_on,79,0,120
1,note_on,79,65,120
1,note_on,79,0,120
1,note_on,81,68,0
1,note_on,81,0,120
1,note_on,83,70,0
1,note_on,83,0,120
1,note_on,74,65,600
1,note_on,74,0,80
1,note_on,76,68,0
1,note_on,76,0,80
1,note_on,78,69,0
1,note_on,78,0,80
1,note_on,79,71,0
1,note_on,79,0,120
1,note_on,79,66,600
1,note_on,79,0,120
1,note_on,81,68,0
1,note_on,81,0,120
1,note_on,83,73,0
1,note_on,83,0,120
1,note_on,79,68,600
1,note_on,79,0,120
1,note_on,81,72,0
1,note_on,81,0,120
1,note_on,83,76,0
1,note_on,83,0,120
1,note_on,83,68,120
1,note_on,83,0,120
1,note_on,84,71,0
1,note_on,84,0,120
1,note_on,86,75,0
1,note_on,86,0,120
1,note_on,86,70,120
1,note_on,86,0,120
1,note_on,88,75,0
1,note_on,88,0,120
1,note_on,89,79,0
1,note_on,89,0,120
1,note_on,86,77,600
1,note_on,86,0,120
1,note_on,88,82,0
1,note_on,88,0,120
1,note_on,89,86,0
1,note_on,89,0,120
1,note_on,86,79,600
1,note_on,86,0,120
1,note_on,88,84,0
1,note_on,88,0,120
1,note_on,89,88,0
1,note_on,89,0,120
1,note_on,86,79,120
1,note_on,86,0,120
1,note_on,88,84,0
1,note_on,88,0,120
1,note_on,89,88,0
1,note_on,89,0,120
1,note_on,86,81,120
1,note_on,86,0,120
1,note_on,88,85,0
1,note_on,88,0,120
1,note_on,89,89,0
1,note_on,89,0,120
1,note_on,86,81,120
1,note_on,86,0,120
1,note_on,88,86,0
1,note_on,88,0,120
1,note_on,89,92,0
1,note_on,89,0,120
1,note_on,86,85,120
1,note_on,86,0,120
1,note_on,88,91,0
1,note_on,88,0,120
1,note_on,89,96,0
1,note_on,88,94,120
1,note_on,89,0,20
1,note_on,86,92,100
1,note_on,88,0,20
1,note_on,84,91,100
1,note_on,86,0,20
1,note_on,83,89,100
1,note_on,84,0,20
1,note_on,84,91,100
1,note_on,83,0,20
1,note_on,86,92,100
1,note_on,84,0,20
1,note_on,88,93,100
1,note_on,86,0,20
1,note_on,89,96,100
1,note_on,88,0,20
1,note_on,88,95,100
1,note_on,89,0,20
1,note_on,86,94,100
1,note_on,88,0,20
1,note_on,84,93,100
1,note_on,86,0,20
1,note_on,83,93,100
1,note_on,84,0,20
1,note_on,84,93,100
1,note_on,83,0,20
1,note_on,86,95,100
1,note_on,84,0,20
1,note_on,88,97,100
1,note_on,86,0,20
1,note_on,89,99,100
1,note_on,88,0,20
1,note_on,88,97,220
1,note_on,89,0,20
1,note_on,86,96,100
1,note_on,88,0,20
1,note_on,84,95,100
1,note_on,86,0,20
1,note_on,83,93,100
1,note_on,84,0,20
1,note_on,81,92,100
1,note_on,83,0,20
1,note_on,79,91,100
1,note_on,81,0,20
1,note_on,77,90,100
1,note_on,79,0,20
1,note_on,76,88,100
1,note_on,77,0,20
1,note_on,74,87,100
1,note_on,76,0,20
1,note_on,72,86,100
1,note_on,74,0,20
1,note_on,71,85,100
1,note_on,72,0,20
1,note_on,69,83,100
1,note_on,71,0,20
1,note_on,67,82,100
1,note_on,69,0,20
1,note_on,65,81,100
1,note_on,67,0,20
1,note_on,64,80,100
1,note_on,65,0,20
1,note_on,64,0,220
1,note_on,48,28,0
1,note_on,52,33,0
1,note_on,52,0,180
1,note_on,48,0,0
1,note_on,48,28,60
1,note_on,52,33,0
1,note_on,52,0,180
1,note_on,48,0,0
1,note_on,48,28,60
1,note_on,52,34,0
1,note_on,52,0,180
1,note_on,48,0,0
1,note_on,48,28,60
1,note_on,52,34,0
1,note_on,52,0,180
1,note_on,48,0,0
1,note_on,48,28,60
1,note_on,52,34,0
1,note_on,52,0,180
1,note_on,48,0,0
1,note_on,48,29,60
1,note_on,52,35,0
1,note_on,52,0,180
1,note_on,48,0,0
1,note_on,48,29,60
1,note_on,52,35,0
1,note_on,52,0,180
1,note_on,48,0,0
1,note_on,48,30,60
1,note_on,52,36,0
1,note_on,52,0,180
1,note_on,48,0,0
1,note_on,48,30,60
1,note_on,52,36,0
1,note_on,52,0,180
1,note_on,48,0,0
1,note_on,48,31,60
1,note_on,52,37,0
1,note_on,52,0,180
1,note_on,48,0,0
1,note_on,48,32,60
1,note_on,52,38,0
1,note_on,52,0,180
1,note_on,48,0,0
1,note_on,48,33,60
1,note_on,52,39,0
1,note_on,52,0,180
1,note_on,48,0,0
1,note_on,48,34,60
1,note_on,52,40,0
1,note_on,52,0,180
1,note_on,48,0,0
1,note_on,50,34,60
1,note_on,54,40,0
1,note_on,54,0,180
1,note_on,50,0,0
1,note_on,50,34,60
1,note_on,54,40,0
1,note_on,54,0,180
1,note_on,50,0,0
1,note_on,50,39,60
1,note_on,55,46,0
1,note_on,55,0,720
1,note_on,50,0,0
1,note_on,59,40,0
1,note_on,59,0,120
1,note_on,57,40,0
1,note_on,57,0,120
1,note_on,55,45,0
1,note_on,55,0,120
1,note_on,85,46,780
1,note_on,85,0,60
1,note_on,86,57,0
1,note_on,86,0,600
1,note_on,84,48,0
1,note_on,84,0,120
1,note_on,83,47,0
1,note_on,83,0,120
1,note_on,81,45,0
1,note_on,81,0,120
1,note_on,79,44,0
1,note_on,79,0,240
1,note_on,46,29,720
1,note_on,50,37,0
1,note_on,50,0,180
1,note_on,46,0,0
1,note_on,46,29,60
1,note_on,50,35,0
1,note_on,50,0,180
1,note_on,46,0,0
1,note_on,46,29,60
1,note_on,50,35,0
1,note_on,50,0,180
1,note_on,46,0,0
1,note_on,46,30,60
1,note_on,50,36,0
1,note_on,50,0,180
1,note_on,46,0,0
1,note_on,46,31,60
1,note_on,50,37,0
1,note_on,50,0,180
1,note_on,46,0,0
1,note_on,46,31,60
1,note_on,50,37,0
1,note_on,50,0,180
1,note_on,46,0,0
1,note_on,46,32,60
1,note_on,50,38,0
1,note_on,50,0,180
1,note_on,46,0,0
1,note_on,46,33,60
1,note_on,50,39,0
1,note_on,50,0,180
1,note_on,46,0,0
1,note_on,46,33,60
1,note_on,50,39,0
1,note_on,50,0,180
1,note_on,46,0,0
1,note_on,46,34,60
1,note_on,50,40,0
1,note_on,50,0,180
1,note_on,46,0,0
1,note_on,46,34,60
1,note_on,50,40,0
1,note_on,50,0,180
1,note_on,46,0,0
1,note_on,46,34,60
1,note_on,50,40,0
1,note_on,50,0,180
1,note_on,46,0,0
1,note_on,46,34,60
1,note_on,50,40,0
1,note_on,50,0,180
1,note_on,46,0,0
1,note_on,46,34,60
1,note_on,50,40,0
1,note_on,50,0,180
1,note_on,46,0,0
1,note_on,48,34,60
1,note_on,52,40,0
1,note_on,52,0,180
1,note_on,48,0,0
1,note_on,48,34,60
1,note_on,52,40,0
1,note_on,52,0,180
1,note_on,48,0,0
1,note_on,48,39,60
1,note_on,53,46,0
1,note_on,53,0,720
1,note_on,48,0,0
1,note_on,57,40,0
1,note_on,57,0,120
1,note_on,55,40,0
1,note_on,55,0,120
1,note_on,53,45,0
1,note_on,53,0,120
1,note_on,83,46,780
1,note_on,83,0,60
1,note_on,84,57,0
1,note_on,84,0,600
1,note_on,82,50,0
1,note_on,82,0,120
1,note_on,80,49,0
1,note_on,80,0,120
1,note_on,79,47,0
1,note_on,79,0,120
1,note_on,77,46,0
1,note_on,77,0,240
1,note_on,88,67,660
1,note_on,88,0,60
1,note_on,89,73,0
1,note_on,89,0,1440
1,note_on,89,74,0
1,note_on,89,0,120
1,note_on,87,73,0
1,note_on,87,0,120
1,note_on,86,71,0
1,note_on,86,0,120
1,note_on,84,70,0
1,note_on,84,0,120
1,note_on,83,72,0
1,note_on,83,0,120
1,note_on,84,71,0
1,note_on,84,0,120
1,note_on,86,72,0
1,note_on,86,0,120
1,note_on,87,73,0
1,note_on,87,0,120
1,note_on,89,74,0
1,note_on,89,0,120
1,note_on,87,72,0
1,note_on,87,0,120
1,note_on,86,71,0
1,note_on,86,0,120
1,note_on,84,69,0
1,note_on,84,0,120
1,note_on,83,72,0
1,note_on,83,0,120
1,note_on,84,75,0
1,note_on,84,0,120
1,note_on,86,77,0
1,note_on,86,0,120
1,note_on,87,80,0
1,note_on,87,0,120
1,note_on,89,80,0
1,note_on,89,0,120
1,note_on,87,80,0
1,note_on,87,0,120
1,note_on,86,79,0
1,note_on,86,0,120
1,note_on,84,81,0
1,note_on,84,0,120
1,note_on,83,85,0
1,note_on,83,0,120
1,note_on,84,89,0
1,note_on,84,0,120
1,note_on,86,94,0
1,note_on,86,0,120
1,note_on,87,98,0
1,note_on,87,0,120
1,note_on,89,100,0
1,note_on,89,0,120
1,note_on,87,98,0
1,note_on,87,0,120
1,note_on,86,96,0
1,note_on,86,0,120
1,note_on,84,94,0
1,note_on,84,0,120
1,note_on,83,93,0
1,note_on,83,0,120
1,note_on,80,91,0
1,note_on,80,0,120
1,note_on,79,89,0
1,note_on,79,0,120
1,note_on,77,87,0
1,note_on,77,0,120
1,note_on,75,85,0
1,note_on,75,0,120
1,note_on,74,83,0
1,note_on,74,0,120
1,note_on,72,81,0
1,note_on,72,0,120
1,note_on,71,79,0
1,note_on,71,0,120
1,note_on,72,93,0
1,note_on,72,0,180
1,note_on,67,83,300
1,note_on,67,0,180
1,note_on,63,72,300
1,note_on,63,0,180
1,note_on,60,64,300
1,note_on,60,0,180
1,note_on,56,60,300
1,note_on,56,0,1920
1,note_on,73,54,0
1,note_on,73,0,180
1,note_on,68,52,300
1,note_on,68,0,180
1,note_on,65,48,300
1,note_on,65,0,180
1,note_on,61,43,300
1,note_on,61,0,180
1,note_on,58,39,300
1,note_on,58,0,1920
1,note_on,67,37,120
1,note_on,67,0,120
1,note_on,70,37,0
1,note_on,70,0,120
1,note_on,75,37,0
1,note_on,75,0,120
1,note_on,67,37,120
1,note_on,67,0,120
1,note_on,70,37,0
1,note_on,70,0,120
1,note_on,75,37,0
1,note_on,75,0,120
1,note_on,67,37,120
1,note_on,67,0,120
1,note_on,70,37,0
1,note_on,70,0,120
1,note_on,75,37,0
1,note_on,75,0,120
1,note_on,67,37,120
1,note_on,67,0,120
1,note_on,70,37,0
1,note_on,70,0,120
1,note_on,75,37,0
1,note_on,75,0,120
1,note_on,65,37,120
1,note_on,65,0,120
1,note_on,68,37,0
1,note_on,68,0,120
1,note_on,75,37,0
1,note_on,75,0,120
1,note_on,65,41,120
1,note_on,65,0,120
1,note_on,71,41,0
1,note_on,71,0,120
1,note_on,74,41,0
1,note_on,74,0,120
1,note_on,63,45,120
1,note_on,63,0,120
1,note_on,66,45,0
1,note_on,66,0,120
1,note_on,74,45,0
1,note_on,74,0,120
1,note_on,63,39,120
1,note_on,63,0,120
1,note_on,69,39,0
1,note_on,69,0,120
1,note_on,72,39,0
1,note_on,72,0,120
1,note_on,62,44,120
1,note_on,62,0,120
1,note_on,67,44,0
1,note_on,67,0,120
1,note_on,72,44,0
1,note_on,72,0,120
1,note_on,62,48,120
1,note_on,62,0,120
1,note_on,67,48,0
1,note_on,67,0,120
1,note_on,72,48,0
1,note_on,72,0,120
1,note_on,62,53,120
1,note_on,62,0,120
1,note_on,67,53,0
1,note_on,67,0,120
1,note_on,71,53,0
1,note_on,71,0,120
1,note_on,62,58,120
1,note_on,62,0,120
1,note_on,65,59,0
1,note_on,65,0,120
1,note_on,71,59,0
1,note_on,71,0,120
1,note_on,64,68,0
1,note_on,72,84,0
1,note_on,72,0,240
1,note_on,64,0,0
1,note_on,64,37,0
1,note_on,64,0,119
1,note_on,60,33,1
1,note_on,60,0,120
1,note_on,64,37,0
1,note_on,64,0,119
1,note_on,60,33,1
1,note_on,60,0,120
1,note_on,64,36,0
1,note_on,64,0,119
1,note_on,60,33,1
1,note_on,60,0,120
1,note_on,64,36,0
1,note_on,64,0,119
1,note_on,60,33,1
1,note_on,60,0,120
1,note_on,64,37,0
1,note_on,64,0,119
1,note_on,60,33,1
1,note_on,60,0,120
1,note_on,64,36,0
1,note_on,64,0,119
1,note_on,60,33,1
1,note_on,60,0,120
1,note_on,64,36,0
1,note_on,64,0,119
1,note_on,60,33,1
1,note_on,60,0,120
1,note_on,64,37,0
1,note_on,64,0,119
1,note_on,60,33,1
1,note_on,60,0,120
1,note_on,64,37,0
1,note_on,64,0,119
1,note_on,60,33,1
1,note_on,60,0,120
1,note_on,64,37,0
1,note_on,64,0,119
1,note_on,60,33,1
1,note_on,60,0,120
1,note_on,64,36,0
1,note_on,64,0,119
1,note_on,60,33,1
1,note_on,60,0,120
1,note_on,64,36,0
1,note_on,64,0,119
1,note_on,60,33,1
1,note_on,60,0,120
1,note_on,64,37,0
1,note_on,64,0,119
1,note_on,60,33,1
1,note_on,60,0,120
1,note_on,66,36,0
1,note_on,66,0,119
1,note_on,62,33,1
1,note_on,62,0,120
1,note_on,66,36,0
1,note_on,66,0,119
1,note_on,62,33,1
1,note_on,62,0,120
1,note_on,67,46,0
1,note_on,67,0,720
1,note_on,71,40,0
1,note_on,71,0,120
1,note_on,69,40,0
1,note_on,69,0,120
1,note_on,67,45,0
1,note_on,67,0,120
1,note_on,85,46,780
1,note_on,85,0,60
1,note_on,86,57,0
1,note_on,86,0,600
1,note_on,84,48,0
1,note_on,84,0,120
1,note_on,83,47,0
1,note_on,83,0,120
1,note_on,81,45,0
1,note_on,81,0,120
1,note_on,79,44,0
1,note_on,79,0,240
1,note_on,65,40,720
1,note_on,65,0,119
1,note_on,62,36,1
1,note_on,62,0,120
1,note_on,65,40,0
1,note_on,65,0,119
1,note_on,62,36,1
1,note_on,62,0,120
1,note_on,65,40,0
1,note_on,65,0,119
1,note_on,62,36,1
1,note_on,62,0,120
1,note_on,65,39,0
1,note_on,65,0,119
1,note_on,62,36,1
1,note_on,62,0,120
1,note_on,65,39,0
1,note_on,65,0,119
1,note_on,62,36,1
1,note_on,62,0,120
1,note_on,65,41,0
1,note_on,65,0,119
1,note_on,62,36,1
1,note_on,62,0,120
1,note_on,65,40,0
1,note_on,65,0,119
1,note_on,62,37,1
1,note_on,62,0,120
1,note_on,65,40,0
1,note_on,65,0,119
1,note_on,62,37,1
1,note_on,62,0,120
1,note_on,65,41,0
1,note_on,65,0,119
1,note_on,62,37,1
1,note_on,62,0,120
1,note_on,65,41,0
1,note_on,65,0,119
1,note_on,62,37,1
1,note_on,62,0,120
1,note_on,65,42,0
1,note_on,65,0,119
1,note_on,62,37,1
1,note_on,62,0,120
1,note_on,65,41,0
1,note_on,65,0,119
1,note_on,62,38,1
1,note_on,62,0,120
1,note_on,65,41,0
1,note_on,65,0,119
1,note_on,62,38,1
1,note_on,62,0,120
1,note_on,65,42,0
1,note_on,65,0,119
1,note_on,62,38,1
1,note_on,62,0,120
1,note_on,68,41,0
1,note_on,68,0,119
1,note_on,64,38,1
1,note_on,64,0,120
1,note_on,68,42,0
1,note_on,68,0,119
1,note_on,64,38,1
1,note_on,64,0,120
1,note_on,69,55,0
1,note_on,69,0,720
1,note_on,72,48,0
1,note_on,72,0,120
1,note_on,71,48,0
1,note_on,71,0,120
1,note_on,69,53,0
1,note_on,69,0,120
1,note_on,87,55,780
1,note_on,87,0,60
1,note_on,88,68,0
1,note_on,88,0,600
1,note_on,86,58,0
1,note_on,86,0,120
1,note_on,84,57,0
1,note_on,84,0,120
1,note_on,83,55,0
1,note_on,83,0,120
1,note_on,81,55,0
1,note_on,81,0,240
1,note_on,83,61,660
1,note_on,83,0,60
1,note_on,84,78,0
1,note_on,84,0,600
1,note_on,83,68,0
1,note_on,83,0,120
1,note_on,81,67,0
1,note_on,81,0,120
1,note_on,80,64,0
1,note_on,80,0,120
1,note_on,81,63,0
1,note_on,81,0,240
1,note_on,83,63,660
1,note_on,83,0,60
1,note_on,84,81,0
1,note_on,84,0,600
1,note_on,83,72,0
1,note_on,83,0,120
1,note_on,81,71,0
1,note_on,81,0,120
1,note_on,80,67,0
1,note_on,80,0,120
1,note_on,81,70,0
1,note_on,81,0,120
1,note_on,80,66,0
1,note_on,80,0,120
1,note_on,81,66,0
1,note_on,81,0,120
1,note_on,83,66,0
1,note_on,83,0,120
1,note_on,84,69,0
1,note_on,84,0,120
1,note_on,85,70,0
1,note_on,85,0,120
1,note_on,86,71,0
1,note_on,86,0,120
1,note_on,87,74,0
1,note_on,87,0,120
1,note_on,88,68,0
1,note_on,86,54,600
1,note_on,88,0,20
1,note_on,84,53,100
1,note_on,86,0,20
1,note_on,83,51,100
1,note_on,84,0,20
1,note_on,84,53,100
1,note_on,83,0,20
1,note_on,83,52,100
1,note_on,84,0,20
1,note_on,81,51,100
1,note_on,83,0,20
1,note_on,80,50,100
1,note_on,81,0,20
1,note_on,81,50,100
1,note_on,80,0,20
1,note_on,84,52,100
1,note_on,81,0,20
1,note_on,83,50,100
1,note_on,84,0,20
1,note_on,81,50,100
1,note_on,83,0,20
1,note_on,80,50,100
1,note_on,81,0,20
1,note_on,78,49,100
1,note_on,80,0,20
1,note_on,76,48,100
1,note_on,78,0,20
1,note_on,75,47,100
1,note_on,76,0,20
1,note_on,76,49,100
1,note_on,75,0,20
1,note_on,78,49,100
1,note_on,76,0,20
1,note_on,79,49,100
1,note_on,78,0,20
1,note_on,80,50,100
1,note_on,79,0,20
1,note_on,81,50,100
1,note_on,80,0,20
1,note_on,80,50,100
1,note_on,81,0,20
1,note_on,81,51,100
1,note_on,80,0,20
1,note_on,83,51,100
1,note_on,81,0,20
1,note_on,84,49,100
1,note_on,83,0,20
1,note_on,85,50,100
1,note_on,84,0,20
1,note_on,86,52,100
1,note_on,85,0,20
1,note_on,87,53,100
1,note_on,86,0,20
1,note_on,88,55,100
1,note_on,87,0,20
1,note_on,87,53,100
1,note_on,88,0,20
1,note_on,88,53,100
1,note_on,87,0,20
1,note_on,87,50,100
1,note_on,88,0,20
1,note_on,88,52,100
1,note_on,87,0,20
1,note_on,86,52,100
1,note_on,88,0,20
1,note_on,84,51,100
1,note_on,86,0,20
1,note_on,83,50,100
1,note_on,84,0,20
1,note_on,84,52,100
1,note_on,83,0,20
1,note_on,83,51,100
1,note_on,84,0,20
1,note_on,81,49,100
1,note_on,83,0,20
1,note_on,80,50,100
1,note_on,81,0,20
1,note_on,81,50,100
1,note_on,80,0,20
1,note_on,84,53,100
1,note_on,81,0,20
1,note_on,83,50,100
1,note_on,84,0,20
1,note_on,81,50,100
1,note_on,83,0,20
1,note_on,80,50,100
1,note_on,81,0,20
1,note_on,78,49,100
1,note_on,80,0,20
1,note_on,76,48,100
1,note_on,78,0,20
1,note_on,75,47,100
1,note_on,76,0,20
1,note_on,76,49,100
1,note_on,75,0,20
1,note_on,78,50,100
1,note_on,76,0,20
1,note_on,79,50,100
1,note_on,78,0,20
1,note_on,80,52,100
1,note_on,79,0,20
1,note_on,81,52,100
1,note_on,80,0,20
1,note_on,80,52,100
1,note_on,81,0,20
1,note_on,81,54,100
1,note_on,80,0,20
1,note_on,83,54,100
1,note_on,81,0,20
1,note_on,84,56,100
1,note_on,83,0,20
1,note_on,85,58,100
1,note_on,84,0,20
1,note_on,86,60,100
1,note_on,85,0,20
1,note_on,87,62,100
1,note_on,86,0,20
1,note_on,88,68,100
1,note_on,87,0,20
1,note_on,88,0,100
1,note_on,83,60,0
1,note_on,83,0,120
1,note_on,80,61,0
1,note_on,80,0,120
1,note_on,76,61,0
1,note_on,76,0,120
1,note_on,75,75,0
1,note_on,75,0,120
1,note_on,76,63,0
1,note_on,76,0,120
1,note_on,81,63,0
1,note_on,81,0,120
1,note_on,84,63,0
1,note_on,84,0,120
1,note_on,88,74,0
1,note_on,88,0,120
1,note_on,83,65,0
1,note_on,83,0,120
1,note_on,80,68,0
1,note_on,80,0,120
1,note_on,76,68,0
1,note_on,76,0,120
1,note_on,75,80,0
1,note_on,75,0,120
1,note_on,76,71,0
1,note_on,76,0,120
1,note_on,81,71,0
1,note_on,81,0,120
1,note_on,84,72,0
1,note_on,84,0,120
1,note_on,88,91,0
1,note_on,88,0,120
1,note_on,83,82,0
1,note_on,83,0,120
1,note_on,80,82,0
1,note_on,80,0,120
1,note_on,76,82,0
1,note_on,76,0,120
1,note_on,88,91,0
1,note_on,88,0,120
1,note_on,84,82,0
1,note_on,84,0,120
1,note_on,81,82,0
1,note_on,81,0,120
1,note_on,76,82,0
1,note_on,76,0,120
1,note_on,88,91,0
1,note_on,88,0,120
1,note_on,83,82,0
1,note_on,83,0,120
1,note_on,80,81,0
1,note_on,80,0,120
1,note_on,76,81,0
1,note_on,76,0,120
1,note_on,88,91,0
1,note_on,88,0,120
1,note_on,84,81,0
1,note_on,84,0,120
1,note_on,81,81,0
1,note_on,81,0,120
1,note_on,76,82,0
1,note_on,76,0,120
1,note_on,88,91,0
1,note_on,88,0,120
1,note_on,83,82,0
1,note_on,83,0,120
1,note_on,80,82,0
1,note_on,80,0,120
1,note_on,76,82,0
1,note_on,76,0,120
1,note_on,83,91,0
1,note_on,83,0,120
1,note_on,80,82,0
1,note_on,80,0,120
1,note_on,76,82,0
1,note_on,76,0,120
1,note_on,71,82,0
1,note_on,71,0,120
1,note_on,80,91,0
1,note_on,80,0,120
1,note_on,76,82,0
1,note_on,76,0,120
1,note_on,71,81,0
1,note_on,71,0,120
1,note_on,68,81,0
1,note_on,68,0,120
1,note_on,76,91,0
1,note_on,76,0,120
1,note_on,71,81,0
1,note_on,71,0,120
1,note_on,68,81,0
1,note_on,68,0,120
1,note_on,64,82,0
1,note_on,64,0,120
1,note_on,71,91,0
1,note_on,71,0,120
1,note_on,68,81,0
1,note_on,68,0,120
1,note_on,64,80,0
1,note_on,64,0,120
1,note_on,59,80,0
1,note_on,59,0,120
1,note_on,68,89,0
1,note_on,68,0,120
1,note_on,64,79,0
1,note_on,64,0,120
1,note_on,59,79,0
1,note_on,59,0,120
1,note_on,56,78,0
1,note_on,56,0,120
1,note_on,64,87,0
1,note_on,64,0,120
1,note_on,59,78,0
1,note_on,59,0,120
1,note_on,56,77,0
1,note_on,56,0,120
1,note_on,52,77,0
1,note_on,52,0,120
1,note_on,76,75,1440
1,note_on,76,0,120
1,note_on,64,69,120
1,note_on,64,0,120
1,note_on,78,74,120
1,note_on,78,0,120
1,note_on,66,65,120
1,note_on,66,0,120
1,note_on,80,71,120
1,note_on,80,0,120
1,note_on,68,64,120
1,note_on,68,0,120
1,note_on,80,67,600
1,note_on,80,0,120
1,note_on,68,53,120
1,note_on,68,0,120
1,note_on,81,59,120
1,note_on,81,0,120
1,note_on,69,50,120
1,note_on,69,0,120
1,note_on,83,52,120
1,note_on,83,0,120
1,note_on,71,49,120
1,note_on,71,0,120
1,note_on,85,52,120
1,note_on,85,0,120
1,note_on,73,49,120
1,note_on,73,0,120
1,note_on,86,52,120
1,note_on,86,0,120
1,note_on,74,48,120
1,note_on,74,0,120
1,note_on,86,52,120
1,note_on,86,0,120
1,note_on,76,46,120
1,note_on,76,0,120
1,note_on,86,51,120
1,note_on,86,0,120
1,note_on,78,46,120
1,note_on,78,0,120
1,note_on,86,51,120
1,note_on,86,0,120
1,note_on,80,46,120
1,note_on,80,0,120
1,note_on,86,51,120
1,note_on,86,0,120
1,note_on,81,47,120
1,note_on,81,0,120
1,note_on,86,50,120
1,note_on,86,0,120
1,note_on,83,46,120
1,note_on,83,0,120
1,note_on,73,42,120
1,note_on,76,42,0
1,note_on,81,42,0
1,note_on,85,55,0
1,note_on,85,0,960
1,note_on,73,0,0
1,note_on,76,0,0
1,note_on,81,0,0
1,note_on,71,40,0
1,note_on,76,40,0
1,note_on,80,40,0
1,note_on,83,52,0
1,note_on,83,0,480
1,note_on,71,0,0
1,note_on,76,0,0
1,note_on,80,0,0
1,note_on,69,40,0
1,note_on,73,40,0
1,note_on,78,40,0
1,note_on,81,52,0
1,note_on,81,0,480
1,note_on,69,0,0
1,note_on,73,0,0
1,note_on,78,0,0
1,note_on,68,42,0
1,note_on,71,42,0
1,note_on,77,42,0
1,note_on,80,55,0
1,note_on,80,0,960
1,note_on,68,0,0
1,note_on,71,0,0
1,note_on,77,0,0
1,note_on,74,40,0
1,note_on,66,40,0
1,note_on,69,40,0
1,note_on,78,52,0
1,note_on,78,0,960
1,note_on,74,0,0
1,note_on,66,0,0
1,note_on,69,0,0
1,note_on,68,49,0
1,note_on,74,49,0
1,note_on,76,49,0
1,note_on,80,63,0
1,note_on,80,0,960
1,note_on,68,0,0
1,note_on,74,0,0
1,note_on,76,0,0
1,note_on,69,50,0
1,note_on,76,50,0
1,note_on,81,66,0
1,note_on,81,0,480
1,note_on,76,0,0
1,note_on,69,0,0
1,note_on,71,55,0
1,note_on,78,55,0
1,note_on,81,55,0
1,note_on,83,72,0
1,note_on,83,0,480
1,note_on,71,0,0
1,note_on,78,0,0
1,note_on,81,0,0
1,note_on,73,59,0
1,note_on,76,59,0
1,note_on,81,59,0
1,note_on,85,77,0
1,note_on,85,0,960
1,note_on,81,0,0
1,note_on,73,0,0
1,note_on,71,33,0
1,note_on,80,32,0
1,note_on,83,49,0
1,note_on,76,0,480
1,note_on,74,55,0
1,note_on,74,0,480
1,note_on,83,0,0
1,note_on,80,0,0
1,note_on,71,0,0
1,note_on,64,37,0
1,note_on,69,37,0
1,note_on,72,45,0
1,note_on,72,0,960
1,note_on,69,0,0
1,note_on,64,0,0
1,note_on,64,36,0
1,note_on,67,36,0
1,note_on,71,43,0
1,note_on,71,0,480
1,note_on,67,0,0
1,note_on,64,0,0
1,note_on,60,36,0
1,note_on,65,36,0
1,note_on,69,43,0
1,note_on,69,0,480
1,note_on,65,0,0
1,note_on,60,0,0
1,note_on,60,37,0
1,note_on,64,37,0
1,note_on,67,45,0
1,note_on,67,0,960
1,note_on,64,0,0
1,note_on,60,0,0
1,note_on,62,36,0
1,note_on,57,36,0
1,note_on,65,43,0
1,note_on,65,0,960
1,note_on,57,0,0
1,note_on,62,0,0
1,note_on,60,44,0
1,note_on,64,44,0
1,note_on,67,52,0
1,note_on,64,0,480
1,note_on,60,0,0
1,note_on,62,45,0
1,note_on,65,45,0
1,note_on,67,0,480
1,note_on,69,61,0
1,note_on,69,0,480
1,note_on,71,69,0
1,note_on,71,0,480
1,note_on,65,0,0
1,note_on,62,0,0
1,note_on,60,41,0
1,note_on,64,41,0
1,note_on,72,51,0
1,note_on,72,0,120
1,note_on,64,0,40
1,note_on,60,0,0
1,note_on,74,48,0
1,note_on,74,0,120
1,note_on,76,49,40
1,note_on,76,0,120
1,note_on,77,50,40
1,note_on,77,0,120
1,note_on,79,50,40
1,note_on,79,0,120
1,note_on,81,51,40
1,note_on,81,0,120
1,note_on,82,52,40
1,note_on,82,0,120
1,note_on,83,48,40
1,note_on,83,0,120
1,note_on,84,49,40
1,note_on,84,0,120
1,note_on,85,51,40
1,note_on,85,0,120
1,note_on,86,53,40
1,note_on,86,0,120
1,note_on,87,54,40
1,note_on,87,0,120
1,note_on,84,48,40
1,note_on,88,58,0
1,note_on,88,0,160
1,note_on,87,53,0
1,note_on,87,0,160
1,note_on,88,53,0
1,note_on,88,0,160
1,note_on,89,53,0
1,note_on,89,0,160
1,note_on,87,53,0
1,note_on,87,0,160
1,note_on,88,53,0
1,note_on,88,0,160
1,note_on,84,0,0
1,note_on,83,60,0
1,note_on,88,54,160
1,note_on,88,0,160
1,note_on,86,54,0
1,note_on,86,0,160
1,note_on,83,0,0
1,note_on,76,60,0
1,note_on,86,53,160
1,note_on,86,0,160
1,note_on,84,53,0
1,note_on,84,0,160
1,note_on,76,0,0
1,note_on,80,60,0
1,note_on,82,54,160
1,note_on,82,0,160
1,note_on,83,54,0
1,note_on,83,0,160
1,note_on,84,54,0
1,note_on,84,0,160
1,note_on,82,54,0
1,note_on,82,0,160
1,note_on,83,54,0
1,note_on,83,0,160
1,note_on,80,0,0
1,note_on,77,60,0
1,note_on,80,54,160
1,note_on,80,0,160
1,note_on,81,54,0
1,note_on,81,0,160
1,note_on,83,54,0
1,note_on,83,0,160
1,note_on,80,54,0
1,note_on,80,0,160
1,note_on,81,54,0
1,note_on,81,0,160
1,note_on,77,0,0
1,note_on,77,62,0
1,note_on,82,62,160
1,note_on,82,0,160
1,note_on,83,57,0
1,note_on,83,0,160
1,note_on,84,57,0
1,note_on,84,0,160
1,note_on,82,59,0
1,note_on,82,0,160
1,note_on,83,59,0
1,note_on,83,0,160
1,note_on,77,0,0
1,note_on,79,71,0
1,note_on,86,63,160
1,note_on,86,0,160
1,note_on,84,64,0
1,note_on,84,0,160
1,note_on,79,0,0
1,note_on,81,74,0
1,note_on,88,65,160
1,note_on,88,0,160
1,note_on,86,65,0
1,note_on,86,0,160
1,note_on,81,0,0
1,note_on,88,79,0
1,note_on,84,79,0
1,note_on,88,0,160
1,note_on,87,72,0
1,note_on,87,0,160
1,note_on,88,72,0
1,note_on,88,0,160
1,note_on,91,68,0
1,note_on,91,0,160
1,note_on,89,72,0
1,note_on,89,0,160
1,note_on,88,69,0
1,note_on,88,0,160
1,note_on,84,0,0
1,note_on,83,67,0
1,note_on,86,67,0
1,note_on,86,0,160
1,note_on,83,0,0
1,note_on,81,64,0
1,note_on,84,64,0
1,note_on,84,0,160
1,note_on,81,0,0
1,note_on,83,60,0
1,note_on,79,60,0
1,note_on,79,0,160
1,note_on,83,0,0
1,note_on,77,60,0
1,note_on,81,60,0
1,note_on,81,0,160
1,note_on,77,0,0
1,note_on,76,56,0
1,note_on,79,56,0
1,note_on,79,0,160
1,note_on,76,0,0
1,note_on,74,53,0
1,note_on,77,53,0
1,note_on,77,0,160
1,note_on,74,0,0
1,note_on,67,57,0
1,note_on,76,57,0
1,note_on,76,0,160
1,note_on,75,49,0
1,note_on,75,0,160
1,note_on,76,49,0
1,note_on,76,0,160
1,note_on,77,49,0
1,note_on,77,0,160
1,note_on,75,49,0
1,note_on,75,0,160
1,note_on,76,49,0
1,note_on,76,0,160
1,note_on,67,0,0
1,note_on,65,56,0
1,note_on,76,50,160
1,note_on,76,0,160
1,note_on,74,50,0
1,note_on,74,0,160
1,note_on,65,0,0
1,note_on,64,56,0
1,note_on,74,49,160
1,note_on,74,0,160
1,note_on,72,49,0
1,note_on,72,0,160
1,note_on,64,0,0
1,note_on,70,50,160
1,note_on,70,0,160
1,note_on,71,50,0
1,note_on,71,0,160
1,note_on,72,53,0
1,note_on,72,0,160
1,note_on,70,50,0
1,note_on,70,0,160
1,note_on,71,50,0
1,note_on,71,0,160
1,note_on,68,50,160
1,note_on,68,0,160
1,note_on,69,50,0
1,note_on,69,0,160
1,note_on,71,53,0
1,note_on,71,0,160
1,note_on,68,50,0
1,note_on,68,0,160
1,note_on,69,50,0
1,note_on,69,0,160
1,note_on,60,60,0
1,note_on,60,0,160
1,note_on,64,56,0
1,note_on,64,0,160
1,note_on,67,57,0
1,note_on,67,0,160
1,note_on,62,66,0
1,note_on,62,0,160
1,note_on,65,61,0
1,note_on,65,0,160
1,note_on,67,61,0
1,note_on,67,0,160
1,note_on,62,74,0
1,note_on,62,0,160
1,note_on,65,67,0
1,note_on,65,0,160
1,note_on,69,65,0
1,note_on,69,0,160
1,note_on,62,80,0
1,note_on,62,0,160
1,note_on,65,71,0
1,note_on,65,0,160
1,note_on,71,70,0
1,note_on,71,0,160
1,note_on,64,77,0
1,note_on,72,82,0
1,note_on,72,0,160
1,note_on,64,0,0
1,note_on,55,75,0
1,note_on,55,0,160
1,note_on,52,77,0
1,note_on,52,0,160
1,note_on,55,82,0
1,note_on,55,0,160
1,note_on,60,77,0
1,note_on,60,0,160
1,note_on,64,77,0
1,note_on,64,0,160
1,note_on,62,82,0
1,note_on,62,0,160
1,note_on,59,77,0
1,note_on,59,0,160
1,note_on,55,77,0
1,note_on,55,0,160
1,note_on,59,82,0
1,note_on,59,0,160
1,note_on,62,77,0
1,note_on,62,0,160
1,note_on,65,77,0
1,note_on,65,0,160
1,note_on,64,82,0
1,note_on,64,0,160
1,note_on,60,75,0
1,note_on,60,0,160
1,note_on,55,77,0
1,note_on,55,0,160
1,note_on,60,82,0
1,note_on,60,0,160
1,note_on,64,77,0
1,note_on,64,0,160
1,note_on,67,77,0
1,note_on,67,0,160
1,note_on,65,82,0
1,note_on,65,0,160
1,note_on,62,77,0
1,note_on,62,0,160
1,note_on,59,77,0
1,note_on,59,0,160
1,note_on,71,82,0
1,note_on,71,0,160
1,note_on,65,77,0
1,note_on,65,0,160
1,note_on,62,77,0
1,note_on,62,0,160
1,note_on,64,63,0
1,note_on,72,75,0
1,note_on,72,0,480
1,note_on,64,0,0
1,note_on,67,75,0
1,note_on,67,0,960
1,note_on,67,75,0
1,note_on,67,0,960
1,note_on,67,75,0
1,note_on,67,0,960
1,note_on,67,75,0
1,note_on,67,0,480
1,note_on,72,82,0
1,note_on,72,0,160
1,note_on,67,75,0
1,note_on,67,0,160
1,note_on,64,77,0
1,note_on,64,0,160
1,note_on,67,82,0
1,note_on,67,0,160
1,note_on,72,77,0
1,note_on,72,0,160
1,note_on,76,77,0
1,note_on,76,0,160
1,note_on,74,82,0
1,note_on,74,0,160
1,note_on,71,77,0
1,note_on,71,0,160
1,note_on,67,77,0
1,note_on,67,0,160
1,note_on,71,82,0
1,note_on,71,0,160
1,note_on,74,77,0
1,note_on,74,0,160
1,note_on,77,77,0
1,note_on,77,0,160
1,note_on,76,82,0
1,note_on,76,0,160
1,note_on,72,75,0
1,note_on,72,0,160
1,note_on,67,77,0
1,note_on,67,0,160
1,note_on,72,82,0
1,note_on,72,0,160
1,note_on,76,77,0
1,note_on,76,0,160
1,note_on,79,77,0
1,note_on,79,0,160
1,note_on,77,82,0
1,note_on,77,0,160
1,note_on,74,77,0
1,note_on,74,0,160
1,note_on,71,77,0
1,note_on,71,0,160
1,note_on,83,82,0
1,note_on,83,0,160
1,note_on,77,77,0
1,note_on,77,0,160
1,note_on,74,77,0
1,note_on,74,0,160
1,note_on,84,82,0
1,note_on,79,74,160
1,note_on,84,0,80
1,note_on,79,0,80
1,note_on,76,74,0
1,note_on,76,0,160
1,note_on,79,79,0
1,note_on,76,73,160
1,note_on,79,0,80
1,note_on,76,0,80
1,note_on,72,72,0
1,note_on,72,0,160
1,note_on,77,77,0
1,note_on,74,71,160
1,note_on,77,0,80
1,note_on,74,0,80
1,note_on,71,70,0
1,note_on,71,0,160
1,note_on,83,74,0
1,note_on,79,69,160
1,note_on,83,0,80
1,note_on,79,0,80
1,note_on,74,67,0
1,note_on,74,0,160
1,note_on,84,72,0
1,note_on,79,65,160
1,note_on,84,0,80
1,note_on,79,0,80
1,note_on,76,65,0
1,note_on,76,0,160
1,note_on,79,70,0
1,note_on,76,64,160
1,note_on,79,0,80
1,note_on,76,0,80
1,note_on,72,63,0
1,note_on,72,0,160
1,note_on,77,67,0
1,note_on,74,62,160
1,note_on,77,0,80
1,note_on,74,0,80
1,note_on,71,60,0
1,note_on,71,0,160
1,note_on,83,64,0
1,note_on,79,59,160
1,note_on,83,0,80
1,note_on,79,0,80
1,note_on,74,58,0
1,note_on,74,0,160
1,note_on,84,64,0
1,note_on,84,0,120
1,note_on,79,58,0
1,note_on,79,0,120
1,note_on,76,58,0
1,note_on,76,0,120
1,note_on,72,59,0
1,note_on,72,0,120
1,note_on,77,65,0
1,note_on,77,0,120
1,note_on,74,59,0
1,note_on,74,0,120
1,note_on,83,62,0
1,note_on,83,0,120
1,note_on,79,63,0
1,note_on,79,0,120
1,note_on,84,69,0
1,note_on,84,0,120
1,note_on,79,63,0
1,note_on,79,0,120
1,note_on,76,63,0
1,note_on,76,0,120
1,note_on,72,64,0
1,note_on,72,0,120
1,note_on,77,71,0
1,note_on,77,0,120
1,note_on,74,66,0
1,note_on,74,0,120
1,note_on,83,67,0
1,note_on,83,0,120
1,note_on,79,67,0
1,note_on,79,0,120
1,note_on,84,74,0
1,note_on,84,0,120
1,note_on,79,67,0
1,note_on,79,0,120
1,note_on,83,69,0
1,note_on,83,0,120
1,note_on,79,69,0
1,note_on,79,0,120
1,note_on,84,77,0
1,note_on,84,0,120
1,note_on,79,77,0
1,note_on,79,0,120
1,note_on,83,72,0
1,note_on,83,0,120
1,note_on,79,73,0
1,note_on,79,0,120
1,note_on,84,80,0
1,note_on,84,0,120
1,note_on,79,73,0
1,note_on,79,0,120
1,note_on,83,74,0
1,note_on,83,0,120
1,note_on,79,74,0
1,note_on,79,0,120
1,note_on,84,82,0
1,note_on,84,0,120
1,note_on,79,85,0
1,note_on,79,0,120
1,note_on,83,78,0
1,note_on,83,0,120
1,note_on,79,79,0
1,note_on,79,0,120
1,note_on,84,89,0
1,note_on,84,0,120
1,note_on,79,81,0
1,note_on,79,0,120
1,note_on,82,81,0
1,note_on,82,0,120
1,note_on,79,81,0
1,note_on,79,0,120
1,note_on,82,89,0
1,note_on,82,0,120
1,note_on,79,83,0
1,note_on,79,0,120
1,note_on,82,82,0
1,note_on,82,0,120
1,note_on,79,82,0
1,note_on,79,0,120
1,note_on,82,89,0
1,note_on,82,0,120
1,note_on,79,81,0
1,note_on,79,0,120
1,note_on,82,81,0
1,note_on,82,0,120
1,note_on,79,81,0
1,note_on,79,0,120
1,note_on,82,89,0
1,note_on,82,0,120
1,note_on,79,83,0
1,note_on,79,0,120
1,note_on,82,82,0
1,note_on,82,0,120
1,note_on,79,82,0
1,note_on,79,0,120
1,note_on,82,89,0
1,note_on,82,0,240
1,note_on,81,81,0
1,note_on,81,0,120
1,note_on,79,81,0
1,note_on,79,0,120
1,note_on,77,84,0
1,note_on,77,0,120
1,note_on,76,78,0
1,note_on,76,0,120
1,note_on,74,78,0
1,note_on,74,0,120
1,note_on,72,80,0
1,note_on,72,0,120
1,note_on,70,84,0
1,note_on,70,0,120
1,note_on,69,80,0
1,note_on,69,0,120
1,note_on,67,80,0
1,note_on,67,0,120
1,note_on,65,81,0
1,note_on,65,0,120
1,note_on,64,86,0
1,note_on,64,0,120
1,note_on,62,84,0
1,note_on,62,0,120
1,note_on,60,85,0
1,note_on,60,0,120
1,note_on,58,85,0
1,note_on,58,0,120
1,note_on,57,93,0
1,note_on,57,0,120
1,note_on,59,81,0
1,note_on,59,0,120
1,note_on,60,81,0
1,note_on,60,0,120
1,note_on,59,81,0
1,note_on,59,0,120
1,note_on,60,92,0
1,note_on,60,0,120
1,note_on,64,81,0
1,note_on,64,0,120
1,note_on,65,81,0
1,note_on,65,0,120
1,note_on,64,82,0
1,note_on,64,0,120
1,note_on,65,93,0
1,note_on,65,0,120
1,note_on,68,80,0
1,note_on,68,0,120
1,note_on,69,80,0
1,note_on,69,0,120
1,note_on,68,81,0
1,note_on,68,0,120
1,note_on,69,93,0
1,note_on,69,0,120
1,note_on,71,83,0
1,note_on,71,0,120
1,note_on,72,83,0
1,note_on,72,0,120
1,note_on,71,83,0
1,note_on,71,0,120
1,note_on,72,95,0
1,note_on,72,0,120
1,note_on,76,84,0
1,note_on,76,0,120
1,note_on,77,84,0
1,note_on,77,0,120
1,note_on,76,84,0
1,note_on,76,0,120
1,note_on,77,95,0
1,note_on,77,0,120
1,note_on,80,82,0
1,note_on,80,0,120
1,note_on,81,82,0
1,note_on,81,0,120
1,note_on,80,82,0
1,note_on,80,0,120
1,note_on,81,95,0
1,note_on,81,0,120
1,note_on,83,82,0
1,note_on,83,0,120
1,note_on,84,82,0
1,note_on,84,0,120
1,note_on,83,82,0
1,note_on,83,0,120
1,note_on,84,95,0
1,note_on,84,0,120
1,note_on,83,82,0
1,note_on,83,0,120
1,note_on,81,83,0
1,note_on,81,0,120
1,note_on,80,83,0
1,note_on,80,0,120
1,note_on,81,95,0
1,note_on,81,0,120
1,note_on,80,83,0
1,note_on,80,0,120
1,note_on,81,83,0
1,note_on,81,0,120
1,note_on,83,83,0
1,note_on,83,0,120
1,note_on,84,95,0
1,note_on,84,0,120
1,note_on,83,85,0
1,note_on,83,0,120
1,note_on,81,85,0
1,note_on,81,0,120
1,note_on,80,85,0
1,note_on,80,0,120
1,note_on,81,95,0
1,note_on,81,0,120
1,note_on,80,84,0
1,note_on,80,0,120
1,note_on,81,84,0
1,note_on,81,0,120
1,note_on,83,84,0
1,note_on,83,0,120
1,note_on,84,95,0
1,note_on,84,0,120
1,note_on,83,84,0
1,note_on,83,0,120
1,note_on,81,84,0
1,note_on,81,0,120
1,note_on,80,84,0
1,note_on,80,0,120
1,note_on,81,95,0
1,note_on,81,0,120
1,note_on,80,84,0
1,note_on,80,0,120
1,note_on,81,84,0
1,note_on,81,0,120
1,note_on,83,84,0
1,note_on,83,0,120
1,note_on,84,95,0
1,note_on,84,0,120
1,note_on,83,83,0
1,note_on,83,0,120
1,note_on,81,83,0
1,note_on,81,0,120
1,note_on,80,83,0
1,note_on,80,0,120
1,note_on,81,95,0
1,note_on,81,0,120
1,note_on,80,83,0
1,note_on,80,0,120
1,note_on,81,83,0
1,note_on,81,0,120
1,note_on,83,83,0
1,note_on,83,0,120
1,note_on,84,95,0
1,note_on,84,0,120
1,note_on,83,84,0
1,note_on,83,0,120
1,note_on,84,84,0
1,note_on,84,0,120
1,note_on,81,86,0
1,note_on,81,0,120
1,note_on,67,87,0
1,note_on,79,103,0
1,note_on,79,0,120
1,note_on,67,0,0
1,note_on,67,73,120
1,note_on,79,87,0
1,note_on,79,0,120
1,note_on,67,0,0
1,note_on,64,74,120
1,note_on,76,88,0
1,note_on,76,0,120
1,note_on,64,0,0
1,note_on,60,73,120
1,note_on,72,87,0
1,note_on,72,0,120
1,note_on,60,0,0
1,note_on,72,87,120
1,note_on,84,103,0
1,note_on,84,0,120
1,note_on,72,0,0
1,note_on,72,73,120
1,note_on,84,87,0
1,note_on,84,0,120
1,note_on,72,0,0
1,note_on,67,73,120
1,note_on,79,87,0
1,note_on,79,0,120
1,note_on,67,0,0
1,note_on,64,73,120
1,note_on,76,87,0
1,note_on,76,0,120
1,note_on,64,0,0
1,note_on,67,87,120
1,note_on,79,103,0
1,note_on,79,0,120
1,note_on,67,0,0
1,note_on,67,73,120
1,note_on,79,87,0
1,note_on,79,0,120
1,note_on,67,0,0
1,note_on,64,74,120
1,note_on,76,88,0
1,note_on,76,0,120
1,note_on,64,0,0
1,note_on,60,73,120
1,note_on,72,87,0
1,note_on,72,0,120
1,note_on,60,0,0
1,note_on,72,87,120
1,note_on,84,103,0
1,note_on,84,0,120
1,note_on,72,0,0
1,note_on,72,73,120
1,note_on,84,87,0
1,note_on,84,0,120
1,note_on,72,0,0
1,note_on,67,73,120
1,note_on,79,87,0
1,note_on,79,0,120
1,note_on,67,0,0
1,note_on,64,73,120
1,note_on,76,87,0
1,note_on,76,0,120
1,note_on,64,0,0
1,note_on,84,47,240
1,note_on,84,0,120
1,note_on,88,50,0
1,note_on,88,0,119
1,note_on,84,47,1
1,note_on,84,0,120
1,note_on,91,51,0
1,note_on,91,0,119
1,note_on,88,47,1
1,note_on,88,0,120
1,note_on,91,50,0
1,note_on,91,0,119
1,note_on,88,47,1
1,note_on,88,0,120
1,note_on,91,51,0
1,note_on,91,0,119
1,note_on,88,47,1
1,note_on,88,0,120
1,note_on,91,50,0
1,note_on,91,0,119
1,note_on,88,47,1
1,note_on,88,0,120
1,note_on,91,52,0
1,note_on,91,0,119
1,note_on,88,47,1
1,note_on,88,0,120
1,note_on,91,51,0
1,note_on,91,0,119
1,note_on,88,47,1
1,note_on,88,0,120
1,note_on,91,50,0
1,note_on,91,0,119
1,note_on,88,47,1
1,note_on,88,0,120
1,note_on,91,50,0
1,note_on,91,0,119
1,note_on,88,47,1
1,note_on,88,0,120
1,note_on,91,51,0
1,note_on,91,0,119
1,note_on,88,47,1
1,note_on,88,0,120
1,note_on,91,50,0
1,note_on,91,0,119
1,note_on,88,47,1
1,note_on,88,0,120
1,note_on,91,51,0
1,note_on,91,0,119
1,note_on,88,47,1
1,note_on,88,0,120
1,note_on,91,50,0
1,note_on,91,0,119
1,note_on,88,47,1
1,note_on,88,0,120
1,note_on,91,52,0
1,note_on,91,0,119
1,note_on,88,47,1
1,note_on,88,0,120
1,note_on,91,51,0
1,note_on,91,0,119
1,note_on,88,47,1
1,note_on,88,0,120
1,note_on,89,42,120
1,note_on,89,0,120
1,note_on,91,45,0
1,note_on,89,41,120
1,note_on,91,0,60
1,note_on,89,0,60
1,note_on,92,44,0
1,note_on,89,40,120
1,note_on,92,0,60
1,note_on,89,0,60
1,note_on,91,42,0
1,note_on,89,39,120
1,note_on,91,0,60
1,note_on,89,0,60
1,note_on,92,42,0
1,note_on,89,38,120
1,note_on,92,0,60
1,note_on,89,0,60
1,note_on,91,40,0
1,note_on,89,37,120
1,note_on,91,0,60
1,note_on,89,0,60
1,note_on,92,40,0
1,note_on,89,36,120
1,note_on,92,0,60
1,note_on,89,0,60
1,note_on,91,39,0
1,note_on,89,35,120
1,note_on,91,0,60
1,note_on,89,0,60
1,note_on,92,37,0
1,note_on,89,34,120
1,note_on,92,0,60
1,note_on,89,0,60
1,note_on,91,36,0
1,note_on,89,34,120
1,note_on,91,0,60
1,note_on,89,0,60
1,note_on,92,37,0
1,note_on,89,34,120
1,note_on,92,0,60
1,note_on,89,0,60
1,note_on,91,36,0
1,note_on,89,34,120
1,note_on,91,0,60
1,note_on,89,0,60
1,note_on,92,37,0
1,note_on,89,34,120
1,note_on,92,0,60
1,note_on,89,0,60
1,note_on,91,36,0
1,note_on,89,34,120
1,note_on,91,0,60
1,note_on,89,0,60
1,note_on,92,38,0
1,note_on,89,34,120
1,note_on,92,0,60
1,note_on,89,0,60
1,note_on,91,37,0
1,note_on,89,34,120
1,note_on,91,0,60
1,note_on,89,0,60
1,note_on,93,37,0
1,note_on,93,0,120
1,note_on,89,34,0
1,note_on,89,0,120
1,note_on,91,36,0
1,note_on,91,0,120
1,note_on,89,35,0
1,note_on,89,0,120
1,note_on,93,38,0
1,note_on,93,0,120
1,note_on,89,36,0
1,note_on,89,0,120
1,note_on,91,38,0
1,note_on,91,0,120
1,note_on,89,36,0
1,note_on,89,0,120
1,note_on,93,40,0
1,note_on,93,0,120
1,note_on,89,37,0
1,note_on,89,0,120
1,note_on,91,40,0
1,note_on,91,0,120
1,note_on,89,38,0
1,note_on,89,0,120
1,note_on,93,43,0
1,note_on,93,0,120
1,note_on,89,39,0
1,note_on,89,0,120
1,note_on,91,43,0
1,note_on,91,0,120
1,note_on,89,40,0
1,note_on,89,0,120
1,note_on,93,44,0
1,note_on,93,0,120
1,note_on,89,43,120
1,note_on,91,43,0
1,note_on,91,0,120
1,note_on,89,0,0
1,note_on,89,46,120
1,note_on,91,46,0
1,note_on,91,0,120
1,note_on,89,0,0
1,note_on,89,46,120
1,note_on,91,46,0
1,note_on,91,0,120
1,note_on,89,0,0
1,note_on,89,49,120
1,note_on,91,49,0
1,note_on,91,0,120
1,note_on,89,0,0
1,note_on,89,49,120
1,note_on,91,49,0
1,note_on,91,0,120
1,note_on,89,0,0
1,note_on,89,54,120
1,note_on,91,54,0
1,note_on,91,0,120
1,note_on,89,0,0
1,note_on,89,53,120
1,note_on,91,53,0
1,note_on,91,0,120
1,note_on,89,0,0
1,note_on,84,82,120
1,note_on,84,0,1440
1,note_on,84,58,0
1,note_on,84,0,120
1,note_on,82,57,0
1,note_on,82,0,120
1,note_on,80,56,0
1,note_on,80,0,120
1,note_on,79,55,0
1,note_on,79,0,120
1,note_on,80,58,0
1,note_on,80,0,120
1,note_on,79,57,0
1,note_on,79,0,120
1,note_on,77,56,0
1,note_on,77,0,120
1,note_on,76,55,0
1,note_on,76,0,120
1,note_on,77,51,0
1,note_on,77,0,120
1,note_on,79,52,0
1,note_on,79,0,120
1,note_on,80,53,0
1,note_on,80,0,120
1,note_on,82,54,0
1,note_on,82,0,120
1,note_on,84,56,0
1,note_on,84,0,120
1,note_on,85,57,0
1,note_on,85,0,120
1,note_on,84,57,0
1,note_on,84,0,120
1,note_on,83,56,0
1,note_on,83,0,120
1,note_on,84,56,0
1,note_on,84,0,120
1,note_on,82,56,0
1,note_on,82,0,120
1,note_on,80,56,0
1,note_on,80,0,120
1,note_on,79,56,0
1,note_on,79,0,120
1,note_on,80,57,0
1,note_on,80,0,120
1,note_on,82,57,0
1,note_on,82,0,120
1,note_on,80,57,0
1,note_on,80,0,120
1,note_on,79,53,0
1,note_on,79,0,120
1,note_on,77,56,0
1,note_on,77,0,120
1,note_on,76,52,0
1,note_on,76,0,120
1,note_on,77,56,0
1,note_on,77,0,120
1,note_on,79,52,0
1,note_on,79,0,120
1,note_on,68,45,0
1,note_on,80,59,0
1,note_on,80,0,480
1,note_on,77,52,0
1,note_on,77,0,240
1,note_on,73,52,0
1,note_on,73,0,240
1,note_on,68,0,0
1,note_on,67,45,0
1,note_on,79,57,0
1,note_on,79,0,480
1,note_on,75,52,0
1,note_on,75,0,240
1,note_on,72,52,0
1,note_on,72,0,240
1,note_on,67,0,0
1,note_on,65,45,0
1,note_on,77,57,0
1,note_on,77,0,480
1,note_on,74,52,0
1,note_on,74,0,240
1,note_on,71,52,0
1,note_on,71,0,240
1,note_on,65,0,0
1,note_on,72,72,0
1,note_on,72,0,1440
1,note_on,72,58,0
1,note_on,72,0,120
1,note_on,70,57,0
1,note_on,70,0,120
1,note_on,69,56,0
1,note_on,69,0,120
1,note_on,67,55,0
1,note_on,67,0,120
1,note_on,69,58,0
1,note_on,69,0,120
1,note_on,67,57,0
1,note_on,67,0,120
1,note_on,65,56,0
1,note_on,65,0,120
1,note_on,64,55,0
1,note_on,64,0,120
1,note_on,65,51,0
1,note_on,65,0,120
1,note_on,67,52,0
1,note_on,67,0,120
1,note_on,69,53,0
1,note_on,69,0,120
1,note_on,70,54,0
1,note_on,70,0,120
1,note_on,72,56,0
1,note_on,72,0,120
1,note_on,74,57,0
1,note_on,74,0,120
1,note_on,72,57,0
1,note_on,72,0,120
1,note_on,71,56,0
1,note_on,71,0,120
1,note_on,72,56,0
1,note_on,72,0,120
1,note_on,70,56,0
1,note_on,70,0,120
1,note_on,69,56,0
1,note_on,69,0,120
1,note_on,67,56,0
1,note_on,67,0,120
1,note_on,69,57,0
1,note_on,69,0,120
1,note_on,70,57,0
1,note_on,70,0,120
1,note_on,69,57,0
1,note_on,69,0,120
1,note_on,67,53,0
1,note_on,67,0,120
1,note_on,65,56,0
1,note_on,65,0,120
1,note_on,64,52,0
1,note_on,64,0,120
1,note_on,65,56,0
1,note_on,65,0,120
1,note_on,67,52,0
1,note_on,67,0,120
1,note_on,57,45,0
1,note_on,69,59,0
1,note_on,69,0,480
1,note_on,65,52,0
1,note_on,65,0,240
1,note_on,62,52,0
1,note_on,62,0,240
1,note_on,57,0,0
1,note_on,55,45,0
1,note_on,67,57,0
1,note_on,67,0,480
1,note_on,64,52,0
1,note_on,64,0,240
1,note_on,60,52,0
1,note_on,60,0,240
1,note_on,65,57,0
1,note_on,65,0,480
1,note_on,62,52,0
1,note_on,62,0,240
1,note_on,59,52,0
1,note_on,59,0,240
1,note_on,55,0,0
1,note_on,55,51,0
1,note_on,60,55,0
1,note_on,60,0,480
1,note_on,55,0,0
1,note_on,72,68,0
1,note_on,72,0,240
1,note_on,71,64,0
1,note_on,71,0,240
1,note_on,69,66,0
1,note_on,69,0,480
1,note_on,65,61,0
1,note_on,65,0,240
1,note_on,62,54,0
1,note_on,62,0,240
1,note_on,67,51,0
1,note_on,67,0,480
1,note_on,64,46,0
1,note_on,64,0,240
1,note_on,60,46,0
1,note_on,60,0,240
1,note_on,65,51,0
1,note_on,65,0,480
1,note_on,62,46,0
1,note_on,62,0,240
1,note_on,59,46,0
1,note_on,59,0,240
1,note_on,60,55,0
1,note_on,60,0,480
1,note_on,77,68,0
1,note_on,77,0,240
1,note_on,76,64,0
1,note_on,76,0,240
1,note_on,74,66,0
1,note_on,74,0,480
1,note_on,70,61,0
1,note_on,70,0,240
1,note_on,67,54,0
1,note_on,67,0,240
1,note_on,72,51,0
1,note_on,72,0,480
1,note_on,69,46,0
1,note_on,69,0,240
1,note_on,65,46,0
1,note_on,65,0,240
1,note_on,70,51,0
1,note_on,70,0,480
1,note_on,67,46,0
1,note_on,67,0,240
1,note_on,64,46,0
1,note_on,64,0,240
1,note_on,65,55,0
1,note_on,65,0,480
1,note_on,77,67,0
1,note_on,77,0,240
1,note_on,75,63,0
1,note_on,75,0,240
1,note_on,73,66,0
1,note_on,73,0,480
1,note_on,70,61,0
1,note_on,70,0,240
1,note_on,67,54,0
1,note_on,67,0,240
1,note_on,72,51,0
1,note_on,72,0,480
1,note_on,68,46,0
1,note_on,68,0,240
1,note_on,65,46,0
1,note_on,65,0,240
1,note_on,70,51,0
1,note_on,70,0,480
1,note_on,67,46,0
1,note_on,67,0,240
1,note_on,64,46,0
1,note_on,64,0,240
1,note_on,65,40,0
1,note_on,65,0,240
1,note_on,49,28,0
1,note_on,53,33,0
1,note_on,53,0,120
1,note_on,49,0,0
1,note_on,49,28,120
1,note_on,53,33,0
1,note_on,53,0,120
1,note_on,49,0,0
1,note_on,49,28,120
1,note_on,53,34,0
1,note_on,53,0,120
1,note_on,49,0,0
1,note_on,49,28,120
1,note_on,53,34,0
1,note_on,53,0,120
1,note_on,49,0,0
1,note_on,49,28,120
1,note_on,53,34,0
1,note_on,53,0,120
1,note_on,49,0,0
1,note_on,49,29,120
1,note_on,53,35,0
1,note_on,53,0,120
1,note_on,49,0,0
1,note_on,49,29,120
1,note_on,53,35,0
1,note_on,53,0,120
1,note_on,49,0,0
1,note_on,49,30,120
1,note_on,53,36,0
1,note_on,53,0,120
1,note_on,49,0,0
1,note_on,49,30,120
1,note_on,53,36,0
1,note_on,53,0,120
1,note_on,49,0,0
1,note_on,49,31,120
1,note_on,53,37,0
1,note_on,53,0,120
1,note_on,49,0,0
1,note_on,49,32,120
1,note_on,53,38,0
1,note_on,53,0,120
1,note_on,49,0,0
1,note_on,49,33,120
1,note_on,53,39,0
1,note_on,53,0,120
1,note_on,49,0,0
1,note_on,49,34,120
1,note_on,53,40,0
1,note_on,53,0,120
1,note_on,49,0,0
1,note_on,51,34,120
1,note_on,55,40,0
1,note_on,55,0,120
1,note_on,51,0,0
1,note_on,51,34,120
1,note_on,55,40,0
1,note_on,55,0,120
1,note_on,51,0,0
1,note_on,56,46,120
1,note_on,56,0,720
1,note_on,60,40,0
1,note_on,60,0,120
1,note_on,58,40,0
1,note_on,58,0,120
1,note_on,56,45,0
1,note_on,56,0,120
1,note_on,86,72,780
1,note_on,86,0,60
1,note_on,87,89,0
1,note_on,87,0,600
1,note_on,85,75,0
1,note_on,85,0,120
1,note_on,84,73,0
1,note_on,84,0,120
1,note_on,82,70,0
1,note_on,82,0,120
1,note_on,81,69,0
1,note_on,81,0,240
1,note_on,58,46,720
1,note_on,58,0,720
1,note_on,61,40,0
1,note_on,61,0,120
1,note_on,60,40,0
1,note_on,60,0,120
1,note_on,58,45,0
1,note_on,58,0,120
1,note_on,88,72,780
1,note_on,88,0,60
1,note_on,89,89,0
1,note_on,89,0,600
1,note_on,87,75,0
1,note_on,87,0,120
1,note_on,86,73,0
1,note_on,86,0,120
1,note_on,84,70,0
1,note_on,84,0,120
1,note_on,83,69,0
1,note_on,83,0,240
1,note_on,60,82,720
1,note_on,60,0,240
1,note_on,63,70,0
1,note_on,63,0,120
1,note_on,62,70,0
1,note_on,62,0,120
1,note_on,60,74,0
1,note_on,60,0,240
1,note_on,80,78,240
1,note_on,80,0,120
1,note_on,79,75,0
1,note_on,79,0,120
1,note_on,77,73,0
1,note_on,77,0,120
1,note_on,75,70,0
1,note_on,75,0,120
1,note_on,74,74,0
1,note_on,74,0,240
1,note_on,64,82,240
1,note_on,64,0,240
1,note_on,67,70,0
1,note_on,67,0,120
1,note_on,65,70,0
1,note_on,65,0,120
1,note_on,64,74,0
1,note_on,64,0,240
1,note_on,84,78,240
1,note_on,84,0,120
1,note_on,82,75,0
1,note_on,82,0,120
1,note_on,80,73,0
1,note_on,80,0,120
1,note_on,79,70,0
1,note_on,79,0,120
1,note_on,77,74,0
1,note_on,77,0,240
1,note_on,87,90,240
1,note_on,87,0,120
1,note_on,86,86,0
1,note_on,86,0,120
1,note_on,84,84,0
1,note_on,84,0,120
1,note_on,83,80,0
1,note_on,83,0,120
1,note_on,84,85,0
1,note_on,84,0,240
1,note_on,75,90,240
1,note_on,75,0,120
1,note_on,74,86,0
1,note_on,74,0,120
1,note_on,72,84,0
1,note_on,72,0,120
1,note_on,71,80,0
1,note_on,71,0,120
1,note_on,72,85,0
1,note_on,72,0,240
1,note_on,63,90,240
1,note_on,63,0,120
1,note_on,62,86,0
1,note_on,62,0,120
1,note_on,60,84,0
1,note_on,60,0,120
1,note_on,59,80,0
1,note_on,59,0,120
1,note_on,60,85,0
1,note_on,60,0,240
1,note_on,75,90,240
1,note_on,75,0,120
1,note_on,74,86,0
1,note_on,74,0,120
1,note_on,72,84,0
1,note_on,72,0,120
1,note_on,71,80,0
1,note_on,71,0,120
1,note_on,72,85,0
1,note_on,72,0,120
1,note_on,74,85,0
1,note_on,74,0,120
1,note_on,75,85,0
1,note_on,75,0,120
1,note_on,78,85,0
1,note_on,78,0,120
1,note_on,79,85,0
1,note_on,79,0,220
1,note_on,67,38,20
1,note_on,79,45,0
1,note_on,79,0,220
1,note_on,67,0,0
1,note_on,67,38,20
1,note_on,79,45,0
1,note_on,79,0,220
1,note_on,67,0,0
1,note_on,67,38,20
1,note_on,79,45,0
1,note_on,79,0,220
1,note_on,67,0,0
1,note_on,67,38,20
1,note_on,79,45,0
1,note_on,79,0,220
1,note_on,67,0,0
1,note_on,67,38,20
1,note_on,79,45,0
1,note_on,79,0,220
1,note_on,67,0,0
1,note_on,67,38,20
1,note_on,79,45,0
1,note_on,79,0,220
1,note_on,67,0,0
1,note_on,67,38,20
1,note_on,79,45,0
1,note_on,79,0,220
1,note_on,67,0,0
1,note_on,67,37,20
1,note_on,70,37,0
1,note_on,73,37,0
1,note_on,79,45,0
1,note_on,79,0,220
1,note_on,67,0,0
1,note_on,70,0,0
1,note_on,73,0,0
1,note_on,67,39,20
1,note_on,70,39,0
1,note_on,73,39,0
1,note_on,79,47,0
1,note_on,79,0,220
1,note_on,67,0,0
1,note_on,70,0,0
1,note_on,73,0,0
1,note_on,67,41,20
1,note_on,70,41,0
1,note_on,73,41,0
1,note_on,79,49,0
1,note_on,79,0,220
1,note_on,67,0,0
1,note_on,70,0,0
1,note_on,73,0,0
1,note_on,67,43,20
1,note_on,70,43,0
1,note_on,73,43,0
1,note_on,79,52,0
1,note_on,79,0,220
1,note_on,67,0,0
1,note_on,70,0,0
1,note_on,73,0,0
1,note_on,67,45,20
1,note_on,70,45,0
1,note_on,73,45,0
1,note_on,79,54,0
1,note_on,79,0,220
1,note_on,67,0,0
1,note_on,70,0,0
1,note_on,73,0,0
1,note_on,67,46,20
1,note_on,70,46,0
1,note_on,73,46,0
1,note_on,79,55,0
1,note_on,79,0,220
1,note_on,67,0,0
1,note_on,70,0,0
1,note_on,73,0,0
1,note_on,67,49,20
1,note_on,70,49,0
1,note_on,73,49,0
1,note_on,79,59,0
1,note_on,79,0,220
1,note_on,67,0,0
1,note_on,70,0,0
1,note_on,73,0,0
1,note_on,67,51,20
1,note_on,70,51,0
1,note_on,73,51,0
1,note_on,79,61,0
1,note_on,79,0,220
1,note_on,67,0,0
1,note_on,70,0,0
1,note_on,73,0,0
1,note_on,67,41,20
1,note_on,71,41,0
1,note_on,74,41,0
1,note_on,79,49,0
1,note_on,79,0,240
1,note_on,67,0,0
1,note_on,71,0,0
1,note_on,74,0,0
1,note_on,91,58,0
1,note_on,79,49,0
1,note_on,79,0,480
1,note_on,91,0,0
1,note_on,89,53,0
1,note_on,77,53,0
1,note_on,77,0,480
1,note_on,89,0,0
1,note_on,88,55,0
1,note_on,76,46,0
1,note_on,76,0,480
1,note_on,88,0,0
1,note_on,86,53,0
1,note_on,74,45,0
1,note_on,74,0,480
1,note_on,86,0,0
1,note_on,84,52,0
1,note_on,72,44,0
1,note_on,72,0,480
1,note_on,84,0,0
1,note_on,83,50,0
1,note_on,71,42,0
1,note_on,71,0,480
1,note_on,83,0,0
1,note_on,81,49,0
1,note_on,69,41,0
1,note_on,69,0,480
1,note_on,81,0,0
1,note_on,79,47,0
1,note_on,67,39,0
1,note_on,67,0,240
1,note_on,79,0,0
1,note_on,65,38,0
1,note_on,77,45,0
1,note_on,77,0,120
1,note_on,65,0,0
1,note_on,62,37,0
1,note_on,62,0,120
1,note_on,64,39,0
1,note_on,64,0,120
1,note_on,65,40,0
1,note_on,65,0,120
1,note_on,67,42,0
1,note_on,67,0,120
1,note_on,69,44,0
1,note_on,69,0,120
1,note_on,71,45,0
1,note_on,71,0,120
1,note_on,73,47,0
1,note_on,73,0,120
1,note_on,74,48,0
1,note_on,74,0,120
1,note_on,65,42,0
1,note_on,65,0,120
1,note_on,67,43,0
1,note_on,67,0,120
1,note_on,69,45,0
1,note_on,69,0,120
1,note_on,71,46,0
1,note_on,71,0,120
1,note_on,73,48,0
1,note_on,73,0,120
1,note_on,74,49,0
1,note_on,74,0,120
1,note_on,76,50,0
1,note_on,76,0,120
1,note_on,77,52,0
1,note_on,77,0,120
1,note_on,74,46,0
1,note_on,74,0,120
1,note_on,76,46,0
1,note_on,76,0,120
1,note_on,77,47,0
1,note_on,77,0,120
1,note_on,79,48,0
1,note_on,79,0,120
1,note_on,81,49,0
1,note_on,81,0,120
1,note_on,83,50,0
1,note_on,83,0,120
1,note_on,85,51,0
1,note_on,85,0,120
1,note_on,86,52,0
1,note_on,86,0,120
1,note_on,85,46,0
1,note_on,85,0,120
1,note_on,86,47,0
1,note_on,86,0,120
1,note_on,88,48,0
1,note_on,88,0,120
1,note_on,89,49,0
1,note_on,89,0,120
1,note_on,85,51,0
1,note_on,85,0,120
1,note_on,86,52,0
1,note_on,86,0,120
1,note_on,88,53,0
1,note_on,88,0,120
1,note_on,89,49,0
1,note_on,89,0,240
1,note_on,89,58,0
1,note_on,77,49,0
1,note_on,77,0,480
1,note_on,89,0,0
1,note_on,88,53,0
1,note_on,76,53,0
1,note_on,76,0,480
1,note_on,88,0,0
1,note_on,86,55,0
1,note_on,74,46,0
1,note_on,74,0,480
1,note_on,86,0,0
1,note_on,84,53,0
1,note_on,72,45,0
1,note_on,72,0,480
1,note_on,84,0,0
1,note_on,83,52,0
1,note_on,71,44,0
1,note_on,71,0,480
1,note_on,83,0,0
1,note_on,81,50,0
1,note_on,69,42,0
1,note_on,69,0,480
1,note_on,81,0,0
1,note_on,79,49,0
1,note_on,67,41,0
1,note_on,67,0,480
1,note_on,79,0,0
1,note_on,77,47,0
1,note_on,65,39,0
1,note_on,65,0,240
1,note_on,77,0,0
1,note_on,64,38,0
1,note_on,76,45,0
1,note_on,76,0,120
1,note_on,64,0,0
1,note_on,64,37,0
1,note_on,64,0,120
1,note_on,65,39,0
1,note_on,65,0,120
1,note_on,67,40,0
1,note_on,67,0,120
1,note_on,69,42,0
1,note_on,69,0,120
1,note_on,71,44,0
1,note_on,71,0,120
1,note_on,72,45,0
1,note_on,72,0,120
1,note_on,74,47,0
1,note_on,74,0,120
1,note_on,76,48,0
1,note_on,76,0,120
1,note_on,69,42,0
1,note_on,69,0,120
1,note_on,71,43,0
1,note_on,71,0,120
1,note_on,72,45,0
1,note_on,72,0,120
1,note_on,74,46,0
1,note_on,74,0,120
1,note_on,76,48,0
1,note_on,76,0,120
1,note_on,78,49,0
1,note_on,78,0,120
1,note_on,80,50,0
1,note_on,80,0,120
1,note_on,81,52,0
1,note_on,81,0,120
1,note_on,76,46,0
1,note_on,76,0,120
1,note_on,78,46,0
1,note_on,78,0,120
1,note_on,80,47,0
1,note_on,80,0,120
1,note_on,81,48,0
1,note_on,81,0,120
1,note_on,83,49,0
1,note_on,83,0,120
1,note_on,84,50,0
1,note_on,84,0,120
1,note_on,86,51,0
1,note_on,86,0,120
1,note_on,88,52,0
1,note_on,88,0,120
1,note_on,86,46,0
1,note_on,86,0,120
1,note_on,84,47,0
1,note_on,84,0,120
1,note_on,83,48,0
1,note_on,83,0,120
1,note_on,81,49,0
1,note_on,81,0,120
1,note_on,83,51,0
1,note_on,83,0,120
1,note_on,84,52,0
1,note_on,84,0,120
1,note_on,81,53,0
1,note_on,81,0,120
1,note_on,65,38,120
1,note_on,65,0,120
1,note_on,67,41,0
1,note_on,67,0,120
1,note_on,69,42,0
1,note_on,69,0,120
1,note_on,71,44,0
1,note_on,71,0,120
1,note_on,72,47,0
1,note_on,72,0,120
1,note_on,74,48,0
1,note_on,74,0,120
1,note_on,76,50,0
1,note_on,76,0,120
1,note_on,77,52,0
1,note_on,77,0,120
1,note_on,71,45,0
1,note_on,71,0,120
1,note_on,72,47,0
1,note_on,72,0,120
1,note_on,74,49,0
1,note_on,74,0,120
1,note_on,76,51,0
1,note_on,76,0,120
1,note_on,77,53,0
1,note_on,77,0,120
1,note_on,79,54,0
1,note_on,79,0,120
1,note_on,81,56,0
1,note_on,81,0,120
1,note_on,83,58,0
1,note_on,83,0,120
1,note_on,77,51,0
1,note_on,77,0,120
1,note_on,79,52,0
1,note_on,79,0,120
1,note_on,81,53,0
1,note_on,81,0,120
1,note_on,83,55,0
1,note_on,83,0,120
1,note_on,84,56,0
1,note_on,84,0,120
1,note_on,86,58,0
1,note_on,86,0,120
1,note_on,88,59,0
1,note_on,88,0,120
1,note_on,89,60,0
1,note_on,89,0,120
1,note_on,88,54,0
1,note_on,88,0,120
1,note_on,86,55,0
1,note_on,86,0,120
1,note_on,84,57,0
1,note_on,84,0,120
1,note_on,83,58,0
1,note_on,83,0,120
1,note_on,84,61,0
1,note_on,84,0,120
1,note_on,86,62,0
1,note_on,86,0,120
1,note_on,83,64,0
1,note_on,83,0,120
1,note_on,79,56,120
1,note_on,79,0,120
1,note_on,81,56,0
1,note_on,81,0,120
1,note_on,83,57,0
1,note_on,83,0,120
1,note_on,84,59,0
1,note_on,84,0,120
1,note_on,86,60,0
1,note_on,86,0,120
1,note_on,88,62,0
1,note_on,88,0,120
1,note_on,89,63,0
1,note_on,89,0,120
1,note_on,91,65,0
1,note_on,91,0,120
1,note_on,89,57,0
1,note_on,89,0,120
1,note_on,88,59,0
1,note_on,88,0,120
1,note_on,86,60,0
1,note_on,86,0,120
1,note_on,85,62,0
1,note_on,85,0,120
1,note_on,86,65,0
1,note_on,86,0,120
1,note_on,88,66,0
1,note_on,88,0,120
1,note_on,85,68,0
1,note_on,85,0,120
1,note_on,73,59,120
1,note_on,73,0,120
1,note_on,74,59,0
1,note_on,74,0,120
1,note_on,76,61,0
1,note_on,76,0,120
1,note_on,77,63,0
1,note_on,77,0,120
1,note_on,79,64,0
1,note_on,79,0,120
1,note_on,81,66,0
1,note_on,81,0,120
1,note_on,77,67,0
1,note_on,77,0,240
1,note_on,75,61,0
1,note_on,75,0,120
1,note_on,76,61,0
1,note_on,76,0,120
1,note_on,77,64,0
1,note_on,77,0,120
1,note_on,79,65,0
1,note_on,79,0,120
1,note_on,81,66,0
1,note_on,81,0,120
1,note_on,83,69,0
1,note_on,83,0,120
1,note_on,79,70,0
1,note_on,79,0,240
1,note_on,76,63,0
1,note_on,76,0,120
1,note_on,77,64,0
1,note_on,77,0,120
1,note_on,79,66,0
1,note_on,79,0,120
1,note_on,81,68,0
1,note_on,81,0,120
1,note_on,83,69,0
1,note_on,83,0,120
1,note_on,84,72,0
1,note_on,84,0,120
1,note_on,81,73,0
1,note_on,81,0,240
1,note_on,78,66,0
1,note_on,78,0,120
1,note_on,79,66,0
1,note_on,79,0,120
1,note_on,81,68,0
1,note_on,81,0,120
1,note_on,83,70,0
1,note_on,83,0,120
1,note_on,84,71,0
1,note_on,84,0,120
1,note_on,86,74,0
1,note_on,86,0,120
1,note_on,83,75,0
1,note_on,83,0,240
1,note_on,80,69,0
1,note_on,80,0,120
1,note_on,81,69,0
1,note_on,81,0,120
1,note_on,83,71,0
1,note_on,83,0,120
1,note_on,84,73,0
1,note_on,84,0,120
1,note_on,86,74,0
1,note_on,86,0,120
1,note_on,88,77,0
1,note_on,88,0,120
1,note_on,84,79,0
1,note_on,84,0,240
1,note_on,82,71,0
1,note_on,82,0,120
1,note_on,83,71,0
1,note_on,83,0,120
1,note_on,84,74,0
1,note_on,84,0,120
1,note_on,86,75,0
1,note_on,86,0,120
1,note_on,88,77,0
1,note_on,88,0,120
1,note_on,89,79,0
1,note_on,89,0,120
1,note_on,86,81,0
1,note_on,86,0,120
1,note_on,79,76,240
1,note_on,79,0,80
1,note_on,84,69,0
1,note_on,84,0,80
1,note_on,91,70,0
1,note_on,91,0,80
1,note_on,79,78,240
1,note_on,79,0,80
1,note_on,84,72,0
1,note_on,84,0,80
1,note_on,91,71,0
1,note_on,91,0,80
1,note_on,80,80,240
1,note_on,80,0,80
1,note_on,84,73,0
1,note_on,84,0,80
1,note_on,92,74,0
1,note_on,92,0,80
1,note_on,80,82,240
1,note_on,80,0,80
1,note_on,84,75,0
1,note_on,84,0,80
1,note_on,92,75,0
1,note_on,92,0,80
1,note_on,81,85,0
1,note_on,81,0,120
1,note_on,93,88,0
1,note_on,93,0,120
1,note_on,91,87,0
1,note_on,91,0,120
1,note_on,89,86,0
1,note_on,89,0,120
1,note_on,88,86,0
1,note_on,88,0,120
1,note_on,86,85,0
1,note_on,86,0,120
1,note_on,84,84,0
1,note_on,84,0,120
1,note_on,83,83,0
1,note_on,83,0,120
1,note_on,81,82,0
1,note_on,81,0,120
1,note_on,79,81,0
1,note_on,79,0,120
1,note_on,77,80,0
1,note_on,77,0,120
1,note_on,76,79,0
1,note_on,76,0,120
1,note_on,74,78,0
1,note_on,74,0,120
1,note_on,72,77,0
1,note_on,72,0,120
1,note_on,71,77,0
1,note_on,71,0,120
1,note_on,69,76,0
1,note_on,69,0,120
1,note_on,68,75,0
1,note_on,68,0,120
1,note_on,69,78,0
1,note_on,69,0,120
1,note_on,67,77,0
1,note_on,67,0,120
1,note_on,65,77,0
1,note_on,65,0,120
1,note_on,64,77,0
1,note_on,64,0,120
1,note_on,62,77,0
1,note_on,62,0,120
1,note_on,60,76,0
1,note_on,60,0,120
1,note_on,59,76,0
1,note_on,59,0,120
1,note_on,57,76,0
1,note_on,57,0,120
1,note_on,55,75,0
1,note_on,55,0,120
1,note_on,53,75,0
1,note_on,53,0,120
1,note_on,52,75,0
1,note_on,52,0,120
1,note_on,50,75,0
1,note_on,50,0,120
1,note_on,48,74,0
1,note_on,48,0,120
1,note_on,47,74,0
1,note_on,47,0,120
1,note_on,45,74,0
1,note_on,45,0,120
1,note_on,43,75,0
1,note_on,43,0,120
1,note_on,48,75,0
1,note_on,48,0,120
1,note_on,47,47,0
1,note_on,47,0,120
1,note_on,50,47,0
1,note_on,50,0,120
1,note_on,48,47,0
1,note_on,48,0,120
1,note_on,52,48,0
1,note_on,52,0,120
1,note_on,51,48,0
1,note_on,51,0,120
1,note_on,53,48,0
1,note_on,53,0,120
1,note_on,52,48,0
1,note_on,52,0,120
1,note_on,55,49,0
1,note_on,55,0,120
1,note_on,54,49,0
1,note_on,54,0,120
1,note_on,57,49,0
1,note_on,57,0,120
1,note_on,55,50,0
1,note_on,55,0,120
1,note_on,60,50,0
1,note_on,60,0,120
1,note_on,59,50,0
1,note_on,59,0,120
1,note_on,62,51,0
1,note_on,62,0,120
1,note_on,60,51,0
1,note_on,60,0,120
1,note_on,64,51,0
1,note_on,64,0,120
1,note_on,63,52,0
1,note_on,63,0,120
1,note_on,65,52,0
1,note_on,65,0,120
1,note_on,64,52,0
1,note_on,64,0,120
1,note_on,67,53,0
1,note_on,67,0,120
1,note_on,66,53,0
1,note_on,66,0,120
1,note_on,69,53,0
1,note_on,69,0,120
1,note_on,67,54,0
1,note_on,67,0,120
1,note_on,72,54,0
1,note_on,72,0,120
1,note_on,71,54,0
1,note_on,71,0,120
1,note_on,74,55,0
1,note_on,74,0,120
1,note_on,72,55,0
1,note_on,72,0,120
1,note_on,76,55,0
1,note_on,76,0,120
1,note_on,75,56,0
1,note_on,75,0,120
1,note_on,77,56,0
1,note_on,77,0,120
1,note_on,76,56,0
1,note_on,76,0,120
1,note_on,79,58,0
1,note_on,79,0,120
1,note_on,78,60,0
1,note_on,78,0,120
1,note_on,81,62,0
1,note_on,81,0,120
1,note_on,79,70,0
1,note_on,79,0,60
1,note_on,84,62,60
1,note_on,84,0,120
1,note_on,83,62,0
1,note_on,83,0,120
1,note_on,84,63,0
1,note_on,84,0,120
1,note_on,79,70,0
1,note_on,79,0,60
1,note_on,88,63,60
1,note_on,88,0,120
1,note_on,87,64,0
1,note_on,87,0,120
1,note_on,88,65,0
1,note_on,88,0,120
1,note_on,79,72,0
1,note_on,79,0,60
1,note_on,84,65,60
1,note_on,84,0,120
1,note_on,83,66,0
1,note_on,83,0,120
1,note_on,84,66,0
1,note_on,84,0,120
1,note_on,79,74,0
1,note_on,79,0,60
1,note_on,88,67,60
1,note_on,88,0,120
1,note_on,87,68,0
1,note_on,87,0,120
1,note_on,88,68,0
1,note_on,88,0,120
1,note_on,79,76,0
1,note_on,79,0,60
1,note_on,84,69,60
1,note_on,84,0,120
1,note_on,83,69,0
1,note_on,83,0,120
1,note_on,84,70,0
1,note_on,84,0,120
1,note_on,79,78,0
1,note_on,79,0,60
1,note_on,88,71,60
1,note_on,88,0,120
1,note_on,87,71,0
1,note_on,87,0,120
1,note_on,88,71,0
1,note_on,88,0,120
1,note_on,79,80,0
1,note_on,79,0,60
1,note_on,84,72,60
1,note_on,84,0,120
1,note_on,83,73,0
1,note_on,83,0,120
1,note_on,84,73,0
1,note_on,84,0,120
1,note_on,89,87,0
1,note_on,83,87,0
1,note_on,83,0,1200
1,note_on,89,0,0
1,note_on,89,73,0
1,note_on,89,0,60
1,note_on,88,73,0
1,note_on,88,0,60
1,note_on,86,72,0
1,note_on,86,0,60
1,note_on,84,71,0
1,note_on,84,0,60
1,note_on,83,70,0
1,note_on,83,0,60
1,note_on,81,69,0
1,note_on,81,0,60
1,note_on,79,68,0
1,note_on,79,0,60
1,note_on,77,68,0
1,note_on,77,0,60
1,note_on,76,66,0
1,note_on,76,0,60
1,note_on,74,66,0
1,note_on,74,0,60
1,note_on,72,65,0
1,note_on,72,0,60
1,note_on,71,65,0
1,note_on,71,0,60
1,note_on,71,78,0
1,note_on,77,78,0
1,note_on,77,0,1440
1,note_on,71,0,0
1,note_on,77,64,0
1,note_on,77,0,60
1,note_on,76,62,0
1,note_on,76,0,60
1,note_on,74,60,0
1,note_on,74,0,60
1,note_on,72,60,0
1,note_on,72,0,60
1,note_on,71,60,0
1,note_on,71,0,60
1,note_on,69,59,0
1,note_on,69,0,60
1,note_on,67,56,0
1,note_on,67,0,60
1,note_on,65,54,0
1,note_on,65,0,60
1,note_on,55,42,0
1,note_on,60,42,0
1,note_on,64,50,0
1,note_on,64,0,960
1,note_on,60,0,0
1,note_on,55,0,0
1,note_on,53,40,0
1,note_on,59,40,0
1,note_on,62,48,0
1,note_on,62,0,480
1,note_on,59,0,0
1,note_on,53,0,0
1,note_on,52,40,0
1,note_on,57,40,0
1,note_on,60,48,0
1,note_on,60,0,480
1,note_on,57,0,0
1,note_on,52,0,0
1,note_on,50,42,0
1,note_on,56,42,0
1,note_on,59,50,0
1,note_on,59,0,960
1,note_on,56,0,0
1,note_on,50,0,0
1,note_on,48,40,0
1,note_on,57,48,0
1,note_on,57,0,960
1,note_on,48,0,0
1,note_on,65,45,0
1,note_on,67,45,0
1,note_on,71,53,0
1,note_on,71,0,960
1,note_on,67,0,0
1,note_on,65,0,0
1,note_on,67,47,0
1,note_on,72,56,0
1,note_on,72,0,480
1,note_on,67,0,0
1,note_on,69,51,0
1,note_on,72,51,0
1,note_on,74,62,0
1,note_on,74,0,480
1,note_on,72,0,0
1,note_on,69,0,0
1,note_on,67,56,0
1,note_on,72,56,0
1,note_on,76,67,0
1,note_on,76,0,960
1,note_on,72,0,0
1,note_on,71,50,0
1,note_on,74,60,0
1,note_on,67,0,480
1,note_on,79,50,0
1,note_on,79,0,240
1,note_on,77,49,0
1,note_on,77,0,240
1,note_on,74,0,0
1,note_on,71,0,0
1,note_on,88,52,480
1,note_on,84,44,0
1,note_on,84,0,480
1,note_on,88,0,0
1,note_on,86,50,0
1,note_on,83,42,0
1,note_on,77,42,0
1,note_on,77,0,480
1,note_on,83,0,0
1,note_on,86,0,0
1,note_on,84,50,0
1,note_on,81,42,0
1,note_on,76,42,0
1,note_on,76,0,480
1,note_on,81,0,0
1,note_on,84,0,0
1,note_on,74,45,0
1,note_on,80,45,0
1,note_on,83,53,0
1,note_on,83,0,960
1,note_on,80,0,0
1,note_on,74,0,0
1,note_on,72,42,0
1,note_on,81,50,0
1,note_on,81,0,960
1,note_on,72,0,0
1,note_on,72,45,0
1,note_on,76,45,0
1,note_on,79,53,0
1,note_on,76,0,480
1,note_on,72,0,0
1,note_on,74,40,0
1,note_on,77,48,0
1,note_on,79,0,480
1,note_on,81,53,0
1,note_on,81,0,480
1,note_on,83,51,0
1,note_on,83,0,480
1,note_on,77,0,0
1,note_on,74,0,0
1,note_on,60,45,0
1,note_on,64,45,0
1,note_on,67,53,0
1,note_on,64,0,480
1,note_on,60,0,0
1,note_on,62,40,0
1,note_on,65,48,0
1,note_on,67,0,1440
1,note_on,68,56,0
1,note_on,68,0,960
1,note_on,71,46,0
1,note_on,71,0,960
1,note_on,65,0,0
1,note_on,62,0,0
1,note_on,48,45,0
1,note_on,52,45,0
1,note_on,55,53,0
1,note_on,52,0,480
1,note_on,48,0,0
1,note_on,50,40,0
1,note_on,53,48,0
1,note_on,55,0,1440
1,note_on,57,56,0
1,note_on,57,0,960
1,note_on,59,46,0
1,note_on,59,0,960
1,note_on,53,0,0
1,note_on,50,0,0
1,note_on,52,28,0
1,note_on,60,40,0
1,note_on,52,0,120
1,note_on,60,0,120
1,note_on,60,28,0
1,note_on,64,33,0
1,note_on,64,0,120
1,note_on,60,0,0
1,note_on,60,28,120
1,note_on,64,33,0
1,note_on,64,0,120
1,note_on,60,0,0
1,note_on,60,28,120
1,note_on,64,34,0
1,note_on,64,0,120
1,note_on,60,0,0
1,note_on,60,28,120
1,note_on,64,34,0
1,note_on,64,0,120
1,note_on,60,0,0
1,note_on,60,28,120
1,note_on,64,34,0
1,note_on,64,0,120
1,note_on,60,0,0
1,note_on,60,29,120
1,note_on,64,35,0
1,note_on,64,0,120
1,note_on,60,0,0
1,note_on,60,29,120
1,note_on,64,35,0
1,note_on,64,0,120
1,note_on,60,0,0
1,note_on,60,30,120
1,note_on,64,36,0
1,note_on,64,0,120
1,note_on,60,0,0
1,note_on,60,30,120
1,note_on,64,36,0
1,note_on,64,0,120
1,note_on,60,0,0
1,note_on,60,31,120
1,note_on,64,37,0
1,note_on,64,0,120
1,note_on,60,0,0
1,note_on,60,32,120
1,note_on,64,38,0
1,note_on,64,0,120
1,note_on,60,0,0
1,note_on,60,33,120
1,note_on,64,39,0
1,note_on,64,0,120
1,note_on,60,0,0
1,note_on,60,34,120
1,note_on,64,40,0
1,note_on,64,0,120
1,note_on,60,0,0
1,note_on,62,34,120
1,note_on,66,40,0
1,note_on,66,0,120
1,note_on,62,0,0
1,note_on,62,34,120
1,note_on,66,40,0
1,note_on,66,0,120
1,note_on,62,0,0
1,note_on,67,52,120
1,note_on,67,0,240
1,note_on,71,46,0
1,note_on,71,0,120
1,note_on,69,46,0
1,note_on,69,0,120
1,note_on,67,52,0
1,note_on,67,0,120
1,note_on,72,65,360
1,note_on,72,0,240
1,note_on,76,58,0
1,note_on,76,0,120
1,note_on,74,58,0
1,note_on,74,0,120
1,note_on,72,64,0
1,note_on,72,0,120
1,note_on,77,75,360
1,note_on,77,0,240
1,note_on,81,65,0
1,note_on,81,0,120
1,note_on,79,65,0
1,note_on,79,0,120
1,note_on,77,73,0
1,note_on,77,0,120
1,note_on,89,87,360
1,note_on,89,0,120
1,note_on,88,79,0
1,note_on,88,0,120
1,note_on,89,79,0
1,note_on,89,0,120
1,note_on,88,79,0
1,note_on,88,0,120
1,note_on,89,79,0
1,note_on,89,0,120
1,note_on,88,79,0
1,note_on,88,0,120
1,note_on,89,79,0
1,note_on,89,0,120
1,note_on,88,79,0
1,note_on,88,0,120
1,note_on,89,78,0
1,note_on,89,0,120
1,note_on,88,78,0
1,note_on,88,0,120
1,note_on,86,79,0
1,note_on,86,0,120
1,note_on,84,80,0
1,note_on,84,0,120
1,note_on,83,81,0
1,note_on,83,0,120
1,note_on,81,82,0
1,note_on,81,0,120
1,note_on,79,83,0
1,note_on,79,0,120
1,note_on,77,84,0
1,note_on,77,0,120
1,note_on,76,85,0
1,note_on,76,0,120
1,note_on,74,86,0
1,note_on,74,0,120
1,note_on,72,88,0
1,note_on,72,0,120
1,note_on,71,89,0
1,note_on,71,0,120
1,note_on,69,90,0
1,note_on,69,0,120
1,note_on,67,92,0
1,note_on,67,0,120
1,note_on,65,92,0
1,note_on,65,0,120
1,note_on,64,93,0
1,note_on,64,0,120
1,note_on,62,100,0
1,note_on,62,0,240
1,note_on,67,85,240
1,note_on,71,85,0
1,note_on,74,100,0
1,note_on,79,100,0
1,note_on,79,0,240
1,note_on,67,0,0
1,note_on,71,0,0
1,note_on,74,0,0
1,note_on,64,89,1200
1,note_on,67,89,0
1,note_on,72,106,0
1,note_on,76,106,0
1,note_on,76,0,240
1,note_on,64,0,0
1,note_on,67,0,0
1,note_on,72,0,0
1,note_on,67,89,720
1,note_on,71,89,0
1,note_on,74,106,0
1,note_on,79,106,0
1,note_on,79,0,240
1,note_on,67,0,0
1,note_on,71,0,0
1,note_on,74,0,0
1,note_on,84,106,720
1,note_on,79,106,0
1,note_on,76,89,0
1,note_on,72,89,0
1,note_on,72,0,240
1,note_on,84,0,0
1,note_on,79,0,0
1,note_on,76,0,0
2,note_on,36,25,0
2,note_on,36,0,180
2,note_on,43,26,60
2,note_on,36,22,0
2,note_on,36,0,180
2,note_on,43,0,0
2,note_on,43,26,60
2,note_on,36,22,0
2,note_on,36,0,180
2,note_on,43,0,0
2,note_on,43,27,60
2,note_on,36,22,0
2,note_on,36,0,180
2,note_on,43,0,0
2,note_on,43,27,60
2,note_on,36,22,0
2,note_on,36,0,180
2,note_on,43,0,0
2,note_on,43,28,60
2,note_on,36,23,0
2,note_on,36,0,180
2,note_on,43,0,0
2,note_on,43,28,60
2,note_on,36,23,0
2,note_on,36,0,180
2,note_on,43,0,0
2,note_on,43,29,60
2,note_on,36,24,0
2,note_on,36,0,180
2,note_on,43,0,0
2,note_on,36,25,60
2,note_on,43,30,0
2,note_on,43,0,180
2,note_on,36,0,0
2,note_on,36,22,60
2,note_on,43,27,0
2,note_on,43,0,180
2,note_on,36,0,0
2,note_on,36,23,60
2,note_on,43,28,0
2,note_on,43,0,180
2,note_on,36,0,0
2,note_on,36,24,60
2,note_on,43,29,0
2,note_on,43,0,180
2,note_on,36,0,0
2,note_on,36,25,60
2,note_on,43,30,0
2,note_on,43,0,180
2,note_on,36,0,0
2,note_on,36,25,60
2,note_on,43,30,0
2,note_on,43,0,180
2,note_on,36,0,0
2,note_on,36,25,60
2,note_on,45,30,0
2,note_on,45,0,180
2,note_on,36,0,0
2,note_on,36,25,60
2,note_on,45,30,0
2,note_on,45,0,180
2,note_on,36,0,0
2,note_on,35,25,60
2,note_on,43,30,0
2,note_on,43,0,180
2,note_on,35,0,0
2,note_on,35,25,60
2,note_on,43,30,0
2,note_on,43,0,180
2,note_on,35,0,0
2,note_on,35,25,60
2,note_on,43,30,0
2,note_on,43,0,180
2,note_on,35,0,0
2,note_on,35,25,60
2,note_on,43,30,0
2,note_on,43,0,180
2,note_on,35,0,0
2,note_on,35,25,60
2,note_on,43,30,0
2,note_on,43,0,180
2,note_on,35,0,0
2,note_on,35,25,60
2,note_on,43,30,0
2,note_on,43,0,180
2,note_on,35,0,0
2,note_on,35,25,60
2,note_on,43,30,0
2,note_on,43,0,180
2,note_on,35,0,0
2,note_on,35,25,60
2,note_on,43,30,0
2,note_on,43,0,180
2,note_on,35,0,0
2,note_on,35,25,60
2,note_on,43,30,0
2,note_on,43,0,180
2,note_on,35,0,0
2,note_on,35,25,60
2,note_on,43,30,0
2,note_on,43,0,180
2,note_on,35,0,0
2,note_on,35,25,60
2,note_on,43,30,0
2,note_on,43,0,180
2,note_on,35,0,0
2,note_on,35,25,60
2,note_on,43,30,0
2,note_on,43,0,180
2,note_on,35,0,0
2,note_on,35,25,60
2,note_on,43,30,0
2,note_on,43,0,180
2,note_on,35,0,0
2,note_on,35,25,60
2,note_on,43,30,0
2,note_on,43,0,180
2,note_on,35,0,0
2,note_on,35,25,60
2,note_on,43,30,0
2,note_on,43,0,180
2,note_on,35,0,0
2,note_on,35,25,60
2,note_on,43,30,0
2,note_on,43,0,180
2,note_on,35,0,0
2,note_on,41,30,60
2,note_on,34,26,0
2,note_on,34,0,180
2,note_on,41,0,0
2,note_on,41,30,60
2,note_on,34,25,0
2,note_on,34,0,180
2,note_on,41,0,0
2,note_on,41,30,60
2,note_on,34,25,0
2,note_on,34,0,180
2,note_on,41,0,0
2,note_on,41,31,60
2,note_on,34,26,0
2,note_on,34,0,180
2,note_on,41,0,0
2,note_on,41,31,60
2,note_on,34,26,0
2,note_on,34,0,180
2,note_on,41,0,0
2,note_on,41,31,60
2,note_on,34,26,0
2,note_on,34,0,180
2,note_on,41,0,0
2,note_on,41,31,60
2,note_on,34,26,0
2,note_on,34,0,180
2,note_on,41,0,0
2,note_on,41,31,60
2,note_on,34,26,0
2,note_on,34,0,180
2,note_on,41,0,0
2,note_on,34,26,60
2,note_on,41,31,0
2,note_on,41,0,180
2,note_on,34,0,0
2,note_on,34,26,60
2,note_on,41,31,0
2,note_on,41,0,180
2,note_on,34,0,0
2,note_on,34,26,60
2,note_on,41,31,0
2,note_on,41,0,180
2,note_on,34,0,0
2,note_on,34,26,60
2,note_on,41,31,0
2,note_on,41,0,180
2,note_on,34,0,0
2,note_on,34,26,60
2,note_on,41,31,0
2,note_on,41,0,180
2,note_on,34,0,0
2,note_on,34,25,60
2,note_on,41,30,0
2,note_on,41,0,180
2,note_on,34,0,0
2,note_on,34,25,60
2,note_on,43,30,0
2,note_on,43,0,180
2,note_on,34,0,0
2,note_on,34,25,60
2,note_on,43,30,0
2,note_on,43,0,180
2,note_on,34,0,0
2,note_on,33,25,60
2,note_on,41,30,0
2,note_on,41,0,180
2,note_on,33,0,0
2,note_on,33,25,60
2,note_on,41,30,0
2,note_on,41,0,180
2,note_on,33,0,0
2,note_on,33,25,60
2,note_on,41,30,0
2,note_on,41,0,180
2,note_on,33,0,0
2,note_on,33,25,60
2,note_on,41,30,0
2,note_on,41,0,180
2,note_on,33,0,0
2,note_on,33,25,60
2,note_on,41,30,0
2,note_on,41,0,180
2,note_on,33,0,0
2,note_on,33,25,60
2,note_on,41,30,0
2,note_on,41,0,180
2,note_on,33,0,0
2,note_on,33,25,60
2,note_on,41,30,0
2,note_on,41,0,180
2,note_on,33,0,0
2,note_on,33,25,60
2,note_on,41,30,0
2,note_on,41,0,180
2,note_on,33,0,0
2,note_on,32,25,60
2,note_on,41,30,0
2,note_on,41,0,180
2,note_on,32,0,0
2,note_on,32,25,60
2,note_on,41,30,0
2,note_on,41,0,180
2,note_on,32,0,0
2,note_on,32,25,60
2,note_on,41,30,0
2,note_on,41,0,180
2,note_on,32,0,0
2,note_on,32,25,60
2,note_on,41,30,0
2,note_on,41,0,180
2,note_on,32,0,0
2,note_on,32,25,60
2,note_on,41,30,0
2,note_on,41,0,180
2,note_on,32,0,0
2,note_on,32,25,60
2,note_on,41,30,0
2,note_on,41,0,180
2,note_on,32,0,0
2,note_on,32,25,60
2,note_on,41,30,0
2,note_on,41,0,180
2,note_on,32,0,0
2,note_on,32,25,60
2,note_on,41,30,0
2,note_on,41,0,180
2,note_on,32,0,0
2,note_on,31,30,60
2,note_on,41,36,0
2,note_on,41,0,180
2,note_on,31,0,0
2,note_on,31,32,60
2,note_on,41,38,0
2,note_on,41,0,180
2,note_on,31,0,0
2,note_on,31,33,60
2,note_on,41,39,0
2,note_on,41,0,180
2,note_on,31,0,0
2,note_on,31,34,60
2,note_on,41,41,0
2,note_on,41,0,180
2,note_on,31,0,0
2,note_on,31,36,60
2,note_on,41,43,0
2,note_on,41,0,180
2,note_on,31,0,0
2,note_on,31,38,60
2,note_on,41,45,0
2,note_on,41,0,180
2,note_on,31,0,0
2,note_on,32,39,60
2,note_on,41,46,0
2,note_on,41,0,180
2,note_on,32,0,0
2,note_on,32,40,60
2,note_on,41,48,0
2,note_on,41,0,180
2,note_on,32,0,0
2,note_on,31,44,60
2,note_on,41,52,0
2,note_on,41,0,180
2,note_on,31,0,0
2,note_on,31,44,60
2,note_on,41,52,0
2,note_on,41,0,180
2,note_on,31,0,0
2,note_on,32,45,60
2,note_on,41,55,0
2,note_on,41,0,180
2,note_on,32,0,0
2,note_on,32,46,60
2,note_on,41,55,0
2,note_on,41,0,180
2,note_on,32,0,0
2,note_on,31,48,60
2,note_on,41,58,0
2,note_on,41,0,180
2,note_on,31,0,0
2,note_on,31,51,60
2,note_on,41,60,0
2,note_on,41,0,180
2,note_on,31,0,0
2,note_on,32,54,60
2,note_on,41,64,0
2,note_on,41,0,180
2,note_on,32,0,0
2,note_on,32,56,60
2,note_on,41,66,0
2,note_on,41,0,180
2,note_on,32,0,0
2,note_on,31,70,60
2,note_on,41,85,0
2,note_on,41,0,480
2,note_on,31,0,0
2,note_on,43,81,0
2,note_on,55,96,0
2,note_on,55,0,1200
2,note_on,43,0,0
2,note_on,57,67,0
2,note_on,57,0,120
2,note_on,59,70,0
2,note_on,59,0,120
2,note_on,60,72,0
2,note_on,60,0,180
2,note_on,43,56,300
2,note_on,55,66,0
2,note_on,55,0,180
2,note_on,43,0,0
2,note_on,39,52,300
2,note_on,51,62,0
2,note_on,51,0,180
2,note_on,39,0,0
2,note_on,36,48,300
2,note_on,48,57,0
2,note_on,48,0,180
2,note_on,36,0,0
2,note_on,31,46,300
2,note_on,43,54,0
2,note_on,43,0,1920
2,note_on,31,0,0
2,note_on,36,30,0
2,note_on,48,30,0
2,note_on,48,0,240
2,note_on,48,31,0
2,note_on,48,0,119
2,note_on,55,26,1
2,note_on,55,0,120
2,note_on,48,31,0
2,note_on,48,0,119
2,note_on,55,27,1
2,note_on,55,0,120
2,note_on,48,31,0
2,note_on,48,0,119
2,note_on,55,27,1
2,note_on,55,0,120
2,note_on,48,31,0
2,note_on,48,0,119
2,note_on,55,26,1
2,note_on,55,0,120
2,note_on,48,31,0
2,note_on,48,0,119
2,note_on,55,27,1
2,note_on,55,0,120
2,note_on,48,31,0
2,note_on,48,0,119
2,note_on,55,27,1
2,note_on,55,0,120
2,note_on,48,31,0
2,note_on,48,0,119
2,note_on,55,25,1
2,note_on,55,0,120
2,note_on,36,0,0
2,note_on,48,31,0
2,note_on,48,0,119
2,note_on,55,26,1
2,note_on,55,0,120
2,note_on,48,31,0
2,note_on,48,0,119
2,note_on,55,26,1
2,note_on,55,0,120
2,note_on,48,31,0
2,note_on,48,0,119
2,note_on,55,27,1
2,note_on,55,0,120
2,note_on,48,31,0
2,note_on,48,0,119
2,note_on,55,27,1
2,note_on,55,0,120
2,note_on,48,31,0
2,note_on,48,0,119
2,note_on,55,26,1
2,note_on,55,0,120
2,note_on,48,31,0
2,note_on,48,0,119
2,note_on,55,27,1
2,note_on,55,0,120
2,note_on,48,31,0
2,note_on,48,0,119
2,note_on,57,27,1
2,note_on,57,0,120
2,note_on,48,31,0
2,note_on,48,0,119
2,note_on,57,25,1
2,note_on,57,0,120
2,note_on,47,26,0
2,note_on,50,31,0
2,note_on,55,25,120
2,note_on,50,0,60
2,note_on,47,0,0
2,note_on,55,0,60
2,note_on,47,26,0
2,note_on,50,31,0
2,note_on,55,25,120
2,note_on,50,0,60
2,note_on,47,0,0
2,note_on,55,0,60
2,note_on,47,26,0
2,note_on,50,31,0
2,note_on,55,25,120
2,note_on,50,0,60
2,note_on,47,0,0
2,note_on,55,0,60
2,note_on,47,26,0
2,note_on,50,31,0
2,note_on,55,25,120
2,note_on,50,0,60
2,note_on,47,0,0
2,note_on,55,0,60
2,note_on,47,26,0
2,note_on,50,31,0
2,note_on,55,25,120
2,note_on,50,0,60
2,note_on,47,0,0
2,note_on,55,0,60
2,note_on,47,26,0
2,note_on,50,31,0
2,note_on,55,25,120
2,note_on,50,0,60
2,note_on,47,0,0
2,note_on,55,0,60
2,note_on,47,26,0
2,note_on,50,31,0
2,note_on,55,25,120
2,note_on,50,0,60
2,note_on,47,0,0
2,note_on,55,0,60
2,note_on,47,26,0
2,note_on,50,31,0
2,note_on,55,25,120
2,note_on,50,0,60
2,note_on,47,0,0
2,note_on,55,0,60
2,note_on,47,26,0
2,note_on,50,31,0
2,note_on,55,25,120
2,note_on,50,0,60
2,note_on,47,0,0
2,note_on,55,0,60
2,note_on,47,26,0
2,note_on,50,31,0
2,note_on,55,25,120
2,note_on,50,0,60
2,note_on,47,0,0
2,note_on,55,0,60
2,note_on,47,26,0
2,note_on,50,31,0
2,note_on,55,25,120
2,note_on,50,0,60
2,note_on,47,0,0
2,note_on,55,0,60
2,note_on,47,26,0
2,note_on,50,31,0
2,note_on,55,25,120
2,note_on,50,0,60
2,note_on,47,0,0
2,note_on,55,0,60
2,note_on,47,26,0
2,note_on,50,31,0
2,note_on,55,25,120
2,note_on,50,0,60
2,note_on,47,0,0
2,note_on,55,0,60
2,note_on,47,26,0
2,note_on,50,31,0
2,note_on,55,25,120
2,note_on,50,0,60
2,note_on,47,0,0
2,note_on,55,0,60
2,note_on,47,26,0
2,note_on,50,31,0
2,note_on,55,25,120
2,note_on,50,0,60
2,note_on,47,0,0
2,note_on,55,0,60
2,note_on,47,26,0
2,note_on,50,31,0
2,note_on,55,25,120
2,note_on,50,0,60
2,note_on,47,0,0
2,note_on,55,0,60
2,note_on,38,33,0
2,note_on,50,33,0
2,note_on,50,0,240
2,note_on,50,34,0
2,note_on,50,0,119
2,note_on,57,28,1
2,note_on,57,0,120
2,note_on,50,34,0
2,note_on,50,0,119
2,note_on,57,29,1
2,note_on,57,0,120
2,note_on,50,34,0
2,note_on,50,0,119
2,note_on,57,29,1
2,note_on,57,0,120
2,note_on,50,34,0
2,note_on,50,0,119
2,note_on,57,28,1
2,note_on,57,0,120
2,note_on,50,34,0
2,note_on,50,0,119
2,note_on,57,29,1
2,note_on,57,0,120
2,note_on,50,34,0
2,note_on,50,0,119
2,note_on,57,30,1
2,note_on,57,0,120
2,note_on,50,35,0
2,note_on,50,0,119
2,note_on,57,28,1
2,note_on,57,0,120
2,note_on,38,0,0
2,note_on,50,35,0
2,note_on,50,0,119
2,note_on,57,29,1
2,note_on,57,0,120
2,note_on,50,35,0
2,note_on,50,0,119
2,note_on,57,29,1
2,note_on,57,0,120
2,note_on,50,35,0
2,note_on,50,0,119
2,note_on,57,30,1
2,note_on,57,0,120
2,note_on,50,35,0
2,note_on,50,0,119
2,note_on,57,30,1
2,note_on,57,0,120
2,note_on,50,36,0
2,note_on,50,0,119
2,note_on,57,29,1
2,note_on,57,0,120
2,note_on,50,36,0
2,note_on,50,0,119
2,note_on,57,31,1
2,note_on,57,0,120
2,note_on,50,36,0
2,note_on,50,0,119
2,note_on,59,31,1
2,note_on,59,0,120
2,note_on,50,36,0
2,note_on,50,0,119
2,note_on,59,29,1
2,note_on,59,0,120
2,note_on,48,30,0
2,note_on,52,37,0
2,note_on,57,29,120
2,note_on,52,0,60
2,note_on,48,0,0
2,note_on,57,0,60
2,note_on,48,30,0
2,note_on,52,37,0
2,note_on,57,29,120
2,note_on,52,0,60
2,note_on,48,0,0
2,note_on,57,0,60
2,note_on,48,30,0
2,note_on,52,37,0
2,note_on,57,29,120
2,note_on,52,0,60
2,note_on,48,0,0
2,note_on,57,0,60
2,note_on,48,30,0
2,note_on,52,37,0
2,note_on,57,29,120
2,note_on,52,0,60
2,note_on,48,0,0
2,note_on,57,0,60
2,note_on,48,30,0
2,note_on,52,37,0
2,note_on,57,29,120
2,note_on,52,0,60
2,note_on,48,0,0
2,note_on,57,0,60
2,note_on,48,30,0
2,note_on,52,37,0
2,note_on,57,29,120
2,note_on,52,0,60
2,note_on,48,0,0
2,note_on,57,0,60
2,note_on,48,30,0
2,note_on,52,37,0
2,note_on,57,29,120
2,note_on,52,0,60
2,note_on,48,0,0
2,note_on,57,0,60
2,note_on,48,30,0
2,note_on,52,37,0
2,note_on,57,29,120
2,note_on,52,0,60
2,note_on,48,0,0
2,note_on,57,0,60
2,note_on,48,30,0
2,note_on,52,37,0
2,note_on,57,29,120
2,note_on,52,0,60
2,note_on,48,0,0
2,note_on,57,0,60
2,note_on,48,30,0
2,note_on,52,37,0
2,note_on,57,29,120
2,note_on,52,0,60
2,note_on,48,0,0
2,note_on,57,0,60
2,note_on,48,30,0
2,note_on,52,37,0
2,note_on,57,29,120
2,note_on,52,0,60
2,note_on,48,0,0
2,note_on,57,0,60
2,note_on,48,30,0
2,note_on,52,39,0
2,note_on,57,31,120
2,note_on,52,0,60
2,note_on,48,0,0
2,note_on,57,0,60
2,note_on,48,32,0
2,note_on,52,39,0
2,note_on,57,31,120
2,note_on,52,0,60
2,note_on,48,0,0
2,note_on,57,0,60
2,note_on,48,32,0
2,note_on,52,41,0
2,note_on,57,31,120
2,note_on,52,0,60
2,note_on,48,0,0
2,note_on,57,0,60
2,note_on,48,33,0
2,note_on,52,41,0
2,note_on,57,33,120
2,note_on,52,0,60
2,note_on,48,0,0
2,note_on,57,0,60
2,note_on,48,35,0
2,note_on,52,42,0
2,note_on,57,33,120
2,note_on,52,0,60
2,note_on,48,0,0
2,note_on,57,0,60
2,note_on,48,37,0
2,note_on,52,45,0
2,note_on,58,36,120
2,note_on,52,0,60
2,note_on,48,0,0
2,note_on,58,0,60
2,note_on,48,38,0
2,note_on,52,45,0
2,note_on,58,37,120
2,note_on,52,0,60
2,note_on,48,0,0
2,note_on,58,0,60
2,note_on,48,39,0
2,note_on,52,47,0
2,note_on,58,38,120
2,note_on,52,0,60
2,note_on,48,0,0
2,note_on,58,0,60
2,note_on,48,39,0
2,note_on,52,47,0
2,note_on,58,38,120
2,note_on,52,0,60
2,note_on,48,0,0
2,note_on,58,0,60
2,note_on,48,41,0
2,note_on,52,50,0
2,note_on,58,40,120
2,note_on,52,0,60
2,note_on,48,0,0
2,note_on,58,0,60
2,note_on,48,41,0
2,note_on,52,51,0
2,note_on,58,40,120
2,note_on,52,0,60
2,note_on,48,0,0
2,note_on,58,0,60
2,note_on,48,42,0
2,note_on,52,51,0
2,note_on,58,42,120
2,note_on,52,0,60
2,note_on,48,0,0
2,note_on,58,0,60
2,note_on,48,43,0
2,note_on,52,53,0
2,note_on,58,42,120
2,note_on,52,0,60
2,note_on,48,0,0
2,note_on,58,0,60
2,note_on,47,40,0
2,note_on,51,35,120
2,note_on,47,0,20
2,note_on,54,35,100
2,note_on,51,0,20
2,note_on,59,35,100
2,note_on,54,0,20
2,note_on,59,0,100
2,note_on,47,41,0
2,note_on,51,35,120
2,note_on,47,0,20
2,note_on,54,35,100
2,note_on,51,0,20
2,note_on,59,35,100
2,note_on,54,0,20
2,note_on,59,0,100
2,note_on,47,39,0
2,note_on,52,35,120
2,note_on,47,0,20
2,note_on,55,35,100
2,note_on,52,0,20
2,note_on,59,35,100
2,note_on,55,0,20
2,note_on,59,0,100
2,note_on,47,40,0
2,note_on,52,35,120
2,note_on,47,0,20
2,note_on,55,35,100
2,note_on,52,0,20
2,note_on,59,35,100
2,note_on,55,0,20
2,note_on,59,0,100
2,note_on,47,40,0
2,note_on,54,35,120
2,note_on,47,0,20
2,note_on,57,35,100
2,note_on,54,0,20
2,note_on,59,35,100
2,note_on,57,0,20
2,note_on,59,0,100
2,note_on,47,40,0
2,note_on,54,35,120
2,note_on,47,0,20
2,note_on,57,35,100
2,note_on,54,0,20
2,note_on,59,35,100
2,note_on,57,0,20
2,note_on,59,0,100
2,note_on,47,40,0
2,note_on,52,35,120
2,note_on,47,0,20
2,note_on,55,35,100
2,note_on,52,0,20
2,note_on,59,35,100
2,note_on,55,0,20
2,note_on,59,0,100
2,note_on,47,40,0
2,note_on,52,35,120
2,note_on,47,0,20
2,note_on,55,35,100
2,note_on,52,0,20
2,note_on,59,35,100
2,note_on,55,0,20
2,note_on,59,0,100
2,note_on,47,40,0
2,note_on,51,35,120
2,note_on,47,0,20
2,note_on,54,35,100
2,note_on,51,0,20
2,note_on,59,35,100
2,note_on,54,0,20
2,note_on,59,0,100
2,note_on,47,40,0
2,note_on,51,35,120
2,note_on,47,0,20
2,note_on,54,35,100
2,note_on,51,0,20
2,note_on,59,35,100
2,note_on,54,0,20
2,note_on,59,0,100
2,note_on,47,40,0
2,note_on,52,35,120
2,note_on,47,0,20
2,note_on,55,35,100
2,note_on,52,0,20
2,note_on,59,35,100
2,note_on,55,0,20
2,note_on,59,0,100
2,note_on,47,41,0
2,note_on,52,35,120
2,note_on,47,0,20
2,note_on,55,35,100
2,note_on,52,0,20
2,note_on,59,35,100
2,note_on,55,0,20
2,note_on,59,0,100
2,note_on,47,40,0
2,note_on,54,35,120
2,note_on,47,0,20
2,note_on,57,35,100
2,note_on,54,0,20
2,note_on,59,35,100
2,note_on,57,0,20
2,note_on,59,0,100
2,note_on,47,40,0
2,note_on,54,36,120
2,note_on,47,0,20
2,note_on,57,36,100
2,note_on,54,0,20
2,note_on,59,36,100
2,note_on,57,0,20
2,note_on,59,0,100
2,note_on,47,42,0
2,note_on,52,36,120
2,note_on,47,0,20
2,note_on,55,37,100
2,note_on,52,0,20
2,note_on,59,37,100
2,note_on,55,0,20
2,note_on,59,0,100
2,note_on,47,42,0
2,note_on,52,37,120
2,note_on,47,0,20
2,note_on,55,37,100
2,note_on,52,0,20
2,note_on,59,38,100
2,note_on,55,0,20
2,note_on,59,0,100
2,note_on,47,44,0
2,note_on,47,0,120
2,note_on,51,38,0
2,note_on,51,0,120
2,note_on,54,38,0
2,note_on,54,0,120
2,note_on,59,38,0
2,note_on,59,0,120
2,note_on,58,50,0
2,note_on,58,0,120
2,note_on,59,41,0
2,note_on,59,0,120
2,note_on,55,40,0
2,note_on,55,0,120
2,note_on,52,41,0
2,note_on,52,0,120
2,note_on,47,52,0
2,note_on,47,0,120
2,note_on,51,44,0
2,note_on,51,0,120
2,note_on,54,45,0
2,note_on,54,0,120
2,note_on,59,45,0
2,note_on,59,0,120
2,note_on,58,60,0
2,note_on,58,0,120
2,note_on,59,51,0
2,note_on,59,0,120
2,note_on,55,51,0
2,note_on,55,0,120
2,note_on,52,52,0
2,note_on,52,0,120
2,note_on,47,63,0
2,note_on,47,0,120
2,note_on,51,52,0
2,note_on,51,0,120
2,note_on,54,52,0
2,note_on,54,0,120
2,note_on,59,52,0
2,note_on,59,0,120
2,note_on,47,63,0
2,note_on,47,0,120
2,note_on,52,52,0
2,note_on,52,0,120
2,note_on,55,52,0
2,note_on,55,0,120
2,note_on,59,52,0
2,note_on,59,0,120
2,note_on,47,63,0
2,note_on,47,0,120
2,note_on,51,52,0
2,note_on,51,0,120
2,note_on,54,52,0
2,note_on,54,0,120
2,note_on,59,52,0
2,note_on,59,0,120
2,note_on,47,63,0
2,note_on,47,0,120
2,note_on,52,52,0
2,note_on,52,0,120
2,note_on,55,52,0
2,note_on,55,0,120
2,note_on,59,52,0
2,note_on,59,0,120
2,note_on,47,54,0
2,note_on,51,54,0
2,note_on,54,54,0
2,note_on,59,63,0
2,note_on,59,0,480
2,note_on,47,0,0
2,note_on,51,0,0
2,note_on,54,0,0
2,note_on,35,85,2880
2,note_on,35,0,120
2,note_on,39,76,0
2,note_on,39,0,120
2,note_on,42,76,0
2,note_on,42,0,120
2,note_on,47,75,0
2,note_on,47,0,120
2,note_on,35,77,0
2,note_on,35,0,120
2,note_on,47,68,120
2,note_on,47,0,120
2,note_on,37,73,120
2,note_on,37,0,120
2,note_on,49,66,120
2,note_on,49,0,120
2,note_on,39,71,120
2,note_on,39,0,120
2,note_on,51,65,120
2,note_on,51,0,120
2,note_on,39,69,600
2,note_on,39,0,120
2,note_on,51,61,120
2,note_on,51,0,120
2,note_on,40,65,120
2,note_on,40,0,120
2,note_on,52,59,120
2,note_on,52,0,120
2,note_on,42,65,120
2,note_on,42,0,120
2,note_on,54,54,120
2,note_on,54,0,120
2,note_on,42,41,1560
2,note_on,42,0,120
2,note_on,54,36,120
2,note_on,54,0,120
2,note_on,44,41,120
2,note_on,44,0,120
2,note_on,56,36,120
2,note_on,56,0,120
2,note_on,45,40,120
2,note_on,45,0,120
2,note_on,57,37,120
2,note_on,57,0,120
2,note_on,47,39,120
2,note_on,47,0,120
2,note_on,59,36,120
2,note_on,59,0,120
2,note_on,49,38,120
2,note_on,49,0,120
2,note_on,61,37,120
2,note_on,61,0,120
2,note_on,51,40,120
2,note_on,51,0,120
2,note_on,63,37,120
2,note_on,63,0,120
2,note_on,68,39,120
2,note_on,64,33,0
2,note_on,64,0,960
2,note_on,68,0,0
2,note_on,66,35,0
2,note_on,63,29,0
2,note_on,59,29,0
2,note_on,59,0,480
2,note_on,63,0,0
2,note_on,66,0,0
2,note_on,64,35,0
2,note_on,61,29,0
2,note_on,61,0,480
2,note_on,64,0,0
2,note_on,63,39,0
2,note_on,60,33,0
2,note_on,56,33,0
2,note_on,56,0,960
2,note_on,60,0,0
2,note_on,63,0,0
2,note_on,61,34,0
2,note_on,57,28,0
2,note_on,57,0,960
2,note_on,61,0,0
2,note_on,54,37,0
2,note_on,57,45,0
2,note_on,59,37,0
2,note_on,63,45,0
2,note_on,63,0,960
2,note_on,54,0,0
2,note_on,57,0,0
2,note_on,59,0,0
2,note_on,56,40,0
2,note_on,59,40,0
2,note_on,64,49,0
2,note_on,64,0,480
2,note_on,59,0,0
2,note_on,56,0,0
2,note_on,66,51,0
2,note_on,57,46,0
2,note_on,61,42,0
2,note_on,61,0,480
2,note_on,57,0,0
2,note_on,66,0,0
2,note_on,59,49,0
2,note_on,64,49,0
2,note_on,68,59,0
2,note_on,68,0,960
2,note_on,64,0,0
2,note_on,63,27,0
2,note_on,66,32,0
2,note_on,59,0,958
2,note_on,66,0,2
2,note_on,63,0,0
2,note_on,56,35,0
2,note_on,52,29,0
2,note_on,52,0,960
2,note_on,56,0,0
2,note_on,54,31,0
2,note_on,51,26,0
2,note_on,47,26,0
2,note_on,47,0,480
2,note_on,51,0,0
2,note_on,54,0,0
2,note_on,52,31,0
2,note_on,49,26,0
2,note_on,49,0,480
2,note_on,52,0,0
2,note_on,51,35,0
2,note_on,48,29,0
2,note_on,44,29,0
2,note_on,44,0,960
2,note_on,48,0,0
2,note_on,51,0,0
2,note_on,49,30,0
2,note_on,45,25,0
2,note_on,45,0,960
2,note_on,49,0,0
2,note_on,35,33,0
2,note_on,47,40,0
2,note_on,47,0,1920
2,note_on,35,0,0
2,note_on,40,38,0
2,note_on,52,43,0
2,note_on,52,0,480
2,note_on,40,0,0
2,note_on,68,44,1440
2,note_on,64,37,0
2,note_on,64,0,960
2,note_on,68,0,0
2,note_on,66,40,0
2,note_on,63,33,0
2,note_on,59,33,0
2,note_on,59,0,480
2,note_on,63,0,0
2,note_on,66,0,0
2,note_on,64,40,0
2,note_on,61,33,0
2,note_on,61,0,480
2,note_on,64,0,0
2,note_on,63,44,0
2,note_on,60,37,0
2,note_on,56,37,0
2,note_on,56,0,960
2,note_on,60,0,0
2,note_on,63,0,0
2,note_on,61,39,0
2,note_on,57,32,0
2,note_on,57,0,960
2,note_on,61,0,0
2,note_on,54,39,0
2,note_on,57,47,0
2,note_on,59,39,0
2,note_on,63,47,0
2,note_on,63,0,960
2,note_on,54,0,0
2,note_on,57,0,0
2,note_on,59,0,0
2,note_on,56,45,0
2,note_on,59,45,0
2,note_on,64,53,0
2,note_on,64,0,480
2,note_on,59,0,0
2,note_on,56,0,0
2,note_on,66,59,0
2,note_on,57,49,0
2,note_on,61,49,0
2,note_on,61,0,480
2,note_on,57,0,0
2,note_on,66,0,0
2,note_on,59,53,0
2,note_on,64,53,0
2,note_on,68,65,0
2,note_on,68,0,960
2,note_on,64,0,0
2,note_on,63,45,0
2,note_on,66,53,0
2,note_on,66,0,480
2,note_on,63,0,0
2,note_on,47,44,0
2,note_on,47,0,160
2,note_on,49,43,0
2,note_on,49,0,160
2,note_on,51,41,0
2,note_on,59,0,158
2,note_on,51,0,2
2,note_on,56,45,0
2,note_on,52,37,0
2,note_on,52,0,960
2,note_on,56,0,0
2,note_on,54,41,0
2,note_on,51,33,0
2,note_on,47,33,0
2,note_on,47,0,480
2,note_on,51,0,0
2,note_on,54,0,0
2,note_on,52,41,0
2,note_on,49,33,0
2,note_on,49,0,480
2,note_on,52,0,0
2,note_on,51,37,0
2,note_on,54,49,0
2,note_on,48,37,0
2,note_on,44,37,0
2,note_on,44,0,960
2,note_on,51,0,0
2,note_on,54,0,0
2,note_on,48,0,0
2,note_on,45,39,0
2,note_on,49,39,0
2,note_on,52,32,0
2,note_on,52,0,960
2,note_on,49,0,0
2,note_on,45,0,0
2,note_on,35,46,0
2,note_on,47,55,0
2,note_on,47,0,1920
2,note_on,35,0,0
2,note_on,40,50,0
2,note_on,52,60,0
2,note_on,52,0,480
2,note_on,40,0,0
2,note_on,47,76,0
2,note_on,47,0,960
2,note_on,47,76,0
2,note_on,47,0,960
2,note_on,47,75,0
2,note_on,47,0,960
2,note_on,47,74,0
2,note_on,47,0,480
2,note_on,52,73,0
2,note_on,52,0,160
2,note_on,47,67,0
2,note_on,47,0,160
2,note_on,44,69,0
2,note_on,44,0,160
2,note_on,47,73,0
2,note_on,47,0,160
2,note_on,52,69,0
2,note_on,52,0,160
2,note_on,56,69,0
2,note_on,56,0,160
2,note_on,54,73,0
2,note_on,54,0,160
2,note_on,51,69,0
2,note_on,51,0,160
2,note_on,47,69,0
2,note_on,47,0,160
2,note_on,51,73,0
2,note_on,51,0,160
2,note_on,54,69,0
2,note_on,54,0,160
2,note_on,57,69,0
2,note_on,57,0,160
2,note_on,56,73,0
2,note_on,56,0,160
2,note_on,52,67,0
2,note_on,52,0,160
2,note_on,47,69,0
2,note_on,47,0,160
2,note_on,52,73,0
2,note_on,52,0,160
2,note_on,56,69,0
2,note_on,56,0,160
2,note_on,59,69,0
2,note_on,59,0,160
2,note_on,57,73,0
2,note_on,57,0,160
2,note_on,54,69,0
2,note_on,54,0,160
2,note_on,51,69,0
2,note_on,51,0,160
2,note_on,63,73,0
2,note_on,63,0,160
2,note_on,57,69,0
2,note_on,57,0,160
2,note_on,54,69,0
2,note_on,54,0,160
2,note_on,56,64,0
2,note_on,56,0,160
2,note_on,59,56,0
2,note_on,59,0,160
2,note_on,64,56,0
2,note_on,64,0,160
2,note_on,59,64,0
2,note_on,59,0,160
2,note_on,56,57,0
2,note_on,56,0,160
2,note_on,52,57,0
2,note_on,52,0,160
2,note_on,51,64,0
2,note_on,51,0,160
2,note_on,54,56,0
2,note_on,54,0,160
2,note_on,57,56,0
2,note_on,57,0,160
2,note_on,54,64,0
2,note_on,54,0,160
2,note_on,51,57,0
2,note_on,51,0,160
2,note_on,47,58,0
2,note_on,47,0,160
2,note_on,52,64,6
2,note_on,56,56,154
2,note_on,52,0,6
2,note_on,56,0,154
2,note_on,59,56,0
2,note_on,59,0,160
2,note_on,56,64,0
2,note_on,56,0,160
2,note_on,52,57,0
2,note_on,52,0,160
2,note_on,47,57,6
2,note_on,51,64,154
2,note_on,47,0,6
2,note_on,51,0,154
2,note_on,57,56,0
2,note_on,57,0,160
2,note_on,59,56,6
2,note_on,57,64,154
2,note_on,59,0,6
2,note_on,57,0,154
2,note_on,59,57,0
2,note_on,59,0,160
2,note_on,66,58,0
2,note_on,66,0,160
2,note_on,56,64,0
2,note_on,56,0,160
2,note_on,59,55,0
2,note_on,59,0,160
2,note_on,64,55,0
2,note_on,64,0,160
2,note_on,52,62,0
2,note_on,52,0,160
2,note_on,56,55,0
2,note_on,56,0,160
2,note_on,59,54,0
2,note_on,59,0,160
2,note_on,54,59,0
2,note_on,54,0,160
2,note_on,57,51,0
2,note_on,57,0,160
2,note_on,59,51,0
2,note_on,59,0,160
2,note_on,57,57,0
2,note_on,57,0,160
2,note_on,59,51,0
2,note_on,59,0,160
2,note_on,66,51,0
2,note_on,66,0,160
2,note_on,56,56,0
2,note_on,56,0,160
2,note_on,59,48,0
2,note_on,59,0,160
2,note_on,64,48,0
2,note_on,64,0,160
2,note_on,52,54,0
2,note_on,52,0,160
2,note_on,56,48,0
2,note_on,56,0,160
2,note_on,59,47,0
2,note_on,59,0,160
2,note_on,54,51,0
2,note_on,54,0,160
2,note_on,57,44,0
2,note_on,57,0,160
2,note_on,59,44,0
2,note_on,59,0,160
2,note_on,57,50,0
2,note_on,57,0,160
2,note_on,59,44,0
2,note_on,59,0,160
2,note_on,66,44,0
2,note_on,66,0,160
2,note_on,56,50,0
2,note_on,56,0,120
2,note_on,59,43,0
2,note_on,59,0,120
2,note_on,52,43,0
2,note_on,52,0,120
2,note_on,59,44,0
2,note_on,59,0,120
2,note_on,54,51,0
2,note_on,54,0,120
2,note_on,59,44,0
2,note_on,59,0,120
2,note_on,57,44,0
2,note_on,57,0,120
2,note_on,59,44,0
2,note_on,59,0,120
2,note_on,56,52,0
2,note_on,56,0,120
2,note_on,59,46,0
2,note_on,59,0,120
2,note_on,52,47,0
2,note_on,52,0,120
2,note_on,59,49,0
2,note_on,59,0,120
2,note_on,54,55,0
2,note_on,54,0,120
2,note_on,59,48,0
2,note_on,59,0,120
2,note_on,57,48,0
2,note_on,57,0,120
2,note_on,59,49,0
2,note_on,59,0,120
2,note_on,56,58,0
2,note_on,56,0,120
2,note_on,59,50,0
2,note_on,59,0,120
2,note_on,57,51,0
2,note_on,57,0,120
2,note_on,59,52,0
2,note_on,59,0,120
2,note_on,56,60,0
2,note_on,56,0,120
2,note_on,59,52,0
2,note_on,59,0,120
2,note_on,57,52,0
2,note_on,57,0,120
2,note_on,59,54,0
2,note_on,59,0,120
2,note_on,56,62,0
2,note_on,56,0,120
2,note_on,59,55,0
2,note_on,59,0,120
2,note_on,57,55,0
2,note_on,57,0,120
2,note_on,59,57,0
2,note_on,59,0,120
2,note_on,56,65,0
2,note_on,56,0,120
2,note_on,59,57,0
2,note_on,59,0,120
2,note_on,57,57,0
2,note_on,57,0,120
2,note_on,59,58,0
2,note_on,59,0,120
2,note_on,56,70,0
2,note_on,56,0,120
2,note_on,59,60,0
2,note_on,59,0,120
2,note_on,44,60,0
2,note_on,44,0,120
2,note_on,52,62,0
2,note_on,52,0,120
2,note_on,44,70,0
2,note_on,44,0,120
2,note_on,52,60,0
2,note_on,52,0,120
2,note_on,44,60,0
2,note_on,44,0,120
2,note_on,52,60,0
2,note_on,52,0,120
2,note_on,44,70,0
2,note_on,44,0,120
2,note_on,52,60,0
2,note_on,52,0,120
2,note_on,44,60,0
2,note_on,44,0,120
2,note_on,52,62,0
2,note_on,52,0,120
2,note_on,44,70,0
2,note_on,44,0,120
2,note_on,52,60,0
2,note_on,52,0,120
2,note_on,44,60,0
2,note_on,44,0,120
2,note_on,52,60,0
2,note_on,52,0,120
2,note_on,44,70,0
2,note_on,44,0,120
2,note_on,52,60,0
2,note_on,52,0,120
2,note_on,44,60,0
2,note_on,44,0,120
2,note_on,52,62,0
2,note_on,52,0,120
2,note_on,44,70,0
2,note_on,44,0,120
2,note_on,52,60,0
2,note_on,52,0,120
2,note_on,44,60,0
2,note_on,44,0,120
2,note_on,52,61,0
2,note_on,52,0,120
2,note_on,44,71,0
2,note_on,44,0,120
2,note_on,52,61,0
2,note_on,52,0,120
2,note_on,44,61,0
2,note_on,44,0,120
2,note_on,52,63,0
2,note_on,52,0,120
2,note_on,44,72,0
2,note_on,44,0,120
2,note_on,52,62,0
2,note_on,52,0,120
2,note_on,44,62,0
2,note_on,44,0,120
2,note_on,52,62,0
2,note_on,52,0,120
2,note_on,45,67,0
2,note_on,49,67,0
2,note_on,52,80,0
2,note_on,52,0,180
2,note_on,49,0,0
2,note_on,45,0,0
2,note_on,45,60,60
2,note_on,49,60,0
2,note_on,52,73,0
2,note_on,52,0,180
2,note_on,49,0,0
2,note_on,45,0,0
2,note_on,45,60,300
2,note_on,49,60,0
2,note_on,52,73,0
2,note_on,52,0,180
2,note_on,49,0,0
2,note_on,45,0,0
2,note_on,45,67,60
2,note_on,49,67,0
2,note_on,52,80,0
2,note_on,52,0,180
2,note_on,49,0,0
2,note_on,45,0,0
2,note_on,45,60,60
2,note_on,49,60,0
2,note_on,52,73,0
2,note_on,52,0,180
2,note_on,49,0,0
2,note_on,45,0,0
2,note_on,45,60,300
2,note_on,49,60,0
2,note_on,52,73,0
2,note_on,52,0,180
2,note_on,49,0,0
2,note_on,45,0,0
2,note_on,45,67,60
2,note_on,49,67,0
2,note_on,52,78,0
2,note_on,52,0,180
2,note_on,49,0,0
2,note_on,45,0,0
2,note_on,45,60,60
2,note_on,49,60,0
2,note_on,52,73,0
2,note_on,52,0,180
2,note_on,49,0,0
2,note_on,45,0,0
2,note_on,45,60,300
2,note_on,49,60,0
2,note_on,52,73,0
2,note_on,52,0,180
2,note_on,49,0,0
2,note_on,45,0,0
2,note_on,45,67,60
2,note_on,49,67,0
2,note_on,52,78,0
2,note_on,52,0,180
2,note_on,49,0,0
2,note_on,45,0,0
2,note_on,45,60,60
2,note_on,49,60,0
2,note_on,52,73,0
2,note_on,52,0,180
2,note_on,49,0,0
2,note_on,45,0,0
2,note_on,45,60,300
2,note_on,49,60,0
2,note_on,52,73,0
2,note_on,52,0,180
2,note_on,49,0,0
2,note_on,45,0,0
2,note_on,52,67,60
2,note_on,46,67,0
2,note_on,49,67,0
2,note_on,54,78,0
2,note_on,54,0,180
2,note_on,52,0,0
2,note_on,46,0,0
2,note_on,49,0,0
2,note_on,52,60,60
2,note_on,46,60,0
2,note_on,49,60,0
2,note_on,54,73,0
2,note_on,54,0,180
2,note_on,52,0,0
2,note_on,46,0,0
2,note_on,49,0,0
2,note_on,52,60,300
2,note_on,46,60,0
2,note_on,49,60,0
2,note_on,54,73,0
2,note_on,54,0,180
2,note_on,52,0,0
2,note_on,46,0,0
2,note_on,49,0,0
2,note_on,52,67,60
2,note_on,46,67,0
2,note_on,49,67,0
2,note_on,54,78,0
2,note_on,54,0,180
2,note_on,52,0,0
2,note_on,46,0,0
2,note_on,49,0,0
2,note_on,52,60,60
2,note_on,46,60,0
2,note_on,49,60,0
2,note_on,54,73,0
2,note_on,54,0,180
2,note_on,52,0,0
2,note_on,46,0,0
2,note_on,49,0,0
2,note_on,52,60,300
2,note_on,46,60,0
2,note_on,49,60,0
2,note_on,54,73,0
2,note_on,54,0,180
2,note_on,52,0,0
2,note_on,46,0,0
2,note_on,49,0,0
2,note_on,52,67,60
2,note_on,46,67,0
2,note_on,49,67,0
2,note_on,54,78,0
2,note_on,54,0,180
2,note_on,52,0,0
2,note_on,46,0,0
2,note_on,49,0,0
2,note_on,52,60,60
2,note_on,46,60,0
2,note_on,49,60,0
2,note_on,54,73,0
2,note_on,54,0,180
2,note_on,52,0,0
2,note_on,46,0,0
2,note_on,49,0,0
2,note_on,52,60,300
2,note_on,46,60,0
2,note_on,49,60,0
2,note_on,54,73,0
2,note_on,54,0,180
2,note_on,52,0,0
2,note_on,46,0,0
2,note_on,49,0,0
2,note_on,52,67,60
2,note_on,46,67,0
2,note_on,49,67,0
2,note_on,54,78,0
2,note_on,54,0,180
2,note_on,52,0,0
2,note_on,46,0,0
2,note_on,49,0,0
2,note_on,52,60,60
2,note_on,46,60,0
2,note_on,49,60,0
2,note_on,54,73,0
2,note_on,54,0,180
2,note_on,52,0,0
2,note_on,46,0,0
2,note_on,49,0,0
2,note_on,52,60,300
2,note_on,46,60,0
2,note_on,49,60,0
2,note_on,54,73,0
2,note_on,54,0,180
2,note_on,52,0,0
2,note_on,46,0,0
2,note_on,49,0,0
2,note_on,47,78,60
2,note_on,47,0,120
2,note_on,52,70,0
2,note_on,52,0,120
2,note_on,56,70,0
2,note_on,56,0,120
2,note_on,59,70,0
2,note_on,59,0,120
2,note_on,47,77,0
2,note_on,47,0,120
2,note_on,52,70,0
2,note_on,52,0,120
2,note_on,56,70,0
2,note_on,56,0,120
2,note_on,59,70,0
2,note_on,59,0,120
2,note_on,47,75,0
2,note_on,47,0,120
2,note_on,52,70,0
2,note_on,52,0,120
2,note_on,56,70,0
2,note_on,56,0,120
2,note_on,59,70,0
2,note_on,59,0,120
2,note_on,47,75,0
2,note_on,47,0,120
2,note_on,52,70,0
2,note_on,52,0,120
2,note_on,56,70,0
2,note_on,56,0,120
2,note_on,59,70,0
2,note_on,59,0,120
2,note_on,47,78,0
2,note_on,47,0,120
2,note_on,52,70,0
2,note_on,52,0,120
2,note_on,56,70,0
2,note_on,56,0,120
2,note_on,59,70,0
2,note_on,59,0,120
2,note_on,47,77,0
2,note_on,47,0,120
2,note_on,52,70,0
2,note_on,52,0,120
2,note_on,56,70,0
2,note_on,56,0,120
2,note_on,59,70,0
2,note_on,59,0,120
2,note_on,56,75,0
2,note_on,56,0,120
2,note_on,56,70,120
2,note_on,56,0,120
2,note_on,52,75,120
2,note_on,52,0,120
2,note_on,47,70,120
2,note_on,47,0,120
2,note_on,59,86,120
2,note_on,59,0,120
2,note_on,56,47,120
2,note_on,56,0,120
2,note_on,64,53,120
2,note_on,64,0,120
2,note_on,59,48,120
2,note_on,59,0,120
2,note_on,68,52,120
2,note_on,68,0,120
2,note_on,64,41,120
2,note_on,64,0,120
2,note_on,71,50,120
2,note_on,71,0,120
2,note_on,68,41,120
2,note_on,68,0,120
2,note_on,76,50,120
2,note_on,76,0,120
2,note_on,71,41,120
2,note_on,71,0,120
2,note_on,76,50,120
2,note_on,76,0,120
2,note_on,71,39,120
2,note_on,71,0,120
2,note_on,76,50,120
2,note_on,76,0,120
2,note_on,71,41,120
2,note_on,71,0,120
2,note_on,76,50,120
2,note_on,76,0,120
2,note_on,71,42,120
2,note_on,71,0,120
2,note_on,75,46,120
2,note_on,75,0,120
2,note_on,71,37,120
2,note_on,71,0,120
2,note_on,75,43,120
2,note_on,75,0,120
2,note_on,71,36,120
2,note_on,71,0,120
2,note_on,75,41,120
2,note_on,75,0,120
2,note_on,71,32,120
2,note_on,71,0,120
2,note_on,75,39,120
2,note_on,75,0,120
2,note_on,71,31,120
2,note_on,71,0,120
2,note_on,75,36,120
2,note_on,75,0,120
2,note_on,71,30,120
2,note_on,71,0,120
2,note_on,75,36,120
2,note_on,75,0,120
2,note_on,71,31,120
2,note_on,71,0,120
2,note_on,75,36,120
2,note_on,75,0,120
2,note_on,71,29,120
2,note_on,71,0,120
2,note_on,75,36,120
2,note_on,75,0,120
2,note_on,71,30,120
2,note_on,71,0,120
2,note_on,75,37,120
2,note_on,75,0,80
2,note_on,76,32,0
2,note_on,76,0,80
2,note_on,75,36,0
2,note_on,75,0,80
2,note_on,76,31,0
2,note_on,76,0,80
2,note_on,75,36,0
2,note_on,75,0,80
2,note_on,76,33,0
2,note_on,76,0,80
2,note_on,75,37,0
2,note_on,75,0,80
2,note_on,76,33,0
2,note_on,76,0,80
2,note_on,75,37,0
2,note_on,75,0,80
2,note_on,76,33,0
2,note_on,76,0,80
2,note_on,75,38,0
2,note_on,75,0,80
2,note_on,76,34,0
2,note_on,76,0,80
2,note_on,75,38,0
2,note_on,75,0,80
2,note_on,76,35,0
2,note_on,76,0,80
2,note_on,75,39,0
2,note_on,75,0,80
2,note_on,76,35,0
2,note_on,76,0,80
2,note_on,75,39,0
2,note_on,75,0,80
2,note_on,76,36,0
2,note_on,76,0,80
2,note_on,75,40,0
2,note_on,75,0,80
2,note_on,76,36,0
2,note_on,76,0,80
2,note_on,75,40,0
2,note_on,75,0,80
2,note_on,76,36,0
2,note_on,76,0,80
2,note_on,75,41,0
2,note_on,75,0,80
2,note_on,76,37,0
2,note_on,76,0,80
2,note_on,75,41,0
2,note_on,75,0,80
2,note_on,76,36,0
2,note_on,76,0,80
2,note_on,75,42,0
2,note_on,75,0,80
2,note_on,76,37,0
2,note_on,76,0,80
2,note_on,75,42,0
2,note_on,75,0,80
2,note_on,76,37,0
2,note_on,76,0,80
2,note_on,75,43,0
2,note_on,75,0,80
2,note_on,76,38,0
2,note_on,76,0,80
2,note_on,75,43,0
2,note_on,75,0,80
2,note_on,76,39,0
2,note_on,76,0,80
2,note_on,75,44,0
2,note_on,75,0,80
2,note_on,76,39,0
2,note_on,76,0,80
2,note_on,75,44,0
2,note_on,75,0,80
2,note_on,76,38,0
2,note_on,76,0,80
2,note_on,75,45,0
2,note_on,75,0,80
2,note_on,76,38,0
2,note_on,76,0,80
2,note_on,75,45,0
2,note_on,75,0,80
2,note_on,76,40,0
2,note_on,76,0,80
2,note_on,75,50,0
2,note_on,75,0,96
2,note_on,76,44,0
2,note_on,76,0,96
2,note_on,75,50,0
2,note_on,75,0,96
2,note_on,73,52,0
2,note_on,73,0,96
2,note_on,75,47,0
2,note_on,75,0,96
2,note_on,64,48,0
2,note_on,76,57,0
2,note_on,76,0,960
2,note_on,68,38,0
2,note_on,74,45,0
2,note_on,71,38,0
2,note_on,71,0,960
2,note_on,74,0,0
2,note_on,68,0,0
2,note_on,72,47,0
2,note_on,69,39,0
2,note_on,69,0,960
2,note_on,72,0,0
2,note_on,74,46,0
2,note_on,71,39,0
2,note_on,68,39,0
2,note_on,68,0,960
2,note_on,64,0,0
2,note_on,74,0,0
2,note_on,71,0,0
2,note_on,69,40,0
2,note_on,72,48,0
2,note_on,72,0,480
2,note_on,69,0,0
2,note_on,57,39,480
2,note_on,60,39,0
2,note_on,66,39,0
2,note_on,69,47,0
2,note_on,69,0,960
2,note_on,57,0,0
2,note_on,60,0,0
2,note_on,66,0,0
2,note_on,59,39,0
2,note_on,64,39,0
2,note_on,67,46,0
2,note_on,67,0,960
2,note_on,64,0,0
2,note_on,59,0,0
2,note_on,63,37,0
2,note_on,66,44,0
2,note_on,59,37,0
2,note_on,59,0,960
2,note_on,66,0,0
2,note_on,63,0,0
2,note_on,64,56,0
2,note_on,52,45,0
2,note_on,64,0,960
2,note_on,62,45,0
2,note_on,59,38,0
2,note_on,56,38,0
2,note_on,56,0,960
2,note_on,59,0,0
2,note_on,62,0,0
2,note_on,57,39,0
2,note_on,60,47,0
2,note_on,60,0,960
2,note_on,57,0,0
2,note_on,62,46,0
2,note_on,59,39,0
2,note_on,56,39,0
2,note_on,56,0,960
2,note_on,52,0,0
2,note_on,62,0,0
2,note_on,59,0,0
2,note_on,57,48,0
2,note_on,60,48,0
2,note_on,60,0,480
2,note_on,57,0,0
2,note_on,45,39,480
2,note_on,48,39,0
2,note_on,54,39,0
2,note_on,57,47,0
2,note_on,57,0,960
2,note_on,45,0,0
2,note_on,48,0,0
2,note_on,54,0,0
2,note_on,47,39,0
2,note_on,52,39,0
2,note_on,55,46,0
2,note_on,55,0,960
2,note_on,52,0,0
2,note_on,47,0,0
2,note_on,54,44,0
2,note_on,51,37,0
2,note_on,47,37,0
2,note_on,47,0,960
2,note_on,51,0,0
2,note_on,54,0,0
2,note_on,55,44,0
2,note_on,52,37,0
2,note_on,52,0,240
2,note_on,55,0,0
2,note_on,43,42,240
2,note_on,52,51,0
2,note_on,43,0,480
2,note_on,45,42,0
2,note_on,52,0,240
2,note_on,53,49,0
2,note_on,53,0,240
2,note_on,55,51,0
2,note_on,55,0,240
2,note_on,57,55,0
2,note_on,57,0,240
2,note_on,45,0,0
2,note_on,59,41,0
2,note_on,47,35,0
2,note_on,55,35,0
2,note_on,55,0,960
2,note_on,59,0,0
2,note_on,54,33,0
2,note_on,57,39,0
2,note_on,57,0,960
2,note_on,54,0,0
2,note_on,47,0,0
2,note_on,48,37,0
2,note_on,52,37,0
2,note_on,55,44,0
2,note_on,55,0,240
2,note_on,52,0,0
2,note_on,48,0,0
2,note_on,40,42,240
2,note_on,48,51,0
2,note_on,40,0,480
2,note_on,41,42,0
2,note_on,48,0,240
2,note_on,50,49,0
2,note_on,50,0,240
2,note_on,52,51,0
2,note_on,52,0,240
2,note_on,53,55,0
2,note_on,53,0,240
2,note_on,41,0,0
2,note_on,52,35,0
2,note_on,43,35,0
2,note_on,55,41,0
2,note_on,55,0,960
2,note_on,52,0,0
2,note_on,53,39,0
2,note_on,50,33,0
2,note_on,50,0,960
2,note_on,53,0,0
2,note_on,43,0,0
2,note_on,36,25,0
2,note_on,36,0,180
2,note_on,43,26,60
2,note_on,36,22,0
2,note_on,36,0,180
2,note_on,43,0,0
2,note_on,43,26,60
2,note_on,36,22,0
2,note_on,36,0,180
2,note_on,43,0,0
2,note_on,43,27,60
2,note_on,36,22,0
2,note_on,36,0,180
2,note_on,43,0,0
2,note_on,43,27,60
2,note_on,36,22,0
2,note_on,36,0,180
2,note_on,43,0,0
2,note_on,43,28,60
2,note_on,36,23,0
2,note_on,36,0,180
2,note_on,43,0,0
2,note_on,43,28,60
2,note_on,36,23,0
2,note_on,36,0,180
2,note_on,43,0,0
2,note_on,43,29,60
2,note_on,36,24,0
2,note_on,36,0,180
2,note_on,43,0,0
2,note_on,36,25,60
2,note_on,43,30,0
2,note_on,43,0,180
2,note_on,36,0,0
2,note_on,36,22,60
2,note_on,43,27,0
2,note_on,43,0,180
2,note_on,36,0,0
2,note_on,36,23,60
2,note_on,43,28,0
2,note_on,43,0,180
2,note_on,36,0,0
2,note_on,36,24,60
2,note_on,43,29,0
2,note_on,43,0,180
2,note_on,36,0,0
2,note_on,36,25,60
2,note_on,43,30,0
2,note_on,43,0,180
2,note_on,36,0,0
2,note_on,36,25,60
2,note_on,43,30,0
2,note_on,43,0,180
2,note_on,36,0,0
2,note_on,36,25,60
2,note_on,45,30,0
2,note_on,45,0,180
2,note_on,36,0,0
2,note_on,36,25,60
2,note_on,45,30,0
2,note_on,45,0,180
2,note_on,36,0,0
2,note_on,35,25,60
2,note_on,43,30,0
2,note_on,43,0,180
2,note_on,35,0,0
2,note_on,35,25,60
2,note_on,43,30,0
2,note_on,43,0,180
2,note_on,35,0,0
2,note_on,35,25,60
2,note_on,43,30,0
2,note_on,43,0,180
2,note_on,35,0,0
2,note_on,35,25,60
2,note_on,43,30,0
2,note_on,43,0,180
2,note_on,35,0,0
2,note_on,35,25,60
2,note_on,43,30,0
2,note_on,43,0,180
2,note_on,35,0,0
2,note_on,35,25,60
2,note_on,43,30,0
2,note_on,43,0,180
2,note_on,35,0,0
2,note_on,35,25,60
2,note_on,43,30,0
2,note_on,43,0,180
2,note_on,35,0,0
2,note_on,35,25,60
2,note_on,43,30,0
2,note_on,43,0,180
2,note_on,35,0,0
2,note_on,35,25,60
2,note_on,43,30,0
2,note_on,43,0,180
2,note_on,35,0,0
2,note_on,35,25,60
2,note_on,43,30,0
2,note_on,43,0,180
2,note_on,35,0,0
2,note_on,35,25,60
2,note_on,43,30,0
2,note_on,43,0,180
2,note_on,35,0,0
2,note_on,35,25,60
2,note_on,43,30,0
2,note_on,43,0,180
2,note_on,35,0,0
2,note_on,35,25,60
2,note_on,43,30,0
2,note_on,43,0,180
2,note_on,35,0,0
2,note_on,35,25,60
2,note_on,43,30,0
2,note_on,43,0,180
2,note_on,35,0,0
2,note_on,35,25,60
2,note_on,43,30,0
2,note_on,43,0,180
2,note_on,35,0,0
2,note_on,35,25,60
2,note_on,43,30,0
2,note_on,43,0,180
2,note_on,35,0,0
2,note_on,41,30,60
2,note_on,34,26,0
2,note_on,34,0,180
2,note_on,41,0,0
2,note_on,41,30,60
2,note_on,34,25,0
2,note_on,34,0,180
2,note_on,41,0,0
2,note_on,41,30,60
2,note_on,34,25,0
2,note_on,34,0,180
2,note_on,41,0,0
2,note_on,41,31,60
2,note_on,34,26,0
2,note_on,34,0,180
2,note_on,41,0,0
2,note_on,41,31,60
2,note_on,34,26,0
2,note_on,34,0,180
2,note_on,41,0,0
2,note_on,41,31,60
2,note_on,34,26,0
2,note_on,34,0,180
2,note_on,41,0,0
2,note_on,41,31,60
2,note_on,34,26,0
2,note_on,34,0,180
2,note_on,41,0,0
2,note_on,41,31,60
2,note_on,34,26,0
2,note_on,34,0,180
2,note_on,41,0,0
2,note_on,34,26,60
2,note_on,41,31,0
2,note_on,41,0,180
2,note_on,34,0,0
2,note_on,34,26,60
2,note_on,41,31,0
2,note_on,41,0,180
2,note_on,34,0,0
2,note_on,34,26,60
2,note_on,41,31,0
2,note_on,41,0,180
2,note_on,34,0,0
2,note_on,34,26,60
2,note_on,41,31,0
2,note_on,41,0,180
2,note_on,34,0,0
2,note_on,34,26,60
2,note_on,41,31,0
2,note_on,41,0,180
2,note_on,34,0,0
2,note_on,34,25,60
2,note_on,41,30,0
2,note_on,41,0,180
2,note_on,34,0,0
2,note_on,34,25,60
2,note_on,43,30,0
2,note_on,43,0,180
2,note_on,34,0,0
2,note_on,34,25,60
2,note_on,43,30,0
2,note_on,43,0,180
2,note_on,34,0,0
2,note_on,33,25,60
2,note_on,41,30,0
2,note_on,41,0,180
2,note_on,33,0,0
2,note_on,33,25,60
2,note_on,41,30,0
2,note_on,41,0,180
2,note_on,33,0,0
2,note_on,33,25,60
2,note_on,41,30,0
2,note_on,41,0,180
2,note_on,33,0,0
2,note_on,33,25,60
2,note_on,41,30,0
2,note_on,41,0,180
2,note_on,33,0,0
2,note_on,33,25,60
2,note_on,41,30,0
2,note_on,41,0,180
2,note_on,33,0,0
2,note_on,33,25,60
2,note_on,41,30,0
2,note_on,41,0,180
2,note_on,33,0,0
2,note_on,33,25,60
2,note_on,41,30,0
2,note_on,41,0,180
2,note_on,33,0,0
2,note_on,33,25,60
2,note_on,41,30,0
2,note_on,41,0,180
2,note_on,33,0,0
2,note_on,32,25,60
2,note_on,41,30,0
2,note_on,41,0,180
2,note_on,32,0,0
2,note_on,32,25,60
2,note_on,41,30,0
2,note_on,41,0,180
2,note_on,32,0,0
2,note_on,32,25,60
2,note_on,41,30,0
2,note_on,41,0,180
2,note_on,32,0,0
2,note_on,32,25,60
2,note_on,41,30,0
2,note_on,41,0,180
2,note_on,32,0,0
2,note_on,32,25,60
2,note_on,41,30,0
2,note_on,41,0,180
2,note_on,32,0,0
2,note_on,32,25,60
2,note_on,41,30,0
2,note_on,41,0,180
2,note_on,32,0,0
2,note_on,32,25,60
2,note_on,41,30,0
2,note_on,41,0,180
2,note_on,32,0,0
2,note_on,32,25,60
2,note_on,41,30,0
2,note_on,41,0,180
2,note_on,32,0,0
2,note_on,31,30,60
2,note_on,41,36,0
2,note_on,41,0,180
2,note_on,31,0,0
2,note_on,31,32,60
2,note_on,41,38,0
2,note_on,41,0,180
2,note_on,31,0,0
2,note_on,31,33,60
2,note_on,41,39,0
2,note_on,41,0,180
2,note_on,31,0,0
2,note_on,31,34,60
2,note_on,41,41,0
2,note_on,41,0,180
2,note_on,31,0,0
2,note_on,31,36,60
2,note_on,41,43,0
2,note_on,41,0,180
2,note_on,31,0,0
2,note_on,31,38,60
2,note_on,41,45,0
2,note_on,41,0,180
2,note_on,31,0,0
2,note_on,32,39,60
2,note_on,41,46,0
2,note_on,41,0,180
2,note_on,32,0,0
2,note_on,32,40,60
2,note_on,41,48,0
2,note_on,41,0,180
2,note_on,32,0,0
2,note_on,31,44,60
2,note_on,41,52,0
2,note_on,41,0,180
2,note_on,31,0,0
2,note_on,31,44,60
2,note_on,41,52,0
2,note_on,41,0,180
2,note_on,31,0,0
2,note_on,32,45,60
2,note_on,41,55,0
2,note_on,41,0,180
2,note_on,32,0,0
2,note_on,32,46,60
2,note_on,41,55,0
2,note_on,41,0,180
2,note_on,32,0,0
2,note_on,31,48,60
2,note_on,41,58,0
2,note_on,41,0,180
2,note_on,31,0,0
2,note_on,31,51,60
2,note_on,41,60,0
2,note_on,41,0,180
2,note_on,31,0,0
2,note_on,32,54,60
2,note_on,41,64,0
2,note_on,41,0,180
2,note_on,32,0,0
2,note_on,32,56,60
2,note_on,41,66,0
2,note_on,41,0,180
2,note_on,32,0,0
2,note_on,31,70,60
2,note_on,41,85,0
2,note_on,41,0,480
2,note_on,31,0,0
2,note_on,43,81,0
2,note_on,55,96,0
2,note_on,55,0,1200
2,note_on,43,0,0
2,note_on,57,67,0
2,note_on,57,0,120
2,note_on,59,70,0
2,note_on,59,0,120
2,note_on,60,72,0
2,note_on,60,0,180
2,note_on,43,56,300
2,note_on,55,66,0
2,note_on,55,0,180
2,note_on,43,0,0
2,note_on,39,52,300
2,note_on,51,62,0
2,note_on,51,0,180
2,note_on,39,0,0
2,note_on,36,48,300
2,note_on,48,57,0
2,note_on,48,0,180
2,note_on,36,0,0
2,note_on,31,46,300
2,note_on,43,54,0
2,note_on,43,0,1920
2,note_on,31,0,0
2,note_on,36,30,0
2,note_on,48,30,0
2,note_on,48,0,240
2,note_on,48,31,0
2,note_on,48,0,119
2,note_on,55,26,1
2,note_on,55,0,120
2,note_on,48,31,0
2,note_on,48,0,119
2,note_on,55,27,1
2,note_on,55,0,120
2,note_on,48,31,0
2,note_on,48,0,119
2,note_on,55,27,1
2,note_on,55,0,120
2,note_on,48,31,0
2,note_on,48,0,119
2,note_on,55,26,1
2,note_on,55,0,120
2,note_on,48,31,0
2,note_on,48,0,119
2,note_on,55,27,1
2,note_on,55,0,120
2,note_on,48,31,0
2,note_on,48,0,119
2,note_on,55,27,1
2,note_on,55,0,120
2,note_on,48,31,0
2,note_on,48,0,119
2,note_on,55,25,1
2,note_on,55,0,120
2,note_on,36,0,0
2,note_on,48,31,0
2,note_on,48,0,119
2,note_on,55,26,1
2,note_on,55,0,120
2,note_on,48,31,0
2,note_on,48,0,119
2,note_on,55,26,1
2,note_on,55,0,120
2,note_on,48,31,0
2,note_on,48,0,119
2,note_on,55,27,1
2,note_on,55,0,120
2,note_on,48,31,0
2,note_on,48,0,119
2,note_on,55,27,1
2,note_on,55,0,120
2,note_on,48,31,0
2,note_on,48,0,119
2,note_on,55,26,1
2,note_on,55,0,120
2,note_on,48,31,0
2,note_on,48,0,119
2,note_on,55,27,1
2,note_on,55,0,120
2,note_on,48,31,0
2,note_on,48,0,119
2,note_on,57,27,1
2,note_on,57,0,120
2,note_on,48,31,0
2,note_on,48,0,119
2,note_on,57,25,1
2,note_on,57,0,120
2,note_on,47,26,0
2,note_on,50,31,0
2,note_on,55,25,120
2,note_on,50,0,60
2,note_on,47,0,0
2,note_on,55,0,60
2,note_on,47,26,0
2,note_on,50,31,0
2,note_on,55,25,120
2,note_on,50,0,60
2,note_on,47,0,0
2,note_on,55,0,60
2,note_on,47,26,0
2,note_on,50,31,0
2,note_on,55,25,120
2,note_on,50,0,60
2,note_on,47,0,0
2,note_on,55,0,60
2,note_on,47,26,0
2,note_on,50,31,0
2,note_on,55,25,120
2,note_on,50,0,60
2,note_on,47,0,0
2,note_on,55,0,60
2,note_on,47,26,0
2,note_on,50,31,0
2,note_on,55,25,120
2,note_on,50,0,60
2,note_on,47,0,0
2,note_on,55,0,60
2,note_on,47,26,0
2,note_on,50,31,0
2,note_on,55,25,120
2,note_on,50,0,60
2,note_on,47,0,0
2,note_on,55,0,60
2,note_on,47,26,0
2,note_on,50,31,0
2,note_on,55,25,120
2,note_on,50,0,60
2,note_on,47,0,0
2,note_on,55,0,60
2,note_on,47,26,0
2,note_on,50,31,0
2,note_on,55,25,120
2,note_on,50,0,60
2,note_on,47,0,0
2,note_on,55,0,60
2,note_on,47,26,0
2,note_on,50,31,0
2,note_on,55,25,120
2,note_on,50,0,60
2,note_on,47,0,0
2,note_on,55,0,60
2,note_on,47,26,0
2,note_on,50,31,0
2,note_on,55,25,120
2,note_on,50,0,60
2,note_on,47,0,0
2,note_on,55,0,60
2,note_on,47,26,0
2,note_on,50,31,0
2,note_on,55,25,120
2,note_on,50,0,60
2,note_on,47,0,0
2,note_on,55,0,60
2,note_on,47,26,0
2,note_on,50,31,0
2,note_on,55,25,120
2,note_on,50,0,60
2,note_on,47,0,0
2,note_on,55,0,60
2,note_on,47,26,0
2,note_on,50,31,0
2,note_on,55,25,120
2,note_on,50,0,60
2,note_on,47,0,0
2,note_on,55,0,60
2,note_on,47,26,0
2,note_on,50,31,0
2,note_on,55,25,120
2,note_on,50,0,60
2,note_on,47,0,0
2,note_on,55,0,60
2,note_on,47,26,0
2,note_on,50,31,0
2,note_on,55,25,120
2,note_on,50,0,60
2,note_on,47,0,0
2,note_on,55,0,60
2,note_on,47,26,0
2,note_on,50,31,0
2,note_on,55,25,120
2,note_on,50,0,60
2,note_on,47,0,0
2,note_on,55,0,60
2,note_on,38,33,0
2,note_on,50,33,0
2,note_on,50,0,240
2,note_on,50,34,0
2,note_on,50,0,119
2,note_on,57,28,1
2,note_on,57,0,120
2,note_on,50,34,0
2,note_on,50,0,119
2,note_on,57,29,1
2,note_on,57,0,120
2,note_on,50,34,0
2,note_on,50,0,119
2,note_on,57,29,1
2,note_on,57,0,120
2,note_on,50,34,0
2,note_on,50,0,119
2,note_on,57,28,1
2,note_on,57,0,120
2,note_on,50,34,0
2,note_on,50,0,119
2,note_on,57,29,1
2,note_on,57,0,120
2,note_on,50,34,0
2,note_on,50,0,119
2,note_on,57,30,1
2,note_on,57,0,120
2,note_on,50,35,0
2,note_on,50,0,119
2,note_on,57,28,1
2,note_on,57,0,120
2,note_on,38,0,0
2,note_on,50,35,0
2,note_on,50,0,119
2,note_on,57,29,1
2,note_on,57,0,120
2,note_on,50,35,0
2,note_on,50,0,119
2,note_on,57,29,1
2,note_on,57,0,120
2,note_on,50,35,0
2,note_on,50,0,119
2,note_on,57,30,1
2,note_on,57,0,120
2,note_on,50,35,0
2,note_on,50,0,119
2,note_on,57,30,1
2,note_on,57,0,120
2,note_on,50,36,0
2,note_on,50,0,119
2,note_on,57,29,1
2,note_on,57,0,120
2,note_on,50,36,0
2,note_on,50,0,119
2,note_on,57,31,1
2,note_on,57,0,120
2,note_on,50,36,0
2,note_on,50,0,119
2,note_on,59,31,1
2,note_on,59,0,120
2,note_on,50,36,0
2,note_on,50,0,119
2,note_on,59,29,1
2,note_on,59,0,120
2,note_on,48,30,0
2,note_on,52,37,0
2,note_on,57,29,120
2,note_on,52,0,60
2,note_on,48,0,0
2,note_on,57,0,60
2,note_on,48,30,0
2,note_on,52,37,0
2,note_on,57,29,120
2,note_on,52,0,60
2,note_on,48,0,0
2,note_on,57,0,60
2,note_on,48,30,0
2,note_on,52,37,0
2,note_on,57,29,120
2,note_on,52,0,60
2,note_on,48,0,0
2,note_on,57,0,60
2,note_on,48,30,0
2,note_on,52,37,0
2,note_on,57,29,120
2,note_on,52,0,60
2,note_on,48,0,0
2,note_on,57,0,60
2,note_on,48,30,0
2,note_on,52,37,0
2,note_on,57,29,120
2,note_on,52,0,60
2,note_on,48,0,0
2,note_on,57,0,60
2,note_on,48,30,0
2,note_on,52,37,0
2,note_on,57,29,120
2,note_on,52,0,60
2,note_on,48,0,0
2,note_on,57,0,60
2,note_on,48,30,0
2,note_on,52,37,0
2,note_on,57,29,120
2,note_on,52,0,60
2,note_on,48,0,0
2,note_on,57,0,60
2,note_on,48,30,0
2,note_on,52,37,0
2,note_on,57,29,120
2,note_on,52,0,60
2,note_on,48,0,0
2,note_on,57,0,60
2,note_on,48,30,0
2,note_on,52,37,0
2,note_on,57,29,120
2,note_on,52,0,60
2,note_on,48,0,0
2,note_on,57,0,60
2,note_on,48,30,0
2,note_on,52,37,0
2,note_on,57,29,120
2,note_on,52,0,60
2,note_on,48,0,0
2,note_on,57,0,60
2,note_on,48,30,0
2,note_on,52,37,0
2,note_on,57,29,120
2,note_on,52,0,60
2,note_on,48,0,0
2,note_on,57,0,60
2,note_on,48,30,0
2,note_on,52,39,0
2,note_on,57,31,120
2,note_on,52,0,60
2,note_on,48,0,0
2,note_on,57,0,60
2,note_on,48,32,0
2,note_on,52,39,0
2,note_on,57,31,120
2,note_on,52,0,60
2,note_on,48,0,0
2,note_on,57,0,60
2,note_on,48,32,0
2,note_on,52,41,0
2,note_on,57,31,120
2,note_on,52,0,60
2,note_on,48,0,0
2,note_on,57,0,60
2,note_on,48,33,0
2,note_on,52,41,0
2,note_on,57,33,120
2,note_on,52,0,60
2,note_on,48,0,0
2,note_on,57,0,60
2,note_on,48,35,0
2,note_on,52,42,0
2,note_on,57,33,120
2,note_on,52,0,60
2,note_on,48,0,0
2,note_on,57,0,60
2,note_on,48,37,0
2,note_on,52,45,0
2,note_on,58,36,120
2,note_on,52,0,60
2,note_on,48,0,0
2,note_on,58,0,60
2,note_on,48,38,0
2,note_on,52,45,0
2,note_on,58,37,120
2,note_on,52,0,60
2,note_on,48,0,0
2,note_on,58,0,60
2,note_on,48,39,0
2,note_on,52,47,0
2,note_on,58,38,120
2,note_on,52,0,60
2,note_on,48,0,0
2,note_on,58,0,60
2,note_on,48,39,0
2,note_on,52,47,0
2,note_on,58,38,120
2,note_on,52,0,60
2,note_on,48,0,0
2,note_on,58,0,60
2,note_on,48,41,0
2,note_on,52,50,0
2,note_on,58,40,120
2,note_on,52,0,60
2,note_on,48,0,0
2,note_on,58,0,60
2,note_on,48,41,0
2,note_on,52,51,0
2,note_on,58,40,120
2,note_on,52,0,60
2,note_on,48,0,0
2,note_on,58,0,60
2,note_on,48,42,0
2,note_on,52,51,0
2,note_on,58,42,120
2,note_on,52,0,60
2,note_on,48,0,0
2,note_on,58,0,60
2,note_on,48,43,0
2,note_on,52,53,0
2,note_on,58,42,120
2,note_on,52,0,60
2,note_on,48,0,0
2,note_on,58,0,60
2,note_on,47,40,0
2,note_on,51,35,120
2,note_on,47,0,20
2,note_on,54,35,100
2,note_on,51,0,20
2,note_on,59,35,100
2,note_on,54,0,20
2,note_on,59,0,100
2,note_on,47,41,0
2,note_on,51,35,120
2,note_on,47,0,20
2,note_on,54,35,100
2,note_on,51,0,20
2,note_on,59,35,100
2,note_on,54,0,20
2,note_on,59,0,100
2,note_on,47,39,0
2,note_on,52,35,120
2,note_on,47,0,20
2,note_on,55,35,100
2,note_on,52,0,20
2,note_on,59,35,100
2,note_on,55,0,20
2,note_on,59,0,100
2,note_on,47,40,0
2,note_on,52,35,120
2,note_on,47,0,20
2,note_on,55,35,100
2,note_on,52,0,20
2,note_on,59,35,100
2,note_on,55,0,20
2,note_on,59,0,100
2,note_on,47,40,0
2,note_on,54,35,120
2,note_on,47,0,20
2,note_on,57,35,100
2,note_on,54,0,20
2,note_on,59,35,100
2,note_on,57,0,20
2,note_on,59,0,100
2,note_on,47,40,0
2,note_on,54,35,120
2,note_on,47,0,20
2,note_on,57,35,100
2,note_on,54,0,20
2,note_on,59,35,100
2,note_on,57,0,20
2,note_on,59,0,100
2,note_on,47,40,0
2,note_on,52,35,120
2,note_on,47,0,20
2,note_on,55,35,100
2,note_on,52,0,20
2,note_on,59,35,100
2,note_on,55,0,20
2,note_on,59,0,100
2,note_on,47,40,0
2,note_on,52,35,120
2,note_on,47,0,20
2,note_on,55,35,100
2,note_on,52,0,20
2,note_on,59,35,100
2,note_on,55,0,20
2,note_on,59,0,100
2,note_on,47,40,0
2,note_on,51,35,120
2,note_on,47,0,20
2,note_on,54,35,100
2,note_on,51,0,20
2,note_on,59,35,100
2,note_on,54,0,20
2,note_on,59,0,100
2,note_on,47,40,0
2,note_on,51,35,120
2,note_on,47,0,20
2,note_on,54,35,100
2,note_on,51,0,20
2,note_on,59,35,100
2,note_on,54,0,20
2,note_on,59,0,100
2,note_on,47,40,0
2,note_on,52,35,120
2,note_on,47,0,20
2,note_on,55,35,100
2,note_on,52,0,20
2,note_on,59,35,100
2,note_on,55,0,20
2,note_on,59,0,100
2,note_on,47,41,0
2,note_on,52,35,120
2,note_on,47,0,20
2,note_on,55,35,100
2,note_on,52,0,20
2,note_on,59,35,100
2,note_on,55,0,20
2,note_on,59,0,100
2,note_on,47,40,0
2,note_on,54,35,120
2,note_on,47,0,20
2,note_on,57,35,100
2,note_on,54,0,20
2,note_on,59,35,100
2,note_on,57,0,20
2,note_on,59,0,100
2,note_on,47,40,0
2,note_on,54,36,120
2,note_on,47,0,20
2,note_on,57,36,100
2,note_on,54,0,20
2,note_on,59,36,100
2,note_on,57,0,20
2,note_on,59,0,100
2,note_on,47,42,0
2,note_on,52,36,120
2,note_on,47,0,20
2,note_on,55,37,100
2,note_on,52,0,20
2,note_on,59,37,100
2,note_on,55,0,20
2,note_on,59,0,100
2,note_on,47,42,0
2,note_on,52,37,120
2,note_on,47,0,20
2,note_on,55,37,100
2,note_on,52,0,20
2,note_on,59,38,100
2,note_on,55,0,20
2,note_on,59,0,100
2,note_on,47,44,0
2,note_on,47,0,120
2,note_on,51,38,0
2,note_on,51,0,120
2,note_on,53,38,0
2,note_on,53,0,120
2,note_on,59,38,0
2,note_on,59,0,120
2,note_on,58,50,0
2,note_on,58,0,120
2,note_on,59,41,0
2,note_on,59,0,120
2,note_on,55,40,0
2,note_on,55,0,120
2,note_on,52,41,0
2,note_on,52,0,120
2,note_on,47,52,0
2,note_on,47,0,120
2,note_on,51,44,0
2,note_on,51,0,120
2,note_on,54,45,0
2,note_on,54,0,120
2,note_on,59,45,0
2,note_on,59,0,120
2,note_on,58,60,0
2,note_on,58,0,120
2,note_on,59,51,0
2,note_on,59,0,120
2,note_on,55,51,0
2,note_on,55,0,120
2,note_on,52,52,0
2,note_on,52,0,120
2,note_on,47,63,0
2,note_on,47,0,120
2,note_on,51,52,0
2,note_on,51,0,120
2,note_on,54,52,0
2,note_on,54,0,120
2,note_on,59,52,0
2,note_on,59,0,120
2,note_on,47,63,0
2,note_on,47,0,120
2,note_on,52,52,0
2,note_on,52,0,120
2,note_on,55,52,0
2,note_on,55,0,120
2,note_on,59,52,0
2,note_on,59,0,120
2,note_on,47,63,0
2,note_on,47,0,120
2,note_on,51,52,0
2,note_on,51,0,120
2,note_on,54,52,0
2,note_on,54,0,120
2,note_on,59,52,0
2,note_on,59,0,120
2,note_on,47,63,0
2,note_on,47,0,120
2,note_on,52,52,0
2,note_on,52,0,120
2,note_on,55,52,0
2,note_on,55,0,120
2,note_on,59,52,0
2,note_on,59,0,120
2,note_on,47,54,0
2,note_on,51,54,0
2,note_on,54,54,0
2,note_on,59,63,0
2,note_on,59,0,480
2,note_on,47,0,0
2,note_on,51,0,0
2,note_on,54,0,0
2,note_on,35,85,2880
2,note_on,35,0,120
2,note_on,39,76,0
2,note_on,39,0,120
2,note_on,42,76,0
2,note_on,42,0,120
2,note_on,47,75,0
2,note_on,47,0,120
2,note_on,35,77,0
2,note_on,35,0,120
2,note_on,47,68,120
2,note_on,47,0,120
2,note_on,37,73,120
2,note_on,37,0,120
2,note_on,49,66,120
2,note_on,49,0,120
2,note_on,39,71,120
2,note_on,39,0,120
2,note_on,51,65,120
2,note_on,51,0,120
2,note_on,39,69,600
2,note_on,39,0,120
2,note_on,51,61,120
2,note_on,51,0,120
2,note_on,40,65,120
2,note_on,40,0,120
2,note_on,52,59,120
2,note_on,52,0,120
2,note_on,42,65,120
2,note_on,42,0,120
2,note_on,54,54,120
2,note_on,54,0,120
2,note_on,42,41,1560
2,note_on,42,0,120
2,note_on,54,36,120
2,note_on,54,0,120
2,note_on,44,41,120
2,note_on,44,0,120
2,note_on,56,36,120
2,note_on,56,0,120
2,note_on,45,40,120
2,note_on,45,0,120
2,note_on,57,37,120
2,note_on,57,0,120
2,note_on,47,39,120
2,note_on,47,0,120
2,note_on,59,36,120
2,note_on,59,0,120
2,note_on,49,38,120
2,note_on,49,0,120
2,note_on,61,37,120
2,note_on,61,0,120
2,note_on,51,40,120
2,note_on,51,0,120
2,note_on,63,37,120
2,note_on,63,0,120
2,note_on,68,39,120
2,note_on,64,33,0
2,note_on,64,0,960
2,note_on,68,0,0
2,note_on,66,35,0
2,note_on,63,29,0
2,note_on,59,29,0
2,note_on,59,0,480
2,note_on,63,0,0
2,note_on,66,0,0
2,note_on,64,35,0
2,note_on,61,29,0
2,note_on,61,0,480
2,note_on,64,0,0
2,note_on,63,39,0
2,note_on,60,33,0
2,note_on,56,33,0
2,note_on,56,0,960
2,note_on,60,0,0
2,note_on,63,0,0
2,note_on,61,34,0
2,note_on,57,28,0
2,note_on,57,0,960
2,note_on,61,0,0
2,note_on,54,37,0
2,note_on,57,45,0
2,note_on,59,37,0
2,note_on,63,45,0
2,note_on,63,0,960
2,note_on,54,0,0
2,note_on,57,0,0
2,note_on,59,0,0
2,note_on,56,40,0
2,note_on,59,40,0
2,note_on,64,49,0
2,note_on,64,0,480
2,note_on,59,0,0
2,note_on,56,0,0
2,note_on,66,55,0
2,note_on,57,42,0
2,note_on,61,43,0
2,note_on,61,0,480
2,note_on,57,0,0
2,note_on,66,0,0
2,note_on,59,49,0
2,note_on,64,49,0
2,note_on,68,59,0
2,note_on,68,0,960
2,note_on,64,0,0
2,note_on,63,27,0
2,note_on,66,32,0
2,note_on,59,0,958
2,note_on,66,0,2
2,note_on,63,0,0
2,note_on,56,35,0
2,note_on,52,29,0
2,note_on,52,0,960
2,note_on,56,0,0
2,note_on,54,31,0
2,note_on,51,26,0
2,note_on,47,26,0
2,note_on,47,0,480
2,note_on,51,0,0
2,note_on,54,0,0
2,note_on,52,31,0
2,note_on,49,26,0
2,note_on,49,0,480
2,note_on,52,0,0
2,note_on,51,35,0
2,note_on,48,29,0
2,note_on,44,29,0
2,note_on,44,0,960
2,note_on,48,0,0
2,note_on,51,0,0
2,note_on,49,30,0
2,note_on,45,25,0
2,note_on,45,0,960
2,note_on,49,0,0
2,note_on,35,33,0
2,note_on,47,40,0
2,note_on,47,0,1920
2,note_on,35,0,0
2,note_on,40,42,0
2,note_on,52,45,0
2,note_on,52,0,480
2,note_on,40,0,0
2,note_on,68,43,1440
2,note_on,64,36,0
2,note_on,64,0,960
2,note_on,68,0,0
2,note_on,66,39,0
2,note_on,63,32,0
2,note_on,59,32,0
2,note_on,59,0,480
2,note_on,63,0,0
2,note_on,66,0,0
2,note_on,64,39,0
2,note_on,61,32,0
2,note_on,61,0,480
2,note_on,64,0,0
2,note_on,63,43,0
2,note_on,60,36,0
2,note_on,56,36,0
2,note_on,56,0,960
2,note_on,60,0,0
2,note_on,63,0,0
2,note_on,61,38,0
2,note_on,57,31,0
2,note_on,57,0,960
2,note_on,61,0,0
2,note_on,54,39,0
2,note_on,57,47,0
2,note_on,59,39,0
2,note_on,63,47,0
2,note_on,63,0,960
2,note_on,54,0,0
2,note_on,57,0,0
2,note_on,59,0,0
2,note_on,56,45,0
2,note_on,59,45,0
2,note_on,64,53,0
2,note_on,64,0,480
2,note_on,59,0,0
2,note_on,56,0,0
2,note_on,66,59,0
2,note_on,57,49,0
2,note_on,61,49,0
2,note_on,61,0,480
2,note_on,57,0,0
2,note_on,66,0,0
2,note_on,59,53,0
2,note_on,64,53,0
2,note_on,68,65,0
2,note_on,68,0,960
2,note_on,64,0,0
2,note_on,63,45,0
2,note_on,66,53,0
2,note_on,66,0,480
2,note_on,63,0,0
2,note_on,47,44,0
2,note_on,47,0,160
2,note_on,49,43,0
2,note_on,49,0,160
2,note_on,51,41,0
2,note_on,59,0,158
2,note_on,51,0,2
2,note_on,56,45,0
2,note_on,52,37,0
2,note_on,52,0,960
2,note_on,56,0,0
2,note_on,54,41,0
2,note_on,51,33,0
2,note_on,47,33,0
2,note_on,47,0,480
2,note_on,51,0,0
2,note_on,54,0,0
2,note_on,52,41,0
2,note_on,49,33,0
2,note_on,49,0,480
2,note_on,52,0,0
2,note_on,51,37,0
2,note_on,54,49,0
2,note_on,48,37,0
2,note_on,44,37,0
2,note_on,44,0,960
2,note_on,51,0,0
2,note_on,54,0,0
2,note_on,48,0,0
2,note_on,45,39,0
2,note_on,49,39,0
2,note_on,52,32,0
2,note_on,52,0,960
2,note_on,49,0,0
2,note_on,45,0,0
2,note_on,35,46,0
2,note_on,47,55,0
2,note_on,47,0,1920
2,note_on,35,0,0
2,note_on,40,50,0
2,note_on,52,60,0
2,note_on,52,0,480
2,note_on,40,0,0
2,note_on,47,74,0
2,note_on,47,0,960
2,note_on,47,74,0
2,note_on,47,0,960
2,note_on,47,74,0
2,note_on,47,0,960
2,note_on,47,73,0
2,note_on,47,0,480
2,note_on,52,73,0
2,note_on,52,0,160
2,note_on,47,67,0
2,note_on,47,0,160
2,note_on,44,69,0
2,note_on,44,0,160
2,note_on,47,73,0
2,note_on,47,0,160
2,note_on,52,69,0
2,note_on,52,0,160
2,note_on,56,69,0
2,note_on,56,0,160
2,note_on,54,73,0
2,note_on,54,0,160
2,note_on,51,69,0
2,note_on,51,0,160
2,note_on,47,69,0
2,note_on,47,0,160
2,note_on,51,73,0
2,note_on,51,0,160
2,note_on,54,69,0
2,note_on,54,0,160
2,note_on,57,69,0
2,note_on,57,0,160
2,note_on,56,73,0
2,note_on,56,0,160
2,note_on,52,67,0
2,note_on,52,0,160
2,note_on,47,69,0
2,note_on,47,0,160
2,note_on,52,73,0
2,note_on,52,0,160
2,note_on,56,69,0
2,note_on,56,0,160
2,note_on,59,69,0
2,note_on,59,0,160
2,note_on,57,73,0
2,note_on,57,0,160
2,note_on,54,69,0
2,note_on,54,0,160
2,note_on,51,69,0
2,note_on,51,0,160
2,note_on,63,73,0
2,note_on,63,0,160
2,note_on,57,69,0
2,note_on,57,0,160
2,note_on,54,69,0
2,note_on,54,0,160
2,note_on,56,64,0
2,note_on,56,0,160
2,note_on,59,56,0
2,note_on,59,0,160
2,note_on,64,56,0
2,note_on,64,0,160
2,note_on,59,64,0
2,note_on,59,0,160
2,note_on,56,57,0
2,note_on,56,0,160
2,note_on,52,57,0
2,note_on,52,0,160
2,note_on,51,64,0
2,note_on,51,0,160
2,note_on,54,56,0
2,note_on,54,0,160
2,note_on,57,56,0
2,note_on,57,0,160
2,note_on,54,64,0
2,note_on,54,0,160
2,note_on,51,57,0
2,note_on,51,0,160
2,note_on,47,58,0
2,note_on,47,0,160
2,note_on,52,64,6
2,note_on,56,56,154
2,note_on,52,0,6
2,note_on,56,0,154
2,note_on,59,56,0
2,note_on,59,0,160
2,note_on,56,64,0
2,note_on,56,0,160
2,note_on,52,57,0
2,note_on,52,0,160
2,note_on,47,57,6
2,note_on,51,64,154
2,note_on,47,0,6
2,note_on,51,0,154
2,note_on,57,56,0
2,note_on,57,0,160
2,note_on,59,56,6
2,note_on,57,64,154
2,note_on,59,0,6
2,note_on,57,0,154
2,note_on,59,57,0
2,note_on,59,0,160
2,note_on,66,58,0
2,note_on,66,0,160
2,note_on,56,64,0
2,note_on,56,0,160
2,note_on,59,55,0
2,note_on,59,0,160
2,note_on,64,55,0
2,note_on,64,0,160
2,note_on,52,62,0
2,note_on,52,0,160
2,note_on,56,55,0
2,note_on,56,0,160
2,note_on,59,54,0
2,note_on,59,0,160
2,note_on,54,59,0
2,note_on,54,0,160
2,note_on,57,51,0
2,note_on,57,0,160
2,note_on,59,51,0
2,note_on,59,0,160
2,note_on,57,57,0
2,note_on,57,0,160
2,note_on,59,51,0
2,note_on,59,0,160
2,note_on,66,51,0
2,note_on,66,0,160
2,note_on,56,56,0
2,note_on,56,0,160
2,note_on,59,48,0
2,note_on,59,0,160
2,note_on,64,48,0
2,note_on,64,0,160
2,note_on,52,54,0
2,note_on,52,0,160
2,note_on,56,48,0
2,note_on,56,0,160
2,note_on,59,47,0
2,note_on,59,0,160
2,note_on,54,51,0
2,note_on,54,0,160
2,note_on,57,44,0
2,note_on,57,0,160
2,note_on,59,44,0
2,note_on,59,0,160
2,note_on,57,50,0
2,note_on,57,0,160
2,note_on,59,44,0
2,note_on,59,0,160
2,note_on,66,44,0
2,note_on,66,0,160
2,note_on,56,50,0
2,note_on,56,0,120
2,note_on,59,43,0
2,note_on,59,0,120
2,note_on,52,43,0
2,note_on,52,0,120
2,note_on,59,44,0
2,note_on,59,0,120
2,note_on,54,51,0
2,note_on,54,0,120
2,note_on,59,44,0
2,note_on,59,0,120
2,note_on,57,44,0
2,note_on,57,0,120
2,note_on,59,44,0
2,note_on,59,0,120
2,note_on,56,52,0
2,note_on,56,0,120
2,note_on,59,46,0
2,note_on,59,0,120
2,note_on,52,47,0
2,note_on,52,0,120
2,note_on,59,49,0
2,note_on,59,0,120
2,note_on,54,55,0
2,note_on,54,0,120
2,note_on,59,48,0
2,note_on,59,0,120
2,note_on,57,48,0
2,note_on,57,0,120
2,note_on,59,49,0
2,note_on,59,0,120
2,note_on,56,58,0
2,note_on,56,0,120
2,note_on,59,50,0
2,note_on,59,0,120
2,note_on,57,51,0
2,note_on,57,0,120
2,note_on,59,52,0
2,note_on,59,0,120
2,note_on,56,60,0
2,note_on,56,0,120
2,note_on,59,52,0
2,note_on,59,0,120
2,note_on,57,52,0
2,note_on,57,0,120
2,note_on,59,54,0
2,note_on,59,0,120
2,note_on,56,62,0
2,note_on,56,0,120
2,note_on,59,55,0
2,note_on,59,0,120
2,note_on,57,55,0
2,note_on,57,0,120
2,note_on,59,57,0
2,note_on,59,0,120
2,note_on,56,65,0
2,note_on,56,0,120
2,note_on,59,57,0
2,note_on,59,0,120
2,note_on,57,57,0
2,note_on,57,0,120
2,note_on,59,58,0
2,note_on,59,0,120
2,note_on,56,70,0
2,note_on,56,0,120
2,note_on,59,60,0
2,note_on,59,0,120
2,note_on,44,60,0
2,note_on,44,0,120
2,note_on,52,62,0
2,note_on,52,0,120
2,note_on,44,70,0
2,note_on,44,0,120
2,note_on,52,60,0
2,note_on,52,0,120
2,note_on,44,60,0
2,note_on,44,0,120
2,note_on,52,60,0
2,note_on,52,0,120
2,note_on,44,70,0
2,note_on,44,0,120
2,note_on,52,60,0
2,note_on,52,0,120
2,note_on,44,60,0
2,note_on,44,0,120
2,note_on,52,62,0
2,note_on,52,0,120
2,note_on,44,70,0
2,note_on,44,0,120
2,note_on,52,60,0
2,note_on,52,0,120
2,note_on,44,60,0
2,note_on,44,0,120
2,note_on,52,60,0
2,note_on,52,0,120
2,note_on,44,70,0
2,note_on,44,0,120
2,note_on,52,60,0
2,note_on,52,0,120
2,note_on,44,60,0
2,note_on,44,0,120
2,note_on,52,62,0
2,note_on,52,0,120
2,note_on,44,70,0
2,note_on,44,0,120
2,note_on,52,60,0
2,note_on,52,0,120
2,note_on,44,60,0
2,note_on,44,0,120
2,note_on,52,61,0
2,note_on,52,0,120
2,note_on,44,71,0
2,note_on,44,0,120
2,note_on,52,61,0
2,note_on,52,0,120
2,note_on,44,61,0
2,note_on,44,0,120
2,note_on,52,63,0
2,note_on,52,0,120
2,note_on,44,72,0
2,note_on,44,0,120
2,note_on,52,62,0
2,note_on,52,0,120
2,note_on,44,62,0
2,note_on,44,0,120
2,note_on,52,62,0
2,note_on,52,0,120
2,note_on,45,67,0
2,note_on,49,67,0
2,note_on,52,80,0
2,note_on,52,0,180
2,note_on,49,0,0
2,note_on,45,0,0
2,note_on,45,60,60
2,note_on,49,60,0
2,note_on,52,73,0
2,note_on,52,0,180
2,note_on,49,0,0
2,note_on,45,0,0
2,note_on,45,60,300
2,note_on,49,60,0
2,note_on,52,73,0
2,note_on,52,0,180
2,note_on,49,0,0
2,note_on,45,0,0
2,note_on,45,67,60
2,note_on,49,67,0
2,note_on,52,80,0
2,note_on,52,0,180
2,note_on,49,0,0
2,note_on,45,0,0
2,note_on,45,60,60
2,note_on,49,60,0
2,note_on,52,73,0
2,note_on,52,0,180
2,note_on,49,0,0
2,note_on,45,0,0
2,note_on,45,60,300
2,note_on,49,60,0
2,note_on,52,73,0
2,note_on,52,0,180
2,note_on,49,0,0
2,note_on,45,0,0
2,note_on,45,67,60
2,note_on,49,67,0
2,note_on,52,78,0
2,note_on,52,0,180
2,note_on,49,0,0
2,note_on,45,0,0
2,note_on,45,60,60
2,note_on,49,60,0
2,note_on,52,73,0
2,note_on,52,0,180
2,note_on,49,0,0
2,note_on,45,0,0
2,note_on,45,60,300
2,note_on,49,60,0
2,note_on,52,73,0
2,note_on,52,0,180
2,note_on,49,0,0
2,note_on,45,0,0
2,note_on,45,67,60
2,note_on,49,67,0
2,note_on,52,78,0
2,note_on,52,0,180
2,note_on,49,0,0
2,note_on,45,0,0
2,note_on,45,60,60
2,note_on,49,60,0
2,note_on,52,73,0
2,note_on,52,0,180
2,note_on,49,0,0
2,note_on,45,0,0
2,note_on,45,60,300
2,note_on,49,60,0
2,note_on,52,73,0
2,note_on,52,0,180
2,note_on,49,0,0
2,note_on,45,0,0
2,note_on,52,67,60
2,note_on,46,67,0
2,note_on,49,67,0
2,note_on,54,78,0
2,note_on,54,0,180
2,note_on,52,0,0
2,note_on,46,0,0
2,note_on,49,0,0
2,note_on,52,60,60
2,note_on,46,60,0
2,note_on,49,60,0
2,note_on,54,73,0
2,note_on,54,0,180
2,note_on,52,0,0
2,note_on,46,0,0
2,note_on,49,0,0
2,note_on,52,60,300
2,note_on,46,60,0
2,note_on,49,60,0
2,note_on,54,73,0
2,note_on,54,0,180
2,note_on,52,0,0
2,note_on,46,0,0
2,note_on,49,0,0
2,note_on,52,67,60
2,note_on,46,67,0
2,note_on,49,67,0
2,note_on,54,78,0
2,note_on,54,0,180
2,note_on,52,0,0
2,note_on,46,0,0
2,note_on,49,0,0
2,note_on,52,60,60
2,note_on,46,60,0
2,note_on,49,60,0
2,note_on,54,73,0
2,note_on,54,0,180
2,note_on,52,0,0
2,note_on,46,0,0
2,note_on,49,0,0
2,note_on,52,60,300
2,note_on,46,60,0
2,note_on,49,60,0
2,note_on,54,73,0
2,note_on,54,0,180
2,note_on,52,0,0
2,note_on,46,0,0
2,note_on,49,0,0
2,note_on,52,67,60
2,note_on,46,67,0
2,note_on,49,67,0
2,note_on,54,78,0
2,note_on,54,0,180
2,note_on,52,0,0
2,note_on,46,0,0
2,note_on,49,0,0
2,note_on,52,60,60
2,note_on,46,60,0
2,note_on,49,60,0
2,note_on,54,73,0
2,note_on,54,0,180
2,note_on,52,0,0
2,note_on,46,0,0
2,note_on,49,0,0
2,note_on,52,60,300
2,note_on,46,60,0
2,note_on,49,60,0
2,note_on,54,73,0
2,note_on,54,0,180
2,note_on,52,0,0
2,note_on,46,0,0
2,note_on,49,0,0
2,note_on,52,67,60
2,note_on,46,67,0
2,note_on,49,67,0
2,note_on,54,78,0
2,note_on,54,0,180
2,note_on,52,0,0
2,note_on,46,0,0
2,note_on,49,0,0
2,note_on,52,60,60
2,note_on,46,60,0
2,note_on,49,60,0
2,note_on,54,73,0
2,note_on,54,0,180
2,note_on,52,0,0
2,note_on,46,0,0
2,note_on,49,0,0
2,note_on,52,60,300
2,note_on,46,60,0
2,note_on,49,60,0
2,note_on,54,73,0
2,note_on,54,0,180
2,note_on,52,0,0
2,note_on,46,0,0
2,note_on,49,0,0
2,note_on,47,78,60
2,note_on,47,0,120
2,note_on,52,70,0
2,note_on,52,0,120
2,note_on,56,70,0
2,note_on,56,0,120
2,note_on,59,70,0
2,note_on,59,0,120
2,note_on,47,77,0
2,note_on,47,0,120
2,note_on,52,70,0
2,note_on,52,0,120
2,note_on,56,70,0
2,note_on,56,0,120
2,note_on,59,70,0
2,note_on,59,0,120
2,note_on,47,75,0
2,note_on,47,0,120
2,note_on,52,70,0
2,note_on,52,0,120
2,note_on,56,70,0
2,note_on,56,0,120
2,note_on,59,70,0
2,note_on,59,0,120
2,note_on,47,75,0
2,note_on,47,0,120
2,note_on,52,70,0
2,note_on,52,0,120
2,note_on,56,70,0
2,note_on,56,0,120
2,note_on,59,70,0
2,note_on,59,0,120
2,note_on,47,78,0
2,note_on,47,0,120
2,note_on,52,70,0
2,note_on,52,0,120
2,note_on,56,70,0
2,note_on,56,0,120
2,note_on,59,70,0
2,note_on,59,0,120
2,note_on,47,77,0
2,note_on,47,0,120
2,note_on,52,70,0
2,note_on,52,0,120
2,note_on,56,70,0
2,note_on,56,0,120
2,note_on,59,70,0
2,note_on,59,0,120
2,note_on,56,75,0
2,note_on,56,0,120
2,note_on,56,70,120
2,note_on,56,0,120
2,note_on,52,75,120
2,note_on,52,0,120
2,note_on,47,70,120
2,note_on,47,0,120
2,note_on,59,82,120
2,note_on,59,0,120
2,note_on,56,47,120
2,note_on,56,0,120
2,note_on,64,53,120
2,note_on,64,0,120
2,note_on,59,48,120
2,note_on,59,0,120
2,note_on,68,52,120
2,note_on,68,0,120
2,note_on,64,41,120
2,note_on,64,0,120
2,note_on,71,50,120
2,note_on,71,0,120
2,note_on,68,41,120
2,note_on,68,0,120
2,note_on,76,50,120
2,note_on,76,0,120
2,note_on,71,41,120
2,note_on,71,0,120
2,note_on,76,50,120
2,note_on,76,0,120
2,note_on,71,39,120
2,note_on,71,0,120
2,note_on,76,50,120
2,note_on,76,0,120
2,note_on,71,41,120
2,note_on,71,0,120
2,note_on,76,50,120
2,note_on,76,0,120
2,note_on,71,42,120
2,note_on,71,0,120
2,note_on,75,46,120
2,note_on,75,0,120
2,note_on,71,37,120
2,note_on,71,0,120
2,note_on,75,43,120
2,note_on,75,0,120
2,note_on,71,36,120
2,note_on,71,0,120
2,note_on,75,41,120
2,note_on,75,0,120
2,note_on,71,32,120
2,note_on,71,0,120
2,note_on,75,39,120
2,note_on,75,0,120
2,note_on,71,31,120
2,note_on,71,0,120
2,note_on,75,36,120
2,note_on,75,0,120
2,note_on,71,30,120
2,note_on,71,0,120
2,note_on,75,36,120
2,note_on,75,0,120
2,note_on,71,31,120
2,note_on,71,0,120
2,note_on,75,36,120
2,note_on,75,0,120
2,note_on,71,29,120
2,note_on,71,0,120
2,note_on,75,36,120
2,note_on,75,0,120
2,note_on,71,30,120
2,note_on,71,0,120
2,note_on,75,37,120
2,note_on,75,0,80
2,note_on,76,32,0
2,note_on,76,0,80
2,note_on,75,36,0
2,note_on,75,0,80
2,note_on,76,31,0
2,note_on,76,0,80
2,note_on,75,36,0
2,note_on,75,0,80
2,note_on,76,33,0
2,note_on,76,0,80
2,note_on,75,37,0
2,note_on,75,0,80
2,note_on,76,33,0
2,note_on,76,0,80
2,note_on,75,37,0
2,note_on,75,0,80
2,note_on,76,33,0
2,note_on,76,0,80
2,note_on,75,38,0
2,note_on,75,0,80
2,note_on,76,34,0
2,note_on,76,0,80
2,note_on,75,38,0
2,note_on,75,0,80
2,note_on,76,35,0
2,note_on,76,0,80
2,note_on,75,39,0
2,note_on,75,0,80
2,note_on,76,35,0
2,note_on,76,0,80
2,note_on,75,39,0
2,note_on,75,0,80
2,note_on,76,36,0
2,note_on,76,0,80
2,note_on,75,40,0
2,note_on,75,0,80
2,note_on,76,36,0
2,note_on,76,0,80
2,note_on,75,40,0
2,note_on,75,0,80
2,note_on,76,36,0
2,note_on,76,0,80
2,note_on,75,41,0
2,note_on,75,0,80
2,note_on,76,37,0
2,note_on,76,0,80
2,note_on,75,41,0
2,note_on,75,0,80
2,note_on,76,36,0
2,note_on,76,0,80
2,note_on,75,42,0
2,note_on,75,0,80
2,note_on,76,37,0
2,note_on,76,0,80
2,note_on,75,42,0
2,note_on,75,0,80
2,note_on,76,37,0
2,note_on,76,0,80
2,note_on,75,43,0
2,note_on,75,0,80
2,note_on,76,38,0
2,note_on,76,0,80
2,note_on,75,43,0
2,note_on,75,0,80
2,note_on,76,39,0
2,note_on,76,0,80
2,note_on,75,44,0
2,note_on,75,0,80
2,note_on,76,39,0
2,note_on,76,0,80
2,note_on,75,44,0
2,note_on,75,0,80
2,note_on,76,38,0
2,note_on,76,0,80
2,note_on,75,45,0
2,note_on,75,0,80
2,note_on,76,38,0
2,note_on,76,0,80
2,note_on,75,45,0
2,note_on,75,0,80
2,note_on,76,40,0
2,note_on,76,0,80
2,note_on,75,50,0
2,note_on,75,0,96
2,note_on,76,44,0
2,note_on,76,0,96
2,note_on,75,50,0
2,note_on,75,0,96
2,note_on,73,52,0
2,note_on,73,0,96
2,note_on,75,47,0
2,note_on,75,0,96
2,note_on,64,48,0
2,note_on,76,57,0
2,note_on,76,0,960
2,note_on,74,45,0
2,note_on,71,38,0
2,note_on,68,38,0
2,note_on,68,0,960
2,note_on,71,0,0
2,note_on,74,0,0
2,note_on,69,39,0
2,note_on,72,47,0
2,note_on,72,0,960
2,note_on,69,0,0
2,note_on,74,46,0
2,note_on,68,39,0
2,note_on,71,39,0
2,note_on,71,0,960
2,note_on,64,0,0
2,note_on,74,0,0
2,note_on,68,0,0
2,note_on,72,48,0
2,note_on,69,40,0
2,note_on,69,0,480
2,note_on,72,0,0
2,note_on,69,47,480
2,note_on,57,39,0
2,note_on,60,39,0
2,note_on,66,39,0
2,note_on,66,0,960
2,note_on,69,0,0
2,note_on,57,0,0
2,note_on,60,0,0
2,note_on,67,46,0
2,note_on,59,39,0
2,note_on,64,39,0
2,note_on,64,0,960
2,note_on,59,0,0
2,note_on,67,0,0
2,note_on,63,37,0
2,note_on,66,44,0
2,note_on,59,37,0
2,note_on,59,0,960
2,note_on,66,0,0
2,note_on,63,0,0
2,note_on,64,56,0
2,note_on,52,45,0
2,note_on,64,0,960
2,note_on,56,38,0
2,note_on,62,45,0
2,note_on,59,38,0
2,note_on,59,0,960
2,note_on,62,0,0
2,note_on,56,0,0
2,note_on,57,39,0
2,note_on,60,47,0
2,note_on,60,0,960
2,note_on,57,0,0
2,note_on,62,46,0
2,note_on,59,39,0
2,note_on,56,39,0
2,note_on,56,0,960
2,note_on,52,0,0
2,note_on,62,0,0
2,note_on,59,0,0
2,note_on,60,48,0
2,note_on,57,48,0
2,note_on,57,0,480
2,note_on,60,0,0
2,note_on,45,39,480
2,note_on,54,39,0
2,note_on,57,47,0
2,note_on,48,39,0
2,note_on,48,0,960
2,note_on,45,0,0
2,note_on,54,0,0
2,note_on,57,0,0
2,note_on,55,46,0
2,note_on,47,39,0
2,note_on,52,39,0
2,note_on,52,0,960
2,note_on,47,0,0
2,note_on,55,0,0
2,note_on,54,44,0
2,note_on,51,37,0
2,note_on,47,37,0
2,note_on,47,0,960
2,note_on,51,0,0
2,note_on,54,0,0
2,note_on,55,44,0
2,note_on,52,37,0
2,note_on,52,0,240
2,note_on,55,0,0
2,note_on,43,42,240
2,note_on,52,51,0
2,note_on,43,0,480
2,note_on,45,42,0
2,note_on,52,0,240
2,note_on,53,49,0
2,note_on,53,0,240
2,note_on,55,51,0
2,note_on,55,0,240
2,note_on,57,55,0
2,note_on,57,0,240
2,note_on,45,0,0
2,note_on,59,41,0
2,note_on,55,35,0
2,note_on,47,35,0
2,note_on,55,0,960
2,note_on,59,0,0
2,note_on,57,39,0
2,note_on,54,33,0
2,note_on,54,0,960
2,note_on,57,0,0
2,note_on,47,0,0
2,note_on,52,37,0
2,note_on,55,44,0
2,note_on,48,37,0
2,note_on,48,0,240
2,note_on,55,0,0
2,note_on,52,0,0
2,note_on,48,51,240
2,note_on,40,42,0
2,note_on,40,0,480
2,note_on,41,42,0
2,note_on,48,0,240
2,note_on,50,49,0
2,note_on,50,0,240
2,note_on,52,51,0
2,note_on,52,0,240
2,note_on,53,55,0
2,note_on,53,0,240
2,note_on,41,0,0
2,note_on,52,35,0
2,note_on,55,41,0
2,note_on,43,35,0
2,note_on,55,0,960
2,note_on,52,0,0
2,note_on,50,33,0
2,note_on,53,39,0
2,note_on,53,0,960
2,note_on,50,0,0
2,note_on,43,0,0
2,note_on,48,37,0
2,note_on,52,44,0
2,note_on,52,0,480
2,note_on,48,0,0
2,note_on,45,42,0
2,note_on,53,51,0
2,note_on,45,0,480
2,note_on,46,42,0
2,note_on,53,0,240
2,note_on,55,49,0
2,note_on,55,0,240
2,note_on,57,51,0
2,note_on,57,0,240
2,note_on,58,55,0
2,note_on,58,0,240
2,note_on,46,0,0
2,note_on,60,41,0
2,note_on,48,35,0
2,note_on,57,35,0
2,note_on,57,0,960
2,note_on,60,0,0
2,note_on,55,33,0
2,note_on,58,39,0
2,note_on,58,0,960
2,note_on,55,0,0
2,note_on,48,0,0
2,note_on,50,37,0
2,note_on,53,37,0
2,note_on,57,44,0
2,note_on,57,0,480
2,note_on,53,0,0
2,note_on,50,0,0
2,note_on,33,42,0
2,note_on,41,51,0
2,note_on,33,0,480
2,note_on,34,42,0
2,note_on,41,0,240
2,note_on,43,49,0
2,note_on,43,0,240
2,note_on,45,51,0
2,note_on,45,0,240
2,note_on,46,55,0
2,note_on,46,0,240
2,note_on,34,0,0
2,note_on,48,41,0
2,note_on,36,35,0
2,note_on,45,35,0
2,note_on,45,0,960
2,note_on,48,0,0
2,note_on,43,33,0
2,note_on,46,39,0
2,note_on,46,0,960
2,note_on,43,0,0
2,note_on,36,0,0
2,note_on,41,28,0
2,note_on,29,25,0
2,note_on,29,0,120
2,note_on,41,0,0
2,note_on,36,26,120
2,note_on,29,22,0
2,note_on,29,0,120
2,note_on,36,0,0
2,note_on,36,26,120
2,note_on,29,22,0
2,note_on,29,0,120
2,note_on,36,0,0
2,note_on,36,27,120
2,note_on,29,22,0
2,note_on,29,0,120
2,note_on,36,0,0
2,note_on,36,27,120
2,note_on,29,22,0
2,note_on,29,0,120
2,note_on,36,0,0
2,note_on,36,28,120
2,note_on,29,23,0
2,note_on,29,0,120
2,note_on,36,0,0
2,note_on,36,28,120
2,note_on,29,23,0
2,note_on,29,0,120
2,note_on,36,0,0
2,note_on,36,29,120
2,note_on,29,24,0
2,note_on,29,0,120
2,note_on,36,0,0
2,note_on,29,25,120
2,note_on,36,30,0
2,note_on,36,0,120
2,note_on,29,0,0
2,note_on,29,22,120
2,note_on,36,27,0
2,note_on,36,0,120
2,note_on,29,0,0
2,note_on,29,23,120
2,note_on,36,28,0
2,note_on,36,0,120
2,note_on,29,0,0
2,note_on,29,24,120
2,note_on,36,29,0
2,note_on,36,0,120
2,note_on,29,0,0
2,note_on,29,25,120
2,note_on,36,30,0
2,note_on,36,0,120
2,note_on,29,0,0
2,note_on,29,25,120
2,note_on,36,30,0
2,note_on,36,0,120
2,note_on,29,0,0
2,note_on,29,25,120
2,note_on,38,30,0
2,note_on,38,0,120
2,note_on,29,0,0
2,note_on,29,25,120
2,note_on,38,30,0
2,note_on,38,0,120
2,note_on,29,0,0
2,note_on,40,25,120
2,note_on,43,30,0
2,note_on,43,0,180
2,note_on,40,0,0
2,note_on,40,25,60
2,note_on,43,30,0
2,note_on,43,0,180
2,note_on,40,0,0
2,note_on,40,25,60
2,note_on,43,30,0
2,note_on,43,0,180
2,note_on,40,0,0
2,note_on,40,25,60
2,note_on,43,30,0
2,note_on,43,0,180
2,note_on,40,0,0
2,note_on,40,25,60
2,note_on,43,30,0
2,note_on,43,0,180
2,note_on,40,0,0
2,note_on,40,25,60
2,note_on,43,30,0
2,note_on,43,0,180
2,note_on,40,0,0
2,note_on,40,25,60
2,note_on,43,30,0
2,note_on,43,0,180
2,note_on,40,0,0
2,note_on,40,25,60
2,note_on,43,30,0
2,note_on,43,0,180
2,note_on,40,0,0
2,note_on,39,25,60
2,note_on,43,30,0
2,note_on,43,0,180
2,note_on,39,0,0
2,note_on,39,25,60
2,note_on,43,30,0
2,note_on,43,0,180
2,note_on,39,0,0
2,note_on,39,25,60
2,note_on,43,30,0
2,note_on,43,0,180
2,note_on,39,0,0
2,note_on,39,25,60
2,note_on,43,30,0
2,note_on,43,0,180
2,note_on,39,0,0
2,note_on,39,25,60
2,note_on,43,30,0
2,note_on,43,0,180
2,note_on,39,0,0
2,note_on,39,25,60
2,note_on,43,30,0
2,note_on,43,0,180
2,note_on,39,0,0
2,note_on,39,25,60
2,note_on,43,30,0
2,note_on,43,0,180
2,note_on,39,0,0
2,note_on,39,25,60
2,note_on,43,30,0
2,note_on,43,0,180
2,note_on,39,0,0
2,note_on,38,25,60
2,note_on,45,30,0
2,note_on,45,0,180
2,note_on,38,0,0
2,note_on,38,25,60
2,note_on,45,30,0
2,note_on,45,0,180
2,note_on,38,0,0
2,note_on,38,25,60
2,note_on,45,30,0
2,note_on,45,0,180
2,note_on,38,0,0
2,note_on,38,25,60
2,note_on,45,30,0
2,note_on,45,0,180
2,note_on,38,0,0
2,note_on,38,25,60
2,note_on,45,30,0
2,note_on,45,0,180
2,note_on,38,0,0
2,note_on,38,25,60
2,note_on,45,30,0
2,note_on,45,0,180
2,note_on,38,0,0
2,note_on,38,25,60
2,note_on,45,30,0
2,note_on,45,0,180
2,note_on,38,0,0
2,note_on,38,25,60
2,note_on,45,30,0
2,note_on,45,0,180
2,note_on,38,0,0
2,note_on,42,25,60
2,note_on,50,30,0
2,note_on,50,0,180
2,note_on,42,0,0
2,note_on,42,25,60
2,note_on,50,30,0
2,note_on,50,0,180
2,note_on,42,0,0
2,note_on,42,25,60
2,note_on,50,30,0
2,note_on,50,0,180
2,note_on,42,0,0
2,note_on,42,25,60
2,note_on,50,30,0
2,note_on,50,0,180
2,note_on,42,0,0
2,note_on,42,25,60
2,note_on,50,30,0
2,note_on,50,0,180
2,note_on,42,0,0
2,note_on,42,25,60
2,note_on,50,30,0
2,note_on,50,0,180
2,note_on,42,0,0
2,note_on,42,25,60
2,note_on,50,30,0
2,note_on,50,0,180
2,note_on,42,0,0
2,note_on,42,25,60
2,note_on,50,30,0
2,note_on,50,0,180
2,note_on,42,0,0
2,note_on,43,30,60
2,note_on,50,26,120
2,note_on,43,0,45
2,note_on,50,0,75
2,note_on,43,30,0
2,note_on,50,27,120
2,note_on,43,0,45
2,note_on,50,0,75
2,note_on,43,30,0
2,note_on,50,26,120
2,note_on,43,0,45
2,note_on,50,0,75
2,note_on,43,30,0
2,note_on,50,25,120
2,note_on,43,0,45
2,note_on,50,0,75
2,note_on,45,31,0
2,note_on,50,26,120
2,note_on,45,0,45
2,note_on,50,0,75
2,note_on,45,31,0
2,note_on,50,27,120
2,note_on,45,0,45
2,note_on,50,0,75
2,note_on,45,31,0
2,note_on,50,28,120
2,note_on,45,0,45
2,note_on,50,0,75
2,note_on,45,31,0
2,note_on,50,27,120
2,note_on,45,0,45
2,note_on,50,0,75
2,note_on,46,30,0
2,note_on,50,26,120
2,note_on,46,0,45
2,note_on,50,0,75
2,note_on,46,30,0
2,note_on,50,27,120
2,note_on,46,0,45
2,note_on,50,0,75
2,note_on,46,30,0
2,note_on,50,26,120
2,note_on,46,0,45
2,note_on,50,0,75
2,note_on,46,30,0
2,note_on,50,25,120
2,note_on,46,0,45
2,note_on,50,0,75
2,note_on,42,31,0
2,note_on,50,26,120
2,note_on,42,0,45
2,note_on,50,0,75
2,note_on,42,31,0
2,note_on,50,27,120
2,note_on,42,0,45
2,note_on,50,0,75
2,note_on,42,31,0
2,note_on,50,28,120
2,note_on,42,0,45
2,note_on,50,0,75
2,note_on,42,31,0
2,note_on,50,27,120
2,note_on,42,0,45
2,note_on,50,0,75
2,note_on,43,31,0
2,note_on,50,27,120
2,note_on,43,0,45
2,note_on,50,0,75
2,note_on,43,31,0
2,note_on,50,29,120
2,note_on,43,0,45
2,note_on,50,0,75
2,note_on,43,32,0
2,note_on,50,28,120
2,note_on,43,0,45
2,note_on,50,0,75
2,note_on,43,34,0
2,note_on,50,29,120
2,note_on,43,0,45
2,note_on,50,0,75
2,note_on,45,36,0
2,note_on,50,31,120
2,note_on,45,0,45
2,note_on,50,0,75
2,note_on,45,38,0
2,note_on,50,35,120
2,note_on,45,0,45
2,note_on,50,0,75
2,note_on,45,40,0
2,note_on,50,37,120
2,note_on,45,0,45
2,note_on,50,0,75
2,note_on,45,43,0
2,note_on,50,38,120
2,note_on,45,0,45
2,note_on,50,0,75
2,note_on,46,45,0
2,note_on,50,39,120
2,note_on,46,0,45
2,note_on,50,0,75
2,note_on,46,48,0
2,note_on,50,42,120
2,note_on,46,0,45
2,note_on,50,0,75
2,note_on,46,50,0
2,note_on,55,46,120
2,note_on,46,0,45
2,note_on,55,0,75
2,note_on,46,54,0
2,note_on,55,51,120
2,note_on,46,0,45
2,note_on,55,0,75
2,note_on,47,64,0
2,note_on,55,53,120
2,note_on,47,0,45
2,note_on,55,0,75
2,note_on,47,64,0
2,note_on,55,56,120
2,note_on,47,0,45
2,note_on,55,0,75
2,note_on,47,66,0
2,note_on,55,59,120
2,note_on,47,0,45
2,note_on,55,0,75
2,note_on,47,66,0
2,note_on,55,57,120
2,note_on,47,0,45
2,note_on,55,0,75
2,note_on,48,30,0
2,note_on,55,26,120
2,note_on,48,0,45
2,note_on,55,0,75
2,note_on,48,30,0
2,note_on,55,27,120
2,note_on,48,0,45
2,note_on,55,0,75
2,note_on,48,30,0
2,note_on,55,26,120
2,note_on,48,0,45
2,note_on,55,0,75
2,note_on,48,30,0
2,note_on,55,25,120
2,note_on,48,0,45
2,note_on,55,0,75
2,note_on,50,31,0
2,note_on,55,26,120
2,note_on,50,0,45
2,note_on,55,0,75
2,note_on,50,31,0
2,note_on,55,27,120
2,note_on,50,0,45
2,note_on,55,0,75
2,note_on,50,31,0
2,note_on,55,28,120
2,note_on,50,0,45
2,note_on,55,0,75
2,note_on,50,31,0
2,note_on,55,27,120
2,note_on,50,0,45
2,note_on,55,0,75
2,note_on,51,30,0
2,note_on,55,26,120
2,note_on,51,0,45
2,note_on,55,0,75
2,note_on,51,30,0
2,note_on,55,27,120
2,note_on,51,0,45
2,note_on,55,0,75
2,note_on,51,30,0
2,note_on,55,26,120
2,note_on,51,0,45
2,note_on,55,0,75
2,note_on,51,30,0
2,note_on,55,25,120
2,note_on,51,0,45
2,note_on,55,0,75
2,note_on,47,31,0
2,note_on,55,26,120
2,note_on,47,0,45
2,note_on,55,0,75
2,note_on,47,31,0
2,note_on,55,27,120
2,note_on,47,0,45
2,note_on,55,0,75
2,note_on,47,31,0
2,note_on,55,28,120
2,note_on,47,0,45
2,note_on,55,0,75
2,note_on,47,31,0
2,note_on,55,27,120
2,note_on,47,0,45
2,note_on,55,0,75
2,note_on,48,31,0
2,note_on,55,27,120
2,note_on,48,0,45
2,note_on,55,0,75
2,note_on,48,31,0
2,note_on,55,29,120
2,note_on,48,0,45
2,note_on,55,0,75
2,note_on,48,32,0
2,note_on,55,28,120
2,note_on,48,0,45
2,note_on,55,0,75
2,note_on,48,34,0
2,note_on,55,29,120
2,note_on,48,0,45
2,note_on,55,0,75
2,note_on,50,36,0
2,note_on,55,31,120
2,note_on,50,0,45
2,note_on,55,0,75
2,note_on,50,38,0
2,note_on,55,35,120
2,note_on,50,0,45
2,note_on,55,0,75
2,note_on,50,40,0
2,note_on,55,37,120
2,note_on,50,0,45
2,note_on,55,0,75
2,note_on,50,43,0
2,note_on,55,38,120
2,note_on,50,0,45
2,note_on,55,0,75
2,note_on,51,45,0
2,note_on,55,39,120
2,note_on,51,0,45
2,note_on,55,0,75
2,note_on,51,48,0
2,note_on,55,42,120
2,note_on,51,0,45
2,note_on,55,0,75
2,note_on,51,50,0
2,note_on,60,46,120
2,note_on,51,0,45
2,note_on,60,0,75
2,note_on,51,54,0
2,note_on,60,47,120
2,note_on,51,0,45
2,note_on,60,0,75
2,note_on,52,64,0
2,note_on,60,53,120
2,note_on,52,0,45
2,note_on,60,0,75
2,note_on,52,64,0
2,note_on,60,56,120
2,note_on,52,0,45
2,note_on,60,0,75
2,note_on,52,66,0
2,note_on,60,59,120
2,note_on,52,0,45
2,note_on,60,0,75
2,note_on,52,66,0
2,note_on,60,57,120
2,note_on,52,0,45
2,note_on,60,0,75
2,note_on,53,25,0
2,note_on,53,0,120
2,note_on,56,22,0
2,note_on,56,0,120
2,note_on,60,22,0
2,note_on,60,0,120
2,note_on,65,22,0
2,note_on,65,0,120
2,note_on,53,25,0
2,note_on,53,0,120
2,note_on,56,22,0
2,note_on,56,0,120
2,note_on,60,22,0
2,note_on,60,0,120
2,note_on,65,22,0
2,note_on,65,0,120
2,note_on,53,26,0
2,note_on,53,0,120
2,note_on,58,22,0
2,note_on,58,0,120
2,note_on,61,22,0
2,note_on,61,0,120
2,note_on,65,22,0
2,note_on,65,0,120
2,note_on,53,26,0
2,note_on,53,0,120
2,note_on,58,23,0
2,note_on,58,0,120
2,note_on,61,22,0
2,note_on,61,0,120
2,note_on,65,22,0
2,note_on,65,0,120
2,note_on,52,25,0
2,note_on,52,0,120
2,note_on,54,22,0
2,note_on,54,0,120
2,note_on,58,22,0
2,note_on,58,0,120
2,note_on,61,22,0
2,note_on,61,0,120
2,note_on,52,25,0
2,note_on,52,0,120
2,note_on,54,22,0
2,note_on,54,0,120
2,note_on,58,22,0
2,note_on,58,0,120
2,note_on,61,22,0
2,note_on,61,0,120
2,note_on,51,26,0
2,note_on,51,0,120
2,note_on,54,22,0
2,note_on,54,0,120
2,note_on,59,22,0
2,note_on,59,0,120
2,note_on,63,22,0
2,note_on,63,0,120
2,note_on,51,26,0
2,note_on,51,0,120
2,note_on,54,23,0
2,note_on,54,0,120
2,note_on,59,22,0
2,note_on,59,0,120
2,note_on,63,22,0
2,note_on,63,0,120
2,note_on,51,25,0
2,note_on,51,0,120
2,note_on,53,22,0
2,note_on,53,0,120
2,note_on,57,22,0
2,note_on,57,0,120
2,note_on,60,22,0
2,note_on,60,0,120
2,note_on,51,25,0
2,note_on,51,0,120
2,note_on,53,22,0
2,note_on,53,0,120
2,note_on,57,22,0
2,note_on,57,0,120
2,note_on,60,22,0
2,note_on,60,0,120
2,note_on,49,26,0
2,note_on,49,0,120
2,note_on,53,22,0
2,note_on,53,0,120
2,note_on,58,22,0
2,note_on,58,0,120
2,note_on,61,22,0
2,note_on,61,0,120
2,note_on,49,26,0
2,note_on,49,0,120
2,note_on,53,23,0
2,note_on,53,0,120
2,note_on,58,22,0
2,note_on,58,0,120
2,note_on,61,22,0
2,note_on,61,0,120
2,note_on,49,25,0
2,note_on,49,0,120
2,note_on,51,22,0
2,note_on,51,0,120
2,note_on,55,22,0
2,note_on,55,0,120
2,note_on,58,22,0
2,note_on,58,0,120
2,note_on,49,25,0
2,note_on,49,0,120
2,note_on,51,22,0
2,note_on,51,0,120
2,note_on,55,22,0
2,note_on,55,0,120
2,note_on,58,22,0
2,note_on,58,0,120
2,note_on,48,26,0
2,note_on,48,0,120
2,note_on,51,22,0
2,note_on,51,0,120
2,note_on,56,22,0
2,note_on,56,0,120
2,note_on,60,22,0
2,note_on,60,0,120
2,note_on,48,26,0
2,note_on,48,0,120
2,note_on,51,23,0
2,note_on,51,0,120
2,note_on,56,22,0
2,note_on,56,0,120
2,note_on,60,22,0
2,note_on,60,0,120
2,note_on,47,25,0
2,note_on,47,0,120
2,note_on,49,22,0
2,note_on,49,0,120
2,note_on,53,22,0
2,note_on,53,0,120
2,note_on,56,22,0
2,note_on,56,0,120
2,note_on,47,25,0
2,note_on,47,0,120
2,note_on,49,22,0
2,note_on,49,0,120
2,note_on,53,22,0
2,note_on,53,0,120
2,note_on,56,22,0
2,note_on,56,0,120
2,note_on,46,26,0
2,note_on,46,0,120
2,note_on,49,22,0
2,note_on,49,0,120
2,note_on,54,22,0
2,note_on,54,0,120
2,note_on,58,22,0
2,note_on,58,0,120
2,note_on,46,26,0
2,note_on,46,0,120
2,note_on,49,23,0
2,note_on,49,0,120
2,note_on,54,22,0
2,note_on,54,0,120
2,note_on,58,22,0
2,note_on,58,0,120
2,note_on,46,26,0
2,note_on,46,0,120
2,note_on,48,23,0
2,note_on,48,0,120
2,note_on,52,23,0
2,note_on,52,0,120
2,note_on,55,23,0
2,note_on,55,0,120
2,note_on,46,26,0
2,note_on,46,0,120
2,note_on,48,23,0
2,note_on,48,0,120
2,note_on,52,23,0
2,note_on,52,0,120
2,note_on,55,23,0
2,note_on,55,0,120
2,note_on,44,27,0
2,note_on,44,0,120
2,note_on,48,23,0
2,note_on,48,0,120
2,note_on,53,23,0
2,note_on,53,0,120
2,note_on,56,23,0
2,note_on,56,0,120
2,note_on,44,28,0
2,note_on,44,0,120
2,note_on,48,25,0
2,note_on,48,0,120
2,note_on,53,23,0
2,note_on,53,0,120
2,note_on,56,23,0
2,note_on,56,0,120
2,note_on,43,32,0
2,note_on,43,0,120
2,note_on,46,28,0
2,note_on,46,0,120
2,note_on,52,28,0
2,note_on,52,0,120
2,note_on,55,29,0
2,note_on,55,0,120
2,note_on,43,34,0
2,note_on,43,0,120
2,note_on,46,29,0
2,note_on,46,0,120
2,note_on,52,31,0
2,note_on,52,0,120
2,note_on,55,32,0
2,note_on,55,0,120
2,note_on,41,39,0
2,note_on,41,0,120
2,note_on,44,33,0
2,note_on,44,0,120
2,note_on,48,33,0
2,note_on,48,0,120
2,note_on,53,34,0
2,note_on,53,0,120
2,note_on,41,41,0
2,note_on,41,0,160
2,note_on,44,35,0
2,note_on,44,0,160
2,note_on,53,36,0
2,note_on,53,0,160
2,note_on,40,44,0
2,note_on,40,0,160
2,note_on,43,45,0
2,note_on,43,0,160
2,note_on,52,47,0
2,note_on,52,0,160
2,note_on,39,47,0
2,note_on,39,0,160
2,note_on,43,49,0
2,note_on,43,0,160
2,note_on,51,51,0
2,note_on,51,0,160
2,note_on,38,54,0
2,note_on,38,0,160
2,note_on,41,53,0
2,note_on,41,0,160
2,note_on,50,56,0
2,note_on,50,0,160
2,note_on,37,56,0
2,note_on,37,0,160
2,note_on,41,58,0
2,note_on,41,0,160
2,note_on,49,59,0
2,note_on,49,0,160
2,note_on,36,66,0
2,note_on,48,70,0
2,note_on,48,0,160
2,note_on,36,0,0
2,note_on,43,61,0
2,note_on,43,0,160
2,note_on,40,62,0
2,note_on,40,0,160
2,note_on,43,70,0
2,note_on,43,0,160
2,note_on,48,63,0
2,note_on,48,0,160
2,note_on,52,64,0
2,note_on,52,0,160
2,note_on,50,70,0
2,note_on,50,0,160
2,note_on,47,63,0
2,note_on,47,0,160
2,note_on,43,64,0
2,note_on,43,0,160
2,note_on,47,70,0
2,note_on,47,0,160
2,note_on,50,65,0
2,note_on,50,0,160
2,note_on,53,65,0
2,note_on,53,0,160
2,note_on,52,64,0
2,note_on,52,0,160
2,note_on,55,56,0
2,note_on,55,0,160
2,note_on,60,56,0
2,note_on,60,0,160
2,note_on,55,64,0
2,note_on,55,0,160
2,note_on,52,57,0
2,note_on,52,0,160
2,note_on,48,57,0
2,note_on,48,0,160
2,note_on,53,64,0
2,note_on,53,0,160
2,note_on,56,56,0
2,note_on,56,0,160
2,note_on,60,56,0
2,note_on,60,0,160
2,note_on,56,64,0
2,note_on,56,0,160
2,note_on,53,57,0
2,note_on,53,0,160
2,note_on,48,58,0
2,note_on,48,0,160
2,note_on,55,64,0
2,note_on,58,56,160
2,note_on,60,56,160
2,note_on,58,0,160
2,note_on,58,64,0
2,note_on,55,0,160
2,note_on,55,57,0
2,note_on,48,57,160
2,note_on,48,0,3040
2,note_on,60,0,0
2,note_on,58,0,0
2,note_on,55,0,0
2,note_on,41,66,0
2,note_on,53,70,0
2,note_on,53,0,160
2,note_on,41,0,0
2,note_on,48,61,0
2,note_on,48,0,160
2,note_on,45,62,0
2,note_on,45,0,160
2,note_on,48,70,0
2,note_on,48,0,160
2,note_on,53,63,0
2,note_on,53,0,160
2,note_on,57,64,0
2,note_on,57,0,160
2,note_on,55,70,0
2,note_on,55,0,160
2,note_on,52,63,0
2,note_on,52,0,160
2,note_on,48,64,0
2,note_on,48,0,160
2,note_on,52,70,0
2,note_on,52,0,160
2,note_on,55,65,0
2,note_on,55,0,160
2,note_on,58,65,0
2,note_on,58,0,160
2,note_on,57,64,0
2,note_on,57,0,160
2,note_on,60,56,0
2,note_on,60,0,160
2,note_on,65,56,0
2,note_on,65,0,160
2,note_on,60,64,0
2,note_on,60,0,160
2,note_on,57,57,0
2,note_on,57,0,160
2,note_on,53,57,0
2,note_on,53,0,160
2,note_on,58,64,0
2,note_on,58,0,160
2,note_on,61,56,0
2,note_on,61,0,160
2,note_on,65,56,0
2,note_on,65,0,160
2,note_on,61,64,0
2,note_on,61,0,160
2,note_on,58,57,0
2,note_on,58,0,160
2,note_on,53,58,0
2,note_on,53,0,160
2,note_on,60,64,0
2,note_on,63,56,160
2,note_on,65,56,160
2,note_on,63,0,160
2,note_on,63,64,0
2,note_on,60,0,160
2,note_on,60,57,0
2,note_on,53,57,160
2,note_on,53,0,3040
2,note_on,65,0,0
2,note_on,63,0,0
2,note_on,60,0,0
2,note_on,34,66,0
2,note_on,46,70,0
2,note_on,46,0,160
2,note_on,34,0,0
2,note_on,41,61,0
2,note_on,41,0,160
2,note_on,38,62,0
2,note_on,38,0,160
2,note_on,41,70,0
2,note_on,41,0,160
2,note_on,46,63,0
2,note_on,46,0,160
2,note_on,50,64,0
2,note_on,50,0,160
2,note_on,48,70,0
2,note_on,48,0,160
2,note_on,45,63,0
2,note_on,45,0,160
2,note_on,41,64,0
2,note_on,41,0,160
2,note_on,45,70,0
2,note_on,45,0,160
2,note_on,48,65,0
2,note_on,48,0,160
2,note_on,51,65,0
2,note_on,51,0,160
2,note_on,50,64,0
2,note_on,50,0,160
2,note_on,53,56,0
2,note_on,53,0,160
2,note_on,58,56,0
2,note_on,58,0,160
2,note_on,53,64,0
2,note_on,53,0,160
2,note_on,50,57,0
2,note_on,50,0,160
2,note_on,46,57,0
2,note_on,46,0,160
2,note_on,51,64,0
2,note_on,51,0,160
2,note_on,54,56,0
2,note_on,54,0,160
2,note_on,58,56,0
2,note_on,58,0,160
2,note_on,54,64,0
2,note_on,54,0,160
2,note_on,51,57,0
2,note_on,51,0,160
2,note_on,46,58,0
2,note_on,46,0,160
2,note_on,53,64,0
2,note_on,56,56,160
2,note_on,58,56,160
2,note_on,56,0,160
2,note_on,56,64,0
2,note_on,53,0,160
2,note_on,53,57,0
2,note_on,46,57,160
2,note_on,46,0,3040
2,note_on,58,0,0
2,note_on,56,0,0
2,note_on,53,0,0
2,note_on,51,64,0
2,note_on,54,56,160
2,note_on,58,56,160
2,note_on,54,0,160
2,note_on,54,64,0
2,note_on,51,0,160
2,note_on,51,57,0
2,note_on,46,57,160
2,note_on,46,0,3040
2,note_on,58,0,0
2,note_on,54,0,0
2,note_on,51,0,0
2,note_on,49,64,0
2,note_on,54,56,160
2,note_on,58,56,160
2,note_on,54,0,160
2,note_on,54,64,0
2,note_on,49,0,160
2,note_on,49,57,0
2,note_on,46,57,160
2,note_on,46,0,3040
2,note_on,58,0,0
2,note_on,54,0,0
2,note_on,49,0,0
2,note_on,50,64,0
2,note_on,54,56,160
2,note_on,59,56,160
2,note_on,54,0,160
2,note_on,54,64,0
2,note_on,50,0,160
2,note_on,50,57,0
2,note_on,47,57,160
2,note_on,47,0,3040
2,note_on,59,0,0
2,note_on,54,0,0
2,note_on,50,0,0
2,note_on,50,64,0
2,note_on,55,56,160
2,note_on,59,56,160
2,note_on,55,0,160
2,note_on,55,64,0
2,note_on,50,0,160
2,note_on,50,57,0
2,note_on,47,57,160
2,note_on,47,0,3040
2,note_on,59,0,0
2,note_on,55,0,0
2,note_on,50,0,0
2,note_on,51,64,0
2,note_on,55,56,160
2,note_on,60,56,160
2,note_on,55,0,160
2,note_on,55,64,0
2,note_on,51,0,160
2,note_on,51,57,0
2,note_on,48,57,160
2,note_on,48,0,3040
2,note_on,60,0,0
2,note_on,55,0,0
2,note_on,51,0,0
2,note_on,56,64,0
2,note_on,61,56,160
2,note_on,65,56,160
2,note_on,61,0,160
2,note_on,61,64,0
2,note_on,56,0,160
2,note_on,56,57,0
2,note_on,53,57,160
2,note_on,53,0,1120
2,note_on,65,0,0
2,note_on,61,0,0
2,note_on,56,0,0
2,note_on,60,64,0
2,note_on,63,56,160
2,note_on,66,56,160
2,note_on,63,0,160
2,note_on,63,64,0
2,note_on,60,0,160
2,note_on,60,57,0
2,note_on,54,57,160
2,note_on,63,0,160
2,note_on,66,0,960
2,note_on,60,0,0
2,note_on,54,0,0
2,note_on,59,70,0
2,note_on,62,61,160
2,note_on,67,61,160
2,note_on,62,0,160
2,note_on,62,70,0
2,note_on,59,0,160
2,note_on,59,62,0
2,note_on,55,62,160
2,note_on,59,0,640
2,note_on,67,0,0
2,note_on,62,0,0
2,note_on,62,36,0
2,note_on,62,0,480
2,note_on,59,41,0
2,note_on,59,0,480
2,note_on,55,0,0
2,note_on,55,36,0
2,note_on,60,36,480
2,note_on,60,0,480
2,note_on,66,36,0
2,note_on,66,0,480
2,note_on,55,0,0
2,note_on,47,62,0
2,note_on,50,55,160
2,note_on,55,55,160
2,note_on,50,0,160
2,note_on,50,62,0
2,note_on,47,0,160
2,note_on,47,56,0
2,note_on,43,56,160
2,note_on,55,0,475
2,note_on,50,0,165
2,note_on,47,0,0
2,note_on,50,32,0
2,note_on,50,0,480
2,note_on,47,36,0
2,note_on,47,0,480
2,note_on,43,0,0
2,note_on,43,32,0
2,note_on,48,32,480
2,note_on,48,0,480
2,note_on,54,32,0
2,note_on,54,0,480
2,note_on,55,36,0
2,note_on,55,0,240
2,note_on,43,0,0
2,note_on,48,32,240
2,note_on,48,0,480
2,note_on,43,31,0
2,note_on,43,0,480
2,note_on,36,30,0
2,note_on,36,0,480
2,note_on,31,33,0
2,note_on,31,0,480
2,note_on,36,28,0
2,note_on,36,0,480
2,note_on,31,27,0
2,note_on,31,0,480
2,note_on,36,26,0
2,note_on,36,0,480
2,note_on,31,37,0
2,note_on,31,0,120
2,note_on,36,33,0
2,note_on,36,0,120
2,note_on,35,33,0
2,note_on,35,0,120
2,note_on,33,33,0
2,note_on,33,0,120
2,note_on,31,37,0
2,note_on,31,0,120
2,note_on,36,33,0
2,note_on,36,0,120
2,note_on,35,33,0
2,note_on,35,0,120
2,note_on,33,33,0
2,note_on,33,0,120
2,note_on,31,37,0
2,note_on,31,0,120
2,note_on,36,33,0
2,note_on,36,0,120
2,note_on,35,33,0
2,note_on,35,0,120
2,note_on,33,33,0
2,note_on,33,0,120
2,note_on,31,37,0
2,note_on,31,0,120
2,note_on,36,33,0
2,note_on,36,0,120
2,note_on,35,33,0
2,note_on,35,0,120
2,note_on,33,33,0
2,note_on,33,0,120
2,note_on,31,33,0
2,note_on,31,0,2040
2,note_on,36,33,0
2,note_on,36,0,120
2,note_on,35,33,0
2,note_on,35,0,120
2,note_on,33,33,0
2,note_on,33,0,120
2,note_on,31,37,0
2,note_on,31,0,120
2,note_on,36,33,0
2,note_on,36,0,120
2,note_on,35,33,0
2,note_on,35,0,120
2,note_on,33,33,0
2,note_on,33,0,120
2,note_on,31,37,0
2,note_on,31,0,120
2,note_on,36,33,0
2,note_on,36,0,120
2,note_on,35,33,0
2,note_on,35,0,120
2,note_on,33,33,0
2,note_on,33,0,120
2,note_on,31,37,0
2,note_on,31,0,120
2,note_on,36,33,0
2,note_on,36,0,120
2,note_on,35,33,0
2,note_on,35,0,120
2,note_on,33,33,0
2,note_on,33,0,120
2,note_on,31,33,0
2,note_on,31,0,2040
2,note_on,36,33,0
2,note_on,36,0,120
2,note_on,35,33,0
2,note_on,35,0,120
2,note_on,33,33,0
2,note_on,33,0,120
2,note_on,31,37,0
2,note_on,31,0,120
2,note_on,36,33,0
2,note_on,36,0,120
2,note_on,35,33,0
2,note_on,35,0,120
2,note_on,33,33,0
2,note_on,33,0,120
2,note_on,31,38,0
2,note_on,31,0,120
2,note_on,36,33,0
2,note_on,36,0,120
2,note_on,35,34,0
2,note_on,35,0,120
2,note_on,33,34,0
2,note_on,33,0,120
2,note_on,31,38,0
2,note_on,31,0,120
2,note_on,36,34,0
2,note_on,36,0,120
2,note_on,35,34,0
2,note_on,35,0,120
2,note_on,33,34,0
2,note_on,33,0,120
2,note_on,31,39,0
2,note_on,31,0,120
2,note_on,36,35,0
2,note_on,36,0,120
2,note_on,35,35,0
2,note_on,35,0,120
2,note_on,33,35,0
2,note_on,33,0,120
2,note_on,31,39,0
2,note_on,31,0,120
2,note_on,36,35,0
2,note_on,36,0,120
2,note_on,35,35,0
2,note_on,35,0,120
2,note_on,33,35,0
2,note_on,33,0,120
2,note_on,31,40,0
2,note_on,31,0,120
2,note_on,36,36,0
2,note_on,36,0,120
2,note_on,35,36,0
2,note_on,35,0,120
2,note_on,33,36,0
2,note_on,33,0,120
2,note_on,31,40,0
2,note_on,31,0,120
2,note_on,36,36,0
2,note_on,36,0,120
2,note_on,35,36,0
2,note_on,35,0,120
2,note_on,33,36,0
2,note_on,33,0,120
2,note_on,31,41,0
2,note_on,31,0,120
2,note_on,36,36,0
2,note_on,36,0,120
2,note_on,35,37,0
2,note_on,35,0,120
2,note_on,33,37,0
2,note_on,33,0,120
2,note_on,31,42,0
2,note_on,31,0,120
2,note_on,36,37,0
2,note_on,36,0,120
2,note_on,35,37,0
2,note_on,35,0,120
2,note_on,33,37,0
2,note_on,33,0,120
2,note_on,31,42,0
2,note_on,31,0,120
2,note_on,36,38,0
2,note_on,36,0,120
2,note_on,35,38,0
2,note_on,35,0,120
2,note_on,33,38,0
2,note_on,33,0,120
2,note_on,31,44,0
2,note_on,31,0,120
2,note_on,36,38,0
2,note_on,36,0,120
2,note_on,35,38,0
2,note_on,35,0,120
2,note_on,33,38,0
2,note_on,33,0,120
2,note_on,31,44,0
2,note_on,31,0,120
2,note_on,36,39,0
2,note_on,36,0,120
2,note_on,35,39,0
2,note_on,35,0,120
2,note_on,33,39,0
2,note_on,33,0,120
2,note_on,31,45,0
2,note_on,31,0,120
2,note_on,36,39,0
2,note_on,36,0,120
2,note_on,35,39,0
2,note_on,35,0,120
2,note_on,33,39,0
2,note_on,33,0,120
2,note_on,31,45,0
2,note_on,31,0,120
2,note_on,36,39,0
2,note_on,36,0,120
2,note_on,35,40,0
2,note_on,35,0,120
2,note_on,33,40,0
2,note_on,33,0,120
2,note_on,31,46,0
2,note_on,31,0,120
2,note_on,36,40,0
2,note_on,36,0,120
2,note_on,35,40,0
2,note_on,35,0,120
2,note_on,33,40,0
2,note_on,33,0,120
2,note_on,31,46,0
2,note_on,31,0,120
2,note_on,36,41,0
2,note_on,36,0,120
2,note_on,35,41,0
2,note_on,35,0,120
2,note_on,33,41,0
2,note_on,33,0,120
2,note_on,31,47,0
2,note_on,31,0,120
2,note_on,36,41,0
2,note_on,36,0,120
2,note_on,35,41,0
2,note_on,35,0,120
2,note_on,33,41,0
2,note_on,33,0,120
2,note_on,31,48,0
2,note_on,31,0,120
2,note_on,36,42,0
2,note_on,36,0,120
2,note_on,35,42,0
2,note_on,35,0,120
2,note_on,33,42,0
2,note_on,33,0,120
2,note_on,31,48,0
2,note_on,31,0,120
2,note_on,36,42,0
2,note_on,36,0,120
2,note_on,35,42,0
2,note_on,35,0,120
2,note_on,33,42,0
2,note_on,33,0,120
2,note_on,31,49,0
2,note_on,31,0,120
2,note_on,36,42,0
2,note_on,36,0,120
2,note_on,35,44,0
2,note_on,35,0,120
2,note_on,33,44,0
2,note_on,33,0,120
2,note_on,31,49,0
2,note_on,31,0,120
2,note_on,36,44,0
2,note_on,36,0,120
2,note_on,35,44,0
2,note_on,35,0,120
2,note_on,33,44,0
2,note_on,33,0,120
2,note_on,31,50,0
2,note_on,31,0,120
2,note_on,36,45,0
2,note_on,36,0,120
2,note_on,35,45,0
2,note_on,35,0,120
2,note_on,33,45,0
2,note_on,33,0,120
2,note_on,31,50,0
2,note_on,31,0,120
2,note_on,36,45,0
2,note_on,36,0,120
2,note_on,35,45,0
2,note_on,35,0,120
2,note_on,33,45,0
2,note_on,33,0,120
2,note_on,31,51,0
2,note_on,31,0,120
2,note_on,36,46,0
2,note_on,36,0,120
2,note_on,35,46,0
2,note_on,35,0,120
2,note_on,33,46,0
2,note_on,33,0,120
2,note_on,31,52,0
2,note_on,31,0,120
2,note_on,36,47,0
2,note_on,36,0,120
2,note_on,35,48,0
2,note_on,35,0,120
2,note_on,33,48,0
2,note_on,33,0,120
2,note_on,31,54,0
2,note_on,31,0,120
2,note_on,37,49,0
2,note_on,37,0,120
2,note_on,35,49,0
2,note_on,35,0,120
2,note_on,33,50,0
2,note_on,33,0,120
2,note_on,31,56,0
2,note_on,31,0,120
2,note_on,37,51,0
2,note_on,37,0,120
2,note_on,35,51,0
2,note_on,35,0,120
2,note_on,33,51,0
2,note_on,33,0,120
2,note_on,31,57,0
2,note_on,38,52,120
2,note_on,31,0,20
2,note_on,35,52,100
2,note_on,38,0,20
2,note_on,33,53,100
2,note_on,35,0,20
2,note_on,31,59,100
2,note_on,33,0,20
2,note_on,38,54,100
2,note_on,31,0,20
2,note_on,35,54,100
2,note_on,38,0,20
2,note_on,33,54,100
2,note_on,35,0,20
2,note_on,31,61,100
2,note_on,33,0,20
2,note_on,38,55,100
2,note_on,31,0,20
2,note_on,35,56,100
2,note_on,38,0,20
2,note_on,33,56,100
2,note_on,35,0,20
2,note_on,31,63,100
2,note_on,33,0,20
2,note_on,38,57,100
2,note_on,31,0,20
2,note_on,35,57,100
2,note_on,38,0,20
2,note_on,33,57,100
2,note_on,35,0,20
2,note_on,31,67,100
2,note_on,33,0,20
2,note_on,33,66,100
2,note_on,31,0,20
2,note_on,35,65,100
2,note_on,33,0,20
2,note_on,36,63,100
2,note_on,35,0,20
2,note_on,38,62,100
2,note_on,36,0,20
2,note_on,36,63,100
2,note_on,38,0,20
2,note_on,35,64,100
2,note_on,36,0,20
2,note_on,33,66,100
2,note_on,35,0,20
2,note_on,31,66,100
2,note_on,33,0,20
2,note_on,33,65,100
2,note_on,31,0,20
2,note_on,35,64,100
2,note_on,33,0,20
2,note_on,36,64,100
2,note_on,35,0,20
2,note_on,38,61,100
2,note_on,36,0,20
2,note_on,36,63,100
2,note_on,38,0,20
2,note_on,35,65,100
2,note_on,36,0,20
2,note_on,33,67,100
2,note_on,35,0,20
2,note_on,31,69,100
2,note_on,33,0,20
2,note_on,33,66,220
2,note_on,31,0,20
2,note_on,35,65,100
2,note_on,33,0,20
2,note_on,36,64,100
2,note_on,35,0,20
2,note_on,38,63,100
2,note_on,36,0,20
2,note_on,40,63,100
2,note_on,38,0,20
2,note_on,41,62,100
2,note_on,40,0,20
2,note_on,43,61,100
2,note_on,41,0,20
2,note_on,45,60,100
2,note_on,43,0,20
2,note_on,47,59,100
2,note_on,45,0,20
2,note_on,48,58,100
2,note_on,47,0,20
2,note_on,50,57,100
2,note_on,48,0,20
2,note_on,52,56,100
2,note_on,50,0,20
2,note_on,53,55,100
2,note_on,52,0,20
2,note_on,55,55,100
2,note_on,53,0,20
2,note_on,48,54,100
2,note_on,55,0,20
2,note_on,48,0,220
2,note_on,43,26,0
2,note_on,36,22,0
2,note_on,36,0,180
2,note_on,43,0,0
2,note_on,43,26,60
2,note_on,36,22,0
2,note_on,36,0,180
2,note_on,43,0,0
2,note_on,43,27,60
2,note_on,36,22,0
2,note_on,36,0,180
2,note_on,43,0,0
2,note_on,43,27,60
2,note_on,36,22,0
2,note_on,36,0,180
2,note_on,43,0,0
2,note_on,43,28,60
2,note_on,36,23,0
2,note_on,36,0,180
2,note_on,43,0,0
2,note_on,43,28,60
2,note_on,36,23,0
2,note_on,36,0,180
2,note_on,43,0,0
2,note_on,43,29,60
2,note_on,36,24,0
2,note_on,36,0,180
2,note_on,43,0,0
2,note_on,36,25,60
2,note_on,43,30,0
2,note_on,43,0,180
2,note_on,36,0,0
2,note_on,36,22,60
2,note_on,43,27,0
2,note_on,43,0,180
2,note_on,36,0,0
2,note_on,36,23,60
2,note_on,43,28,0
2,note_on,43,0,180
2,note_on,36,0,0
2,note_on,36,24,60
2,note_on,43,29,0
2,note_on,43,0,180
2,note_on,36,0,0
2,note_on,36,25,60
2,note_on,43,30,0
2,note_on,43,0,180
2,note_on,36,0,0
2,note_on,36,25,60
2,note_on,43,30,0
2,note_on,43,0,180
2,note_on,36,0,0
2,note_on,36,25,60
2,note_on,45,30,0
2,note_on,45,0,180
2,note_on,36,0,0
2,note_on,36,25,60
2,note_on,45,30,0
2,note_on,45,0,180
2,note_on,36,0,0
2,note_on,35,25,60
2,note_on,43,30,0
2,note_on,43,0,180
2,note_on,35,0,0
2,note_on,35,25,60
2,note_on,43,30,0
2,note_on,43,0,180
2,note_on,35,0,0
2,note_on,35,25,60
2,note_on,43,30,0
2,note_on,43,0,180
2,note_on,35,0,0
2,note_on,35,25,60
2,note_on,43,30,0
2,note_on,43,0,180
2,note_on,35,0,0
2,note_on,35,25,60
2,note_on,43,30,0
2,note_on,43,0,180
2,note_on,35,0,0
2,note_on,35,25,60
2,note_on,43,30,0
2,note_on,43,0,180
2,note_on,35,0,0
2,note_on,35,25,60
2,note_on,43,30,0
2,note_on,43,0,180
2,note_on,35,0,0
2,note_on,35,25,60
2,note_on,43,30,0
2,note_on,43,0,180
2,note_on,35,0,0
2,note_on,35,25,60
2,note_on,43,30,0
2,note_on,43,0,180
2,note_on,35,0,0
2,note_on,35,25,60
2,note_on,43,30,0
2,note_on,43,0,180
2,note_on,35,0,0
2,note_on,35,25,60
2,note_on,43,30,0
2,note_on,43,0,180
2,note_on,35,0,0
2,note_on,35,25,60
2,note_on,43,30,0
2,note_on,43,0,180
2,note_on,35,0,0
2,note_on,35,25,60
2,note_on,43,30,0
2,note_on,43,0,180
2,note_on,35,0,0
2,note_on,35,25,60
2,note_on,43,30,0
2,note_on,43,0,180
2,note_on,35,0,0
2,note_on,35,25,60
2,note_on,43,30,0
2,note_on,43,0,180
2,note_on,35,0,0
2,note_on,35,25,60
2,note_on,43,30,0
2,note_on,43,0,180
2,note_on,35,0,0
2,note_on,41,30,60
2,note_on,34,26,0
2,note_on,34,0,180
2,note_on,41,0,0
2,note_on,41,30,60
2,note_on,34,25,0
2,note_on,34,0,180
2,note_on,41,0,0
2,note_on,41,30,60
2,note_on,34,25,0
2,note_on,34,0,180
2,note_on,41,0,0
2,note_on,41,31,60
2,note_on,34,26,0
2,note_on,34,0,180
2,note_on,41,0,0
2,note_on,41,31,60
2,note_on,34,26,0
2,note_on,34,0,180
2,note_on,41,0,0
2,note_on,41,31,60
2,note_on,34,26,0
2,note_on,34,0,180
2,note_on,41,0,0
2,note_on,41,31,60
2,note_on,34,26,0
2,note_on,34,0,180
2,note_on,41,0,0
2,note_on,41,31,60
2,note_on,34,26,0
2,note_on,34,0,180
2,note_on,41,0,0
2,note_on,34,26,60
2,note_on,41,31,0
2,note_on,41,0,180
2,note_on,34,0,0
2,note_on,34,26,60
2,note_on,41,31,0
2,note_on,41,0,180
2,note_on,34,0,0
2,note_on,34,26,60
2,note_on,41,31,0
2,note_on,41,0,180
2,note_on,34,0,0
2,note_on,34,26,60
2,note_on,41,31,0
2,note_on,41,0,180
2,note_on,34,0,0
2,note_on,34,26,60
2,note_on,41,31,0
2,note_on,41,0,180
2,note_on,34,0,0
2,note_on,34,25,60
2,note_on,41,30,0
2,note_on,41,0,180
2,note_on,34,0,0
2,note_on,34,25,60
2,note_on,43,30,0
2,note_on,43,0,180
2,note_on,34,0,0
2,note_on,34,25,60
2,note_on,43,30,0
2,note_on,43,0,180
2,note_on,34,0,0
2,note_on,33,25,60
2,note_on,41,30,0
2,note_on,41,0,180
2,note_on,33,0,0
2,note_on,33,25,60
2,note_on,41,30,0
2,note_on,41,0,180
2,note_on,33,0,0
2,note_on,33,25,60
2,note_on,41,30,0
2,note_on,41,0,180
2,note_on,33,0,0
2,note_on,33,25,60
2,note_on,41,30,0
2,note_on,41,0,180
2,note_on,33,0,0
2,note_on,33,25,60
2,note_on,41,30,0
2,note_on,41,0,180
2,note_on,33,0,0
2,note_on,33,25,60
2,note_on,41,30,0
2,note_on,41,0,180
2,note_on,33,0,0
2,note_on,33,25,60
2,note_on,41,30,0
2,note_on,41,0,180
2,note_on,33,0,0
2,note_on,33,25,60
2,note_on,41,30,0
2,note_on,41,0,180
2,note_on,33,0,0
2,note_on,32,25,60
2,note_on,41,30,0
2,note_on,41,0,180
2,note_on,32,0,0
2,note_on,32,25,60
2,note_on,41,30,0
2,note_on,41,0,180
2,note_on,32,0,0
2,note_on,32,25,60
2,note_on,41,30,0
2,note_on,41,0,180
2,note_on,32,0,0
2,note_on,32,25,60
2,note_on,41,30,0
2,note_on,41,0,180
2,note_on,32,0,0
2,note_on,32,25,60
2,note_on,41,30,0
2,note_on,41,0,180
2,note_on,32,0,0
2,note_on,32,25,60
2,note_on,41,30,0
2,note_on,41,0,180
2,note_on,32,0,0
2,note_on,32,25,60
2,note_on,41,30,0
2,note_on,41,0,180
2,note_on,32,0,0
2,note_on,32,25,60
2,note_on,41,30,0
2,note_on,41,0,180
2,note_on,32,0,0
2,note_on,31,30,60
2,note_on,41,36,0
2,note_on,41,0,180
2,note_on,31,0,0
2,note_on,31,32,60
2,note_on,41,38,0
2,note_on,41,0,180
2,note_on,31,0,0
2,note_on,31,33,60
2,note_on,41,39,0
2,note_on,41,0,180
2,note_on,31,0,0
2,note_on,31,34,60
2,note_on,41,41,0
2,note_on,41,0,180
2,note_on,31,0,0
2,note_on,31,36,60
2,note_on,41,43,0
2,note_on,41,0,180
2,note_on,31,0,0
2,note_on,31,38,60
2,note_on,41,45,0
2,note_on,41,0,180
2,note_on,31,0,0
2,note_on,32,39,60
2,note_on,41,46,0
2,note_on,41,0,180
2,note_on,32,0,0
2,note_on,32,40,60
2,note_on,41,48,0
2,note_on,41,0,180
2,note_on,32,0,0
2,note_on,31,44,60
2,note_on,41,52,0
2,note_on,41,0,180
2,note_on,31,0,0
2,note_on,31,44,60
2,note_on,41,52,0
2,note_on,41,0,180
2,note_on,31,0,0
2,note_on,32,45,60
2,note_on,41,55,0
2,note_on,41,0,180
2,note_on,32,0,0
2,note_on,32,46,60
2,note_on,41,55,0
2,note_on,41,0,180
2,note_on,32,0,0
2,note_on,31,48,60
2,note_on,41,58,0
2,note_on,41,0,180
2,note_on,31,0,0
2,note_on,31,51,60
2,note_on,41,60,0
2,note_on,41,0,180
2,note_on,31,0,0
2,note_on,32,54,60
2,note_on,41,64,0
2,note_on,41,0,180
2,note_on,32,0,0
2,note_on,32,56,60
2,note_on,41,66,0
2,note_on,41,0,180
2,note_on,32,0,0
2,note_on,41,85,60
2,note_on,31,70,6
2,note_on,41,0,474
2,note_on,43,81,0
2,note_on,55,96,0
2,note_on,31,0,6
2,note_on,55,0,1194
2,note_on,43,0,0
2,note_on,57,67,0
2,note_on,57,0,120
2,note_on,59,70,0
2,note_on,59,0,120
2,note_on,60,72,0
2,note_on,60,0,180
2,note_on,43,56,300
2,note_on,55,66,0
2,note_on,55,0,180
2,note_on,43,0,0
2,note_on,39,52,300
2,note_on,51,62,0
2,note_on,51,0,180
2,note_on,39,0,0
2,note_on,36,48,300
2,note_on,48,57,0
2,note_on,48,0,180
2,note_on,36,0,0
2,note_on,32,46,300
2,note_on,44,54,0
2,note_on,44,0,1920
2,note_on,32,0,0
2,note_on,61,37,0
2,note_on,61,0,180
2,note_on,56,33,300
2,note_on,56,0,180
2,note_on,53,32,300
2,note_on,53,0,180
2,note_on,49,29,300
2,note_on,49,0,180
2,note_on,34,24,300
2,note_on,46,29,0
2,note_on,46,0,1920
2,note_on,34,0,0
2,note_on,63,41,0
2,note_on,63,0,180
2,note_on,58,37,300
2,note_on,58,0,180
2,note_on,55,37,300
2,note_on,55,0,180
2,note_on,51,37,300
2,note_on,51,0,180
2,note_on,53,35,300
2,note_on,53,0,180
2,note_on,56,38,300
2,note_on,56,0,180
2,note_on,57,39,300
2,note_on,57,0,180
2,note_on,54,37,300
2,note_on,54,0,180
2,note_on,55,46,300
2,note_on,55,0,180
2,note_on,54,44,300
2,note_on,54,0,180
2,note_on,55,60,300
2,note_on,55,0,180
2,note_on,43,56,300
2,note_on,43,0,180
2,note_on,36,70,300
2,note_on,48,70,0
2,note_on,48,0,240
2,note_on,48,31,0
2,note_on,48,0,119
2,note_on,55,26,1
2,note_on,55,0,120
2,note_on,48,31,0
2,note_on,48,0,119
2,note_on,55,27,1
2,note_on,55,0,120
2,note_on,48,31,0
2,note_on,48,0,119
2,note_on,55,27,1
2,note_on,55,0,120
2,note_on,48,31,0
2,note_on,48,0,119
2,note_on,55,26,1
2,note_on,55,0,120
2,note_on,48,31,0
2,note_on,48,0,119
2,note_on,55,27,1
2,note_on,55,0,120
2,note_on,48,31,0
2,note_on,48,0,119
2,note_on,55,27,1
2,note_on,55,0,120
2,note_on,48,31,0
2,note_on,48,0,119
2,note_on,55,25,1
2,note_on,55,0,120
2,note_on,36,0,0
2,note_on,48,31,0
2,note_on,48,0,119
2,note_on,55,26,1
2,note_on,55,0,120
2,note_on,48,31,0
2,note_on,48,0,119
2,note_on,55,26,1
2,note_on,55,0,120
2,note_on,48,31,0
2,note_on,48,0,119
2,note_on,55,27,1
2,note_on,55,0,120
2,note_on,48,31,0
2,note_on,48,0,119
2,note_on,55,27,1
2,note_on,55,0,120
2,note_on,48,31,0
2,note_on,48,0,119
2,note_on,55,26,1
2,note_on,55,0,120
2,note_on,48,31,0
2,note_on,48,0,119
2,note_on,55,27,1
2,note_on,55,0,120
2,note_on,48,31,0
2,note_on,48,0,119
2,note_on,57,27,1
2,note_on,57,0,120
2,note_on,48,31,0
2,note_on,48,0,119
2,note_on,57,25,1
2,note_on,57,0,120
2,note_on,47,26,0
2,note_on,50,31,0
2,note_on,55,25,120
2,note_on,50,0,60
2,note_on,47,0,0
2,note_on,55,0,60
2,note_on,47,26,0
2,note_on,50,31,0
2,note_on,55,25,120
2,note_on,50,0,60
2,note_on,47,0,0
2,note_on,55,0,60
2,note_on,47,26,0
2,note_on,50,31,0
2,note_on,55,25,120
2,note_on,50,0,60
2,note_on,47,0,0
2,note_on,55,0,60
2,note_on,47,26,0
2,note_on,50,31,0
2,note_on,55,25,120
2,note_on,50,0,60
2,note_on,47,0,0
2,note_on,55,0,60
2,note_on,47,26,0
2,note_on,50,31,0
2,note_on,55,25,120
2,note_on,50,0,60
2,note_on,47,0,0
2,note_on,55,0,60
2,note_on,47,26,0
2,note_on,50,31,0
2,note_on,55,25,120
2,note_on,50,0,60
2,note_on,47,0,0
2,note_on,55,0,60
2,note_on,47,26,0
2,note_on,50,31,0
2,note_on,55,25,120
2,note_on,50,0,60
2,note_on,47,0,0
2,note_on,55,0,60
2,note_on,47,26,0
2,note_on,50,31,0
2,note_on,55,25,120
2,note_on,50,0,60
2,note_on,47,0,0
2,note_on,55,0,60
2,note_on,47,26,0
2,note_on,50,31,0
2,note_on,55,25,120
2,note_on,50,0,60
2,note_on,47,0,0
2,note_on,55,0,60
2,note_on,47,26,0
2,note_on,50,31,0
2,note_on,55,25,120
2,note_on,50,0,60
2,note_on,47,0,0
2,note_on,55,0,60
2,note_on,47,26,0
2,note_on,50,31,0
2,note_on,55,25,120
2,note_on,50,0,60
2,note_on,47,0,0
2,note_on,55,0,60
2,note_on,47,26,0
2,note_on,50,31,0
2,note_on,55,25,120
2,note_on,50,0,60
2,note_on,47,0,0
2,note_on,55,0,60
2,note_on,47,26,0
2,note_on,50,31,0
2,note_on,55,25,120
2,note_on,50,0,60
2,note_on,47,0,0
2,note_on,55,0,60
2,note_on,47,26,0
2,note_on,50,31,0
2,note_on,55,25,120
2,note_on,50,0,60
2,note_on,47,0,0
2,note_on,55,0,60
2,note_on,47,26,0
2,note_on,50,31,0
2,note_on,55,25,120
2,note_on,50,0,60
2,note_on,47,0,0
2,note_on,55,0,60
2,note_on,47,26,0
2,note_on,50,31,0
2,note_on,55,25,120
2,note_on,50,0,60
2,note_on,47,0,0
2,note_on,55,0,60
2,note_on,38,33,0
2,note_on,50,33,0
2,note_on,50,0,240
2,note_on,50,34,0
2,note_on,50,0,119
2,note_on,57,28,1
2,note_on,57,0,120
2,note_on,50,34,0
2,note_on,50,0,119
2,note_on,57,29,1
2,note_on,57,0,120
2,note_on,50,34,0
2,note_on,50,0,119
2,note_on,57,29,1
2,note_on,57,0,120
2,note_on,50,34,0
2,note_on,50,0,119
2,note_on,57,28,1
2,note_on,57,0,120
2,note_on,50,34,0
2,note_on,50,0,119
2,note_on,57,29,1
2,note_on,57,0,120
2,note_on,50,34,0
2,note_on,50,0,119
2,note_on,57,30,1
2,note_on,57,0,120
2,note_on,50,35,0
2,note_on,50,0,119
2,note_on,57,28,1
2,note_on,57,0,120
2,note_on,38,0,0
2,note_on,50,35,0
2,note_on,50,0,119
2,note_on,57,29,1
2,note_on,57,0,120
2,note_on,50,35,0
2,note_on,50,0,119
2,note_on,57,29,1
2,note_on,57,0,120
2,note_on,50,35,0
2,note_on,50,0,119
2,note_on,57,30,1
2,note_on,57,0,120
2,note_on,50,35,0
2,note_on,50,0,119
2,note_on,57,30,1
2,note_on,57,0,120
2,note_on,50,36,0
2,note_on,50,0,119
2,note_on,57,29,1
2,note_on,57,0,120
2,note_on,50,36,0
2,note_on,50,0,119
2,note_on,57,31,1
2,note_on,57,0,120
2,note_on,50,36,0
2,note_on,50,0,119
2,note_on,59,31,1
2,note_on,59,0,120
2,note_on,50,36,0
2,note_on,50,0,119
2,note_on,59,29,1
2,note_on,59,0,120
2,note_on,48,30,0
2,note_on,52,37,0
2,note_on,57,29,120
2,note_on,52,0,60
2,note_on,48,0,0
2,note_on,57,0,60
2,note_on,48,30,0
2,note_on,52,37,0
2,note_on,57,29,120
2,note_on,52,0,60
2,note_on,48,0,0
2,note_on,57,0,60
2,note_on,48,30,0
2,note_on,52,37,0
2,note_on,57,29,120
2,note_on,52,0,60
2,note_on,48,0,0
2,note_on,57,0,60
2,note_on,48,30,0
2,note_on,52,37,0
2,note_on,57,29,120
2,note_on,52,0,60
2,note_on,48,0,0
2,note_on,57,0,60
2,note_on,48,30,0
2,note_on,52,37,0
2,note_on,57,29,120
2,note_on,52,0,60
2,note_on,48,0,0
2,note_on,57,0,60
2,note_on,48,30,0
2,note_on,52,37,0
2,note_on,57,29,120
2,note_on,52,0,60
2,note_on,48,0,0
2,note_on,57,0,60
2,note_on,48,30,0
2,note_on,52,37,0
2,note_on,57,29,120
2,note_on,52,0,60
2,note_on,48,0,0
2,note_on,57,0,60
2,note_on,48,30,0
2,note_on,52,37,0
2,note_on,57,29,120
2,note_on,52,0,60
2,note_on,48,0,0
2,note_on,57,0,60
2,note_on,48,30,0
2,note_on,52,37,0
2,note_on,57,29,120
2,note_on,52,0,60
2,note_on,48,0,0
2,note_on,57,0,60
2,note_on,48,30,0
2,note_on,52,37,0
2,note_on,57,29,120
2,note_on,52,0,60
2,note_on,48,0,0
2,note_on,57,0,60
2,note_on,48,30,0
2,note_on,52,37,0
2,note_on,57,29,120
2,note_on,52,0,60
2,note_on,48,0,0
2,note_on,57,0,60
2,note_on,48,30,0
2,note_on,52,38,0
2,note_on,57,30,120
2,note_on,52,0,60
2,note_on,48,0,0
2,note_on,57,0,60
2,note_on,48,31,0
2,note_on,52,38,0
2,note_on,57,30,120
2,note_on,52,0,60
2,note_on,48,0,0
2,note_on,57,0,60
2,note_on,48,31,0
2,note_on,52,39,0
2,note_on,57,30,120
2,note_on,52,0,60
2,note_on,48,0,0
2,note_on,57,0,60
2,note_on,48,31,0
2,note_on,52,39,0
2,note_on,57,31,120
2,note_on,52,0,60
2,note_on,48,0,0
2,note_on,57,0,60
2,note_on,48,33,0
2,note_on,52,39,0
2,note_on,57,31,120
2,note_on,52,0,60
2,note_on,48,0,0
2,note_on,57,0,60
2,note_on,53,34,0
2,note_on,57,41,0
2,note_on,60,33,120
2,note_on,57,0,60
2,note_on,53,0,0
2,note_on,60,0,60
2,note_on,53,35,0
2,note_on,57,41,0
2,note_on,60,34,120
2,note_on,57,0,60
2,note_on,53,0,0
2,note_on,60,0,60
2,note_on,53,35,0
2,note_on,57,42,0
2,note_on,60,34,120
2,note_on,57,0,60
2,note_on,53,0,0
2,note_on,60,0,60
2,note_on,53,35,0
2,note_on,57,42,0
2,note_on,60,34,120
2,note_on,57,0,60
2,note_on,53,0,0
2,note_on,60,0,60
2,note_on,53,36,0
2,note_on,57,44,0
2,note_on,62,35,120
2,note_on,57,0,60
2,note_on,53,0,0
2,note_on,62,0,60
2,note_on,53,37,0
2,note_on,57,45,0
2,note_on,62,36,120
2,note_on,57,0,60
2,note_on,53,0,0
2,note_on,62,0,60
2,note_on,53,37,0
2,note_on,57,45,0
2,note_on,62,37,120
2,note_on,57,0,60
2,note_on,53,0,0
2,note_on,62,0,60
2,note_on,53,38,0
2,note_on,57,46,0
2,note_on,62,37,120
2,note_on,57,0,60
2,note_on,53,0,0
2,note_on,62,0,60
2,note_on,53,35,0
2,note_on,57,43,0
2,note_on,63,34,120
2,note_on,57,0,60
2,note_on,53,0,0
2,note_on,63,0,60
2,note_on,53,36,0
2,note_on,57,43,0
2,note_on,63,35,120
2,note_on,57,0,60
2,note_on,53,0,0
2,note_on,63,0,60
2,note_on,53,37,0
2,note_on,57,44,0
2,note_on,63,36,120
2,note_on,57,0,60
2,note_on,53,0,0
2,note_on,63,0,60
2,note_on,53,37,0
2,note_on,57,44,0
2,note_on,63,36,120
2,note_on,57,0,60
2,note_on,53,0,0
2,note_on,63,0,60
2,note_on,53,38,0
2,note_on,57,47,0
2,note_on,60,37,120
2,note_on,57,0,60
2,note_on,53,0,0
2,note_on,60,0,60
2,note_on,53,38,0
2,note_on,57,47,0
2,note_on,60,37,120
2,note_on,57,0,60
2,note_on,53,0,0
2,note_on,60,0,60
2,note_on,53,47,0
2,note_on,57,39,120
2,note_on,53,0,60
2,note_on,57,0,60
2,note_on,53,49,0
2,note_on,57,39,120
2,note_on,53,0,60
2,note_on,57,0,60
2,note_on,52,40,0
2,note_on,56,35,120
2,note_on,52,0,20
2,note_on,59,35,100
2,note_on,56,0,20
2,note_on,64,35,100
2,note_on,59,0,20
2,note_on,64,0,100
2,note_on,52,41,0
2,note_on,56,35,120
2,note_on,52,0,20
2,note_on,59,35,100
2,note_on,56,0,20
2,note_on,64,35,100
2,note_on,59,0,20
2,note_on,64,0,100
2,note_on,52,39,0
2,note_on,57,35,120
2,note_on,52,0,20
2,note_on,60,35,100
2,note_on,57,0,20
2,note_on,64,35,100
2,note_on,60,0,20
2,note_on,64,0,100
2,note_on,52,40,0
2,note_on,57,35,120
2,note_on,52,0,20
2,note_on,60,35,100
2,note_on,57,0,20
2,note_on,64,35,100
2,note_on,60,0,20
2,note_on,64,0,100
2,note_on,52,40,0
2,note_on,59,35,120
2,note_on,52,0,20
2,note_on,62,35,100
2,note_on,59,0,20
2,note_on,64,35,100
2,note_on,62,0,20
2,note_on,64,0,100
2,note_on,52,40,0
2,note_on,59,35,120
2,note_on,52,0,20
2,note_on,62,35,100
2,note_on,59,0,20
2,note_on,64,35,100
2,note_on,62,0,20
2,note_on,64,0,100
2,note_on,52,40,0
2,note_on,57,35,120
2,note_on,52,0,20
2,note_on,60,35,100
2,note_on,57,0,20
2,note_on,64,35,100
2,note_on,60,0,20
2,note_on,64,0,100
2,note_on,52,40,0
2,note_on,57,35,120
2,note_on,52,0,20
2,note_on,60,35,100
2,note_on,57,0,20
2,note_on,64,35,100
2,note_on,60,0,20
2,note_on,64,0,100
2,note_on,52,40,0
2,note_on,56,35,120
2,note_on,52,0,20
2,note_on,59,35,100
2,note_on,56,0,20
2,note_on,64,35,100
2,note_on,59,0,20
2,note_on,64,0,100
2,note_on,52,40,0
2,note_on,56,35,120
2,note_on,52,0,20
2,note_on,59,35,100
2,note_on,56,0,20
2,note_on,64,35,100
2,note_on,59,0,20
2,note_on,64,0,100
2,note_on,52,40,0
2,note_on,57,35,120
2,note_on,52,0,20
2,note_on,60,35,100
2,note_on,57,0,20
2,note_on,64,35,100
2,note_on,60,0,20
2,note_on,64,0,100
2,note_on,52,41,0
2,note_on,57,35,120
2,note_on,52,0,20
2,note_on,60,35,100
2,note_on,57,0,20
2,note_on,64,35,100
2,note_on,60,0,20
2,note_on,64,0,100
2,note_on,52,40,0
2,note_on,59,35,120
2,note_on,52,0,20
2,note_on,62,35,100
2,note_on,59,0,20
2,note_on,64,35,100
2,note_on,62,0,20
2,note_on,64,0,100
2,note_on,52,40,0
2,note_on,59,36,120
2,note_on,52,0,20
2,note_on,62,36,100
2,note_on,59,0,20
2,note_on,64,36,100
2,note_on,62,0,20
2,note_on,64,0,100
2,note_on,52,42,0
2,note_on,57,36,120
2,note_on,52,0,20
2,note_on,60,37,100
2,note_on,57,0,20
2,note_on,64,37,100
2,note_on,60,0,20
2,note_on,64,0,100
2,note_on,52,42,0
2,note_on,57,37,120
2,note_on,52,0,20
2,note_on,60,37,100
2,note_on,57,0,20
2,note_on,64,38,100
2,note_on,60,0,20
2,note_on,64,0,100
2,note_on,52,44,0
2,note_on,52,0,120
2,note_on,56,38,0
2,note_on,56,0,120
2,note_on,59,38,0
2,note_on,59,0,120
2,note_on,64,38,0
2,note_on,64,0,120
2,note_on,63,50,0
2,note_on,63,0,120
2,note_on,64,41,0
2,note_on,64,0,120
2,note_on,60,40,0
2,note_on,60,0,120
2,note_on,57,41,0
2,note_on,57,0,120
2,note_on,52,52,0
2,note_on,52,0,120
2,note_on,56,44,0
2,note_on,56,0,120
2,note_on,59,45,0
2,note_on,59,0,120
2,note_on,64,45,0
2,note_on,64,0,120
2,note_on,63,60,0
2,note_on,63,0,120
2,note_on,64,51,0
2,note_on,64,0,120
2,note_on,60,51,0
2,note_on,60,0,120
2,note_on,57,52,0
2,note_on,57,0,120
2,note_on,52,63,0
2,note_on,52,0,120
2,note_on,56,52,0
2,note_on,56,0,120
2,note_on,59,52,0
2,note_on,59,0,120
2,note_on,64,52,0
2,note_on,64,0,120
2,note_on,52,63,0
2,note_on,52,0,120
2,note_on,57,52,0
2,note_on,57,0,120
2,note_on,60,52,0
2,note_on,60,0,120
2,note_on,64,52,0
2,note_on,64,0,120
2,note_on,52,63,0
2,note_on,52,0,120
2,note_on,56,52,0
2,note_on,56,0,120
2,note_on,59,52,0
2,note_on,59,0,120
2,note_on,64,52,0
2,note_on,64,0,120
2,note_on,52,63,0
2,note_on,52,0,120
2,note_on,57,52,0
2,note_on,57,0,120
2,note_on,60,52,0
2,note_on,60,0,120
2,note_on,64,52,0
2,note_on,64,0,120
2,note_on,52,54,0
2,note_on,56,54,0
2,note_on,59,54,0
2,note_on,64,63,0
2,note_on,64,0,480
2,note_on,52,0,0
2,note_on,56,0,0
2,note_on,59,0,0
2,note_on,40,85,2880
2,note_on,40,0,120
2,note_on,44,76,0
2,note_on,44,0,120
2,note_on,47,76,0
2,note_on,47,0,120
2,note_on,52,75,0
2,note_on,52,0,120
2,note_on,40,77,0
2,note_on,40,0,120
2,note_on,52,68,120
2,note_on,52,0,120
2,note_on,42,73,120
2,note_on,42,0,120
2,note_on,54,66,120
2,note_on,54,0,120
2,note_on,44,71,120
2,note_on,44,0,120
2,note_on,56,65,120
2,note_on,56,0,120
2,note_on,44,69,600
2,note_on,44,0,120
2,note_on,56,61,120
2,note_on,56,0,120
2,note_on,45,65,120
2,note_on,45,0,120
2,note_on,57,59,120
2,note_on,57,0,120
2,note_on,47,65,120
2,note_on,47,0,120
2,note_on,59,54,120
2,note_on,59,0,120
2,note_on,47,41,1560
2,note_on,47,0,120
2,note_on,59,36,120
2,note_on,59,0,120
2,note_on,49,41,120
2,note_on,49,0,120
2,note_on,61,36,120
2,note_on,61,0,120
2,note_on,50,40,120
2,note_on,50,0,120
2,note_on,62,37,120
2,note_on,62,0,120
2,note_on,52,39,120
2,note_on,52,0,120
2,note_on,64,36,120
2,note_on,64,0,120
2,note_on,54,38,120
2,note_on,54,0,120
2,note_on,66,37,120
2,note_on,66,0,120
2,note_on,56,40,120
2,note_on,56,0,120
2,note_on,68,37,120
2,note_on,68,0,120
2,note_on,64,33,120
2,note_on,61,33,0
2,note_on,69,39,0
2,note_on,57,33,0
2,note_on,57,0,960
2,note_on,64,0,0
2,note_on,61,0,0
2,note_on,69,0,0
2,note_on,59,29,0
2,note_on,64,35,0
2,note_on,56,29,0
2,note_on,52,29,0
2,note_on,52,0,480
2,note_on,59,0,0
2,note_on,64,0,0
2,note_on,56,0,0
2,note_on,57,29,0
2,note_on,61,29,0
2,note_on,66,35,0
2,note_on,54,29,0
2,note_on,54,0,480
2,note_on,57,0,0
2,note_on,61,0,0
2,note_on,66,0,0
2,note_on,49,33,0
2,note_on,61,39,0
2,note_on,56,33,0
2,note_on,53,33,0
2,note_on,53,0,960
2,note_on,49,0,0
2,note_on,61,0,0
2,note_on,56,0,0
2,note_on,54,28,0
2,note_on,50,28,0
2,note_on,62,34,0
2,note_on,57,28,0
2,note_on,57,0,960
2,note_on,54,0,0
2,note_on,50,0,0
2,note_on,62,0,0
2,note_on,47,37,0
2,note_on,52,45,0
2,note_on,56,37,0
2,note_on,59,45,0
2,note_on,59,0,960
2,note_on,47,0,0
2,note_on,52,0,0
2,note_on,56,0,0
2,note_on,57,40,0
2,note_on,49,40,0
2,note_on,52,40,0
2,note_on,61,49,0
2,note_on,61,0,480
2,note_on,57,0,0
2,note_on,49,0,0
2,note_on,52,0,0
2,note_on,59,46,0
2,note_on,62,55,0
2,note_on,50,36,0
2,note_on,54,41,0
2,note_on,54,0,480
2,note_on,59,0,0
2,note_on,62,0,0
2,note_on,50,0,0
2,note_on,61,49,0
2,note_on,52,49,0
2,note_on,57,49,0
2,note_on,64,59,0
2,note_on,64,0,960
2,note_on,57,0,0
2,note_on,61,0,0
2,note_on,59,27,0
2,note_on,56,27,0
2,note_on,64,32,0
2,note_on,64,0,958
2,note_on,52,0,2
2,note_on,59,0,0
2,note_on,56,0,0
2,note_on,60,35,0
2,note_on,57,29,0
2,note_on,57,0,960
2,note_on,60,0,0
2,note_on,59,31,0
2,note_on,55,26,0
2,note_on,52,26,0
2,note_on,52,0,480
2,note_on,55,0,0
2,note_on,59,0,0
2,note_on,57,31,0
2,note_on,53,26,0
2,note_on,53,0,480
2,note_on,57,0,0
2,note_on,55,35,0
2,note_on,52,29,0
2,note_on,48,29,0
2,note_on,48,0,960
2,note_on,52,0,0
2,note_on,55,0,0
2,note_on,53,30,0
2,note_on,50,25,0
2,note_on,50,0,960
2,note_on,53,0,0
2,note_on,48,35,0
2,note_on,52,35,0
2,note_on,43,26,0
2,note_on,52,0,480
2,note_on,48,0,0
2,note_on,50,35,0
2,note_on,53,35,0
2,note_on,53,0,1440
2,note_on,50,0,0
2,note_on,43,0,0
2,note_on,48,37,0
2,note_on,52,40,0
2,note_on,52,0,480
2,note_on,48,0,0
2,note_on,76,44,1440
2,note_on,72,37,0
2,note_on,72,0,960
2,note_on,76,0,0
2,note_on,77,40,0
2,note_on,74,40,0
2,note_on,71,33,0
2,note_on,68,33,0
2,note_on,68,0,480
2,note_on,77,0,0
2,note_on,74,0,0
2,note_on,71,0,0
2,note_on,76,40,0
2,note_on,72,40,0
2,note_on,69,33,0
2,note_on,69,0,480
2,note_on,72,0,0
2,note_on,76,0,0
2,note_on,74,44,0
2,note_on,71,44,0
2,note_on,68,37,0
2,note_on,64,37,0
2,note_on,64,0,960
2,note_on,74,0,0
2,note_on,71,0,0
2,note_on,68,0,0
2,note_on,72,39,0
2,note_on,69,39,0
2,note_on,65,32,0
2,note_on,65,0,960
2,note_on,69,0,0
2,note_on,72,0,0
2,note_on,62,39,0
2,note_on,65,47,0
2,note_on,67,39,0
2,note_on,71,47,0
2,note_on,71,0,960
2,note_on,62,0,0
2,note_on,65,0,0
2,note_on,67,0,0
2,note_on,64,45,0
2,note_on,67,45,0
2,note_on,72,53,0
2,note_on,72,0,480
2,note_on,67,0,0
2,note_on,64,0,0
2,note_on,72,56,0
2,note_on,74,57,0
2,note_on,65,45,0
2,note_on,69,48,0
2,note_on,69,0,480
2,note_on,72,0,0
2,note_on,74,0,0
2,note_on,65,0,0
2,note_on,67,53,0
2,note_on,72,53,0
2,note_on,76,65,0
2,note_on,76,0,960
2,note_on,72,0,0
2,note_on,71,45,0
2,note_on,74,53,0
2,note_on,74,0,480
2,note_on,71,0,0
2,note_on,67,0,0
2,note_on,55,44,0
2,note_on,55,0,160
2,note_on,57,43,0
2,note_on,57,0,160
2,note_on,59,41,0
2,note_on,59,0,160
2,note_on,64,45,0
2,note_on,60,37,0
2,note_on,60,0,960
2,note_on,64,0,0
2,note_on,62,41,0
2,note_on,59,33,0
2,note_on,56,33,0
2,note_on,56,0,480
2,note_on,59,0,0
2,note_on,62,0,0
2,note_on,60,41,0
2,note_on,57,33,0
2,note_on,57,0,480
2,note_on,60,0,0
2,note_on,59,37,0
2,note_on,62,56,0
2,note_on,56,37,0
2,note_on,52,37,0
2,note_on,52,0,960
2,note_on,59,0,0
2,note_on,62,0,0
2,note_on,56,0,0
2,note_on,53,39,0
2,note_on,57,39,0
2,note_on,60,32,0
2,note_on,60,0,960
2,note_on,57,0,0
2,note_on,53,0,0
2,note_on,48,52,0
2,note_on,43,46,0
2,note_on,52,55,0
2,note_on,52,0,480
2,note_on,48,0,0
2,note_on,50,55,0
2,note_on,53,58,0
2,note_on,53,0,1440
2,note_on,50,0,0
2,note_on,43,0,0
2,note_on,36,50,0
2,note_on,48,60,0
2,note_on,48,0,480
2,note_on,36,0,0
2,note_on,43,60,0
2,note_on,43,0,960
2,note_on,43,60,0
2,note_on,43,0,960
2,note_on,43,60,0
2,note_on,43,0,960
2,note_on,43,60,0
2,note_on,43,0,480
2,note_on,48,73,0
2,note_on,48,0,160
2,note_on,43,67,0
2,note_on,43,0,160
2,note_on,40,69,0
2,note_on,40,0,160
2,note_on,43,73,0
2,note_on,43,0,160
2,note_on,48,69,0
2,note_on,48,0,160
2,note_on,52,69,0
2,note_on,52,0,160
2,note_on,50,73,0
2,note_on,50,0,160
2,note_on,47,69,0
2,note_on,47,0,160
2,note_on,43,69,0
2,note_on,43,0,160
2,note_on,47,73,0
2,note_on,47,0,160
2,note_on,50,69,0
2,note_on,50,0,160
2,note_on,53,69,0
2,note_on,53,0,160
2,note_on,52,73,0
2,note_on,52,0,160
2,note_on,48,67,0
2,note_on,48,0,160
2,note_on,43,69,0
2,note_on,43,0,160
2,note_on,48,73,0
2,note_on,48,0,160
2,note_on,52,69,0
2,note_on,52,0,160
2,note_on,55,69,0
2,note_on,55,0,160
2,note_on,53,73,0
2,note_on,53,0,160
2,note_on,50,69,0
2,note_on,50,0,160
2,note_on,47,69,0
2,note_on,47,0,160
2,note_on,59,73,0
2,note_on,59,0,160
2,note_on,53,69,0
2,note_on,53,0,160
2,note_on,50,69,0
2,note_on,50,0,160
2,note_on,52,64,0
2,note_on,52,0,160
2,note_on,55,56,0
2,note_on,55,0,160
2,note_on,60,56,0
2,note_on,60,0,160
2,note_on,55,64,0
2,note_on,55,0,160
2,note_on,52,57,0
2,note_on,52,0,160
2,note_on,48,57,0
2,note_on,48,0,160
2,note_on,47,64,0
2,note_on,47,0,160
2,note_on,50,56,0
2,note_on,50,0,160
2,note_on,53,56,0
2,note_on,53,0,160
2,note_on,50,64,0
2,note_on,50,0,160
2,note_on,47,57,0
2,note_on,47,0,160
2,note_on,43,58,0
2,note_on,43,0,160
2,note_on,48,64,6
2,note_on,52,56,154
2,note_on,48,0,6
2,note_on,52,0,154
2,note_on,55,56,0
2,note_on,55,0,160
2,note_on,52,64,0
2,note_on,52,0,160
2,note_on,48,57,0
2,note_on,48,0,160
2,note_on,43,57,6
2,note_on,47,64,154
2,note_on,43,0,6
2,note_on,47,0,154
2,note_on,53,56,0
2,note_on,53,0,160
2,note_on,55,56,6
2,note_on,53,64,154
2,note_on,55,0,6
2,note_on,53,0,154
2,note_on,55,57,0
2,note_on,55,0,160
2,note_on,62,58,0
2,note_on,62,0,160
2,note_on,52,64,0
2,note_on,52,0,160
2,note_on,55,55,0
2,note_on,55,0,160
2,note_on,60,55,0
2,note_on,60,0,160
2,note_on,48,62,0
2,note_on,48,0,160
2,note_on,52,55,0
2,note_on,52,0,160
2,note_on,55,54,0
2,note_on,55,0,160
2,note_on,50,59,0
2,note_on,50,0,160
2,note_on,53,51,0
2,note_on,53,0,160
2,note_on,55,51,0
2,note_on,55,0,160
2,note_on,53,57,0
2,note_on,53,0,160
2,note_on,55,51,0
2,note_on,55,0,160
2,note_on,62,51,0
2,note_on,62,0,160
2,note_on,52,56,0
2,note_on,52,0,160
2,note_on,55,48,0
2,note_on,55,0,160
2,note_on,60,48,0
2,note_on,60,0,160
2,note_on,48,54,0
2,note_on,48,0,160
2,note_on,52,48,0
2,note_on,52,0,160
2,note_on,55,47,0
2,note_on,55,0,160
2,note_on,50,51,0
2,note_on,50,0,160
2,note_on,53,44,0
2,note_on,53,0,160
2,note_on,55,44,0
2,note_on,55,0,160
2,note_on,53,50,0
2,note_on,53,0,160
2,note_on,55,44,0
2,note_on,55,0,160
2,note_on,62,44,0
2,note_on,62,0,160
2,note_on,52,50,0
2,note_on,52,0,120
2,note_on,55,43,0
2,note_on,55,0,120
2,note_on,48,43,0
2,note_on,48,0,120
2,note_on,55,44,0
2,note_on,55,0,120
2,note_on,50,51,0
2,note_on,50,0,120
2,note_on,55,44,0
2,note_on,55,0,120
2,note_on,53,44,0
2,note_on,53,0,120
2,note_on,55,44,0
2,note_on,55,0,120
2,note_on,52,52,0
2,note_on,52,0,120
2,note_on,55,46,0
2,note_on,55,0,120
2,note_on,48,47,0
2,note_on,48,0,120
2,note_on,55,49,0
2,note_on,55,0,120
2,note_on,50,55,0
2,note_on,50,0,120
2,note_on,55,48,0
2,note_on,55,0,120
2,note_on,53,48,0
2,note_on,53,0,120
2,note_on,55,49,0
2,note_on,55,0,120
2,note_on,52,58,0
2,note_on,52,0,120
2,note_on,55,50,0
2,note_on,55,0,120
2,note_on,53,51,0
2,note_on,53,0,120
2,note_on,55,52,0
2,note_on,55,0,120
2,note_on,52,60,0
2,note_on,52,0,120
2,note_on,55,52,0
2,note_on,55,0,120
2,note_on,53,52,0
2,note_on,53,0,120
2,note_on,55,54,0
2,note_on,55,0,120
2,note_on,52,62,0
2,note_on,52,0,120
2,note_on,55,55,0
2,note_on,55,0,120
2,note_on,53,55,0
2,note_on,53,0,120
2,note_on,55,57,0
2,note_on,55,0,120
2,note_on,52,65,0
2,note_on,52,0,120
2,note_on,55,57,0
2,note_on,55,0,120
2,note_on,53,57,0
2,note_on,53,0,120
2,note_on,55,58,0
2,note_on,55,0,120
2,note_on,52,70,0
2,note_on,52,0,120
2,note_on,55,60,0
2,note_on,55,0,120
2,note_on,40,60,0
2,note_on,40,0,120
2,note_on,48,62,0
2,note_on,48,0,120
2,note_on,40,70,0
2,note_on,40,0,120
2,note_on,48,60,0
2,note_on,48,0,120
2,note_on,40,60,0
2,note_on,40,0,120
2,note_on,48,60,0
2,note_on,48,0,120
2,note_on,40,70,0
2,note_on,40,0,120
2,note_on,48,60,0
2,note_on,48,0,120
2,note_on,40,60,0
2,note_on,40,0,120
2,note_on,48,62,0
2,note_on,48,0,120
2,note_on,40,70,0
2,note_on,40,0,120
2,note_on,48,60,0
2,note_on,48,0,120
2,note_on,40,60,0
2,note_on,40,0,120
2,note_on,48,60,0
2,note_on,48,0,120
2,note_on,40,70,0
2,note_on,40,0,120
2,note_on,48,60,0
2,note_on,48,0,120
2,note_on,40,60,0
2,note_on,40,0,120
2,note_on,48,62,0
2,note_on,48,0,120
2,note_on,40,70,0
2,note_on,40,0,120
2,note_on,48,60,0
2,note_on,48,0,120
2,note_on,40,60,0
2,note_on,40,0,120
2,note_on,48,61,0
2,note_on,48,0,120
2,note_on,40,71,0
2,note_on,40,0,120
2,note_on,48,61,0
2,note_on,48,0,120
2,note_on,40,61,0
2,note_on,40,0,120
2,note_on,48,63,0
2,note_on,48,0,120
2,note_on,40,72,0
2,note_on,40,0,120
2,note_on,48,62,0
2,note_on,48,0,120
2,note_on,40,62,0
2,note_on,40,0,120
2,note_on,48,62,0
2,note_on,48,0,120
2,note_on,41,67,0
2,note_on,45,67,0
2,note_on,48,80,0
2,note_on,48,0,180
2,note_on,45,0,0
2,note_on,41,0,0
2,note_on,41,60,60
2,note_on,45,60,0
2,note_on,48,73,0
2,note_on,48,0,180
2,note_on,45,0,0
2,note_on,41,0,0
2,note_on,41,60,300
2,note_on,45,60,0
2,note_on,48,73,0
2,note_on,48,0,180
2,note_on,45,0,0
2,note_on,41,0,0
2,note_on,41,67,60
2,note_on,45,67,0
2,note_on,48,80,0
2,note_on,48,0,180
2,note_on,45,0,0
2,note_on,41,0,0
2,note_on,41,60,60
2,note_on,45,60,0
2,note_on,48,73,0
2,note_on,48,0,180
2,note_on,45,0,0
2,note_on,41,0,0
2,note_on,41,60,300
2,note_on,45,60,0
2,note_on,48,73,0
2,note_on,48,0,180
2,note_on,45,0,0
2,note_on,41,0,0
2,note_on,41,67,60
2,note_on,45,67,0
2,note_on,48,78,0
2,note_on,48,0,180
2,note_on,45,0,0
2,note_on,41,0,0
2,note_on,41,60,60
2,note_on,45,60,0
2,note_on,48,73,0
2,note_on,48,0,180
2,note_on,45,0,0
2,note_on,41,0,0
2,note_on,41,60,300
2,note_on,45,60,0
2,note_on,48,73,0
2,note_on,48,0,180
2,note_on,45,0,0
2,note_on,41,0,0
2,note_on,41,67,60
2,note_on,45,67,0
2,note_on,48,78,0
2,note_on,48,0,180
2,note_on,45,0,0
2,note_on,41,0,0
2,note_on,41,60,60
2,note_on,45,60,0
2,note_on,48,73,0
2,note_on,48,0,180
2,note_on,45,0,0
2,note_on,41,0,0
2,note_on,41,60,300
2,note_on,45,60,0
2,note_on,48,73,0
2,note_on,48,0,180
2,note_on,45,0,0
2,note_on,41,0,0
2,note_on,48,67,60
2,note_on,42,67,0
2,note_on,45,67,0
2,note_on,50,78,0
2,note_on,50,0,180
2,note_on,48,0,0
2,note_on,42,0,0
2,note_on,45,0,0
2,note_on,48,60,60
2,note_on,42,60,0
2,note_on,45,60,0
2,note_on,50,73,0
2,note_on,50,0,180
2,note_on,48,0,0
2,note_on,42,0,0
2,note_on,45,0,0
2,note_on,48,60,300
2,note_on,42,60,0
2,note_on,45,60,0
2,note_on,50,73,0
2,note_on,50,0,180
2,note_on,48,0,0
2,note_on,42,0,0
2,note_on,45,0,0
2,note_on,48,67,60
2,note_on,42,67,0
2,note_on,45,67,0
2,note_on,50,78,0
2,note_on,50,0,180
2,note_on,48,0,0
2,note_on,42,0,0
2,note_on,45,0,0
2,note_on,48,60,60
2,note_on,42,60,0
2,note_on,45,60,0
2,note_on,50,73,0
2,note_on,50,0,180
2,note_on,48,0,0
2,note_on,42,0,0
2,note_on,45,0,0
2,note_on,48,60,300
2,note_on,42,60,0
2,note_on,45,60,0
2,note_on,50,73,0
2,note_on,50,0,180
2,note_on,48,0,0
2,note_on,42,0,0
2,note_on,45,0,0
2,note_on,48,67,60
2,note_on,42,67,0
2,note_on,45,67,0
2,note_on,50,78,0
2,note_on,50,0,180
2,note_on,48,0,0
2,note_on,42,0,0
2,note_on,45,0,0
2,note_on,48,60,60
2,note_on,42,60,0
2,note_on,45,60,0
2,note_on,50,73,0
2,note_on,50,0,180
2,note_on,48,0,0
2,note_on,42,0,0
2,note_on,45,0,0
2,note_on,48,60,300
2,note_on,42,60,0
2,note_on,45,60,0
2,note_on,50,73,0
2,note_on,50,0,180
2,note_on,48,0,0
2,note_on,42,0,0
2,note_on,45,0,0
2,note_on,48,67,60
2,note_on,42,67,0
2,note_on,45,67,0
2,note_on,50,78,0
2,note_on,50,0,180
2,note_on,48,0,0
2,note_on,42,0,0
2,note_on,45,0,0
2,note_on,48,60,60
2,note_on,42,60,0
2,note_on,45,60,0
2,note_on,50,73,0
2,note_on,50,0,180
2,note_on,48,0,0
2,note_on,42,0,0
2,note_on,45,0,0
2,note_on,48,60,300
2,note_on,42,60,0
2,note_on,45,60,0
2,note_on,50,73,0
2,note_on,50,0,180
2,note_on,48,0,0
2,note_on,42,0,0
2,note_on,45,0,0
2,note_on,43,78,60
2,note_on,43,0,120
2,note_on,48,70,0
2,note_on,48,0,120
2,note_on,52,70,0
2,note_on,52,0,120
2,note_on,55,70,0
2,note_on,55,0,120
2,note_on,43,77,0
2,note_on,43,0,120
2,note_on,48,70,0
2,note_on,48,0,120
2,note_on,52,70,0
2,note_on,52,0,120
2,note_on,55,70,0
2,note_on,55,0,120
2,note_on,43,75,0
2,note_on,43,0,120
2,note_on,48,70,0
2,note_on,48,0,120
2,note_on,52,70,0
2,note_on,52,0,120
2,note_on,55,70,0
2,note_on,55,0,120
2,note_on,43,75,0
2,note_on,43,0,120
2,note_on,48,70,0
2,note_on,48,0,120
2,note_on,52,70,0
2,note_on,52,0,120
2,note_on,55,70,0
2,note_on,55,0,120
2,note_on,43,78,0
2,note_on,43,0,120
2,note_on,48,70,0
2,note_on,48,0,120
2,note_on,52,70,0
2,note_on,52,0,120
2,note_on,55,70,0
2,note_on,55,0,120
2,note_on,43,77,0
2,note_on,43,0,120
2,note_on,48,70,0
2,note_on,48,0,120
2,note_on,52,70,0
2,note_on,52,0,120
2,note_on,55,70,0
2,note_on,55,0,120
2,note_on,52,75,0
2,note_on,52,0,120
2,note_on,52,70,120
2,note_on,52,0,120
2,note_on,48,75,120
2,note_on,48,0,120
2,note_on,43,70,120
2,note_on,43,0,120
2,note_on,55,86,120
2,note_on,55,0,120
2,note_on,52,47,120
2,note_on,52,0,120
2,note_on,60,53,120
2,note_on,60,0,120
2,note_on,55,48,120
2,note_on,55,0,120
2,note_on,64,52,120
2,note_on,64,0,120
2,note_on,60,41,120
2,note_on,60,0,120
2,note_on,67,50,120
2,note_on,67,0,120
2,note_on,64,41,120
2,note_on,64,0,120
2,note_on,72,50,120
2,note_on,72,0,120
2,note_on,67,41,120
2,note_on,67,0,120
2,note_on,76,50,120
2,note_on,76,0,120
2,note_on,72,39,120
2,note_on,72,0,120
2,note_on,79,50,120
2,note_on,79,0,120
2,note_on,76,41,120
2,note_on,76,0,120
2,note_on,84,50,120
2,note_on,84,0,120
2,note_on,79,42,120
2,note_on,79,0,120
2,note_on,83,46,120
2,note_on,83,0,120
2,note_on,79,37,120
2,note_on,79,0,120
2,note_on,83,43,120
2,note_on,83,0,120
2,note_on,79,36,120
2,note_on,79,0,120
2,note_on,83,41,120
2,note_on,83,0,120
2,note_on,79,32,120
2,note_on,79,0,120
2,note_on,83,39,120
2,note_on,83,0,120
2,note_on,79,31,120
2,note_on,79,0,120
2,note_on,83,36,120
2,note_on,83,0,120
2,note_on,79,30,120
2,note_on,79,0,120
2,note_on,83,36,120
2,note_on,83,0,120
2,note_on,79,31,120
2,note_on,79,0,120
2,note_on,83,36,120
2,note_on,83,0,120
2,note_on,79,29,120
2,note_on,79,0,120
2,note_on,83,36,120
2,note_on,83,0,120
2,note_on,79,30,120
2,note_on,79,0,120
2,note_on,83,37,120
2,note_on,83,0,80
2,note_on,84,32,0
2,note_on,84,0,80
2,note_on,83,36,0
2,note_on,83,0,80
2,note_on,84,31,0
2,note_on,84,0,80
2,note_on,83,36,0
2,note_on,83,0,80
2,note_on,84,33,0
2,note_on,84,0,80
2,note_on,83,37,0
2,note_on,83,0,80
2,note_on,84,33,0
2,note_on,84,0,80
2,note_on,83,37,0
2,note_on,83,0,80
2,note_on,84,33,0
2,note_on,84,0,80
2,note_on,83,38,0
2,note_on,83,0,80
2,note_on,84,34,0
2,note_on,84,0,80
2,note_on,83,38,0
2,note_on,83,0,80
2,note_on,84,35,0
2,note_on,84,0,80
2,note_on,83,39,0
2,note_on,83,0,80
2,note_on,84,35,0
2,note_on,84,0,80
2,note_on,83,39,0
2,note_on,83,0,80
2,note_on,84,36,0
2,note_on,84,0,80
2,note_on,83,40,0
2,note_on,83,0,80
2,note_on,84,36,0
2,note_on,84,0,80
2,note_on,83,40,0
2,note_on,83,0,80
2,note_on,84,36,0
2,note_on,84,0,80
2,note_on,83,41,0
2,note_on,83,0,80
2,note_on,84,37,0
2,note_on,84,0,80
2,note_on,83,41,0
2,note_on,83,0,80
2,note_on,84,36,0
2,note_on,84,0,80
2,note_on,83,42,0
2,note_on,83,0,80
2,note_on,84,37,0
2,note_on,84,0,80
2,note_on,83,42,0
2,note_on,83,0,80
2,note_on,84,37,0
2,note_on,84,0,80
2,note_on,83,43,0
2,note_on,83,0,80
2,note_on,84,38,0
2,note_on,84,0,80
2,note_on,83,43,0
2,note_on,83,0,80
2,note_on,84,39,0
2,note_on,84,0,80
2,note_on,83,44,0
2,note_on,83,0,80
2,note_on,84,39,0
2,note_on,84,0,80
2,note_on,83,44,0
2,note_on,83,0,80
2,note_on,84,38,0
2,note_on,84,0,80
2,note_on,83,45,0
2,note_on,83,0,80
2,note_on,84,38,0
2,note_on,84,0,80
2,note_on,83,45,0
2,note_on,83,0,80
2,note_on,84,40,0
2,note_on,84,0,80
2,note_on,83,50,0
2,note_on,83,0,96
2,note_on,84,44,0
2,note_on,84,0,96
2,note_on,83,50,0
2,note_on,83,0,96
2,note_on,81,52,0
2,note_on,81,0,96
2,note_on,83,47,0
2,note_on,83,0,96
2,note_on,60,52,0
2,note_on,72,62,0
2,note_on,72,0,960
2,note_on,64,38,0
2,note_on,67,38,0
2,note_on,70,45,0
2,note_on,70,0,960
2,note_on,67,0,0
2,note_on,64,0,0
2,note_on,65,39,0
2,note_on,68,47,0
2,note_on,68,0,960
2,note_on,65,0,0
2,note_on,64,39,0
2,note_on,67,39,0
2,note_on,70,46,0
2,note_on,70,0,960
2,note_on,60,0,0
2,note_on,64,0,0
2,note_on,67,0,0
2,note_on,68,48,0
2,note_on,65,40,0
2,note_on,65,0,480
2,note_on,68,0,0
2,note_on,65,47,480
2,note_on,61,39,0
2,note_on,56,39,0
2,note_on,53,39,0
2,note_on,53,0,960
2,note_on,65,0,0
2,note_on,61,0,0
2,note_on,56,0,0
2,note_on,60,39,0
2,note_on,55,39,0
2,note_on,63,46,0
2,note_on,63,0,960
2,note_on,55,0,0
2,note_on,60,0,0
2,note_on,55,37,0
2,note_on,59,37,0
2,note_on,62,44,0
2,note_on,62,0,960
2,note_on,59,0,0
2,note_on,55,0,0
2,note_on,60,56,0
2,note_on,48,45,0
2,note_on,60,0,960
2,note_on,52,38,0
2,note_on,55,38,0
2,note_on,58,45,0
2,note_on,58,0,960
2,note_on,55,0,0
2,note_on,52,0,0
2,note_on,53,39,0
2,note_on,57,47,0
2,note_on,57,0,960
2,note_on,53,0,0
2,note_on,55,39,0
2,note_on,58,46,0
2,note_on,52,39,0
2,note_on,52,0,960
2,note_on,48,0,0
2,note_on,55,0,0
2,note_on,58,0,0
2,note_on,53,48,0
2,note_on,57,48,0
2,note_on,57,0,480
2,note_on,53,0,0
2,note_on,41,39,480
2,note_on,50,47,0
2,note_on,45,39,0
2,note_on,45,0,960
2,note_on,50,0,0
2,note_on,41,0,0
2,note_on,48,39,0
2,note_on,43,39,0
2,note_on,52,46,0
2,note_on,52,0,960
2,note_on,48,0,0
2,note_on,50,37,0
2,note_on,53,44,0
2,note_on,53,0,960
2,note_on,50,0,0
2,note_on,43,0,0
2,note_on,48,37,0
2,note_on,52,44,0
2,note_on,52,0,480
2,note_on,48,0,0
2,note_on,48,51,0
2,note_on,40,42,0
2,note_on,40,0,480
2,note_on,41,42,0
2,note_on,48,0,240
2,note_on,50,49,0
2,note_on,50,0,240
2,note_on,52,51,0
2,note_on,52,0,240
2,note_on,53,55,0
2,note_on,53,0,240
2,note_on,41,0,0
2,note_on,43,35,0
2,note_on,52,35,0
2,note_on,55,41,0
2,note_on,55,0,960
2,note_on,52,0,0
2,note_on,50,33,0
2,note_on,53,39,0
2,note_on,53,0,960
2,note_on,50,0,0
2,note_on,43,0,0
2,note_on,52,44,0
2,note_on,48,37,0
2,note_on,48,0,480
2,note_on,52,0,0
2,note_on,45,42,0
2,note_on,53,51,0
2,note_on,45,0,480
2,note_on,46,42,0
2,note_on,53,0,240
2,note_on,55,49,0
2,note_on,55,0,240
2,note_on,57,51,0
2,note_on,57,0,240
2,note_on,58,55,0
2,note_on,58,0,240
2,note_on,46,0,0
2,note_on,60,41,0
2,note_on,57,35,0
2,note_on,48,35,0
2,note_on,57,0,960
2,note_on,60,0,0
2,note_on,55,33,0
2,note_on,58,39,0
2,note_on,58,0,960
2,note_on,55,0,0
2,note_on,48,0,0
2,note_on,56,44,0
2,note_on,53,37,0
2,note_on,53,0,480
2,note_on,56,0,0
2,note_on,44,42,0
2,note_on,53,51,0
2,note_on,44,0,480
2,note_on,46,42,0
2,note_on,53,0,240
2,note_on,55,49,0
2,note_on,55,0,240
2,note_on,56,51,0
2,note_on,56,0,240
2,note_on,58,55,0
2,note_on,58,0,240
2,note_on,46,0,0
2,note_on,48,35,0
2,note_on,60,41,0
2,note_on,56,35,0
2,note_on,56,0,960
2,note_on,60,0,0
2,note_on,55,33,0
2,note_on,58,39,0
2,note_on,58,0,960
2,note_on,55,0,0
2,note_on,48,0,0
2,note_on,49,25,0
2,note_on,56,28,0
2,note_on,53,25,0
2,note_on,53,0,120
2,note_on,56,0,0
2,note_on,49,0,0
2,note_on,37,22,120
2,note_on,44,26,0
2,note_on,44,0,120
2,note_on,37,0,0
2,note_on,44,26,120
2,note_on,37,22,0
2,note_on,37,0,120
2,note_on,44,0,0
2,note_on,44,27,120
2,note_on,37,22,0
2,note_on,37,0,120
2,note_on,44,0,0
2,note_on,37,22,120
2,note_on,44,27,0
2,note_on,44,0,120
2,note_on,37,0,0
2,note_on,44,28,120
2,note_on,37,23,0
2,note_on,37,0,120
2,note_on,44,0,0
2,note_on,44,28,120
2,note_on,37,23,0
2,note_on,37,0,120
2,note_on,44,0,0
2,note_on,37,24,120
2,note_on,44,29,0
2,note_on,44,0,120
2,note_on,37,0,0
2,note_on,37,25,120
2,note_on,44,30,0
2,note_on,44,0,120
2,note_on,37,0,0
2,note_on,44,27,120
2,note_on,37,22,0
2,note_on,37,0,120
2,note_on,44,0,0
2,note_on,37,23,120
2,note_on,44,28,0
2,note_on,44,0,120
2,note_on,37,0,0
2,note_on,44,29,120
2,note_on,37,24,0
2,note_on,37,0,120
2,note_on,44,0,0
2,note_on,37,25,120
2,note_on,44,30,0
2,note_on,44,0,120
2,note_on,37,0,0
2,note_on,37,25,120
2,note_on,44,30,0
2,note_on,44,0,120
2,note_on,37,0,0
2,note_on,37,25,120
2,note_on,46,30,0
2,note_on,46,0,120
2,note_on,37,0,0
2,note_on,37,25,120
2,note_on,46,30,0
2,note_on,46,0,120
2,note_on,37,0,0
2,note_on,36,25,120
2,note_on,44,30,0
2,note_on,39,25,0
2,note_on,39,0,180
2,note_on,44,0,0
2,note_on,36,0,0
2,note_on,36,25,60
2,note_on,39,25,0
2,note_on,44,30,0
2,note_on,44,0,180
2,note_on,39,0,0
2,note_on,36,0,0
2,note_on,36,25,60
2,note_on,39,25,0
2,note_on,44,30,0
2,note_on,44,0,180
2,note_on,39,0,0
2,note_on,36,0,0
2,note_on,36,25,60
2,note_on,39,25,0
2,note_on,44,30,0
2,note_on,44,0,180
2,note_on,39,0,0
2,note_on,36,0,0
2,note_on,36,25,60
2,note_on,39,25,0
2,note_on,44,30,0
2,note_on,44,0,180
2,note_on,39,0,0
2,note_on,36,0,0
2,note_on,44,30,60
2,note_on,39,25,0
2,note_on,36,25,0
2,note_on,36,0,180
2,note_on,39,0,0
2,note_on,44,0,0
2,note_on,36,25,60
2,note_on,39,25,0
2,note_on,44,30,0
2,note_on,44,0,180
2,note_on,39,0,0
2,note_on,36,0,0
2,note_on,36,25,60
2,note_on,39,25,0
2,note_on,44,30,0
2,note_on,44,0,180
2,note_on,39,0,0
2,note_on,36,0,0
2,note_on,41,38,60
2,note_on,39,38,0
2,note_on,36,38,0
2,note_on,45,47,0
2,note_on,45,0,180
2,note_on,41,0,0
2,note_on,39,0,0
2,note_on,36,0,0
2,note_on,39,38,60
2,note_on,36,38,0
2,note_on,45,47,0
2,note_on,41,38,0
2,note_on,41,0,180
2,note_on,39,0,0
2,note_on,36,0,0
2,note_on,45,0,0
2,note_on,39,38,60
2,note_on,36,38,0
2,note_on,41,38,0
2,note_on,45,47,0
2,note_on,45,0,180
2,note_on,39,0,0
2,note_on,36,0,0
2,note_on,41,0,0
2,note_on,41,38,60
2,note_on,39,38,0
2,note_on,36,38,0
2,note_on,45,47,0
2,note_on,45,0,180
2,note_on,41,0,0
2,note_on,39,0,0
2,note_on,36,0,0
2,note_on,41,38,60
2,note_on,45,47,0
2,note_on,36,38,0
2,note_on,39,38,0
2,note_on,39,0,180
2,note_on,41,0,0
2,note_on,45,0,0
2,note_on,36,0,0
2,note_on,36,37,60
2,note_on,39,37,0
2,note_on,41,37,0
2,note_on,45,45,0
2,note_on,45,0,180
2,note_on,36,0,0
2,note_on,39,0,0
2,note_on,41,0,0
2,note_on,41,37,60
2,note_on,39,37,0
2,note_on,36,37,0
2,note_on,45,45,0
2,note_on,45,0,180
2,note_on,41,0,0
2,note_on,39,0,0
2,note_on,36,0,0
2,note_on,41,37,60
2,note_on,45,45,0
2,note_on,39,37,0
2,note_on,36,37,0
2,note_on,36,0,180
2,note_on,41,0,0
2,note_on,45,0,0
2,note_on,39,0,0
2,note_on,41,25,60
2,note_on,37,25,0
2,note_on,46,30,0
2,note_on,46,0,180
2,note_on,37,0,0
2,note_on,41,0,0
2,note_on,41,25,60
2,note_on,37,25,0
2,note_on,46,30,0
2,note_on,46,0,180
2,note_on,37,0,0
2,note_on,41,0,0
2,note_on,41,25,60
2,note_on,37,25,0
2,note_on,46,30,0
2,note_on,46,0,180
2,note_on,37,0,0
2,note_on,41,0,0
2,note_on,41,25,60
2,note_on,37,25,0
2,note_on,46,30,0
2,note_on,46,0,180
2,note_on,37,0,0
2,note_on,41,0,0
2,note_on,46,30,60
2,note_on,41,25,0
2,note_on,37,25,0
2,note_on,37,0,180
2,note_on,41,0,0
2,note_on,46,0,0
2,note_on,37,25,60
2,note_on,46,30,0
2,note_on,41,25,0
2,note_on,41,0,180
2,note_on,46,0,0
2,note_on,37,0,0
2,note_on,37,25,60
2,note_on,46,30,0
2,note_on,41,25,0
2,note_on,41,0,180
2,note_on,46,0,0
2,note_on,37,0,0
2,note_on,37,25,60
2,note_on,46,30,0
2,note_on,41,25,0
2,note_on,41,0,180
2,note_on,46,0,0
2,note_on,37,0,0
2,note_on,47,47,60
2,note_on,41,38,0
2,note_on,38,38,0
2,note_on,38,0,180
2,note_on,41,0,0
2,note_on,47,0,0
2,note_on,41,38,60
2,note_on,38,38,0
2,note_on,47,47,0
2,note_on,47,0,180
2,note_on,38,0,0
2,note_on,41,0,0
2,note_on,41,38,60
2,note_on,38,38,0
2,note_on,47,47,0
2,note_on,47,0,180
2,note_on,38,0,0
2,note_on,41,0,0
2,note_on,41,38,60
2,note_on,38,38,0
2,note_on,47,47,0
2,note_on,47,0,180
2,note_on,38,0,0
2,note_on,41,0,0
2,note_on,41,37,60
2,note_on,38,37,0
2,note_on,47,45,0
2,note_on,47,0,180
2,note_on,38,0,0
2,note_on,41,0,0
2,note_on,47,45,60
2,note_on,41,37,0
2,note_on,38,37,0
2,note_on,38,0,180
2,note_on,41,0,0
2,note_on,47,0,0
2,note_on,41,37,60
2,note_on,47,45,0
2,note_on,38,37,0
2,note_on,38,0,180
2,note_on,47,0,0
2,note_on,41,0,0
2,note_on,38,37,60
2,note_on,41,37,0
2,note_on,47,45,0
2,note_on,47,0,180
2,note_on,41,0,0
2,note_on,38,0,0
2,note_on,43,37,60
2,note_on,39,37,0
2,note_on,47,45,0
2,note_on,47,0,180
2,note_on,39,0,0
2,note_on,43,0,0
2,note_on,43,37,60
2,note_on,39,37,0
2,note_on,47,45,0
2,note_on,47,0,180
2,note_on,39,0,0
2,note_on,43,0,0
2,note_on,43,37,60
2,note_on,39,37,0
2,note_on,48,45,0
2,note_on,48,0,180
2,note_on,39,0,0
2,note_on,43,0,0
2,note_on,39,37,60
2,note_on,48,45,0
2,note_on,43,37,0
2,note_on,43,0,180
2,note_on,48,0,0
2,note_on,39,0,0
2,note_on,41,37,60
2,note_on,48,45,0
2,note_on,44,37,0
2,note_on,44,0,180
2,note_on,48,0,0
2,note_on,41,0,0
2,note_on,41,38,60
2,note_on,48,46,0
2,note_on,44,38,0
2,note_on,44,0,180
2,note_on,48,0,0
2,note_on,41,0,0
2,note_on,44,38,60
2,note_on,41,38,0
2,note_on,50,46,0
2,note_on,50,0,180
2,note_on,41,0,0
2,note_on,44,0,0
2,note_on,50,46,60
2,note_on,41,38,0
2,note_on,44,38,0
2,note_on,44,0,180
2,note_on,41,0,0
2,note_on,50,0,0
2,note_on,43,38,60
2,note_on,46,38,0
2,note_on,50,47,0
2,note_on,50,0,180
2,note_on,46,0,0
2,note_on,43,0,0
2,note_on,43,38,60
2,note_on,46,38,0
2,note_on,50,47,0
2,note_on,50,0,180
2,note_on,46,0,0
2,note_on,43,0,0
2,note_on,43,39,60
2,note_on,46,39,0
2,note_on,52,47,0
2,note_on,52,0,180
2,note_on,46,0,0
2,note_on,43,0,0
2,note_on,46,39,60
2,note_on,43,39,0
2,note_on,52,48,0
2,note_on,52,0,180
2,note_on,43,0,0
2,note_on,46,0,0
2,note_on,44,39,60
2,note_on,52,48,0
2,note_on,48,39,0
2,note_on,48,0,180
2,note_on,52,0,0
2,note_on,44,0,0
2,note_on,44,39,60
2,note_on,52,48,0
2,note_on,48,39,0
2,note_on,48,0,180
2,note_on,52,0,0
2,note_on,44,0,0
2,note_on,44,40,60
2,note_on,53,49,0
2,note_on,48,40,0
2,note_on,48,0,180
2,note_on,53,0,0
2,note_on,44,0,0
2,note_on,48,40,60
2,note_on,44,40,0
2,note_on,53,49,0
2,note_on,53,0,180
2,note_on,44,0,0
2,note_on,48,0,0
2,note_on,54,51,60
2,note_on,45,42,0
2,note_on,48,42,0
2,note_on,48,0,180
2,note_on,45,0,0
2,note_on,54,0,0
2,note_on,54,51,60
2,note_on,45,42,0
2,note_on,48,42,0
2,note_on,48,0,180
2,note_on,45,0,0
2,note_on,54,0,0
2,note_on,48,42,60
2,note_on,45,42,0
2,note_on,54,51,0
2,note_on,54,0,180
2,note_on,45,0,0
2,note_on,48,0,0
2,note_on,48,42,60
2,note_on,45,42,0
2,note_on,54,51,0
2,note_on,54,0,180
2,note_on,45,0,0
2,note_on,48,0,0
2,note_on,54,51,60
2,note_on,48,42,0
2,note_on,45,42,0
2,note_on,45,0,180
2,note_on,48,0,0
2,note_on,54,0,0
2,note_on,48,42,60
2,note_on,45,42,0
2,note_on,54,51,0
2,note_on,54,0,180
2,note_on,45,0,0
2,note_on,48,0,0
2,note_on,48,42,60
2,note_on,45,42,0
2,note_on,54,51,0
2,note_on,54,0,180
2,note_on,45,0,0
2,note_on,48,0,0
2,note_on,48,42,60
2,note_on,45,42,0
2,note_on,54,51,0
2,note_on,54,0,180
2,note_on,45,0,0
2,note_on,48,0,0
2,note_on,48,42,60
2,note_on,54,51,0
2,note_on,44,42,0
2,note_on,44,0,180
2,note_on,54,0,0
2,note_on,48,0,0
2,note_on,54,51,60
2,note_on,44,42,0
2,note_on,48,42,0
2,note_on,48,0,180
2,note_on,44,0,0
2,note_on,54,0,0
2,note_on,48,42,60
2,note_on,44,42,0
2,note_on,54,51,0
2,note_on,54,0,180
2,note_on,44,0,0
2,note_on,48,0,0
2,note_on,48,42,60
2,note_on,44,42,0
2,note_on,54,51,0
2,note_on,54,0,180
2,note_on,44,0,0
2,note_on,48,0,0
2,note_on,48,42,60
2,note_on,44,42,0
2,note_on,51,51,0
2,note_on,51,0,180
2,note_on,44,0,0
2,note_on,48,0,0
2,note_on,51,51,60
2,note_on,48,42,0
2,note_on,44,42,0
2,note_on,44,0,180
2,note_on,48,0,0
2,note_on,51,0,0
2,note_on,44,42,60
2,note_on,48,51,0
2,note_on,48,0,180
2,note_on,44,0,0
2,note_on,48,51,60
2,note_on,44,42,0
2,note_on,44,0,180
2,note_on,48,0,0
2,note_on,43,42,60
2,note_on,47,51,0
2,note_on,47,0,220
2,note_on,43,0,0
2,note_on,47,29,3620
2,note_on,50,35,0
2,note_on,50,0,180
2,note_on,47,0,0
2,note_on,50,35,60
2,note_on,47,29,0
2,note_on,47,0,180
2,note_on,50,0,0
2,note_on,50,35,60
2,note_on,47,29,0
2,note_on,47,0,180
2,note_on,50,0,0
2,note_on,47,29,60
2,note_on,50,35,0
2,note_on,50,0,180
2,note_on,47,0,0
2,note_on,47,29,60
2,note_on,50,35,0
2,note_on,50,0,180
2,note_on,47,0,0
2,note_on,50,35,60
2,note_on,47,29,0
2,note_on,47,0,180
2,note_on,50,0,0
2,note_on,47,29,60
2,note_on,50,35,0
2,note_on,50,0,180
2,note_on,47,0,0
2,note_on,47,29,60
2,note_on,50,35,0
2,note_on,50,0,180
2,note_on,47,0,0
2,note_on,47,29,60
2,note_on,50,35,0
2,note_on,50,0,180
2,note_on,47,0,0
2,note_on,47,29,60
2,note_on,50,35,0
2,note_on,50,0,180
2,note_on,47,0,0
2,note_on,47,29,60
2,note_on,50,35,0
2,note_on,50,0,180
2,note_on,47,0,0
2,note_on,47,29,60
2,note_on,50,35,0
2,note_on,50,0,180
2,note_on,47,0,0
2,note_on,50,35,60
2,note_on,47,29,0
2,note_on,47,0,180
2,note_on,50,0,0
2,note_on,47,29,60
2,note_on,50,35,0
2,note_on,50,0,180
2,note_on,47,0,0
2,note_on,52,35,60
2,note_on,49,29,0
2,note_on,49,0,180
2,note_on,52,0,0
2,note_on,49,29,60
2,note_on,52,35,0
2,note_on,52,0,180
2,note_on,49,0,0
2,note_on,53,42,60
2,note_on,50,42,0
2,note_on,53,0,720
2,note_on,57,40,0
2,note_on,57,0,120
2,note_on,55,40,0
2,note_on,55,0,120
2,note_on,53,45,0
2,note_on,53,0,240
2,note_on,50,0,0
2,note_on,69,46,720
2,note_on,69,0,600
2,note_on,67,40,0
2,note_on,67,0,120
2,note_on,65,40,0
2,note_on,65,0,120
2,note_on,64,40,0
2,note_on,64,0,120
2,note_on,62,45,0
2,note_on,62,0,240
2,note_on,45,29,720
2,note_on,48,35,0
2,note_on,48,0,180
2,note_on,45,0,0
2,note_on,45,29,60
2,note_on,48,35,0
2,note_on,48,0,180
2,note_on,45,0,0
2,note_on,48,35,60
2,note_on,45,29,0
2,note_on,45,0,180
2,note_on,48,0,0
2,note_on,45,29,60
2,note_on,48,35,0
2,note_on,48,0,180
2,note_on,45,0,0
2,note_on,45,29,60
2,note_on,48,35,0
2,note_on,48,0,180
2,note_on,45,0,0
2,note_on,48,35,60
2,note_on,45,29,0
2,note_on,45,0,180
2,note_on,48,0,0
2,note_on,45,29,60
2,note_on,48,35,0
2,note_on,48,0,180
2,note_on,45,0,0
2,note_on,45,29,60
2,note_on,48,35,0
2,note_on,48,0,180
2,note_on,45,0,0
2,note_on,48,35,60
2,note_on,45,29,0
2,note_on,45,0,180
2,note_on,48,0,0
2,note_on,45,29,60
2,note_on,48,35,0
2,note_on,48,0,180
2,note_on,45,0,0
2,note_on,45,29,60
2,note_on,48,35,0
2,note_on,48,0,180
2,note_on,45,0,0
2,note_on,48,35,60
2,note_on,45,29,0
2,note_on,45,0,180
2,note_on,48,0,0
2,note_on,45,29,60
2,note_on,48,35,0
2,note_on,48,0,180
2,note_on,45,0,0
2,note_on,48,35,60
2,note_on,45,29,0
2,note_on,45,0,180
2,note_on,48,0,0
2,note_on,47,29,60
2,note_on,50,35,0
2,note_on,50,0,180
2,note_on,47,0,0
2,note_on,47,29,60
2,note_on,50,35,0
2,note_on,50,0,180
2,note_on,47,0,0
2,note_on,52,42,60
2,note_on,48,42,0
2,note_on,52,0,720
2,note_on,55,40,0
2,note_on,55,0,120
2,note_on,53,40,0
2,note_on,53,0,120
2,note_on,52,45,0
2,note_on,52,0,240
2,note_on,48,0,0
2,note_on,48,36,660
2,note_on,48,0,60
2,note_on,64,46,0
2,note_on,64,0,600
2,note_on,62,40,0
2,note_on,62,0,120
2,note_on,60,40,0
2,note_on,60,0,120
2,note_on,59,40,0
2,note_on,59,0,120
2,note_on,57,45,0
2,note_on,57,0,240
2,note_on,53,44,720
2,note_on,50,44,0
2,note_on,53,0,720
2,note_on,57,43,0
2,note_on,57,0,120
2,note_on,55,43,0
2,note_on,55,0,120
2,note_on,53,49,0
2,note_on,53,0,240
2,note_on,50,0,0
2,note_on,50,35,660
2,note_on,50,0,60
2,note_on,65,55,0
2,note_on,65,0,600
2,note_on,64,46,0
2,note_on,64,0,120
2,note_on,62,46,0
2,note_on,62,0,120
2,note_on,60,46,0
2,note_on,60,0,120
2,note_on,59,52,0
2,note_on,59,0,480
2,note_on,52,40,420
2,note_on,52,0,60
2,note_on,67,64,0
2,note_on,67,0,600
2,note_on,65,52,0
2,note_on,65,0,120
2,note_on,64,51,0
2,note_on,64,0,120
2,note_on,62,51,0
2,note_on,62,0,120
2,note_on,61,56,0
2,note_on,61,0,480
2,note_on,53,46,420
2,note_on,53,0,60
2,note_on,69,73,0
2,note_on,69,0,480
2,note_on,67,60,0
2,note_on,67,0,120
2,note_on,65,60,0
2,note_on,65,0,120
2,note_on,64,60,0
2,note_on,64,0,120
2,note_on,62,59,0
2,note_on,62,0,60
2,note_on,55,47,0
2,note_on,55,0,60
2,note_on,71,75,0
2,note_on,71,0,480
2,note_on,69,62,0
2,note_on,69,0,120
2,note_on,67,62,0
2,note_on,67,0,120
2,note_on,65,63,0
2,note_on,65,0,120
2,note_on,64,62,0
2,note_on,64,0,60
2,note_on,57,50,0
2,note_on,57,0,60
2,note_on,72,78,0
2,note_on,72,0,480
2,note_on,71,64,0
2,note_on,71,0,120
2,note_on,69,64,0
2,note_on,69,0,120
2,note_on,67,65,0
2,note_on,67,0,120
2,note_on,65,64,0
2,note_on,65,0,60
2,note_on,59,54,0
2,note_on,59,0,60
2,note_on,74,81,0
2,note_on,74,0,480
2,note_on,72,67,0
2,note_on,72,0,120
2,note_on,71,67,0
2,note_on,71,0,120
2,note_on,69,67,0
2,note_on,69,0,120
2,note_on,67,66,0
2,note_on,67,0,60
2,note_on,60,56,0
2,note_on,60,0,60
2,note_on,76,84,0
2,note_on,76,0,480
2,note_on,74,69,0
2,note_on,74,0,120
2,note_on,72,70,0
2,note_on,72,0,120
2,note_on,71,70,0
2,note_on,71,0,120
2,note_on,69,69,0
2,note_on,69,0,60
2,note_on,62,58,0
2,note_on,62,0,60
2,note_on,77,87,0
2,note_on,77,0,480
2,note_on,76,71,0
2,note_on,76,0,120
2,note_on,74,72,0
2,note_on,74,0,120
2,note_on,72,72,0
2,note_on,72,0,120
2,note_on,71,71,0
2,note_on,71,0,120
2,note_on,64,78,0
2,note_on,64,0,80
2,note_on,72,74,0
2,note_on,72,0,80
2,note_on,76,74,0
2,note_on,76,0,80
2,note_on,64,79,240
2,note_on,64,0,80
2,note_on,72,74,0
2,note_on,72,0,80
2,note_on,76,75,0
2,note_on,76,0,80
2,note_on,64,81,240
2,note_on,64,0,80
2,note_on,72,77,0
2,note_on,72,0,80
2,note_on,76,77,0
2,note_on,76,0,80
2,note_on,64,81,240
2,note_on,64,0,80
2,note_on,72,78,0
2,note_on,72,0,80
2,note_on,76,79,0
2,note_on,76,0,80
2,note_on,72,75,240
2,note_on,77,75,0
2,note_on,65,75,0
2,note_on,65,0,480
2,note_on,77,0,0
2,note_on,72,0,0
2,note_on,29,75,1920
2,note_on,29,0,600
2,note_on,31,68,0
2,note_on,31,0,120
2,note_on,33,69,0
2,note_on,33,0,120
2,note_on,35,70,0
2,note_on,35,0,120
2,note_on,36,71,0
2,note_on,36,0,120
2,note_on,38,73,0
2,note_on,38,0,120
2,note_on,40,74,0
2,note_on,40,0,120
2,note_on,41,75,0
2,note_on,41,0,120
2,note_on,31,63,0
2,note_on,36,63,0
2,note_on,40,75,0
2,note_on,40,0,480
2,note_on,36,0,0
2,note_on,31,0,0
2,note_on,76,52,3960
2,note_on,76,0,120
2,note_on,75,52,0
2,note_on,75,0,120
2,note_on,76,53,0
2,note_on,76,0,120
2,note_on,67,60,0
2,note_on,67,0,60
2,note_on,72,54,60
2,note_on,72,0,120
2,note_on,71,55,0
2,note_on,71,0,120
2,note_on,72,55,0
2,note_on,72,0,120
2,note_on,67,61,0
2,note_on,67,0,60
2,note_on,76,56,60
2,note_on,76,0,120
2,note_on,75,56,0
2,note_on,75,0,120
2,note_on,76,56,0
2,note_on,76,0,120
2,note_on,67,63,0
2,note_on,67,0,60
2,note_on,72,57,60
2,note_on,72,0,120
2,note_on,71,58,0
2,note_on,71,0,120
2,note_on,72,58,0
2,note_on,72,0,120
2,note_on,67,65,0
2,note_on,67,0,60
2,note_on,76,59,60
2,note_on,76,0,120
2,note_on,75,59,0
2,note_on,75,0,120
2,note_on,76,59,0
2,note_on,76,0,120
2,note_on,67,67,0
2,note_on,67,0,60
2,note_on,72,60,60
2,note_on,72,0,120
2,note_on,71,60,0
2,note_on,71,0,120
2,note_on,72,61,0
2,note_on,72,0,120
2,note_on,67,69,0
2,note_on,67,0,60
2,note_on,76,62,60
2,note_on,76,0,120
2,note_on,75,62,0
2,note_on,75,0,120
2,note_on,76,63,0
2,note_on,76,0,120
2,note_on,74,73,0
2,note_on,67,73,0
2,note_on,77,73,0
2,note_on,77,0,1920
2,note_on,67,0,0
2,note_on,74,0,0
2,note_on,65,65,0
2,note_on,55,65,0
2,note_on,62,65,0
2,note_on,62,0,1920
2,note_on,55,0,0
2,note_on,65,0,0
2,note_on,48,39,0
2,note_on,36,33,0
2,note_on,36,0,960
2,note_on,48,0,0
2,note_on,44,29,0
2,note_on,32,29,0
2,note_on,32,0,480
2,note_on,44,0,0
2,note_on,45,35,0
2,note_on,33,29,0
2,note_on,33,0,480
2,note_on,45,0,0
2,note_on,40,39,0
2,note_on,40,0,960
2,note_on,41,34,0
2,note_on,41,0,960
2,note_on,53,41,0
2,note_on,55,34,0
2,note_on,59,41,0
2,note_on,50,34,0
2,note_on,50,0,960
2,note_on,53,0,0
2,note_on,55,0,0
2,note_on,59,0,0
2,note_on,55,38,0
2,note_on,60,46,0
2,note_on,52,38,0
2,note_on,52,0,480
2,note_on,60,0,0
2,note_on,55,0,0
2,note_on,62,51,0
2,note_on,53,43,0
2,note_on,60,43,0
2,note_on,57,43,0
2,note_on,57,0,480
2,note_on,62,0,0
2,note_on,53,0,0
2,note_on,60,0,0
2,note_on,55,46,0
2,note_on,60,46,0
2,note_on,64,56,0
2,note_on,64,0,960
2,note_on,60,0,0
2,note_on,59,41,0
2,note_on,62,49,0
2,note_on,62,0,960
2,note_on,59,0,0
2,note_on,55,0,0
2,note_on,76,50,0
2,note_on,72,42,0
2,note_on,72,0,960
2,note_on,76,0,0
2,note_on,74,48,0
2,note_on,68,40,0
2,note_on,71,40,0
2,note_on,71,0,480
2,note_on,68,0,0
2,note_on,74,0,0
2,note_on,69,40,0
2,note_on,72,48,0
2,note_on,72,0,480
2,note_on,69,0,0
2,note_on,64,42,0
2,note_on,68,42,0
2,note_on,71,50,0
2,note_on,71,0,960
2,note_on,68,0,0
2,note_on,64,0,0
2,note_on,65,40,0
2,note_on,69,48,0
2,note_on,69,0,960
2,note_on,65,0,0
2,note_on,60,34,0
2,note_on,64,40,0
2,note_on,55,34,0
2,note_on,64,0,480
2,note_on,60,0,0
2,note_on,65,35,0
2,note_on,62,29,0
2,note_on,62,0,1440
2,note_on,65,0,0
2,note_on,55,0,0
2,note_on,43,34,0
2,note_on,52,40,0
2,note_on,48,34,0
2,note_on,48,0,480
2,note_on,52,0,0
2,note_on,50,29,0
2,note_on,53,35,0
2,note_on,53,0,3360
2,note_on,50,0,0
2,note_on,43,0,0
2,note_on,31,34,0
2,note_on,36,34,0
2,note_on,40,40,0
2,note_on,40,0,480
2,note_on,36,0,0
2,note_on,38,29,0
2,note_on,41,35,0
2,note_on,41,0,3360
2,note_on,38,0,0
2,note_on,31,0,0
2,note_on,48,25,0
2,note_on,36,25,0
2,note_on,36,0,120
2,note_on,48,0,0
2,note_on,55,26,120
2,note_on,48,22,0
2,note_on,48,0,120
2,note_on,55,0,0
2,note_on,55,26,120
2,note_on,48,22,0
2,note_on,48,0,120
2,note_on,55,0,0
2,note_on,55,27,120
2,note_on,48,22,0
2,note_on,48,0,120
2,note_on,55,0,0
2,note_on,48,22,120
2,note_on,55,27,0
2,note_on,55,0,120
2,note_on,48,0,0
2,note_on,55,28,120
2,note_on,48,23,0
2,note_on,48,0,120
2,note_on,55,0,0
2,note_on,55,28,120
2,note_on,48,23,0
2,note_on,48,0,120
2,note_on,55,0,0
2,note_on,55,29,120
2,note_on,48,24,0
2,note_on,48,0,120
2,note_on,55,0,0
2,note_on,48,25,120
2,note_on,55,30,0
2,note_on,55,0,120
2,note_on,48,0,0
2,note_on,48,22,120
2,note_on,55,27,0
2,note_on,55,0,120
2,note_on,48,0,0
2,note_on,48,23,120
2,note_on,55,28,0
2,note_on,55,0,120
2,note_on,48,0,0
2,note_on,55,29,120
2,note_on,48,24,0
2,note_on,48,0,120
2,note_on,55,0,0
2,note_on,55,30,120
2,note_on,48,25,0
2,note_on,48,0,120
2,note_on,55,0,0
2,note_on,48,25,120
2,note_on,55,30,0
2,note_on,55,0,120
2,note_on,48,0,0
2,note_on,57,30,120
2,note_on,48,25,0
2,note_on,48,0,120
2,note_on,57,0,0
2,note_on,48,25,120
2,note_on,57,30,0
2,note_on,57,0,120
2,note_on,48,0,0
2,note_on,47,28,120
2,note_on,50,28,0
2,note_on,55,34,0
2,note_on,55,0,180
2,note_on,50,0,0
2,note_on,47,0,0
2,note_on,55,34,60
2,note_on,47,28,0
2,note_on,50,28,0
2,note_on,50,0,180
2,note_on,47,0,0
2,note_on,55,0,0
2,note_on,47,28,60
2,note_on,50,28,0
2,note_on,55,34,0
2,note_on,55,0,180
2,note_on,50,0,0
2,note_on,47,0,0
2,note_on,47,28,60
2,note_on,50,28,0
2,note_on,55,35,0
2,note_on,55,0,180
2,note_on,50,0,0
2,note_on,47,0,0
2,note_on,46,34,60
2,note_on,48,34,0
2,note_on,55,42,0
2,note_on,55,0,180
2,note_on,48,0,0
2,note_on,46,0,0
2,note_on,55,42,60
2,note_on,46,34,0
2,note_on,48,34,0
2,note_on,48,0,180
2,note_on,46,0,0
2,note_on,55,0,0
2,note_on,55,42,60
2,note_on,48,35,0
2,note_on,46,35,0
2,note_on,46,0,180
2,note_on,48,0,0
2,note_on,55,0,0
2,note_on,55,43,60
2,note_on,46,35,0
2,note_on,48,35,0
2,note_on,48,0,180
2,note_on,46,0,0
2,note_on,55,0,0
2,note_on,45,38,60
2,note_on,48,38,0
2,note_on,53,48,0
2,note_on,53,0,180
2,note_on,48,0,0
2,note_on,45,0,0
2,note_on,45,38,60
2,note_on,48,38,0
2,note_on,53,48,0
2,note_on,53,0,180
2,note_on,48,0,0
2,note_on,45,0,0
2,note_on,45,39,60
2,note_on,48,39,0
2,note_on,53,49,0
2,note_on,53,0,180
2,note_on,48,0,0
2,note_on,45,0,0
2,note_on,45,39,60
2,note_on,53,49,0
2,note_on,48,39,0
2,note_on,48,0,180
2,note_on,53,0,0
2,note_on,45,0,0
2,note_on,44,62,60
2,note_on,48,62,0
2,note_on,53,62,0
2,note_on,53,0,180
2,note_on,48,0,0
2,note_on,44,0,0
2,note_on,32,55,60
2,note_on,44,55,0
2,note_on,44,0,180
2,note_on,32,0,0
2,note_on,32,55,60
2,note_on,44,55,0
2,note_on,44,0,180
2,note_on,32,0,0
2,note_on,32,55,60
2,note_on,44,55,0
2,note_on,44,0,180
2,note_on,32,0,0
2,note_on,43,56,60
2,note_on,31,56,0
2,note_on,31,0,120
2,note_on,43,0,0
2,note_on,33,57,0
2,note_on,33,0,120
2,note_on,35,57,0
2,note_on,35,0,120
2,note_on,36,58,0
2,note_on,36,0,120
2,note_on,38,59,0
2,note_on,38,0,120
2,note_on,40,59,0
2,note_on,40,0,120
2,note_on,41,60,0
2,note_on,41,0,120
2,note_on,43,62,0
2,note_on,43,0,120
2,note_on,45,62,0
2,note_on,45,0,120
2,note_on,47,63,0
2,note_on,47,0,120
2,note_on,48,63,0
2,note_on,48,0,120
2,note_on,50,64,0
2,note_on,50,0,120
2,note_on,52,65,0
2,note_on,52,0,120
2,note_on,53,66,0
2,note_on,53,0,120
2,note_on,55,67,0
2,note_on,55,0,120
2,note_on,57,68,0
2,note_on,57,0,120
2,note_on,53,78,0
2,note_on,41,66,0
2,note_on,41,0,240
2,note_on,53,0,0
2,note_on,43,66,240
2,note_on,47,66,0
2,note_on,50,78,0
2,note_on,55,78,0
2,note_on,55,0,240
2,note_on,43,0,0
2,note_on,47,0,0
2,note_on,50,0,0
2,note_on,60,78,1200
2,note_on,55,78,0
2,note_on,48,66,0
2,note_on,52,66,0
2,note_on,52,0,240
2,note_on,60,0,0
2,note_on,55,0,0
2,note_on,48,0,0
2,note_on,47,66,720
2,note_on,43,66,0
2,note_on,50,78,0
2,note_on,55,78,0
2,note_on,55,0,240
2,note_on,47,0,0
2,note_on,43,0,0
2,note_on,50,0,0
2,note_on,36,65,720
2,note_on,40,65,0
2,note_on,43,77,0
2,note_on,48,77,0
2,note_on,48,0,240
2,note_on,36,0,0
2,note_on,40,0,0
2,note_on,43,0,0
