Track,Message Type,Note,Velocity,Time
1,note_on,65,46,240
1,note_on,65,0,60
1,note_on,65,50,20
1,note_on,65,0,80
1,note_on,77,46,0
1,note_on,77,0,60
1,note_on,77,59,20
1,note_on,77,0,80
1,note_on,89,66,0
1,note_on,77,51,160
1,note_on,77,0,360
1,note_on,89,0,0
1,note_on,89,50,0
1,note_on,77,42,0
1,note_on,77,0,360
1,note_on,89,0,0
1,note_on,85,39,600
1,note_on,89,47,0
1,note_on,80,39,0
1,note_on,77,39,0
1,note_on,77,0,360
1,note_on,85,0,0
1,note_on,89,0,0
1,note_on,80,0,0
1,note_on,89,40,600
1,note_on,82,34,0
1,note_on,77,34,0
1,note_on,85,34,0
1,note_on,85,0,360
1,note_on,89,0,0
1,note_on,82,0,0
1,note_on,77,0,0
1,note_on,82,32,600
1,note_on,78,32,0
1,note_on,90,38,0
1,note_on,85,32,0
1,note_on,85,0,600
1,note_on,82,0,0
1,note_on,78,0,0
1,note_on,90,0,0
1,note_on,73,37,360
1,note_on,73,0,120
1,note_on,78,41,0
1,note_on,78,0,120
1,note_on,73,36,0
1,note_on,73,0,120
1,note_on,78,42,0
1,note_on,78,0,120
1,note_on,73,35,0
1,note_on,73,0,120
1,note_on,78,42,0
1,note_on,78,0,120
1,note_on,70,38,0
1,note_on,70,0,120
1,note_on,75,48,0
1,note_on,66,35,120
1,note_on,66,0,120
1,note_on,71,41,0
1,note_on,71,0,120
1,note_on,66,35,0
1,note_on,66,0,120
1,note_on,71,43,0
1,note_on,71,0,120
1,note_on,66,37,0
1,note_on,66,0,120
1,note_on,71,42,0
1,note_on,71,0,120
1,note_on,63,39,0
1,note_on,63,0,120
1,note_on,75,0,0
1,note_on,75,47,0
1,note_on,65,33,0
1,note_on,65,0,120
1,note_on,68,32,0
1,note_on,68,0,120
1,note_on,75,0,0
1,note_on,73,43,0
1,note_on,65,30,0
1,note_on,65,0,120
1,note_on,68,37,0
1,note_on,68,0,120
1,note_on,65,35,0
1,note_on,65,0,120
1,note_on,68,38,0
1,note_on,68,0,120
1,note_on,73,0,0
1,note_on,65,28,0
1,note_on,71,39,0
1,note_on,65,0,120
1,note_on,68,27,0
1,note_on,68,0,120
1,note_on,71,0,0
1,note_on,66,38,0
1,note_on,70,45,0
1,note_on,70,0,240
1,note_on,66,0,0
1,note_on,69,38,0
1,note_on,66,38,0
1,note_on,75,45,0
1,note_on,75,0,240
1,note_on,66,0,0
1,note_on,69,0,0
1,note_on,65,34,0
1,note_on,68,40,0
1,note_on,68,0,420
1,note_on,65,0,0
1,note_on,66,29,0
1,note_on,70,35,0
1,note_on,70,0,60
1,note_on,66,0,0
1,note_on,78,39,0
1,note_on,82,47,0
1,note_on,70,39,0
1,note_on,73,39,0
1,note_on,73,0,240
1,note_on,78,0,0
1,note_on,82,0,0
1,note_on,70,0,0
1,note_on,78,34,360
1,note_on,70,34,0
1,note_on,75,34,0
1,note_on,82,41,0
1,note_on,82,0,360
1,note_on,78,0,0
1,note_on,70,0,0
1,note_on,75,0,0
1,note_on,78,32,360
1,note_on,87,39,0
1,note_on,75,32,0
1,note_on,75,0,240
1,note_on,87,0,0
1,note_on,78,0,0
1,note_on,66,35,960
1,note_on,66,0,118
1,note_on,68,38,2
1,note_on,70,41,120
1,note_on,68,0,12
1,note_on,71,45,108
1,note_on,70,0,12
1,note_on,73,48,108
1,note_on,71,0,12
1,note_on,75,52,108
1,note_on,73,0,12
1,note_on,76,52,108
1,note_on,75,0,12
1,note_on,75,55,108
1,note_on,76,0,12
1,note_on,71,52,108
1,note_on,75,0,12
1,note_on,71,0,108
1,note_on,78,57,0
1,note_on,76,55,120
1,note_on,78,0,12
1,note_on,75,53,108
1,note_on,76,0,12
1,note_on,73,51,108
1,note_on,75,0,12
1,note_on,71,49,108
1,note_on,73,0,12
1,note_on,70,47,108
1,note_on,71,0,12
1,note_on,71,47,108
1,note_on,70,0,12
1,note_on,71,0,108
1,note_on,78,47,0
1,note_on,78,0,118
1,note_on,80,47,2
1,note_on,82,49,120
1,note_on,80,0,12
1,note_on,83,50,108
1,note_on,82,0,12
1,note_on,85,52,108
1,note_on,83,0,12
1,note_on,87,53,108
1,note_on,85,0,12
1,note_on,88,52,108
1,note_on,87,0,12
1,note_on,87,59,108
1,note_on,88,0,12
1,note_on,85,47,108
1,note_on,87,0,12
1,note_on,83,47,108
1,note_on,85,0,12
1,note_on,82,47,108
1,note_on,83,0,12
1,note_on,80,54,108
1,note_on,82,0,12
1,note_on,78,47,108
1,note_on,80,0,12
1,note_on,76,47,108
1,note_on,78,0,12
1,note_on,75,47,108
1,note_on,76,0,12
1,note_on,73,51,108
1,note_on,75,0,12
1,note_on,71,47,108
1,note_on,73,0,12
1,note_on,70,47,108
1,note_on,71,0,12
1,note_on,68,47,108
1,note_on,70,0,12
1,note_on,66,51,108
1,note_on,68,0,12
1,note_on,66,0,108
1,note_on,76,54,0
1,note_on,76,0,120
1,note_on,75,57,0
1,note_on,75,0,120
1,note_on,80,60,0
1,note_on,80,0,120
1,note_on,78,60,0
1,note_on,78,0,120
1,note_on,83,45,0
1,note_on,83,0,120
1,note_on,82,52,0
1,note_on,82,0,120
1,note_on,88,49,0
1,note_on,88,0,120
1,note_on,76,41,0
1,note_on,82,41,0
1,note_on,88,49,0
1,note_on,88,0,360
1,note_on,82,0,0
1,note_on,76,0,0
1,note_on,83,41,0
1,note_on,87,49,0
1,note_on,78,41,0
1,note_on,75,41,0
1,note_on,75,0,360
1,note_on,83,0,0
1,note_on,87,0,0
1,note_on,78,0,0
1,note_on,75,49,600
1,note_on,83,49,0
1,note_on,87,49,0
1,note_on,80,49,0
1,note_on,80,0,240
1,note_on,75,0,0
1,note_on,83,0,0
1,note_on,87,0,0
1,note_on,75,37,0
1,note_on,75,0,120
1,note_on,68,37,0
1,note_on,68,0,120
1,note_on,75,37,0
1,note_on,75,0,120
1,note_on,76,46,0
1,note_on,76,0,120
1,note_on,75,40,0
1,note_on,75,0,120
1,note_on,68,42,0
1,note_on,68,0,120
1,note_on,75,45,0
1,note_on,75,0,120
1,note_on,76,49,0
1,note_on,76,0,1080
1,note_on,70,41,0
1,note_on,70,0,120
1,note_on,75,46,0
1,note_on,75,0,120
1,note_on,74,42,0
1,note_on,74,0,120
1,note_on,75,44,0
1,note_on,75,0,120
1,note_on,70,37,0
1,note_on,70,0,120
1,note_on,75,43,0
1,note_on,75,0,120
1,note_on,73,37,0
1,note_on,73,0,120
1,note_on,72,52,0
1,note_on,72,0,120
1,note_on,75,46,0
1,note_on,75,0,120
1,note_on,72,55,0
1,note_on,72,0,120
1,note_on,80,47,0
1,note_on,80,0,120
1,note_on,73,60,0
1,note_on,73,0,120
1,note_on,80,54,0
1,note_on,80,0,120
1,note_on,75,63,0
1,note_on,75,0,120
1,note_on,80,58,0
1,note_on,80,0,120
1,note_on,76,70,0
1,note_on,76,0,480
1,note_on,64,53,0
1,note_on,64,0,600
1,note_on,61,42,0
1,note_on,61,0,120
1,note_on,66,50,0
1,note_on,66,0,120
1,note_on,65,37,0
1,note_on,65,0,120
1,note_on,66,51,0
1,note_on,66,0,120
1,note_on,61,43,0
1,note_on,61,0,120
1,note_on,66,51,0
1,note_on,66,0,120
1,note_on,64,44,0
1,note_on,64,0,120
1,note_on,63,54,0
1,note_on,63,0,240
1,note_on,75,60,0
1,note_on,75,0,480
1,note_on,73,52,0
1,note_on,73,0,240
1,note_on,71,63,0
1,note_on,71,0,120
1,note_on,75,53,0
1,note_on,75,0,120
1,note_on,71,62,0
1,note_on,71,0,120
1,note_on,75,53,0
1,note_on,75,0,120
1,note_on,76,63,0
1,note_on,83,63,0
1,note_on,76,0,120
1,note_on,75,60,0
1,note_on,75,0,120
1,note_on,68,65,0
1,note_on,68,0,120
1,note_on,71,60,0
1,note_on,71,0,120
1,note_on,76,58,0
1,note_on,83,0,120
1,note_on,80,59,0
1,note_on,80,0,120
1,note_on,81,65,0
1,note_on,81,0,120
1,note_on,85,59,0
1,note_on,85,0,120
1,note_on,76,0,0
1,note_on,69,58,0
1,note_on,76,70,0
1,note_on,76,0,120
1,note_on,81,59,0
1,note_on,81,0,120
1,note_on,69,0,0
1,note_on,71,62,0
1,note_on,75,73,0
1,note_on,75,0,120
1,note_on,80,71,0
1,note_on,80,0,120
1,note_on,71,0,0
1,note_on,75,81,0
1,note_on,71,69,0
1,note_on,75,0,120
1,note_on,80,73,0
1,note_on,80,0,120
1,note_on,71,0,0
1,note_on,75,81,0
1,note_on,73,69,0
1,note_on,75,0,120
1,note_on,79,77,0
1,note_on,79,0,120
1,note_on,73,0,0
1,note_on,75,81,0
1,note_on,71,69,0
1,note_on,75,0,120
1,note_on,80,74,0
1,note_on,80,0,120
1,note_on,71,0,0
1,note_on,70,69,0
1,note_on,75,81,0
1,note_on,75,0,120
1,note_on,82,72,0
1,note_on,82,0,120
1,note_on,70,0,0
1,note_on,80,32,120
1,note_on,75,32,0
1,note_on,83,38,0
1,note_on,71,32,0
1,note_on,71,0,600
1,note_on,80,0,0
1,note_on,75,0,0
1,note_on,83,0,0
1,note_on,80,32,360
1,note_on,83,38,0
1,note_on,76,32,0
1,note_on,71,32,0
1,note_on,71,0,600
1,note_on,80,0,0
1,note_on,83,0,0
1,note_on,76,0,0
1,note_on,85,38,360
1,note_on,76,32,0
1,note_on,73,32,0
1,note_on,80,32,0
1,note_on,80,0,600
1,note_on,85,0,0
1,note_on,76,0,0
1,note_on,73,0,0
1,note_on,76,32,360
1,note_on,73,32,0
1,note_on,85,38,0
1,note_on,81,32,0
1,note_on,81,0,600
1,note_on,76,0,0
1,note_on,73,0,0
1,note_on,85,0,0
1,note_on,69,37,240
1,note_on,69,0,60
1,note_on,69,32,20
1,note_on,69,0,80
1,note_on,81,41,0
1,note_on,81,0,80
1,note_on,81,46,0
1,note_on,93,45,80
1,note_on,93,0,480
1,note_on,81,0,0
1,note_on,92,61,0
1,note_on,80,51,0
1,note_on,80,0,320
1,note_on,92,0,0
1,note_on,88,58,0
1,note_on,76,49,0
1,note_on,76,0,320
1,note_on,88,0,0
1,note_on,75,46,0
1,note_on,87,55,0
1,note_on,87,0,320
1,note_on,75,0,0
1,note_on,74,45,0
1,note_on,86,53,0
1,note_on,86,0,320
1,note_on,74,0,0
1,note_on,83,50,0
1,note_on,71,42,0
1,note_on,71,0,320
1,note_on,83,0,0
1,note_on,80,51,0
1,note_on,80,0,160
1,note_on,76,45,0
1,note_on,76,0,160
1,note_on,75,45,0
1,note_on,75,0,160
1,note_on,74,45,0
1,note_on,74,0,160
1,note_on,71,45,0
1,note_on,71,0,160
1,note_on,68,45,0
1,note_on,68,0,160
1,note_on,64,48,0
1,note_on,64,0,160
1,note_on,63,42,0
1,note_on,63,0,160
1,note_on,62,42,0
1,note_on,62,0,160
1,note_on,62,41,8160
1,note_on,59,34,0
1,note_on,59,0,480
1,note_on,62,0,0
1,note_on,59,35,0
1,note_on,62,42,0
1,note_on,62,0,45
1,note_on,59,0,0
1,note_on,59,35,195
1,note_on,62,42,0
1,note_on,62,0,240
1,note_on,59,0,0
1,note_on,62,43,0
1,note_on,59,36,0
1,note_on,59,0,480
1,note_on,62,0,0
1,note_on,67,45,0
1,note_on,59,38,0
1,note_on,59,0,45
1,note_on,67,0,0
1,note_on,59,38,195
1,note_on,67,47,0
1,note_on,67,0,240
1,note_on,59,0,0
1,note_on,67,47,0
1,note_on,64,40,0
1,note_on,64,0,480
1,note_on,67,0,0
1,note_on,64,42,0
1,note_on,67,51,0
1,note_on,67,0,45
1,note_on,64,0,0
1,note_on,67,51,195
1,note_on,64,42,0
1,note_on,64,0,240
1,note_on,67,0,0
1,note_on,64,44,0
1,note_on,72,53,0
1,note_on,72,0,480
1,note_on,64,0,0
1,note_on,64,46,0
1,note_on,72,55,0
1,note_on,72,0,45
1,note_on,64,0,0
1,note_on,64,52,195
1,note_on,72,52,0
1,note_on,72,0,240
1,note_on,64,0,0
1,note_on,72,58,0
1,note_on,69,48,0
1,note_on,69,0,480
1,note_on,72,0,0
1,note_on,72,65,0
1,note_on,69,54,0
1,note_on,69,0,60
1,note_on,72,0,0
1,note_on,69,57,180
1,note_on,72,69,0
1,note_on,72,0,240
1,note_on,69,0,0
1,note_on,69,60,0
1,note_on,77,73,0
1,note_on,77,0,480
1,note_on,69,0,0
1,note_on,69,67,0
1,note_on,74,67,0
1,note_on,77,82,0
1,note_on,77,0,60
1,note_on,74,0,0
1,note_on,69,0,0
1,note_on,74,71,180
1,note_on,69,71,0
1,note_on,77,86,0
1,note_on,77,0,240
1,note_on,69,0,0
1,note_on,74,0,0
1,note_on,76,76,0
1,note_on,69,76,0
1,note_on,73,76,0
1,note_on,81,91,0
1,note_on,81,0,480
1,note_on,76,0,0
1,note_on,69,0,0
1,note_on,73,0,0
1,note_on,76,75,0
1,note_on,73,75,0
1,note_on,69,75,0
1,note_on,81,89,0
1,note_on,81,0,60
1,note_on,76,0,0
1,note_on,73,0,0
1,note_on,69,0,0
1,note_on,73,74,180
1,note_on,69,74,0
1,note_on,81,89,0
1,note_on,76,74,0
1,note_on,76,0,240
1,note_on,73,0,0
1,note_on,69,0,0
1,note_on,81,0,0
1,note_on,69,73,0
1,note_on,81,87,0
1,note_on,73,73,0
1,note_on,76,73,0
1,note_on,76,0,480
1,note_on,69,0,0
1,note_on,81,0,0
1,note_on,73,0,0
1,note_on,69,71,0
1,note_on,73,71,0
1,note_on,76,71,0
1,note_on,81,86,0
1,note_on,81,0,60
1,note_on,69,0,0
1,note_on,73,0,0
1,note_on,76,0,0
1,note_on,76,71,180
1,note_on,73,71,0
1,note_on,81,85,0
1,note_on,69,71,0
1,note_on,69,0,240
1,note_on,76,0,0
1,note_on,73,0,0
1,note_on,81,0,0
1,note_on,73,70,0
1,note_on,81,83,0
1,note_on,76,70,0
1,note_on,69,70,0
1,note_on,69,0,480
1,note_on,73,0,0
1,note_on,81,0,0
1,note_on,76,0,0
1,note_on,69,68,0
1,note_on,81,82,0
1,note_on,81,0,60
1,note_on,69,0,0
1,note_on,81,81,180
1,note_on,69,68,0
1,note_on,69,0,240
1,note_on,81,0,0
1,note_on,69,61,0
1,note_on,81,73,0
1,note_on,81,0,480
1,note_on,69,0,0
1,note_on,69,54,0
1,note_on,81,65,0
1,note_on,81,0,60
1,note_on,69,0,0
1,note_on,69,51,180
1,note_on,81,61,0
1,note_on,81,0,240
1,note_on,69,0,0
1,note_on,81,57,0
1,note_on,69,47,0
1,note_on,69,0,480
1,note_on,81,0,0
1,note_on,81,49,0
1,note_on,69,40,0
1,note_on,69,0,60
1,note_on,81,0,0
1,note_on,69,37,180
1,note_on,81,45,0
1,note_on,81,0,240
1,note_on,69,0,0
1,note_on,69,27,0
1,note_on,81,32,0
1,note_on,81,0,480
1,note_on,69,0,0
1,note_on,81,32,0
1,note_on,69,27,0
1,note_on,69,0,60
1,note_on,81,0,0
1,note_on,81,32,180
1,note_on,69,27,0
1,note_on,69,0,240
1,note_on,81,0,0
1,note_on,81,40,0
1,note_on,81,0,80
1,note_on,82,36,0
1,note_on,82,0,80
1,note_on,81,40,0
1,note_on,81,0,80
1,note_on,82,35,0
1,note_on,82,0,80
1,note_on,81,40,0
1,note_on,81,0,80
1,note_on,82,36,0
1,note_on,82,0,80
1,note_on,81,40,0
1,note_on,81,0,80
1,note_on,82,36,0
1,note_on,82,0,80
1,note_on,81,40,0
1,note_on,81,0,80
1,note_on,82,36,0
1,note_on,82,0,80
1,note_on,81,40,0
1,note_on,81,0,80
1,note_on,82,35,0
1,note_on,82,0,80
1,note_on,81,40,0
1,note_on,81,0,80
1,note_on,82,36,0
1,note_on,82,0,80
1,note_on,81,40,0
1,note_on,81,0,80
1,note_on,82,35,0
1,note_on,82,0,80
1,note_on,81,40,0
1,note_on,81,0,80
1,note_on,82,34,0
1,note_on,82,0,80
1,note_on,81,48,0
1,note_on,81,0,80
1,note_on,82,43,0
1,note_on,82,0,80
1,note_on,81,49,0
1,note_on,81,0,80
1,note_on,82,43,0
1,note_on,82,0,80
1,note_on,81,50,0
1,note_on,81,0,80
1,note_on,82,43,0
1,note_on,82,0,80
1,note_on,84,52,0
1,note_on,84,0,80
1,note_on,86,47,0
1,note_on,86,0,80
1,note_on,84,53,0
1,note_on,84,0,80
1,note_on,86,47,0
1,note_on,86,0,80
1,note_on,84,54,0
1,note_on,84,0,80
1,note_on,86,49,0
1,note_on,86,0,80
1,note_on,84,56,0
1,note_on,84,0,80
1,note_on,86,50,0
1,note_on,86,0,80
1,note_on,84,57,0
1,note_on,84,0,80
1,note_on,86,52,0
1,note_on,86,0,80
1,note_on,84,58,0
1,note_on,84,0,80
1,note_on,86,51,0
1,note_on,86,0,80
1,note_on,84,60,0
1,note_on,84,0,80
1,note_on,86,54,0
1,note_on,86,0,80
1,note_on,84,61,0
1,note_on,84,0,80
1,note_on,86,54,0
1,note_on,86,0,80
1,note_on,84,62,0
1,note_on,84,0,80
1,note_on,86,53,0
1,note_on,86,0,80
1,note_on,89,64,0
1,note_on,89,0,80
1,note_on,91,57,0
1,note_on,91,0,80
1,note_on,89,65,0
1,note_on,89,0,80
1,note_on,91,57,0
1,note_on,91,0,80
1,note_on,89,66,0
1,note_on,89,0,80
1,note_on,91,60,0
1,note_on,91,0,80
1,note_on,89,68,0
1,note_on,89,0,80
1,note_on,91,61,0
1,note_on,91,0,80
1,note_on,89,69,0
1,note_on,89,0,80
1,note_on,91,63,0
1,note_on,91,0,80
1,note_on,89,70,0
1,note_on,89,0,80
1,note_on,91,62,0
1,note_on,91,0,80
1,note_on,89,78,0
1,note_on,89,0,120
1,note_on,87,77,0
1,note_on,87,0,120
1,note_on,86,76,0
1,note_on,86,0,120
1,note_on,84,75,0
1,note_on,84,0,120
1,note_on,82,73,0
1,note_on,82,0,120
1,note_on,81,72,0
1,note_on,81,0,120
1,note_on,79,71,0
1,note_on,79,0,120
1,note_on,77,73,0
1,note_on,77,0,120
1,note_on,75,75,0
1,note_on,75,0,120
1,note_on,74,76,0
1,note_on,74,0,120
1,note_on,72,78,0
1,note_on,72,0,120
1,note_on,77,79,0
1,note_on,77,0,120
1,note_on,65,75,0
1,note_on,70,89,0
1,note_on,58,75,0
1,note_on,62,75,0
1,note_on,62,0,240
1,note_on,65,0,0
1,note_on,70,0,0
1,note_on,58,0,0
1,note_on,67,50,480
1,note_on,65,43,120
1,note_on,67,0,24
1,note_on,63,50,96
1,note_on,65,0,24
1,note_on,62,47,96
1,note_on,63,0,24
1,note_on,60,47,96
1,note_on,62,0,24
1,note_on,58,47,96
1,note_on,60,0,24
1,note_on,57,50,96
1,note_on,58,0,24
1,note_on,58,44,96
1,note_on,57,0,24
1,note_on,57,44,96
1,note_on,58,0,24
1,note_on,55,44,96
1,note_on,57,0,24
1,note_on,53,50,96
1,note_on,55,0,24
1,note_on,53,0,96
1,note_on,55,44,0
1,note_on,55,0,120
1,note_on,53,44,0
1,note_on,53,0,120
1,note_on,51,44,0
1,note_on,51,0,120
1,note_on,50,50,0
1,note_on,50,0,120
1,note_on,51,44,0
1,note_on,51,0,120
1,note_on,50,44,0
1,note_on,50,0,120
1,note_on,48,44,0
1,note_on,48,0,120
1,note_on,46,50,0
1,note_on,46,0,480
1,note_on,58,65,12480
1,note_on,58,0,120
1,note_on,76,65,360
1,note_on,76,0,80
1,note_on,77,59,0
1,note_on,77,0,80
1,note_on,76,65,0
1,note_on,76,0,80
1,note_on,77,60,0
1,note_on,77,0,80
1,note_on,76,65,0
1,note_on,76,0,80
1,note_on,77,61,0
1,note_on,77,0,80
1,note_on,76,65,0
1,note_on,76,0,80
1,note_on,77,65,0
1,note_on,77,0,80
1,note_on,76,65,0
1,note_on,76,0,80
1,note_on,77,61,0
1,note_on,77,0,60
1,note_on,76,65,0
1,note_on,76,0,60
1,note_on,74,61,0
1,note_on,74,0,60
1,note_on,76,61,0
1,note_on,76,0,60
1,note_on,77,69,0
1,note_on,77,0,480
1,note_on,77,62,240
1,note_on,76,52,120
1,note_on,77,0,24
1,note_on,74,52,96
1,note_on,76,0,24
1,note_on,72,52,96
1,note_on,74,0,24
1,note_on,70,58,96
1,note_on,72,0,24
1,note_on,69,51,96
1,note_on,70,0,24
1,note_on,74,69,96
1,note_on,69,0,24
1,note_on,74,0,456
1,note_on,74,62,240
1,note_on,72,52,120
1,note_on,74,0,24
1,note_on,70,52,96
1,note_on,72,0,24
1,note_on,69,52,96
1,note_on,70,0,24
1,note_on,67,58,96
1,note_on,69,0,24
1,note_on,65,51,96
1,note_on,67,0,24
1,note_on,70,69,96
1,note_on,65,0,24
1,note_on,70,0,456
1,note_on,70,66,240
1,note_on,69,65,120
1,note_on,70,0,24
1,note_on,67,64,96
1,note_on,69,0,24
1,note_on,69,63,96
1,note_on,67,0,24
1,note_on,67,61,96
1,note_on,69,0,24
1,note_on,65,62,96
1,note_on,67,0,24
1,note_on,64,66,96
1,note_on,65,0,24
1,note_on,65,59,96
1,note_on,64,0,24
1,note_on,64,59,96
1,note_on,65,0,24
1,note_on,62,59,96
1,note_on,64,0,24
1,note_on,62,0,96
1,note_on,60,59,0
1,note_on,60,0,120
1,note_on,62,62,0
1,note_on,64,57,120
1,note_on,62,0,24
1,note_on,65,57,96
1,note_on,64,0,24
1,note_on,66,57,96
1,note_on,65,0,24
1,note_on,67,57,96
1,note_on,66,0,24
1,note_on,69,57,96
1,note_on,67,0,24
1,note_on,67,57,96
1,note_on,69,0,24
1,note_on,67,0,96
1,note_on,65,60,0
1,note_on,67,61,120
1,note_on,65,0,24
1,note_on,69,61,96
1,note_on,67,0,24
1,note_on,70,62,96
1,note_on,69,0,24
1,note_on,71,63,96
1,note_on,70,0,24
1,note_on,72,63,96
1,note_on,71,0,24
1,note_on,74,64,96
1,note_on,72,0,24
1,note_on,72,60,96
1,note_on,74,0,24
1,note_on,70,64,96
1,note_on,72,0,24
1,note_on,69,63,96
1,note_on,70,0,24
1,note_on,67,62,96
1,note_on,69,0,24
1,note_on,65,60,96
1,note_on,67,0,24
1,note_on,64,65,96
1,note_on,65,0,24
1,note_on,65,56,96
1,note_on,64,0,24
1,note_on,64,58,96
1,note_on,65,0,24
1,note_on,62,58,96
1,note_on,64,0,24
1,note_on,62,0,96
1,note_on,60,62,0
1,note_on,62,62,120
1,note_on,60,0,24
1,note_on,64,58,96
1,note_on,62,0,24
1,note_on,65,58,96
1,note_on,64,0,24
1,note_on,66,58,96
1,note_on,65,0,24
1,note_on,67,58,96
1,note_on,66,0,24
1,note_on,69,58,96
1,note_on,67,0,24
1,note_on,65,58,96
1,note_on,69,0,24
1,note_on,65,0,96
1,note_on,64,66,0
1,note_on,65,62,120
1,note_on,64,0,24
1,note_on,72,59,96
1,note_on,65,0,24
1,note_on,70,59,96
1,note_on,72,0,24
1,note_on,70,0,96
1,note_on,69,62,0
1,note_on,70,56,120
1,note_on,69,0,24
1,note_on,72,56,96
1,note_on,70,0,24
1,note_on,70,56,96
1,note_on,72,0,24
1,note_on,70,0,96
1,note_on,68,58,0
1,note_on,69,57,120
1,note_on,68,0,24
1,note_on,70,57,96
1,note_on,69,0,24
1,note_on,69,57,96
1,note_on,70,0,24
1,note_on,69,0,96
1,note_on,67,68,0
1,note_on,68,62,120
1,note_on,67,0,24
1,note_on,75,68,96
1,note_on,68,0,24
1,note_on,74,62,96
1,note_on,75,0,24
1,note_on,74,0,96
1,note_on,72,64,0
1,note_on,73,59,120
1,note_on,72,0,24
1,note_on,74,59,96
1,note_on,73,0,24
1,note_on,73,59,96
1,note_on,74,0,24
1,note_on,73,0,96
1,note_on,71,62,0
1,note_on,72,58,120
1,note_on,71,0,24
1,note_on,74,58,96
1,note_on,72,0,24
1,note_on,72,58,96
1,note_on,74,0,24
1,note_on,72,0,96
1,note_on,63,79,0
1,note_on,68,79,0
1,note_on,69,68,120
1,note_on,68,0,24
1,note_on,70,68,96
1,note_on,69,0,24
1,note_on,69,68,96
1,note_on,70,0,24
1,note_on,69,0,96
1,note_on,64,68,0
1,note_on,64,0,120
1,note_on,65,64,0
1,note_on,65,0,120
1,note_on,67,64,0
1,note_on,67,0,120
1,note_on,65,64,0
1,note_on,65,0,120
1,note_on,63,0,0
1,note_on,65,71,0
1,note_on,71,68,0
1,note_on,71,0,120
1,note_on,72,63,0
1,note_on,72,0,120
1,note_on,74,63,0
1,note_on,74,0,120
1,note_on,72,63,0
1,note_on,72,0,120
1,note_on,65,0,240
1,note_on,62,65,0
1,note_on,62,0,120
1,note_on,74,76,120
1,note_on,69,45,240
1,note_on,69,0,240
1,note_on,70,50,0
1,note_on,74,0,240
1,note_on,70,0,240
1,note_on,58,65,240
1,note_on,58,0,120
1,note_on,70,76,120
1,note_on,66,45,240
1,note_on,66,0,240
1,note_on,67,50,0
1,note_on,70,0,240
1,note_on,67,0,240
1,note_on,67,61,240
1,note_on,67,0,120
1,note_on,79,68,120
1,note_on,71,51,240
1,note_on,77,61,0
1,note_on,79,0,24
1,note_on,71,0,216
1,note_on,72,51,0
1,note_on,75,60,0
1,note_on,77,0,24
1,note_on,72,0,216
1,note_on,67,51,0
1,note_on,76,60,0
1,note_on,75,0,24
1,note_on,67,0,216
1,note_on,72,59,0
1,note_on,77,70,0
1,note_on,76,0,24
1,note_on,77,0,96
1,note_on,72,0,0
1,note_on,65,59,120
1,note_on,65,0,240
1,note_on,72,59,0
1,note_on,75,78,0
1,note_on,72,0,240
1,note_on,66,59,0
1,note_on,66,0,240
1,note_on,65,59,0
1,note_on,75,0,240
1,note_on,75,59,0
1,note_on,75,0,240
1,note_on,75,65,0
1,note_on,65,0,240
1,note_on,65,50,0
1,note_on,74,59,0
1,note_on,75,0,24
1,note_on,65,0,216
1,note_on,63,50,0
1,note_on,72,59,0
1,note_on,74,0,24
1,note_on,63,0,216
1,note_on,62,50,0
1,note_on,70,59,0
1,note_on,72,0,24
1,note_on,62,0,216
1,note_on,60,50,0
1,note_on,69,59,0
1,note_on,70,0,24
1,note_on,60,0,216
1,note_on,62,50,0
1,note_on,70,59,0
1,note_on,69,0,24
1,note_on,70,0,216
1,note_on,62,0,0
1,note_on,65,70,0
1,note_on,65,0,120
1,note_on,71,59,120
1,note_on,71,0,240
1,note_on,72,59,0
1,note_on,63,78,0
1,note_on,72,0,240
1,note_on,66,59,0
1,note_on,66,0,240
1,note_on,65,59,0
1,note_on,63,0,240
1,note_on,62,59,0
1,note_on,62,0,240
1,note_on,65,0,0
1,note_on,80,77,0
1,note_on,80,0,120
1,note_on,70,59,120
1,note_on,70,0,240
1,note_on,76,59,0
1,note_on,79,85,0
1,note_on,76,0,240
1,note_on,70,59,0
1,note_on,79,0,480
1,note_on,77,59,0
1,note_on,77,0,240
1,note_on,70,0,0
1,note_on,72,77,0
1,note_on,72,0,120
1,note_on,75,59,120
1,note_on,75,0,240
1,note_on,79,59,0
1,note_on,70,85,0
1,note_on,79,0,240
1,note_on,73,59,0
1,note_on,73,0,240
1,note_on,72,59,0
1,note_on,70,0,240
1,note_on,69,59,0
1,note_on,69,0,240
1,note_on,72,0,0
1,note_on,89,83,0
1,note_on,89,0,120
1,note_on,81,67,120
1,note_on,81,0,240
1,note_on,84,67,0
1,note_on,87,89,0
1,note_on,84,0,240
1,note_on,78,67,0
1,note_on,78,0,240
1,note_on,77,67,0
1,note_on,87,0,240
1,note_on,86,71,0
1,note_on,86,0,240
1,note_on,77,0,0
1,note_on,92,92,0
1,note_on,92,0,120
1,note_on,82,67,120
1,note_on,82,0,240
1,note_on,88,67,0
1,note_on,91,102,0
1,note_on,88,0,240
1,note_on,82,67,0
1,note_on,82,0,480
1,note_on,91,0,0
1,note_on,86,67,0
1,note_on,89,77,0
1,note_on,86,0,240
1,note_on,83,67,0
1,note_on,83,0,240
1,note_on,89,0,0
1,note_on,79,67,0
1,note_on,89,77,0
1,note_on,79,0,240
1,note_on,84,67,0
1,note_on,84,0,240
1,note_on,89,0,0
1,note_on,79,67,0
1,note_on,88,72,0
1,note_on,88,0,240
1,note_on,79,0,0
1,note_on,84,67,0
1,note_on,87,77,0
1,note_on,84,0,240
1,note_on,77,67,0
1,note_on,77,0,480
1,note_on,87,0,0
1,note_on,82,67,0
1,note_on,86,77,0
1,note_on,86,0,240
1,note_on,82,0,0
1,note_on,82,67,0
1,note_on,85,77,0
1,note_on,85,0,240
1,note_on,82,0,0
1,note_on,70,67,0
1,note_on,73,77,0
1,note_on,70,0,240
1,note_on,58,67,0
1,note_on,73,0,120
1,note_on,79,68,0
1,note_on,79,0,120
1,note_on,58,0,0
1,note_on,82,71,0
1,note_on,82,0,120
1,note_on,85,73,0
1,note_on,85,0,120
1,note_on,76,76,0
1,note_on,85,76,0
1,note_on,76,0,80
1,note_on,77,64,0
1,note_on,77,0,80
1,note_on,76,76,0
1,note_on,76,0,80
1,note_on,85,0,0
1,note_on,77,64,0
1,note_on,84,69,0
1,note_on,77,0,80
1,note_on,76,76,0
1,note_on,84,0,40
1,note_on,82,69,0
1,note_on,76,0,40
1,note_on,77,64,0
1,note_on,77,0,80
1,note_on,82,0,0
1,note_on,76,76,0
1,note_on,81,72,0
1,note_on,76,0,80
1,note_on,77,64,0
1,note_on,81,0,40
1,note_on,82,67,0
1,note_on,77,0,40
1,note_on,76,76,0
1,note_on,76,0,80
1,note_on,82,0,0
1,note_on,77,64,0
1,note_on,84,67,0
1,note_on,77,0,60
1,note_on,76,57,0
1,note_on,76,0,60
1,note_on,84,0,0
1,note_on,74,57,0
1,note_on,82,67,0
1,note_on,74,0,60
1,note_on,76,57,0
1,note_on,76,0,60
1,note_on,82,0,0
1,note_on,77,73,0
1,note_on,81,73,0
1,note_on,81,0,120
1,note_on,79,67,0
1,note_on,79,0,120
1,note_on,81,67,0
1,note_on,81,0,120
1,note_on,82,67,0
1,note_on,82,0,120
1,note_on,77,0,0
1,note_on,84,77,0
1,note_on,84,0,120
1,note_on,82,71,0
1,note_on,82,0,120
1,note_on,81,70,0
1,note_on,81,0,120
1,note_on,79,69,0
1,note_on,79,0,120
1,note_on,77,68,0
1,note_on,77,0,120
1,note_on,79,69,0
1,note_on,79,0,120
1,note_on,77,69,0
1,note_on,77,0,120
1,note_on,75,69,0
1,note_on,75,0,120
1,note_on,62,67,0
1,note_on,74,73,0
1,note_on,74,0,120
1,note_on,85,82,0
1,note_on,85,0,120
1,note_on,62,0,0
1,note_on,86,85,0
1,note_on,86,0,120
1,note_on,85,81,0
1,note_on,85,0,120
1,note_on,78,76,0
1,note_on,87,76,0
1,note_on,78,0,80
1,note_on,79,64,0
1,note_on,79,0,80
1,note_on,78,76,0
1,note_on,78,0,80
1,note_on,87,0,0
1,note_on,79,64,0
1,note_on,86,69,0
1,note_on,79,0,80
1,note_on,78,76,0
1,note_on,86,0,40
1,note_on,84,69,0
1,note_on,78,0,40
1,note_on,79,64,0
1,note_on,79,0,80
1,note_on,84,0,0
1,note_on,78,76,0
1,note_on,83,72,0
1,note_on,78,0,80
1,note_on,79,64,0
1,note_on,83,0,40
1,note_on,84,67,0
1,note_on,79,0,40
1,note_on,78,76,0
1,note_on,78,0,80
1,note_on,84,0,0
1,note_on,79,64,0
1,note_on,86,67,0
1,note_on,79,0,60
1,note_on,78,57,0
1,note_on,78,0,60
1,note_on,86,0,0
1,note_on,75,57,0
1,note_on,84,67,0
1,note_on,75,0,60
1,note_on,78,57,0
1,note_on,78,0,60
1,note_on,84,0,0
1,note_on,79,73,0
1,note_on,83,73,0
1,note_on,83,0,120
1,note_on,81,67,0
1,note_on,81,0,120
1,note_on,83,67,0
1,note_on,83,0,120
1,note_on,84,67,0
1,note_on,84,0,120
1,note_on,79,0,0
1,note_on,86,77,0
1,note_on,86,0,120
1,note_on,84,71,0
1,note_on,84,0,120
1,note_on,83,70,0
1,note_on,83,0,120
1,note_on,80,69,0
1,note_on,80,0,120
1,note_on,79,68,0
1,note_on,79,0,120
1,note_on,80,69,0
1,note_on,80,0,120
1,note_on,79,69,0
1,note_on,79,0,120
1,note_on,77,69,0
1,note_on,77,0,120
1,note_on,75,65,0
1,note_on,67,65,0
1,note_on,67,0,120
1,note_on,71,66,0
1,note_on,71,0,120
1,note_on,75,0,0
1,note_on,72,68,0
1,note_on,72,0,120
1,note_on,73,71,0
1,note_on,73,0,120
1,note_on,75,74,0
1,note_on,75,0,120
1,note_on,73,74,0
1,note_on,73,0,120
1,note_on,72,72,0
1,note_on,72,0,120
1,note_on,70,70,0
1,note_on,70,0,120
1,note_on,68,78,0
1,note_on,68,0,120
1,note_on,70,75,0
1,note_on,70,0,120
1,note_on,68,73,0
1,note_on,68,0,120
1,note_on,66,70,0
1,note_on,66,0,120
1,note_on,65,76,0
1,note_on,73,70,240
1,note_on,73,0,120
1,note_on,75,70,0
1,note_on,75,0,120
1,note_on,65,0,0
1,note_on,77,76,0
1,note_on,77,0,120
1,note_on,78,74,0
1,note_on,78,0,120
1,note_on,77,71,0
1,note_on,77,0,120
1,note_on,75,71,0
1,note_on,75,0,120
1,note_on,73,72,0
1,note_on,73,0,120
1,note_on,72,71,0
1,note_on,72,0,120
1,note_on,70,69,0
1,note_on,70,0,120
1,note_on,68,68,0
1,note_on,68,0,120
1,note_on,73,79,0
1,note_on,61,79,0
1,note_on,61,0,120
1,note_on,63,69,0
1,note_on,63,0,120
1,note_on,64,69,0
1,note_on,64,0,120
1,note_on,65,69,0
1,note_on,65,0,120
1,note_on,66,74,0
1,note_on,73,0,120
1,note_on,75,74,0
1,note_on,75,0,120
1,note_on,73,69,0
1,note_on,73,0,120
1,note_on,72,69,0
1,note_on,72,0,120
1,note_on,66,0,0
1,note_on,70,68,0
1,note_on,70,0,120
1,note_on,68,67,0
1,note_on,68,0,120
1,note_on,66,66,0
1,note_on,66,0,120
1,note_on,65,66,0
1,note_on,65,0,120
1,note_on,70,74,0
1,note_on,58,74,0
1,note_on,58,0,120
1,note_on,60,68,0
1,note_on,60,0,120
1,note_on,61,69,0
1,note_on,61,0,120
1,note_on,62,70,0
1,note_on,62,0,120
1,note_on,63,71,0
1,note_on,63,0,120
1,note_on,62,67,0
1,note_on,62,0,120
1,note_on,63,67,0
1,note_on,63,0,120
1,note_on,70,0,0
1,note_on,65,67,0
1,note_on,65,0,120
1,note_on,66,74,0
1,note_on,66,0,240
1,note_on,67,70,0
1,note_on,70,80,0
1,note_on,70,0,240
1,note_on,67,0,0
1,note_on,68,72,0
1,note_on,72,82,0
1,note_on,72,0,240
1,note_on,68,0,0
1,note_on,73,83,0
1,note_on,73,0,240
1,note_on,66,79,0
1,note_on,75,90,0
1,note_on,75,0,720
1,note_on,66,0,0
1,note_on,66,70,0
1,note_on,75,80,0
1,note_on,75,0,240
1,note_on,66,0,0
1,note_on,66,74,0
1,note_on,75,85,0
1,note_on,75,0,240
1,note_on,66,0,0
1,note_on,65,70,0
1,note_on,73,80,0
1,note_on,73,0,240
1,note_on,65,0,0
1,note_on,63,73,0
1,note_on,72,83,0
1,note_on,72,0,240
1,note_on,63,0,0
1,note_on,61,70,0
1,note_on,73,80,0
1,note_on,73,0,240
1,note_on,61,0,0
1,note_on,60,70,0
1,note_on,63,70,0
1,note_on,63,0,240
1,note_on,60,0,0
1,note_on,65,67,0
1,note_on,61,67,0
1,note_on,65,0,120
1,note_on,66,68,0
1,note_on,66,0,120
1,note_on,61,0,0
1,note_on,68,70,0
1,note_on,60,70,0
1,note_on,68,0,120
1,note_on,70,71,0
1,note_on,70,0,120
1,note_on,60,0,0
1,note_on,72,72,0
1,note_on,63,72,0
1,note_on,72,0,120
1,note_on,73,74,0
1,note_on,73,0,120
1,note_on,63,0,0
1,note_on,74,75,0
1,note_on,74,0,120
1,note_on,75,77,0
1,note_on,75,0,120
1,note_on,77,79,0
1,note_on,77,0,120
1,note_on,75,76,0
1,note_on,75,0,120
1,note_on,73,74,0
1,note_on,73,0,120
1,note_on,72,73,0
1,note_on,72,0,120
1,note_on,70,72,0
1,note_on,70,0,120
1,note_on,68,71,0
1,note_on,68,0,120
1,note_on,73,72,0
1,note_on,73,0,120
1,note_on,75,73,0
1,note_on,75,0,120
1,note_on,77,75,0
1,note_on,77,0,120
1,note_on,78,77,0
1,note_on,78,0,120
1,note_on,79,78,0
1,note_on,79,0,120
1,note_on,80,76,0
1,note_on,80,0,120
1,note_on,82,81,0
1,note_on,82,0,120
1,note_on,80,73,0
1,note_on,80,0,120
1,note_on,78,79,0
1,note_on,78,0,120
1,note_on,77,78,0
1,note_on,77,0,120
1,note_on,75,76,0
1,note_on,75,0,120
1,note_on,73,75,0
1,note_on,73,0,120
1,note_on,60,70,0
1,note_on,68,80,0
1,note_on,60,0,120
1,note_on,61,63,0
1,note_on,61,0,120
1,note_on,68,0,0
1,note_on,60,63,0
1,note_on,60,0,120
1,note_on,58,65,0
1,note_on,58,0,120
1,note_on,66,80,0
1,note_on,56,68,0
1,note_on,56,0,120
1,note_on,58,58,0
1,note_on,58,0,120
1,note_on,60,58,0
1,note_on,60,0,120
1,note_on,61,58,0
1,note_on,61,0,120
1,note_on,62,64,0
1,note_on,62,0,120
1,note_on,63,58,0
1,note_on,63,0,120
1,note_on,66,0,0
1,note_on,65,80,0
1,note_on,60,58,0
1,note_on,60,0,120
1,note_on,61,58,0
1,note_on,61,0,120
1,note_on,65,0,0
1,note_on,70,80,0
1,note_on,64,64,0
1,note_on,64,0,120
1,note_on,65,58,0
1,note_on,65,0,120
1,note_on,66,58,0
1,note_on,66,0,120
1,note_on,65,58,0
1,note_on,65,0,120
1,note_on,70,0,0
1,note_on,62,68,0
1,note_on,62,0,120
1,note_on,63,57,0
1,note_on,63,0,120
1,note_on,67,57,0
1,note_on,67,0,120
1,note_on,68,57,0
1,note_on,68,0,120
1,note_on,66,65,0
1,note_on,66,0,120
1,note_on,67,58,0
1,note_on,67,0,120
1,note_on,68,58,0
1,note_on,68,0,120
1,note_on,67,58,0
1,note_on,67,0,120
1,note_on,73,70,0
1,note_on,69,66,0
1,note_on,69,0,120
1,note_on,70,61,0
1,note_on,70,0,120
1,note_on,73,0,0
1,note_on,72,70,0
1,note_on,72,0,120
1,note_on,70,61,0
1,note_on,70,0,120
1,note_on,72,80,0
1,note_on,67,68,0
1,note_on,67,0,120
1,note_on,68,60,0
1,note_on,68,0,120
1,note_on,70,60,0
1,note_on,70,0,120
1,note_on,68,60,0
1,note_on,68,0,120
1,note_on,66,66,0
1,note_on,66,0,120
1,note_on,67,61,0
1,note_on,67,0,120
1,note_on,72,0,0
1,note_on,70,80,0
1,note_on,68,61,0
1,note_on,68,0,120
1,note_on,67,61,0
1,note_on,67,0,120
1,note_on,70,0,0
1,note_on,75,80,0
1,note_on,69,68,0
1,note_on,69,0,120
1,note_on,70,62,0
1,note_on,70,0,120
1,note_on,72,62,0
1,note_on,72,0,120
1,note_on,70,62,0
1,note_on,70,0,120
1,note_on,75,0,0
1,note_on,68,68,0
1,note_on,68,0,120
1,note_on,70,61,0
1,note_on,70,0,120
1,note_on,72,61,0
1,note_on,72,0,120
1,note_on,73,61,0
1,note_on,73,0,120
1,note_on,72,68,0
1,note_on,72,0,120
1,note_on,73,63,0
1,note_on,73,0,120
1,note_on,71,63,0
1,note_on,71,0,120
1,note_on,72,63,0
1,note_on,72,0,120
1,note_on,77,80,0
1,note_on,71,68,0
1,note_on,71,0,120
1,note_on,72,62,0
1,note_on,72,0,120
1,note_on,77,0,0
1,note_on,73,62,0
1,note_on,73,0,120
1,note_on,72,62,0
1,note_on,72,0,120
1,note_on,77,80,0
1,note_on,69,68,0
1,note_on,69,0,120
1,note_on,77,0,0
1,note_on,70,63,0
1,note_on,70,0,120
1,note_on,75,80,0
1,note_on,72,63,0
1,note_on,72,0,120
1,note_on,75,0,0
1,note_on,70,63,0
1,note_on,70,0,120
1,note_on,62,68,0
1,note_on,62,0,120
1,note_on,63,63,0
1,note_on,63,0,120
1,note_on,65,63,0
1,note_on,65,0,120
1,note_on,63,63,0
1,note_on,63,0,120
1,note_on,73,80,0
1,note_on,67,68,0
1,note_on,67,0,120
1,note_on,68,61,0
1,note_on,68,0,120
1,note_on,73,0,0
1,note_on,70,61,0
1,note_on,70,0,120
1,note_on,68,61,0
1,note_on,68,0,120
1,note_on,73,80,0
1,note_on,67,68,0
1,note_on,67,0,120
1,note_on,68,63,0
1,note_on,68,0,120
1,note_on,73,0,0
1,note_on,72,80,0
1,note_on,70,63,0
1,note_on,70,0,120
1,note_on,68,63,0
1,note_on,68,0,120
1,note_on,72,0,0
1,note_on,67,68,0
1,note_on,67,0,120
1,note_on,68,62,0
1,note_on,68,0,120
1,note_on,73,80,0
1,note_on,70,62,0
1,note_on,70,0,120
1,note_on,73,0,0
1,note_on,71,62,0
1,note_on,71,0,120
1,note_on,91,75,0
1,note_on,72,68,0
1,note_on,91,0,80
1,note_on,92,60,0
1,note_on,72,0,40
1,note_on,70,68,0
1,note_on,92,0,40
1,note_on,91,68,0
1,note_on,91,0,75
1,note_on,70,0,5
1,note_on,92,60,0
1,note_on,69,61,0
1,note_on,92,0,80
1,note_on,91,75,0
1,note_on,69,0,40
1,note_on,70,61,0
1,note_on,91,0,40
1,note_on,92,60,0
1,note_on,70,0,70
1,note_on,92,0,10
1,note_on,91,75,0
1,note_on,70,68,0
1,note_on,91,0,80
1,note_on,92,60,0
1,note_on,70,0,40
1,note_on,68,58,0
1,note_on,92,0,40
1,note_on,91,75,0
1,note_on,91,0,80
1,note_on,68,0,0
1,note_on,92,60,0
1,note_on,63,65,0
1,note_on,92,0,60
1,note_on,91,75,0
1,note_on,91,0,60
1,note_on,63,0,0
1,note_on,89,60,0
1,note_on,68,60,0
1,note_on,89,0,60
1,note_on,91,60,0
1,note_on,91,0,60
1,note_on,68,0,0
1,note_on,92,75,0
1,note_on,92,0,480
1,note_on,67,66,240
1,note_on,92,67,0
1,note_on,92,0,120
1,note_on,67,0,0
1,note_on,91,62,0
1,note_on,91,0,120
1,note_on,68,74,0
1,note_on,89,69,0
1,note_on,89,0,120
1,note_on,87,60,0
1,note_on,87,0,120
1,note_on,85,60,0
1,note_on,85,0,120
1,note_on,84,60,0
1,note_on,84,0,120
1,note_on,68,0,0
1,note_on,89,68,0
1,note_on,89,0,480
1,note_on,64,66,240
1,note_on,89,67,0
1,note_on,89,0,120
1,note_on,64,0,0
1,note_on,87,62,0
1,note_on,87,0,120
1,note_on,65,74,0
1,note_on,85,69,0
1,note_on,85,0,120
1,note_on,84,60,0
1,note_on,84,0,120
1,note_on,82,60,0
1,note_on,82,0,120
1,note_on,80,60,0
1,note_on,80,0,120
1,note_on,65,0,0
1,note_on,85,68,0
1,note_on,85,0,480
1,note_on,75,72,240
1,note_on,85,67,0
1,note_on,85,0,120
1,note_on,84,60,0
1,note_on,84,0,120
1,note_on,75,0,0
1,note_on,73,80,0
1,note_on,82,67,0
1,note_on,82,0,120
1,note_on,84,61,0
1,note_on,84,0,120
1,note_on,73,0,0
1,note_on,70,68,0
1,note_on,82,61,0
1,note_on,82,0,120
1,note_on,80,61,0
1,note_on,80,0,120
1,note_on,70,0,0
1,note_on,70,68,0
1,note_on,79,67,0
1,note_on,79,0,120
1,note_on,80,62,0
1,note_on,80,0,120
1,note_on,70,0,0
1,note_on,79,62,0
1,note_on,79,0,120
1,note_on,77,62,0
1,note_on,77,0,120
1,note_on,75,62,0
1,note_on,75,0,120
1,note_on,77,61,0
1,note_on,77,0,120
1,note_on,79,63,0
1,note_on,79,0,120
1,note_on,80,64,0
1,note_on,80,0,120
1,note_on,81,66,0
1,note_on,81,0,120
1,note_on,82,68,0
1,note_on,82,0,120
1,note_on,84,69,0
1,note_on,84,0,120
1,note_on,82,67,0
1,note_on,82,0,120
1,note_on,80,69,0
1,note_on,80,0,120
1,note_on,82,64,0
1,note_on,82,0,120
1,note_on,84,68,0
1,note_on,84,0,120
1,note_on,85,69,0
1,note_on,85,0,120
1,note_on,86,72,0
1,note_on,86,0,120
1,note_on,87,73,0
1,note_on,87,0,120
1,note_on,89,75,0
1,note_on,89,0,120
1,note_on,87,71,0
1,note_on,87,0,120
1,note_on,85,74,0
1,note_on,85,0,120
1,note_on,84,73,0
1,note_on,84,0,120
1,note_on,82,71,0
1,note_on,82,0,120
1,note_on,80,70,0
1,note_on,80,0,120
1,note_on,73,78,0
1,note_on,82,78,0
1,note_on,82,0,240
1,note_on,73,0,0
1,note_on,73,80,240
1,note_on,70,73,0
1,note_on,70,0,720
1,note_on,73,0,0
1,note_on,73,75,0
1,note_on,65,69,0
1,note_on,65,0,238
1,note_on,73,0,0
1,note_on,73,78,2
1,note_on,65,71,0
1,note_on,72,74,240
1,note_on,63,68,0
1,note_on,65,0,24
1,note_on,73,0,0
1,note_on,61,70,216
1,note_on,70,77,0
1,note_on,72,0,24
1,note_on,63,0,0
1,note_on,60,62,216
1,note_on,68,68,0
1,note_on,61,0,24
1,note_on,70,0,0
1,note_on,60,0,216
1,note_on,68,0,0
1,note_on,58,72,0
1,note_on,67,79,0
1,note_on,60,68,240
1,note_on,68,74,0
1,note_on,67,0,24
1,note_on,58,0,0
1,note_on,60,0,216
1,note_on,68,0,0
1,note_on,69,62,0
1,note_on,69,0,120
1,note_on,70,57,0
1,note_on,70,0,120
1,note_on,72,61,0
1,note_on,72,0,120
1,note_on,73,62,0
1,note_on,73,0,120
1,note_on,75,64,0
1,note_on,75,0,120
1,note_on,77,65,0
1,note_on,77,0,120
1,note_on,78,67,0
1,note_on,78,0,120
1,note_on,77,63,0
1,note_on,77,0,120
1,note_on,75,66,0
1,note_on,75,0,120
1,note_on,73,65,0
1,note_on,73,0,120
1,note_on,72,63,0
1,note_on,72,0,120
1,note_on,70,63,0
1,note_on,70,0,120
1,note_on,75,78,0
1,note_on,66,71,0
1,note_on,73,74,240
1,note_on,65,68,0
1,note_on,66,0,24
1,note_on,75,0,0
1,note_on,63,70,216
1,note_on,72,77,0
1,note_on,73,0,24
1,note_on,65,0,0
1,note_on,61,62,216
1,note_on,70,68,0
1,note_on,63,0,24
1,note_on,72,0,0
1,note_on,61,0,216
1,note_on,70,0,0
1,note_on,60,72,0
1,note_on,69,79,0
1,note_on,61,68,240
1,note_on,70,74,0
1,note_on,69,0,24
1,note_on,60,0,0
1,note_on,61,0,216
1,note_on,70,0,0
1,note_on,50,62,0
1,note_on,51,57,120
1,note_on,50,0,24
1,note_on,53,61,96
1,note_on,51,0,24
1,note_on,55,62,96
1,note_on,53,0,24
1,note_on,56,64,96
1,note_on,55,0,24
1,note_on,58,65,96
1,note_on,56,0,24
1,note_on,59,67,96
1,note_on,58,0,24
1,note_on,58,63,96
1,note_on,59,0,24
1,note_on,56,66,96
1,note_on,58,0,24
1,note_on,55,65,96
1,note_on,56,0,24
1,note_on,53,63,96
1,note_on,55,0,24
1,note_on,51,63,96
1,note_on,53,0,24
1,note_on,51,0,96
1,note_on,52,62,0
1,note_on,53,57,120
1,note_on,52,0,24
1,note_on,55,61,96
1,note_on,53,0,24
1,note_on,56,62,96
1,note_on,55,0,24
1,note_on,58,64,96
1,note_on,56,0,24
1,note_on,60,65,96
1,note_on,58,0,24
1,note_on,61,67,96
1,note_on,60,0,24
1,note_on,60,63,96
1,note_on,61,0,24
1,note_on,58,66,96
1,note_on,60,0,24
1,note_on,56,65,96
1,note_on,58,0,24
1,note_on,55,63,96
1,note_on,56,0,24
1,note_on,53,63,96
1,note_on,55,0,24
1,note_on,53,0,96
1,note_on,75,78,0
1,note_on,71,71,0
1,note_on,73,74,240
1,note_on,70,68,0
1,note_on,71,0,24
1,note_on,75,0,0
1,note_on,68,70,216
1,note_on,71,77,0
1,note_on,73,0,24
1,note_on,70,0,0
1,note_on,66,62,216
1,note_on,70,68,0
1,note_on,68,0,24
1,note_on,71,0,0
1,note_on,66,0,216
1,note_on,70,0,0
1,note_on,65,72,0
1,note_on,68,79,0
1,note_on,66,68,240
1,note_on,70,74,0
1,note_on,68,0,24
1,note_on,65,0,0
1,note_on,66,0,216
1,note_on,70,0,0
1,note_on,85,78,0
1,note_on,76,71,0
1,note_on,83,74,240
1,note_on,75,68,0
1,note_on,76,0,24
1,note_on,85,0,0
1,note_on,73,70,216
1,note_on,82,77,0
1,note_on,83,0,24
1,note_on,75,0,0
1,note_on,71,62,216
1,note_on,80,68,0
1,note_on,73,0,24
1,note_on,82,0,0
1,note_on,71,0,216
1,note_on,80,0,0
1,note_on,70,72,0
1,note_on,79,79,0
1,note_on,71,68,240
1,note_on,80,74,0
1,note_on,79,0,24
1,note_on,70,0,0
1,note_on,71,0,456
1,note_on,80,0,0
1,note_on,80,78,0
1,note_on,83,85,0
1,note_on,83,0,480
1,note_on,80,0,0
1,note_on,79,82,0
1,note_on,82,90,0
1,note_on,82,0,240
1,note_on,79,0,0
1,note_on,73,66,0
1,note_on,76,78,0
1,note_on,76,0,720
1,note_on,73,0,0
1,note_on,73,64,0
1,note_on,76,76,0
1,note_on,76,0,480
1,note_on,73,0,0
1,note_on,71,52,0
1,note_on,75,62,0
1,note_on,75,0,240
1,note_on,71,0,0
1,note_on,70,57,0
1,note_on,73,68,0
1,note_on,73,0,240
1,note_on,70,0,0
1,note_on,68,56,0
1,note_on,71,66,0
1,note_on,71,0,240
1,note_on,68,0,0
1,note_on,67,59,0
1,note_on,70,70,0
1,note_on,70,0,240
1,note_on,67,0,0
1,note_on,68,56,0
1,note_on,71,66,0
1,note_on,71,0,240
1,note_on,68,0,0
1,note_on,70,57,0
1,note_on,73,68,0
1,note_on,73,0,240
1,note_on,70,0,0
1,note_on,71,60,0
1,note_on,75,71,0
1,note_on,75,0,478
1,note_on,71,0,0
1,note_on,71,59,2
1,note_on,75,70,0
1,note_on,75,0,238
1,note_on,71,0,0
1,note_on,75,85,2
1,note_on,71,72,0
1,note_on,71,0,720
1,note_on,75,0,0
1,note_on,73,76,0
1,note_on,70,52,0
1,note_on,70,0,480
1,note_on,73,0,0
1,note_on,68,56,0
1,note_on,71,66,0
1,note_on,71,0,240
1,note_on,68,0,0
1,note_on,66,47,0
1,note_on,70,56,0
1,note_on,70,0,240
1,note_on,66,0,0
1,note_on,68,52,0
1,note_on,65,44,0
1,note_on,65,0,240
1,note_on,68,0,0
1,note_on,70,54,0
1,note_on,66,45,0
1,note_on,66,0,240
1,note_on,70,0,0
1,note_on,68,48,0
1,note_on,71,56,0
1,note_on,71,0,240
1,note_on,68,0,0
1,note_on,66,56,0
1,note_on,73,56,0
1,note_on,73,0,240
1,note_on,66,0,0
1,note_on,66,51,0
1,note_on,75,60,0
1,note_on,66,0,240
1,note_on,65,54,0
1,note_on,65,0,240
1,note_on,75,0,0
1,note_on,66,45,0
1,note_on,73,54,0
1,note_on,66,0,240
1,note_on,68,40,0
1,note_on,68,0,120
1,note_on,66,53,0
1,note_on,66,0,120
1,note_on,73,0,0
1,note_on,65,40,0
1,note_on,73,48,0
1,note_on,65,0,120
1,note_on,68,48,0
1,note_on,68,0,120
1,note_on,73,0,0
1,note_on,66,46,0
1,note_on,70,39,0
1,note_on,70,0,120
1,note_on,58,46,0
1,note_on,58,0,120
1,note_on,66,0,0
1,note_on,61,40,0
1,note_on,61,0,120
1,note_on,66,40,0
1,note_on,66,0,120
1,note_on,70,52,0
1,note_on,70,0,120
1,note_on,66,40,0
1,note_on,66,0,120
1,note_on,65,40,0
1,note_on,71,54,0
1,note_on,71,0,120
1,note_on,65,0,0
1,note_on,63,40,0
1,note_on,63,0,120
1,note_on,65,41,0
1,note_on,73,57,0
1,note_on,73,0,240
1,note_on,65,0,0
1,note_on,66,40,0
1,note_on,66,0,120
1,note_on,68,40,0
1,note_on,68,0,120
1,note_on,70,50,0
1,note_on,70,0,480
1,note_on,78,58,120
1,note_on,78,0,120
1,note_on,77,54,0
1,note_on,77,0,120
1,note_on,75,58,0
1,note_on,75,0,120
1,note_on,77,65,0
1,note_on,77,0,240
1,note_on,78,62,0
1,note_on,78,0,120
1,note_on,80,68,0
1,note_on,77,67,120
1,note_on,77,0,120
1,note_on,65,56,0
1,note_on,65,0,120
1,note_on,68,60,0
1,note_on,68,0,120
1,note_on,73,64,0
1,note_on,73,0,120
1,note_on,77,70,0
1,note_on,80,0,120
1,note_on,89,72,0
1,note_on,89,0,120
1,note_on,77,0,0
1,note_on,78,75,0
1,note_on,87,75,0
1,note_on,87,0,120
1,note_on,85,71,0
1,note_on,85,0,120
1,note_on,78,0,0
1,note_on,80,59,0
1,note_on,84,75,0
1,note_on,84,0,240
1,note_on,85,70,0
1,note_on,85,0,120
1,note_on,87,70,0
1,note_on,87,0,120
1,note_on,80,0,0
1,note_on,80,66,0
1,note_on,77,57,0
1,note_on,80,0,480
1,note_on,77,0,120
1,note_on,77,66,0
1,note_on,77,0,120
1,note_on,75,65,0
1,note_on,75,0,120
1,note_on,73,63,0
1,note_on,73,0,120
1,note_on,72,62,0
1,note_on,72,0,120
1,note_on,70,61,0
1,note_on,70,0,120
1,note_on,68,59,0
1,note_on,68,0,120
1,note_on,66,58,0
1,note_on,66,0,120
1,note_on,65,69,0
1,note_on,77,75,0
1,note_on,65,0,118
1,note_on,77,0,2
1,note_on,78,80,120
1,note_on,78,0,120
1,note_on,80,83,120
1,note_on,68,62,120
1,note_on,68,0,120
1,note_on,70,62,0
1,note_on,70,0,120
1,note_on,72,62,0
1,note_on,72,0,120
1,note_on,74,62,0
1,note_on,80,0,120
1,note_on,77,62,0
1,note_on,77,0,120
1,note_on,74,0,0
1,note_on,75,62,0
1,note_on,70,62,0
1,note_on,75,0,120
1,note_on,74,62,0
1,note_on,74,0,120
1,note_on,70,0,0
1,note_on,70,56,0
1,note_on,75,62,0
1,note_on,70,0,120
1,note_on,75,0,360
1,note_on,66,66,0
1,note_on,66,0,120
1,note_on,90,78,0
1,note_on,90,0,120
1,note_on,89,78,0
1,note_on,68,78,0
1,note_on,68,0,120
1,note_on,89,0,0
1,note_on,87,76,0
1,note_on,87,0,120
1,note_on,86,74,0
1,note_on,70,74,0
1,note_on,86,0,120
1,note_on,83,72,0
1,note_on,83,0,120
1,note_on,82,70,0
1,note_on,82,0,120
1,note_on,80,68,0
1,note_on,80,0,120
1,note_on,70,0,0
1,note_on,70,66,0
1,note_on,78,74,0
1,note_on,70,0,240
1,note_on,66,66,0
1,note_on,78,0,240
1,note_on,66,0,120
1,note_on,78,74,0
1,note_on,78,0,120
1,note_on,77,72,0
1,note_on,77,0,120
1,note_on,75,71,0
1,note_on,75,0,120
1,note_on,74,70,0
1,note_on,74,0,120
1,note_on,71,68,0
1,note_on,71,0,120
1,note_on,70,67,0
1,note_on,70,0,120
1,note_on,68,65,0
1,note_on,68,0,120
1,note_on,66,69,0
1,note_on,78,78,0
1,note_on,78,0,120
1,note_on,66,0,0
1,note_on,80,83,120
1,note_on,80,0,120
1,note_on,82,88,120
1,note_on,82,0,600
1,note_on,79,66,0
1,note_on,79,0,120
1,note_on,77,65,0
1,note_on,77,0,120
1,note_on,75,65,0
1,note_on,75,0,120
1,note_on,87,76,0
1,note_on,87,0,120
1,note_on,83,65,0
1,note_on,83,0,120
1,note_on,82,65,0
1,note_on,82,0,120
1,note_on,80,65,0
1,note_on,80,0,120
1,note_on,92,80,0
1,note_on,92,0,120
1,note_on,89,67,0
1,note_on,89,0,120
1,note_on,87,68,0
1,note_on,87,0,120
1,note_on,86,68,0
1,note_on,86,0,120
1,note_on,92,87,0
1,note_on,92,0,600
1,note_on,80,70,0
1,note_on,80,0,120
1,note_on,78,70,0
1,note_on,78,0,120
1,note_on,77,70,0
1,note_on,77,0,120
1,note_on,80,82,0
1,note_on,80,0,120
1,note_on,77,69,0
1,note_on,77,0,120
1,note_on,75,69,0
1,note_on,75,0,120
1,note_on,74,69,0
1,note_on,74,0,120
1,note_on,77,81,0
1,note_on,77,0,120
1,note_on,70,70,0
1,note_on,70,0,120
1,note_on,69,70,0
1,note_on,69,0,120
1,note_on,70,70,0
1,note_on,70,0,120
1,note_on,82,85,0
1,note_on,82,0,120
1,note_on,77,72,0
1,note_on,77,0,120
1,note_on,76,72,0
1,note_on,76,0,120
1,note_on,77,72,0
1,note_on,77,0,120
1,note_on,89,85,0
1,note_on,89,0,120
1,note_on,82,73,0
1,note_on,82,0,120
1,note_on,81,73,0
1,note_on,81,0,120
1,note_on,82,73,0
1,note_on,82,0,120
1,note_on,94,87,0
1,note_on,94,0,120
1,note_on,92,76,0
1,note_on,92,0,120
1,note_on,90,76,0
1,note_on,90,0,120
1,note_on,89,76,0
1,note_on,89,0,120
1,note_on,90,87,0
1,note_on,90,0,480
1,note_on,75,87,960
1,note_on,75,0,120
1,note_on,65,67,120
1,note_on,73,80,0
1,note_on,73,0,120
1,note_on,65,0,0
1,note_on,63,66,120
1,note_on,71,78,0
1,note_on,86,91,0
1,note_on,86,0,120
1,note_on,71,0,0
1,note_on,63,0,0
1,note_on,61,62,120
1,note_on,70,74,0
1,note_on,70,0,120
1,note_on,61,0,0
1,note_on,59,60,120
1,note_on,68,71,0
1,note_on,87,96,0
1,note_on,68,0,120
1,note_on,59,0,0
1,note_on,58,57,120
1,note_on,66,68,0
1,note_on,66,0,120
1,note_on,58,0,0
1,note_on,63,72,120
1,note_on,71,85,0
1,note_on,87,0,480
1,note_on,71,0,480
1,note_on,63,0,0
1,note_on,63,70,480
1,note_on,71,87,0
1,note_on,71,0,120
1,note_on,63,0,0
1,note_on,61,67,120
1,note_on,70,80,0
1,note_on,70,0,120
1,note_on,61,0,0
1,note_on,59,66,120
1,note_on,68,78,0
1,note_on,82,91,0
1,note_on,82,0,120
1,note_on,68,0,0
1,note_on,59,0,0
1,note_on,58,62,120
1,note_on,66,74,0
1,note_on,66,0,120
1,note_on,58,0,0
1,note_on,56,60,120
1,note_on,65,71,0
1,note_on,83,96,0
1,note_on,65,0,120
1,note_on,56,0,0
1,note_on,54,57,120
1,note_on,63,68,0
1,note_on,63,0,120
1,note_on,54,0,0
1,note_on,59,72,120
1,note_on,68,85,0
1,note_on,83,0,480
1,note_on,68,0,480
1,note_on,59,0,0
1,note_on,59,70,480
1,note_on,68,87,0
1,note_on,68,0,120
1,note_on,59,0,0
1,note_on,58,67,120
1,note_on,66,80,0
1,note_on,66,0,120
1,note_on,58,0,0
1,note_on,56,66,120
1,note_on,65,78,0
1,note_on,82,91,0
1,note_on,82,0,120
1,note_on,65,0,0
1,note_on,56,0,0
1,note_on,58,62,120
1,note_on,66,74,0
1,note_on,66,0,120
1,note_on,58,0,0
1,note_on,56,60,120
1,note_on,65,71,0
1,note_on,83,96,0
1,note_on,65,0,120
1,note_on,56,0,0
1,note_on,54,57,120
1,note_on,63,68,0
1,note_on,63,0,120
1,note_on,54,0,0
1,note_on,83,0,600
1,note_on,82,96,0
1,note_on,82,0,480
1,note_on,80,96,0
1,note_on,80,0,1440
1,note_on,92,109,0
1,note_on,92,0,720
1,note_on,90,99,240
1,note_on,90,0,120
1,note_on,89,99,360
1,note_on,89,0,120
1,note_on,87,107,360
1,note_on,87,0,120
1,note_on,86,99,360
1,note_on,86,0,120
1,note_on,65,69,360
1,note_on,68,82,0
1,note_on,68,0,120
1,note_on,65,0,0
1,note_on,63,60,120
1,note_on,66,71,0
1,note_on,66,0,120
1,note_on,63,0,0
1,note_on,56,68,120
1,note_on,65,81,0
1,note_on,65,0,120
1,note_on,56,0,0
1,note_on,58,60,120
1,note_on,66,71,0
1,note_on,66,0,120
1,note_on,58,0,0
1,note_on,56,68,120
1,note_on,65,80,0
1,note_on,65,0,120
1,note_on,56,0,0
1,note_on,54,60,120
1,note_on,63,71,0
1,note_on,63,0,120
1,note_on,54,0,0
1,note_on,53,66,120
1,note_on,62,78,0
1,note_on,62,0,120
1,note_on,53,0,0
1,note_on,54,60,120
1,note_on,63,71,0
1,note_on,63,0,120
1,note_on,54,0,0
1,note_on,62,68,120
1,note_on,65,81,0
1,note_on,65,0,120
1,note_on,62,0,0
1,note_on,63,60,120
1,note_on,66,71,0
1,note_on,66,0,120
1,note_on,63,0,0
1,note_on,65,68,120
1,note_on,68,80,0
1,note_on,68,0,120
1,note_on,65,0,0
1,note_on,66,71,120
1,note_on,70,60,0
1,note_on,70,0,120
1,note_on,66,0,0
1,note_on,63,67,120
1,note_on,72,79,0
1,note_on,72,0,120
1,note_on,63,0,0
1,note_on,65,60,120
1,note_on,74,71,0
1,note_on,74,0,120
1,note_on,65,0,0
1,note_on,66,67,120
1,note_on,75,79,0
1,note_on,75,0,120
1,note_on,66,0,0
1,note_on,68,60,120
1,note_on,77,71,0
1,note_on,77,0,120
1,note_on,68,0,0
1,note_on,70,66,120
1,note_on,78,78,0
1,note_on,78,0,120
1,note_on,70,0,0
1,note_on,71,60,120
1,note_on,79,71,0
1,note_on,79,0,120
1,note_on,71,0,0
1,note_on,77,66,120
1,note_on,80,78,0
1,note_on,80,0,120
1,note_on,77,0,0
1,note_on,82,71,120
1,note_on,78,60,0
1,note_on,78,0,120
1,note_on,82,0,0
1,note_on,83,80,120
1,note_on,80,68,0
1,note_on,80,0,120
1,note_on,83,0,0
1,note_on,82,71,120
1,note_on,78,60,0
1,note_on,78,0,120
1,note_on,82,0,0
1,note_on,71,68,120
1,note_on,80,81,0
1,note_on,80,0,120
1,note_on,71,0,0
1,note_on,70,60,120
1,note_on,78,71,0
1,note_on,78,0,120
1,note_on,70,0,0
1,note_on,68,68,120
1,note_on,75,80,0
1,note_on,75,0,120
1,note_on,68,0,0
1,note_on,66,71,120
1,note_on,66,0,120
1,note_on,73,66,120
1,note_on,65,78,0
1,note_on,65,0,120
1,note_on,73,0,0
1,note_on,63,71,120
1,note_on,63,0,120
1,note_on,72,66,120
1,note_on,61,78,0
1,note_on,61,0,120
1,note_on,72,0,0
1,note_on,60,71,120
1,note_on,60,0,120
1,note_on,63,78,120
1,note_on,63,0,1440
1,note_on,81,71,0
1,note_on,73,71,0
1,note_on,81,0,80
1,note_on,82,65,0
1,note_on,73,0,40
1,note_on,82,0,40
1,note_on,81,71,0
1,note_on,81,0,80
1,note_on,82,66,0
1,note_on,72,66,0
1,note_on,82,0,80
1,note_on,81,71,0
1,note_on,72,0,40
1,note_on,81,0,40
1,note_on,82,66,0
1,note_on,82,0,80
1,note_on,81,71,0
1,note_on,77,71,0
1,note_on,81,0,80
1,note_on,82,66,0
1,note_on,77,0,40
1,note_on,82,0,40
1,note_on,81,71,0
1,note_on,81,0,80
1,note_on,82,65,0
1,note_on,75,65,0
1,note_on,82,0,80
1,note_on,81,71,0
1,note_on,75,0,40
1,note_on,81,0,40
1,note_on,82,65,0
1,note_on,82,0,80
1,note_on,81,71,0
1,note_on,73,71,0
1,note_on,81,0,80
1,note_on,82,64,0
1,note_on,73,0,40
1,note_on,82,0,40
1,note_on,81,71,0
1,note_on,81,0,80
1,note_on,82,67,0
1,note_on,72,67,0
1,note_on,82,0,80
1,note_on,81,71,0
1,note_on,72,0,40
1,note_on,81,0,40
1,note_on,82,67,0
1,note_on,82,0,80
1,note_on,81,71,0
1,note_on,78,71,0
1,note_on,81,0,80
1,note_on,82,66,0
1,note_on,78,0,40
1,note_on,82,0,40
1,note_on,81,71,0
1,note_on,81,0,80
1,note_on,79,67,0
1,note_on,72,67,0
1,note_on,72,0,120
1,note_on,79,0,0
1,note_on,81,67,0
1,note_on,81,0,120
1,note_on,75,74,0
1,note_on,82,74,0
1,note_on,75,0,80
1,note_on,77,69,0
1,note_on,77,0,80
1,note_on,75,74,0
1,note_on,75,0,80
1,note_on,77,69,0
1,note_on,77,0,80
1,note_on,75,74,0
1,note_on,75,0,80
1,note_on,77,70,0
1,note_on,77,0,80
1,note_on,75,74,0
1,note_on,75,0,80
1,note_on,77,70,0
1,note_on,77,0,80
1,note_on,75,74,0
1,note_on,75,0,80
1,note_on,77,67,0
1,note_on,77,0,80
1,note_on,75,74,0
1,note_on,75,0,80
1,note_on,77,69,0
1,note_on,77,0,80
1,note_on,75,74,0
1,note_on,75,0,80
1,note_on,77,69,0
1,note_on,77,0,80
1,note_on,75,74,0
1,note_on,75,0,80
1,note_on,73,70,0
1,note_on,73,0,120
1,note_on,75,68,0
1,note_on,75,0,120
1,note_on,82,0,0
1,note_on,73,70,0
1,note_on,82,83,0
1,note_on,82,0,120
1,note_on,73,0,0
1,note_on,72,62,120
1,note_on,80,74,0
1,note_on,80,0,120
1,note_on,72,0,0
1,note_on,70,62,120
1,note_on,78,74,0
1,note_on,78,0,120
1,note_on,70,0,0
1,note_on,68,62,120
1,note_on,77,74,0
1,note_on,77,0,120
1,note_on,68,0,0
1,note_on,66,62,120
1,note_on,75,74,0
1,note_on,75,0,120
1,note_on,66,0,0
1,note_on,65,62,120
1,note_on,73,74,0
1,note_on,73,0,120
1,note_on,65,0,0
1,note_on,75,73,120
1,note_on,78,87,0
1,note_on,75,0,120
1,note_on,63,71,120
1,note_on,63,0,120
1,note_on,65,74,120
1,note_on,65,0,120
1,note_on,66,77,120
1,note_on,66,0,120
1,note_on,78,0,120
1,note_on,68,79,0
1,note_on,68,0,120
1,note_on,70,82,120
1,note_on,78,85,240
1,note_on,78,0,120
1,note_on,70,0,0
1,note_on,68,66,120
1,note_on,77,78,0
1,note_on,77,0,120
1,note_on,68,0,0
1,note_on,66,64,120
1,note_on,75,76,0
1,note_on,75,0,120
1,note_on,66,0,0
1,note_on,65,62,120
1,note_on,73,74,0
1,note_on,73,0,120
1,note_on,65,0,0
1,note_on,76,80,120
1,note_on,79,80,0
1,note_on,79,0,120
1,note_on,85,70,0
1,note_on,85,0,120
1,note_on,82,71,0
1,note_on,82,0,120
1,note_on,79,71,0
1,note_on,79,0,120
1,note_on,76,0,0
1,note_on,76,74,0
1,note_on,76,0,120
1,note_on,82,69,0
1,note_on,82,0,120
1,note_on,79,70,0
1,note_on,79,0,120
1,note_on,76,70,0
1,note_on,76,0,120
1,note_on,73,76,0
1,note_on,73,0,120
1,note_on,79,69,0
1,note_on,79,0,120
1,note_on,76,69,0
1,note_on,76,0,120
1,note_on,73,69,0
1,note_on,73,0,120
1,note_on,70,66,0
1,note_on,72,78,0
1,note_on,72,0,120
1,note_on,79,69,0
1,note_on,79,0,120
1,note_on,76,69,0
1,note_on,76,0,120
1,note_on,72,69,0
1,note_on,72,0,120
1,note_on,73,77,0
1,note_on,73,0,120
1,note_on,82,69,0
1,note_on,82,0,120
1,note_on,79,69,0
1,note_on,79,0,120
1,note_on,76,69,0
1,note_on,76,0,120
1,note_on,72,85,0
1,note_on,72,0,480
1,note_on,70,0,0
1,note_on,82,87,480
1,note_on,82,0,960
1,note_on,58,70,0
1,note_on,67,71,0
1,note_on,67,0,80
1,note_on,68,66,0
1,note_on,68,0,80
1,note_on,67,63,0
1,note_on,67,0,80
1,note_on,68,60,0
1,note_on,68,0,80
1,note_on,67,63,0
1,note_on,67,0,80
1,note_on,68,59,0
1,note_on,68,0,80
1,note_on,67,63,0
1,note_on,67,0,80
1,note_on,68,60,0
1,note_on,68,0,80
1,note_on,67,63,0
1,note_on,67,0,80
1,note_on,68,59,0
1,note_on,68,0,80
1,note_on,67,63,0
1,note_on,67,0,80
1,note_on,68,59,0
1,note_on,68,0,80
1,note_on,67,63,0
1,note_on,67,0,80
1,note_on,68,60,0
1,note_on,68,0,80
1,note_on,67,63,0
1,note_on,67,0,80
1,note_on,68,59,0
1,note_on,68,0,80
1,note_on,67,63,0
1,note_on,67,0,80
1,note_on,68,59,0
1,note_on,68,0,80
1,note_on,58,0,0
1,note_on,60,70,0
1,note_on,65,70,0
1,note_on,60,0,240
1,note_on,75,70,0
1,note_on,65,0,240
1,note_on,75,0,960
1,note_on,60,60,0
1,note_on,60,0,80
1,note_on,61,56,0
1,note_on,61,0,80
1,note_on,60,60,0
1,note_on,60,0,80
1,note_on,61,56,0
1,note_on,61,0,80
1,note_on,60,60,0
1,note_on,60,0,80
1,note_on,61,56,0
1,note_on,61,0,80
1,note_on,87,116,0
1,note_on,60,60,0
1,note_on,60,0,80
1,note_on,61,56,0
1,note_on,61,0,80
1,note_on,60,60,0
1,note_on,60,0,80
1,note_on,61,56,0
1,note_on,61,0,80
1,note_on,60,60,0
1,note_on,60,0,80
1,note_on,61,56,0
1,note_on,61,0,80
1,note_on,60,60,0
1,note_on,60,0,80
1,note_on,61,56,0
1,note_on,61,0,80
1,note_on,60,60,0
1,note_on,60,0,80
1,note_on,61,56,0
1,note_on,61,0,80
1,note_on,60,60,0
1,note_on,60,0,80
1,note_on,61,56,0
1,note_on,61,0,80
1,note_on,87,0,0
1,note_on,63,79,0
1,note_on,72,60,0
1,note_on,72,0,80
1,note_on,73,56,0
1,note_on,73,0,80
1,note_on,72,60,0
1,note_on,72,0,80
1,note_on,73,56,0
1,note_on,73,0,80
1,note_on,72,60,0
1,note_on,72,0,80
1,note_on,73,56,0
1,note_on,73,0,80
1,note_on,72,60,0
1,note_on,72,0,80
1,note_on,73,56,0
1,note_on,73,0,80
1,note_on,72,60,0
1,note_on,72,0,80
1,note_on,73,56,0
1,note_on,73,0,80
1,note_on,72,60,0
1,note_on,72,0,80
1,note_on,73,56,0
1,note_on,73,0,80
1,note_on,63,0,0
1,note_on,64,79,0
1,note_on,72,60,0
1,note_on,72,0,80
1,note_on,73,56,0
1,note_on,73,0,80
1,note_on,72,60,0
1,note_on,72,0,80
1,note_on,73,56,0
1,note_on,73,0,80
1,note_on,72,60,0
1,note_on,72,0,80
1,note_on,73,56,0
1,note_on,73,0,80
1,note_on,64,0,0
1,note_on,70,59,0
1,note_on,65,59,0
1,note_on,65,0,240
1,note_on,73,59,0
1,note_on,70,0,240
1,note_on,73,0,960
1,note_on,85,110,0
1,note_on,58,51,0
1,note_on,58,0,80
1,note_on,60,47,0
1,note_on,60,0,80
1,note_on,58,51,0
1,note_on,58,0,80
1,note_on,60,47,0
1,note_on,60,0,80
1,note_on,58,51,0
1,note_on,58,0,80
1,note_on,60,47,0
1,note_on,60,0,80
1,note_on,58,60,0
1,note_on,58,0,80
1,note_on,60,56,0
1,note_on,60,0,80
1,note_on,58,60,0
1,note_on,58,0,80
1,note_on,60,56,0
1,note_on,60,0,80
1,note_on,58,60,0
1,note_on,58,0,80
1,note_on,60,56,0
1,note_on,60,0,80
1,note_on,58,60,0
1,note_on,58,0,80
1,note_on,60,56,0
1,note_on,60,0,80
1,note_on,58,60,0
1,note_on,58,0,80
1,note_on,60,60,0
1,note_on,60,0,60
1,note_on,58,56,0
1,note_on,58,0,60
1,note_on,57,56,0
1,note_on,57,0,60
1,note_on,58,56,0
1,note_on,58,0,60
1,note_on,85,0,0
1,note_on,61,79,0
1,note_on,70,60,0
1,note_on,70,0,80
1,note_on,72,56,0
1,note_on,72,0,80
1,note_on,70,60,0
1,note_on,70,0,80
1,note_on,72,56,0
1,note_on,72,0,80
1,note_on,70,60,0
1,note_on,70,0,80
1,note_on,72,56,0
1,note_on,72,0,80
1,note_on,70,60,0
1,note_on,70,0,80
1,note_on,72,56,0
1,note_on,72,0,80
1,note_on,70,60,0
1,note_on,70,0,80
1,note_on,72,56,0
1,note_on,72,0,80
1,note_on,70,60,0
1,note_on,70,0,80
1,note_on,72,56,0
1,note_on,72,0,80
1,note_on,70,60,0
1,note_on,70,0,80
1,note_on,72,56,0
1,note_on,72,0,80
1,note_on,70,60,0
1,note_on,70,0,80
1,note_on,72,56,0
1,note_on,72,0,80
1,note_on,70,60,0
1,note_on,70,0,80
1,note_on,72,56,0
1,note_on,72,0,80
1,note_on,61,0,0
1,note_on,67,69,0
1,note_on,70,60,0
1,note_on,70,0,80
1,note_on,72,56,0
1,note_on,72,0,80
1,note_on,70,60,0
1,note_on,70,0,80
1,note_on,72,56,0
1,note_on,72,0,80
1,note_on,70,60,0
1,note_on,70,0,80
1,note_on,72,56,0
1,note_on,72,0,80
1,note_on,70,60,0
1,note_on,70,0,80
1,note_on,72,56,0
1,note_on,72,0,80
1,note_on,70,60,0
1,note_on,70,0,80
1,note_on,67,0,0
1,note_on,65,59,0
1,note_on,72,56,0
1,note_on,72,0,80
1,note_on,70,60,0
1,note_on,70,0,80
1,note_on,72,56,0
1,note_on,72,0,80
1,note_on,65,0,0
1,note_on,63,59,0
1,note_on,70,60,0
1,note_on,70,0,80
1,note_on,72,56,0
1,note_on,72,0,80
1,note_on,70,60,0
1,note_on,70,0,80
1,note_on,63,0,0
1,note_on,72,56,0
1,note_on,61,59,0
1,note_on,72,0,60
1,note_on,70,56,0
1,note_on,70,0,60
1,note_on,69,53,0
1,note_on,69,0,60
1,note_on,70,54,0
1,note_on,70,0,60
1,note_on,61,0,0
1,note_on,77,69,0
1,note_on,77,0,720
1,note_on,75,47,0
1,note_on,75,0,240
1,note_on,73,51,0
1,note_on,73,0,240
1,note_on,72,48,0
1,note_on,72,0,240
1,note_on,67,51,0
1,note_on,71,51,0
1,note_on,71,0,240
1,note_on,67,0,0
1,note_on,68,46,0
1,note_on,72,46,0
1,note_on,72,0,240
1,note_on,68,0,0
1,note_on,69,51,0
1,note_on,75,51,0
1,note_on,75,0,240
1,note_on,69,0,0
1,note_on,70,48,0
1,note_on,73,48,0
1,note_on,73,0,240
1,note_on,70,0,0
1,note_on,63,51,0
1,note_on,72,51,0
1,note_on,72,0,240
1,note_on,63,0,0
1,note_on,61,49,0
1,note_on,70,49,0
1,note_on,70,0,240
1,note_on,69,51,0
1,note_on,69,0,240
1,note_on,61,0,0
1,note_on,61,45,0
1,note_on,70,45,0
1,note_on,70,0,240
1,note_on,63,51,0
1,note_on,61,0,240
1,note_on,60,45,0
1,note_on,60,0,235
1,note_on,63,0,5
1,note_on,80,52,120
1,note_on,79,51,120
1,note_on,80,0,24
1,note_on,77,50,96
1,note_on,79,0,24
1,note_on,75,60,96
1,note_on,77,0,24
1,note_on,75,0,96
1,note_on,70,48,0
1,note_on,70,0,120
1,note_on,72,40,0
1,note_on,79,64,0
1,note_on,79,0,120
1,note_on,72,0,0
1,note_on,73,53,0
1,note_on,73,0,120
1,note_on,72,48,0
1,note_on,80,68,0
1,note_on,72,0,120
1,note_on,60,48,0
1,note_on,60,0,120
1,note_on,80,0,0
1,note_on,63,48,0
1,note_on,63,0,120
1,note_on,68,48,0
1,note_on,68,0,120
1,note_on,72,59,0
1,note_on,72,0,120
1,note_on,84,52,0
1,note_on,84,0,120
1,note_on,82,51,0
1,note_on,73,62,0
1,note_on,73,0,120
1,note_on,82,0,0
1,note_on,80,50,0
1,note_on,80,0,120
1,note_on,79,50,0
1,note_on,75,65,0
1,note_on,79,0,480
1,note_on,80,51,0
1,note_on,80,0,120
1,note_on,72,50,0
1,note_on,72,0,120
1,note_on,75,0,0
1,note_on,75,48,0
1,note_on,75,0,120
1,note_on,80,57,0
1,note_on,80,0,120
1,note_on,84,74,0
1,note_on,84,0,120
1,note_on,85,77,120
1,note_on,85,0,120
1,note_on,87,80,120
1,note_on,87,0,480
1,note_on,60,63,0
1,note_on,60,0,120
1,note_on,72,52,0
1,note_on,72,0,120
1,note_on,70,50,0
1,note_on,61,65,0
1,note_on,61,0,120
1,note_on,70,0,0
1,note_on,68,49,0
1,note_on,68,0,120
1,note_on,67,50,0
1,note_on,63,68,0
1,note_on,67,0,480
1,note_on,68,50,0
1,note_on,63,0,120
1,note_on,60,62,0
1,note_on,60,0,120
1,note_on,58,65,0
1,note_on,58,0,120
1,note_on,56,68,0
1,note_on,56,0,120
1,note_on,60,71,0
1,note_on,68,0,120
1,note_on,68,62,0
1,note_on,68,0,120
1,note_on,60,0,0
1,note_on,72,65,0
1,note_on,72,0,120
1,note_on,77,67,0
1,note_on,77,0,120
1,note_on,80,72,0
1,note_on,80,0,120
1,note_on,77,65,0
1,note_on,77,0,120
1,note_on,75,65,0
1,note_on,82,75,0
1,note_on,82,0,120
1,note_on,75,0,0
1,note_on,73,62,0
1,note_on,73,0,120
1,note_on,72,66,0
1,note_on,84,79,0
1,note_on,72,0,600
1,note_on,68,65,0
1,note_on,67,63,120
1,note_on,68,0,24
1,note_on,65,61,96
1,note_on,67,0,24
1,note_on,84,0,96
1,note_on,68,71,0
1,note_on,65,0,24
1,note_on,80,65,96
1,note_on,80,0,120
1,note_on,79,69,0
1,note_on,79,0,120
1,note_on,77,63,0
1,note_on,77,0,120
1,note_on,76,71,0
1,note_on,76,0,120
1,note_on,68,0,0
1,note_on,72,61,0
1,note_on,72,0,120
1,note_on,70,65,0
1,note_on,77,65,0
1,note_on,77,0,120
1,note_on,70,0,0
1,note_on,68,60,0
1,note_on,68,0,120
1,note_on,80,66,0
1,note_on,80,0,120
1,note_on,82,68,120
1,note_on,82,0,120
1,note_on,84,69,120
1,note_on,72,62,120
1,note_on,72,0,120
1,note_on,74,64,0
1,note_on,74,0,120
1,note_on,76,66,0
1,note_on,76,0,120
1,note_on,77,68,0
1,note_on,84,0,120
1,note_on,80,62,0
1,note_on,80,0,120
1,note_on,79,65,0
1,note_on,79,0,120
1,note_on,77,60,0
1,note_on,77,0,120
1,note_on,77,0,0
1,note_on,81,66,0
1,note_on,81,0,120
1,note_on,82,69,120
1,note_on,82,0,120
1,note_on,84,72,120
1,note_on,72,58,120
1,note_on,72,0,120
1,note_on,74,61,0
1,note_on,74,0,120
1,note_on,76,64,0
1,note_on,76,0,120
1,note_on,77,68,0
1,note_on,84,0,120
1,note_on,81,63,0
1,note_on,81,0,120
1,note_on,79,65,0
1,note_on,77,0,118
1,note_on,79,0,2
1,note_on,77,62,0
1,note_on,77,0,120
1,note_on,82,68,0
1,note_on,82,0,120
1,note_on,84,71,120
1,note_on,84,0,120
1,note_on,85,74,120
1,note_on,77,59,120
1,note_on,77,0,120
1,note_on,79,61,0
1,note_on,79,0,120
1,note_on,81,63,0
1,note_on,81,0,120
1,note_on,82,65,0
1,note_on,82,0,110
1,note_on,85,0,10
1,note_on,82,58,0
1,note_on,78,58,120
1,note_on,78,0,120
1,note_on,77,56,0
1,note_on,77,0,120
1,note_on,82,0,0
1,note_on,81,63,0
1,note_on,75,63,0
1,note_on,75,0,120
1,note_on,77,65,120
1,note_on,77,0,120
1,note_on,81,0,120
1,note_on,78,70,0
1,note_on,81,60,120
1,note_on,81,0,120
1,note_on,84,62,0
1,note_on,84,0,120
1,note_on,85,65,0
1,note_on,85,0,120
1,note_on,87,67,0
1,note_on,78,0,120
1,note_on,75,60,0
1,note_on,75,0,120
1,note_on,73,63,0
1,note_on,73,0,120
1,note_on,72,55,0
1,note_on,72,0,120
1,note_on,87,0,0
1,note_on,77,65,0
1,note_on,82,69,120
1,note_on,77,0,24
1,note_on,81,65,96
1,note_on,82,0,24
1,note_on,79,64,96
1,note_on,81,0,24
1,note_on,77,60,96
1,note_on,79,0,24
1,note_on,77,0,96
1,note_on,75,60,0
1,note_on,75,0,120
1,note_on,74,60,0
1,note_on,74,0,120
1,note_on,72,60,0
1,note_on,72,0,120
1,note_on,70,67,0
1,note_on,74,67,0
1,note_on,74,0,120
1,note_on,77,60,0
1,note_on,77,0,120
1,note_on,78,60,0
1,note_on,78,0,120
1,note_on,80,60,0
1,note_on,80,0,120
1,note_on,79,66,0
1,note_on,82,67,120
1,note_on,79,0,24
1,note_on,70,0,96
1,note_on,80,70,0
1,note_on,82,0,24
1,note_on,79,69,96
1,note_on,80,0,24
1,note_on,77,68,96
1,note_on,79,0,24
1,note_on,77,0,96
1,note_on,75,66,0
1,note_on,75,0,120
1,note_on,63,65,0
1,note_on,74,65,0
1,note_on,74,0,120
1,note_on,72,64,0
1,note_on,72,0,120
1,note_on,70,69,0
1,note_on,63,0,120
1,note_on,67,60,0
1,note_on,67,0,120
1,note_on,68,60,0
1,note_on,68,0,120
1,note_on,70,60,0
1,note_on,70,0,120
1,note_on,70,0,0
1,note_on,63,65,0
1,note_on,63,0,120
1,note_on,75,69,0
1,note_on,73,68,120
1,note_on,75,0,24
1,note_on,72,67,96
1,note_on,73,0,24
1,note_on,70,65,96
1,note_on,72,0,24
1,note_on,70,0,96
1,note_on,68,64,0
1,note_on,68,0,120
1,note_on,67,60,0
1,note_on,67,0,120
1,note_on,65,60,0
1,note_on,65,0,120
1,note_on,67,66,0
1,note_on,63,66,0
1,note_on,67,0,120
1,note_on,70,61,0
1,note_on,70,0,120
1,note_on,72,62,0
1,note_on,72,0,120
1,note_on,73,63,0
1,note_on,73,0,120
1,note_on,72,64,0
1,note_on,84,70,120
1,note_on,72,0,24
1,note_on,63,0,96
1,note_on,82,69,0
1,note_on,84,0,24
1,note_on,80,68,96
1,note_on,82,0,24
1,note_on,79,66,96
1,note_on,80,0,24
1,note_on,79,0,96
1,note_on,77,66,0
1,note_on,77,0,120
1,note_on,75,63,0
1,note_on,75,0,120
1,note_on,73,61,0
1,note_on,73,0,120
1,note_on,63,72,0
1,note_on,72,65,0
1,note_on,63,0,120
1,note_on,67,74,120
1,note_on,67,0,120
1,note_on,68,79,120
1,note_on,68,0,240
1,note_on,72,0,0
1,note_on,79,65,0
1,note_on,70,78,0
1,note_on,70,0,240
1,note_on,79,0,0
1,note_on,80,65,0
1,note_on,72,79,0
1,note_on,72,0,240
1,note_on,73,80,0
1,note_on,73,0,240
1,note_on,75,82,0
1,note_on,80,0,240
1,note_on,84,87,0
1,note_on,84,0,240
1,note_on,75,0,0
1,note_on,73,66,0
1,note_on,85,92,0
1,note_on,77,73,120
1,note_on,73,0,24
1,note_on,75,71,96
1,note_on,77,0,24
1,note_on,73,69,96
1,note_on,75,0,24
1,note_on,85,0,96
1,note_on,72,71,0
1,note_on,73,0,24
1,note_on,72,0,96
1,note_on,70,66,0
1,note_on,70,0,120
1,note_on,68,66,0
1,note_on,68,0,120
1,note_on,66,66,0
1,note_on,66,0,120
1,note_on,65,66,0
1,note_on,68,79,0
1,note_on,68,0,120
1,note_on,72,81,120
1,note_on,72,0,120
1,note_on,73,85,120
1,note_on,65,0,240
1,note_on,66,72,0
1,note_on,66,0,120
1,note_on,68,79,120
1,note_on,73,0,240
1,note_on,76,79,0
1,note_on,76,0,240
1,note_on,77,84,0
1,note_on,77,0,240
1,note_on,68,0,0
1,note_on,70,74,0
1,note_on,78,86,0
1,note_on,78,0,360
1,note_on,82,83,0
1,note_on,80,80,120
1,note_on,82,0,24
1,note_on,78,77,96
1,note_on,80,0,24
1,note_on,70,0,96
1,note_on,77,81,0
1,note_on,78,0,24
1,note_on,77,0,96
1,note_on,75,72,0
1,note_on,75,0,120
1,note_on,73,72,0
1,note_on,73,0,120
1,note_on,71,72,0
1,note_on,71,0,120
1,note_on,61,72,0
1,note_on,70,72,0
1,note_on,61,0,120
1,note_on,65,75,120
1,note_on,65,0,120
1,note_on,66,78,120
1,note_on,70,0,240
1,note_on,71,72,0
1,note_on,71,0,240
1,note_on,73,76,0
1,note_on,66,0,240
1,note_on,68,66,0
1,note_on,68,0,240
1,note_on,70,73,0
1,note_on,70,0,240
1,note_on,73,0,0
1,note_on,82,66,0
1,note_on,78,66,0
1,note_on,82,0,240
1,note_on,83,72,0
1,note_on,78,0,120
1,note_on,74,66,0
1,note_on,83,0,120
1,note_on,73,66,0
1,note_on,74,0,24
1,note_on,71,66,96
1,note_on,73,0,24
1,note_on,70,70,96
1,note_on,71,0,24
1,note_on,70,0,96
1,note_on,67,68,0
1,note_on,67,0,120
1,note_on,66,67,0
1,note_on,66,0,120
1,note_on,64,66,0
1,note_on,64,0,120
1,note_on,62,71,0
1,note_on,66,71,0
1,note_on,66,0,120
1,note_on,70,74,120
1,note_on,70,0,120
1,note_on,71,79,120
1,note_on,62,0,240
1,note_on,64,73,0
1,note_on,64,0,240
1,note_on,66,76,0
1,note_on,71,0,240
1,note_on,73,71,0
1,note_on,73,0,240
1,note_on,74,75,0
1,note_on,74,0,240
1,note_on,66,0,0
1,note_on,73,78,0
1,note_on,76,78,0
1,note_on,76,0,240
1,note_on,73,0,0
1,note_on,78,86,0
1,note_on,78,0,120
1,note_on,82,90,120
1,note_on,82,0,120
1,note_on,83,90,120
1,note_on,83,0,720
1,note_on,85,90,0
1,note_on,85,0,120
1,note_on,86,94,120
1,note_on,86,0,120
1,note_on,88,97,120
1,note_on,88,0,120
1,note_on,90,99,120
1,note_on,90,0,240
1,note_on,78,71,240
1,note_on,78,0,240
1,note_on,78,57,1200
1,note_on,78,0,480
1,note_on,76,56,0
1,note_on,76,0,960
1,note_on,73,50,0
1,note_on,73,0,480
1,note_on,74,56,0
1,note_on,74,0,960
1,note_on,73,50,0
1,note_on,73,0,960
1,note_on,71,50,0
1,note_on,71,0,480
1,note_on,71,50,0
1,note_on,71,0,480
1,note_on,71,56,0
1,note_on,71,0,480
1,note_on,66,50,0
1,note_on,66,0,480
1,note_on,74,56,0
1,note_on,74,0,480
1,note_on,73,56,0
1,note_on,73,0,480
1,note_on,66,56,0
1,note_on,66,0,240
1,note_on,82,46,240
1,note_on,82,0,80
1,note_on,83,37,0
1,note_on,83,0,80
1,note_on,82,45,0
1,note_on,82,0,80
1,note_on,83,40,0
1,note_on,83,0,80
1,note_on,82,45,0
1,note_on,82,0,80
1,note_on,83,45,0
1,note_on,83,0,80
1,note_on,82,46,0
1,note_on,82,0,80
1,note_on,83,46,0
1,note_on,83,0,80
1,note_on,82,40,0
1,note_on,82,0,80
1,note_on,83,46,0
1,note_on,83,0,60
1,note_on,82,41,0
1,note_on,82,0,60
1,note_on,80,41,0
1,note_on,80,0,60
1,note_on,82,42,0
1,note_on,82,0,60
1,note_on,83,54,0
1,note_on,83,0,480
1,note_on,83,46,240
1,note_on,83,0,120
1,note_on,81,40,0
1,note_on,81,0,120
1,note_on,79,47,0
1,note_on,79,0,120
1,note_on,78,40,0
1,note_on,78,0,120
1,note_on,76,43,0
1,note_on,76,0,120
1,note_on,78,40,0
1,note_on,78,0,120
1,note_on,79,45,0
1,note_on,79,0,120
1,note_on,81,40,0
1,note_on,81,0,120
1,note_on,79,44,0
1,note_on,79,0,120
1,note_on,78,40,0
1,note_on,78,0,120
1,note_on,76,42,0
1,note_on,76,0,120
1,note_on,74,40,0
1,note_on,74,0,120
1,note_on,73,37,0
1,note_on,73,0,120
1,note_on,74,40,0
1,note_on,74,0,120
1,note_on,76,44,0
1,note_on,76,0,120
1,note_on,74,40,0
1,note_on,74,0,120
1,note_on,73,40,0
1,note_on,73,0,120
1,note_on,71,40,0
1,note_on,71,0,120
1,note_on,69,44,0
1,note_on,69,0,120
1,note_on,68,36,0
1,note_on,68,0,120
1,note_on,69,40,0
1,note_on,69,0,120
1,note_on,67,38,0
1,note_on,67,0,120
1,note_on,66,38,0
1,note_on,66,0,120
1,note_on,69,39,0
1,note_on,69,0,118
1,note_on,71,40,2
1,note_on,71,0,120
1,note_on,73,41,0
1,note_on,73,0,120
1,note_on,74,41,0
1,note_on,74,0,120
1,note_on,76,44,0
1,note_on,76,0,120
1,note_on,78,46,0
1,note_on,78,0,120
1,note_on,79,48,0
1,note_on,79,0,120
1,note_on,81,50,0
1,note_on,81,0,120
1,note_on,83,47,0
1,note_on,83,0,120
1,note_on,81,49,0
1,note_on,81,0,120
1,note_on,80,49,0
1,note_on,80,0,120
1,note_on,79,48,0
1,note_on,79,0,120
1,note_on,78,42,0
1,note_on,78,0,120
1,note_on,76,42,0
1,note_on,76,0,120
1,note_on,75,44,0
1,note_on,75,0,120
1,note_on,76,50,0
1,note_on,76,0,120
1,note_on,78,40,0
1,note_on,78,0,120
1,note_on,76,40,0
1,note_on,76,0,120
1,note_on,75,40,0
1,note_on,75,0,120
1,note_on,74,47,0
1,note_on,74,0,120
1,note_on,73,40,0
1,note_on,73,0,120
1,note_on,71,40,0
1,note_on,71,0,120
1,note_on,69,40,0
1,note_on,69,0,120
1,note_on,71,44,0
1,note_on,71,0,120
1,note_on,73,37,0
1,note_on,73,0,120
1,note_on,74,40,0
1,note_on,74,0,120
1,note_on,73,36,0
1,note_on,73,0,120
1,note_on,74,41,0
1,note_on,74,0,120
1,note_on,76,42,0
1,note_on,76,0,120
1,note_on,78,44,0
1,note_on,78,0,120
1,note_on,76,45,0
1,note_on,76,0,120
1,note_on,78,51,0
1,note_on,78,0,120
1,note_on,79,46,0
1,note_on,79,0,120
1,note_on,79,44,240
1,note_on,79,0,480
1,note_on,74,46,0
1,note_on,74,0,120
1,note_on,76,47,0
1,note_on,76,0,120
1,note_on,78,48,0
1,note_on,78,0,120
1,note_on,79,49,0
1,note_on,79,0,120
1,note_on,81,55,0
1,note_on,81,0,120
1,note_on,83,50,0
1,note_on,83,0,120
1,note_on,83,55,240
1,note_on,83,0,480
1,note_on,78,59,0
1,note_on,78,0,120
1,note_on,79,60,0
1,note_on,79,0,120
1,note_on,81,61,0
1,note_on,81,0,120
1,note_on,83,62,0
1,note_on,83,0,120
1,note_on,85,63,0
1,note_on,85,0,120
1,note_on,86,59,0
1,note_on,86,0,120
1,note_on,86,67,240
1,note_on,86,0,480
1,note_on,85,61,0
1,note_on,85,0,80
1,note_on,86,51,0
1,note_on,86,0,80
1,note_on,85,63,0
1,note_on,85,0,80
1,note_on,86,52,0
1,note_on,86,0,80
1,note_on,85,65,0
1,note_on,85,0,80
1,note_on,86,54,0
1,note_on,86,0,80
1,note_on,85,68,0
1,note_on,85,0,80
1,note_on,86,56,0
1,note_on,86,0,80
1,note_on,85,68,0
1,note_on,85,0,80
1,note_on,86,53,0
1,note_on,86,0,80
1,note_on,85,63,0
1,note_on,85,0,80
1,note_on,86,51,0
1,note_on,86,0,80
1,note_on,70,48,0
1,note_on,70,0,240
1,note_on,70,48,240
1,note_on,78,60,0
1,note_on,70,0,80
1,note_on,71,43,0
1,note_on,71,0,80
1,note_on,70,48,0
1,note_on,70,0,80
1,note_on,71,44,0
1,note_on,71,0,80
1,note_on,70,48,0
1,note_on,70,0,80
1,note_on,71,44,0
1,note_on,71,0,80
1,note_on,78,0,0
1,note_on,70,48,0
1,note_on,76,56,0
1,note_on,70,0,80
1,note_on,71,45,0
1,note_on,71,0,80
1,note_on,70,48,0
1,note_on,70,0,80
1,note_on,71,45,0
1,note_on,71,0,80
1,note_on,70,48,0
1,note_on,70,0,80
1,note_on,71,44,0
1,note_on,71,0,80
1,note_on,76,0,0
1,note_on,70,48,0
1,note_on,73,56,0
1,note_on,70,0,80
1,note_on,71,48,0
1,note_on,71,0,80
1,note_on,70,44,0
1,note_on,70,0,80
1,note_on,71,48,0
1,note_on,71,0,120
1,note_on,70,48,0
1,note_on,70,0,120
1,note_on,73,0,0
1,note_on,71,54,0
1,note_on,76,64,0
1,note_on,76,0,480
1,note_on,74,57,0
1,note_on,71,0,480
1,note_on,66,57,0
1,note_on,66,0,480
1,note_on,64,59,0
1,note_on,74,0,480
1,note_on,73,63,0
1,note_on,64,0,480
1,note_on,61,56,0
1,note_on,61,0,480
1,note_on,64,57,0
1,note_on,64,0,480
1,note_on,73,0,0
1,note_on,71,63,0
1,note_on,62,48,0
1,note_on,62,0,480
1,note_on,61,48,0
1,note_on,61,0,960
1,note_on,59,48,0
1,note_on,59,0,480
1,note_on,71,0,0
1,note_on,64,48,0
1,note_on,59,40,0
1,note_on,64,0,240
1,note_on,62,43,0
1,note_on,62,0,240
1,note_on,59,0,0
1,note_on,61,48,0
1,note_on,59,40,0
1,note_on,61,0,240
1,note_on,62,42,0
1,note_on,62,0,240
1,note_on,59,0,0
1,note_on,61,48,0
1,note_on,54,40,0
1,note_on,61,0,240
1,note_on,62,43,0
1,note_on,62,0,240
1,note_on,54,0,0
1,note_on,64,48,0
1,note_on,62,40,0
1,note_on,64,0,240
1,note_on,65,43,0
1,note_on,65,0,240
1,note_on,62,0,0
1,note_on,61,48,0
1,note_on,66,51,0
1,note_on,61,0,480
1,note_on,54,48,0
1,note_on,54,0,480
1,note_on,66,0,0
1,note_on,78,55,0
1,note_on,78,0,480
1,note_on,74,50,0
1,note_on,74,0,80
1,note_on,76,47,0
1,note_on,76,0,80
1,note_on,74,52,0
1,note_on,74,0,80
1,note_on,76,50,0
1,note_on,76,0,80
1,note_on,74,55,0
1,note_on,74,0,80
1,note_on,76,52,0
1,note_on,76,0,80
1,note_on,74,56,0
1,note_on,74,0,80
1,note_on,76,50,0
1,note_on,76,0,80
1,note_on,74,53,0
1,note_on,74,0,80
1,note_on,76,45,0
1,note_on,76,0,80
1,note_on,74,50,0
1,note_on,74,0,80
1,note_on,76,44,0
1,note_on,76,0,80
1,note_on,62,55,0
1,note_on,71,55,0
1,note_on,71,0,240
1,note_on,65,47,0
1,note_on,65,0,240
1,note_on,62,0,0
1,note_on,61,51,0
1,note_on,66,51,0
1,note_on,61,0,480
1,note_on,54,43,0
1,note_on,54,0,480
1,note_on,66,0,0
1,note_on,66,51,0
1,note_on,66,0,240
1,note_on,68,51,0
1,note_on,68,0,120
1,note_on,70,56,0
1,note_on,70,0,120
1,note_on,71,58,0
1,note_on,71,0,120
1,note_on,73,60,0
1,note_on,73,0,120
1,note_on,74,62,0
1,note_on,74,0,120
1,note_on,76,64,0
1,note_on,76,0,120
1,note_on,78,66,0
1,note_on,78,0,120
1,note_on,79,69,0
1,note_on,79,0,120
1,note_on,79,60,240
1,note_on,79,0,480
1,note_on,78,50,0
1,note_on,78,0,80
1,note_on,79,47,0
1,note_on,79,0,80
1,note_on,78,52,0
1,note_on,78,0,80
1,note_on,79,50,0
1,note_on,79,0,80
1,note_on,78,55,0
1,note_on,78,0,80
1,note_on,79,52,0
1,note_on,79,0,80
1,note_on,78,56,0
1,note_on,78,0,80
1,note_on,79,50,0
1,note_on,79,0,80
1,note_on,78,53,0
1,note_on,78,0,80
1,note_on,79,45,0
1,note_on,79,0,80
1,note_on,78,50,0
1,note_on,78,0,80
1,note_on,79,44,0
1,note_on,79,0,80
1,note_on,74,60,0
1,note_on,74,0,480
1,note_on,71,60,0
1,note_on,62,45,0
1,note_on,62,0,80
1,note_on,64,42,0
1,note_on,64,0,80
1,note_on,62,46,0
1,note_on,62,0,80
1,note_on,64,45,0
1,note_on,64,0,80
1,note_on,62,49,0
1,note_on,62,0,80
1,note_on,64,46,0
1,note_on,64,0,80
1,note_on,62,50,0
1,note_on,62,0,80
1,note_on,64,45,0
1,note_on,64,0,80
1,note_on,62,47,0
1,note_on,62,0,80
1,note_on,64,40,0
1,note_on,64,0,80
1,note_on,62,45,0
1,note_on,62,0,80
1,note_on,64,39,0
1,note_on,64,0,80
1,note_on,71,0,0
1,note_on,61,50,0
1,note_on,67,60,0
1,note_on,67,0,480
1,note_on,61,0,0
1,note_on,64,62,0
1,note_on,64,0,120
1,note_on,66,63,0
1,note_on,66,0,120
1,note_on,67,64,0
1,note_on,67,0,120
1,note_on,69,65,0
1,note_on,69,0,120
1,note_on,71,67,0
1,note_on,71,0,120
1,note_on,73,66,0
1,note_on,73,0,120
1,note_on,61,55,0
1,note_on,61,0,120
1,note_on,62,57,0
1,note_on,62,0,120
1,note_on,73,69,0
1,note_on,64,57,0
1,note_on,64,0,120
1,note_on,66,55,0
1,note_on,66,0,120
1,note_on,67,57,0
1,note_on,67,0,120
1,note_on,69,60,0
1,note_on,69,0,120
1,note_on,73,0,0
1,note_on,67,62,0
1,note_on,67,0,120
1,note_on,69,63,0
1,note_on,69,0,120
1,note_on,71,64,0
1,note_on,71,0,120
1,note_on,73,65,0
1,note_on,73,0,120
1,note_on,74,67,0
1,note_on,74,0,120
1,note_on,76,66,0
1,note_on,76,0,120
1,note_on,64,55,0
1,note_on,64,0,120
1,note_on,66,57,0
1,note_on,66,0,120
1,note_on,76,69,0
1,note_on,67,57,0
1,note_on,67,0,120
1,note_on,69,55,0
1,note_on,69,0,120
1,note_on,71,57,0
1,note_on,71,0,120
1,note_on,73,60,0
1,note_on,73,0,120
1,note_on,76,0,0
1,note_on,79,74,0
1,note_on,79,0,120
1,note_on,78,72,0
1,note_on,78,0,120
1,note_on,76,71,0
1,note_on,76,0,120
1,note_on,74,69,0
1,note_on,74,0,120
1,note_on,73,67,0
1,note_on,73,0,120
1,note_on,71,68,0
1,note_on,71,0,120
1,note_on,67,64,0
1,note_on,67,0,120
1,note_on,66,61,0
1,note_on,66,0,120
1,note_on,71,75,0
1,note_on,64,62,0
1,note_on,64,0,120
1,note_on,62,60,0
1,note_on,62,0,120
1,note_on,61,57,0
1,note_on,61,0,120
1,note_on,59,55,0
1,note_on,59,0,120
1,note_on,71,0,0
1,note_on,76,74,0
1,note_on,76,0,120
1,note_on,74,72,0
1,note_on,74,0,120
1,note_on,73,71,0
1,note_on,73,0,120
1,note_on,71,69,0
1,note_on,71,0,120
1,note_on,69,67,0
1,note_on,69,0,120
1,note_on,67,72,0
1,note_on,67,0,120
1,note_on,64,64,0
1,note_on,64,0,120
1,note_on,62,61,0
1,note_on,62,0,120
1,note_on,67,75,0
1,note_on,61,62,0
1,note_on,61,0,120
1,note_on,59,60,0
1,note_on,59,0,120
1,note_on,57,57,0
1,note_on,57,0,120
1,note_on,55,55,0
1,note_on,55,0,120
1,note_on,67,0,0
1,note_on,62,73,0
1,note_on,66,73,0
1,note_on,62,0,120
1,note_on,61,68,0
1,note_on,61,0,120
1,note_on,59,63,0
1,note_on,59,0,120
1,note_on,57,62,0
1,note_on,57,0,120
1,note_on,66,0,0
1,note_on,55,62,0
1,note_on,55,0,120
1,note_on,54,61,0
1,note_on,54,0,120
1,note_on,66,63,0
1,note_on,66,0,120
1,note_on,67,65,0
1,note_on,67,0,120
1,note_on,69,67,0
1,note_on,69,0,120
1,note_on,71,69,0
1,note_on,71,0,120
1,note_on,73,72,0
1,note_on,73,0,120
1,note_on,74,74,0
1,note_on,74,0,120
1,note_on,66,73,0
1,note_on,69,73,0
1,note_on,66,0,120
1,note_on,64,68,0
1,note_on,64,0,120
1,note_on,62,63,0
1,note_on,62,0,120
1,note_on,61,62,0
1,note_on,61,0,120
1,note_on,69,0,0
1,note_on,59,62,0
1,note_on,59,0,120
1,note_on,57,61,0
1,note_on,57,0,120
1,note_on,69,63,0
1,note_on,69,0,120
1,note_on,71,65,0
1,note_on,71,0,120
1,note_on,73,67,0
1,note_on,73,0,120
1,note_on,74,69,0
1,note_on,74,0,120
1,note_on,76,72,0
1,note_on,76,0,120
1,note_on,78,74,0
1,note_on,78,0,120
1,note_on,67,73,0
1,note_on,71,73,0
1,note_on,67,0,120
1,note_on,66,68,0
1,note_on,66,0,120
1,note_on,64,63,0
1,note_on,64,0,120
1,note_on,62,62,0
1,note_on,62,0,120
1,note_on,71,0,0
1,note_on,61,62,0
1,note_on,61,0,120
1,note_on,59,61,0
1,note_on,59,0,120
1,note_on,71,63,0
1,note_on,71,0,120
1,note_on,73,65,0
1,note_on,73,0,120
1,note_on,67,65,0
1,note_on,74,67,0
1,note_on,74,0,120
1,note_on,76,69,0
1,note_on,76,0,120
1,note_on,78,72,0
1,note_on,78,0,120
1,note_on,79,74,0
1,note_on,79,0,120
1,note_on,67,0,0
1,note_on,76,80,0
1,note_on,79,80,0
1,note_on,76,0,120
1,note_on,74,74,0
1,note_on,74,0,120
1,note_on,73,69,0
1,note_on,73,0,120
1,note_on,71,68,0
1,note_on,71,0,120
1,note_on,79,0,0
1,note_on,69,68,0
1,note_on,69,0,120
1,note_on,67,67,0
1,note_on,67,0,120
1,note_on,79,69,0
1,note_on,79,0,120
1,note_on,81,68,0
1,note_on,81,0,120
1,note_on,79,71,0
1,note_on,83,73,0
1,note_on,83,0,120
1,note_on,85,75,0
1,note_on,85,0,120
1,note_on,86,79,0
1,note_on,86,0,120
1,note_on,88,81,0
1,note_on,88,0,120
1,note_on,79,0,0
1,note_on,78,71,0
1,note_on,90,85,0
1,note_on,90,0,120
1,note_on,88,83,0
1,note_on,88,0,120
1,note_on,86,80,0
1,note_on,86,0,120
1,note_on,85,78,0
1,note_on,85,0,120
1,note_on,78,0,0
1,note_on,83,76,0
1,note_on,83,0,120
1,note_on,81,73,0
1,note_on,81,0,120
1,note_on,81,71,240
1,note_on,81,0,480
1,note_on,74,71,0
1,note_on,86,85,0
1,note_on,86,0,120
1,note_on,85,83,0
1,note_on,85,0,120
1,note_on,83,80,0
1,note_on,83,0,120
1,note_on,81,78,0
1,note_on,81,0,120
1,note_on,74,0,0
1,note_on,79,76,0
1,note_on,79,0,120
1,note_on,78,73,0
1,note_on,78,0,120
1,note_on,78,71,240
1,note_on,78,0,480
1,note_on,74,69,720
1,note_on,74,0,120
1,note_on,76,70,0
1,note_on,76,0,120
1,note_on,78,72,0
1,note_on,78,0,120
1,note_on,79,73,0
1,note_on,79,0,120
1,note_on,81,74,0
1,note_on,81,0,120
1,note_on,82,75,0
1,note_on,82,0,120
1,note_on,83,76,0
1,note_on,83,0,120
1,note_on,81,71,0
1,note_on,81,0,120
1,note_on,79,71,0
1,note_on,79,0,120
1,note_on,78,70,0
1,note_on,78,0,120
1,note_on,76,69,0
1,note_on,76,0,120
1,note_on,74,68,0
1,note_on,74,0,120
1,note_on,79,77,0
1,note_on,79,0,120
1,note_on,78,71,0
1,note_on,78,0,120
1,note_on,76,70,0
1,note_on,76,0,120
1,note_on,74,69,0
1,note_on,74,0,120
1,note_on,72,68,0
1,note_on,72,0,120
1,note_on,71,66,0
1,note_on,71,0,120
1,note_on,76,78,0
1,note_on,76,0,120
1,note_on,74,69,0
1,note_on,74,0,120
1,note_on,73,67,0
1,note_on,73,0,120
1,note_on,71,66,0
1,note_on,71,0,120
1,note_on,69,67,0
1,note_on,69,0,120
1,note_on,68,63,0
1,note_on,68,0,120
1,note_on,67,63,0
1,note_on,64,63,0
1,note_on,64,0,120
1,note_on,62,59,0
1,note_on,62,0,120
1,note_on,61,63,0
1,note_on,61,0,120
1,note_on,59,59,0
1,note_on,59,0,120
1,note_on,57,58,0
1,note_on,57,0,120
1,note_on,56,57,0
1,note_on,56,0,120
1,note_on,64,62,0
1,note_on,64,0,120
1,note_on,62,57,0
1,note_on,62,0,120
1,note_on,61,57,0
1,note_on,61,0,120
1,note_on,62,57,0
1,note_on,62,0,120
1,note_on,67,0,0
1,note_on,66,70,0
1,note_on,64,70,0
1,note_on,64,0,600
1,note_on,61,58,0
1,note_on,61,0,120
1,note_on,62,58,0
1,note_on,62,0,120
1,note_on,64,58,0
1,note_on,64,0,120
1,note_on,66,0,0
1,note_on,62,65,0
1,note_on,66,65,0
1,note_on,66,0,480
1,note_on,71,68,0
1,note_on,62,0,480
1,note_on,62,52,120
1,note_on,62,0,120
1,note_on,59,57,0
1,note_on,59,0,120
1,note_on,65,52,0
1,note_on,65,0,120
1,note_on,66,57,0
1,note_on,71,0,240
1,note_on,66,0,240
1,note_on,62,57,0
1,note_on,62,0,120
1,note_on,66,52,0
1,note_on,66,0,120
1,note_on,68,57,0
1,note_on,65,48,0
1,note_on,65,0,120
1,note_on,64,52,0
1,note_on,64,0,120
1,note_on,68,0,0
1,note_on,67,63,0
1,note_on,58,57,0
1,note_on,58,0,120
1,note_on,64,50,0
1,note_on,64,0,120
1,note_on,67,0,0
1,note_on,66,58,0
1,note_on,62,48,0
1,note_on,62,0,120
1,note_on,57,51,0
1,note_on,57,0,120
1,note_on,58,68,0
1,note_on,66,0,240
1,note_on,64,57,0
1,note_on,64,0,240
1,note_on,58,0,0
1,note_on,58,65,0
1,note_on,55,65,240
1,note_on,55,0,240
1,note_on,52,65,0
1,note_on,58,0,240
1,note_on,58,65,0
1,note_on,52,0,240
1,note_on,54,65,0
1,note_on,58,0,120
1,note_on,56,57,0
1,note_on,56,0,120
1,note_on,57,65,0
1,note_on,54,0,120
1,note_on,53,60,0
1,note_on,53,0,120
1,note_on,54,65,0
1,note_on,57,0,120
1,note_on,61,58,0
1,note_on,61,0,120
1,note_on,62,65,0
1,note_on,54,0,120
1,note_on,55,60,0
1,note_on,55,0,120
1,note_on,57,65,0
1,note_on,62,0,120
1,note_on,61,58,0
1,note_on,61,0,120
1,note_on,62,65,0
1,note_on,57,0,120
1,note_on,58,60,0
1,note_on,58,0,120
1,note_on,59,65,0
1,note_on,62,0,120
1,note_on,53,58,0
1,note_on,53,0,120
1,note_on,54,65,0
1,note_on,59,0,120
1,note_on,49,60,0
1,note_on,49,0,120
1,note_on,50,65,0
1,note_on,54,0,120
1,note_on,54,59,0
1,note_on,54,0,120
1,note_on,55,65,0
1,note_on,50,0,120
1,note_on,51,60,0
1,note_on,51,0,120
1,note_on,52,65,0
1,note_on,55,0,120
1,note_on,57,57,0
1,note_on,57,0,120
1,note_on,59,65,0
1,note_on,52,0,120
1,note_on,54,60,0
1,note_on,54,0,120
1,note_on,55,65,0
1,note_on,59,0,120
1,note_on,58,59,0
1,note_on,58,0,120
1,note_on,59,65,0
1,note_on,55,0,120
1,note_on,54,60,0
1,note_on,54,0,120
1,note_on,55,65,0
1,note_on,59,0,120
1,note_on,63,56,0
1,note_on,63,0,120
1,note_on,64,65,0
1,note_on,55,0,120
1,note_on,57,60,0
1,note_on,57,0,120
1,note_on,59,65,0
1,note_on,64,0,120
1,note_on,66,59,0
1,note_on,66,0,120
1,note_on,67,65,0
1,note_on,59,0,120
1,note_on,58,60,0
1,note_on,58,0,120
1,note_on,57,60,0
1,note_on,67,0,240
1,note_on,68,72,0
1,note_on,68,0,240
1,note_on,57,0,0
1,note_on,69,78,0
1,note_on,64,67,240
1,note_on,64,0,240
1,note_on,61,73,0
1,note_on,61,0,240
1,note_on,69,0,0
1,note_on,57,65,0
1,note_on,67,65,0
1,note_on,67,0,240
1,note_on,66,73,0
1,note_on,57,0,240
1,note_on,58,65,0
1,note_on,58,0,240
1,note_on,66,0,0
1,note_on,59,65,0
1,note_on,66,66,240
1,note_on,66,0,240
1,note_on,63,71,0
1,note_on,63,0,240
1,note_on,59,0,0
1,note_on,57,65,0
1,note_on,59,67,0
1,note_on,57,0,240
1,note_on,55,65,0
1,note_on,55,0,240
1,note_on,59,0,0
1,note_on,71,82,0
1,note_on,71,0,240
1,note_on,72,86,0
1,note_on,67,69,240
1,note_on,67,0,240
1,note_on,64,75,0
1,note_on,64,0,240
1,note_on,72,0,0
1,note_on,60,65,0
1,note_on,71,70,0
1,note_on,71,0,240
1,note_on,69,76,0
1,note_on,69,0,240
1,note_on,60,0,0
1,note_on,61,75,0
1,note_on,61,0,240
1,note_on,62,75,0
1,note_on,69,69,240
1,note_on,69,0,240
1,note_on,66,74,0
1,note_on,66,0,240
1,note_on,62,0,0
1,note_on,60,69,0
1,note_on,62,69,0
1,note_on,60,0,240
1,note_on,59,63,0
1,note_on,59,0,120
1,note_on,60,62,0
1,note_on,62,0,120
1,note_on,74,72,0
1,note_on,60,0,24
1,note_on,72,69,96
1,note_on,74,0,24
1,note_on,71,72,96
1,note_on,72,0,24
1,note_on,71,0,696
1,note_on,76,69,0
1,note_on,76,0,480
1,note_on,76,69,0
1,note_on,76,0,120
1,note_on,74,65,0
1,note_on,74,0,120
1,note_on,72,74,0
1,note_on,72,0,480
1,note_on,73,69,0
1,note_on,73,0,240
1,note_on,78,75,0
1,note_on,78,0,480
1,note_on,78,70,0
1,note_on,78,0,120
1,note_on,76,65,0
1,note_on,76,0,120
1,note_on,74,76,0
1,note_on,74,0,720
1,note_on,71,69,0
1,note_on,71,0,120
1,note_on,79,75,0
1,note_on,79,0,360
1,note_on,79,69,0
1,note_on,79,0,120
1,note_on,77,69,0
1,note_on,77,0,120
1,note_on,76,76,0
1,note_on,76,0,240
1,note_on,79,78,0
1,note_on,79,0,240
1,note_on,78,81,0
1,note_on,78,0,240
1,note_on,79,84,0
1,note_on,79,0,240
1,note_on,84,86,0
1,note_on,84,0,240
1,note_on,69,69,240
1,note_on,69,0,80
1,note_on,71,63,0
1,note_on,71,0,80
1,note_on,69,69,0
1,note_on,69,0,80
1,note_on,71,64,0
1,note_on,71,0,80
1,note_on,69,69,0
1,note_on,69,0,80
1,note_on,71,63,0
1,note_on,71,0,80
1,note_on,69,69,0
1,note_on,66,69,0
1,note_on,69,0,80
1,note_on,71,64,0
1,note_on,71,0,80
1,note_on,69,69,0
1,note_on,69,0,80
1,note_on,71,64,0
1,note_on,71,0,80
1,note_on,69,69,0
1,note_on,69,0,80
1,note_on,71,63,0
1,note_on,71,0,80
1,note_on,66,0,0
1,note_on,67,69,0
1,note_on,67,0,480
1,note_on,67,69,240
1,note_on,67,0,120
1,note_on,69,62,0
1,note_on,69,0,120
1,note_on,71,69,0
1,note_on,71,0,120
1,note_on,72,65,0
1,note_on,72,0,120
1,note_on,74,65,0
1,note_on,74,0,120
1,note_on,76,65,0
1,note_on,76,0,120
1,note_on,71,75,0
1,note_on,71,0,480
1,note_on,71,69,240
1,note_on,71,0,120
1,note_on,72,63,0
1,note_on,72,0,120
1,note_on,74,69,0
1,note_on,74,0,120
1,note_on,76,69,0
1,note_on,76,0,120
1,note_on,78,63,0
1,note_on,78,0,120
1,note_on,79,63,0
1,note_on,79,0,120
1,note_on,74,75,0
1,note_on,74,0,480
1,note_on,74,69,240
1,note_on,74,0,120
1,note_on,76,63,0
1,note_on,76,0,120
1,note_on,78,69,0
1,note_on,78,0,120
1,note_on,76,65,0
1,note_on,76,0,120
1,note_on,78,65,0
1,note_on,78,0,120
1,note_on,79,65,0
1,note_on,79,0,120
1,note_on,81,69,0
1,note_on,81,0,120
1,note_on,80,65,0
1,note_on,80,0,120
1,note_on,81,69,0
1,note_on,81,0,120
1,note_on,83,69,0
1,note_on,83,0,120
1,note_on,84,79,0
1,note_on,84,0,120
1,note_on,83,71,0
1,note_on,83,0,120
1,note_on,81,70,0
1,note_on,81,0,120
1,note_on,79,67,0
1,note_on,79,0,120
1,note_on,78,70,0
1,note_on,78,0,120
1,note_on,75,67,0
1,note_on,75,0,120
1,note_on,74,67,0
1,note_on,74,0,120
1,note_on,76,67,0
1,note_on,76,0,120
1,note_on,78,75,0
1,note_on,78,0,120
1,note_on,76,73,0
1,note_on,76,0,120
1,note_on,74,71,0
1,note_on,74,0,120
1,note_on,72,69,0
1,note_on,72,0,120
1,note_on,71,69,0
1,note_on,71,0,120
1,note_on,69,64,0
1,note_on,69,0,120
1,note_on,67,64,0
1,note_on,67,0,120
1,note_on,69,64,0
1,note_on,69,0,120
1,note_on,71,64,0
1,note_on,71,0,120
1,note_on,72,66,0
1,note_on,72,0,120
1,note_on,74,68,0
1,note_on,74,0,120
1,note_on,75,70,0
1,note_on,75,0,120
1,note_on,76,72,0
1,note_on,76,0,120
1,note_on,79,66,0
1,note_on,79,0,120
1,note_on,78,69,0
1,note_on,78,0,120
1,note_on,76,66,0
1,note_on,76,0,120
1,note_on,74,69,0
1,note_on,74,0,120
1,note_on,79,64,0
1,note_on,79,0,120
1,note_on,78,67,0
1,note_on,78,0,120
1,note_on,79,63,0
1,note_on,79,0,120
1,note_on,73,69,0
1,note_on,73,0,480
1,note_on,69,63,0
1,note_on,72,75,0
1,note_on,69,0,240
1,note_on,63,68,0
1,note_on,63,0,240
1,note_on,66,68,0
1,note_on,66,0,240
1,note_on,69,68,0
1,note_on,72,0,240
1,note_on,71,75,0
1,note_on,69,0,240
1,note_on,67,69,0
1,note_on,67,0,240
1,note_on,71,0,0
1,note_on,73,73,0
1,note_on,73,0,240
1,note_on,74,76,0
1,note_on,74,0,240
1,note_on,67,66,0
1,note_on,76,78,0
1,note_on,76,0,240
1,note_on,67,0,0
1,note_on,78,81,0
1,note_on,78,0,240
1,note_on,79,90,0
1,note_on,79,0,720
1,note_on,78,80,0
1,note_on,78,0,240
1,note_on,76,85,0
1,note_on,76,0,240
1,note_on,79,80,0
1,note_on,79,0,120
1,note_on,78,69,0
1,note_on,78,0,120
1,note_on,66,79,0
1,note_on,66,0,480
1,note_on,76,80,720
1,note_on,76,0,120
1,note_on,74,69,0
1,note_on,74,0,120
1,note_on,62,79,0
1,note_on,62,0,480
1,note_on,83,80,720
1,note_on,83,0,120
1,note_on,81,69,0
1,note_on,81,0,120
1,note_on,78,70,0
1,note_on,78,0,120
1,note_on,74,64,0
1,note_on,74,0,120
1,note_on,73,64,0
1,note_on,73,0,120
1,note_on,71,64,0
1,note_on,71,0,120
1,note_on,70,73,0
1,note_on,61,62,0
1,note_on,61,0,120
1,note_on,60,62,0
1,note_on,60,0,120
1,note_on,61,62,0
1,note_on,61,0,120
1,note_on,63,62,0
1,note_on,63,0,120
1,note_on,70,0,0
1,note_on,69,69,0
1,note_on,64,58,0
1,note_on,64,0,120
1,note_on,63,60,0
1,note_on,63,0,120
1,note_on,64,60,0
1,note_on,64,0,120
1,note_on,66,60,0
1,note_on,66,0,120
1,note_on,67,68,0
1,note_on,67,0,120
1,note_on,66,61,0
1,note_on,66,0,120
1,note_on,69,0,0
1,note_on,71,69,0
1,note_on,64,58,0
1,note_on,64,0,120
1,note_on,71,0,0
1,note_on,62,62,0
1,note_on,62,0,120
1,note_on,73,74,0
1,note_on,73,0,120
1,note_on,72,63,0
1,note_on,72,0,120
1,note_on,73,63,0
1,note_on,73,0,120
1,note_on,74,63,0
1,note_on,74,0,120
1,note_on,76,68,0
1,note_on,76,0,120
1,note_on,75,67,0
1,note_on,75,0,120
1,note_on,76,68,0
1,note_on,76,0,120
1,note_on,78,70,0
1,note_on,78,0,120
1,note_on,79,71,0
1,note_on,79,0,120
1,note_on,78,68,0
1,note_on,78,0,120
1,note_on,76,64,0
1,note_on,76,0,120
1,note_on,74,64,0
1,note_on,74,0,120
1,note_on,73,68,0
1,note_on,73,0,120
1,note_on,70,60,0
1,note_on,70,0,120
1,note_on,69,60,0
1,note_on,69,0,120
1,note_on,71,60,0
1,note_on,71,0,120
1,note_on,72,68,0
1,note_on,72,0,120
1,note_on,71,62,0
1,note_on,71,0,120
1,note_on,69,62,0
1,note_on,69,0,120
1,note_on,67,62,0
1,note_on,67,0,120
1,note_on,66,68,0
1,note_on,66,0,120
1,note_on,67,64,0
1,note_on,67,0,120
1,note_on,69,64,0
1,note_on,69,0,120
1,note_on,71,64,0
1,note_on,71,0,120
1,note_on,72,77,0
1,note_on,72,0,80
1,note_on,74,69,0
1,note_on,74,0,80
1,note_on,72,74,0
1,note_on,72,0,80
1,note_on,74,68,0
1,note_on,74,0,80
1,note_on,72,71,0
1,note_on,72,0,80
1,note_on,74,66,0
1,note_on,74,0,80
1,note_on,72,70,0
1,note_on,72,0,80
1,note_on,74,62,0
1,note_on,74,0,80
1,note_on,72,69,0
1,note_on,72,0,80
1,note_on,74,63,0
1,note_on,64,57,0
1,note_on,74,0,80
1,note_on,72,68,0
1,note_on,64,0,40
1,note_on,66,43,0
1,note_on,72,0,40
1,note_on,74,67,0
1,note_on,74,0,80
1,note_on,66,0,0
1,note_on,67,64,0
1,note_on,71,64,0
1,note_on,71,0,480
1,note_on,67,0,0
1,note_on,69,77,0
1,note_on,69,0,80
1,note_on,71,69,0
1,note_on,71,0,80
1,note_on,69,74,0
1,note_on,69,0,80
1,note_on,71,68,0
1,note_on,71,0,80
1,note_on,69,71,0
1,note_on,69,0,80
1,note_on,71,66,0
1,note_on,71,0,80
1,note_on,69,70,0
1,note_on,69,0,80
1,note_on,71,62,0
1,note_on,71,0,80
1,note_on,69,69,0
1,note_on,69,0,80
1,note_on,71,63,0
1,note_on,61,57,0
1,note_on,71,0,80
1,note_on,69,68,0
1,note_on,61,0,40
1,note_on,63,43,0
1,note_on,69,0,40
1,note_on,71,67,0
1,note_on,71,0,80
1,note_on,63,0,0
1,note_on,68,46,0
1,note_on,64,64,0
1,note_on,68,0,120
1,note_on,71,40,0
1,note_on,71,0,120
1,note_on,68,46,0
1,note_on,68,0,120
1,note_on,64,43,0
1,note_on,64,0,120
1,note_on,64,0,0
1,note_on,67,73,0
1,note_on,67,0,80
1,note_on,69,66,0
1,note_on,69,0,80
1,note_on,67,70,0
1,note_on,67,0,80
1,note_on,69,65,0
1,note_on,69,0,80
1,note_on,67,68,0
1,note_on,67,0,80
1,note_on,69,63,0
1,note_on,69,0,80
1,note_on,67,67,0
1,note_on,67,0,80
1,note_on,69,59,0
1,note_on,69,0,80
1,note_on,67,66,0
1,note_on,67,0,80
1,note_on,69,60,0
1,note_on,59,57,0
1,note_on,69,0,80
1,note_on,67,65,0
1,note_on,59,0,40
1,note_on,61,43,0
1,note_on,67,0,40
1,note_on,69,64,0
1,note_on,69,0,80
1,note_on,61,0,0
1,note_on,66,52,0
1,note_on,62,64,0
1,note_on,66,0,120
1,note_on,69,46,0
1,note_on,69,0,120
1,note_on,66,52,0
1,note_on,66,0,120
1,note_on,62,49,0
1,note_on,62,0,120
1,note_on,62,0,0
1,note_on,66,50,0
1,note_on,66,0,120
1,note_on,64,46,0
1,note_on,64,0,120
1,note_on,66,48,0
1,note_on,66,0,120
1,note_on,67,40,0
1,note_on,67,0,120
1,note_on,69,48,0
1,note_on,69,0,120
1,note_on,71,50,0
1,note_on,71,0,120
1,note_on,83,73,0
1,note_on,73,60,0
1,note_on,73,0,120
1,note_on,75,55,0
1,note_on,75,0,120
1,note_on,83,0,0
1,note_on,76,83,0
1,note_on,76,0,240
1,note_on,88,84,0
1,note_on,88,0,240
1,note_on,64,50,0
1,note_on,64,0,120
1,note_on,62,46,0
1,note_on,62,0,120
1,note_on,64,48,0
1,note_on,64,0,120
1,note_on,66,40,0
1,note_on,66,0,120
1,note_on,67,48,0
1,note_on,67,0,120
1,note_on,69,50,0
1,note_on,69,0,120
1,note_on,81,73,0
1,note_on,71,61,0
1,note_on,71,0,120
1,note_on,73,55,0
1,note_on,73,0,120
1,note_on,81,0,0
1,note_on,74,83,0
1,note_on,74,0,240
1,note_on,86,84,0
1,note_on,86,0,240
1,note_on,62,50,0
1,note_on,62,0,120
1,note_on,60,46,0
1,note_on,60,0,120
1,note_on,62,48,0
1,note_on,62,0,120
1,note_on,63,40,0
1,note_on,63,0,120
1,note_on,65,48,0
1,note_on,65,0,120
1,note_on,67,50,0
1,note_on,67,0,120
1,note_on,79,73,0
1,note_on,69,61,0
1,note_on,69,0,120
1,note_on,71,55,0
1,note_on,71,0,120
1,note_on,79,0,0
1,note_on,72,83,0
1,note_on,72,0,240
1,note_on,84,84,0
1,note_on,84,0,360
1,note_on,76,78,0
1,note_on,76,0,120
1,note_on,77,84,0
1,note_on,77,0,120
1,note_on,79,89,0
1,note_on,79,0,120
1,note_on,80,94,0
1,note_on,64,55,120
1,note_on,64,0,120
1,note_on,80,0,0
1,note_on,65,57,0
1,note_on,65,0,120
1,note_on,67,58,0
1,note_on,67,0,120
1,note_on,68,59,0
1,note_on,70,61,120
1,note_on,70,0,120
1,note_on,72,62,0
1,note_on,72,0,120
1,note_on,74,65,0
1,note_on,74,0,120
1,note_on,75,70,0
1,note_on,68,0,120
1,note_on,67,58,0
1,note_on,67,0,120
1,note_on,70,62,0
1,note_on,68,58,120
1,note_on,70,0,24
1,note_on,75,0,96
1,note_on,67,62,0
1,note_on,68,0,24
1,note_on,65,55,96
1,note_on,67,0,24
1,note_on,63,55,96
1,note_on,65,0,24
1,note_on,62,55,96
1,note_on,63,0,24
1,note_on,75,62,96
1,note_on,63,62,0
1,note_on,62,0,24
1,note_on,74,58,96
1,note_on,75,0,24
1,note_on,72,58,96
1,note_on,74,0,24
1,note_on,70,58,96
1,note_on,72,0,24
1,note_on,70,0,96
1,note_on,75,62,0
1,note_on,75,0,120
1,note_on,70,55,0
1,note_on,75,62,120
1,note_on,70,0,24
1,note_on,74,55,96
1,note_on,75,0,24
1,note_on,63,0,96
1,note_on,72,62,0
1,note_on,74,0,24
1,note_on,70,61,96
1,note_on,72,0,24
1,note_on,68,60,96
1,note_on,70,0,24
1,note_on,67,59,96
1,note_on,68,0,24
1,note_on,67,0,96
1,note_on,79,73,0
1,note_on,75,73,0
1,note_on,74,60,120
1,note_on,75,0,24
1,note_on,72,66,96
1,note_on,74,0,24
1,note_on,70,60,96
1,note_on,72,0,24
1,note_on,74,73,96
1,note_on,70,0,24
1,note_on,79,0,96
1,note_on,77,66,0
1,note_on,80,69,120
1,note_on,77,0,24
1,note_on,79,62,96
1,note_on,80,0,24
1,note_on,74,0,96
1,note_on,77,69,0
1,note_on,79,0,24
1,note_on,75,68,96
1,note_on,77,0,24
1,note_on,74,66,96
1,note_on,75,0,24
1,note_on,72,64,96
1,note_on,74,0,24
1,note_on,72,0,96
1,note_on,70,69,0
1,note_on,65,69,0
1,note_on,67,55,120
1,note_on,65,0,24
1,note_on,65,62,96
1,note_on,67,0,24
1,note_on,63,58,96
1,note_on,65,0,24
1,note_on,62,68,96
1,note_on,63,0,24
1,note_on,60,59,96
1,note_on,62,0,24
1,note_on,62,59,96
1,note_on,60,0,24
1,note_on,63,59,96
1,note_on,62,0,24
1,note_on,65,62,96
1,note_on,63,0,24
1,note_on,70,0,96
1,note_on,72,59,0
1,note_on,74,61,120
1,note_on,72,0,24
1,note_on,75,64,96
1,note_on,74,0,24
1,note_on,77,70,96
1,note_on,75,0,24
1,note_on,65,0,96
1,note_on,67,60,0
1,note_on,68,63,120
1,note_on,67,0,24
1,note_on,69,65,96
1,note_on,68,0,24
1,note_on,70,68,96
1,note_on,69,0,24
1,note_on,77,0,96
1,note_on,79,62,0
1,note_on,80,67,120
1,note_on,79,0,24
1,note_on,81,70,96
1,note_on,80,0,24
1,note_on,82,72,96
1,note_on,81,0,24
1,note_on,70,0,96
1,note_on,72,62,0
1,note_on,74,65,120
1,note_on,72,0,24
1,note_on,75,69,96
1,note_on,74,0,24
1,note_on,82,0,96
1,note_on,77,61,0
1,note_on,80,72,0
1,note_on,75,0,24
1,note_on,75,57,96
1,note_on,79,68,0
1,note_on,80,0,24
1,note_on,77,0,0
1,note_on,74,54,96
1,note_on,77,75,0
1,note_on,75,0,24
1,note_on,79,0,0
1,note_on,74,0,96
1,note_on,75,70,0
1,note_on,77,0,24
1,note_on,75,0,96
1,note_on,84,87,0
1,note_on,84,0,240
1,note_on,68,75,240
1,note_on,68,0,80
1,note_on,70,67,0
1,note_on,70,0,80
1,note_on,68,72,0
1,note_on,68,0,80
1,note_on,70,62,0
1,note_on,70,0,80
1,note_on,68,67,0
1,note_on,68,0,80
1,note_on,70,61,0
1,note_on,70,0,80
1,note_on,68,67,0
1,note_on,68,0,80
1,note_on,70,62,0
1,note_on,70,0,80
1,note_on,68,67,0
1,note_on,68,0,80
1,note_on,70,61,0
1,note_on,70,0,80
1,note_on,68,67,0
1,note_on,68,0,80
1,note_on,70,62,0
1,note_on,70,0,80
1,note_on,77,70,0
1,note_on,79,72,120
1,note_on,77,0,24
1,note_on,80,73,96
1,note_on,79,0,24
1,note_on,82,75,96
1,note_on,80,0,24
1,note_on,84,76,96
1,note_on,82,0,24
1,note_on,84,0,96
1,note_on,86,78,0
1,note_on,86,0,120
1,note_on,87,80,0
1,note_on,87,0,120
1,note_on,88,81,0
1,note_on,88,0,120
1,note_on,89,83,0
1,note_on,89,0,120
1,note_on,91,84,0
1,note_on,91,0,120
1,note_on,92,86,0
1,note_on,92,0,240
1,note_on,94,100,0
1,note_on,94,0,240
1,note_on,79,75,240
1,note_on,79,0,80
1,note_on,80,67,0
1,note_on,80,0,80
1,note_on,79,72,0
1,note_on,79,0,80
1,note_on,80,62,0
1,note_on,80,0,80
1,note_on,79,67,0
1,note_on,79,0,80
1,note_on,80,61,0
1,note_on,80,0,80
1,note_on,79,67,0
1,note_on,79,0,80
1,note_on,80,62,0
1,note_on,80,0,80
1,note_on,79,67,0
1,note_on,79,0,80
1,note_on,80,61,0
1,note_on,80,0,80
1,note_on,79,67,0
1,note_on,79,0,80
1,note_on,80,62,0
1,note_on,80,0,80
1,note_on,75,70,0
1,note_on,77,72,120
1,note_on,75,0,24
1,note_on,79,73,96
1,note_on,77,0,24
1,note_on,80,75,96
1,note_on,79,0,24
1,note_on,82,76,96
1,note_on,80,0,24
1,note_on,82,0,96
1,note_on,84,78,0
1,note_on,84,0,120
1,note_on,85,80,0
1,note_on,85,0,120
1,note_on,86,81,0
1,note_on,86,0,120
1,note_on,87,83,0
1,note_on,87,0,120
1,note_on,89,84,0
1,note_on,89,0,120
1,note_on,90,86,0
1,note_on,90,0,120
1,note_on,91,88,0
1,note_on,91,0,120
1,note_on,92,90,0
1,note_on,82,70,0
1,note_on,92,0,120
1,note_on,80,76,0
1,note_on,82,0,24
1,note_on,79,73,96
1,note_on,80,0,24
1,note_on,77,73,96
1,note_on,79,0,24
1,note_on,77,0,94
1,note_on,77,72,2
1,note_on,75,72,0
1,note_on,75,0,120
1,note_on,74,72,0
1,note_on,74,0,120
1,note_on,72,71,0
1,note_on,72,0,120
1,note_on,70,70,0
1,note_on,70,0,120
1,note_on,69,70,0
1,note_on,69,0,120
1,note_on,70,65,0
1,note_on,70,0,120
1,note_on,65,68,0
1,note_on,65,0,120
1,note_on,68,63,0
1,note_on,68,0,120
1,note_on,77,0,0
1,note_on,67,90,0
1,note_on,67,0,120
1,note_on,82,73,0
1,note_on,84,74,120
1,note_on,82,0,24
1,note_on,86,75,96
1,note_on,84,0,24
1,note_on,82,77,96
1,note_on,87,77,0
1,note_on,86,0,24
1,note_on,87,0,96
1,note_on,86,78,0
1,note_on,86,0,120
1,note_on,87,79,0
1,note_on,87,0,120
1,note_on,89,81,0
1,note_on,89,0,120
1,note_on,91,82,0
1,note_on,91,0,120
1,note_on,89,83,0
1,note_on,89,0,120
1,note_on,91,85,0
1,note_on,91,0,120
1,note_on,92,86,0
1,note_on,92,0,120
1,note_on,82,0,0
1,note_on,94,90,0
1,note_on,94,0,120
1,note_on,80,73,120
1,note_on,79,73,120
1,note_on,80,0,24
1,note_on,79,0,94
1,note_on,79,72,2
1,note_on,77,72,0
1,note_on,77,0,120
1,note_on,76,72,0
1,note_on,76,0,120
1,note_on,73,71,0
1,note_on,73,0,120
1,note_on,72,70,0
1,note_on,72,0,120
1,note_on,71,70,0
1,note_on,71,0,120
1,note_on,72,65,0
1,note_on,72,0,120
1,note_on,67,68,0
1,note_on,67,0,120
1,note_on,70,63,0
1,note_on,70,0,120
1,note_on,79,0,0
1,note_on,68,90,0
1,note_on,68,0,120
1,note_on,84,74,120
1,note_on,88,75,120
1,note_on,84,0,24
1,note_on,84,77,96
1,note_on,89,77,0
1,note_on,88,0,24
1,note_on,89,0,96
1,note_on,91,78,0
1,note_on,91,0,120
1,note_on,92,79,0
1,note_on,92,0,120
1,note_on,91,81,0
1,note_on,91,0,120
1,note_on,89,79,0
1,note_on,89,0,120
1,note_on,87,77,0
1,note_on,87,0,120
1,note_on,84,0,0
1,note_on,78,75,0
1,note_on,86,75,0
1,note_on,86,0,120
1,note_on,84,73,0
1,note_on,84,0,120
1,note_on,78,0,0
1,note_on,83,79,0
1,note_on,79,73,0
1,note_on,79,0,240
1,note_on,83,0,0
1,note_on,74,73,0
1,note_on,74,0,120
1,note_on,59,73,120
1,note_on,59,0,60
1,note_on,60,68,0
1,note_on,60,0,60
1,note_on,59,73,0
1,note_on,59,0,60
1,note_on,60,66,0
1,note_on,60,0,60
1,note_on,55,73,0
1,note_on,55,0,120
1,note_on,71,73,120
1,note_on,71,0,60
1,note_on,72,68,0
1,note_on,72,0,60
1,note_on,71,73,0
1,note_on,71,0,60
1,note_on,72,66,0
1,note_on,72,0,60
1,note_on,79,73,0
1,note_on,79,0,120
1,note_on,63,73,120
1,note_on,63,0,60
1,note_on,65,68,0
1,note_on,65,0,60
1,note_on,63,73,0
1,note_on,63,0,60
1,note_on,65,66,0
1,note_on,65,0,60
1,note_on,60,73,0
1,note_on,60,0,120
1,note_on,75,75,120
1,note_on,75,0,60
1,note_on,77,70,0
1,note_on,77,0,60
1,note_on,75,75,0
1,note_on,75,0,60
1,note_on,77,68,0
1,note_on,77,0,60
1,note_on,84,75,0
1,note_on,84,0,120
1,note_on,69,77,120
1,note_on,69,0,60
1,note_on,70,72,0
1,note_on,70,0,60
1,note_on,69,78,0
1,note_on,69,0,60
1,note_on,70,70,0
1,note_on,70,0,60
1,note_on,62,78,0
1,note_on,62,0,120
1,note_on,78,79,120
1,note_on,78,0,60
1,note_on,79,74,0
1,note_on,79,0,60
1,note_on,78,80,0
1,note_on,78,0,60
1,note_on,79,72,0
1,note_on,79,0,60
1,note_on,86,81,0
1,note_on,86,0,120
1,note_on,70,81,120
1,note_on,70,0,240
1,note_on,67,83,0
1,note_on,67,0,120
1,note_on,82,83,120
1,note_on,82,0,60
1,note_on,84,78,0
1,note_on,84,0,60
1,note_on,82,84,0
1,note_on,82,0,60
1,note_on,84,77,0
1,note_on,84,0,60
1,note_on,91,86,0
1,note_on,91,0,120
1,note_on,76,88,120
1,note_on,76,0,60
1,note_on,77,82,0
1,note_on,77,0,60
1,note_on,76,89,0
1,note_on,76,0,60
1,note_on,77,81,0
1,note_on,77,0,60
1,note_on,73,90,0
1,note_on,73,0,120
1,note_on,88,92,120
1,note_on,88,0,60
1,note_on,89,86,0
1,note_on,89,0,60
1,note_on,88,93,0
1,note_on,88,0,60
1,note_on,89,85,0
1,note_on,89,0,60
1,note_on,81,93,0
1,note_on,93,93,0
1,note_on,93,0,120
1,note_on,81,0,0
1,note_on,89,94,120
1,note_on,77,79,0
1,note_on,77,0,120
1,note_on,89,0,0
1,note_on,86,95,120
1,note_on,74,80,0
1,note_on,74,0,120
1,note_on,86,0,0
1,note_on,81,97,120
1,note_on,69,82,0
1,note_on,69,0,120
1,note_on,81,0,0
1,note_on,77,98,120
1,note_on,65,83,0
1,note_on,65,0,120
1,note_on,77,0,0
1,note_on,74,101,120
1,note_on,62,85,0
1,note_on,62,0,120
1,note_on,74,0,0
1,note_on,69,93,120
1,note_on,57,78,0
1,note_on,57,0,120
1,note_on,69,0,0
1,note_on,56,80,120
1,note_on,62,80,0
1,note_on,68,95,0
1,note_on,68,0,120
1,note_on,62,0,0
1,note_on,56,0,0
1,note_on,80,96,120
1,note_on,74,81,0
1,note_on,68,81,0
1,note_on,68,0,120
1,note_on,74,0,0
1,note_on,80,0,0
1,note_on,81,98,120
1,note_on,73,82,0
1,note_on,69,82,0
1,note_on,69,0,120
1,note_on,73,0,0
1,note_on,81,0,0
1,note_on,93,110,360
1,note_on,88,93,0
1,note_on,85,93,0
1,note_on,81,93,0
1,note_on,81,0,120
1,note_on,93,0,0
1,note_on,88,0,0
1,note_on,85,0,0
1,note_on,69,50,2760
1,note_on,67,45,480
1,note_on,69,0,24
1,note_on,66,50,456
1,note_on,67,0,24
1,note_on,67,46,456
1,note_on,66,0,24
1,note_on,69,46,456
1,note_on,67,0,24
1,note_on,69,0,456
1,note_on,62,50,0
1,note_on,62,0,480
1,note_on,62,44,0
1,note_on,64,44,0
1,note_on,60,44,480
1,note_on,66,44,0
1,note_on,64,0,24
1,note_on,62,0,0
1,note_on,60,0,456
1,note_on,66,0,0
1,note_on,67,50,0
1,note_on,59,50,0
1,note_on,61,41,480
1,note_on,59,0,24
1,note_on,67,0,456
1,note_on,66,44,0
1,note_on,62,44,0
1,note_on,61,0,24
1,note_on,66,0,456
1,note_on,64,50,0
1,note_on,62,0,480
1,note_on,61,42,0
1,note_on,64,0,480
1,note_on,69,47,0
1,note_on,61,0,480
1,note_on,63,48,0
1,note_on,64,47,480
1,note_on,63,0,24
1,note_on,66,48,456
1,note_on,64,0,24
1,note_on,69,0,456
1,note_on,71,52,0
1,note_on,66,0,480
1,note_on,73,54,0
1,note_on,64,45,0
1,note_on,71,0,24
1,note_on,64,0,456
1,note_on,74,54,0
1,note_on,62,45,0
1,note_on,73,0,24
1,note_on,74,0,456
1,note_on,69,50,0
1,note_on,69,0,480
1,note_on,62,0,0
1,note_on,67,47,0
1,note_on,64,47,0
1,note_on,64,0,480
1,note_on,67,0,0
1,note_on,66,47,0
1,note_on,57,39,0
1,note_on,57,0,480
1,note_on,58,50,0
1,note_on,58,0,480
1,note_on,66,0,0
1,note_on,64,46,0
1,note_on,59,46,0
1,note_on,59,0,480
1,note_on,61,46,0
1,note_on,61,0,480
1,note_on,62,50,0
1,note_on,62,0,480
1,note_on,64,0,0
1,note_on,69,51,0
1,note_on,76,60,0
1,note_on,71,45,480
1,note_on,74,54,0
1,note_on,76,0,24
1,note_on,69,0,0
1,note_on,73,58,456
1,note_on,74,0,24
1,note_on,71,0,456
1,note_on,69,42,0
1,note_on,74,53,0
1,note_on,73,0,24
1,note_on,67,42,456
1,note_on,76,53,0
1,note_on,74,0,24
1,note_on,69,0,0
1,note_on,67,0,456
1,note_on,76,0,0
1,note_on,66,42,0
1,note_on,69,50,0
1,note_on,67,39,480
1,note_on,71,46,0
1,note_on,69,0,24
1,note_on,66,0,0
1,note_on,69,39,456
1,note_on,72,46,0
1,note_on,67,0,24
1,note_on,71,0,0
1,note_on,74,52,456
1,note_on,62,42,0
1,note_on,69,0,24
1,note_on,72,0,0
1,note_on,64,44,456
1,note_on,62,0,24
1,note_on,74,0,456
1,note_on,73,52,0
1,note_on,66,44,0
1,note_on,64,0,24
1,note_on,66,0,456
1,note_on,67,50,0
1,note_on,73,0,480
1,note_on,71,46,0
1,note_on,71,0,480
1,note_on,67,0,0
1,note_on,66,39,0
1,note_on,69,46,0
1,note_on,64,39,960
1,note_on,67,46,0
1,note_on,69,0,24
1,note_on,66,0,0
1,note_on,62,39,456
1,note_on,66,46,0
1,note_on,64,0,24
1,note_on,67,0,0
1,note_on,64,50,456
1,note_on,66,0,24
1,note_on,62,0,456
1,note_on,61,44,0
1,note_on,64,0,480
1,note_on,69,54,0
1,note_on,61,0,480
1,note_on,63,48,0
1,note_on,69,0,480
1,note_on,66,48,0
1,note_on,66,0,480
1,note_on,71,54,0
1,note_on,63,0,480
1,note_on,64,54,0
1,note_on,64,0,480
1,note_on,71,0,0
1,note_on,76,67,0
1,note_on,74,63,480
1,note_on,76,0,24
1,note_on,73,59,456
1,note_on,74,0,24
1,note_on,73,0,456
1,note_on,78,64,0
1,note_on,76,57,480
1,note_on,78,0,24
1,note_on,74,57,456
1,note_on,76,0,24
1,note_on,74,0,456
1,note_on,81,71,0
1,note_on,79,68,480
1,note_on,81,0,24
1,note_on,78,67,456
1,note_on,79,0,24
1,note_on,78,0,456
1,note_on,71,53,0
1,note_on,75,63,0
1,note_on,75,0,480
1,note_on,71,0,0
1,note_on,69,46,0
1,note_on,78,56,0
1,note_on,78,0,480
1,note_on,69,0,0
1,note_on,67,51,0
1,note_on,71,62,0
1,note_on,71,0,480
1,note_on,67,0,0
1,note_on,66,42,0
1,note_on,69,50,0
1,note_on,68,42,480
1,note_on,71,49,0
1,note_on,69,0,24
1,note_on,66,0,0
1,note_on,69,50,456
1,note_on,73,57,0
1,note_on,68,0,24
1,note_on,71,0,0
1,note_on,69,0,456
1,note_on,73,0,0
1,note_on,71,44,0
1,note_on,74,61,0
1,note_on,76,62,480
1,note_on,73,44,0
1,note_on,74,0,24
1,note_on,71,0,0
1,note_on,69,55,456
1,note_on,73,0,24
1,note_on,69,0,456
1,note_on,76,0,0
1,note_on,65,49,0
1,note_on,74,58,0
1,note_on,64,46,480
1,note_on,73,54,0
1,note_on,74,0,24
1,note_on,65,0,0
1,note_on,62,44,456
1,note_on,71,52,0
1,note_on,64,0,24
1,note_on,73,0,0
1,note_on,62,0,1896
1,note_on,71,0,0
1,note_on,61,45,0
1,note_on,69,53,0
1,note_on,69,0,480
1,note_on,61,0,0
1,note_on,63,46,0
1,note_on,72,55,0
1,note_on,72,0,960
1,note_on,63,0,0
1,note_on,64,45,0
1,note_on,71,54,0
1,note_on,71,0,480
1,note_on,64,0,0
1,note_on,67,42,0
1,note_on,73,53,0
1,note_on,73,0,960
1,note_on,67,0,0
1,note_on,66,45,0
1,note_on,74,57,0
1,note_on,74,0,480
1,note_on,66,0,0
1,note_on,75,54,0
1,note_on,67,45,0
1,note_on,67,0,480
1,note_on,75,0,480
1,note_on,74,58,0
1,note_on,74,0,480
1,note_on,73,55,0
1,note_on,73,0,480
1,note_on,72,55,0
1,note_on,72,0,240
1,note_on,69,50,240
1,note_on,77,50,0
1,note_on,69,0,80
1,note_on,70,44,0
1,note_on,70,0,80
1,note_on,69,50,0
1,note_on,69,0,80
1,note_on,70,44,0
1,note_on,70,0,80
1,note_on,69,50,0
1,note_on,69,0,80
1,note_on,70,44,0
1,note_on,70,0,80
1,note_on,77,0,0
1,note_on,69,50,0
1,note_on,75,45,0
1,note_on,69,0,80
1,note_on,70,45,0
1,note_on,70,0,80
1,note_on,69,50,0
1,note_on,69,0,80
1,note_on,70,49,0
1,note_on,70,0,60
1,note_on,69,46,0
1,note_on,69,0,60
1,note_on,67,46,0
1,note_on,67,0,60
1,note_on,69,46,0
1,note_on,69,0,60
1,note_on,75,0,0
1,note_on,74,50,0
1,note_on,75,46,480
1,note_on,74,0,24
1,note_on,70,43,216
1,note_on,69,39,120
1,note_on,70,0,24
1,note_on,67,42,96
1,note_on,77,46,0
1,note_on,69,0,24
1,note_on,75,0,0
1,note_on,65,41,96
1,note_on,67,0,24
1,note_on,63,39,96
1,note_on,65,0,24
1,note_on,62,37,96
1,note_on,63,0,24
1,note_on,62,0,96
1,note_on,77,0,0
1,note_on,67,50,0
1,note_on,71,50,0
1,note_on,71,0,480
1,note_on,67,0,0
1,note_on,72,44,0
1,note_on,67,40,240
1,note_on,65,38,120
1,note_on,67,0,24
1,note_on,63,40,96
1,note_on,74,44,0
1,note_on,65,0,24
1,note_on,72,0,0
1,note_on,62,40,96
1,note_on,63,0,24
1,note_on,60,39,96
1,note_on,62,0,24
1,note_on,59,38,96
1,note_on,60,0,24
1,note_on,59,0,96
1,note_on,74,0,0
1,note_on,62,46,0
1,note_on,71,55,0
1,note_on,71,0,240
1,note_on,62,0,240
1,note_on,67,50,0
1,note_on,67,0,480
1,note_on,65,46,0
1,note_on,65,0,480
1,note_on,64,53,0
1,note_on,65,50,480
1,note_on,64,0,24
1,note_on,67,51,456
1,note_on,65,0,24
1,note_on,67,0,456
1,note_on,60,58,0
1,note_on,60,0,480
1,note_on,62,52,0
1,note_on,72,52,0
1,note_on,64,54,480
1,note_on,70,54,0
1,note_on,72,0,24
1,note_on,62,0,0
1,note_on,70,0,456
1,note_on,65,57,0
1,note_on,69,63,0
1,note_on,64,0,24
1,note_on,69,0,456
1,note_on,65,0,0
1,note_on,67,57,0
1,note_on,70,57,0
1,note_on,69,58,480
1,note_on,72,58,0
1,note_on,70,0,24
1,note_on,67,0,0
1,note_on,72,0,456
1,note_on,63,70,0
1,note_on,65,70,0
1,note_on,69,0,24
1,note_on,65,0,216
1,note_on,63,0,0
1,note_on,72,64,0
1,note_on,81,72,240
1,note_on,81,0,80
1,note_on,82,57,0
1,note_on,82,0,80
1,note_on,81,72,0
1,note_on,81,0,80
1,note_on,72,0,0
1,note_on,82,57,0
1,note_on,77,72,0
1,note_on,82,0,80
1,note_on,81,72,0
1,note_on,81,0,80
1,note_on,82,57,0
1,note_on,82,0,80
1,note_on,81,72,0
1,note_on,81,0,80
1,note_on,82,57,0
1,note_on,82,0,80
1,note_on,81,72,0
1,note_on,81,0,80
1,note_on,77,0,0
1,note_on,82,57,0
1,note_on,78,81,0
1,note_on,82,0,80
1,note_on,81,72,0
1,note_on,81,0,80
1,note_on,82,57,0
1,note_on,82,0,80
1,note_on,78,0,0
1,note_on,82,90,240
1,note_on,82,0,120
1,note_on,81,82,0
1,note_on,81,0,120
1,note_on,79,81,0
1,note_on,79,0,120
1,note_on,77,80,0
1,note_on,77,0,120
1,note_on,75,79,0
1,note_on,75,0,120
1,note_on,74,78,0
1,note_on,74,0,120
1,note_on,58,82,240
1,note_on,58,0,120
1,note_on,56,73,0
1,note_on,56,0,120
1,note_on,55,72,0
1,note_on,55,0,120
1,note_on,53,72,0
1,note_on,53,0,120
1,note_on,51,71,0
1,note_on,51,0,120
1,note_on,50,70,0
1,note_on,50,0,120
1,note_on,79,95,240
1,note_on,79,0,120
1,note_on,77,82,0
1,note_on,77,0,120
1,note_on,75,81,0
1,note_on,75,0,120
1,note_on,74,80,0
1,note_on,74,0,120
1,note_on,72,79,0
1,note_on,72,0,120
1,note_on,70,78,0
1,note_on,70,0,120
1,note_on,60,82,240
1,note_on,60,0,120
1,note_on,58,73,0
1,note_on,58,0,120
1,note_on,56,72,0
1,note_on,56,0,120
1,note_on,55,72,0
1,note_on,55,0,120
1,note_on,53,71,0
1,note_on,53,0,120
1,note_on,52,70,0
1,note_on,52,0,120
1,note_on,77,92,240
1,note_on,77,0,120
1,note_on,76,82,0
1,note_on,76,0,120
1,note_on,73,81,0
1,note_on,73,0,120
1,note_on,72,80,0
1,note_on,72,0,120
1,note_on,70,79,0
1,note_on,70,0,120
1,note_on,69,78,0
1,note_on,69,0,120
1,note_on,57,82,240
1,note_on,57,0,120
1,note_on,55,73,0
1,note_on,55,0,120
1,note_on,54,72,0
1,note_on,54,0,120
1,note_on,51,72,0
1,note_on,51,0,120
1,note_on,50,71,0
1,note_on,50,0,120
1,note_on,48,70,0
1,note_on,48,0,120
1,note_on,86,90,240
1,note_on,86,0,120
1,note_on,84,82,0
1,note_on,84,0,120
1,note_on,82,81,0
1,note_on,82,0,120
1,note_on,81,80,0
1,note_on,81,0,120
1,note_on,79,79,0
1,note_on,79,0,120
1,note_on,78,78,0
1,note_on,78,0,120
1,note_on,62,82,240
1,note_on,62,0,120
1,note_on,61,73,0
1,note_on,61,0,120
1,note_on,60,72,0
1,note_on,60,0,120
1,note_on,58,72,0
1,note_on,58,0,120
1,note_on,57,71,0
1,note_on,57,0,120
1,note_on,55,70,0
1,note_on,55,0,120
1,note_on,75,92,240
1,note_on,75,0,120
1,note_on,74,82,0
1,note_on,74,0,120
1,note_on,72,81,0
1,note_on,72,0,120
1,note_on,70,80,0
1,note_on,70,0,120
1,note_on,69,79,0
1,note_on,69,0,120
1,note_on,67,78,0
1,note_on,67,0,120
1,note_on,65,78,0
1,note_on,65,0,120
1,note_on,64,78,0
1,note_on,64,0,120
1,note_on,70,88,0
1,note_on,62,88,0
1,note_on,62,0,120
1,note_on,60,81,0
1,note_on,60,0,120
1,note_on,70,0,0
1,note_on,58,80,0
1,note_on,58,0,120
1,note_on,57,80,0
1,note_on,57,0,120
1,note_on,55,79,0
1,note_on,55,0,120
1,note_on,53,78,0
1,note_on,53,0,120
1,note_on,52,77,0
1,note_on,52,0,120
1,note_on,50,75,0
1,note_on,50,0,120
1,note_on,60,78,0
1,note_on,60,0,120
1,note_on,58,74,0
1,note_on,58,0,120
1,note_on,57,80,0
1,note_on,57,0,120
1,note_on,55,82,0
1,note_on,55,0,120
1,note_on,53,86,0
1,note_on,53,0,120
1,note_on,52,89,0
1,note_on,52,0,120
1,note_on,58,95,0
1,note_on,50,95,0
1,note_on,50,0,120
1,note_on,48,87,0
1,note_on,48,0,120
1,note_on,58,0,0
1,note_on,52,81,0
1,note_on,52,0,120
1,note_on,55,85,0
1,note_on,55,0,120
1,note_on,46,80,0
1,note_on,46,0,240
1,note_on,64,80,240
1,note_on,64,0,80
1,note_on,65,74,0
1,note_on,65,0,80
1,note_on,64,80,0
1,note_on,64,0,80
1,note_on,65,74,0
1,note_on,65,0,80
1,note_on,64,80,0
1,note_on,64,0,80
1,note_on,65,75,0
1,note_on,65,0,80
1,note_on,64,80,0
1,note_on,64,0,80
1,note_on,65,73,0
1,note_on,65,0,80
1,note_on,64,82,0
1,note_on,64,0,80
1,note_on,65,74,0
1,note_on,65,0,60
1,note_on,64,80,0
1,note_on,64,0,60
1,note_on,62,73,0
1,note_on,62,0,60
1,note_on,64,73,0
1,note_on,64,0,60
1,note_on,65,86,0
1,note_on,65,0,480
1,note_on,65,78,240
1,note_on,65,0,120
1,note_on,64,74,0
1,note_on,64,0,120
1,note_on,62,80,0
1,note_on,62,0,120
1,note_on,60,74,0
1,note_on,60,0,120
1,note_on,58,74,0
1,note_on,58,0,120
1,note_on,57,74,0
1,note_on,57,0,120
1,note_on,62,88,0
1,note_on,62,0,480
1,note_on,62,78,240
1,note_on,62,0,120
1,note_on,60,74,0
1,note_on,60,0,120
1,note_on,58,80,0
1,note_on,58,0,120
1,note_on,57,74,0
1,note_on,57,0,120
1,note_on,55,74,0
1,note_on,55,0,120
1,note_on,53,74,0
1,note_on,53,0,120
1,note_on,58,88,0
1,note_on,58,0,480
1,note_on,70,78,240
1,note_on,70,0,120
1,note_on,69,72,0
1,note_on,69,0,120
1,note_on,67,90,0
1,note_on,67,0,120
1,note_on,69,73,0
1,note_on,69,0,120
1,note_on,67,73,0
1,note_on,67,0,120
1,note_on,65,73,0
1,note_on,65,0,120
1,note_on,64,89,0
1,note_on,64,0,120
1,note_on,65,74,0
1,note_on,65,0,120
1,note_on,64,74,0
1,note_on,64,0,120
1,note_on,62,74,0
1,note_on,62,0,120
1,note_on,60,90,0
1,note_on,60,0,120
1,note_on,62,73,0
1,note_on,62,0,120
1,note_on,64,73,0
1,note_on,64,0,120
1,note_on,65,73,0
1,note_on,65,0,120
1,note_on,66,88,0
1,note_on,66,0,120
1,note_on,67,73,0
1,note_on,67,0,120
1,note_on,69,73,0
1,note_on,69,0,120
1,note_on,67,73,0
1,note_on,67,0,120
1,note_on,65,87,0
1,note_on,65,0,120
1,note_on,67,75,0
1,note_on,67,0,120
1,note_on,69,75,0
1,note_on,69,0,120
1,note_on,70,75,0
1,note_on,70,0,120
1,note_on,71,89,0
1,note_on,71,0,120
1,note_on,72,73,0
1,note_on,72,0,120
1,note_on,74,73,0
1,note_on,74,0,120
1,note_on,72,73,0
1,note_on,72,0,120
1,note_on,74,94,0
1,note_on,75,94,0
1,note_on,74,0,120
1,note_on,72,73,0
1,note_on,72,0,120
1,note_on,75,0,0
1,note_on,70,73,0
1,note_on,70,0,120
1,note_on,69,73,0
1,note_on,69,0,120
1,note_on,60,85,0
1,note_on,60,0,80
1,note_on,62,78,0
1,note_on,62,0,80
1,note_on,60,85,0
1,note_on,60,0,80
1,note_on,62,80,0
1,note_on,62,0,80
1,note_on,60,85,0
1,note_on,60,0,80
1,note_on,62,78,0
1,note_on,62,0,80
1,note_on,60,85,0
1,note_on,60,0,80
1,note_on,62,80,0
1,note_on,62,0,80
1,note_on,60,85,0
1,note_on,60,0,80
1,note_on,62,73,0
1,note_on,62,0,80
1,note_on,60,82,0
1,note_on,60,0,80
1,note_on,62,73,0
1,note_on,62,0,80
1,note_on,58,78,0
1,note_on,58,0,480
1,note_on,58,65,240
1,note_on,58,0,120
1,note_on,60,60,0
1,note_on,60,0,120
1,note_on,62,68,0
1,note_on,62,0,120
1,note_on,63,60,0
1,note_on,63,0,120
1,note_on,62,60,0
1,note_on,65,60,0
1,note_on,65,0,120
1,note_on,62,0,0
1,note_on,60,60,0
1,note_on,67,60,0
1,note_on,67,0,120
1,note_on,60,0,0
1,note_on,58,60,0
1,note_on,63,72,0
1,note_on,58,0,120
1,note_on,57,60,0
1,note_on,57,0,120
1,note_on,55,60,0
1,note_on,55,0,120
1,note_on,53,60,0
1,note_on,53,0,120
1,note_on,63,0,0
1,note_on,58,72,0
1,note_on,62,65,240
1,note_on,62,0,120
1,note_on,63,56,0
1,note_on,63,0,120
1,note_on,58,0,0
1,note_on,65,66,0
1,note_on,65,0,120
1,note_on,67,60,0
1,note_on,67,0,120
1,note_on,58,60,0
1,note_on,69,60,0
1,note_on,69,0,120
1,note_on,70,60,0
1,note_on,70,0,120
1,note_on,67,74,0
1,note_on,58,0,120
1,note_on,59,60,0
1,note_on,59,0,120
1,note_on,60,60,0
1,note_on,60,0,120
1,note_on,62,60,0
1,note_on,62,0,120
1,note_on,67,0,0
1,note_on,63,72,0
1,note_on,65,66,240
1,note_on,65,0,120
1,note_on,67,60,0
1,note_on,67,0,120
1,note_on,63,0,0
1,note_on,69,71,0
1,note_on,69,0,120
1,note_on,67,62,0
1,note_on,67,0,120
1,note_on,63,55,0
1,note_on,69,62,0
1,note_on,69,0,120
1,note_on,70,62,0
1,note_on,70,0,120
1,note_on,72,72,0
1,note_on,72,0,120
1,note_on,70,65,0
1,note_on,70,0,120
1,note_on,63,0,0
1,note_on,64,59,0
1,note_on,72,65,0
1,note_on,72,0,120
1,note_on,74,65,0
1,note_on,74,0,120
1,note_on,75,78,0
1,note_on,75,0,120
1,note_on,74,69,0
1,note_on,74,0,120
1,note_on,64,0,0
1,note_on,65,60,0
1,note_on,72,72,0
1,note_on,72,0,120
1,note_on,74,75,0
1,note_on,74,0,120
1,note_on,75,86,0
1,note_on,75,0,120
1,note_on,74,76,0
1,note_on,74,0,120
1,note_on,73,73,0
1,note_on,73,0,120
1,note_on,72,72,0
1,note_on,72,0,120
1,note_on,70,77,0
1,note_on,70,0,120
1,note_on,69,64,0
1,note_on,69,0,120
1,note_on,65,0,0
1,note_on,63,54,0
1,note_on,67,63,0
1,note_on,67,0,120
1,note_on,69,64,0
1,note_on,69,0,120
1,note_on,63,0,0
1,note_on,62,63,0
1,note_on,70,74,0
1,note_on,70,0,120
1,note_on,69,63,0
1,note_on,69,0,120
1,note_on,67,62,0
1,note_on,67,0,120
1,note_on,65,62,0
1,note_on,62,0,120
1,note_on,60,65,0
1,note_on,65,0,120
1,note_on,78,68,0
1,note_on,78,0,120
1,note_on,60,0,0
1,note_on,79,74,0
1,note_on,79,0,120
1,note_on,77,69,0
1,note_on,77,0,120
1,note_on,75,71,0
1,note_on,75,0,120
1,note_on,74,64,0
1,note_on,74,0,120
1,note_on,72,67,0
1,note_on,72,0,120
1,note_on,70,69,0
1,note_on,70,0,120
1,note_on,69,74,0
1,note_on,69,0,120
1,note_on,70,65,0
1,note_on,70,0,120
1,note_on,69,67,0
1,note_on,69,0,120
1,note_on,67,68,0
1,note_on,67,0,120
1,note_on,65,81,0
1,note_on,65,0,120
1,note_on,67,71,0
1,note_on,67,0,120
1,note_on,69,71,0
1,note_on,69,0,120
1,note_on,70,71,0
1,note_on,70,0,120
1,note_on,72,80,0
1,note_on,72,0,120
1,note_on,73,70,0
1,note_on,73,0,120
1,note_on,74,70,0
1,note_on,74,0,120
1,note_on,72,70,0
1,note_on,72,0,120
1,note_on,70,65,0
1,note_on,74,81,0
1,note_on,74,0,120
1,note_on,76,70,0
1,note_on,76,0,120
1,note_on,70,0,0
1,note_on,77,70,0
1,note_on,77,0,120
1,note_on,79,81,0
1,note_on,79,0,240
1,note_on,72,70,0
1,note_on,72,0,120
1,note_on,74,71,0
1,note_on,74,0,120
1,note_on,76,72,0
1,note_on,76,0,120
1,note_on,77,73,0
1,note_on,77,0,120
1,note_on,79,74,0
1,note_on,79,0,120
1,note_on,81,75,0
1,note_on,81,0,120
1,note_on,82,76,0
1,note_on,82,0,120
1,note_on,84,77,0
1,note_on,84,0,120
1,note_on,81,68,0
1,note_on,81,0,120
1,note_on,79,73,0
1,note_on,79,0,120
1,note_on,77,72,0
1,note_on,77,0,120
1,note_on,75,81,0
1,note_on,75,0,120
1,note_on,74,71,0
1,note_on,74,0,120
1,note_on,76,71,0
1,note_on,76,0,120
1,note_on,78,71,0
1,note_on,78,0,120
1,note_on,79,79,0
1,note_on,79,0,120
1,note_on,81,72,0
1,note_on,81,0,120
1,note_on,82,81,0
1,note_on,82,0,120
1,note_on,84,71,0
1,note_on,84,0,120
1,note_on,86,85,0
1,note_on,86,0,120
1,note_on,82,76,0
1,note_on,82,0,120
1,note_on,81,76,0
1,note_on,81,0,120
1,note_on,79,76,0
1,note_on,79,0,120
1,note_on,77,82,0
1,note_on,77,0,120
1,note_on,75,73,0
1,note_on,75,0,120
1,note_on,77,76,0
1,note_on,77,0,120
1,note_on,79,79,0
1,note_on,79,0,120
1,note_on,81,82,0
1,note_on,81,0,120
1,note_on,82,84,0
1,note_on,82,0,120
1,note_on,84,87,0
1,note_on,84,0,120
1,note_on,86,90,0
1,note_on,86,0,120
1,note_on,87,93,0
1,note_on,87,0,240
1,note_on,69,69,240
1,note_on,72,74,0
1,note_on,72,0,80
1,note_on,74,70,0
1,note_on,74,0,80
1,note_on,72,74,0
1,note_on,72,0,80
1,note_on,74,70,0
1,note_on,74,0,80
1,note_on,72,74,0
1,note_on,72,0,80
1,note_on,74,70,0
1,note_on,74,0,80
1,note_on,69,0,0
1,note_on,63,69,0
1,note_on,72,74,0
1,note_on,72,0,80
1,note_on,74,69,0
1,note_on,74,0,80
1,note_on,72,74,0
1,note_on,72,0,80
1,note_on,74,70,0
1,note_on,74,0,60
1,note_on,72,74,0
1,note_on,72,0,60
1,note_on,70,68,0
1,note_on,70,0,60
1,note_on,72,68,0
1,note_on,72,0,60
1,note_on,63,0,0
1,note_on,62,69,0
1,note_on,70,81,0
1,note_on,62,0,240
1,note_on,61,69,0
1,note_on,61,0,240
1,note_on,70,0,0
1,note_on,67,69,0
1,note_on,70,74,0
1,note_on,70,0,80
1,note_on,72,70,0
1,note_on,72,0,80
1,note_on,70,74,0
1,note_on,70,0,80
1,note_on,72,70,0
1,note_on,72,0,80
1,note_on,70,74,0
1,note_on,70,0,80
1,note_on,72,70,0
1,note_on,72,0,80
1,note_on,67,0,0
1,note_on,61,69,0
1,note_on,70,74,0
1,note_on,70,0,80
1,note_on,72,69,0
1,note_on,72,0,80
1,note_on,70,74,0
1,note_on,70,0,80
1,note_on,72,70,0
1,note_on,72,0,60
1,note_on,70,74,0
1,note_on,70,0,60
1,note_on,69,68,0
1,note_on,69,0,60
1,note_on,70,68,0
1,note_on,70,0,60
1,note_on,61,0,0
1,note_on,60,69,0
1,note_on,69,81,0
1,note_on,69,0,240
1,note_on,60,0,0
1,note_on,68,67,0
1,note_on,59,62,0
1,note_on,59,0,240
1,note_on,68,0,0
1,note_on,65,69,0
1,note_on,68,74,0
1,note_on,68,0,80
1,note_on,70,70,0
1,note_on,70,0,80
1,note_on,68,74,0
1,note_on,68,0,80
1,note_on,70,70,0
1,note_on,70,0,80
1,note_on,68,74,0
1,note_on,68,0,80
1,note_on,70,70,0
1,note_on,70,0,80
1,note_on,65,0,0
1,note_on,59,69,0
1,note_on,68,74,0
1,note_on,68,0,80
1,note_on,70,69,0
1,note_on,70,0,80
1,note_on,68,74,0
1,note_on,68,0,80
1,note_on,70,70,0
1,note_on,70,0,60
1,note_on,68,74,0
1,note_on,68,0,60
1,note_on,67,68,0
1,note_on,67,0,60
1,note_on,68,68,0
1,note_on,68,0,60
1,note_on,59,0,0
1,note_on,58,69,0
1,note_on,67,81,0
1,note_on,58,0,240
1,note_on,64,62,0
1,note_on,64,0,240
1,note_on,67,0,0
1,note_on,67,62,720
1,note_on,67,0,240
1,note_on,64,69,0
1,note_on,64,0,240
1,note_on,65,61,0
1,note_on,65,0,240
1,note_on,69,62,720
1,note_on,69,0,240
1,note_on,66,69,0
1,note_on,66,0,240
1,note_on,67,61,0
1,note_on,67,0,240
1,note_on,70,62,720
1,note_on,70,0,240
1,note_on,67,69,0
1,note_on,67,0,240
1,note_on,69,61,0
1,note_on,69,0,240
1,note_on,69,55,0
1,note_on,72,61,0
1,note_on,69,0,120
1,note_on,65,49,0
1,note_on,65,0,120
1,note_on,72,0,0
1,note_on,67,55,0
1,note_on,77,66,0
1,note_on,67,0,120
1,note_on,69,50,0
1,note_on,69,0,120
1,note_on,70,55,0
1,note_on,70,0,120
1,note_on,69,48,0
1,note_on,69,0,120
1,note_on,77,0,0
1,note_on,70,55,0
1,note_on,74,61,0
1,note_on,70,0,120
1,note_on,65,43,0
1,note_on,65,0,120
1,note_on,74,0,0
1,note_on,67,55,0
1,note_on,72,61,0
1,note_on,67,0,120
1,note_on,66,48,0
1,note_on,66,0,120
1,note_on,72,0,0
1,note_on,67,55,0
1,note_on,70,57,0
1,note_on,67,0,120
1,note_on,60,49,0
1,note_on,70,0,120
1,note_on,69,61,0
1,note_on,60,0,120
1,note_on,69,0,120
1,note_on,68,58,0
1,note_on,68,0,240
1,note_on,67,49,0
1,note_on,79,73,0
1,note_on,67,0,120
1,note_on,69,59,0
1,note_on,69,0,120
1,note_on,71,57,0
1,note_on,71,0,120
1,note_on,72,55,0
1,note_on,72,0,120
1,note_on,73,53,0
1,note_on,73,0,120
1,note_on,74,51,0
1,note_on,74,0,120
1,note_on,79,0,0
1,note_on,75,59,0
1,note_on,77,59,0
1,note_on,75,0,120
1,note_on,74,41,0
1,note_on,74,0,120
1,note_on,77,0,0
1,note_on,77,52,0
1,note_on,77,0,240
1,note_on,75,47,0
1,note_on,75,0,240
1,note_on,66,45,0
1,note_on,74,52,0
1,note_on,66,0,120
1,note_on,67,41,0
1,note_on,67,0,120
1,note_on,74,0,0
1,note_on,68,45,0
1,note_on,72,47,0
1,note_on,68,0,120
1,note_on,67,41,0
1,note_on,67,0,120
1,note_on,72,0,0
1,note_on,71,52,0
1,note_on,71,0,240
1,note_on,72,46,0
1,note_on,72,0,240
1,note_on,69,57,0
1,note_on,77,57,0
1,note_on,69,0,120
1,note_on,70,50,0
1,note_on,70,0,120
1,note_on,77,0,0
1,note_on,69,55,0
1,note_on,69,0,120
1,note_on,67,49,0
1,note_on,67,0,120
1,note_on,65,58,0
1,note_on,75,68,0
1,note_on,65,0,120
1,note_on,67,55,0
1,note_on,67,0,120
1,note_on,69,54,0
1,note_on,69,0,120
1,note_on,70,52,0
1,note_on,70,0,120
1,note_on,71,50,0
1,note_on,71,0,120
1,note_on,72,49,0
1,note_on,72,0,120
1,note_on,75,0,0
1,note_on,74,59,0
1,note_on,75,59,0
1,note_on,74,0,120
1,note_on,72,41,0
1,note_on,72,0,120
1,note_on,75,0,0
1,note_on,75,52,0
1,note_on,75,0,240
1,note_on,74,47,0
1,note_on,74,0,240
1,note_on,64,45,0
1,note_on,72,52,0
1,note_on,64,0,120
1,note_on,65,41,0
1,note_on,65,0,120
1,note_on,72,0,0
1,note_on,67,45,0
1,note_on,70,47,0
1,note_on,67,0,120
1,note_on,65,41,0
1,note_on,65,0,120
1,note_on,70,0,0
1,note_on,69,52,0
1,note_on,69,0,240
1,note_on,70,46,0
1,note_on,70,0,240
1,note_on,59,64,0
1,note_on,59,0,120
1,note_on,60,57,0
1,note_on,60,0,120
1,note_on,59,57,0
1,note_on,59,0,120
1,note_on,57,57,0
1,note_on,57,0,120
1,note_on,55,65,0
1,note_on,55,0,120
1,note_on,57,58,0
1,note_on,57,0,120
1,note_on,59,59,0
1,note_on,59,0,120
1,note_on,60,59,0
1,note_on,60,0,120
1,note_on,61,65,0
1,note_on,61,0,120
1,note_on,62,58,0
1,note_on,62,0,120
1,note_on,63,58,0
1,note_on,63,0,120
1,note_on,62,58,0
1,note_on,62,0,120
1,note_on,72,57,0
1,note_on,60,64,0
1,note_on,60,0,120
1,note_on,62,57,0
1,note_on,62,0,120
1,note_on,72,0,0
1,note_on,64,57,0
1,note_on,64,0,120
1,note_on,65,57,0
1,note_on,65,0,120
1,note_on,70,68,0
1,note_on,66,64,0
1,note_on,66,0,120
1,note_on,67,57,0
1,note_on,67,0,120
1,note_on,68,57,0
1,note_on,68,0,120
1,note_on,67,57,0
1,note_on,67,0,120
1,note_on,65,63,0
1,note_on,65,0,120
1,note_on,64,56,0
1,note_on,64,0,120
1,note_on,70,0,0
1,note_on,70,59,0
1,note_on,61,56,0
1,note_on,61,0,120
1,note_on,60,56,0
1,note_on,60,0,120
1,note_on,70,0,0
1,note_on,69,64,0
1,note_on,69,0,120
1,note_on,70,57,0
1,note_on,70,0,120
1,note_on,69,57,0
1,note_on,69,0,120
1,note_on,67,57,0
1,note_on,67,0,120
1,note_on,65,65,0
1,note_on,65,0,120
1,note_on,67,58,0
1,note_on,67,0,120
1,note_on,69,59,0
1,note_on,69,0,120
1,note_on,70,59,0
1,note_on,70,0,120
1,note_on,71,65,0
1,note_on,71,0,120
1,note_on,72,58,0
1,note_on,72,0,120
1,note_on,74,58,0
1,note_on,74,0,120
1,note_on,72,58,0
1,note_on,72,0,120
1,note_on,70,64,0
1,note_on,70,0,120
1,note_on,72,57,0
1,note_on,72,0,120
1,note_on,74,57,0
1,note_on,74,0,120
1,note_on,75,57,0
1,note_on,75,0,120
1,note_on,76,64,0
1,note_on,76,0,120
1,note_on,77,57,0
1,note_on,77,0,120
1,note_on,79,57,0
1,note_on,79,0,120
1,note_on,77,57,0
1,note_on,77,0,120
1,note_on,67,66,0
1,note_on,71,63,0
1,note_on,71,0,120
1,note_on,74,56,0
1,note_on,74,0,120
1,note_on,67,0,0
1,note_on,65,56,0
1,note_on,75,56,0
1,note_on,75,0,120
1,note_on,77,56,0
1,note_on,65,0,60
1,note_on,77,0,60
1,note_on,65,68,0
1,note_on,71,64,0
1,note_on,71,0,120
1,note_on,72,57,0
1,note_on,72,0,120
1,note_on,65,0,0
1,note_on,63,62,0
1,note_on,74,57,0
1,note_on,74,0,120
1,note_on,72,57,0
1,note_on,63,0,60
1,note_on,72,0,60
1,note_on,62,66,0
1,note_on,74,64,0
1,note_on,74,0,120
1,note_on,75,57,0
1,note_on,75,0,120
1,note_on,62,0,0
1,note_on,60,61,0
1,note_on,77,57,0
1,note_on,77,0,120
1,note_on,75,57,0
1,note_on,60,0,60
1,note_on,75,0,60
1,note_on,69,63,0
1,note_on,69,0,120
1,note_on,72,56,0
1,note_on,72,0,120
1,note_on,74,56,0
1,note_on,74,0,120
1,note_on,75,56,0
1,note_on,75,0,120
1,note_on,76,64,0
1,note_on,76,0,120
1,note_on,77,57,0
1,note_on,77,0,120
1,note_on,79,57,0
1,note_on,79,0,120
1,note_on,77,57,0
1,note_on,77,0,120
1,note_on,81,64,0
1,note_on,81,0,120
1,note_on,82,57,0
1,note_on,82,0,120
1,note_on,84,57,0
1,note_on,84,0,120
1,note_on,82,57,0
1,note_on,82,0,120
1,note_on,75,66,0
1,note_on,78,63,0
1,note_on,78,0,120
1,note_on,79,56,0
1,note_on,79,0,120
1,note_on,75,0,0
1,note_on,74,56,0
1,note_on,81,56,0
1,note_on,81,0,120
1,note_on,79,56,0
1,note_on,74,0,60
1,note_on,79,0,60
1,note_on,74,68,0
1,note_on,80,64,0
1,note_on,80,0,120
1,note_on,81,57,0
1,note_on,81,0,120
1,note_on,74,0,0
1,note_on,72,62,0
1,note_on,82,57,0
1,note_on,82,0,120
1,note_on,81,57,0
1,note_on,72,0,60
1,note_on,81,0,60
1,note_on,70,66,0
1,note_on,83,64,0
1,note_on,83,0,120
1,note_on,84,57,0
1,note_on,84,0,120
1,note_on,70,0,0
1,note_on,69,61,0
1,note_on,86,57,0
1,note_on,86,0,120
1,note_on,84,57,0
1,note_on,69,0,60
1,note_on,84,0,60
1,note_on,74,66,0
1,note_on,76,63,0
1,note_on,76,0,120
1,note_on,78,56,0
1,note_on,78,0,120
1,note_on,74,0,0
1,note_on,72,56,0
1,note_on,79,56,0
1,note_on,79,0,120
1,note_on,78,56,0
1,note_on,72,0,60
1,note_on,78,0,60
1,note_on,72,68,0
1,note_on,79,64,0
1,note_on,79,0,120
1,note_on,80,57,0
1,note_on,80,0,120
1,note_on,72,0,0
1,note_on,70,62,0
1,note_on,81,57,0
1,note_on,81,0,120
1,note_on,79,57,0
1,note_on,70,0,60
1,note_on,79,0,60
1,note_on,74,66,0
1,note_on,82,64,0
1,note_on,82,0,120
1,note_on,83,57,0
1,note_on,83,0,120
1,note_on,74,0,0
1,note_on,75,61,0
1,note_on,84,57,0
1,note_on,84,0,120
1,note_on,82,57,0
1,note_on,75,0,60
1,note_on,82,0,60
1,note_on,74,66,0
1,note_on,80,63,0
1,note_on,80,0,120
1,note_on,81,56,0
1,note_on,81,0,120
1,note_on,74,0,0
1,note_on,72,56,0
1,note_on,82,56,0
1,note_on,82,0,120
1,note_on,81,56,0
1,note_on,72,0,60
1,note_on,81,0,60
1,note_on,76,68,0
1,note_on,85,64,0
1,note_on,85,0,120
1,note_on,86,57,0
1,note_on,86,0,120
1,note_on,76,0,0
1,note_on,77,62,0
1,note_on,87,57,0
1,note_on,87,0,120
1,note_on,86,57,0
1,note_on,77,0,60
1,note_on,86,0,60
1,note_on,75,66,0
1,note_on,83,64,0
1,note_on,83,0,120
1,note_on,84,57,0
1,note_on,84,0,120
1,note_on,75,0,0
1,note_on,74,61,0
1,note_on,86,57,0
1,note_on,86,0,120
1,note_on,82,57,0
1,note_on,74,0,60
1,note_on,82,0,60
1,note_on,73,70,0
1,note_on,73,0,120
1,note_on,74,65,0
1,note_on,74,0,120
1,note_on,72,71,0
1,note_on,70,67,120
1,note_on,72,0,24
1,note_on,70,0,96
1,note_on,68,64,0
1,note_on,71,83,0
1,note_on,68,0,120
1,note_on,62,61,0
1,note_on,62,0,120
1,note_on,71,0,0
1,note_on,67,64,0
1,note_on,72,76,0
1,note_on,64,61,120
1,note_on,72,0,24
1,note_on,67,0,0
1,note_on,64,0,96
1,note_on,62,64,0
1,note_on,70,82,0
1,note_on,62,0,120
1,note_on,64,62,0
1,note_on,64,0,120
1,note_on,70,0,0
1,note_on,61,64,0
1,note_on,69,76,0
1,note_on,64,61,120
1,note_on,69,0,24
1,note_on,61,0,0
1,note_on,64,0,96
1,note_on,70,64,0
1,note_on,73,83,0
1,note_on,70,0,120
1,note_on,64,61,0
1,note_on,64,0,120
1,note_on,73,0,0
1,note_on,69,64,0
1,note_on,74,76,0
1,note_on,66,64,120
1,note_on,74,0,24
1,note_on,69,0,0
1,note_on,66,0,96
1,note_on,63,64,0
1,note_on,72,83,0
1,note_on,63,0,120
1,note_on,66,61,0
1,note_on,66,0,120
1,note_on,72,0,0
1,note_on,62,64,0
1,note_on,70,76,0
1,note_on,67,62,120
1,note_on,70,0,24
1,note_on,62,0,0
1,note_on,67,0,96
1,note_on,70,64,0
1,note_on,75,83,0
1,note_on,70,0,120
1,note_on,69,63,0
1,note_on,69,0,120
1,note_on,75,0,0
1,note_on,70,64,0
1,note_on,76,76,0
1,note_on,67,62,120
1,note_on,76,0,24
1,note_on,70,0,0
1,note_on,67,0,96
1,note_on,73,64,0
1,note_on,78,82,0
1,note_on,73,0,120
1,note_on,72,63,0
1,note_on,72,0,120
1,note_on,78,0,0
1,note_on,73,64,0
1,note_on,79,76,0
1,note_on,70,62,120
1,note_on,79,0,24
1,note_on,73,0,0
1,note_on,70,0,96
1,note_on,64,78,0
1,note_on,67,78,0
1,note_on,70,92,0
1,note_on,70,0,240
1,note_on,67,0,0
1,note_on,64,0,0
1,note_on,85,74,240
1,note_on,82,74,0
1,note_on,88,88,0
1,note_on,88,0,80
1,note_on,89,80,0
1,note_on,89,0,80
1,note_on,88,88,0
1,note_on,88,0,80
1,note_on,89,79,0
1,note_on,89,0,80
1,note_on,88,89,0
1,note_on,88,0,80
1,note_on,89,82,0
1,note_on,89,0,80
1,note_on,88,90,0
1,note_on,88,0,80
1,note_on,89,82,0
1,note_on,89,0,80
1,note_on,88,91,0
1,note_on,88,0,80
1,note_on,89,81,0
1,note_on,89,0,60
1,note_on,88,88,0
1,note_on,88,0,60
1,note_on,86,84,0
1,note_on,86,0,60
1,note_on,88,89,0
1,note_on,88,0,60
1,note_on,82,0,0
1,note_on,85,0,0
1,note_on,91,98,0
1,note_on,58,92,240
1,note_on,58,0,60
1,note_on,91,0,180
1,note_on,76,88,0
1,note_on,76,0,80
1,note_on,77,80,0
1,note_on,77,0,80
1,note_on,76,88,0
1,note_on,76,0,80
1,note_on,77,79,0
1,note_on,91,88,0
1,note_on,77,0,80
1,note_on,76,89,0
1,note_on,91,0,40
1,note_on,89,79,0
1,note_on,76,0,40
1,note_on,77,82,0
1,note_on,77,0,80
1,note_on,89,0,0
1,note_on,76,90,0
1,note_on,88,88,0
1,note_on,76,0,80
1,note_on,77,82,0
1,note_on,88,0,40
1,note_on,85,79,0
1,note_on,77,0,40
1,note_on,76,91,0
1,note_on,76,0,80
1,note_on,85,0,0
1,note_on,84,88,0
1,note_on,77,81,0
1,note_on,77,0,60
1,note_on,76,88,0
1,note_on,76,0,60
1,note_on,84,0,0
1,note_on,82,79,0
1,note_on,74,84,0
1,note_on,74,0,60
1,note_on,76,89,0
1,note_on,76,0,60
1,note_on,82,0,0
1,note_on,77,98,0
1,note_on,81,92,240
1,note_on,81,0,60
1,note_on,77,0,180
1,note_on,93,98,0
1,note_on,93,0,240
1,note_on,77,86,0
1,note_on,77,0,120
1,note_on,76,85,0
1,note_on,76,0,120
1,note_on,74,83,0
1,note_on,74,0,120
1,note_on,72,82,0
1,note_on,72,0,120
1,note_on,70,81,0
1,note_on,70,0,120
1,note_on,69,80,0
1,note_on,69,0,120
1,note_on,74,98,0
1,note_on,77,92,240
1,note_on,77,0,60
1,note_on,74,0,180
1,note_on,89,98,0
1,note_on,89,0,240
1,note_on,74,86,0
1,note_on,74,0,120
1,note_on,72,85,0
1,note_on,72,0,120
1,note_on,70,83,0
1,note_on,70,0,120
1,note_on,69,82,0
1,note_on,69,0,120
1,note_on,67,81,0
1,note_on,67,0,120
1,note_on,65,80,0
1,note_on,65,0,120
1,note_on,70,98,0
1,note_on,74,85,240
1,note_on,74,0,240
1,note_on,70,0,0
1,note_on,86,97,0
1,note_on,86,0,240
1,note_on,84,95,0
1,note_on,84,0,240
1,note_on,82,92,0
1,note_on,82,0,240
1,note_on,83,90,0
1,note_on,83,0,240
1,note_on,84,90,0
1,note_on,84,0,240
1,note_on,82,94,240
1,note_on,82,0,720
1,note_on,82,87,0
1,note_on,82,0,240
1,note_on,77,74,0
1,note_on,79,68,120
1,note_on,77,0,24
1,note_on,81,68,96
1,note_on,79,0,24
1,note_on,82,68,96
1,note_on,81,0,24
1,note_on,83,72,96
1,note_on,82,0,24
1,note_on,84,64,96
1,note_on,83,0,24
1,note_on,86,69,96
1,note_on,84,0,24
1,note_on,84,64,96
1,note_on,86,0,24
1,note_on,82,72,96
1,note_on,84,0,24
1,note_on,81,64,96
1,note_on,82,0,24
1,note_on,79,71,96
1,note_on,81,0,24
1,note_on,77,66,96
1,note_on,79,0,24
1,note_on,77,0,96
1,note_on,86,90,0
1,note_on,86,0,240
1,note_on,84,94,240
1,note_on,84,0,720
1,note_on,84,87,0
1,note_on,84,0,240
1,note_on,79,74,0
1,note_on,81,68,120
1,note_on,79,0,24
1,note_on,82,68,96
1,note_on,81,0,24
1,note_on,84,68,96
1,note_on,82,0,24
1,note_on,85,72,96
1,note_on,84,0,24
1,note_on,86,64,96
1,note_on,85,0,24
1,note_on,87,69,96
1,note_on,86,0,24
1,note_on,86,64,96
1,note_on,87,0,24
1,note_on,84,72,96
1,note_on,86,0,24
1,note_on,82,64,96
1,note_on,84,0,24
1,note_on,81,71,96
1,note_on,82,0,24
1,note_on,79,66,96
1,note_on,81,0,24
1,note_on,79,0,96
1,note_on,89,90,0
1,note_on,89,0,240
1,note_on,87,94,240
1,note_on,87,0,720
1,note_on,87,87,0
1,note_on,87,0,240
1,note_on,82,74,0
1,note_on,84,68,120
1,note_on,82,0,24
1,note_on,86,68,96
1,note_on,84,0,24
1,note_on,87,68,96
1,note_on,86,0,24
1,note_on,88,72,96
1,note_on,87,0,24
1,note_on,89,65,96
1,note_on,88,0,24
1,note_on,91,70,96
1,note_on,89,0,24
1,note_on,89,65,96
1,note_on,91,0,24
1,note_on,88,74,96
1,note_on,89,0,24
1,note_on,89,65,96
1,note_on,88,0,24
1,note_on,90,73,96
1,note_on,89,0,24
1,note_on,89,68,96
1,note_on,90,0,24
1,note_on,89,0,96
1,note_on,86,75,0
1,note_on,87,70,120
1,note_on,86,0,24
1,note_on,89,70,96
1,note_on,87,0,24
1,note_on,87,71,96
1,note_on,89,0,24
1,note_on,87,0,96
1,note_on,84,76,0
1,note_on,85,71,120
1,note_on,84,0,24
1,note_on,87,71,96
1,note_on,85,0,24
1,note_on,85,71,96
1,note_on,87,0,24
1,note_on,85,0,96
1,note_on,83,77,0
1,note_on,84,72,120
1,note_on,83,0,24
1,note_on,85,73,96
1,note_on,84,0,24
1,note_on,84,73,96
1,note_on,85,0,24
1,note_on,84,0,96
1,note_on,75,89,0
1,note_on,75,0,120
1,note_on,90,95,120
1,note_on,90,0,240
1,note_on,66,66,0
1,note_on,72,66,0
1,note_on,77,72,0
1,note_on,77,0,120
1,note_on,75,65,0
1,note_on,75,0,120
1,note_on,77,72,0
1,note_on,77,0,120
1,note_on,75,67,0
1,note_on,75,0,120
1,note_on,77,72,0
1,note_on,77,0,120
1,note_on,75,67,0
1,note_on,75,0,120
1,note_on,74,72,0
1,note_on,74,0,120
1,note_on,75,66,0
1,note_on,75,0,120
1,note_on,72,0,0
1,note_on,74,74,0
1,note_on,66,0,240
1,note_on,58,73,0
1,note_on,65,73,0
1,note_on,65,0,240
1,note_on,58,0,0
1,note_on,74,0,0
1,note_on,70,75,0
1,note_on,70,0,240
1,note_on,74,69,0
1,note_on,74,0,120
1,note_on,75,61,0
1,note_on,75,0,120
1,note_on,77,66,0
1,note_on,77,0,120
1,note_on,79,67,0
1,note_on,79,0,120
1,note_on,81,68,0
1,note_on,81,0,120
1,note_on,82,69,0
1,note_on,82,0,120
1,note_on,77,78,0
1,note_on,62,73,240
1,note_on,62,0,240
1,note_on,77,0,0
1,note_on,74,75,0
1,note_on,74,0,240
1,note_on,77,69,0
1,note_on,77,0,120
1,note_on,79,61,0
1,note_on,79,0,120
1,note_on,81,66,0
1,note_on,81,0,120
1,note_on,82,67,0
1,note_on,82,0,120
1,note_on,84,68,0
1,note_on,84,0,120
1,note_on,86,69,0
1,note_on,86,0,120
1,note_on,79,78,0
1,note_on,63,73,240
1,note_on,63,0,240
1,note_on,79,0,0
1,note_on,75,75,0
1,note_on,75,0,240
1,note_on,79,69,0
1,note_on,79,0,120
1,note_on,81,61,0
1,note_on,81,0,120
1,note_on,82,66,0
1,note_on,82,0,120
1,note_on,83,67,0
1,note_on,83,0,120
1,note_on,84,68,0
1,note_on,84,0,120
1,note_on,86,69,0
1,note_on,86,0,120
1,note_on,87,78,0
1,note_on,87,0,240
1,note_on,88,83,0
1,note_on,88,0,360
1,note_on,89,73,0
1,note_on,89,0,120
1,note_on,87,81,0
1,note_on,87,0,120
1,note_on,86,78,0
1,note_on,86,0,120
1,note_on,84,79,0
1,note_on,84,0,120
1,note_on,82,75,0
1,note_on,82,0,120
1,note_on,81,75,0
1,note_on,81,0,120
1,note_on,79,75,0
1,note_on,79,0,120
1,note_on,77,80,0
1,note_on,77,0,120
1,note_on,79,70,0
1,note_on,79,0,120
1,note_on,77,76,0
1,note_on,77,0,120
1,note_on,75,68,0
1,note_on,75,0,120
1,note_on,74,74,0
1,note_on,74,0,120
1,note_on,75,68,0
1,note_on,75,0,120
1,note_on,77,73,0
1,note_on,77,0,120
1,note_on,76,66,0
1,note_on,76,0,120
1,note_on,77,78,0
1,note_on,77,0,240
1,note_on,59,78,720
1,note_on,59,0,240
1,note_on,75,64,240
1,note_on,75,0,80
1,note_on,77,59,0
1,note_on,77,0,80
1,note_on,75,64,0
1,note_on,75,0,80
1,note_on,77,59,0
1,note_on,77,0,80
1,note_on,75,64,0
1,note_on,75,0,80
1,note_on,77,58,0
1,note_on,77,0,80
1,note_on,75,64,0
1,note_on,75,0,80
1,note_on,77,59,0
1,note_on,77,0,80
1,note_on,75,64,0
1,note_on,75,0,80
1,note_on,77,58,0
1,note_on,77,0,60
1,note_on,75,61,0
1,note_on,75,0,60
1,note_on,74,58,0
1,note_on,74,0,60
1,note_on,75,58,0
1,note_on,75,0,60
1,note_on,79,64,0
1,note_on,79,0,480
1,note_on,79,73,240
1,note_on,79,0,120
1,note_on,77,74,0
1,note_on,77,0,120
1,note_on,75,72,0
1,note_on,75,0,120
1,note_on,74,69,0
1,note_on,74,0,120
1,note_on,72,67,0
1,note_on,72,0,120
1,note_on,71,64,0
1,note_on,71,0,120
1,note_on,72,73,0
1,note_on,72,0,480
1,note_on,67,73,0
1,note_on,72,73,240
1,note_on,72,0,120
1,note_on,70,70,0
1,note_on,70,0,120
1,note_on,67,0,0
1,note_on,60,73,0
1,note_on,69,72,0
1,note_on,69,0,120
1,note_on,67,69,0
1,note_on,67,0,120
1,note_on,65,67,0
1,note_on,65,0,120
1,note_on,64,64,0
1,note_on,64,0,120
1,note_on,60,0,0
1,note_on,62,64,0
1,note_on,62,0,120
1,note_on,60,61,0
1,note_on,60,0,120
1,note_on,58,59,0
1,note_on,58,0,120
1,note_on,57,58,0
1,note_on,57,0,120
1,note_on,69,73,0
1,note_on,69,0,240
1,note_on,62,68,0
1,note_on,62,0,120
1,note_on,60,64,0
1,note_on,60,0,120
1,note_on,58,68,0
1,note_on,58,0,120
1,note_on,57,65,0
1,note_on,57,0,120
1,note_on,55,63,0
1,note_on,55,0,120
1,note_on,53,60,0
1,note_on,53,0,120
1,note_on,52,64,0
1,note_on,52,0,120
1,note_on,50,64,0
1,note_on,50,0,120
1,note_on,48,62,0
1,note_on,48,0,120
1,note_on,46,61,0
1,note_on,46,0,120
1,note_on,75,76,240
1,note_on,75,0,120
1,note_on,74,71,0
1,note_on,74,0,120
1,note_on,72,77,0
1,note_on,72,0,120
1,note_on,70,74,0
1,note_on,70,0,120
1,note_on,69,71,0
1,note_on,69,0,120
1,note_on,67,68,0
1,note_on,67,0,120
1,note_on,65,74,0
1,note_on,65,0,120
1,note_on,63,73,0
1,note_on,63,0,120
1,note_on,62,71,0
1,note_on,62,0,120
1,note_on,60,69,0
1,note_on,60,0,120
1,note_on,72,77,0
1,note_on,72,0,240
1,note_on,60,74,0
1,note_on,60,0,120
1,note_on,58,70,0
1,note_on,58,0,120
1,note_on,57,76,0
1,note_on,57,0,120
1,note_on,55,72,0
1,note_on,55,0,120
1,note_on,53,70,0
1,note_on,53,0,120
1,note_on,51,68,0
1,note_on,51,0,120
1,note_on,50,72,0
1,note_on,50,0,120
1,note_on,60,79,0
1,note_on,60,0,120
1,note_on,58,69,0
1,note_on,58,0,120
1,note_on,57,66,0
1,note_on,57,0,120
1,note_on,62,61,0
1,note_on,74,76,0
1,note_on,74,0,120
1,note_on,72,72,0
1,note_on,72,0,120
1,note_on,62,0,0
1,note_on,77,76,0
1,note_on,77,0,120
1,note_on,75,71,0
1,note_on,75,0,120
1,note_on,74,79,0
1,note_on,74,0,120
1,note_on,72,76,0
1,note_on,72,0,120
1,note_on,70,74,0
1,note_on,70,0,120
1,note_on,69,71,0
1,note_on,69,0,120
1,note_on,79,78,0
1,note_on,79,0,120
1,note_on,77,76,0
1,note_on,77,0,120
1,note_on,75,73,0
1,note_on,75,0,120
1,note_on,74,71,0
1,note_on,74,0,120
1,note_on,74,61,0
1,note_on,82,81,0
1,note_on,82,0,120
1,note_on,81,78,0
1,note_on,81,0,120
1,note_on,79,75,0
1,note_on,79,0,120
1,note_on,77,72,0
1,note_on,77,0,120
1,note_on,74,0,0
1,note_on,67,86,0
1,note_on,75,86,0
1,note_on,75,0,240
1,note_on,67,0,0
1,note_on,72,86,0
1,note_on,72,0,240
1,note_on,93,86,0
1,note_on,93,0,80
1,note_on,94,82,0
1,note_on,94,0,80
1,note_on,93,86,0
1,note_on,93,0,80
1,note_on,84,86,0
1,note_on,94,81,0
1,note_on,94,0,80
1,note_on,93,86,0
1,note_on,93,0,80
1,note_on,94,81,0
1,note_on,94,0,80
1,note_on,84,0,0
1,note_on,93,86,0
1,note_on,93,0,80
1,note_on,94,80,0
1,note_on,94,0,80
1,note_on,93,86,0
1,note_on,93,0,80
1,note_on,94,86,0
1,note_on,89,82,0
1,note_on,94,0,60
1,note_on,93,81,0
1,note_on,93,0,60
1,note_on,91,80,0
1,note_on,91,0,60
1,note_on,93,80,0
1,note_on,93,0,60
1,note_on,89,0,0
1,note_on,94,90,0
1,note_on,86,88,240
1,note_on,86,0,240
1,note_on,94,0,0
1,note_on,94,88,240
1,note_on,94,0,120
1,note_on,93,86,0
1,note_on,93,0,120
1,note_on,91,83,0
1,note_on,91,0,120
1,note_on,89,81,0
1,note_on,89,0,120
1,note_on,87,78,0
1,note_on,87,0,120
1,note_on,86,76,0
1,note_on,86,0,120
1,note_on,63,77,0
1,note_on,91,88,0
1,note_on,91,0,240
1,note_on,63,0,0
1,note_on,79,81,0
1,note_on,79,0,240
1,note_on,79,69,0
1,note_on,79,0,80
1,note_on,81,64,0
1,note_on,81,0,80
1,note_on,79,68,0
1,note_on,79,0,80
1,note_on,81,66,0
1,note_on,91,88,0
1,note_on,81,0,80
1,note_on,79,69,0
1,note_on,91,0,40
1,note_on,89,86,0
1,note_on,79,0,40
1,note_on,81,66,0
1,note_on,81,0,80
1,note_on,89,0,0
1,note_on,79,71,0
1,note_on,87,83,0
1,note_on,79,0,80
1,note_on,81,65,0
1,note_on,87,0,40
1,note_on,86,81,0
1,note_on,81,0,40
1,note_on,79,71,0
1,note_on,79,0,80
1,note_on,86,0,0
1,note_on,81,69,0
1,note_on,84,78,0
1,note_on,81,0,80
1,note_on,79,73,0
1,note_on,84,0,40
1,note_on,82,76,0
1,note_on,79,0,40
1,note_on,81,67,0
1,note_on,81,0,80
1,note_on,82,0,0
1,note_on,87,88,0
1,note_on,79,75,0
1,note_on,79,0,80
1,note_on,81,70,0
1,note_on,81,0,80
1,note_on,79,74,0
1,note_on,79,0,80
1,note_on,80,72,0
1,note_on,80,0,240
1,note_on,87,0,0
1,note_on,81,78,0
1,note_on,81,0,240
1,note_on,87,88,0
1,note_on,87,0,120
1,note_on,86,82,0
1,note_on,86,0,120
1,note_on,84,88,0
1,note_on,84,0,120
1,note_on,86,82,0
1,note_on,86,0,120
1,note_on,64,67,0
1,note_on,84,83,0
1,note_on,84,0,120
1,note_on,82,83,0
1,note_on,82,0,120
1,note_on,64,0,0
1,note_on,65,72,0
1,note_on,81,88,0
1,note_on,81,0,120
1,note_on,82,83,0
1,note_on,82,0,120
1,note_on,65,0,0
1,note_on,81,83,0
1,note_on,81,0,120
1,note_on,79,83,0
1,note_on,79,0,120
1,note_on,77,88,0
1,note_on,77,0,120
1,note_on,79,82,0
1,note_on,79,0,120
1,note_on,81,82,0
1,note_on,81,0,120
1,note_on,82,82,0
1,note_on,82,0,120
1,note_on,83,84,0
1,note_on,83,0,120
1,note_on,84,85,0
1,note_on,84,0,120
1,note_on,86,86,0
1,note_on,86,0,120
1,note_on,84,84,0
1,note_on,84,0,120
1,note_on,82,89,0
1,note_on,82,0,120
1,note_on,84,90,0
1,note_on,84,0,120
1,note_on,86,92,0
1,note_on,86,0,120
1,note_on,87,94,0
1,note_on,87,0,120
1,note_on,89,96,0
1,note_on,89,0,120
1,note_on,80,82,0
1,note_on,80,0,120
1,note_on,81,83,0
1,note_on,81,0,120
1,note_on,82,87,0
1,note_on,82,0,120
1,note_on,84,95,0
1,note_on,84,0,240
1,note_on,82,88,0
1,note_on,82,0,240
1,note_on,79,80,0
1,note_on,82,95,0
1,note_on,82,0,240
1,note_on,79,0,0
1,note_on,77,75,0
1,note_on,80,89,0
1,note_on,80,0,240
1,note_on,77,0,0
1,note_on,70,75,0
1,note_on,79,89,0
1,note_on,79,0,240
1,note_on,70,0,0
1,note_on,68,71,0
1,note_on,77,84,0
1,note_on,77,0,240
1,note_on,68,0,0
1,note_on,92,100,0
1,note_on,89,85,0
1,note_on,89,0,240
1,note_on,92,0,0
1,note_on,87,80,0
1,note_on,91,95,0
1,note_on,91,0,180
1,note_on,87,0,0
1,note_on,91,101,60
1,note_on,87,85,0
1,note_on,87,0,240
1,note_on,91,0,0
1,note_on,84,80,0
1,note_on,87,95,0
1,note_on,87,0,240
1,note_on,84,0,0
1,note_on,86,99,0
1,note_on,82,84,0
1,note_on,82,0,240
1,note_on,86,0,0
1,note_on,89,90,0
1,note_on,86,76,0
1,note_on,86,0,180
1,note_on,89,0,0
1,note_on,72,83,60
1,note_on,75,83,0
1,note_on,81,98,0
1,note_on,81,0,240
1,note_on,75,0,0
1,note_on,72,0,0
1,note_on,70,84,0
1,note_on,74,84,0
1,note_on,82,99,0
1,note_on,82,0,240
1,note_on,74,0,0
1,note_on,70,0,0
1,note_on,80,62,480
1,note_on,80,0,240
1,note_on,66,45,240
1,note_on,66,0,80
1,note_on,67,42,0
1,note_on,67,0,80
1,note_on,66,48,0
1,note_on,66,0,80
1,note_on,67,46,0
1,note_on,67,0,80
1,note_on,66,52,0
1,note_on,66,0,80
1,note_on,67,48,0
1,note_on,67,0,80
1,note_on,66,56,0
1,note_on,66,0,80
1,note_on,67,51,0
1,note_on,67,0,80
1,note_on,66,58,0
1,note_on,66,0,80
1,note_on,67,55,0
1,note_on,67,0,60
1,note_on,66,63,0
1,note_on,66,0,60
1,note_on,67,58,0
1,note_on,67,0,60
1,note_on,66,60,0
1,note_on,66,0,60
1,note_on,78,93,0
1,note_on,78,0,240
1,note_on,63,63,240
1,note_on,63,0,80
1,note_on,65,57,0
1,note_on,65,0,80
1,note_on,63,66,0
1,note_on,63,0,80
1,note_on,65,60,0
1,note_on,65,0,80
1,note_on,63,69,0
1,note_on,63,0,80
1,note_on,65,64,0
1,note_on,65,0,80
1,note_on,63,73,0
1,note_on,63,0,80
1,note_on,65,67,0
1,note_on,65,0,80
1,note_on,63,76,0
1,note_on,63,0,80
1,note_on,65,71,0
1,note_on,65,0,60
1,note_on,63,80,0
1,note_on,63,0,60
1,note_on,62,74,0
1,note_on,62,0,60
1,note_on,63,75,0
1,note_on,63,0,60
1,note_on,66,83,0
1,note_on,66,0,120
1,note_on,45,63,0
1,note_on,45,0,120
1,note_on,48,65,0
1,note_on,48,0,120
1,note_on,51,66,0
1,note_on,51,0,120
1,note_on,54,68,0
1,note_on,54,0,120
1,note_on,57,70,0
1,note_on,57,0,120
1,note_on,60,71,0
1,note_on,60,0,120
1,note_on,63,73,0
1,note_on,63,0,120
1,note_on,66,78,0
1,note_on,66,0,120
1,note_on,57,64,0
1,note_on,57,0,120
1,note_on,60,66,0
1,note_on,60,0,120
1,note_on,63,68,0
1,note_on,63,0,120
1,note_on,66,69,0
1,note_on,66,0,120
1,note_on,69,71,0
1,note_on,69,0,120
1,note_on,72,73,0
1,note_on,72,0,120
1,note_on,75,75,0
1,note_on,75,0,120
1,note_on,78,81,0
1,note_on,78,0,120
1,note_on,69,66,0
1,note_on,69,0,120
1,note_on,72,67,0
1,note_on,72,0,120
1,note_on,75,69,0
1,note_on,75,0,120
1,note_on,78,71,0
1,note_on,78,0,120
1,note_on,81,72,0
1,note_on,81,0,120
1,note_on,84,74,0
1,note_on,84,0,120
1,note_on,87,76,0
1,note_on,87,0,120
1,note_on,90,86,0
1,note_on,90,0,120
1,note_on,69,67,0
1,note_on,69,0,120
1,note_on,72,70,0
1,note_on,72,0,120
1,note_on,75,74,0
1,note_on,75,0,120
1,note_on,78,77,0
1,note_on,78,0,120
1,note_on,57,63,0
1,note_on,57,0,120
1,note_on,60,68,0
1,note_on,60,0,120
1,note_on,63,72,0
1,note_on,63,0,120
1,note_on,66,76,0
1,note_on,66,0,120
1,note_on,45,64,0
1,note_on,45,0,120
1,note_on,48,69,0
1,note_on,48,0,120
1,note_on,51,74,0
1,note_on,51,0,120
1,note_on,54,79,0
1,note_on,54,0,480
1,note_on,45,79,0
1,note_on,42,79,0
1,note_on,51,79,0
1,note_on,51,0,720
1,note_on,42,0,0
1,note_on,45,0,0
1,note_on,41,70,0
1,note_on,44,70,0
1,note_on,50,70,0
1,note_on,50,0,240
1,note_on,44,0,0
1,note_on,41,0,0
1,note_on,70,50,0
1,note_on,70,0,120
1,note_on,68,45,0
1,note_on,68,0,120
1,note_on,70,50,0
1,note_on,70,0,120
1,note_on,68,45,0
1,note_on,68,0,120
1,note_on,70,50,0
1,note_on,70,0,120
1,note_on,68,45,0
1,note_on,68,0,120
1,note_on,67,50,0
1,note_on,67,0,120
1,note_on,68,45,0
1,note_on,68,0,120
1,note_on,71,58,0
1,note_on,56,53,240
1,note_on,56,0,240
1,note_on,71,0,0
1,note_on,68,50,0
1,note_on,68,0,240
1,note_on,71,46,0
1,note_on,79,55,0
1,note_on,71,0,120
1,note_on,70,50,0
1,note_on,70,0,120
1,note_on,79,0,0
1,note_on,68,47,0
1,note_on,80,56,0
1,note_on,68,0,120
1,note_on,66,48,0
1,note_on,66,0,120
1,note_on,80,0,0
1,note_on,65,52,0
1,note_on,65,0,120
1,note_on,63,48,0
1,note_on,63,0,120
1,note_on,68,58,0
1,note_on,53,53,240
1,note_on,53,0,240
1,note_on,68,0,0
1,note_on,65,50,0
1,note_on,65,0,240
1,note_on,68,46,0
1,note_on,76,55,0
1,note_on,68,0,120
1,note_on,66,50,0
1,note_on,66,0,120
1,note_on,76,0,0
1,note_on,65,47,0
1,note_on,77,56,0
1,note_on,65,0,120
1,note_on,63,48,0
1,note_on,63,0,120
1,note_on,77,0,0
1,note_on,62,52,0
1,note_on,62,0,120
1,note_on,59,48,0
1,note_on,59,0,120
1,note_on,66,58,0
1,note_on,51,53,240
1,note_on,51,0,240
1,note_on,66,0,0
1,note_on,63,50,0
1,note_on,63,0,240
1,note_on,66,46,0
1,note_on,74,55,0
1,note_on,66,0,120
1,note_on,65,50,0
1,note_on,65,0,120
1,note_on,74,0,0
1,note_on,63,47,0
1,note_on,75,56,0
1,note_on,63,0,120
1,note_on,61,48,0
1,note_on,61,0,120
1,note_on,75,0,0
1,note_on,63,56,0
1,note_on,59,52,0
1,note_on,59,0,120
1,note_on,58,48,0
1,note_on,58,0,120
1,note_on,57,50,0
1,note_on,63,0,120
1,note_on,65,46,0
1,note_on,65,0,120
1,note_on,57,0,0
1,note_on,63,46,0
1,note_on,63,0,120
1,note_on,62,46,0
1,note_on,62,0,120
1,note_on,54,52,0
1,note_on,63,52,0
1,note_on,63,0,120
1,note_on,61,48,0
1,note_on,61,0,120
1,note_on,60,48,0
1,note_on,60,0,120
1,note_on,59,48,0
1,note_on,59,0,120
1,note_on,60,54,0
1,note_on,60,0,120
1,note_on,59,48,0
1,note_on,59,0,120
1,note_on,54,0,0
1,note_on,54,48,0
1,note_on,60,48,0
1,note_on,60,0,120
1,note_on,61,48,0
1,note_on,61,0,120
1,note_on,54,0,0
1,note_on,54,48,0
1,note_on,63,56,0
1,note_on,63,0,240
1,note_on,54,0,0
1,note_on,53,48,0
1,note_on,53,0,240
1,note_on,60,56,0
1,note_on,53,48,0
1,note_on,53,0,240
1,note_on,51,45,0
1,note_on,51,0,240
1,note_on,50,55,0
1,note_on,50,0,240
1,note_on,60,0,0
1,note_on,60,45,0
1,note_on,51,45,0
1,note_on,51,0,240
1,note_on,60,0,0
1,note_on,51,52,0
1,note_on,60,52,0
1,note_on,60,0,240
1,note_on,51,0,0
1,note_on,50,38,0
1,note_on,58,45,0
1,note_on,58,0,240
1,note_on,50,0,0
1,note_on,51,43,0
1,note_on,57,51,0
1,note_on,57,0,240
1,note_on,51,0,0
1,note_on,50,36,0
1,note_on,58,43,0
1,note_on,58,0,240
1,note_on,50,0,0
1,note_on,45,41,0
1,note_on,51,41,0
1,note_on,54,49,0
1,note_on,54,0,240
1,note_on,51,0,0
1,note_on,45,0,0
1,note_on,46,33,0
1,note_on,50,33,0
1,note_on,53,39,0
1,note_on,53,0,240
1,note_on,50,0,0
1,note_on,46,0,0
1,note_on,54,45,0
1,note_on,57,45,0
1,note_on,63,53,0
1,note_on,63,0,240
1,note_on,57,0,0
1,note_on,54,0,0
1,note_on,53,35,0
1,note_on,58,35,0
1,note_on,62,42,0
1,note_on,62,0,240
1,note_on,58,0,0
1,note_on,53,0,0
1,note_on,63,43,0
1,note_on,66,43,0
1,note_on,69,51,0
1,note_on,69,0,240
1,note_on,66,0,0
1,note_on,63,0,0
1,note_on,62,35,0
1,note_on,65,35,0
1,note_on,70,42,0
1,note_on,70,0,240
1,note_on,65,0,0
1,note_on,62,0,0
1,note_on,69,44,0
1,note_on,75,44,0
1,note_on,78,52,0
1,note_on,78,0,240
1,note_on,75,0,0
1,note_on,69,0,0
1,note_on,70,38,0
1,note_on,74,38,0
1,note_on,77,45,0
1,note_on,77,0,240
1,note_on,74,0,0
1,note_on,70,0,0
1,note_on,81,52,0
1,note_on,72,44,0
1,note_on,75,44,0
1,note_on,81,0,60
1,note_on,82,47,0
1,note_on,82,0,60
1,note_on,81,52,0
1,note_on,81,0,60
1,note_on,82,47,0
1,note_on,82,0,60
1,note_on,81,52,0
1,note_on,81,0,60
1,note_on,82,46,0
1,note_on,82,0,60
1,note_on,81,52,0
1,note_on,81,0,60
1,note_on,82,47,0
1,note_on,82,0,60
1,note_on,81,52,0
1,note_on,81,0,60
1,note_on,82,47,0
1,note_on,82,0,60
1,note_on,81,52,0
1,note_on,81,0,60
1,note_on,82,48,0
1,note_on,82,0,60
1,note_on,81,52,0
1,note_on,81,0,80
1,note_on,79,47,0
1,note_on,79,0,80
1,note_on,81,47,0
1,note_on,81,0,80
1,note_on,75,0,0
1,note_on,72,0,0
1,note_on,70,39,0
1,note_on,73,39,0
1,note_on,82,47,0
1,note_on,82,0,480
1,note_on,73,0,0
1,note_on,70,0,0
1,note_on,64,44,0
1,note_on,64,0,60
1,note_on,65,39,0
1,note_on,65,0,60
1,note_on,64,44,0
1,note_on,64,0,60
1,note_on,65,39,0
1,note_on,65,0,60
1,note_on,64,44,0
1,note_on,64,0,60
1,note_on,65,39,0
1,note_on,65,0,60
1,note_on,64,44,0
1,note_on,64,0,60
1,note_on,65,39,0
1,note_on,65,0,60
1,note_on,70,40,0
1,note_on,73,48,0
1,note_on,64,44,0
1,note_on,64,0,60
1,note_on,65,39,0
1,note_on,65,0,60
1,note_on,64,44,0
1,note_on,64,0,60
1,note_on,65,40,0
1,note_on,65,0,60
1,note_on,64,44,0
1,note_on,64,0,80
1,note_on,62,39,0
1,note_on,62,0,80
1,note_on,64,39,0
1,note_on,64,0,80
1,note_on,73,0,0
1,note_on,70,0,0
1,note_on,65,46,0
1,note_on,72,46,0
1,note_on,72,0,480
1,note_on,65,0,0
1,note_on,69,46,0
1,note_on,69,0,60
1,note_on,70,42,0
1,note_on,70,0,60
1,note_on,69,46,0
1,note_on,69,0,60
1,note_on,70,42,0
1,note_on,70,0,60
1,note_on,69,46,0
1,note_on,69,0,60
1,note_on,70,41,0
1,note_on,70,0,60
1,note_on,69,46,0
1,note_on,69,0,60
1,note_on,70,42,0
1,note_on,70,0,60
1,note_on,69,46,0
1,note_on,75,52,0
1,note_on,69,0,60
1,note_on,70,42,0
1,note_on,70,0,60
1,note_on,69,46,0
1,note_on,69,0,60
1,note_on,70,43,0
1,note_on,70,0,60
1,note_on,69,46,0
1,note_on,69,0,80
1,note_on,67,42,0
1,note_on,67,0,80
1,note_on,69,42,0
1,note_on,69,0,80
1,note_on,75,0,0
1,note_on,65,37,0
1,note_on,72,37,0
1,note_on,75,44,0
1,note_on,75,0,480
1,note_on,72,0,0
1,note_on,65,0,0
1,note_on,65,37,0
1,note_on,72,37,0
1,note_on,75,44,0
1,note_on,75,0,720
1,note_on,72,0,0
1,note_on,65,0,0
1,note_on,79,44,0
1,note_on,77,39,120
1,note_on,79,0,24
1,note_on,75,44,96
1,note_on,77,0,24
1,note_on,74,39,96
1,note_on,75,0,24
1,note_on,72,39,96
1,note_on,74,0,24
1,note_on,71,39,96
1,note_on,72,0,24
1,note_on,71,0,96
1,note_on,75,46,0
1,note_on,75,0,480
1,note_on,67,44,240
1,note_on,65,39,120
1,note_on,67,0,24
1,note_on,63,44,96
1,note_on,65,0,24
1,note_on,62,39,96
1,note_on,63,0,24
1,note_on,60,39,96
1,note_on,62,0,24
1,note_on,59,39,96
1,note_on,60,0,24
1,note_on,59,0,96
1,note_on,63,46,0
1,note_on,63,0,480
1,note_on,79,44,240
1,note_on,77,39,120
1,note_on,79,0,24
1,note_on,75,44,96
1,note_on,77,0,24
1,note_on,74,39,96
1,note_on,75,0,24
1,note_on,72,39,96
1,note_on,74,0,24
1,note_on,71,39,96
1,note_on,72,0,24
1,note_on,79,46,96
1,note_on,71,0,24
1,note_on,77,47,96
1,note_on,79,0,24
1,note_on,75,48,96
1,note_on,77,0,24
1,note_on,74,48,96
1,note_on,75,0,24
1,note_on,72,49,96
1,note_on,74,0,24
1,note_on,70,51,96
1,note_on,72,0,24
1,note_on,69,52,96
1,note_on,70,0,24
1,note_on,67,53,96
1,note_on,69,0,24
1,note_on,65,55,96
1,note_on,67,0,24
1,note_on,63,56,96
1,note_on,65,0,24
1,note_on,62,57,96
1,note_on,63,0,24
1,note_on,60,59,96
1,note_on,62,0,24
1,note_on,58,60,96
1,note_on,60,0,24
1,note_on,58,0,96
1,note_on,57,62,0
1,note_on,57,0,120
1,note_on,55,63,0
1,note_on,55,0,120
1,note_on,53,64,0
1,note_on,53,0,120
1,note_on,51,67,0
1,note_on,51,0,120
1,note_on,50,68,0
1,note_on,50,0,120
1,note_on,48,71,0
1,note_on,48,0,120
1,note_on,46,72,0
1,note_on,46,0,120
1,note_on,45,76,0
1,note_on,45,0,120
1,note_on,43,79,0
1,note_on,43,0,120
1,note_on,41,85,0
1,note_on,41,0,120
1,note_on,40,89,0
1,note_on,40,0,120
1,note_on,41,99,0
1,note_on,53,99,0
1,note_on,53,0,240
1,note_on,41,0,0
1,note_on,69,95,240
1,note_on,81,95,0
1,note_on,81,0,80
1,note_on,82,75,0
1,note_on,82,0,80
1,note_on,81,82,0
1,note_on,81,0,80
1,note_on,82,72,0
1,note_on,82,0,80
1,note_on,81,79,0
1,note_on,81,0,80
1,note_on,82,71,0
1,note_on,82,0,80
1,note_on,81,76,0
1,note_on,81,0,80
1,note_on,82,69,0
1,note_on,82,0,80
1,note_on,81,73,0
1,note_on,81,0,80
1,note_on,82,67,0
1,note_on,82,0,60
1,note_on,81,76,0
1,note_on,81,0,60
1,note_on,79,73,0
1,note_on,79,0,60
1,note_on,81,80,0
1,note_on,81,0,60
1,note_on,69,0,0
1,note_on,70,78,0
1,note_on,82,92,0
1,note_on,82,0,240
1,note_on,70,0,0
1,note_on,55,75,240
1,note_on,67,89,0
1,note_on,67,0,240
1,note_on,55,0,0
1,note_on,71,95,240
1,note_on,83,95,0
1,note_on,83,0,80
1,note_on,84,75,0
1,note_on,84,0,80
1,note_on,83,82,0
1,note_on,83,0,80
1,note_on,84,72,0
1,note_on,84,0,80
1,note_on,83,79,0
1,note_on,83,0,80
1,note_on,84,71,0
1,note_on,84,0,80
1,note_on,83,76,0
1,note_on,83,0,80
1,note_on,84,69,0
1,note_on,84,0,80
1,note_on,83,73,0
1,note_on,83,0,80
1,note_on,84,67,0
1,note_on,84,0,60
1,note_on,83,74,0
1,note_on,83,0,60
1,note_on,81,70,0
1,note_on,81,0,60
1,note_on,83,79,0
1,note_on,83,0,60
1,note_on,71,0,0
1,note_on,72,78,0
1,note_on,84,92,0
1,note_on,84,0,240
1,note_on,72,0,0
1,note_on,57,75,240
1,note_on,69,89,0
1,note_on,69,0,240
1,note_on,57,0,0
1,note_on,73,95,240
1,note_on,85,95,0
1,note_on,85,0,80
1,note_on,86,75,0
1,note_on,86,0,80
1,note_on,85,82,0
1,note_on,85,0,80
1,note_on,86,72,0
1,note_on,86,0,80
1,note_on,85,79,0
1,note_on,85,0,80
1,note_on,86,71,0
1,note_on,86,0,80
1,note_on,85,76,0
1,note_on,85,0,80
1,note_on,86,69,0
1,note_on,86,0,80
1,note_on,85,73,0
1,note_on,85,0,80
1,note_on,86,67,0
1,note_on,86,0,60
1,note_on,85,74,0
1,note_on,85,0,60
1,note_on,83,66,0
1,note_on,83,0,60
1,note_on,85,79,0
1,note_on,85,0,60
1,note_on,73,0,0
1,note_on,74,78,0
1,note_on,86,92,0
1,note_on,86,0,240
1,note_on,74,0,0
1,note_on,58,75,240
1,note_on,70,89,0
1,note_on,70,0,240
1,note_on,58,0,0
1,note_on,74,95,240
1,note_on,86,95,0
1,note_on,86,0,80
1,note_on,87,75,0
1,note_on,87,0,80
1,note_on,86,82,0
1,note_on,86,0,80
1,note_on,87,72,0
1,note_on,87,0,80
1,note_on,86,79,0
1,note_on,86,0,80
1,note_on,87,71,0
1,note_on,87,0,80
1,note_on,86,76,0
1,note_on,86,0,80
1,note_on,87,69,0
1,note_on,87,0,80
1,note_on,86,73,0
1,note_on,86,0,80
1,note_on,87,70,0
1,note_on,87,0,60
1,note_on,86,78,0
1,note_on,86,0,60
1,note_on,84,73,0
1,note_on,84,0,60
1,note_on,86,81,0
1,note_on,86,0,60
1,note_on,74,0,0
1,note_on,75,78,0
1,note_on,87,92,0
1,note_on,87,0,240
1,note_on,75,0,0
1,note_on,60,75,240
1,note_on,72,89,0
1,note_on,72,0,240
1,note_on,60,0,0
1,note_on,76,95,240
1,note_on,88,95,0
1,note_on,88,0,80
1,note_on,89,75,0
1,note_on,89,0,80
1,note_on,88,82,0
1,note_on,88,0,80
1,note_on,89,72,0
1,note_on,89,0,80
1,note_on,88,79,0
1,note_on,88,0,80
1,note_on,89,71,0
1,note_on,89,0,80
1,note_on,88,76,0
1,note_on,88,0,80
1,note_on,89,69,0
1,note_on,89,0,80
1,note_on,88,73,0
1,note_on,88,0,80
1,note_on,89,67,0
1,note_on,89,0,60
1,note_on,88,76,0
1,note_on,88,0,60
1,note_on,86,70,0
1,note_on,86,0,60
1,note_on,88,79,0
1,note_on,88,0,60
1,note_on,76,0,0
1,note_on,77,78,0
1,note_on,89,92,0
1,note_on,89,0,240
1,note_on,77,0,0
1,note_on,62,75,240
1,note_on,74,89,0
1,note_on,74,0,240
1,note_on,62,0,0
1,note_on,78,95,240
1,note_on,90,95,0
1,note_on,90,0,80
1,note_on,91,75,0
1,note_on,91,0,80
1,note_on,90,82,0
1,note_on,90,0,80
1,note_on,91,72,0
1,note_on,91,0,80
1,note_on,90,79,0
1,note_on,90,0,80
1,note_on,91,71,0
1,note_on,91,0,80
1,note_on,90,76,0
1,note_on,90,0,80
1,note_on,91,69,0
1,note_on,91,0,80
1,note_on,90,73,0
1,note_on,90,0,80
1,note_on,91,67,0
1,note_on,91,0,60
1,note_on,90,77,0
1,note_on,90,0,60
1,note_on,88,74,0
1,note_on,88,0,60
1,note_on,90,83,0
1,note_on,90,0,60
1,note_on,78,0,0
1,note_on,79,78,0
1,note_on,91,92,0
1,note_on,91,0,240
1,note_on,79,0,0
1,note_on,63,75,240
1,note_on,75,89,0
1,note_on,75,0,240
1,note_on,63,0,0
1,note_on,93,89,240
1,note_on,89,75,0
1,note_on,87,75,0
1,note_on,84,75,0
1,note_on,81,75,0
1,note_on,81,0,720
1,note_on,87,0,0
1,note_on,93,0,0
1,note_on,89,0,0
1,note_on,84,0,0
1,note_on,94,93,240
1,note_on,89,78,0
1,note_on,86,78,0
1,note_on,82,78,0
1,note_on,82,0,720
1,note_on,94,0,0
1,note_on,89,0,0
1,note_on,86,0,0
1,note_on,81,89,240
1,note_on,77,75,0
1,note_on,75,75,0
1,note_on,72,75,0
1,note_on,69,75,0
1,note_on,69,0,720
1,note_on,75,0,0
1,note_on,81,0,0
1,note_on,77,0,0
1,note_on,72,0,0
1,note_on,82,94,720
1,note_on,77,79,0
1,note_on,74,79,0
1,note_on,70,79,0
1,note_on,70,0,1920
1,note_on,82,0,0
1,note_on,77,0,0
1,note_on,74,0,0
2,note_on,41,50,0
2,note_on,41,0,80
2,note_on,53,46,0
2,note_on,53,0,60
2,note_on,53,54,20
2,note_on,53,0,80
2,note_on,29,30,400
2,note_on,41,36,0
2,note_on,41,0,440
2,note_on,29,0,0
2,note_on,41,27,360
2,note_on,53,32,0
2,note_on,53,0,240
2,note_on,41,0,0
2,note_on,37,28,720
2,note_on,49,34,0
2,note_on,49,0,240
2,note_on,37,0,0
2,note_on,34,26,720
2,note_on,46,31,0
2,note_on,46,0,240
2,note_on,34,0,0
2,note_on,30,20,720
2,note_on,42,24,0
2,note_on,42,0,240
2,note_on,30,0,0
2,note_on,53,29,2280
2,note_on,53,0,120
2,note_on,56,32,0
2,note_on,56,0,120
2,note_on,53,27,0
2,note_on,53,0,120
2,note_on,56,32,0
2,note_on,56,0,120
2,note_on,53,26,0
2,note_on,53,0,120
2,note_on,56,31,0
2,note_on,56,0,120
2,note_on,49,25,0
2,note_on,49,0,120
2,note_on,54,38,0
2,note_on,54,0,240
2,note_on,48,30,0
2,note_on,48,0,240
2,note_on,49,28,0
2,note_on,49,0,240
2,note_on,42,28,0
2,note_on,42,0,240
2,note_on,54,31,240
2,note_on,42,26,0
2,note_on,42,0,240
2,note_on,54,0,0
2,note_on,51,32,480
2,note_on,39,27,0
2,note_on,39,0,240
2,note_on,51,0,0
2,note_on,35,27,240
2,note_on,47,32,0
2,note_on,47,0,120
2,note_on,35,0,0
2,note_on,54,30,0
2,note_on,54,0,120
2,note_on,56,31,0
2,note_on,56,0,120
2,note_on,58,31,0
2,note_on,58,0,120
2,note_on,59,32,0
2,note_on,59,0,120
2,note_on,61,33,0
2,note_on,61,0,120
2,note_on,63,34,0
2,note_on,63,0,120
2,note_on,64,35,0
2,note_on,64,0,120
2,note_on,63,36,0
2,note_on,63,0,120
2,note_on,59,33,0
2,note_on,66,39,120
2,note_on,59,0,12
2,note_on,64,39,108
2,note_on,66,0,12
2,note_on,63,40,108
2,note_on,64,0,12
2,note_on,61,41,108
2,note_on,63,0,12
2,note_on,59,42,108
2,note_on,61,0,12
2,note_on,58,43,108
2,note_on,59,0,12
2,note_on,59,43,108
2,note_on,58,0,12
2,note_on,54,38,108
2,note_on,59,0,12
2,note_on,54,0,108
2,note_on,56,44,0
2,note_on,58,44,120
2,note_on,56,0,12
2,note_on,59,43,108
2,note_on,58,0,12
2,note_on,61,43,108
2,note_on,59,0,12
2,note_on,63,42,108
2,note_on,61,0,12
2,note_on,64,42,108
2,note_on,63,0,12
2,note_on,63,42,108
2,note_on,64,0,12
2,note_on,63,0,108
2,note_on,75,42,0
2,note_on,78,39,120
2,note_on,75,0,12
2,note_on,76,40,108
2,note_on,78,0,12
2,note_on,75,42,108
2,note_on,76,0,12
2,note_on,73,44,108
2,note_on,75,0,12
2,note_on,71,45,108
2,note_on,73,0,12
2,note_on,70,47,108
2,note_on,71,0,12
2,note_on,71,50,108
2,note_on,70,0,12
2,note_on,70,42,108
2,note_on,71,0,12
2,note_on,75,42,108
2,note_on,70,0,12
2,note_on,73,42,108
2,note_on,75,0,12
2,note_on,71,49,108
2,note_on,73,0,12
2,note_on,70,37,108
2,note_on,71,0,12
2,note_on,68,37,108
2,note_on,70,0,12
2,note_on,66,37,108
2,note_on,68,0,12
2,note_on,64,46,108
2,note_on,66,0,12
2,note_on,63,42,108
2,note_on,64,0,12
2,note_on,61,42,108
2,note_on,63,0,12
2,note_on,59,42,108
2,note_on,61,0,12
2,note_on,58,42,108
2,note_on,59,0,12
2,note_on,58,0,108
2,note_on,61,45,0
2,note_on,61,0,120
2,note_on,59,47,0
2,note_on,59,0,120
2,note_on,64,50,0
2,note_on,64,0,120
2,note_on,63,50,0
2,note_on,63,0,120
2,note_on,62,39,0
2,note_on,62,0,120
2,note_on,61,47,0
2,note_on,61,0,120
2,note_on,54,40,0
2,note_on,54,0,120
2,note_on,61,34,0
2,note_on,66,40,0
2,note_on,54,34,0
2,note_on,54,0,360
2,note_on,66,0,0
2,note_on,61,0,0
2,note_on,47,32,360
2,note_on,35,32,0
2,note_on,35,0,240
2,note_on,47,0,0
2,note_on,32,82,480
2,note_on,44,82,0
2,note_on,44,0,240
2,note_on,32,0,0
2,note_on,68,39,840
2,note_on,68,0,120
2,note_on,61,41,0
2,note_on,61,0,120
2,note_on,68,37,0
2,note_on,68,0,120
2,note_on,70,42,0
2,note_on,70,0,120
2,note_on,68,34,0
2,note_on,68,0,120
2,note_on,61,41,0
2,note_on,61,0,120
2,note_on,68,34,0
2,note_on,68,0,120
2,note_on,67,45,0
2,note_on,67,0,720
2,note_on,67,52,0
2,note_on,67,0,480
2,note_on,67,49,0
2,note_on,67,0,240
2,note_on,64,57,0
2,note_on,64,0,240
2,note_on,63,52,0
2,note_on,63,0,240
2,note_on,61,60,0
2,note_on,61,0,120
2,note_on,56,37,0
2,note_on,56,0,120
2,note_on,49,42,0
2,note_on,49,0,120
2,note_on,56,37,0
2,note_on,56,0,120
2,note_on,57,44,0
2,note_on,57,0,120
2,note_on,56,37,0
2,note_on,56,0,120
2,note_on,49,37,0
2,note_on,49,0,120
2,note_on,56,37,0
2,note_on,56,0,120
2,note_on,57,46,0
2,note_on,57,0,720
2,note_on,56,40,0
2,note_on,56,0,240
2,note_on,58,57,0
2,note_on,55,57,0
2,note_on,58,0,120
2,note_on,61,44,0
2,note_on,61,0,120
2,note_on,58,52,0
2,note_on,58,0,120
2,note_on,63,44,0
2,note_on,63,0,120
2,note_on,64,54,0
2,note_on,64,0,120
2,note_on,63,42,0
2,note_on,63,0,120
2,note_on,58,46,0
2,note_on,58,0,120
2,note_on,63,39,0
2,note_on,63,0,120
2,note_on,55,0,0
2,note_on,56,55,0
2,note_on,59,41,120
2,note_on,59,0,120
2,note_on,56,0,0
2,note_on,56,42,0
2,note_on,56,0,120
2,note_on,59,42,0
2,note_on,59,0,120
2,note_on,61,53,0
2,note_on,61,0,120
2,note_on,59,37,0
2,note_on,59,0,120
2,note_on,56,45,0
2,note_on,47,38,0
2,note_on,56,0,120
2,note_on,59,37,0
2,note_on,59,0,120
2,note_on,47,0,0
2,note_on,52,49,0
2,note_on,49,41,0
2,note_on,52,0,240
2,note_on,61,57,0
2,note_on,61,0,480
2,note_on,49,0,0
2,note_on,59,46,0
2,note_on,51,39,0
2,note_on,51,0,240
2,note_on,59,0,0
2,note_on,59,57,0
2,note_on,51,48,0
2,note_on,59,0,240
2,note_on,58,48,0
2,note_on,58,0,240
2,note_on,56,55,0
2,note_on,56,0,240
2,note_on,51,0,0
2,note_on,51,41,0
2,note_on,55,49,0
2,note_on,55,0,240
2,note_on,51,0,0
2,note_on,44,20,720
2,note_on,56,24,0
2,note_on,56,0,240
2,note_on,44,0,0
2,note_on,40,20,720
2,note_on,52,24,0
2,note_on,52,0,240
2,note_on,40,0,0
2,note_on,49,24,720
2,note_on,37,20,0
2,note_on,37,0,240
2,note_on,49,0,0
2,note_on,33,38,560
2,note_on,33,0,80
2,note_on,45,32,0
2,note_on,45,0,60
2,note_on,45,41,20
2,note_on,45,0,80
2,note_on,57,32,0
2,note_on,57,0,60
2,note_on,57,32,20
2,note_on,57,0,80
2,note_on,45,32,400
2,note_on,33,27,0
2,note_on,33,0,80
2,note_on,45,0,0
2,note_on,47,39,0
2,note_on,33,33,0
2,note_on,38,33,0
2,note_on,40,33,0
2,note_on,59,42,3360
2,note_on,59,0,120
2,note_on,56,36,0
2,note_on,56,0,120
2,note_on,52,37,0
2,note_on,52,0,120
2,note_on,51,37,0
2,note_on,51,0,120
2,note_on,50,48,0
2,note_on,52,39,60
2,note_on,50,0,12
2,note_on,50,48,48
2,note_on,52,0,12
2,note_on,52,41,48
2,note_on,50,0,12
2,note_on,50,40,48
2,note_on,52,0,12
2,note_on,52,34,48
2,note_on,50,0,12
2,note_on,50,40,48
2,note_on,52,0,12
2,note_on,52,35,48
2,note_on,50,0,12
2,note_on,50,40,48
2,note_on,52,0,12
2,note_on,52,34,48
2,note_on,50,0,12
2,note_on,50,40,48
2,note_on,52,0,12
2,note_on,52,35,48
2,note_on,50,0,12
2,note_on,50,40,48
2,note_on,52,0,12
2,note_on,52,34,48
2,note_on,50,0,12
2,note_on,50,40,48
2,note_on,52,0,12
2,note_on,52,35,48
2,note_on,50,0,12
2,note_on,50,40,48
2,note_on,52,0,12
2,note_on,52,34,48
2,note_on,50,0,12
2,note_on,50,40,48
2,note_on,52,0,12
2,note_on,52,34,48
2,note_on,50,0,12
2,note_on,50,40,48
2,note_on,52,0,12
2,note_on,52,34,48
2,note_on,50,0,12
2,note_on,50,40,48
2,note_on,52,0,12
2,note_on,52,34,48
2,note_on,50,0,12
2,note_on,52,0,48
2,note_on,51,45,0
2,note_on,52,38,60
2,note_on,51,0,12
2,note_on,51,45,48
2,note_on,52,0,12
2,note_on,52,41,48
2,note_on,51,0,12
2,note_on,51,40,48
2,note_on,52,0,12
2,note_on,52,34,48
2,note_on,51,0,12
2,note_on,51,40,48
2,note_on,52,0,12
2,note_on,52,35,48
2,note_on,51,0,12
2,note_on,51,40,48
2,note_on,52,0,12
2,note_on,52,35,48
2,note_on,51,0,12
2,note_on,51,40,48
2,note_on,52,0,12
2,note_on,52,35,48
2,note_on,51,0,12
2,note_on,51,40,48
2,note_on,52,0,12
2,note_on,51,0,60
2,note_on,52,35,8
2,note_on,51,40,80
2,note_on,52,0,16
2,note_on,52,42,64
2,note_on,51,0,16
2,note_on,52,0,44
2,note_on,54,35,0
2,note_on,52,44,60
2,note_on,54,0,12
2,note_on,54,38,48
2,note_on,52,0,12
2,note_on,52,40,48
2,note_on,54,0,12
2,note_on,54,35,48
2,note_on,52,0,12
2,note_on,52,40,48
2,note_on,54,0,12
2,note_on,54,35,48
2,note_on,52,0,12
2,note_on,52,40,48
2,note_on,54,0,12
2,note_on,54,35,48
2,note_on,52,0,12
2,note_on,52,40,48
2,note_on,54,0,12
2,note_on,54,35,48
2,note_on,52,0,12
2,note_on,52,40,48
2,note_on,54,0,12
2,note_on,54,35,48
2,note_on,52,0,12
2,note_on,52,40,48
2,note_on,54,0,12
2,note_on,54,36,48
2,note_on,52,0,12
2,note_on,52,40,48
2,note_on,54,0,12
2,note_on,54,35,48
2,note_on,52,0,12
2,note_on,52,40,48
2,note_on,54,0,12
2,note_on,54,36,48
2,note_on,52,0,12
2,note_on,52,40,48
2,note_on,54,0,12
2,note_on,51,37,68
2,note_on,52,0,16
2,note_on,52,37,64
2,note_on,51,0,16
2,note_on,33,0,64
2,note_on,40,0,0
2,note_on,47,0,0
2,note_on,52,0,0
2,note_on,38,0,0
2,note_on,52,41,0
2,note_on,49,34,0
2,note_on,45,26,240
2,note_on,33,22,0
2,note_on,33,0,240
2,note_on,52,0,0
2,note_on,49,0,0
2,note_on,45,0,0
2,note_on,52,41,0
2,note_on,49,34,0
2,note_on,49,0,30
2,note_on,52,0,0
2,note_on,45,28,90
2,note_on,33,23,0
2,note_on,33,0,60
2,note_on,45,0,0
2,note_on,49,34,60
2,note_on,52,41,0
2,note_on,52,0,240
2,note_on,49,0,0
2,note_on,52,41,0
2,note_on,49,34,0
2,note_on,33,22,240
2,note_on,45,26,0
2,note_on,45,0,240
2,note_on,52,0,0
2,note_on,49,0,0
2,note_on,33,0,0
2,note_on,49,34,0
2,note_on,57,41,0
2,note_on,57,0,30
2,note_on,49,0,0
2,note_on,42,28,90
2,note_on,30,23,0
2,note_on,30,0,60
2,note_on,42,0,0
2,note_on,54,34,60
2,note_on,49,34,0
2,note_on,57,41,0
2,note_on,57,0,240
2,note_on,49,0,0
2,note_on,54,0,0
2,note_on,57,41,0
2,note_on,54,34,0
2,note_on,38,22,240
2,note_on,50,26,0
2,note_on,50,0,240
2,note_on,57,0,0
2,note_on,54,0,0
2,note_on,38,0,0
2,note_on,57,41,0
2,note_on,54,34,0
2,note_on,54,0,30
2,note_on,57,0,0
2,note_on,38,23,90
2,note_on,50,28,0
2,note_on,50,0,60
2,note_on,38,0,0
2,note_on,57,41,60
2,note_on,54,34,0
2,note_on,54,0,240
2,note_on,57,0,0
2,note_on,57,41,0
2,note_on,54,34,0
2,note_on,50,26,240
2,note_on,38,22,0
2,note_on,38,0,240
2,note_on,57,0,0
2,note_on,54,0,0
2,note_on,50,0,0
2,note_on,54,34,0
2,note_on,62,41,0
2,note_on,62,0,30
2,note_on,54,0,0
2,note_on,35,23,90
2,note_on,47,28,0
2,note_on,47,0,60
2,note_on,35,0,0
2,note_on,54,34,60
2,note_on,59,34,0
2,note_on,62,41,0
2,note_on,62,0,238
2,note_on,59,0,0
2,note_on,54,0,2
2,note_on,43,22,240
2,note_on,55,26,0
2,note_on,55,0,240
2,note_on,43,0,0
2,note_on,43,23,120
2,note_on,55,28,0
2,note_on,55,0,60
2,note_on,43,0,0
2,note_on,43,23,540
2,note_on,55,27,0
2,note_on,55,0,240
2,note_on,43,0,0
2,note_on,40,26,120
2,note_on,52,31,0
2,note_on,52,0,60
2,note_on,40,0,0
2,note_on,60,31,540
2,note_on,48,27,0
2,note_on,48,0,240
2,note_on,60,0,0
2,note_on,48,28,120
2,note_on,60,34,0
2,note_on,60,0,60
2,note_on,48,0,0
2,note_on,57,34,540
2,note_on,45,29,0
2,note_on,45,0,240
2,note_on,57,0,0
2,note_on,45,31,120
2,note_on,57,38,0
2,note_on,57,0,60
2,note_on,45,0,0
2,note_on,41,32,540
2,note_on,53,38,0
2,note_on,53,0,240
2,note_on,41,0,0
2,note_on,53,45,120
2,note_on,41,37,0
2,note_on,41,0,60
2,note_on,53,0,0
2,note_on,38,41,540
2,note_on,50,48,0
2,note_on,50,0,240
2,note_on,38,0,0
2,note_on,50,57,120
2,note_on,38,47,0
2,note_on,38,0,60
2,note_on,50,0,0
2,note_on,33,48,540
2,note_on,37,48,0
2,note_on,40,48,0
2,note_on,45,57,0
2,note_on,45,0,240
2,note_on,33,0,0
2,note_on,37,0,0
2,note_on,40,0,0
2,note_on,37,50,120
2,note_on,33,50,0
2,note_on,45,61,0
2,note_on,40,50,0
2,note_on,40,0,60
2,note_on,37,0,0
2,note_on,33,0,0
2,note_on,45,0,0
2,note_on,37,46,540
2,note_on,40,46,0
2,note_on,45,54,0
2,note_on,33,46,0
2,note_on,33,0,240
2,note_on,37,0,0
2,note_on,40,0,0
2,note_on,45,0,0
2,note_on,33,47,120
2,note_on,40,47,0
2,note_on,45,58,0
2,note_on,37,47,0
2,note_on,37,0,60
2,note_on,33,0,0
2,note_on,40,0,0
2,note_on,45,0,0
2,note_on,37,44,540
2,note_on,33,44,0
2,note_on,45,52,0
2,note_on,40,44,0
2,note_on,40,0,240
2,note_on,37,0,0
2,note_on,33,0,0
2,note_on,45,0,0
2,note_on,33,45,120
2,note_on,45,56,0
2,note_on,45,0,60
2,note_on,33,0,0
2,note_on,45,44,540
2,note_on,33,37,0
2,note_on,33,0,240
2,note_on,45,0,0
2,note_on,33,35,120
2,note_on,45,43,0
2,note_on,45,0,60
2,note_on,33,0,0
2,note_on,33,28,540
2,note_on,45,33,0
2,note_on,45,0,240
2,note_on,33,0,0
2,note_on,45,32,120
2,note_on,33,26,0
2,note_on,33,0,60
2,note_on,45,0,0
2,note_on,29,17,540
2,note_on,41,20,0
2,note_on,41,0,240
2,note_on,29,0,0
2,note_on,41,22,120
2,note_on,29,18,0
2,note_on,29,0,60
2,note_on,41,0,0
2,note_on,29,25,300
2,note_on,41,30,0
2,note_on,41,0,240
2,note_on,29,0,0
2,note_on,53,25,240
2,note_on,57,30,0
2,note_on,57,0,240
2,note_on,53,0,0
2,note_on,41,46,720
2,note_on,29,39,0
2,note_on,29,0,240
2,note_on,41,0,0
2,note_on,57,33,240
2,note_on,60,39,0
2,note_on,60,0,240
2,note_on,57,0,0
2,note_on,41,55,720
2,note_on,29,46,0
2,note_on,29,0,240
2,note_on,41,0,0
2,note_on,65,54,240
2,note_on,60,45,0
2,note_on,57,45,0
2,note_on,53,45,0
2,note_on,53,0,240
2,note_on,65,0,0
2,note_on,60,0,0
2,note_on,57,0,0
2,note_on,29,48,240
2,note_on,41,57,0
2,note_on,41,0,240
2,note_on,29,0,0
2,note_on,65,66,240
2,note_on,60,56,0
2,note_on,57,56,0
2,note_on,53,56,0
2,note_on,53,0,240
2,note_on,65,0,0
2,note_on,60,0,0
2,note_on,57,0,0
2,note_on,29,63,240
2,note_on,41,75,0
2,note_on,41,0,720
2,note_on,29,0,0
2,note_on,43,54,0
2,note_on,43,0,120
2,note_on,45,55,0
2,note_on,45,0,120
2,note_on,34,55,0
2,note_on,38,55,0
2,note_on,46,65,0
2,note_on,41,55,0
2,note_on,41,0,240
2,note_on,34,0,0
2,note_on,38,0,0
2,note_on,46,0,0
2,note_on,53,40,1200
2,note_on,53,0,240
2,note_on,69,46,240
2,note_on,69,0,80
2,note_on,70,40,0
2,note_on,70,0,80
2,note_on,69,46,0
2,note_on,69,0,80
2,note_on,70,40,0
2,note_on,70,0,80
2,note_on,69,44,0
2,note_on,69,0,80
2,note_on,70,40,0
2,note_on,70,0,80
2,note_on,69,45,0
2,note_on,69,0,80
2,note_on,70,40,0
2,note_on,70,0,80
2,note_on,69,44,0
2,note_on,69,0,80
2,note_on,70,40,0
2,note_on,70,0,60
2,note_on,69,44,0
2,note_on,69,0,60
2,note_on,67,40,0
2,note_on,67,0,60
2,note_on,69,40,0
2,note_on,69,0,60
2,note_on,70,52,0
2,note_on,70,0,480
2,note_on,70,52,240
2,note_on,69,46,120
2,note_on,70,0,24
2,note_on,67,46,96
2,note_on,69,0,24
2,note_on,65,46,96
2,note_on,67,0,24
2,note_on,63,48,96
2,note_on,65,0,24
2,note_on,62,43,96
2,note_on,63,0,24
2,note_on,67,52,96
2,note_on,62,0,24
2,note_on,67,0,216
2,note_on,67,52,480
2,note_on,65,46,120
2,note_on,67,0,24
2,note_on,63,46,96
2,note_on,65,0,24
2,note_on,62,46,96
2,note_on,63,0,24
2,note_on,60,49,96
2,note_on,62,0,24
2,note_on,58,45,96
2,note_on,60,0,24
2,note_on,63,52,96
2,note_on,58,0,24
2,note_on,63,0,216
2,note_on,63,52,480
2,note_on,62,46,120
2,note_on,63,0,24
2,note_on,60,52,96
2,note_on,62,0,24
2,note_on,62,46,96
2,note_on,60,0,24
2,note_on,60,46,96
2,note_on,62,0,24
2,note_on,58,46,96
2,note_on,60,0,24
2,note_on,58,0,96
2,note_on,57,53,0
2,note_on,58,47,120
2,note_on,57,0,24
2,note_on,57,47,96
2,note_on,58,0,24
2,note_on,55,47,96
2,note_on,57,0,24
2,note_on,53,52,96
2,note_on,55,0,24
2,note_on,55,47,96
2,note_on,53,0,24
2,note_on,57,48,96
2,note_on,55,0,24
2,note_on,58,48,96
2,note_on,57,0,24
2,note_on,59,52,96
2,note_on,58,0,24
2,note_on,60,49,96
2,note_on,59,0,24
2,note_on,62,49,96
2,note_on,60,0,24
2,note_on,60,49,96
2,note_on,62,0,24
2,note_on,60,0,96
2,note_on,58,52,0
2,note_on,60,47,120
2,note_on,58,0,24
2,note_on,62,47,96
2,note_on,60,0,24
2,note_on,63,47,96
2,note_on,62,0,24
2,note_on,64,52,96
2,note_on,63,0,24
2,note_on,65,45,96
2,note_on,64,0,24
2,note_on,67,45,96
2,note_on,65,0,24
2,note_on,65,45,96
2,note_on,67,0,24
2,note_on,63,52,96
2,note_on,65,0,24
2,note_on,62,48,96
2,note_on,63,0,24
2,note_on,60,48,96
2,note_on,62,0,24
2,note_on,58,48,96
2,note_on,60,0,24
2,note_on,58,0,96
2,note_on,57,52,0
2,note_on,58,47,120
2,note_on,57,0,24
2,note_on,57,47,96
2,note_on,58,0,24
2,note_on,55,47,96
2,note_on,57,0,24
2,note_on,53,53,96
2,note_on,55,0,24
2,note_on,55,47,96
2,note_on,53,0,24
2,note_on,57,48,96
2,note_on,55,0,24
2,note_on,58,48,96
2,note_on,57,0,24
2,note_on,58,0,96
2,note_on,59,54,0
2,note_on,60,47,120
2,note_on,59,0,24
2,note_on,62,48,96
2,note_on,60,0,24
2,note_on,60,48,96
2,note_on,62,0,24
2,note_on,60,0,96
2,note_on,58,55,0
2,note_on,60,48,120
2,note_on,58,0,24
2,note_on,62,49,96
2,note_on,60,0,24
2,note_on,63,49,96
2,note_on,62,0,24
2,note_on,64,56,96
2,note_on,63,0,24
2,note_on,65,51,96
2,note_on,64,0,24
2,note_on,67,52,96
2,note_on,65,0,24
2,note_on,65,52,96
2,note_on,67,0,24
2,note_on,65,0,96
2,note_on,58,57,0
2,note_on,58,0,120
2,note_on,66,52,0
2,note_on,67,53,120
2,note_on,66,0,24
2,note_on,66,53,96
2,note_on,67,0,24
2,note_on,66,0,96
2,note_on,58,61,0
2,note_on,58,0,120
2,note_on,67,53,0
2,note_on,69,53,120
2,note_on,67,0,24
2,note_on,67,53,96
2,note_on,69,0,24
2,note_on,67,0,96
2,note_on,66,59,0
2,note_on,66,0,120
2,note_on,67,55,0
2,note_on,69,55,120
2,note_on,67,0,24
2,note_on,67,55,96
2,note_on,69,0,24
2,note_on,67,0,96
2,note_on,64,60,0
2,note_on,64,0,120
2,note_on,65,54,0
2,note_on,67,54,120
2,note_on,65,0,24
2,note_on,65,55,96
2,note_on,67,0,24
2,note_on,65,0,96
2,note_on,64,61,0
2,note_on,64,0,120
2,note_on,65,57,0
2,note_on,67,57,120
2,note_on,65,0,24
2,note_on,65,57,96
2,note_on,67,0,24
2,note_on,65,0,96
2,note_on,62,62,0
2,note_on,62,0,120
2,note_on,63,58,0
2,note_on,65,59,120
2,note_on,63,0,24
2,note_on,63,59,96
2,note_on,65,0,24
2,note_on,63,0,96
2,note_on,61,63,0
2,note_on,61,0,120
2,note_on,62,59,0
2,note_on,63,59,120
2,note_on,62,0,24
2,note_on,62,59,96
2,note_on,63,0,24
2,note_on,62,0,96
2,note_on,61,65,0
2,note_on,61,0,120
2,note_on,62,58,0
2,note_on,63,58,120
2,note_on,62,0,24
2,note_on,62,58,96
2,note_on,63,0,24
2,note_on,62,0,96
2,note_on,59,65,0
2,note_on,59,0,120
2,note_on,60,60,0
2,note_on,60,0,120
2,note_on,62,60,0
2,note_on,62,0,120
2,note_on,60,60,0
2,note_on,60,0,120
2,note_on,57,65,0
2,note_on,57,0,120
2,note_on,58,58,0
2,note_on,58,0,120
2,note_on,60,58,0
2,note_on,60,0,120
2,note_on,58,58,0
2,note_on,58,0,120
2,note_on,57,65,240
2,note_on,57,0,120
2,note_on,69,76,120
2,note_on,69,0,720
2,note_on,53,65,480
2,note_on,53,0,120
2,note_on,65,76,120
2,note_on,65,0,720
2,note_on,50,61,480
2,note_on,50,0,120
2,note_on,62,68,120
2,note_on,60,61,240
2,note_on,62,0,24
2,note_on,58,60,216
2,note_on,60,0,24
2,note_on,59,60,216
2,note_on,58,0,24
2,note_on,60,70,216
2,note_on,59,0,24
2,note_on,60,0,96
2,note_on,58,71,360
2,note_on,58,0,720
2,note_on,58,59,0
2,note_on,58,0,240
2,note_on,58,65,0
2,note_on,57,59,240
2,note_on,58,0,24
2,note_on,55,59,216
2,note_on,57,0,24
2,note_on,53,59,216
2,note_on,55,0,24
2,note_on,52,59,216
2,note_on,53,0,24
2,note_on,53,59,216
2,note_on,52,0,24
2,note_on,53,0,216
2,note_on,60,69,0
2,note_on,60,0,120
2,note_on,58,68,360
2,note_on,58,0,720
2,note_on,57,65,0
2,note_on,57,0,240
2,note_on,62,71,0
2,note_on,62,0,120
2,note_on,61,70,360
2,note_on,61,0,720
2,note_on,60,62,0
2,note_on,60,0,240
2,note_on,65,71,0
2,note_on,65,0,120
2,note_on,64,70,360
2,note_on,64,0,720
2,note_on,63,61,0
2,note_on,63,0,240
2,note_on,41,73,0
2,note_on,41,0,240
2,note_on,57,70,240
2,note_on,57,0,80
2,note_on,58,62,0
2,note_on,58,0,80
2,note_on,57,70,0
2,note_on,57,0,80
2,note_on,58,63,0
2,note_on,58,0,80
2,note_on,57,70,0
2,note_on,57,0,80
2,note_on,58,63,0
2,note_on,58,0,80
2,note_on,57,70,0
2,note_on,57,0,80
2,note_on,58,64,0
2,note_on,58,0,80
2,note_on,57,70,0
2,note_on,57,0,80
2,note_on,58,63,0
2,note_on,58,0,60
2,note_on,57,70,0
2,note_on,57,0,60
2,note_on,55,65,0
2,note_on,55,0,60
2,note_on,57,65,0
2,note_on,57,0,60
2,note_on,58,72,0
2,note_on,58,0,480
2,note_on,58,62,240
2,note_on,57,52,120
2,note_on,58,0,24
2,note_on,55,52,96
2,note_on,57,0,24
2,note_on,53,52,96
2,note_on,55,0,24
2,note_on,51,58,96
2,note_on,53,0,24
2,note_on,50,51,96
2,note_on,51,0,24
2,note_on,55,69,96
2,note_on,50,0,24
2,note_on,55,0,456
2,note_on,55,62,240
2,note_on,53,52,120
2,note_on,55,0,24
2,note_on,51,52,96
2,note_on,53,0,24
2,note_on,50,52,96
2,note_on,51,0,24
2,note_on,48,58,96
2,note_on,50,0,24
2,note_on,46,51,96
2,note_on,48,0,24
2,note_on,51,69,96
2,note_on,46,0,24
2,note_on,51,0,456
2,note_on,51,56,240
2,note_on,50,55,120
2,note_on,51,0,24
2,note_on,48,54,96
2,note_on,50,0,24
2,note_on,50,53,96
2,note_on,48,0,24
2,note_on,48,51,96
2,note_on,50,0,24
2,note_on,46,52,96
2,note_on,48,0,24
2,note_on,45,56,96
2,note_on,46,0,24
2,note_on,46,50,96
2,note_on,45,0,24
2,note_on,45,50,96
2,note_on,46,0,24
2,note_on,43,50,96
2,note_on,45,0,24
2,note_on,43,0,96
2,note_on,41,50,0
2,note_on,41,0,120
2,note_on,43,52,0
2,note_on,45,48,120
2,note_on,43,0,24
2,note_on,46,48,96
2,note_on,45,0,24
2,note_on,47,48,96
2,note_on,46,0,24
2,note_on,48,48,96
2,note_on,47,0,24
2,note_on,50,48,96
2,note_on,48,0,24
2,note_on,48,48,96
2,note_on,50,0,24
2,note_on,48,0,96
2,note_on,46,51,0
2,note_on,48,51,120
2,note_on,46,0,24
2,note_on,50,51,96
2,note_on,48,0,24
2,note_on,51,52,96
2,note_on,50,0,24
2,note_on,52,53,96
2,note_on,51,0,24
2,note_on,53,53,96
2,note_on,52,0,24
2,note_on,55,54,96
2,note_on,53,0,24
2,note_on,53,51,96
2,note_on,55,0,24
2,note_on,51,54,96
2,note_on,53,0,24
2,note_on,50,53,96
2,note_on,51,0,24
2,note_on,48,52,96
2,note_on,50,0,24
2,note_on,46,51,96
2,note_on,48,0,24
2,note_on,45,56,96
2,note_on,46,0,24
2,note_on,46,50,96
2,note_on,45,0,24
2,note_on,45,50,96
2,note_on,46,0,24
2,note_on,43,50,96
2,note_on,45,0,24
2,note_on,43,0,96
2,note_on,41,50,0
2,note_on,41,0,120
2,note_on,43,52,0
2,note_on,45,48,120
2,note_on,43,0,24
2,note_on,46,48,96
2,note_on,45,0,24
2,note_on,45,48,96
2,note_on,46,0,24
2,note_on,46,48,96
2,note_on,45,0,24
2,note_on,48,48,96
2,note_on,46,0,24
2,note_on,50,48,96
2,note_on,48,0,24
2,note_on,50,0,96
2,note_on,51,51,0
2,note_on,53,51,120
2,note_on,51,0,24
2,note_on,55,51,96
2,note_on,53,0,24
2,note_on,51,52,96
2,note_on,55,0,24
2,note_on,49,53,96
2,note_on,51,0,24
2,note_on,50,53,96
2,note_on,49,0,24
2,note_on,52,54,96
2,note_on,50,0,24
2,note_on,49,51,96
2,note_on,52,0,24
2,note_on,50,54,96
2,note_on,49,0,24
2,note_on,50,0,96
2,note_on,53,53,0
2,note_on,53,0,120
2,note_on,58,52,0
2,note_on,58,0,120
2,note_on,62,51,0
2,note_on,62,0,120
2,note_on,54,56,0
2,note_on,55,50,120
2,note_on,54,0,24
2,note_on,57,50,96
2,note_on,55,0,24
2,note_on,55,50,96
2,note_on,57,0,24
2,note_on,55,0,96
2,note_on,51,50,0
2,note_on,51,0,120
2,note_on,52,52,0
2,note_on,53,48,120
2,note_on,52,0,24
2,note_on,52,48,96
2,note_on,53,0,24
2,note_on,53,48,96
2,note_on,52,0,24
2,note_on,53,0,96
2,note_on,57,48,0
2,note_on,57,0,120
2,note_on,60,48,0
2,note_on,60,0,120
2,note_on,65,48,0
2,note_on,65,0,120
2,note_on,59,51,0
2,note_on,60,51,120
2,note_on,59,0,24
2,note_on,62,51,96
2,note_on,60,0,24
2,note_on,60,52,96
2,note_on,62,0,24
2,note_on,56,53,96
2,note_on,60,0,24
2,note_on,57,53,96
2,note_on,56,0,24
2,note_on,58,54,96
2,note_on,57,0,24
2,note_on,57,51,96
2,note_on,58,0,24
2,note_on,58,54,96
2,note_on,57,0,24
2,note_on,57,53,96
2,note_on,58,0,24
2,note_on,55,52,96
2,note_on,57,0,24
2,note_on,53,51,96
2,note_on,55,0,24
2,note_on,51,51,96
2,note_on,53,0,24
2,note_on,53,51,96
2,note_on,51,0,24
2,note_on,55,51,96
2,note_on,53,0,24
2,note_on,51,52,96
2,note_on,55,0,24
2,note_on,50,53,96
2,note_on,51,0,24
2,note_on,49,53,96
2,note_on,50,0,24
2,note_on,48,54,96
2,note_on,49,0,24
2,note_on,49,51,96
2,note_on,48,0,24
2,note_on,50,54,96
2,note_on,49,0,24
2,note_on,52,53,96
2,note_on,50,0,24
2,note_on,53,52,96
2,note_on,52,0,24
2,note_on,54,51,96
2,note_on,53,0,24
2,note_on,55,51,96
2,note_on,54,0,24
2,note_on,57,51,96
2,note_on,55,0,24
2,note_on,58,51,96
2,note_on,57,0,24
2,note_on,59,52,96
2,note_on,58,0,24
2,note_on,48,53,96
2,note_on,59,0,24
2,note_on,48,0,96
2,note_on,52,53,0
2,note_on,52,0,120
2,note_on,55,54,0
2,note_on,55,0,120
2,note_on,60,51,0
2,note_on,60,0,120
2,note_on,53,54,0
2,note_on,55,53,120
2,note_on,53,0,24
2,note_on,56,52,96
2,note_on,55,0,24
2,note_on,57,51,96
2,note_on,56,0,24
2,note_on,46,51,96
2,note_on,57,0,24
2,note_on,46,0,96
2,note_on,50,51,0
2,note_on,50,0,120
2,note_on,53,51,0
2,note_on,53,0,120
2,note_on,58,52,0
2,note_on,58,0,120
2,note_on,52,53,0
2,note_on,52,0,120
2,note_on,55,53,0
2,note_on,55,0,120
2,note_on,58,54,0
2,note_on,58,0,120
2,note_on,64,51,0
2,note_on,64,0,120
2,note_on,55,54,0
2,note_on,55,0,120
2,note_on,52,53,0
2,note_on,52,0,120
2,note_on,55,52,0
2,note_on,55,0,120
2,note_on,52,51,0
2,note_on,52,0,120
2,note_on,41,67,960
2,note_on,41,0,240
2,note_on,57,70,240
2,note_on,57,0,80
2,note_on,58,64,0
2,note_on,58,0,80
2,note_on,57,70,0
2,note_on,57,0,80
2,note_on,58,62,0
2,note_on,58,0,80
2,note_on,57,70,0
2,note_on,57,0,80
2,note_on,58,62,0
2,note_on,58,0,80
2,note_on,57,68,0
2,note_on,57,0,80
2,note_on,58,59,0
2,note_on,58,0,80
2,note_on,57,68,0
2,note_on,57,0,80
2,note_on,58,61,0
2,note_on,58,0,60
2,note_on,57,68,0
2,note_on,57,0,60
2,note_on,55,63,0
2,note_on,55,0,60
2,note_on,57,63,0
2,note_on,57,0,60
2,note_on,58,63,0
2,note_on,58,0,480
2,note_on,43,67,960
2,note_on,43,0,240
2,note_on,59,70,240
2,note_on,59,0,80
2,note_on,60,64,0
2,note_on,60,0,80
2,note_on,59,70,0
2,note_on,59,0,80
2,note_on,60,62,0
2,note_on,60,0,80
2,note_on,59,70,0
2,note_on,59,0,80
2,note_on,60,62,0
2,note_on,60,0,80
2,note_on,59,68,0
2,note_on,59,0,80
2,note_on,60,59,0
2,note_on,60,0,80
2,note_on,59,68,0
2,note_on,59,0,80
2,note_on,60,61,0
2,note_on,60,0,60
2,note_on,59,68,0
2,note_on,59,0,60
2,note_on,57,63,0
2,note_on,57,0,60
2,note_on,59,63,0
2,note_on,59,0,60
2,note_on,60,63,0
2,note_on,60,0,240
2,note_on,44,63,0
2,note_on,44,0,240
2,note_on,60,70,0
2,note_on,60,0,80
2,note_on,61,64,0
2,note_on,61,0,80
2,note_on,60,70,0
2,note_on,60,0,80
2,note_on,61,62,0
2,note_on,61,0,80
2,note_on,60,70,0
2,note_on,60,0,80
2,note_on,61,62,0
2,note_on,61,0,80
2,note_on,60,68,0
2,note_on,60,0,80
2,note_on,61,59,0
2,note_on,61,0,80
2,note_on,60,68,0
2,note_on,60,0,80
2,note_on,61,61,0
2,note_on,61,0,60
2,note_on,60,68,0
2,note_on,60,0,60
2,note_on,58,63,0
2,note_on,58,0,60
2,note_on,60,63,0
2,note_on,60,0,60
2,note_on,61,63,0
2,note_on,61,0,480
2,note_on,61,61,240
2,note_on,61,0,120
2,note_on,60,61,0
2,note_on,60,0,120
2,note_on,58,67,0
2,note_on,58,0,120
2,note_on,56,61,0
2,note_on,56,0,120
2,note_on,54,61,0
2,note_on,54,0,120
2,note_on,53,61,0
2,note_on,53,0,120
2,note_on,58,69,0
2,note_on,58,0,480
2,note_on,58,63,240
2,note_on,58,0,120
2,note_on,56,61,0
2,note_on,56,0,120
2,note_on,54,57,0
2,note_on,54,0,120
2,note_on,53,58,0
2,note_on,53,0,120
2,note_on,51,58,0
2,note_on,51,0,120
2,note_on,49,58,0
2,note_on,49,0,120
2,note_on,54,64,0
2,note_on,54,0,480
2,note_on,54,61,240
2,note_on,54,0,120
2,note_on,53,56,0
2,note_on,53,0,120
2,note_on,51,61,0
2,note_on,51,0,120
2,note_on,53,57,0
2,note_on,53,0,120
2,note_on,51,57,0
2,note_on,51,0,120
2,note_on,49,57,0
2,note_on,49,0,120
2,note_on,48,61,0
2,note_on,48,0,120
2,note_on,49,55,0
2,note_on,49,0,120
2,note_on,48,55,0
2,note_on,48,0,120
2,note_on,46,55,0
2,note_on,46,0,120
2,note_on,44,61,0
2,note_on,44,0,120
2,note_on,46,55,0
2,note_on,46,0,120
2,note_on,48,56,0
2,note_on,48,0,120
2,note_on,49,57,0
2,note_on,49,0,120
2,note_on,50,62,0
2,note_on,50,0,120
2,note_on,51,57,0
2,note_on,51,0,120
2,note_on,53,57,0
2,note_on,53,0,120
2,note_on,51,57,0
2,note_on,51,0,120
2,note_on,49,57,0
2,note_on,49,0,120
2,note_on,51,57,0
2,note_on,51,0,120
2,note_on,53,59,0
2,note_on,53,0,120
2,note_on,54,59,0
2,note_on,54,0,120
2,note_on,55,61,0
2,note_on,55,0,120
2,note_on,56,62,0
2,note_on,56,0,120
2,note_on,58,66,0
2,note_on,58,0,120
2,note_on,56,62,0
2,note_on,56,0,120
2,note_on,54,61,0
2,note_on,54,0,120
2,note_on,53,62,0
2,note_on,53,0,120
2,note_on,51,60,0
2,note_on,51,0,120
2,note_on,49,58,0
2,note_on,49,0,120
2,note_on,44,70,0
2,note_on,44,0,240
2,note_on,51,86,240
2,note_on,42,75,0
2,note_on,42,0,720
2,note_on,51,0,0
2,note_on,42,65,0
2,note_on,51,74,0
2,note_on,51,0,240
2,note_on,42,0,0
2,note_on,51,80,0
2,note_on,42,70,0
2,note_on,42,0,240
2,note_on,51,0,0
2,note_on,41,65,0
2,note_on,49,74,0
2,note_on,49,0,240
2,note_on,41,0,0
2,note_on,39,70,0
2,note_on,48,80,0
2,note_on,48,0,240
2,note_on,39,0,0
2,note_on,49,77,0
2,note_on,37,67,0
2,note_on,37,0,240
2,note_on,49,0,0
2,note_on,48,70,0
2,note_on,51,80,0
2,note_on,51,0,240
2,note_on,48,0,0
2,note_on,53,72,0
2,note_on,49,63,0
2,note_on,49,0,240
2,note_on,53,0,0
2,note_on,37,63,1440
2,note_on,49,72,0
2,note_on,49,0,240
2,note_on,37,0,0
2,note_on,36,70,240
2,note_on,48,80,0
2,note_on,48,0,720
2,note_on,36,0,0
2,note_on,46,73,0
2,note_on,34,64,0
2,note_on,34,0,240
2,note_on,46,0,0
2,note_on,51,81,0
2,note_on,39,71,0
2,note_on,39,0,480
2,note_on,51,0,0
2,note_on,43,63,960
2,note_on,55,72,0
2,note_on,55,0,240
2,note_on,43,0,0
2,note_on,41,70,240
2,note_on,53,80,0
2,note_on,53,0,720
2,note_on,41,0,0
2,note_on,51,72,0
2,note_on,39,63,0
2,note_on,39,0,240
2,note_on,51,0,0
2,note_on,56,80,0
2,note_on,44,70,0
2,note_on,44,0,480
2,note_on,56,0,0
2,note_on,55,72,480
2,note_on,43,63,0
2,note_on,43,0,240
2,note_on,55,0,0
2,note_on,43,69,240
2,note_on,55,79,0
2,note_on,55,0,240
2,note_on,43,0,0
2,note_on,41,67,0
2,note_on,53,77,0
2,note_on,53,0,240
2,note_on,41,0,0
2,note_on,63,68,480
2,note_on,51,68,0
2,note_on,51,0,240
2,note_on,63,0,0
2,note_on,63,68,240
2,note_on,63,0,240
2,note_on,61,60,0
2,note_on,61,0,230
2,note_on,61,68,10
2,note_on,61,0,240
2,note_on,60,59,0
2,note_on,60,0,240
2,note_on,48,66,240
2,note_on,48,0,120
2,note_on,60,74,120
2,note_on,60,0,480
2,note_on,44,66,720
2,note_on,44,0,120
2,note_on,56,74,120
2,note_on,56,0,480
2,note_on,41,59,720
2,note_on,41,0,120
2,note_on,53,66,120
2,note_on,53,0,120
2,note_on,57,58,120
2,note_on,57,0,120
2,note_on,58,68,120
2,note_on,58,0,240
2,note_on,62,57,0
2,note_on,62,0,240
2,note_on,63,62,0
2,note_on,63,0,240
2,note_on,58,67,240
2,note_on,61,73,0
2,note_on,61,0,718
2,note_on,58,0,0
2,note_on,61,69,2
2,note_on,58,63,0
2,note_on,58,0,238
2,note_on,61,0,0
2,note_on,58,65,2
2,note_on,61,71,0
2,note_on,61,0,240
2,note_on,58,0,0
2,note_on,60,68,0
2,note_on,56,62,0
2,note_on,56,0,240
2,note_on,60,0,0
2,note_on,49,64,0
2,note_on,58,70,0
2,note_on,58,0,240
2,note_on,49,0,0
2,note_on,56,62,0
2,note_on,48,57,0
2,note_on,48,0,240
2,note_on,56,0,0
2,note_on,55,72,0
2,note_on,46,66,0
2,note_on,46,0,240
2,note_on,55,0,0
2,note_on,56,68,0
2,note_on,48,62,0
2,note_on,48,0,240
2,note_on,56,0,0
2,note_on,43,60,0
2,note_on,44,55,120
2,note_on,43,0,24
2,note_on,43,55,96
2,note_on,44,0,24
2,note_on,41,55,96
2,note_on,43,0,24
2,note_on,39,55,96
2,note_on,41,0,24
2,note_on,41,54,96
2,note_on,39,0,24
2,note_on,43,56,96
2,note_on,41,0,24
2,note_on,44,57,96
2,note_on,43,0,24
2,note_on,44,0,96
2,note_on,45,59,0
2,note_on,45,0,120
2,note_on,46,61,0
2,note_on,48,62,120
2,note_on,46,0,24
2,note_on,46,60,96
2,note_on,48,0,24
2,note_on,43,62,96
2,note_on,46,0,24
2,note_on,44,57,96
2,note_on,43,0,24
2,note_on,46,61,96
2,note_on,44,0,24
2,note_on,48,62,96
2,note_on,46,0,24
2,note_on,49,64,96
2,note_on,48,0,24
2,note_on,51,65,96
2,note_on,49,0,24
2,note_on,53,67,96
2,note_on,51,0,24
2,note_on,51,63,96
2,note_on,53,0,24
2,note_on,51,0,96
2,note_on,49,72,0
2,note_on,49,0,120
2,note_on,48,71,0
2,note_on,48,0,120
2,note_on,46,69,0
2,note_on,46,0,120
2,note_on,44,63,0
2,note_on,44,0,120
2,note_on,63,71,0
2,note_on,54,65,0
2,note_on,54,0,240
2,note_on,63,0,0
2,note_on,61,68,0
2,note_on,53,62,0
2,note_on,53,0,240
2,note_on,61,0,0
2,note_on,51,64,0
2,note_on,60,70,0
2,note_on,60,0,240
2,note_on,51,0,0
2,note_on,49,57,0
2,note_on,58,62,0
2,note_on,58,0,240
2,note_on,49,0,0
2,note_on,57,72,0
2,note_on,48,66,0
2,note_on,48,0,240
2,note_on,57,0,0
2,note_on,49,62,0
2,note_on,58,68,0
2,note_on,58,0,240
2,note_on,49,0,0
2,note_on,45,62,0
2,note_on,46,57,120
2,note_on,45,0,24
2,note_on,48,61,96
2,note_on,46,0,24
2,note_on,49,62,96
2,note_on,48,0,24
2,note_on,51,64,96
2,note_on,49,0,24
2,note_on,53,65,96
2,note_on,51,0,24
2,note_on,54,67,96
2,note_on,53,0,24
2,note_on,53,63,96
2,note_on,54,0,24
2,note_on,53,0,96
2,note_on,51,72,0
2,note_on,51,0,120
2,note_on,49,71,0
2,note_on,49,0,120
2,note_on,48,69,0
2,note_on,48,0,120
2,note_on,46,63,0
2,note_on,46,0,120
2,note_on,44,71,0
2,note_on,43,68,240
2,note_on,44,0,24
2,note_on,41,70,216
2,note_on,43,0,24
2,note_on,39,62,216
2,note_on,41,0,24
2,note_on,38,72,216
2,note_on,39,0,24
2,note_on,39,68,216
2,note_on,38,0,24
2,note_on,39,0,216
2,note_on,46,71,0
2,note_on,44,68,240
2,note_on,46,0,24
2,note_on,43,70,216
2,note_on,44,0,24
2,note_on,41,62,216
2,note_on,43,0,24
2,note_on,40,72,216
2,note_on,41,0,24
2,note_on,41,68,216
2,note_on,40,0,24
2,note_on,41,0,216
2,note_on,53,62,0
2,note_on,54,57,120
2,note_on,53,0,24
2,note_on,56,61,96
2,note_on,54,0,24
2,note_on,58,62,96
2,note_on,56,0,24
2,note_on,59,64,96
2,note_on,58,0,24
2,note_on,61,65,96
2,note_on,59,0,24
2,note_on,63,67,96
2,note_on,61,0,24
2,note_on,61,63,96
2,note_on,63,0,24
2,note_on,59,72,96
2,note_on,61,0,24
2,note_on,58,71,96
2,note_on,59,0,24
2,note_on,56,69,96
2,note_on,58,0,24
2,note_on,54,63,96
2,note_on,56,0,24
2,note_on,54,0,96
2,note_on,43,62,0
2,note_on,44,57,120
2,note_on,43,0,24
2,note_on,46,61,96
2,note_on,44,0,24
2,note_on,47,62,96
2,note_on,46,0,24
2,note_on,49,64,96
2,note_on,47,0,24
2,note_on,51,65,96
2,note_on,49,0,24
2,note_on,52,67,96
2,note_on,51,0,24
2,note_on,51,63,96
2,note_on,52,0,24
2,note_on,49,72,96
2,note_on,51,0,24
2,note_on,47,71,96
2,note_on,49,0,24
2,note_on,46,69,96
2,note_on,47,0,24
2,note_on,44,63,96
2,note_on,46,0,24
2,note_on,42,63,96
2,note_on,44,0,24
2,note_on,40,63,96
2,note_on,42,0,24
2,note_on,39,63,96
2,note_on,40,0,24
2,note_on,38,63,96
2,note_on,39,0,24
2,note_on,38,0,96
2,note_on,39,63,0
2,note_on,39,0,120
2,note_on,43,63,0
2,note_on,43,0,120
2,note_on,46,63,0
2,note_on,46,0,120
2,note_on,51,63,0
2,note_on,51,0,120
2,note_on,43,60,0
2,note_on,55,84,0
2,note_on,55,0,80
2,note_on,56,70,0
2,note_on,56,0,80
2,note_on,55,74,0
2,note_on,55,0,80
2,note_on,56,67,0
2,note_on,56,0,80
2,note_on,55,73,0
2,note_on,55,0,80
2,note_on,56,64,0
2,note_on,56,0,80
2,note_on,55,72,0
2,note_on,55,0,80
2,note_on,56,64,0
2,note_on,56,0,80
2,note_on,55,70,0
2,note_on,55,0,80
2,note_on,56,64,0
2,note_on,56,0,60
2,note_on,55,75,0
2,note_on,55,0,60
2,note_on,53,65,0
2,note_on,53,0,60
2,note_on,55,70,0
2,note_on,55,0,60
2,note_on,43,0,0
2,note_on,44,75,0
2,note_on,56,83,0
2,note_on,56,0,960
2,note_on,44,0,0
2,note_on,51,70,0
2,note_on,39,59,0
2,note_on,39,0,480
2,note_on,51,0,0
2,note_on,37,59,0
2,note_on,49,70,0
2,note_on,49,0,480
2,note_on,37,0,0
2,note_on,41,60,0
2,note_on,53,84,0
2,note_on,53,0,80
2,note_on,54,70,0
2,note_on,54,0,80
2,note_on,53,74,0
2,note_on,53,0,80
2,note_on,54,67,0
2,note_on,54,0,80
2,note_on,53,73,0
2,note_on,53,0,80
2,note_on,54,64,0
2,note_on,54,0,80
2,note_on,53,72,0
2,note_on,53,0,80
2,note_on,54,64,0
2,note_on,54,0,80
2,note_on,53,70,0
2,note_on,53,0,80
2,note_on,54,64,0
2,note_on,54,0,60
2,note_on,53,75,0
2,note_on,53,0,60
2,note_on,51,65,0
2,note_on,51,0,60
2,note_on,53,70,0
2,note_on,53,0,60
2,note_on,41,0,0
2,note_on,54,83,0
2,note_on,42,75,0
2,note_on,42,0,480
2,note_on,54,0,0
2,note_on,37,59,0
2,note_on,49,70,0
2,note_on,49,0,480
2,note_on,37,0,0
2,note_on,39,47,0
2,note_on,51,56,0
2,note_on,51,0,480
2,note_on,39,0,0
2,note_on,47,56,0
2,note_on,35,47,0
2,note_on,35,0,720
2,note_on,47,0,0
2,note_on,46,45,0
2,note_on,34,38,0
2,note_on,34,0,240
2,note_on,46,0,0
2,note_on,44,45,0
2,note_on,32,38,0
2,note_on,32,0,240
2,note_on,44,0,0
2,note_on,46,45,0
2,note_on,34,38,0
2,note_on,34,0,240
2,note_on,46,0,0
2,note_on,35,38,0
2,note_on,47,45,0
2,note_on,47,0,240
2,note_on,35,0,0
2,note_on,49,45,0
2,note_on,37,38,0
2,note_on,37,0,240
2,note_on,49,0,0
2,note_on,30,39,0
2,note_on,42,39,0
2,note_on,42,0,480
2,note_on,30,0,0
2,note_on,49,35,600
2,note_on,49,0,120
2,note_on,51,35,0
2,note_on,51,0,120
2,note_on,53,35,0
2,note_on,53,0,120
2,note_on,54,40,0
2,note_on,54,0,120
2,note_on,46,35,0
2,note_on,46,0,120
2,note_on,49,35,0
2,note_on,49,0,120
2,note_on,54,35,0
2,note_on,54,0,120
2,note_on,58,51,0
2,note_on,58,0,120
2,note_on,59,54,120
2,note_on,59,0,120
2,note_on,61,56,120
2,note_on,61,0,480
2,note_on,56,44,1080
2,note_on,56,0,120
2,note_on,58,46,0
2,note_on,58,0,120
2,note_on,60,48,0
2,note_on,60,0,120
2,note_on,61,50,0
2,note_on,61,0,120
2,note_on,53,43,0
2,note_on,53,0,120
2,note_on,56,45,0
2,note_on,56,0,120
2,note_on,61,45,0
2,note_on,61,0,120
2,note_on,53,73,0
2,note_on,53,0,120
2,note_on,54,75,120
2,note_on,54,0,120
2,note_on,56,78,120
2,note_on,56,0,600
2,note_on,65,56,0
2,note_on,65,0,120
2,note_on,63,56,0
2,note_on,63,0,120
2,note_on,61,56,0
2,note_on,61,0,120
2,note_on,60,56,0
2,note_on,60,0,120
2,note_on,58,56,0
2,note_on,58,0,120
2,note_on,56,56,0
2,note_on,56,0,120
2,note_on,54,56,0
2,note_on,54,0,120
2,note_on,53,56,0
2,note_on,53,0,240
2,note_on,56,56,0
2,note_on,56,0,240
2,note_on,54,56,0
2,note_on,54,0,115
2,note_on,54,56,5
2,note_on,54,0,120
2,note_on,58,56,0
2,note_on,58,0,120
2,note_on,63,56,0
2,note_on,63,0,120
2,note_on,62,56,600
2,note_on,62,0,120
2,note_on,63,56,0
2,note_on,63,0,120
2,note_on,65,56,0
2,note_on,65,0,120
2,note_on,63,56,0
2,note_on,63,0,120
2,note_on,54,56,0
2,note_on,54,0,120
2,note_on,58,56,0
2,note_on,58,0,120
2,note_on,51,56,0
2,note_on,51,0,120
2,note_on,54,64,0
2,note_on,54,0,120
2,note_on,56,64,120
2,note_on,56,0,120
2,note_on,58,64,120
2,note_on,58,0,600
2,note_on,54,56,0
2,note_on,54,0,120
2,note_on,53,56,0
2,note_on,53,0,120
2,note_on,51,56,0
2,note_on,51,0,120
2,note_on,50,56,0
2,note_on,50,0,120
2,note_on,47,56,0
2,note_on,47,0,120
2,note_on,46,56,0
2,note_on,46,0,120
2,note_on,44,56,0
2,note_on,44,0,120
2,note_on,43,64,0
2,note_on,43,0,120
2,note_on,44,64,120
2,note_on,44,0,120
2,note_on,46,69,120
2,note_on,46,0,120
2,note_on,47,74,120
2,note_on,47,0,120
2,note_on,59,77,120
2,note_on,59,0,600
2,note_on,56,56,0
2,note_on,56,0,120
2,note_on,54,56,0
2,note_on,54,0,120
2,note_on,53,56,0
2,note_on,53,0,120
2,note_on,51,56,0
2,note_on,58,56,0
2,note_on,51,0,480
2,note_on,50,56,0
2,note_on,50,0,480
2,note_on,58,0,0
2,note_on,73,50,0
2,note_on,73,0,80
2,note_on,75,44,0
2,note_on,75,0,80
2,note_on,73,50,0
2,note_on,73,0,80
2,note_on,75,46,0
2,note_on,75,0,80
2,note_on,73,52,0
2,note_on,73,0,80
2,note_on,75,47,0
2,note_on,75,0,80
2,note_on,73,53,0
2,note_on,73,0,80
2,note_on,75,45,0
2,note_on,75,0,80
2,note_on,73,53,0
2,note_on,73,0,80
2,note_on,75,47,0
2,note_on,75,0,80
2,note_on,73,54,0
2,note_on,73,0,80
2,note_on,75,49,0
2,note_on,75,0,80
2,note_on,73,56,0
2,note_on,73,0,80
2,note_on,75,49,0
2,note_on,75,0,80
2,note_on,73,56,0
2,note_on,73,0,80
2,note_on,75,51,0
2,note_on,75,0,80
2,note_on,73,56,0
2,note_on,73,0,80
2,note_on,75,50,0
2,note_on,75,0,80
2,note_on,73,56,0
2,note_on,73,0,80
2,note_on,75,50,0
2,note_on,75,0,80
2,note_on,73,56,0
2,note_on,73,0,80
2,note_on,75,51,0
2,note_on,75,0,60
2,note_on,73,56,0
2,note_on,73,0,60
2,note_on,71,48,0
2,note_on,71,0,60
2,note_on,73,48,0
2,note_on,73,0,60
2,note_on,75,61,0
2,note_on,47,87,480
2,note_on,47,0,120
2,note_on,75,0,360
2,note_on,59,96,0
2,note_on,59,0,960
2,note_on,44,87,1440
2,note_on,44,0,120
2,note_on,56,96,360
2,note_on,56,0,960
2,note_on,41,87,1440
2,note_on,41,0,120
2,note_on,53,96,360
2,note_on,53,0,960
2,note_on,53,67,960
2,note_on,62,79,0
2,note_on,62,0,120
2,note_on,53,0,0
2,note_on,63,71,120
2,note_on,54,60,0
2,note_on,54,0,120
2,note_on,63,0,0
2,note_on,53,66,120
2,note_on,62,78,0
2,note_on,62,0,120
2,note_on,53,0,0
2,note_on,51,60,120
2,note_on,60,71,0
2,note_on,60,0,120
2,note_on,51,0,0
2,note_on,50,67,120
2,note_on,58,79,0
2,note_on,58,0,120
2,note_on,50,0,0
2,note_on,51,60,120
2,note_on,60,71,0
2,note_on,60,0,120
2,note_on,51,0,0
2,note_on,53,67,120
2,note_on,62,79,0
2,note_on,62,0,120
2,note_on,53,0,0
2,note_on,63,71,120
2,note_on,54,60,0
2,note_on,54,0,120
2,note_on,63,0,0
2,note_on,55,67,120
2,note_on,64,79,0
2,note_on,64,0,120
2,note_on,55,0,0
2,note_on,65,71,120
2,note_on,56,60,0
2,note_on,56,0,120
2,note_on,65,0,0
2,note_on,58,65,120
2,note_on,66,77,0
2,note_on,66,0,120
2,note_on,58,0,0
2,note_on,56,60,120
2,note_on,65,71,0
2,note_on,65,0,120
2,note_on,56,0,0
2,note_on,54,65,120
2,note_on,63,77,0
2,note_on,63,0,120
2,note_on,54,0,0
2,note_on,65,71,120
2,note_on,56,60,0
2,note_on,56,0,120
2,note_on,65,0,0
2,note_on,58,66,120
2,note_on,66,78,0
2,note_on,66,0,120
2,note_on,58,0,0
2,note_on,59,60,120
2,note_on,68,71,0
2,note_on,68,0,120
2,note_on,59,0,0
2,note_on,69,78,120
2,note_on,65,66,0
2,note_on,65,0,120
2,note_on,69,0,0
2,note_on,66,60,120
2,note_on,70,71,0
2,note_on,70,0,120
2,note_on,66,0,0
2,note_on,71,79,120
2,note_on,68,67,0
2,note_on,68,0,120
2,note_on,71,0,0
2,note_on,66,60,120
2,note_on,70,71,0
2,note_on,70,0,120
2,note_on,66,0,0
2,note_on,59,67,120
2,note_on,68,79,0
2,note_on,68,0,120
2,note_on,59,0,0
2,note_on,66,71,120
2,note_on,58,60,0
2,note_on,58,0,120
2,note_on,66,0,0
2,note_on,34,84,120
2,note_on,46,99,0
2,note_on,46,0,1440
2,note_on,34,0,0
2,note_on,44,99,0
2,note_on,32,84,0
2,note_on,32,0,1440
2,note_on,44,0,0
2,note_on,32,84,0
2,note_on,44,99,0
2,note_on,44,0,720
2,note_on,32,0,0
2,note_on,42,99,240
2,note_on,30,84,0
2,note_on,30,0,120
2,note_on,42,0,0
2,note_on,41,99,360
2,note_on,29,84,0
2,note_on,29,0,120
2,note_on,41,0,0
2,note_on,39,99,360
2,note_on,27,84,0
2,note_on,27,0,120
2,note_on,39,0,0
2,note_on,26,84,360
2,note_on,38,99,0
2,note_on,38,0,120
2,note_on,26,0,0
2,note_on,27,84,360
2,note_on,39,99,0
2,note_on,39,0,120
2,note_on,27,0,0
2,note_on,58,60,120
2,note_on,58,0,120
2,note_on,56,68,120
2,note_on,56,0,120
2,note_on,54,60,120
2,note_on,54,0,120
2,note_on,53,68,120
2,note_on,53,0,120
2,note_on,51,60,120
2,note_on,51,0,120
2,note_on,49,66,120
2,note_on,58,78,0
2,note_on,58,0,120
2,note_on,49,0,0
2,note_on,57,71,120
2,note_on,48,60,0
2,note_on,48,0,120
2,note_on,57,0,0
2,note_on,46,60,120
2,note_on,54,71,0
2,note_on,54,0,120
2,note_on,46,0,0
2,note_on,44,60,120
2,note_on,53,71,0
2,note_on,53,0,120
2,note_on,44,0,0
2,note_on,42,60,120
2,note_on,51,71,0
2,note_on,51,0,120
2,note_on,42,0,0
2,note_on,41,60,120
2,note_on,49,71,0
2,note_on,49,0,120
2,note_on,41,0,0
2,note_on,51,71,120
2,note_on,39,60,0
2,note_on,39,0,1440
2,note_on,51,0,0
2,note_on,24,64,0
2,note_on,36,71,0
2,note_on,36,0,80
2,note_on,37,65,0
2,note_on,37,0,80
2,note_on,36,71,0
2,note_on,36,0,80
2,note_on,37,66,0
2,note_on,37,0,80
2,note_on,36,71,0
2,note_on,36,0,80
2,note_on,37,66,0
2,note_on,37,0,80
2,note_on,36,71,0
2,note_on,36,0,80
2,note_on,37,66,0
2,note_on,37,0,80
2,note_on,36,71,0
2,note_on,36,0,80
2,note_on,37,67,0
2,note_on,37,0,80
2,note_on,36,71,0
2,note_on,36,0,80
2,note_on,37,66,0
2,note_on,37,0,80
2,note_on,36,71,0
2,note_on,36,0,80
2,note_on,37,67,0
2,note_on,37,0,80
2,note_on,36,71,0
2,note_on,36,0,80
2,note_on,37,66,0
2,note_on,37,0,80
2,note_on,36,71,0
2,note_on,36,0,80
2,note_on,37,66,0
2,note_on,37,0,80
2,note_on,24,0,0
2,note_on,36,71,0
2,note_on,36,0,80
2,note_on,37,68,0
2,note_on,37,0,80
2,note_on,36,71,0
2,note_on,36,0,80
2,note_on,34,68,0
2,note_on,34,0,120
2,note_on,36,68,0
2,note_on,36,0,120
2,note_on,34,86,0
2,note_on,34,0,960
2,note_on,34,84,480
2,note_on,34,0,120
2,note_on,24,55,120
2,note_on,36,65,0
2,note_on,36,0,120
2,note_on,24,0,0
2,note_on,37,66,120
2,note_on,25,56,0
2,note_on,25,0,120
2,note_on,37,0,0
2,note_on,27,56,120
2,note_on,39,67,0
2,note_on,39,0,120
2,note_on,27,0,0
2,note_on,41,68,120
2,note_on,29,57,0
2,note_on,29,0,120
2,note_on,41,0,0
2,note_on,30,58,120
2,note_on,42,69,0
2,note_on,42,0,120
2,note_on,30,0,0
2,note_on,25,59,120
2,note_on,37,70,0
2,note_on,37,0,960
2,note_on,25,0,0
2,note_on,36,79,0
2,note_on,24,62,0
2,note_on,24,0,960
2,note_on,36,0,0
2,note_on,52,71,480
2,note_on,40,71,0
2,note_on,52,0,80
2,note_on,53,65,0
2,note_on,53,0,80
2,note_on,52,63,0
2,note_on,52,0,80
2,note_on,53,59,0
2,note_on,53,0,80
2,note_on,52,63,0
2,note_on,52,0,80
2,note_on,53,59,0
2,note_on,53,0,80
2,note_on,52,63,0
2,note_on,52,0,80
2,note_on,53,59,0
2,note_on,53,0,80
2,note_on,52,63,0
2,note_on,52,0,80
2,note_on,53,60,0
2,note_on,53,0,80
2,note_on,52,63,0
2,note_on,52,0,80
2,note_on,53,59,0
2,note_on,53,0,80
2,note_on,52,63,0
2,note_on,52,0,80
2,note_on,53,60,0
2,note_on,53,0,80
2,note_on,52,63,0
2,note_on,52,0,80
2,note_on,53,59,0
2,note_on,53,0,80
2,note_on,52,63,0
2,note_on,52,0,80
2,note_on,53,59,0
2,note_on,53,0,80
2,note_on,40,0,0
2,note_on,55,71,0
2,note_on,55,0,80
2,note_on,56,66,0
2,note_on,56,0,80
2,note_on,55,63,0
2,note_on,55,0,80
2,note_on,56,60,0
2,note_on,56,0,80
2,note_on,55,63,0
2,note_on,55,0,80
2,note_on,56,59,0
2,note_on,56,0,80
2,note_on,55,63,0
2,note_on,55,0,80
2,note_on,56,60,0
2,note_on,56,0,80
2,note_on,55,63,0
2,note_on,55,0,80
2,note_on,56,59,0
2,note_on,56,0,80
2,note_on,55,63,0
2,note_on,55,0,80
2,note_on,56,59,0
2,note_on,56,0,80
2,note_on,55,63,0
2,note_on,55,0,80
2,note_on,56,60,0
2,note_on,56,0,80
2,note_on,55,63,0
2,note_on,55,0,80
2,note_on,56,59,0
2,note_on,56,0,80
2,note_on,55,63,0
2,note_on,55,0,80
2,note_on,56,59,0
2,note_on,56,0,80
2,note_on,29,89,0
2,note_on,29,0,960
2,note_on,45,60,480
2,note_on,45,0,80
2,note_on,46,56,0
2,note_on,46,0,80
2,note_on,45,60,0
2,note_on,45,0,80
2,note_on,46,56,0
2,note_on,46,0,80
2,note_on,45,60,0
2,note_on,45,0,80
2,note_on,46,56,0
2,note_on,46,0,80
2,note_on,45,60,0
2,note_on,45,0,80
2,note_on,46,56,0
2,note_on,46,0,80
2,note_on,45,60,0
2,note_on,45,0,80
2,note_on,46,56,0
2,note_on,46,0,80
2,note_on,45,60,0
2,note_on,45,0,80
2,note_on,46,56,0
2,note_on,46,0,80
2,note_on,45,60,0
2,note_on,45,0,80
2,note_on,46,56,0
2,note_on,46,0,80
2,note_on,45,60,0
2,note_on,45,0,80
2,note_on,46,56,0
2,note_on,46,0,80
2,note_on,45,60,0
2,note_on,45,0,80
2,note_on,46,56,0
2,note_on,46,0,80
2,note_on,34,71,1440
2,note_on,34,0,1440
2,note_on,49,51,0
2,note_on,49,0,80
2,note_on,51,47,0
2,note_on,51,0,80
2,note_on,49,51,0
2,note_on,49,0,80
2,note_on,51,47,0
2,note_on,51,0,80
2,note_on,49,51,0
2,note_on,49,0,80
2,note_on,51,47,0
2,note_on,51,0,80
2,note_on,49,51,0
2,note_on,49,0,80
2,note_on,51,47,0
2,note_on,51,0,80
2,note_on,49,51,0
2,note_on,49,0,80
2,note_on,51,47,0
2,note_on,51,0,80
2,note_on,49,51,0
2,note_on,49,0,80
2,note_on,51,47,0
2,note_on,51,0,80
2,note_on,49,51,0
2,note_on,49,0,80
2,note_on,51,47,0
2,note_on,51,0,80
2,note_on,49,51,0
2,note_on,49,0,80
2,note_on,51,51,0
2,note_on,51,0,60
2,note_on,49,45,0
2,note_on,49,0,60
2,note_on,48,45,0
2,note_on,48,0,60
2,note_on,49,45,0
2,note_on,49,0,60
2,note_on,51,50,0
2,note_on,51,0,1440
2,note_on,56,66,0
2,note_on,56,0,720
2,note_on,55,60,0
2,note_on,55,0,240
2,note_on,53,66,0
2,note_on,53,0,240
2,note_on,51,53,0
2,note_on,51,0,240
2,note_on,50,66,0
2,note_on,50,0,240
2,note_on,51,55,0
2,note_on,51,0,240
2,note_on,51,66,0
2,note_on,60,55,960
2,note_on,60,0,240
2,note_on,61,59,0
2,note_on,61,0,240
2,note_on,51,0,0
2,note_on,51,57,0
2,note_on,59,59,0
2,note_on,59,0,240
2,note_on,60,53,0
2,note_on,60,0,240
2,note_on,58,59,0
2,note_on,58,0,240
2,note_on,56,53,0
2,note_on,56,0,240
2,note_on,51,0,0
2,note_on,51,45,0
2,note_on,51,0,80
2,note_on,53,42,0
2,note_on,53,0,80
2,note_on,51,45,0
2,note_on,51,0,80
2,note_on,53,42,0
2,note_on,53,0,80
2,note_on,51,45,0
2,note_on,51,0,80
2,note_on,53,42,0
2,note_on,53,0,80
2,note_on,51,45,0
2,note_on,51,0,80
2,note_on,53,42,0
2,note_on,53,0,80
2,note_on,51,45,0
2,note_on,51,0,80
2,note_on,53,42,0
2,note_on,53,0,80
2,note_on,51,45,0
2,note_on,51,0,80
2,note_on,53,42,0
2,note_on,53,0,80
2,note_on,51,45,0
2,note_on,51,0,80
2,note_on,53,42,0
2,note_on,53,0,80
2,note_on,51,45,0
2,note_on,51,0,80
2,note_on,53,45,0
2,note_on,53,0,120
2,note_on,51,40,0
2,note_on,51,0,120
2,note_on,53,52,0
2,note_on,53,0,240
2,note_on,55,47,0
2,note_on,55,0,240
2,note_on,56,40,0
2,note_on,56,0,120
2,note_on,48,40,0
2,note_on,48,0,120
2,note_on,51,40,0
2,note_on,51,0,120
2,note_on,56,40,0
2,note_on,56,0,120
2,note_on,60,52,0
2,note_on,60,0,120
2,note_on,61,54,120
2,note_on,61,0,120
2,note_on,63,61,120
2,note_on,63,0,480
2,note_on,58,40,1080
2,note_on,58,0,120
2,note_on,60,43,0
2,note_on,60,0,120
2,note_on,61,45,0
2,note_on,61,0,120
2,note_on,60,49,0
2,note_on,60,0,480
2,note_on,56,40,120
2,note_on,55,44,120
2,note_on,56,0,24
2,note_on,53,40,96
2,note_on,55,0,24
2,note_on,51,49,96
2,note_on,53,0,24
2,note_on,55,42,96
2,note_on,55,0,120
2,note_on,56,44,0
2,note_on,56,0,120
2,note_on,58,47,0
2,note_on,58,0,120
2,note_on,51,0,0
2,note_on,53,44,600
2,note_on,53,0,120
2,note_on,51,52,0
2,note_on,51,0,120
2,note_on,49,46,0
2,note_on,49,0,120
2,note_on,48,53,0
2,note_on,48,0,240
2,note_on,50,55,0
2,note_on,50,0,120
2,note_on,52,58,0
2,note_on,52,0,120
2,note_on,53,61,0
2,note_on,53,0,480
2,note_on,52,55,600
2,note_on,52,0,120
2,note_on,53,56,0
2,note_on,53,0,120
2,note_on,55,58,0
2,note_on,55,0,120
2,note_on,56,64,0
2,note_on,56,0,120
2,note_on,58,68,120
2,note_on,58,0,120
2,note_on,60,73,120
2,note_on,60,0,600
2,note_on,56,59,0
2,note_on,56,0,120
2,note_on,55,59,0
2,note_on,55,0,120
2,note_on,53,59,0
2,note_on,53,0,120
2,note_on,60,64,0
2,note_on,60,0,120
2,note_on,65,69,0
2,note_on,64,67,120
2,note_on,65,0,24
2,note_on,62,65,96
2,note_on,64,0,24
2,note_on,60,62,96
2,note_on,62,0,24
2,note_on,60,0,96
2,note_on,58,60,0
2,note_on,58,0,120
2,note_on,56,57,0
2,note_on,56,0,120
2,note_on,55,55,0
2,note_on,55,0,120
2,note_on,53,68,0
2,note_on,53,0,240
2,note_on,60,64,240
2,note_on,60,0,120
2,note_on,63,69,0
2,note_on,61,67,120
2,note_on,63,0,24
2,note_on,60,65,96
2,note_on,61,0,24
2,note_on,58,62,96
2,note_on,60,0,24
2,note_on,58,0,96
2,note_on,57,60,0
2,note_on,57,0,120
2,note_on,55,57,0
2,note_on,55,0,120
2,note_on,53,55,0
2,note_on,53,0,120
2,note_on,51,68,0
2,note_on,51,0,480
2,note_on,49,64,0
2,note_on,49,0,120
2,note_on,61,69,0
2,note_on,60,67,120
2,note_on,61,0,24
2,note_on,58,65,96
2,note_on,60,0,24
2,note_on,57,62,96
2,note_on,58,0,24
2,note_on,57,0,96
2,note_on,55,60,0
2,note_on,55,0,120
2,note_on,53,57,0
2,note_on,53,0,120
2,note_on,51,55,0
2,note_on,51,0,120
2,note_on,49,68,0
2,note_on,49,0,480
2,note_on,48,64,0
2,note_on,48,0,120
2,note_on,60,69,0
2,note_on,58,67,120
2,note_on,60,0,24
2,note_on,57,65,96
2,note_on,58,0,24
2,note_on,54,62,96
2,note_on,57,0,24
2,note_on,54,0,96
2,note_on,53,60,0
2,note_on,53,0,120
2,note_on,51,57,0
2,note_on,51,0,120
2,note_on,49,55,0
2,note_on,49,0,120
2,note_on,48,68,0
2,note_on,48,0,480
2,note_on,50,68,0
2,note_on,38,57,0
2,note_on,38,0,120
2,note_on,50,0,0
2,note_on,51,71,120
2,note_on,39,60,0
2,note_on,39,0,120
2,note_on,51,0,0
2,note_on,41,64,120
2,note_on,53,76,0
2,note_on,53,0,600
2,note_on,41,0,0
2,note_on,50,63,0
2,note_on,50,0,120
2,note_on,48,63,0
2,note_on,48,0,120
2,note_on,46,63,0
2,note_on,46,0,120
2,note_on,39,57,0
2,note_on,51,68,0
2,note_on,51,0,120
2,note_on,39,0,0
2,note_on,41,57,120
2,note_on,53,68,0
2,note_on,53,0,120
2,note_on,41,0,0
2,note_on,43,59,120
2,note_on,55,70,0
2,note_on,55,0,600
2,note_on,43,0,0
2,note_on,51,64,0
2,note_on,51,0,120
2,note_on,47,64,0
2,note_on,47,0,120
2,note_on,46,64,0
2,note_on,46,0,120
2,note_on,43,57,0
2,note_on,55,68,0
2,note_on,55,0,120
2,note_on,43,0,0
2,note_on,44,60,120
2,note_on,56,71,0
2,note_on,56,0,120
2,note_on,44,0,0
2,note_on,46,61,120
2,note_on,58,72,0
2,note_on,58,0,600
2,note_on,46,0,0
2,note_on,55,64,0
2,note_on,55,0,120
2,note_on,53,64,0
2,note_on,53,0,120
2,note_on,51,64,0
2,note_on,51,0,120
2,note_on,44,61,0
2,note_on,56,72,0
2,note_on,56,0,120
2,note_on,44,0,0
2,note_on,46,61,120
2,note_on,58,72,0
2,note_on,58,0,120
2,note_on,46,0,0
2,note_on,48,63,120
2,note_on,60,75,0
2,note_on,60,0,600
2,note_on,48,0,0
2,note_on,56,60,0
2,note_on,51,59,120
2,note_on,56,0,24
2,note_on,48,59,96
2,note_on,51,0,24
2,note_on,48,0,96
2,note_on,56,69,0
2,note_on,56,0,120
2,note_on,51,60,0
2,note_on,51,0,120
2,note_on,48,60,0
2,note_on,48,0,120
2,note_on,44,60,0
2,note_on,44,0,120
2,note_on,51,63,0
2,note_on,51,0,120
2,note_on,48,58,0
2,note_on,48,0,120
2,note_on,44,58,0
2,note_on,44,0,120
2,note_on,39,58,0
2,note_on,39,0,120
2,note_on,42,63,0
2,note_on,42,0,120
2,note_on,51,58,0
2,note_on,51,0,120
2,note_on,48,58,0
2,note_on,48,0,120
2,note_on,42,58,0
2,note_on,42,0,120
2,note_on,53,72,0
2,note_on,41,61,0
2,note_on,41,0,120
2,note_on,53,0,0
2,note_on,42,61,120
2,note_on,54,72,0
2,note_on,54,0,120
2,note_on,42,0,0
2,note_on,44,63,120
2,note_on,56,75,0
2,note_on,56,0,600
2,note_on,44,0,0
2,note_on,53,60,0
2,note_on,49,59,120
2,note_on,53,0,24
2,note_on,44,59,96
2,note_on,49,0,24
2,note_on,44,0,96
2,note_on,53,69,0
2,note_on,53,0,120
2,note_on,48,60,0
2,note_on,48,0,120
2,note_on,44,60,0
2,note_on,44,0,120
2,note_on,41,60,0
2,note_on,41,0,120
2,note_on,49,63,0
2,note_on,49,0,120
2,note_on,44,58,0
2,note_on,44,0,120
2,note_on,41,58,0
2,note_on,41,0,120
2,note_on,37,58,0
2,note_on,37,0,120
2,note_on,44,63,0
2,note_on,44,0,120
2,note_on,41,58,0
2,note_on,41,0,120
2,note_on,39,58,0
2,note_on,39,0,120
2,note_on,37,58,0
2,note_on,37,0,120
2,note_on,58,72,0
2,note_on,46,61,0
2,note_on,46,0,120
2,note_on,58,0,0
2,note_on,59,72,120
2,note_on,47,61,0
2,note_on,47,0,120
2,note_on,59,0,0
2,note_on,61,75,120
2,note_on,49,63,0
2,note_on,49,0,600
2,note_on,61,0,0
2,note_on,58,60,0
2,note_on,54,59,120
2,note_on,58,0,24
2,note_on,49,59,96
2,note_on,54,0,24
2,note_on,49,0,96
2,note_on,58,69,0
2,note_on,58,0,120
2,note_on,54,60,0
2,note_on,54,0,120
2,note_on,49,60,0
2,note_on,49,0,120
2,note_on,46,60,0
2,note_on,46,0,120
2,note_on,54,63,0
2,note_on,54,0,120
2,note_on,49,58,0
2,note_on,49,0,120
2,note_on,46,58,0
2,note_on,46,0,120
2,note_on,42,58,0
2,note_on,42,0,120
2,note_on,49,63,0
2,note_on,49,0,120
2,note_on,46,58,0
2,note_on,46,0,120
2,note_on,44,58,0
2,note_on,44,0,120
2,note_on,42,58,0
2,note_on,42,0,120
2,note_on,50,72,0
2,note_on,38,61,0
2,note_on,38,0,120
2,note_on,50,0,0
2,note_on,52,72,120
2,note_on,40,61,0
2,note_on,40,0,120
2,note_on,52,0,0
2,note_on,54,75,120
2,note_on,42,63,0
2,note_on,42,0,600
2,note_on,54,0,0
2,note_on,50,60,0
2,note_on,47,59,120
2,note_on,50,0,24
2,note_on,42,59,96
2,note_on,47,0,24
2,note_on,42,0,96
2,note_on,50,69,0
2,note_on,50,0,120
2,note_on,47,60,0
2,note_on,47,0,120
2,note_on,42,60,0
2,note_on,42,0,120
2,note_on,38,60,0
2,note_on,38,0,120
2,note_on,47,63,0
2,note_on,47,0,120
2,note_on,42,58,0
2,note_on,42,0,120
2,note_on,38,58,0
2,note_on,38,0,120
2,note_on,35,58,0
2,note_on,35,0,120
2,note_on,42,65,0
2,note_on,42,0,120
2,note_on,38,58,0
2,note_on,38,0,120
2,note_on,37,63,0
2,note_on,37,0,120
2,note_on,35,66,0
2,note_on,35,0,120
2,note_on,74,65,0
2,note_on,30,74,0
2,note_on,30,0,240
2,note_on,74,0,0
2,note_on,73,65,0
2,note_on,71,65,120
2,note_on,73,0,24
2,note_on,71,0,96
2,note_on,74,65,0
2,note_on,71,60,120
2,note_on,74,0,24
2,note_on,67,61,96
2,note_on,71,0,24
2,note_on,66,61,96
2,note_on,67,0,24
2,note_on,66,0,96
2,note_on,71,65,0
2,note_on,66,58,120
2,note_on,71,0,24
2,note_on,64,58,96
2,note_on,66,0,24
2,note_on,62,58,96
2,note_on,64,0,24
2,note_on,62,0,96
2,note_on,66,63,0
2,note_on,62,54,120
2,note_on,66,0,24
2,note_on,61,54,96
2,note_on,62,0,24
2,note_on,59,54,96
2,note_on,61,0,24
2,note_on,59,0,96
2,note_on,62,59,0
2,note_on,59,49,120
2,note_on,62,0,24
2,note_on,55,50,96
2,note_on,59,0,24
2,note_on,54,50,96
2,note_on,55,0,24
2,note_on,54,0,96
2,note_on,55,59,0
2,note_on,55,0,120
2,note_on,54,41,0
2,note_on,56,41,120
2,note_on,54,0,24
2,note_on,58,41,96
2,note_on,56,0,24
2,note_on,58,0,96
2,note_on,59,40,0
2,note_on,61,36,120
2,note_on,59,0,24
2,note_on,62,37,96
2,note_on,61,0,24
2,note_on,64,39,96
2,note_on,62,0,24
2,note_on,66,40,96
2,note_on,64,0,24
2,note_on,67,41,96
2,note_on,66,0,24
2,note_on,66,41,96
2,note_on,67,0,24
2,note_on,65,40,96
2,note_on,66,0,24
2,note_on,64,38,96
2,note_on,65,0,24
2,note_on,62,37,96
2,note_on,64,0,24
2,note_on,61,36,96
2,note_on,62,0,24
2,note_on,59,35,96
2,note_on,61,0,24
2,note_on,59,0,96
2,note_on,61,35,0
2,note_on,62,37,120
2,note_on,61,0,24
2,note_on,61,36,96
2,note_on,62,0,24
2,note_on,60,36,96
2,note_on,61,0,24
2,note_on,59,35,96
2,note_on,60,0,24
2,note_on,58,34,96
2,note_on,59,0,24
2,note_on,56,33,96
2,note_on,58,0,24
2,note_on,54,32,96
2,note_on,56,0,24
2,note_on,56,36,96
2,note_on,54,0,24
2,note_on,58,35,96
2,note_on,56,0,24
2,note_on,59,39,96
2,note_on,58,0,24
2,note_on,58,34,96
2,note_on,59,0,24
2,note_on,59,36,96
2,note_on,58,0,24
2,note_on,61,34,96
2,note_on,59,0,24
2,note_on,62,41,96
2,note_on,61,0,24
2,note_on,61,35,96
2,note_on,62,0,24
2,note_on,62,39,96
2,note_on,61,0,24
2,note_on,64,36,96
2,note_on,62,0,24
2,note_on,64,0,96
2,note_on,64,36,240
2,note_on,64,0,480
2,note_on,59,39,0
2,note_on,61,39,120
2,note_on,59,0,24
2,note_on,62,34,96
2,note_on,61,0,24
2,note_on,64,34,96
2,note_on,62,0,24
2,note_on,66,39,96
2,note_on,64,0,24
2,note_on,67,34,96
2,note_on,66,0,24
2,note_on,67,0,96
2,note_on,67,36,240
2,note_on,67,0,480
2,note_on,62,39,0
2,note_on,64,36,120
2,note_on,62,0,24
2,note_on,66,36,96
2,note_on,64,0,24
2,note_on,68,36,96
2,note_on,66,0,24
2,note_on,70,39,96
2,note_on,68,0,24
2,note_on,71,35,96
2,note_on,70,0,24
2,note_on,71,0,96
2,note_on,71,36,240
2,note_on,71,0,480
2,note_on,70,33,0
2,note_on,70,0,80
2,note_on,71,27,0
2,note_on,71,0,80
2,note_on,70,32,0
2,note_on,70,0,80
2,note_on,71,28,0
2,note_on,71,0,80
2,note_on,70,32,0
2,note_on,70,0,80
2,note_on,71,32,0
2,note_on,71,0,80
2,note_on,70,33,0
2,note_on,70,0,80
2,note_on,71,33,0
2,note_on,71,0,80
2,note_on,70,28,0
2,note_on,70,0,80
2,note_on,71,33,0
2,note_on,71,0,60
2,note_on,70,29,0
2,note_on,70,0,60
2,note_on,68,29,0
2,note_on,68,0,60
2,note_on,70,30,0
2,note_on,70,0,60
2,note_on,54,50,0
2,note_on,54,0,240
2,note_on,59,50,720
2,note_on,59,0,240
2,note_on,74,36,240
2,note_on,74,0,80
2,note_on,76,34,0
2,note_on,76,0,80
2,note_on,74,37,0
2,note_on,74,0,80
2,note_on,76,35,0
2,note_on,76,0,80
2,note_on,74,39,0
2,note_on,74,0,80
2,note_on,76,36,0
2,note_on,76,0,80
2,note_on,74,40,0
2,note_on,74,0,80
2,note_on,76,37,0
2,note_on,76,0,80
2,note_on,74,41,0
2,note_on,74,0,80
2,note_on,74,42,60
2,note_on,74,0,60
2,note_on,73,43,0
2,note_on,73,0,60
2,note_on,74,48,0
2,note_on,74,0,60
2,note_on,76,54,0
2,note_on,76,0,480
2,note_on,45,50,0
2,note_on,67,41,0
2,note_on,45,0,240
2,note_on,67,0,240
2,note_on,61,36,0
2,note_on,61,0,80
2,note_on,62,34,0
2,note_on,62,0,80
2,note_on,61,37,0
2,note_on,61,0,80
2,note_on,62,35,0
2,note_on,62,0,80
2,note_on,61,39,0
2,note_on,61,0,80
2,note_on,62,36,0
2,note_on,62,0,80
2,note_on,61,40,0
2,note_on,61,0,80
2,note_on,62,37,0
2,note_on,62,0,80
2,note_on,61,41,0
2,note_on,61,0,80
2,note_on,62,37,0
2,note_on,62,0,60
2,note_on,61,43,0
2,note_on,61,0,60
2,note_on,59,43,0
2,note_on,59,0,60
2,note_on,61,48,0
2,note_on,61,0,60
2,note_on,62,54,0
2,note_on,69,44,240
2,note_on,69,0,240
2,note_on,62,0,0
2,note_on,71,50,0
2,note_on,71,0,240
2,note_on,67,49,0
2,note_on,67,0,240
2,note_on,66,47,0
2,note_on,66,0,240
2,note_on,65,45,0
2,note_on,65,0,240
2,note_on,66,47,0
2,note_on,57,47,0
2,note_on,57,0,480
2,note_on,55,47,0
2,note_on,66,0,480
2,note_on,64,51,0
2,note_on,64,0,480
2,note_on,55,0,0
2,note_on,55,47,0
2,note_on,52,47,0
2,note_on,52,0,480
2,note_on,55,0,0
2,note_on,59,47,0
2,note_on,54,47,0
2,note_on,59,0,480
2,note_on,57,45,0
2,note_on,57,0,480
2,note_on,54,0,0
2,note_on,52,44,0
2,note_on,55,44,0
2,note_on,55,0,960
2,note_on,52,0,0
2,note_on,50,47,0
2,note_on,54,47,0
2,note_on,54,0,480
2,note_on,50,0,0
2,note_on,50,45,0
2,note_on,55,45,0
2,note_on,55,0,480
2,note_on,50,0,0
2,note_on,50,47,0
2,note_on,55,47,0
2,note_on,55,0,240
2,note_on,54,43,0
2,note_on,54,0,240
2,note_on,50,0,0
2,note_on,52,47,0
2,note_on,45,47,0
2,note_on,52,0,240
2,note_on,54,42,0
2,note_on,54,0,240
2,note_on,45,0,0
2,note_on,54,47,0
2,note_on,56,47,0
2,note_on,56,0,240
2,note_on,57,42,0
2,note_on,57,0,240
2,note_on,54,0,0
2,note_on,55,52,0
2,note_on,52,52,0
2,note_on,52,0,480
2,note_on,46,46,0
2,note_on,46,0,480
2,note_on,55,0,0
2,note_on,54,46,0
2,note_on,54,0,240
2,note_on,54,41,1200
2,note_on,54,0,120
2,note_on,52,39,0
2,note_on,52,0,120
2,note_on,50,39,0
2,note_on,50,0,120
2,note_on,49,39,0
2,note_on,49,0,120
2,note_on,47,39,0
2,note_on,49,38,120
2,note_on,47,0,24
2,note_on,50,38,96
2,note_on,49,0,24
2,note_on,52,38,96
2,note_on,50,0,24
2,note_on,54,41,96
2,note_on,52,0,24
2,note_on,55,38,96
2,note_on,54,0,24
2,note_on,54,38,96
2,note_on,55,0,24
2,note_on,53,38,96
2,note_on,54,0,24
2,note_on,52,41,96
2,note_on,53,0,24
2,note_on,50,37,96
2,note_on,52,0,24
2,note_on,49,37,96
2,note_on,50,0,24
2,note_on,47,37,96
2,note_on,49,0,24
2,note_on,49,37,96
2,note_on,47,0,24
2,note_on,50,36,96
2,note_on,49,0,24
2,note_on,49,36,96
2,note_on,50,0,24
2,note_on,48,36,96
2,note_on,49,0,24
2,note_on,47,41,96
2,note_on,48,0,24
2,note_on,46,34,96
2,note_on,47,0,24
2,note_on,44,34,96
2,note_on,46,0,24
2,note_on,42,34,96
2,note_on,44,0,24
2,note_on,44,40,96
2,note_on,42,0,24
2,note_on,46,36,96
2,note_on,44,0,24
2,note_on,47,36,96
2,note_on,46,0,24
2,note_on,46,36,96
2,note_on,47,0,24
2,note_on,47,36,96
2,note_on,46,0,24
2,note_on,49,38,96
2,note_on,47,0,24
2,note_on,50,41,96
2,note_on,49,0,24
2,note_on,49,43,96
2,note_on,50,0,24
2,note_on,50,45,96
2,note_on,49,0,24
2,note_on,52,41,96
2,note_on,50,0,24
2,note_on,52,0,96
2,note_on,52,44,240
2,note_on,52,0,480
2,note_on,47,36,0
2,note_on,49,38,120
2,note_on,47,0,24
2,note_on,50,41,96
2,note_on,49,0,24
2,note_on,52,43,96
2,note_on,50,0,24
2,note_on,54,45,96
2,note_on,52,0,24
2,note_on,55,41,96
2,note_on,54,0,24
2,note_on,55,0,96
2,note_on,55,44,240
2,note_on,55,0,480
2,note_on,50,36,0
2,note_on,52,38,120
2,note_on,50,0,24
2,note_on,54,41,96
2,note_on,52,0,24
2,note_on,56,43,96
2,note_on,54,0,24
2,note_on,58,45,96
2,note_on,56,0,24
2,note_on,59,41,96
2,note_on,58,0,24
2,note_on,59,0,96
2,note_on,59,44,240
2,note_on,59,0,480
2,note_on,58,40,0
2,note_on,58,0,80
2,note_on,59,37,0
2,note_on,59,0,80
2,note_on,58,40,0
2,note_on,58,0,80
2,note_on,59,36,0
2,note_on,59,0,80
2,note_on,58,40,0
2,note_on,58,0,80
2,note_on,59,34,0
2,note_on,59,0,80
2,note_on,58,40,0
2,note_on,58,0,80
2,note_on,59,37,0
2,note_on,59,0,80
2,note_on,58,40,0
2,note_on,58,0,80
2,note_on,59,36,0
2,note_on,59,0,80
2,note_on,58,40,0
2,note_on,58,0,80
2,note_on,59,36,0
2,note_on,59,0,80
2,note_on,42,36,0
2,note_on,42,0,240
2,note_on,44,39,0
2,note_on,44,0,120
2,note_on,46,42,0
2,note_on,46,0,120
2,note_on,47,45,0
2,note_on,47,0,120
2,note_on,49,45,0
2,note_on,49,0,120
2,note_on,50,44,0
2,note_on,50,0,120
2,note_on,52,42,0
2,note_on,52,0,120
2,note_on,54,50,0
2,note_on,54,0,240
2,note_on,59,44,240
2,note_on,59,0,480
2,note_on,58,40,0
2,note_on,58,0,80
2,note_on,59,37,0
2,note_on,59,0,80
2,note_on,58,40,0
2,note_on,58,0,80
2,note_on,59,36,0
2,note_on,59,0,80
2,note_on,58,40,0
2,note_on,58,0,80
2,note_on,59,34,0
2,note_on,59,0,80
2,note_on,58,40,0
2,note_on,58,0,80
2,note_on,59,37,0
2,note_on,59,0,80
2,note_on,58,40,0
2,note_on,58,0,80
2,note_on,59,36,0
2,note_on,59,0,80
2,note_on,58,40,0
2,note_on,58,0,80
2,note_on,59,36,0
2,note_on,59,0,80
2,note_on,42,44,0
2,note_on,54,44,0
2,note_on,54,0,480
2,note_on,42,0,0
2,note_on,50,40,0
2,note_on,50,0,80
2,note_on,52,37,0
2,note_on,52,0,80
2,note_on,50,40,0
2,note_on,50,0,80
2,note_on,52,36,0
2,note_on,52,0,80
2,note_on,50,40,0
2,note_on,50,0,80
2,note_on,52,34,0
2,note_on,52,0,80
2,note_on,50,40,0
2,note_on,50,0,80
2,note_on,52,37,0
2,note_on,52,0,80
2,note_on,50,40,0
2,note_on,50,0,80
2,note_on,52,36,0
2,note_on,52,0,80
2,note_on,50,40,0
2,note_on,50,0,80
2,note_on,52,36,0
2,note_on,52,0,80
2,note_on,47,33,0
2,note_on,47,0,240
2,note_on,37,28,0
2,note_on,46,34,0
2,note_on,46,0,240
2,note_on,37,0,0
2,note_on,38,32,0
2,note_on,45,32,0
2,note_on,38,0,120
2,note_on,40,33,0
2,note_on,40,0,120
2,note_on,42,35,0
2,note_on,42,0,120
2,note_on,43,36,0
2,note_on,43,0,120
2,note_on,45,0,0
2,note_on,45,38,0
2,note_on,45,0,120
2,note_on,47,37,0
2,note_on,47,0,120
2,note_on,54,38,240
2,note_on,47,33,0
2,note_on,47,0,480
2,note_on,54,0,0
2,note_on,43,32,0
2,note_on,43,0,120
2,note_on,45,33,0
2,note_on,45,0,120
2,note_on,47,35,0
2,note_on,47,0,120
2,note_on,49,36,0
2,note_on,49,0,120
2,note_on,50,38,0
2,note_on,50,0,120
2,note_on,52,37,0
2,note_on,52,0,120
2,note_on,52,38,240
2,note_on,52,0,480
2,note_on,49,45,0
2,note_on,49,0,120
2,note_on,50,48,0
2,note_on,50,0,120
2,note_on,52,50,0
2,note_on,52,0,120
2,note_on,54,53,0
2,note_on,54,0,120
2,note_on,55,55,0
2,note_on,55,0,120
2,note_on,57,48,0
2,note_on,57,0,120
2,note_on,57,59,240
2,note_on,57,0,480
2,note_on,52,45,0
2,note_on,52,0,120
2,note_on,54,48,0
2,note_on,54,0,120
2,note_on,55,50,0
2,note_on,55,0,120
2,note_on,57,53,0
2,note_on,57,0,120
2,note_on,59,55,0
2,note_on,59,0,120
2,note_on,61,48,0
2,note_on,61,0,120
2,note_on,61,59,240
2,note_on,61,0,480
2,note_on,64,58,0
2,note_on,64,0,120
2,note_on,62,56,0
2,note_on,62,0,120
2,note_on,61,53,0
2,note_on,61,0,120
2,note_on,59,51,0
2,note_on,59,0,120
2,note_on,57,49,0
2,note_on,57,0,120
2,note_on,55,44,0
2,note_on,55,0,120
2,note_on,55,64,240
2,note_on,55,0,480
2,note_on,61,58,0
2,note_on,61,0,120
2,note_on,59,56,0
2,note_on,59,0,120
2,note_on,57,53,0
2,note_on,57,0,120
2,note_on,55,51,0
2,note_on,55,0,120
2,note_on,54,49,0
2,note_on,54,0,120
2,note_on,52,44,0
2,note_on,52,0,120
2,note_on,52,64,240
2,note_on,52,0,480
2,note_on,38,57,0
2,note_on,38,0,120
2,note_on,40,47,0
2,note_on,40,0,120
2,note_on,42,50,0
2,note_on,42,0,120
2,note_on,43,53,0
2,note_on,43,0,120
2,note_on,44,56,0
2,note_on,44,0,120
2,note_on,45,50,0
2,note_on,45,0,120
2,note_on,54,65,240
2,note_on,45,65,0
2,note_on,45,0,480
2,note_on,54,0,0
2,note_on,42,57,0
2,note_on,42,0,120
2,note_on,43,47,0
2,note_on,43,0,120
2,note_on,45,50,0
2,note_on,45,0,120
2,note_on,47,53,0
2,note_on,47,0,120
2,note_on,49,56,0
2,note_on,49,0,120
2,note_on,50,50,0
2,note_on,50,0,120
2,note_on,50,65,240
2,note_on,57,65,0
2,note_on,57,0,480
2,note_on,50,0,0
2,note_on,43,57,0
2,note_on,43,0,120
2,note_on,45,47,0
2,note_on,45,0,120
2,note_on,47,50,0
2,note_on,47,0,120
2,note_on,49,53,0
2,note_on,49,0,120
2,note_on,50,56,0
2,note_on,50,0,120
2,note_on,52,50,0
2,note_on,52,0,120
2,note_on,52,65,240
2,note_on,52,0,480
2,note_on,49,62,0
2,note_on,49,0,120
2,note_on,50,51,0
2,note_on,50,0,120
2,note_on,52,55,0
2,note_on,52,0,120
2,note_on,54,58,0
2,note_on,54,0,120
2,note_on,55,61,0
2,note_on,55,0,120
2,note_on,57,55,0
2,note_on,57,0,120
2,note_on,57,71,240
2,note_on,57,0,480
2,note_on,50,67,0
2,note_on,50,0,120
2,note_on,49,64,0
2,note_on,49,0,120
2,note_on,47,62,0
2,note_on,47,0,120
2,note_on,45,60,0
2,note_on,45,0,120
2,note_on,43,57,0
2,note_on,43,0,120
2,note_on,42,55,0
2,note_on,42,0,120
2,note_on,54,55,0
2,note_on,54,0,120
2,note_on,55,58,0
2,note_on,55,0,120
2,note_on,57,62,0
2,note_on,57,0,120
2,note_on,59,65,0
2,note_on,59,0,120
2,note_on,61,69,0
2,note_on,61,0,120
2,note_on,62,72,0
2,note_on,62,0,120
2,note_on,47,67,0
2,note_on,47,0,120
2,note_on,45,64,0
2,note_on,45,0,120
2,note_on,43,62,0
2,note_on,43,0,120
2,note_on,42,60,0
2,note_on,42,0,120
2,note_on,40,57,0
2,note_on,40,0,120
2,note_on,38,55,0
2,note_on,38,0,120
2,note_on,50,55,0
2,note_on,50,0,120
2,note_on,52,58,0
2,note_on,52,0,120
2,note_on,54,62,0
2,note_on,54,0,120
2,note_on,55,65,0
2,note_on,55,0,120
2,note_on,57,69,0
2,note_on,57,0,120
2,note_on,59,72,0
2,note_on,59,0,118
2,note_on,55,61,2
2,note_on,59,72,0
2,note_on,59,0,120
2,note_on,55,0,0
2,note_on,57,69,0
2,note_on,54,58,0
2,note_on,54,0,120
2,note_on,57,0,0
2,note_on,52,56,0
2,note_on,55,67,0
2,note_on,55,0,120
2,note_on,52,0,0
2,note_on,50,54,0
2,note_on,54,64,0
2,note_on,54,0,120
2,note_on,50,0,0
2,note_on,49,52,0
2,note_on,52,62,0
2,note_on,52,0,120
2,note_on,49,0,0
2,note_on,47,51,0
2,note_on,50,60,0
2,note_on,50,0,120
2,note_on,47,0,0
2,note_on,47,52,240
2,note_on,50,60,0
2,note_on,50,0,480
2,note_on,47,0,0
2,note_on,43,65,0
2,note_on,43,0,120
2,note_on,45,59,0
2,note_on,45,0,120
2,note_on,47,59,0
2,note_on,47,0,120
2,note_on,48,58,0
2,note_on,48,0,120
2,note_on,50,57,0
2,note_on,50,0,120
2,note_on,52,56,0
2,note_on,52,0,120
2,note_on,47,64,0
2,note_on,47,0,120
2,note_on,48,59,0
2,note_on,48,0,120
2,note_on,50,58,0
2,note_on,50,0,120
2,note_on,52,57,0
2,note_on,52,0,120
2,note_on,54,55,0
2,note_on,54,0,120
2,note_on,55,54,0
2,note_on,55,0,120
2,note_on,45,64,0
2,note_on,45,0,120
2,note_on,47,58,0
2,note_on,47,0,120
2,note_on,49,57,0
2,note_on,49,0,120
2,note_on,50,55,0
2,note_on,50,0,120
2,note_on,52,54,0
2,note_on,52,0,120
2,note_on,53,58,0
2,note_on,53,0,120
2,note_on,45,54,0
2,note_on,45,0,120
2,note_on,47,51,0
2,note_on,47,0,120
2,note_on,49,54,0
2,note_on,49,0,120
2,note_on,50,52,0
2,note_on,50,0,120
2,note_on,49,52,0
2,note_on,49,0,120
2,note_on,47,52,0
2,note_on,47,0,120
2,note_on,46,60,0
2,note_on,46,0,600
2,note_on,44,50,0
2,note_on,44,0,120
2,note_on,42,50,0
2,note_on,42,0,120
2,note_on,44,50,0
2,note_on,44,0,120
2,note_on,46,60,0
2,note_on,46,0,480
2,note_on,47,50,0
2,note_on,47,0,120
2,note_on,49,46,0
2,note_on,49,0,120
2,note_on,47,46,0
2,note_on,47,0,120
2,note_on,45,46,0
2,note_on,45,0,120
2,note_on,44,50,0
2,note_on,44,0,120
2,note_on,50,48,0
2,note_on,50,0,120
2,note_on,47,48,0
2,note_on,47,0,120
2,note_on,53,48,0
2,note_on,53,0,120
2,note_on,56,56,0
2,note_on,56,0,120
2,note_on,45,57,360
2,note_on,45,0,120
2,note_on,54,52,0
2,note_on,54,0,120
2,note_on,50,57,0
2,note_on,50,0,120
2,note_on,57,52,0
2,note_on,57,0,120
2,note_on,54,57,0
2,note_on,54,0,120
2,note_on,62,49,0
2,note_on,62,0,120
2,note_on,47,57,0
2,note_on,47,0,240
2,note_on,49,59,0
2,note_on,49,0,240
2,note_on,50,65,0
2,note_on,50,0,240
2,note_on,31,80,0
2,note_on,31,0,240
2,note_on,49,71,240
2,note_on,49,0,80
2,note_on,50,63,0
2,note_on,50,0,80
2,note_on,49,71,0
2,note_on,49,0,80
2,note_on,50,62,0
2,note_on,50,0,80
2,note_on,49,71,0
2,note_on,49,0,80
2,note_on,50,63,0
2,note_on,50,0,80
2,note_on,49,71,0
2,note_on,49,0,80
2,note_on,50,65,0
2,note_on,50,0,80
2,note_on,49,71,0
2,note_on,49,0,80
2,note_on,50,65,0
2,note_on,50,0,60
2,note_on,49,65,0
2,note_on,49,0,60
2,note_on,47,65,0
2,note_on,47,0,60
2,note_on,49,65,0
2,note_on,49,0,60
2,note_on,50,73,0
2,note_on,50,0,480
2,note_on,50,69,240
2,note_on,49,68,120
2,note_on,50,0,24
2,note_on,47,66,96
2,note_on,49,0,24
2,note_on,45,65,96
2,note_on,47,0,24
2,note_on,43,64,96
2,note_on,45,0,24
2,note_on,42,62,96
2,note_on,43,0,24
2,note_on,42,0,96
2,note_on,47,73,0
2,note_on,47,0,480
2,note_on,47,69,240
2,note_on,45,68,120
2,note_on,47,0,24
2,note_on,43,66,96
2,note_on,45,0,24
2,note_on,42,65,96
2,note_on,43,0,24
2,note_on,40,64,96
2,note_on,42,0,24
2,note_on,38,62,96
2,note_on,40,0,24
2,note_on,38,0,96
2,note_on,43,73,0
2,note_on,43,0,480
2,note_on,43,66,240
2,note_on,42,60,120
2,note_on,43,0,24
2,note_on,40,66,96
2,note_on,42,0,24
2,note_on,39,57,96
2,note_on,40,0,24
2,note_on,40,57,96
2,note_on,39,0,24
2,note_on,38,57,96
2,note_on,40,0,24
2,note_on,37,66,96
2,note_on,38,0,24
2,note_on,38,58,96
2,note_on,37,0,24
2,note_on,37,58,96
2,note_on,38,0,24
2,note_on,35,58,96
2,note_on,37,0,24
2,note_on,33,66,96
2,note_on,35,0,24
2,note_on,35,61,96
2,note_on,33,0,24
2,note_on,37,61,96
2,note_on,35,0,24
2,note_on,38,61,96
2,note_on,37,0,24
2,note_on,39,66,96
2,note_on,38,0,24
2,note_on,40,58,96
2,note_on,39,0,24
2,note_on,42,58,96
2,note_on,40,0,24
2,note_on,40,58,96
2,note_on,42,0,24
2,note_on,38,66,96
2,note_on,40,0,24
2,note_on,40,58,96
2,note_on,38,0,24
2,note_on,38,58,96
2,note_on,40,0,24
2,note_on,37,58,96
2,note_on,38,0,24
2,note_on,35,66,96
2,note_on,37,0,24
2,note_on,37,61,96
2,note_on,35,0,24
2,note_on,38,61,96
2,note_on,37,0,24
2,note_on,40,61,96
2,note_on,38,0,24
2,note_on,41,66,96
2,note_on,40,0,24
2,note_on,42,58,96
2,note_on,41,0,24
2,note_on,43,58,96
2,note_on,42,0,24
2,note_on,42,58,96
2,note_on,43,0,24
2,note_on,40,66,96
2,note_on,42,0,24
2,note_on,41,58,96
2,note_on,40,0,24
2,note_on,40,58,96
2,note_on,41,0,24
2,note_on,38,58,96
2,note_on,40,0,24
2,note_on,36,66,96
2,note_on,38,0,24
2,note_on,38,61,96
2,note_on,36,0,24
2,note_on,40,61,96
2,note_on,38,0,24
2,note_on,41,61,96
2,note_on,40,0,24
2,note_on,42,66,96
2,note_on,41,0,24
2,note_on,43,58,96
2,note_on,42,0,24
2,note_on,45,58,96
2,note_on,43,0,24
2,note_on,43,58,96
2,note_on,45,0,24
2,note_on,42,66,96
2,note_on,43,0,24
2,note_on,43,58,96
2,note_on,42,0,24
2,note_on,42,58,96
2,note_on,43,0,24
2,note_on,40,58,96
2,note_on,42,0,24
2,note_on,38,66,96
2,note_on,40,0,24
2,note_on,40,61,96
2,note_on,38,0,24
2,note_on,42,61,96
2,note_on,40,0,24
2,note_on,43,61,96
2,note_on,42,0,24
2,note_on,44,66,96
2,note_on,43,0,24
2,note_on,45,58,96
2,note_on,44,0,24
2,note_on,47,58,96
2,note_on,45,0,24
2,note_on,45,58,96
2,note_on,47,0,24
2,note_on,45,0,96
2,note_on,43,58,0
2,note_on,43,0,240
2,note_on,59,54,0
2,note_on,57,54,120
2,note_on,59,0,24
2,note_on,55,64,96
2,note_on,57,0,24
2,note_on,57,57,96
2,note_on,55,0,120
2,note_on,53,57,0
2,note_on,59,57,0
2,note_on,57,0,24
2,note_on,60,57,96
2,note_on,59,0,24
2,note_on,53,0,96
2,note_on,61,64,0
2,note_on,52,64,0
2,note_on,60,0,24
2,note_on,62,57,96
2,note_on,61,0,24
2,note_on,52,0,96
2,note_on,56,57,0
2,note_on,62,0,24
2,note_on,62,57,96
2,note_on,56,0,24
2,note_on,62,0,96
2,note_on,56,53,0
2,note_on,60,49,0
2,note_on,60,0,120
2,note_on,62,44,0
2,note_on,62,0,120
2,note_on,60,49,0
2,note_on,60,0,120
2,note_on,59,44,0
2,note_on,59,0,120
2,note_on,56,0,0
2,note_on,57,48,0
2,note_on,59,44,120
2,note_on,59,0,120
2,note_on,57,0,0
2,note_on,60,49,0
2,note_on,55,48,0
2,note_on,60,0,120
2,note_on,62,44,0
2,note_on,62,0,120
2,note_on,55,0,0
2,note_on,63,49,0
2,note_on,54,55,0
2,note_on,63,0,120
2,note_on,64,45,0
2,note_on,64,0,120
2,note_on,54,0,0
2,note_on,58,49,0
2,note_on,58,0,120
2,note_on,64,46,0
2,note_on,64,0,120
2,note_on,62,49,0
2,note_on,58,51,0
2,note_on,62,0,120
2,note_on,64,45,0
2,note_on,64,0,120
2,note_on,62,49,0
2,note_on,62,0,120
2,note_on,61,43,0
2,note_on,61,0,120
2,note_on,58,0,0
2,note_on,59,48,0
2,note_on,61,42,120
2,note_on,61,0,120
2,note_on,59,0,0
2,note_on,57,48,0
2,note_on,62,49,0
2,note_on,62,0,120
2,note_on,64,45,0
2,note_on,64,0,120
2,note_on,57,0,0
2,note_on,65,49,0
2,note_on,55,55,0
2,note_on,65,0,120
2,note_on,66,45,0
2,note_on,66,0,120
2,note_on,55,0,0
2,note_on,67,49,0
2,note_on,67,0,120
2,note_on,65,45,0
2,note_on,65,0,120
2,note_on,64,49,0
2,note_on,59,53,0
2,note_on,64,0,120
2,note_on,65,45,0
2,note_on,65,0,120
2,note_on,64,49,0
2,note_on,64,0,120
2,note_on,62,45,0
2,note_on,62,0,120
2,note_on,59,0,0
2,note_on,60,48,0
2,note_on,62,49,120
2,note_on,62,0,120
2,note_on,60,0,0
2,note_on,64,49,0
2,note_on,59,50,0
2,note_on,64,0,120
2,note_on,62,47,0
2,note_on,62,0,120
2,note_on,59,0,0
2,note_on,57,51,0
2,note_on,60,49,0
2,note_on,60,0,120
2,note_on,62,47,0
2,note_on,62,0,120
2,note_on,57,0,0
2,note_on,60,49,0
2,note_on,55,52,0
2,note_on,60,0,120
2,note_on,59,48,0
2,note_on,59,0,120
2,note_on,55,0,0
2,note_on,57,49,0
2,note_on,54,54,0
2,note_on,57,0,120
2,note_on,59,49,0
2,note_on,59,0,120
2,note_on,54,0,0
2,note_on,52,56,0
2,note_on,57,49,0
2,note_on,57,0,120
2,note_on,55,50,0
2,note_on,55,0,120
2,note_on,52,0,0
2,note_on,54,57,0
2,note_on,51,49,0
2,note_on,51,0,120
2,note_on,50,49,0
2,note_on,50,0,120
2,note_on,48,54,0
2,note_on,48,0,120
2,note_on,50,49,0
2,note_on,50,0,120
2,note_on,54,0,0
2,note_on,51,53,0
2,note_on,51,0,120
2,note_on,50,49,0
2,note_on,50,0,120
2,note_on,51,53,0
2,note_on,51,0,120
2,note_on,48,49,0
2,note_on,48,0,120
2,note_on,59,65,240
2,note_on,59,0,120
2,note_on,47,73,120
2,note_on,57,57,240
2,note_on,57,0,240
2,note_on,55,63,0
2,note_on,47,0,240
2,note_on,55,0,240
2,note_on,55,64,240
2,note_on,55,0,120
2,note_on,43,69,120
2,note_on,54,53,240
2,note_on,54,0,240
2,note_on,52,61,0
2,note_on,52,0,240
2,note_on,43,0,0
2,note_on,50,53,0
2,note_on,47,53,0
2,note_on,47,0,240
2,note_on,50,0,0
2,note_on,45,53,0
2,note_on,48,53,0
2,note_on,48,0,240
2,note_on,45,0,0
2,note_on,60,65,0
2,note_on,60,0,240
2,note_on,48,53,0
2,note_on,52,53,0
2,note_on,52,0,240
2,note_on,48,0,0
2,note_on,50,50,0
2,note_on,47,50,0
2,note_on,47,0,240
2,note_on,50,0,0
2,note_on,45,53,0
2,note_on,48,53,0
2,note_on,48,0,240
2,note_on,45,0,0
2,note_on,43,50,0
2,note_on,47,50,0
2,note_on,47,0,240
2,note_on,43,0,0
2,note_on,42,59,0
2,note_on,45,59,0
2,note_on,42,0,240
2,note_on,51,53,0
2,note_on,51,0,240
2,note_on,45,0,0
2,note_on,50,63,0
2,note_on,52,53,240
2,note_on,52,0,240
2,note_on,54,53,0
2,note_on,54,0,240
2,note_on,55,53,0
2,note_on,55,0,240
2,note_on,57,53,0
2,note_on,57,0,240
2,note_on,59,56,0
2,note_on,59,0,240
2,note_on,60,60,0
2,note_on,60,0,240
2,note_on,50,0,0
2,note_on,50,53,0
2,note_on,59,53,0
2,note_on,59,0,240
2,note_on,50,0,0
2,note_on,57,53,0
2,note_on,48,53,0
2,note_on,48,0,240
2,note_on,57,0,0
2,note_on,55,49,0
2,note_on,47,49,0
2,note_on,47,0,240
2,note_on,48,53,0
2,note_on,55,0,240
2,note_on,60,53,0
2,note_on,48,0,240
2,note_on,50,58,0
2,note_on,60,0,240
2,note_on,59,53,0
2,note_on,59,0,240
2,note_on,50,0,0
2,note_on,58,64,0
2,note_on,52,64,0
2,note_on,58,0,120
2,note_on,67,55,0
2,note_on,67,0,120
2,note_on,66,56,0
2,note_on,66,0,120
2,note_on,67,56,0
2,note_on,67,0,120
2,note_on,52,0,0
2,note_on,54,61,0
2,note_on,57,56,120
2,note_on,54,0,24
2,note_on,55,56,96
2,note_on,57,0,24
2,note_on,54,56,96
2,note_on,55,0,24
2,note_on,52,60,96
2,note_on,54,0,24
2,note_on,50,55,96
2,note_on,52,0,24
2,note_on,52,55,96
2,note_on,50,0,24
2,note_on,54,55,96
2,note_on,52,0,24
2,note_on,55,61,96
2,note_on,54,0,24
2,note_on,50,55,96
2,note_on,55,0,24
2,note_on,55,55,96
2,note_on,50,0,24
2,note_on,54,55,96
2,note_on,55,0,24
2,note_on,52,60,96
2,note_on,54,0,24
2,note_on,54,53,96
2,note_on,52,0,24
2,note_on,52,53,96
2,note_on,54,0,24
2,note_on,50,53,96
2,note_on,52,0,24
2,note_on,49,60,96
2,note_on,50,0,24
2,note_on,50,54,96
2,note_on,49,0,24
2,note_on,49,55,96
2,note_on,50,0,24
2,note_on,47,55,96
2,note_on,49,0,24
2,note_on,47,0,96
2,note_on,50,60,0
2,note_on,45,60,0
2,note_on,50,0,80
2,note_on,52,55,0
2,note_on,52,0,80
2,note_on,50,60,0
2,note_on,50,0,80
2,note_on,45,0,0
2,note_on,52,55,0
2,note_on,44,55,0
2,note_on,52,0,80
2,note_on,50,60,0
2,note_on,50,0,80
2,note_on,52,54,0
2,note_on,52,0,80
2,note_on,44,0,0
2,note_on,50,60,0
2,note_on,45,63,0
2,note_on,50,0,80
2,note_on,52,56,0
2,note_on,52,0,80
2,note_on,50,60,0
2,note_on,50,0,80
2,note_on,52,60,0
2,note_on,52,0,60
2,note_on,50,55,0
2,note_on,50,0,60
2,note_on,49,55,0
2,note_on,49,0,60
2,note_on,50,55,0
2,note_on,50,0,60
2,note_on,49,60,0
2,note_on,49,0,480
2,note_on,45,0,0
2,note_on,50,61,240
2,note_on,47,61,0
2,note_on,50,0,120
2,note_on,52,56,0
2,note_on,52,0,120
2,note_on,47,0,0
2,note_on,45,60,0
2,note_on,54,60,0
2,note_on,54,0,120
2,note_on,55,62,0
2,note_on,55,0,120
2,note_on,57,64,0
2,note_on,57,0,120
2,note_on,59,66,0
2,note_on,59,0,120
2,note_on,45,0,0
2,note_on,54,66,0
2,note_on,54,0,480
2,note_on,43,61,240
2,note_on,54,61,0
2,note_on,54,0,120
2,note_on,55,56,0
2,note_on,55,0,120
2,note_on,43,0,0
2,note_on,54,60,0
2,note_on,57,60,0
2,note_on,57,0,120
2,note_on,59,62,0
2,note_on,59,0,120
2,note_on,61,64,0
2,note_on,61,0,120
2,note_on,62,66,0
2,note_on,62,0,120
2,note_on,54,0,0
2,note_on,57,66,0
2,note_on,57,0,480
2,note_on,50,53,240
2,note_on,57,53,0
2,note_on,57,0,120
2,note_on,59,47,0
2,note_on,59,0,120
2,note_on,50,0,0
2,note_on,52,53,0
2,note_on,52,0,120
2,note_on,51,47,0
2,note_on,51,0,120
2,note_on,52,47,0
2,note_on,52,0,120
2,note_on,54,47,0
2,note_on,54,0,120
2,note_on,55,53,0
2,note_on,55,0,120
2,note_on,54,47,0
2,note_on,54,0,120
2,note_on,55,47,0
2,note_on,55,0,120
2,note_on,57,47,0
2,note_on,57,0,120
2,note_on,59,53,0
2,note_on,59,0,120
2,note_on,57,47,0
2,note_on,57,0,120
2,note_on,55,47,0
2,note_on,55,0,120
2,note_on,56,47,0
2,note_on,56,0,120
2,note_on,45,47,0
2,note_on,57,47,0
2,note_on,57,0,120
2,note_on,56,42,0
2,note_on,56,0,120
2,note_on,45,0,0
2,note_on,57,46,0
2,note_on,57,0,120
2,note_on,59,49,0
2,note_on,59,0,120
2,note_on,61,53,0
2,note_on,61,0,240
2,note_on,49,47,0
2,note_on,45,47,0
2,note_on,49,0,120
2,note_on,50,41,0
2,note_on,50,0,120
2,note_on,52,52,0
2,note_on,45,0,240
2,note_on,47,40,0
2,note_on,47,0,240
2,note_on,49,53,0
2,note_on,49,0,240
2,note_on,52,0,0
2,note_on,54,47,0
2,note_on,50,47,0
2,note_on,54,0,120
2,note_on,55,42,0
2,note_on,55,0,120
2,note_on,57,47,0
2,note_on,57,0,120
2,note_on,55,41,0
2,note_on,55,0,120
2,note_on,54,41,0
2,note_on,54,0,120
2,note_on,52,41,0
2,note_on,52,0,120
2,note_on,50,0,0
2,note_on,50,47,0
2,note_on,50,0,120
2,note_on,52,43,0
2,note_on,52,0,120
2,note_on,54,43,0
2,note_on,54,0,120
2,note_on,55,43,0
2,note_on,55,0,120
2,note_on,57,43,0
2,note_on,57,0,120
2,note_on,59,39,0
2,note_on,59,0,120
2,note_on,60,43,0
2,note_on,60,0,120
2,note_on,62,39,0
2,note_on,62,0,120
2,note_on,64,49,0
2,note_on,64,0,120
2,note_on,62,43,0
2,note_on,62,0,120
2,note_on,50,43,0
2,note_on,50,0,240
2,note_on,55,46,0
2,note_on,55,0,120
2,note_on,59,40,0
2,note_on,59,0,120
2,note_on,55,46,0
2,note_on,55,0,120
2,note_on,52,43,0
2,note_on,52,0,120
2,note_on,54,43,0
2,note_on,54,0,120
2,note_on,52,39,0
2,note_on,52,0,120
2,note_on,54,43,0
2,note_on,54,0,120
2,note_on,55,39,0
2,note_on,55,0,120
2,note_on,57,49,0
2,note_on,57,0,120
2,note_on,59,43,0
2,note_on,59,0,120
2,note_on,47,43,0
2,note_on,47,0,240
2,note_on,52,52,0
2,note_on,52,0,480
2,note_on,52,43,0
2,note_on,52,0,120
2,note_on,50,39,0
2,note_on,50,0,120
2,note_on,52,43,0
2,note_on,52,0,120
2,note_on,54,39,0
2,note_on,54,0,120
2,note_on,55,49,0
2,note_on,55,0,120
2,note_on,57,43,0
2,note_on,57,0,120
2,note_on,45,43,0
2,note_on,45,0,240
2,note_on,50,52,0
2,note_on,50,0,480
2,note_on,57,66,0
2,note_on,57,0,80
2,note_on,59,59,0
2,note_on,59,0,80
2,note_on,57,63,0
2,note_on,57,0,80
2,note_on,59,58,0
2,note_on,59,0,80
2,note_on,57,60,0
2,note_on,57,0,80
2,note_on,59,57,0
2,note_on,59,0,80
2,note_on,57,59,0
2,note_on,57,0,80
2,note_on,59,53,0
2,note_on,59,0,80
2,note_on,57,59,0
2,note_on,57,0,80
2,note_on,59,54,0
2,note_on,59,0,80
2,note_on,57,58,0
2,note_on,57,0,80
2,note_on,59,57,0
2,note_on,59,0,80
2,note_on,56,54,0
2,note_on,56,0,120
2,note_on,59,42,0
2,note_on,59,0,120
2,note_on,56,50,0
2,note_on,56,0,120
2,note_on,52,40,0
2,note_on,52,0,120
2,note_on,55,66,0
2,note_on,55,0,80
2,note_on,57,59,0
2,note_on,57,0,80
2,note_on,55,63,0
2,note_on,55,0,80
2,note_on,57,58,0
2,note_on,57,0,80
2,note_on,55,60,0
2,note_on,55,0,80
2,note_on,57,57,0
2,note_on,57,0,80
2,note_on,55,59,0
2,note_on,55,0,80
2,note_on,57,53,0
2,note_on,57,0,80
2,note_on,55,59,0
2,note_on,55,0,80
2,note_on,57,54,0
2,note_on,57,0,80
2,note_on,55,58,0
2,note_on,55,0,80
2,note_on,57,57,0
2,note_on,57,0,80
2,note_on,54,54,0
2,note_on,54,0,120
2,note_on,57,42,0
2,note_on,57,0,120
2,note_on,54,50,0
2,note_on,54,0,120
2,note_on,50,40,0
2,note_on,50,0,120
2,note_on,53,66,0
2,note_on,53,0,80
2,note_on,55,59,0
2,note_on,55,0,80
2,note_on,53,63,0
2,note_on,53,0,80
2,note_on,55,58,0
2,note_on,55,0,80
2,note_on,53,60,0
2,note_on,53,0,80
2,note_on,55,57,0
2,note_on,55,0,80
2,note_on,53,59,0
2,note_on,53,0,80
2,note_on,55,53,0
2,note_on,55,0,80
2,note_on,53,59,0
2,note_on,53,0,80
2,note_on,55,54,0
2,note_on,55,0,80
2,note_on,53,58,0
2,note_on,53,0,80
2,note_on,55,57,0
2,note_on,55,0,80
2,note_on,51,54,0
2,note_on,51,0,120
2,note_on,55,49,0
2,note_on,55,0,120
2,note_on,51,59,0
2,note_on,51,0,120
2,note_on,48,54,0
2,note_on,48,0,120
2,note_on,56,73,0
2,note_on,56,0,240
2,note_on,41,66,240
2,note_on,41,0,80
2,note_on,43,59,0
2,note_on,43,0,80
2,note_on,41,63,0
2,note_on,41,0,80
2,note_on,43,58,0
2,note_on,43,0,80
2,note_on,41,60,0
2,note_on,41,0,80
2,note_on,43,57,0
2,note_on,43,0,80
2,note_on,41,59,0
2,note_on,41,0,80
2,note_on,43,53,0
2,note_on,43,0,80
2,note_on,41,59,0
2,note_on,41,0,80
2,note_on,43,54,0
2,note_on,43,0,80
2,note_on,41,58,0
2,note_on,41,0,80
2,note_on,43,57,0
2,note_on,43,0,80
2,note_on,39,63,0
2,note_on,39,0,480
2,note_on,39,53,240
2,note_on,41,54,120
2,note_on,39,0,24
2,note_on,43,56,96
2,note_on,41,0,24
2,note_on,44,57,96
2,note_on,43,0,24
2,note_on,46,59,96
2,note_on,44,0,24
2,note_on,48,60,96
2,note_on,46,0,24
2,note_on,48,0,96
2,note_on,43,67,0
2,note_on,43,0,240
2,note_on,43,53,480
2,note_on,44,54,120
2,note_on,43,0,24
2,note_on,46,56,96
2,note_on,44,0,24
2,note_on,48,57,96
2,note_on,46,0,24
2,note_on,50,59,96
2,note_on,48,0,24
2,note_on,51,60,96
2,note_on,50,0,24
2,note_on,51,0,96
2,note_on,46,67,0
2,note_on,46,0,240
2,note_on,46,53,480
2,note_on,48,54,120
2,note_on,46,0,24
2,note_on,50,56,96
2,note_on,48,0,24
2,note_on,48,57,96
2,note_on,50,0,24
2,note_on,50,59,96
2,note_on,48,0,24
2,note_on,51,60,96
2,note_on,50,0,24
2,note_on,53,62,96
2,note_on,51,0,24
2,note_on,52,56,96
2,note_on,53,0,24
2,note_on,53,56,96
2,note_on,52,0,24
2,note_on,55,56,96
2,note_on,53,0,24
2,note_on,56,63,96
2,note_on,55,0,24
2,note_on,55,54,96
2,note_on,56,0,24
2,note_on,53,54,96
2,note_on,55,0,24
2,note_on,51,54,96
2,note_on,53,0,24
2,note_on,50,61,96
2,note_on,51,0,24
2,note_on,51,54,96
2,note_on,50,0,24
2,note_on,50,54,96
2,note_on,51,0,24
2,note_on,48,54,96
2,note_on,50,0,24
2,note_on,46,56,96
2,note_on,48,0,24
2,note_on,48,51,96
2,note_on,46,0,24
2,note_on,46,51,96
2,note_on,48,0,24
2,note_on,44,51,96
2,note_on,46,0,24
2,note_on,43,56,96
2,note_on,44,0,24
2,note_on,44,50,96
2,note_on,43,0,24
2,note_on,46,50,96
2,note_on,44,0,24
2,note_on,48,50,96
2,note_on,46,0,24
2,note_on,50,59,96
2,note_on,48,0,24
2,note_on,51,52,96
2,note_on,50,0,24
2,note_on,53,57,96
2,note_on,51,0,24
2,note_on,55,62,96
2,note_on,53,0,24
2,note_on,55,0,96
2,note_on,44,60,0
2,note_on,46,61,120
2,note_on,44,0,24
2,note_on,48,62,96
2,note_on,46,0,24
2,note_on,49,63,96
2,note_on,48,0,24
2,note_on,51,64,96
2,note_on,49,0,24
2,note_on,51,0,96
2,note_on,53,65,0
2,note_on,53,0,120
2,note_on,55,66,0
2,note_on,55,0,120
2,note_on,56,67,0
2,note_on,56,0,120
2,note_on,58,69,0
2,note_on,58,0,120
2,note_on,59,70,0
2,note_on,59,0,120
2,note_on,60,71,0
2,note_on,60,0,240
2,note_on,80,82,0
2,note_on,80,0,238
2,note_on,65,75,242
2,note_on,65,0,80
2,note_on,67,67,0
2,note_on,67,0,80
2,note_on,65,72,0
2,note_on,65,0,80
2,note_on,67,62,0
2,note_on,67,0,80
2,note_on,65,67,0
2,note_on,65,0,80
2,note_on,67,61,0
2,note_on,67,0,80
2,note_on,65,67,0
2,note_on,65,0,80
2,note_on,67,62,0
2,note_on,67,0,80
2,note_on,65,67,0
2,note_on,65,0,80
2,note_on,67,61,0
2,note_on,67,0,80
2,note_on,65,67,0
2,note_on,65,0,80
2,note_on,67,62,0
2,note_on,67,0,80
2,note_on,55,60,0
2,note_on,56,61,120
2,note_on,55,0,24
2,note_on,58,62,96
2,note_on,56,0,24
2,note_on,60,63,96
2,note_on,58,0,24
2,note_on,62,64,96
2,note_on,60,0,24
2,note_on,62,0,96
2,note_on,63,65,0
2,note_on,63,0,120
2,note_on,65,66,0
2,note_on,65,0,120
2,note_on,67,67,0
2,note_on,67,0,120
2,note_on,68,69,0
2,note_on,68,0,120
2,note_on,69,70,0
2,note_on,69,0,120
2,note_on,70,71,0
2,note_on,70,0,240
2,note_on,55,93,0
2,note_on,55,0,240
2,note_on,39,75,240
2,note_on,39,0,80
2,note_on,41,67,0
2,note_on,41,0,80
2,note_on,39,72,0
2,note_on,39,0,80
2,note_on,41,62,0
2,note_on,41,0,80
2,note_on,39,67,0
2,note_on,39,0,80
2,note_on,41,61,0
2,note_on,41,0,80
2,note_on,39,67,0
2,note_on,39,0,80
2,note_on,41,62,0
2,note_on,41,0,80
2,note_on,39,67,0
2,note_on,39,0,80
2,note_on,41,61,0
2,note_on,41,0,80
2,note_on,39,67,0
2,note_on,39,0,80
2,note_on,41,62,0
2,note_on,41,0,80
2,note_on,34,97,0
2,note_on,34,0,240
2,note_on,50,75,240
2,note_on,50,0,80
2,note_on,51,67,0
2,note_on,51,0,80
2,note_on,50,72,0
2,note_on,50,0,80
2,note_on,51,62,0
2,note_on,51,0,80
2,note_on,50,67,0
2,note_on,50,0,80
2,note_on,51,61,0
2,note_on,51,0,80
2,note_on,50,67,0
2,note_on,50,0,80
2,note_on,51,62,0
2,note_on,51,0,80
2,note_on,50,67,0
2,note_on,50,0,80
2,note_on,51,61,0
2,note_on,51,0,80
2,note_on,50,67,0
2,note_on,50,0,80
2,note_on,51,62,0
2,note_on,51,0,80
2,note_on,39,94,0
2,note_on,39,0,240
2,note_on,55,75,240
2,note_on,55,0,80
2,note_on,56,67,0
2,note_on,56,0,80
2,note_on,55,72,0
2,note_on,55,0,80
2,note_on,56,62,0
2,note_on,56,0,80
2,note_on,55,67,0
2,note_on,55,0,80
2,note_on,56,61,0
2,note_on,56,0,80
2,note_on,55,67,0
2,note_on,55,0,80
2,note_on,56,62,0
2,note_on,56,0,80
2,note_on,55,67,0
2,note_on,55,0,80
2,note_on,56,61,0
2,note_on,56,0,80
2,note_on,55,67,0
2,note_on,55,0,80
2,note_on,56,62,0
2,note_on,56,0,80
2,note_on,36,98,0
2,note_on,36,0,240
2,note_on,52,75,240
2,note_on,52,0,80
2,note_on,53,67,0
2,note_on,53,0,80
2,note_on,52,72,0
2,note_on,52,0,80
2,note_on,53,62,0
2,note_on,53,0,80
2,note_on,52,67,0
2,note_on,52,0,80
2,note_on,53,61,0
2,note_on,53,0,80
2,note_on,52,67,0
2,note_on,52,0,80
2,note_on,53,62,0
2,note_on,53,0,80
2,note_on,52,67,0
2,note_on,52,0,80
2,note_on,53,61,0
2,note_on,53,0,80
2,note_on,52,67,0
2,note_on,52,0,80
2,note_on,53,62,0
2,note_on,53,0,80
2,note_on,41,95,0
2,note_on,41,0,240
2,note_on,56,75,240
2,note_on,56,0,80
2,note_on,58,67,0
2,note_on,58,0,80
2,note_on,56,72,0
2,note_on,56,0,80
2,note_on,58,62,0
2,note_on,58,0,80
2,note_on,56,67,0
2,note_on,56,0,80
2,note_on,58,61,0
2,note_on,58,0,80
2,note_on,56,67,0
2,note_on,56,0,80
2,note_on,58,62,0
2,note_on,58,0,80
2,note_on,56,67,0
2,note_on,56,0,80
2,note_on,58,61,0
2,note_on,58,0,80
2,note_on,56,67,0
2,note_on,56,0,80
2,note_on,58,62,0
2,note_on,58,0,80
2,note_on,55,73,0
2,note_on,55,0,240
2,note_on,59,65,0
2,note_on,59,0,120
2,note_on,43,62,120
2,note_on,43,0,60
2,note_on,44,54,0
2,note_on,44,0,60
2,note_on,43,61,0
2,note_on,43,0,60
2,note_on,44,54,0
2,note_on,44,0,60
2,note_on,63,64,480
2,note_on,63,0,120
2,note_on,48,62,120
2,note_on,48,0,60
2,note_on,50,54,0
2,note_on,50,0,60
2,note_on,48,61,0
2,note_on,48,0,60
2,note_on,50,54,0
2,note_on,50,0,60
2,note_on,57,66,480
2,note_on,57,0,120
2,note_on,42,65,120
2,note_on,42,0,60
2,note_on,43,57,0
2,note_on,43,0,60
2,note_on,42,65,0
2,note_on,42,0,60
2,note_on,43,57,0
2,note_on,43,0,60
2,note_on,58,68,480
2,note_on,58,0,120
2,note_on,43,69,120
2,note_on,43,0,60
2,note_on,44,61,0
2,note_on,44,0,60
2,note_on,43,68,0
2,note_on,43,0,60
2,note_on,44,61,0
2,note_on,44,0,60
2,note_on,64,75,480
2,note_on,64,0,120
2,note_on,49,75,120
2,note_on,49,0,60
2,note_on,50,65,0
2,note_on,50,0,60
2,note_on,49,74,0
2,note_on,49,0,60
2,note_on,50,66,0
2,note_on,50,0,60
2,note_on,57,82,480
2,note_on,57,0,120
2,note_on,53,67,120
2,note_on,53,0,120
2,note_on,50,69,120
2,note_on,50,0,120
2,note_on,45,70,120
2,note_on,45,0,120
2,note_on,41,72,120
2,note_on,41,0,120
2,note_on,38,73,120
2,note_on,38,0,120
2,note_on,33,57,120
2,note_on,45,68,0
2,note_on,45,0,120
2,note_on,33,0,0
2,note_on,46,70,120
2,note_on,34,58,0
2,note_on,34,0,120
2,note_on,46,0,0
2,note_on,34,59,120
2,note_on,46,71,0
2,note_on,46,0,120
2,note_on,34,0,0
2,note_on,33,60,120
2,note_on,37,60,0
2,note_on,45,72,0
2,note_on,40,60,0
2,note_on,40,0,120
2,note_on,33,0,0
2,note_on,37,0,0
2,note_on,45,0,0
2,note_on,33,65,360
2,note_on,45,76,0
2,note_on,37,65,0
2,note_on,40,65,0
2,note_on,40,0,120
2,note_on,33,0,0
2,note_on,45,0,0
2,note_on,37,0,0
2,note_on,57,44,8520
2,note_on,55,42,480
2,note_on,57,0,24
2,note_on,54,42,456
2,note_on,55,0,24
2,note_on,55,44,456
2,note_on,54,0,24
2,note_on,57,44,456
2,note_on,55,0,24
2,note_on,57,0,936
2,note_on,55,44,0
2,note_on,54,40,480
2,note_on,55,0,24
2,note_on,54,0,456
2,note_on,59,47,0
2,note_on,59,0,480
2,note_on,49,40,0
2,note_on,49,0,480
2,note_on,50,40,0
2,note_on,50,0,480
2,note_on,43,43,0
2,note_on,43,0,480
2,note_on,44,41,0
2,note_on,44,0,480
2,note_on,45,41,0
2,note_on,45,0,480
2,note_on,47,37,0
2,note_on,47,0,480
2,note_on,42,47,0
2,note_on,44,47,480
2,note_on,42,0,24
2,note_on,45,47,456
2,note_on,44,0,24
2,note_on,47,46,456
2,note_on,45,0,24
2,note_on,49,47,456
2,note_on,47,0,24
2,note_on,49,0,456
2,note_on,50,47,0
2,note_on,62,44,480
2,note_on,50,0,24
2,note_on,60,44,456
2,note_on,62,0,24
2,note_on,59,47,456
2,note_on,60,0,24
2,note_on,61,39,456
2,note_on,59,0,24
2,note_on,62,40,456
2,note_on,61,0,24
2,note_on,62,0,456
2,note_on,55,42,0
2,note_on,57,44,480
2,note_on,55,0,24
2,note_on,59,47,456
2,note_on,57,0,24
2,note_on,59,0,456
2,note_on,52,47,0
2,note_on,54,41,480
2,note_on,52,0,24
2,note_on,55,41,456
2,note_on,54,0,24
2,note_on,56,47,456
2,note_on,55,0,24
2,note_on,57,45,456
2,note_on,56,0,24
2,note_on,55,45,456
2,note_on,57,0,24
2,note_on,55,0,456
2,note_on,54,44,0
2,note_on,54,0,480
2,note_on,59,45,0
2,note_on,59,0,480
2,note_on,57,45,0
2,note_on,57,0,480
2,note_on,55,44,0
2,note_on,61,51,480
2,note_on,55,0,480
2,note_on,59,47,0
2,note_on,53,39,0
2,note_on,61,0,24
2,note_on,54,44,456
2,note_on,58,51,0
2,note_on,53,0,24
2,note_on,59,0,0
2,note_on,58,0,456
2,note_on,62,54,0
2,note_on,54,0,480
2,note_on,61,54,0
2,note_on,56,54,0
2,note_on,62,0,24
2,note_on,58,48,216
2,note_on,56,0,24
2,note_on,59,44,216
2,note_on,62,54,0
2,note_on,58,0,24
2,note_on,61,0,0
2,note_on,59,0,456
2,note_on,62,0,0
2,note_on,57,46,0
2,note_on,61,55,0
2,note_on,61,0,480
2,note_on,61,45,0
2,note_on,64,54,0
2,note_on,57,0,24
2,note_on,62,47,456
2,note_on,66,56,0
2,note_on,64,0,24
2,note_on,61,0,0
2,note_on,62,0,456
2,note_on,66,0,0
2,note_on,54,52,0
2,note_on,54,0,480
2,note_on,51,51,0
2,note_on,51,0,480
2,note_on,52,54,0
2,note_on,52,0,480
2,note_on,64,53,0
2,note_on,62,52,480
2,note_on,64,0,24
2,note_on,61,59,456
2,note_on,62,0,24
2,note_on,61,0,456
2,note_on,45,50,0
2,note_on,43,47,480
2,note_on,45,0,24
2,note_on,42,48,456
2,note_on,43,0,24
2,note_on,42,0,456
2,note_on,44,47,0
2,note_on,45,47,480
2,note_on,44,0,24
2,note_on,45,0,936
2,note_on,44,43,0
2,note_on,44,0,480
2,note_on,40,43,0
2,note_on,40,0,480
2,note_on,45,47,0
2,note_on,45,0,480
2,note_on,57,43,0
2,note_on,57,0,480
2,note_on,54,43,0
2,note_on,54,0,480
2,note_on,55,47,0
2,note_on,55,0,960
2,note_on,52,47,0
2,note_on,52,0,480
2,note_on,51,42,0
2,note_on,51,0,480
2,note_on,50,46,0
2,note_on,50,0,480
2,note_on,48,46,0
2,note_on,48,0,480
2,note_on,57,44,0
2,note_on,53,30,0
2,note_on,53,0,480
2,note_on,57,0,0
2,note_on,58,46,0
2,note_on,46,39,0
2,note_on,46,0,480
2,note_on,58,0,0
2,note_on,46,39,0
2,note_on,52,46,0
2,note_on,52,0,480
2,note_on,46,0,0
2,note_on,53,46,0
2,note_on,45,46,0
2,note_on,45,0,480
2,note_on,53,0,0
2,note_on,48,46,0
2,note_on,48,0,480
2,note_on,41,46,0
2,note_on,41,0,480
2,note_on,46,46,0
2,note_on,46,0,480
2,note_on,43,46,2400
2,note_on,43,0,480
2,note_on,59,50,0
2,note_on,59,0,80
2,note_on,60,44,0
2,note_on,60,0,80
2,note_on,59,50,0
2,note_on,59,0,80
2,note_on,60,44,0
2,note_on,60,0,80
2,note_on,59,51,0
2,note_on,59,0,80
2,note_on,60,44,0
2,note_on,60,0,80
2,note_on,59,51,0
2,note_on,59,0,80
2,note_on,60,46,0
2,note_on,60,0,80
2,note_on,59,52,0
2,note_on,59,0,80
2,note_on,60,51,0
2,note_on,60,0,60
2,note_on,59,48,0
2,note_on,59,0,60
2,note_on,57,48,0
2,note_on,57,0,60
2,note_on,59,48,0
2,note_on,59,0,60
2,note_on,60,48,0
2,note_on,60,0,480
2,note_on,60,47,240
2,note_on,58,43,120
2,note_on,60,0,24
2,note_on,57,47,96
2,note_on,58,0,24
2,note_on,55,46,96
2,note_on,57,0,24
2,note_on,53,44,96
2,note_on,55,0,24
2,note_on,52,42,96
2,note_on,53,0,24
2,note_on,52,0,96
2,note_on,57,53,0
2,note_on,57,0,480
2,note_on,57,52,240
2,note_on,55,47,120
2,note_on,57,0,24
2,note_on,53,51,96
2,note_on,55,0,24
2,note_on,52,50,96
2,note_on,53,0,24
2,note_on,50,48,96
2,note_on,52,0,24
2,note_on,48,46,96
2,note_on,50,0,24
2,note_on,48,0,96
2,note_on,53,57,0
2,note_on,53,0,480
2,note_on,53,56,240
2,note_on,52,51,120
2,note_on,53,0,24
2,note_on,50,55,96
2,note_on,52,0,24
2,note_on,48,54,96
2,note_on,50,0,24
2,note_on,46,52,96
2,note_on,48,0,24
2,note_on,45,49,96
2,note_on,46,0,24
2,note_on,45,0,96
2,note_on,48,57,0
2,note_on,46,57,120
2,note_on,48,0,24
2,note_on,45,57,96
2,note_on,46,0,24
2,note_on,43,58,96
2,note_on,45,0,24
2,note_on,43,0,96
2,note_on,41,81,0
2,note_on,29,71,0
2,note_on,29,0,480
2,note_on,41,0,0
2,note_on,39,72,0
2,note_on,27,63,0
2,note_on,27,0,480
2,note_on,39,0,0
2,note_on,26,71,0
2,note_on,38,81,0
2,note_on,38,0,480
2,note_on,26,0,0
2,note_on,39,73,0
2,note_on,27,64,0
2,note_on,27,0,480
2,note_on,39,0,0
2,note_on,29,63,0
2,note_on,41,72,0
2,note_on,41,0,480
2,note_on,29,0,0
2,note_on,39,81,0
2,note_on,27,71,0
2,note_on,27,0,480
2,note_on,39,0,0
2,note_on,41,71,0
2,note_on,29,62,0
2,note_on,29,0,480
2,note_on,41,0,0
2,note_on,31,62,0
2,note_on,43,71,0
2,note_on,43,0,480
2,note_on,31,0,0
2,note_on,40,80,0
2,note_on,28,70,0
2,note_on,28,0,480
2,note_on,40,0,0
2,note_on,29,60,0
2,note_on,41,69,0
2,note_on,41,0,480
2,note_on,29,0,0
2,note_on,31,60,0
2,note_on,43,69,0
2,note_on,43,0,480
2,note_on,31,0,0
2,note_on,29,67,0
2,note_on,41,77,0
2,note_on,41,0,480
2,note_on,29,0,0
2,note_on,31,59,0
2,note_on,43,67,0
2,note_on,43,0,480
2,note_on,31,0,0
2,note_on,45,67,0
2,note_on,33,59,0
2,note_on,33,0,480
2,note_on,45,0,0
2,note_on,30,64,0
2,note_on,42,73,0
2,note_on,42,0,480
2,note_on,30,0,0
2,note_on,43,65,0
2,note_on,31,57,0
2,note_on,31,0,480
2,note_on,43,0,0
2,note_on,45,65,0
2,note_on,33,57,0
2,note_on,33,0,480
2,note_on,45,0,0
2,note_on,43,72,0
2,note_on,31,63,0
2,note_on,31,0,480
2,note_on,43,0,0
2,note_on,33,57,0
2,note_on,45,65,0
2,note_on,45,0,480
2,note_on,33,0,0
2,note_on,34,69,0
2,note_on,34,0,120
2,note_on,46,65,0
2,note_on,46,0,120
2,note_on,48,65,0
2,note_on,48,0,120
2,note_on,46,61,0
2,note_on,46,0,120
2,note_on,45,65,0
2,note_on,45,0,120
2,note_on,43,69,0
2,note_on,43,0,120
2,note_on,41,69,0
2,note_on,41,0,120
2,note_on,40,69,0
2,note_on,40,0,120
2,note_on,43,69,0
2,note_on,43,0,120
2,note_on,41,65,0
2,note_on,41,0,120
2,note_on,52,65,0
2,note_on,52,0,120
2,note_on,50,65,0
2,note_on,50,0,120
2,note_on,48,65,0
2,note_on,48,0,120
2,note_on,46,63,0
2,note_on,46,0,120
2,note_on,45,65,0
2,note_on,45,0,120
2,note_on,43,60,0
2,note_on,43,0,120
2,note_on,41,69,0
2,note_on,41,0,120
2,note_on,40,71,0
2,note_on,40,0,120
2,note_on,38,73,0
2,note_on,38,0,120
2,note_on,36,75,0
2,note_on,36,0,120
2,note_on,43,71,480
2,note_on,43,0,80
2,note_on,45,65,0
2,note_on,45,0,80
2,note_on,43,71,0
2,note_on,43,0,80
2,note_on,45,65,0
2,note_on,45,0,80
2,note_on,43,71,0
2,note_on,43,0,80
2,note_on,45,66,0
2,note_on,45,0,80
2,note_on,43,71,0
2,note_on,43,0,80
2,note_on,45,65,0
2,note_on,45,0,80
2,note_on,43,71,0
2,note_on,43,0,80
2,note_on,45,66,0
2,note_on,45,0,80
2,note_on,43,71,0
2,note_on,43,0,80
2,note_on,45,66,0
2,note_on,45,0,80
2,note_on,41,88,0
2,note_on,41,0,480
2,note_on,41,75,240
2,note_on,41,0,120
2,note_on,43,68,0
2,note_on,43,0,120
2,note_on,45,75,0
2,note_on,45,0,120
2,note_on,46,74,0
2,note_on,46,0,120
2,note_on,48,74,0
2,note_on,48,0,120
2,note_on,50,74,0
2,note_on,50,0,120
2,note_on,45,87,0
2,note_on,45,0,480
2,note_on,45,75,240
2,note_on,45,0,120
2,note_on,46,68,0
2,note_on,46,0,120
2,note_on,48,75,0
2,note_on,48,0,120
2,note_on,50,74,0
2,note_on,50,0,120
2,note_on,52,74,0
2,note_on,52,0,120
2,note_on,53,74,0
2,note_on,53,0,120
2,note_on,48,87,0
2,note_on,48,0,480
2,note_on,48,67,240
2,note_on,48,0,120
2,note_on,50,63,0
2,note_on,50,0,120
2,note_on,52,73,0
2,note_on,52,0,120
2,note_on,50,63,0
2,note_on,50,0,120
2,note_on,52,63,0
2,note_on,52,0,120
2,note_on,53,63,0
2,note_on,53,0,120
2,note_on,55,74,0
2,note_on,55,0,120
2,note_on,53,63,0
2,note_on,53,0,120
2,note_on,55,63,0
2,note_on,55,0,120
2,note_on,57,63,0
2,note_on,57,0,120
2,note_on,58,74,0
2,note_on,58,0,120
2,note_on,57,62,0
2,note_on,57,0,120
2,note_on,55,62,0
2,note_on,55,0,120
2,note_on,57,62,0
2,note_on,57,0,120
2,note_on,58,73,0
2,note_on,58,0,120
2,note_on,57,61,0
2,note_on,57,0,120
2,note_on,55,62,0
2,note_on,55,0,120
2,note_on,53,62,0
2,note_on,53,0,120
2,note_on,52,74,0
2,note_on,52,0,120
2,note_on,50,62,0
2,note_on,50,0,120
2,note_on,48,62,0
2,note_on,48,0,120
2,note_on,50,62,0
2,note_on,50,0,120
2,note_on,51,73,0
2,note_on,51,0,120
2,note_on,50,62,0
2,note_on,50,0,120
2,note_on,48,62,0
2,note_on,48,0,120
2,note_on,46,62,0
2,note_on,46,0,120
2,note_on,50,76,0
2,note_on,50,0,120
2,note_on,48,62,0
2,note_on,48,0,120
2,note_on,46,62,0
2,note_on,46,0,120
2,note_on,45,62,0
2,note_on,45,0,120
2,note_on,46,73,0
2,note_on,46,0,120
2,note_on,45,63,0
2,note_on,45,0,120
2,note_on,43,63,0
2,note_on,43,0,120
2,note_on,41,63,0
2,note_on,41,0,120
2,note_on,51,78,0
2,note_on,29,98,240
2,note_on,29,0,240
2,note_on,45,72,0
2,note_on,45,0,80
2,note_on,46,65,0
2,note_on,46,0,80
2,note_on,45,72,0
2,note_on,45,0,80
2,note_on,46,64,0
2,note_on,46,0,80
2,note_on,45,72,0
2,note_on,45,0,80
2,note_on,46,64,0
2,note_on,46,0,80
2,note_on,51,0,0
2,note_on,45,72,0
2,note_on,50,72,0
2,note_on,45,0,80
2,note_on,46,65,0
2,note_on,46,0,80
2,note_on,45,72,0
2,note_on,45,0,80
2,note_on,46,70,0
2,note_on,46,0,60
2,note_on,45,63,0
2,note_on,45,0,60
2,note_on,43,63,0
2,note_on,43,0,60
2,note_on,45,63,0
2,note_on,45,0,60
2,note_on,50,0,0
2,note_on,46,84,0
2,note_on,46,0,480
2,note_on,46,60,240
2,note_on,46,0,120
2,note_on,45,54,0
2,note_on,45,0,120
2,note_on,43,60,0
2,note_on,43,0,120
2,note_on,41,53,0
2,note_on,41,0,120
2,note_on,39,53,0
2,note_on,39,0,120
2,note_on,38,53,0
2,note_on,38,0,120
2,note_on,43,65,0
2,note_on,43,0,480
2,note_on,43,60,240
2,note_on,43,0,120
2,note_on,41,54,0
2,note_on,41,0,120
2,note_on,39,60,0
2,note_on,39,0,120
2,note_on,38,53,0
2,note_on,38,0,120
2,note_on,36,53,0
2,note_on,36,0,120
2,note_on,35,53,0
2,note_on,35,0,120
2,note_on,36,65,0
2,note_on,36,0,480
2,note_on,51,60,240
2,note_on,51,0,120
2,note_on,50,53,0
2,note_on,50,0,120
2,note_on,48,60,0
2,note_on,48,0,120
2,note_on,50,53,0
2,note_on,50,0,120
2,note_on,48,53,0
2,note_on,48,0,120
2,note_on,46,53,0
2,note_on,46,0,120
2,note_on,45,64,0
2,note_on,45,0,120
2,note_on,46,58,0
2,note_on,46,0,120
2,note_on,45,61,0
2,note_on,45,0,120
2,note_on,43,64,0
2,note_on,43,0,120
2,note_on,41,72,0
2,note_on,41,0,120
2,note_on,43,60,0
2,note_on,43,0,120
2,note_on,45,60,0
2,note_on,45,0,120
2,note_on,46,60,0
2,note_on,46,0,120
2,note_on,48,68,0
2,note_on,48,0,120
2,note_on,49,56,0
2,note_on,49,0,120
2,note_on,50,56,0
2,note_on,50,0,120
2,note_on,48,56,0
2,note_on,48,0,120
2,note_on,46,66,0
2,note_on,46,0,120
2,note_on,48,57,0
2,note_on,48,0,120
2,note_on,50,57,0
2,note_on,50,0,120
2,note_on,51,57,0
2,note_on,51,0,120
2,note_on,52,60,0
2,note_on,52,0,120
2,note_on,51,55,0
2,note_on,51,0,120
2,note_on,50,60,0
2,note_on,50,0,120
2,note_on,51,54,0
2,note_on,51,0,120
2,note_on,53,59,0
2,note_on,53,0,120
2,note_on,55,56,0
2,note_on,55,0,120
2,note_on,57,61,0
2,note_on,57,0,120
2,note_on,58,57,0
2,note_on,58,0,120
2,note_on,60,63,0
2,note_on,60,0,120
2,note_on,58,60,0
2,note_on,58,0,120
2,note_on,60,66,0
2,note_on,60,0,120
2,note_on,62,62,0
2,note_on,62,0,120
2,note_on,63,68,0
2,note_on,63,0,120
2,note_on,62,63,0
2,note_on,62,0,120
2,note_on,61,62,0
2,note_on,61,0,120
2,note_on,60,60,0
2,note_on,60,0,120
2,note_on,58,65,0
2,note_on,58,0,120
2,note_on,57,60,0
2,note_on,57,0,120
2,note_on,55,57,0
2,note_on,55,0,120
2,note_on,57,55,0
2,note_on,57,0,120
2,note_on,58,63,0
2,note_on,58,0,120
2,note_on,57,57,0
2,note_on,57,0,120
2,note_on,55,58,0
2,note_on,55,0,120
2,note_on,53,58,0
2,note_on,53,0,120
2,note_on,55,58,0
2,note_on,52,50,0
2,note_on,55,0,80
2,note_on,57,52,0
2,note_on,57,0,80
2,note_on,55,58,0
2,note_on,55,0,80
2,note_on,57,52,0
2,note_on,57,0,80
2,note_on,55,58,0
2,note_on,55,0,80
2,note_on,57,53,0
2,note_on,57,0,80
2,note_on,52,0,0
2,note_on,55,58,0
2,note_on,46,58,0
2,note_on,55,0,80
2,note_on,57,53,0
2,note_on,57,0,80
2,note_on,55,58,0
2,note_on,55,0,80
2,note_on,57,54,0
2,note_on,57,0,80
2,note_on,55,58,0
2,note_on,55,0,80
2,note_on,57,54,0
2,note_on,57,0,80
2,note_on,46,0,0
2,note_on,53,58,0
2,note_on,45,51,0
2,note_on,45,0,480
2,note_on,53,0,0
2,note_on,57,58,0
2,note_on,54,50,0
2,note_on,57,0,80
2,note_on,58,52,0
2,note_on,58,0,80
2,note_on,57,58,0
2,note_on,57,0,80
2,note_on,58,52,0
2,note_on,58,0,80
2,note_on,57,58,0
2,note_on,57,0,80
2,note_on,58,53,0
2,note_on,58,0,80
2,note_on,54,0,0
2,note_on,48,58,0
2,note_on,57,58,0
2,note_on,57,0,80
2,note_on,58,53,0
2,note_on,58,0,80
2,note_on,57,58,0
2,note_on,57,0,80
2,note_on,58,54,0
2,note_on,58,0,80
2,note_on,57,58,0
2,note_on,57,0,80
2,note_on,58,54,0
2,note_on,58,0,80
2,note_on,48,0,0
2,note_on,55,58,0
2,note_on,46,51,0
2,note_on,46,0,480
2,note_on,55,0,0
2,note_on,55,50,0
2,note_on,58,58,0
2,note_on,58,0,80
2,note_on,60,52,0
2,note_on,60,0,80
2,note_on,58,58,0
2,note_on,58,0,80
2,note_on,60,52,0
2,note_on,60,0,80
2,note_on,58,58,0
2,note_on,58,0,80
2,note_on,60,53,0
2,note_on,60,0,80
2,note_on,55,0,0
2,note_on,58,58,0
2,note_on,50,58,0
2,note_on,58,0,80
2,note_on,60,53,0
2,note_on,60,0,80
2,note_on,58,58,0
2,note_on,58,0,80
2,note_on,60,54,0
2,note_on,60,0,80
2,note_on,58,58,0
2,note_on,58,0,80
2,note_on,60,54,0
2,note_on,60,0,80
2,note_on,50,0,0
2,note_on,57,58,0
2,note_on,48,51,0
2,note_on,48,0,240
2,note_on,42,52,0
2,note_on,57,0,240
2,note_on,42,0,120
2,note_on,43,48,0
2,note_on,43,0,120
2,note_on,45,50,0
2,note_on,45,0,120
2,note_on,46,53,0
2,note_on,46,0,120
2,note_on,48,55,0
2,note_on,48,0,120
2,note_on,50,58,0
2,note_on,50,0,120
2,note_on,52,60,0
2,note_on,52,0,120
2,note_on,54,63,0
2,note_on,54,0,120
2,note_on,43,65,0
2,note_on,43,0,120
2,note_on,55,55,0
2,note_on,55,0,120
2,note_on,41,62,0
2,note_on,41,0,120
2,note_on,53,51,0
2,note_on,53,0,120
2,note_on,40,53,0
2,note_on,40,0,120
2,note_on,41,48,0
2,note_on,41,0,120
2,note_on,43,50,0
2,note_on,43,0,120
2,note_on,45,53,0
2,note_on,45,0,120
2,note_on,46,55,0
2,note_on,46,0,120
2,note_on,48,58,0
2,note_on,48,0,120
2,note_on,50,60,0
2,note_on,50,0,120
2,note_on,52,63,0
2,note_on,52,0,120
2,note_on,41,65,0
2,note_on,41,0,120
2,note_on,53,55,0
2,note_on,53,0,120
2,note_on,39,62,0
2,note_on,39,0,120
2,note_on,51,51,0
2,note_on,51,0,120
2,note_on,38,53,0
2,note_on,38,0,120
2,note_on,39,48,0
2,note_on,39,0,120
2,note_on,41,50,0
2,note_on,41,0,120
2,note_on,43,53,0
2,note_on,43,0,120
2,note_on,44,55,0
2,note_on,44,0,120
2,note_on,46,58,0
2,note_on,46,0,120
2,note_on,48,60,0
2,note_on,48,0,120
2,note_on,50,63,0
2,note_on,50,0,120
2,note_on,39,74,0
2,note_on,39,0,120
2,note_on,51,63,0
2,note_on,51,0,120
2,note_on,49,71,0
2,note_on,37,58,0
2,note_on,37,0,240
2,note_on,49,0,0
2,note_on,34,66,0
2,note_on,49,66,0
2,note_on,34,0,80
2,note_on,36,52,0
2,note_on,49,0,40
2,note_on,48,53,0
2,note_on,36,0,40
2,note_on,34,66,0
2,note_on,34,0,80
2,note_on,48,0,0
2,note_on,50,53,0
2,note_on,36,52,0
2,note_on,36,0,80
2,note_on,34,66,0
2,note_on,50,0,40
2,note_on,52,53,0
2,note_on,34,0,40
2,note_on,36,52,0
2,note_on,36,0,80
2,note_on,52,0,0
2,note_on,34,66,0
2,note_on,53,57,0
2,note_on,34,0,80
2,note_on,36,52,0
2,note_on,53,0,40
2,note_on,55,59,0
2,note_on,36,0,40
2,note_on,34,66,0
2,note_on,34,0,80
2,note_on,55,0,0
2,note_on,36,52,0
2,note_on,57,61,0
2,note_on,36,0,80
2,note_on,34,66,0
2,note_on,57,0,40
2,note_on,58,63,0
2,note_on,34,0,40
2,note_on,36,52,0
2,note_on,36,0,80
2,note_on,58,0,0
2,note_on,33,66,0
2,note_on,60,65,0
2,note_on,60,0,120
2,note_on,57,64,0
2,note_on,57,0,120
2,note_on,55,62,0
2,note_on,55,0,120
2,note_on,53,60,0
2,note_on,53,0,120
2,note_on,33,0,0
2,note_on,51,66,0
2,note_on,36,66,0
2,note_on,36,0,80
2,note_on,38,52,0
2,note_on,51,0,40
2,note_on,50,53,0
2,note_on,38,0,40
2,note_on,36,66,0
2,note_on,36,0,80
2,note_on,50,0,0
2,note_on,38,52,0
2,note_on,52,53,0
2,note_on,38,0,80
2,note_on,36,66,0
2,note_on,52,0,40
2,note_on,54,53,0
2,note_on,36,0,40
2,note_on,38,52,0
2,note_on,38,0,80
2,note_on,54,0,0
2,note_on,36,66,0
2,note_on,55,57,0
2,note_on,36,0,80
2,note_on,38,52,0
2,note_on,55,0,40
2,note_on,57,59,0
2,note_on,36,66,39
2,note_on,38,0,1
2,note_on,36,0,79
2,note_on,57,0,1
2,note_on,38,52,0
2,note_on,58,61,0
2,note_on,38,0,80
2,note_on,36,66,0
2,note_on,58,0,40
2,note_on,60,63,0
2,note_on,36,0,40
2,note_on,38,52,0
2,note_on,38,0,80
2,note_on,60,0,0
2,note_on,34,66,0
2,note_on,62,65,0
2,note_on,62,0,120
2,note_on,58,64,0
2,note_on,58,0,120
2,note_on,57,62,0
2,note_on,57,0,120
2,note_on,55,60,0
2,note_on,55,0,120
2,note_on,34,0,0
2,note_on,53,66,0
2,note_on,38,66,0
2,note_on,38,0,80
2,note_on,39,52,0
2,note_on,53,0,40
2,note_on,51,53,0
2,note_on,39,0,40
2,note_on,38,66,0
2,note_on,38,0,80
2,note_on,51,0,0
2,note_on,53,53,0
2,note_on,39,52,0
2,note_on,39,0,80
2,note_on,38,66,0
2,note_on,53,0,40
2,note_on,55,53,0
2,note_on,38,0,40
2,note_on,39,52,0
2,note_on,39,0,80
2,note_on,55,0,0
2,note_on,57,57,0
2,note_on,38,66,0
2,note_on,38,0,80
2,note_on,39,52,0
2,note_on,57,0,40
2,note_on,58,59,0
2,note_on,39,0,40
2,note_on,38,66,0
2,note_on,38,0,80
2,note_on,58,0,0
2,note_on,60,61,0
2,note_on,39,52,0
2,note_on,39,0,80
2,note_on,38,66,0
2,note_on,60,0,40
2,note_on,62,63,0
2,note_on,38,0,40
2,note_on,39,52,0
2,note_on,39,0,80
2,note_on,62,0,0
2,note_on,36,66,0
2,note_on,63,65,0
2,note_on,63,0,120
2,note_on,60,64,0
2,note_on,60,0,120
2,note_on,58,62,0
2,note_on,58,0,120
2,note_on,57,60,0
2,note_on,57,0,120
2,note_on,36,0,0
2,note_on,39,66,0
2,note_on,39,0,80
2,note_on,41,60,0
2,note_on,41,0,80
2,note_on,39,66,0
2,note_on,39,0,80
2,note_on,41,62,0
2,note_on,41,0,60
2,note_on,39,55,0
2,note_on,39,0,60
2,note_on,38,55,0
2,note_on,38,0,60
2,note_on,39,55,0
2,note_on,39,0,60
2,note_on,38,63,0
2,note_on,38,0,480
2,note_on,40,63,0
2,note_on,40,0,240
2,note_on,52,57,0
2,note_on,52,0,240
2,note_on,53,37,0
2,note_on,63,49,120
2,note_on,63,0,120
2,note_on,62,48,0
2,note_on,62,0,120
2,note_on,60,48,0
2,note_on,60,0,120
2,note_on,59,48,0
2,note_on,59,0,120
2,note_on,60,52,0
2,note_on,60,0,120
2,note_on,62,49,0
2,note_on,62,0,120
2,note_on,63,46,0
2,note_on,63,0,120
2,note_on,64,53,0
2,note_on,64,0,120
2,note_on,65,43,0
2,note_on,65,0,120
2,note_on,67,49,0
2,note_on,67,0,120
2,note_on,65,40,0
2,note_on,65,0,120
2,note_on,53,0,0
2,note_on,60,45,0
2,note_on,53,37,0
2,note_on,60,0,120
2,note_on,62,41,0
2,note_on,62,0,120
2,note_on,63,45,0
2,note_on,63,0,120
2,note_on,62,39,0
2,note_on,62,0,120
2,note_on,65,45,480
2,note_on,65,0,120
2,note_on,63,41,0
2,note_on,63,0,120
2,note_on,62,45,0
2,note_on,62,0,120
2,note_on,63,41,0
2,note_on,63,0,120
2,note_on,53,0,0
2,note_on,60,48,0
2,note_on,53,37,0
2,note_on,60,0,120
2,note_on,62,41,0
2,note_on,62,0,120
2,note_on,60,48,0
2,note_on,60,0,120
2,note_on,58,41,0
2,note_on,58,0,120
2,note_on,57,48,0
2,note_on,57,0,120
2,note_on,58,52,0
2,note_on,58,0,120
2,note_on,60,49,0
2,note_on,60,0,120
2,note_on,62,46,0
2,note_on,62,0,120
2,note_on,63,53,0
2,note_on,63,0,120
2,note_on,64,43,0
2,note_on,64,0,120
2,note_on,65,49,0
2,note_on,65,0,120
2,note_on,63,40,0
2,note_on,63,0,120
2,note_on,53,0,0
2,note_on,53,37,0
2,note_on,58,45,0
2,note_on,58,0,120
2,note_on,60,41,0
2,note_on,60,0,120
2,note_on,62,45,0
2,note_on,62,0,120
2,note_on,63,39,0
2,note_on,63,0,120
2,note_on,63,45,480
2,note_on,63,0,120
2,note_on,62,41,0
2,note_on,62,0,120
2,note_on,53,0,0
2,note_on,60,45,0
2,note_on,54,37,0
2,note_on,60,0,120
2,note_on,58,41,0
2,note_on,58,0,120
2,note_on,54,0,0
2,note_on,55,77,0
2,note_on,43,65,0
2,note_on,43,0,120
2,note_on,55,0,0
2,note_on,41,72,360
2,note_on,53,85,0
2,note_on,53,0,720
2,note_on,41,0,0
2,note_on,53,72,0
2,note_on,41,61,0
2,note_on,41,0,240
2,note_on,53,0,0
2,note_on,53,74,0
2,note_on,41,62,0
2,note_on,41,0,240
2,note_on,53,0,0
2,note_on,40,54,0
2,note_on,52,64,0
2,note_on,52,0,180
2,note_on,40,0,0
2,note_on,49,66,60
2,note_on,37,56,0
2,note_on,37,0,240
2,note_on,49,0,0
2,note_on,36,50,0
2,note_on,48,59,0
2,note_on,48,0,180
2,note_on,36,0,0
2,note_on,35,56,60
2,note_on,47,66,0
2,note_on,47,0,240
2,note_on,35,0,0
2,note_on,36,47,0
2,note_on,48,56,0
2,note_on,48,0,180
2,note_on,36,0,0
2,note_on,53,77,60
2,note_on,41,65,0
2,note_on,41,0,120
2,note_on,53,0,0
2,note_on,39,72,360
2,note_on,51,85,0
2,note_on,51,0,720
2,note_on,39,0,0
2,note_on,51,72,0
2,note_on,39,61,0
2,note_on,39,0,240
2,note_on,51,0,0
2,note_on,51,74,0
2,note_on,39,62,0
2,note_on,39,0,240
2,note_on,51,0,0
2,note_on,50,64,0
2,note_on,38,54,0
2,note_on,38,0,180
2,note_on,50,0,0
2,note_on,48,66,60
2,note_on,36,56,0
2,note_on,36,0,240
2,note_on,48,0,0
2,note_on,47,59,0
2,note_on,35,50,0
2,note_on,35,0,180
2,note_on,47,0,0
2,note_on,53,66,1500
2,note_on,41,56,0
2,note_on,41,0,240
2,note_on,53,0,0
2,note_on,39,51,0
2,note_on,51,60,0
2,note_on,51,0,180
2,note_on,39,0,0
2,note_on,51,66,60
2,note_on,39,56,0
2,note_on,39,0,240
2,note_on,51,0,0
2,note_on,38,51,0
2,note_on,50,60,0
2,note_on,50,0,180
2,note_on,38,0,0
2,note_on,36,56,60
2,note_on,48,66,0
2,note_on,48,0,240
2,note_on,36,0,0
2,note_on,34,51,0
2,note_on,46,61,0
2,note_on,46,0,180
2,note_on,34,0,0
2,note_on,42,64,4380
2,note_on,54,76,0
2,note_on,54,0,240
2,note_on,42,0,0
2,note_on,55,66,0
2,note_on,43,56,0
2,note_on,43,0,120
2,note_on,55,0,0
2,note_on,41,61,120
2,note_on,53,72,0
2,note_on,53,0,240
2,note_on,41,0,0
2,note_on,52,66,0
2,note_on,40,56,0
2,note_on,40,0,120
2,note_on,52,0,0
2,note_on,55,72,120
2,note_on,43,61,0
2,note_on,43,0,240
2,note_on,55,0,0
2,note_on,57,66,0
2,note_on,45,56,0
2,note_on,45,0,120
2,note_on,57,0,0
2,note_on,43,62,120
2,note_on,55,74,0
2,note_on,55,0,240
2,note_on,43,0,0
2,note_on,42,56,0
2,note_on,54,66,0
2,note_on,54,0,120
2,note_on,42,0,0
2,note_on,45,64,120
2,note_on,57,76,0
2,note_on,57,0,240
2,note_on,45,0,0
2,note_on,58,66,0
2,note_on,46,56,0
2,note_on,46,0,120
2,note_on,58,0,0
2,note_on,42,62,120
2,note_on,54,74,0
2,note_on,54,0,240
2,note_on,42,0,0
2,note_on,43,56,0
2,note_on,55,66,0
2,note_on,55,0,120
2,note_on,43,0,0
2,note_on,39,65,120
2,note_on,51,77,0
2,note_on,51,0,240
2,note_on,39,0,0
2,note_on,40,56,0
2,note_on,52,66,0
2,note_on,52,0,120
2,note_on,40,0,0
2,note_on,58,56,120
2,note_on,61,66,0
2,note_on,61,0,240
2,note_on,58,0,0
2,note_on,46,69,240
2,note_on,43,65,0
2,note_on,43,0,80
2,note_on,45,57,0
2,note_on,45,0,80
2,note_on,43,65,0
2,note_on,43,0,80
2,note_on,45,58,0
2,note_on,45,0,80
2,note_on,43,66,0
2,note_on,43,0,80
2,note_on,45,58,0
2,note_on,45,0,80
2,note_on,43,66,0
2,note_on,43,0,80
2,note_on,45,61,0
2,note_on,45,0,80
2,note_on,43,67,0
2,note_on,43,0,80
2,note_on,45,58,0
2,note_on,45,0,60
2,note_on,43,69,0
2,note_on,43,0,60
2,note_on,41,62,0
2,note_on,41,0,60
2,note_on,43,66,0
2,note_on,43,0,60
2,note_on,46,0,0
2,note_on,64,62,2160
2,note_on,64,0,240
2,note_on,65,73,0
2,note_on,65,0,240
2,note_on,61,62,960
2,note_on,61,0,240
2,note_on,62,73,0
2,note_on,62,0,240
2,note_on,70,70,960
2,note_on,69,65,120
2,note_on,70,0,24
2,note_on,67,70,96
2,note_on,69,0,24
2,note_on,69,61,96
2,note_on,67,0,24
2,note_on,67,67,96
2,note_on,69,0,24
2,note_on,65,61,96
2,note_on,67,0,24
2,note_on,64,68,96
2,note_on,65,0,24
2,note_on,65,62,96
2,note_on,64,0,24
2,note_on,64,62,96
2,note_on,65,0,24
2,note_on,62,62,96
2,note_on,64,0,24
2,note_on,60,66,96
2,note_on,62,0,24
2,note_on,62,59,96
2,note_on,60,0,24
2,note_on,64,63,96
2,note_on,62,0,24
2,note_on,65,59,96
2,note_on,64,0,24
2,note_on,66,66,96
2,note_on,65,0,24
2,note_on,67,59,96
2,note_on,66,0,24
2,note_on,69,65,96
2,note_on,67,0,24
2,note_on,67,60,96
2,note_on,69,0,24
2,note_on,67,0,96
2,note_on,70,85,0
2,note_on,70,0,240
2,note_on,69,89,240
2,note_on,69,0,720
2,note_on,69,82,0
2,note_on,69,0,240
2,note_on,66,68,0
2,note_on,67,62,120
2,note_on,66,0,24
2,note_on,66,62,96
2,note_on,67,0,24
2,note_on,64,62,96
2,note_on,66,0,24
2,note_on,62,66,96
2,note_on,64,0,24
2,note_on,64,59,96
2,note_on,62,0,24
2,note_on,66,63,96
2,note_on,64,0,24
2,note_on,67,59,96
2,note_on,66,0,24
2,note_on,68,66,96
2,note_on,67,0,24
2,note_on,69,59,96
2,note_on,68,0,24
2,note_on,70,65,96
2,note_on,69,0,24
2,note_on,69,60,96
2,note_on,70,0,24
2,note_on,69,0,96
2,note_on,72,85,0
2,note_on,72,0,240
2,note_on,70,89,240
2,note_on,70,0,720
2,note_on,70,82,0
2,note_on,70,0,240
2,note_on,69,68,0
2,note_on,70,62,120
2,note_on,69,0,24
2,note_on,69,62,96
2,note_on,70,0,24
2,note_on,67,62,96
2,note_on,69,0,24
2,note_on,65,66,96
2,note_on,67,0,24
2,note_on,67,59,96
2,note_on,65,0,24
2,note_on,69,63,96
2,note_on,67,0,24
2,note_on,70,59,96
2,note_on,69,0,24
2,note_on,71,66,96
2,note_on,70,0,24
2,note_on,72,59,96
2,note_on,71,0,24
2,note_on,74,65,96
2,note_on,72,0,24
2,note_on,72,60,96
2,note_on,74,0,24
2,note_on,72,0,96
2,note_on,75,85,0
2,note_on,75,0,240
2,note_on,74,89,240
2,note_on,74,0,720
2,note_on,75,85,0
2,note_on,75,0,120
2,note_on,73,76,0
2,note_on,73,0,120
2,note_on,71,86,0
2,note_on,72,79,120
2,note_on,71,0,24
2,note_on,73,79,96
2,note_on,72,0,24
2,note_on,72,80,96
2,note_on,73,0,24
2,note_on,72,0,96
2,note_on,69,86,0
2,note_on,70,83,120
2,note_on,69,0,24
2,note_on,72,83,96
2,note_on,70,0,24
2,note_on,70,83,96
2,note_on,72,0,24
2,note_on,70,0,96
2,note_on,68,88,0
2,note_on,69,84,120
2,note_on,68,0,24
2,note_on,70,85,96
2,note_on,69,0,24
2,note_on,69,85,96
2,note_on,70,0,24
2,note_on,69,0,96
2,note_on,29,84,0
2,note_on,29,0,120
2,note_on,45,66,360
2,note_on,45,0,80
2,note_on,46,58,0
2,note_on,46,0,80
2,note_on,45,66,0
2,note_on,45,0,80
2,note_on,46,59,0
2,note_on,46,0,80
2,note_on,45,66,0
2,note_on,45,0,80
2,note_on,46,60,0
2,note_on,46,0,80
2,note_on,45,66,0
2,note_on,45,0,80
2,note_on,46,66,0
2,note_on,46,0,80
2,note_on,45,66,0
2,note_on,45,0,80
2,note_on,46,60,0
2,note_on,46,0,60
2,note_on,45,66,0
2,note_on,45,0,60
2,note_on,43,60,0
2,note_on,43,0,60
2,note_on,45,60,0
2,note_on,45,0,60
2,note_on,46,71,0
2,note_on,46,0,480
2,note_on,46,60,240
2,note_on,46,0,120
2,note_on,45,52,0
2,note_on,45,0,120
2,note_on,43,59,0
2,note_on,43,0,120
2,note_on,41,59,0
2,note_on,41,0,120
2,note_on,39,63,0
2,note_on,39,0,120
2,note_on,38,64,0
2,note_on,38,0,120
2,note_on,41,69,0
2,note_on,41,0,480
2,note_on,43,60,240
2,note_on,43,0,120
2,note_on,41,52,0
2,note_on,41,0,120
2,note_on,39,59,0
2,note_on,39,0,120
2,note_on,38,59,0
2,note_on,38,0,120
2,note_on,36,63,0
2,note_on,36,0,120
2,note_on,34,64,0
2,note_on,34,0,120
2,note_on,39,69,0
2,note_on,39,0,480
2,note_on,39,60,240
2,note_on,39,0,120
2,note_on,38,52,0
2,note_on,38,0,120
2,note_on,36,59,0
2,note_on,36,0,120
2,note_on,38,59,0
2,note_on,38,0,120
2,note_on,36,63,0
2,note_on,36,0,120
2,note_on,34,64,0
2,note_on,34,0,120
2,note_on,33,59,0
2,note_on,33,0,240
2,note_on,45,60,0
2,note_on,45,0,120
2,note_on,43,52,0
2,note_on,43,0,120
2,note_on,53,59,0
2,note_on,41,59,0
2,note_on,41,0,240
2,note_on,53,0,0
2,note_on,69,59,240
2,note_on,69,0,80
2,note_on,70,54,0
2,note_on,70,0,80
2,note_on,69,59,0
2,note_on,69,0,80
2,note_on,70,54,0
2,note_on,70,0,80
2,note_on,69,59,0
2,note_on,69,0,80
2,note_on,70,53,0
2,note_on,70,0,80
2,note_on,69,59,0
2,note_on,69,0,80
2,note_on,70,54,0
2,note_on,70,0,80
2,note_on,69,59,0
2,note_on,69,0,80
2,note_on,70,53,0
2,note_on,70,0,60
2,note_on,69,56,0
2,note_on,69,0,60
2,note_on,67,53,0
2,note_on,67,0,60
2,note_on,69,53,0
2,note_on,69,0,60
2,note_on,70,59,0
2,note_on,46,73,240
2,note_on,46,0,120
2,note_on,70,0,120
2,note_on,62,73,0
2,note_on,62,0,60
2,note_on,63,68,0
2,note_on,63,0,60
2,note_on,62,73,0
2,note_on,62,0,60
2,note_on,63,68,0
2,note_on,63,0,60
2,note_on,70,73,0
2,note_on,70,0,120
2,note_on,69,74,0
2,note_on,69,0,120
2,note_on,67,72,0
2,note_on,67,0,120
2,note_on,65,69,0
2,note_on,65,0,120
2,note_on,63,67,0
2,note_on,63,0,120
2,note_on,62,64,0
2,note_on,62,0,120
2,note_on,67,73,0
2,note_on,67,0,480
2,note_on,67,73,240
2,note_on,67,0,120
2,note_on,65,74,0
2,note_on,65,0,120
2,note_on,63,72,0
2,note_on,63,0,120
2,note_on,62,69,0
2,note_on,62,0,120
2,note_on,60,67,0
2,note_on,60,0,120
2,note_on,59,64,0
2,note_on,59,0,120
2,note_on,63,73,0
2,note_on,51,73,240
2,note_on,51,0,120
2,note_on,63,0,120
2,note_on,60,73,0
2,note_on,60,0,60
2,note_on,62,68,0
2,note_on,62,0,60
2,note_on,60,73,0
2,note_on,60,0,60
2,note_on,62,68,0
2,note_on,62,0,60
2,note_on,63,62,0
2,note_on,63,0,120
2,note_on,62,62,0
2,note_on,62,0,120
2,note_on,60,61,0
2,note_on,60,0,120
2,note_on,59,58,0
2,note_on,59,0,120
2,note_on,57,56,0
2,note_on,57,0,120
2,note_on,55,54,0
2,note_on,55,0,120
2,note_on,36,73,0
2,note_on,63,62,0
2,note_on,36,0,240
2,note_on,63,0,240
2,note_on,52,59,0
2,note_on,52,0,80
2,note_on,53,54,0
2,note_on,53,0,80
2,note_on,52,59,0
2,note_on,52,0,80
2,note_on,53,54,0
2,note_on,53,0,80
2,note_on,52,59,0
2,note_on,52,0,80
2,note_on,53,53,0
2,note_on,53,0,80
2,note_on,52,59,0
2,note_on,52,0,80
2,note_on,53,54,0
2,note_on,53,0,80
2,note_on,52,59,0
2,note_on,52,0,80
2,note_on,53,53,0
2,note_on,53,0,60
2,note_on,52,56,0
2,note_on,52,0,60
2,note_on,50,53,0
2,note_on,50,0,60
2,note_on,52,53,0
2,note_on,52,0,60
2,note_on,53,59,0
2,note_on,53,0,480
2,note_on,53,64,240
2,note_on,53,0,120
2,note_on,52,59,0
2,note_on,52,0,120
2,note_on,50,65,0
2,note_on,50,0,120
2,note_on,48,62,0
2,note_on,48,0,120
2,note_on,46,59,0
2,note_on,46,0,120
2,note_on,45,56,0
2,note_on,45,0,120
2,note_on,55,86,0
2,note_on,55,0,480
2,note_on,58,76,0
2,note_on,58,0,240
2,note_on,55,64,0
2,note_on,55,0,120
2,note_on,53,60,0
2,note_on,53,0,120
2,note_on,51,64,0
2,note_on,51,0,120
2,note_on,50,61,0
2,note_on,50,0,120
2,note_on,48,60,0
2,note_on,48,0,120
2,note_on,46,59,0
2,note_on,46,0,120
2,note_on,57,64,0
2,note_on,57,0,480
2,note_on,57,62,240
2,note_on,57,0,120
2,note_on,55,59,0
2,note_on,55,0,120
2,note_on,53,64,0
2,note_on,53,0,120
2,note_on,51,61,0
2,note_on,51,0,120
2,note_on,50,59,0
2,note_on,50,0,120
2,note_on,48,57,0
2,note_on,48,0,120
2,note_on,46,61,0
2,note_on,46,0,120
2,note_on,57,67,0
2,note_on,57,0,120
2,note_on,55,58,0
2,note_on,55,0,120
2,note_on,53,56,0
2,note_on,53,0,120
2,note_on,58,64,0
2,note_on,58,0,120
2,note_on,57,61,0
2,note_on,57,0,120
2,note_on,62,64,0
2,note_on,62,0,120
2,note_on,60,60,0
2,note_on,60,0,120
2,note_on,58,67,0
2,note_on,58,0,120
2,note_on,57,64,0
2,note_on,57,0,120
2,note_on,55,62,0
2,note_on,55,0,120
2,note_on,53,60,0
2,note_on,53,0,120
2,note_on,51,66,0
2,note_on,51,0,120
2,note_on,50,64,0
2,note_on,50,0,120
2,note_on,48,62,0
2,note_on,48,0,120
2,note_on,46,60,0
2,note_on,46,0,120
2,note_on,43,68,0
2,note_on,43,0,120
2,note_on,45,66,0
2,note_on,45,0,120
2,note_on,46,63,0
2,note_on,46,0,120
2,note_on,47,61,0
2,note_on,47,0,120
2,note_on,48,61,0
2,note_on,48,0,120
2,note_on,50,62,0
2,note_on,50,0,120
2,note_on,51,64,0
2,note_on,51,0,120
2,note_on,50,62,0
2,note_on,50,0,120
2,note_on,48,61,0
2,note_on,48,0,120
2,note_on,46,58,0
2,note_on,46,0,120
2,note_on,45,58,0
2,note_on,45,0,120
2,note_on,43,57,0
2,note_on,43,0,120
2,note_on,41,61,0
2,note_on,41,0,120
2,note_on,39,61,0
2,note_on,39,0,120
2,note_on,38,64,0
2,note_on,38,0,120
2,note_on,36,66,0
2,note_on,36,0,120
2,note_on,34,76,0
2,note_on,34,0,240
2,note_on,50,64,240
2,note_on,50,0,80
2,note_on,51,59,0
2,note_on,51,0,80
2,note_on,50,65,0
2,note_on,50,0,80
2,note_on,51,60,0
2,note_on,51,0,80
2,note_on,50,66,0
2,note_on,50,0,80
2,note_on,51,61,0
2,note_on,51,0,80
2,note_on,50,67,0
2,note_on,50,0,80
2,note_on,51,62,0
2,note_on,51,0,80
2,note_on,50,68,0
2,note_on,50,0,80
2,note_on,51,65,0
2,note_on,51,0,60
2,note_on,50,69,0
2,note_on,50,0,60
2,note_on,48,65,0
2,note_on,48,0,60
2,note_on,50,65,0
2,note_on,50,0,60
2,note_on,51,72,0
2,note_on,51,0,240
2,note_on,52,67,1920
2,note_on,52,0,240
2,note_on,53,72,0
2,note_on,53,0,480
2,note_on,53,72,240
2,note_on,53,0,240
2,note_on,63,61,0
2,note_on,66,72,0
2,note_on,66,0,720
2,note_on,63,0,0
2,note_on,66,66,0
2,note_on,63,56,0
2,note_on,63,0,240
2,note_on,66,0,0
2,note_on,63,59,0
2,note_on,66,70,0
2,note_on,66,0,240
2,note_on,63,0,0
2,note_on,65,67,0
2,note_on,62,56,0
2,note_on,62,0,240
2,note_on,65,0,0
2,note_on,60,55,0
2,note_on,63,65,0
2,note_on,63,0,240
2,note_on,60,0,0
2,note_on,62,63,0
2,note_on,58,53,0
2,note_on,58,0,240
2,note_on,62,0,0
2,note_on,50,63,0
2,note_on,50,0,120
2,note_on,51,56,0
2,note_on,51,0,120
2,note_on,50,57,0
2,note_on,50,0,120
2,note_on,48,57,0
2,note_on,48,0,120
2,note_on,46,63,0
2,note_on,46,0,120
2,note_on,48,58,0
2,note_on,48,0,120
2,note_on,50,58,0
2,note_on,50,0,120
2,note_on,51,58,0
2,note_on,51,0,120
2,note_on,52,61,0
2,note_on,52,0,120
2,note_on,53,62,0
2,note_on,53,0,120
2,note_on,55,64,0
2,note_on,55,0,120
2,note_on,53,62,0
2,note_on,53,0,120
2,note_on,50,61,0
2,note_on,50,0,120
2,note_on,51,63,0
2,note_on,51,0,120
2,note_on,53,65,0
2,note_on,53,0,120
2,note_on,51,63,0
2,note_on,51,0,120
2,note_on,47,63,0
2,note_on,47,0,120
2,note_on,48,63,0
2,note_on,48,0,120
2,note_on,50,65,0
2,note_on,50,0,120
2,note_on,51,66,0
2,note_on,51,0,120
2,note_on,52,68,0
2,note_on,52,0,120
2,note_on,53,70,0
2,note_on,53,0,120
2,note_on,55,73,0
2,note_on,55,0,120
2,note_on,53,69,0
2,note_on,53,0,120
2,note_on,53,71,0
2,note_on,41,60,0
2,note_on,41,0,240
2,note_on,53,0,0
2,note_on,34,56,0
2,note_on,46,67,0
2,note_on,46,0,240
2,note_on,34,0,0
2,note_on,34,45,960
2,note_on,34,0,240
2,note_on,50,56,240
2,note_on,50,0,80
2,note_on,51,51,0
2,note_on,51,0,80
2,note_on,50,59,0
2,note_on,50,0,80
2,note_on,51,55,0
2,note_on,51,0,60
2,note_on,50,63,0
2,note_on,50,0,60
2,note_on,51,56,0
2,note_on,51,0,60
2,note_on,50,58,0
2,note_on,50,0,60
2,note_on,51,67,0
2,note_on,63,67,0
2,note_on,63,0,240
2,note_on,51,0,0
2,note_on,78,57,240
2,note_on,78,0,480
2,note_on,42,77,0
2,note_on,54,84,0
2,note_on,54,0,240
2,note_on,42,0,0
2,note_on,27,100,240
2,note_on,27,0,80
2,note_on,29,56,0
2,note_on,29,0,80
2,note_on,27,66,0
2,note_on,27,0,80
2,note_on,29,55,0
2,note_on,29,0,80
2,note_on,27,66,0
2,note_on,27,0,80
2,note_on,29,54,0
2,note_on,29,0,80
2,note_on,27,64,0
2,note_on,27,0,80
2,note_on,29,57,0
2,note_on,29,0,80
2,note_on,27,63,0
2,note_on,27,0,80
2,note_on,29,53,0
2,note_on,29,0,80
2,note_on,27,62,0
2,note_on,27,0,80
2,note_on,29,55,0
2,note_on,29,0,80
2,note_on,27,62,0
2,note_on,27,0,80
2,note_on,29,52,0
2,note_on,29,0,80
2,note_on,27,61,0
2,note_on,27,0,80
2,note_on,29,51,0
2,note_on,29,0,80
2,note_on,27,59,0
2,note_on,27,0,80
2,note_on,29,50,0
2,note_on,29,0,80
2,note_on,27,58,0
2,note_on,27,0,80
2,note_on,29,50,0
2,note_on,29,0,80
2,note_on,27,57,0
2,note_on,27,0,80
2,note_on,29,51,0
2,note_on,29,0,80
2,note_on,27,57,0
2,note_on,27,0,80
2,note_on,29,49,0
2,note_on,29,0,80
2,note_on,27,56,0
2,note_on,27,0,80
2,note_on,29,49,0
2,note_on,29,0,80
2,note_on,27,56,0
2,note_on,27,0,80
2,note_on,29,49,0
2,note_on,29,0,80
2,note_on,27,56,0
2,note_on,27,0,80
2,note_on,29,48,0
2,note_on,29,0,80
2,note_on,27,56,0
2,note_on,27,0,80
2,note_on,29,48,0
2,note_on,29,0,80
2,note_on,27,56,0
2,note_on,27,0,80
2,note_on,29,48,0
2,note_on,29,0,80
2,note_on,27,56,0
2,note_on,27,0,80
2,note_on,29,48,0
2,note_on,29,0,80
2,note_on,27,56,0
2,note_on,27,0,80
2,note_on,29,49,0
2,note_on,29,0,80
2,note_on,27,56,0
2,note_on,27,0,80
2,note_on,29,50,0
2,note_on,29,0,80
2,note_on,27,56,0
2,note_on,27,0,80
2,note_on,29,49,0
2,note_on,29,0,80
2,note_on,27,56,0
2,note_on,27,0,80
2,note_on,29,49,0
2,note_on,29,0,80
2,note_on,27,56,0
2,note_on,27,0,80
2,note_on,29,49,0
2,note_on,29,0,80
2,note_on,27,56,0
2,note_on,27,0,80
2,note_on,29,48,0
2,note_on,29,0,80
2,note_on,27,56,0
2,note_on,27,0,80
2,note_on,29,48,0
2,note_on,29,0,80
2,note_on,27,56,0
2,note_on,27,0,80
2,note_on,29,48,0
2,note_on,29,0,80
2,note_on,27,56,0
2,note_on,27,0,80
2,note_on,29,48,0
2,note_on,29,0,80
2,note_on,27,56,0
2,note_on,27,0,80
2,note_on,29,49,0
2,note_on,29,0,80
2,note_on,27,56,0
2,note_on,27,0,80
2,note_on,29,50,0
2,note_on,29,0,80
2,note_on,27,56,0
2,note_on,27,0,80
2,note_on,29,41,0
2,note_on,29,0,80
2,note_on,29,30,0
2,note_on,34,54,0
2,note_on,34,0,80
2,note_on,36,44,0
2,note_on,36,0,80
2,note_on,34,52,0
2,note_on,34,0,80
2,note_on,36,39,0
2,note_on,36,0,80
2,note_on,34,49,0
2,note_on,34,0,80
2,note_on,36,38,0
2,note_on,36,0,80
2,note_on,29,0,0
2,note_on,29,30,0
2,note_on,34,46,0
2,note_on,34,0,80
2,note_on,36,36,0
2,note_on,36,0,80
2,note_on,34,44,0
2,note_on,34,0,80
2,note_on,36,33,0
2,note_on,36,0,80
2,note_on,34,41,0
2,note_on,34,0,80
2,note_on,36,30,0
2,note_on,36,0,80
2,note_on,34,37,0
2,note_on,34,0,80
2,note_on,36,31,0
2,note_on,36,0,80
2,note_on,34,37,0
2,note_on,34,0,80
2,note_on,36,32,0
2,note_on,36,0,80
2,note_on,34,37,0
2,note_on,34,0,80
2,note_on,36,32,0
2,note_on,36,0,80
2,note_on,34,37,0
2,note_on,34,0,80
2,note_on,36,31,0
2,note_on,36,0,80
2,note_on,34,37,0
2,note_on,34,0,80
2,note_on,36,30,0
2,note_on,36,0,80
2,note_on,34,37,0
2,note_on,34,0,80
2,note_on,36,31,0
2,note_on,36,0,80
2,note_on,29,0,0
2,note_on,34,37,0
2,note_on,29,30,0
2,note_on,34,0,80
2,note_on,36,31,0
2,note_on,36,0,80
2,note_on,34,37,0
2,note_on,34,0,80
2,note_on,36,30,0
2,note_on,36,0,80
2,note_on,34,37,0
2,note_on,34,0,80
2,note_on,36,31,0
2,note_on,36,0,80
2,note_on,34,37,0
2,note_on,34,0,80
2,note_on,36,31,0
2,note_on,36,0,80
2,note_on,34,37,0
2,note_on,34,0,80
2,note_on,36,30,0
2,note_on,36,0,80
2,note_on,34,37,0
2,note_on,34,0,80
2,note_on,36,31,0
2,note_on,36,0,80
2,note_on,34,37,0
2,note_on,34,0,80
2,note_on,36,31,0
2,note_on,36,0,80
2,note_on,34,37,0
2,note_on,34,0,80
2,note_on,36,30,0
2,note_on,36,0,80
2,note_on,34,37,0
2,note_on,34,0,80
2,note_on,36,31,0
2,note_on,36,0,80
2,note_on,29,0,0
2,note_on,34,37,0
2,note_on,29,30,0
2,note_on,34,0,80
2,note_on,36,31,0
2,note_on,36,0,80
2,note_on,34,37,0
2,note_on,34,0,80
2,note_on,36,30,0
2,note_on,36,0,80
2,note_on,34,37,0
2,note_on,34,0,80
2,note_on,36,31,0
2,note_on,36,0,80
2,note_on,34,37,0
2,note_on,34,0,80
2,note_on,36,31,0
2,note_on,36,0,80
2,note_on,34,37,0
2,note_on,34,0,80
2,note_on,36,30,0
2,note_on,36,0,80
2,note_on,34,37,0
2,note_on,34,0,80
2,note_on,36,31,0
2,note_on,36,0,80
2,note_on,34,37,0
2,note_on,34,0,80
2,note_on,36,31,0
2,note_on,36,0,80
2,note_on,34,37,0
2,note_on,34,0,80
2,note_on,36,30,0
2,note_on,36,0,80
2,note_on,34,37,0
2,note_on,34,0,80
2,note_on,36,31,0
2,note_on,36,0,80
2,note_on,29,0,0
2,note_on,29,30,0
2,note_on,34,37,0
2,note_on,34,0,80
2,note_on,36,31,0
2,note_on,36,0,80
2,note_on,34,37,0
2,note_on,34,0,80
2,note_on,36,30,0
2,note_on,36,0,80
2,note_on,34,37,0
2,note_on,34,0,80
2,note_on,36,31,0
2,note_on,36,0,80
2,note_on,34,37,0
2,note_on,34,0,80
2,note_on,36,31,0
2,note_on,36,0,80
2,note_on,34,37,0
2,note_on,34,0,80
2,note_on,36,30,0
2,note_on,36,0,80
2,note_on,34,37,0
2,note_on,34,0,80
2,note_on,36,31,0
2,note_on,36,0,80
2,note_on,34,37,0
2,note_on,34,0,80
2,note_on,36,31,0
2,note_on,36,0,80
2,note_on,34,37,0
2,note_on,34,0,80
2,note_on,36,30,0
2,note_on,36,0,80
2,note_on,34,37,0
2,note_on,34,0,80
2,note_on,36,31,0
2,note_on,36,0,80
2,note_on,29,0,0
2,note_on,29,30,0
2,note_on,34,37,0
2,note_on,34,0,80
2,note_on,36,31,0
2,note_on,36,0,80
2,note_on,34,37,0
2,note_on,34,0,80
2,note_on,36,30,0
2,note_on,36,0,80
2,note_on,34,37,0
2,note_on,34,0,80
2,note_on,36,31,0
2,note_on,36,0,80
2,note_on,34,37,0
2,note_on,34,0,80
2,note_on,36,31,0
2,note_on,36,0,80
2,note_on,34,37,0
2,note_on,34,0,80
2,note_on,36,30,0
2,note_on,36,0,80
2,note_on,34,37,0
2,note_on,34,0,80
2,note_on,36,31,0
2,note_on,36,0,80
2,note_on,34,37,0
2,note_on,34,0,80
2,note_on,36,31,0
2,note_on,36,0,80
2,note_on,34,37,0
2,note_on,34,0,80
2,note_on,36,30,0
2,note_on,36,0,80
2,note_on,34,37,0
2,note_on,34,0,80
2,note_on,36,31,0
2,note_on,36,0,80
2,note_on,29,0,0
2,note_on,34,37,0
2,note_on,29,30,0
2,note_on,34,0,80
2,note_on,36,31,0
2,note_on,36,0,80
2,note_on,34,37,0
2,note_on,34,0,80
2,note_on,36,30,0
2,note_on,36,0,80
2,note_on,34,37,0
2,note_on,34,0,80
2,note_on,36,31,0
2,note_on,36,0,80
2,note_on,34,37,0
2,note_on,34,0,80
2,note_on,36,31,0
2,note_on,36,0,80
2,note_on,34,37,0
2,note_on,34,0,80
2,note_on,36,30,0
2,note_on,36,0,80
2,note_on,34,37,0
2,note_on,34,0,80
2,note_on,36,31,0
2,note_on,36,0,80
2,note_on,34,37,0
2,note_on,34,0,80
2,note_on,36,31,0
2,note_on,36,0,80
2,note_on,34,37,0
2,note_on,34,0,80
2,note_on,36,30,0
2,note_on,36,0,80
2,note_on,34,37,0
2,note_on,34,0,80
2,note_on,36,31,0
2,note_on,36,0,80
2,note_on,29,0,0
2,note_on,29,30,0
2,note_on,34,37,0
2,note_on,34,0,60
2,note_on,36,31,0
2,note_on,36,0,60
2,note_on,34,37,0
2,note_on,34,0,60
2,note_on,36,30,0
2,note_on,36,0,60
2,note_on,34,37,0
2,note_on,34,0,60
2,note_on,36,31,0
2,note_on,36,0,60
2,note_on,34,37,0
2,note_on,34,0,60
2,note_on,36,31,0
2,note_on,36,0,60
2,note_on,29,0,0
2,note_on,29,30,0
2,note_on,34,37,0
2,note_on,34,0,60
2,note_on,36,30,0
2,note_on,36,0,60
2,note_on,34,37,0
2,note_on,34,0,60
2,note_on,36,31,0
2,note_on,36,0,60
2,note_on,34,37,0
2,note_on,34,0,60
2,note_on,36,31,0
2,note_on,36,0,60
2,note_on,34,37,0
2,note_on,34,0,60
2,note_on,36,30,0
2,note_on,36,0,60
2,note_on,29,0,0
2,note_on,29,30,0
2,note_on,34,37,0
2,note_on,34,0,60
2,note_on,36,31,0
2,note_on,36,0,60
2,note_on,34,37,0
2,note_on,34,0,60
2,note_on,36,31,0
2,note_on,36,0,60
2,note_on,34,37,0
2,note_on,34,0,60
2,note_on,36,30,0
2,note_on,36,0,60
2,note_on,34,37,0
2,note_on,34,0,60
2,note_on,36,31,0
2,note_on,36,0,60
2,note_on,29,0,0
2,note_on,29,30,0
2,note_on,34,37,0
2,note_on,34,0,60
2,note_on,36,31,0
2,note_on,36,0,60
2,note_on,34,37,0
2,note_on,34,0,60
2,note_on,36,31,0
2,note_on,36,0,60
2,note_on,34,37,0
2,note_on,34,0,60
2,note_on,36,30,0
2,note_on,36,0,60
2,note_on,34,37,0
2,note_on,34,0,60
2,note_on,36,31,0
2,note_on,36,0,60
2,note_on,29,0,0
2,note_on,29,30,0
2,note_on,34,37,0
2,note_on,34,0,60
2,note_on,36,31,0
2,note_on,36,0,60
2,note_on,34,37,0
2,note_on,34,0,60
2,note_on,36,31,0
2,note_on,36,0,60
2,note_on,34,37,0
2,note_on,34,0,60
2,note_on,36,30,0
2,note_on,36,0,60
2,note_on,34,37,0
2,note_on,34,0,60
2,note_on,36,31,0
2,note_on,36,0,60
2,note_on,29,0,0
2,note_on,29,30,0
2,note_on,34,37,0
2,note_on,34,0,60
2,note_on,36,31,0
2,note_on,36,0,60
2,note_on,34,37,0
2,note_on,34,0,60
2,note_on,36,37,0
2,note_on,34,37,60
2,note_on,36,0,20
2,note_on,34,0,60
2,note_on,33,35,0
2,note_on,33,0,80
2,note_on,34,35,0
2,note_on,34,0,80
2,note_on,29,0,0
2,note_on,30,35,0
2,note_on,34,35,0
2,note_on,42,42,0
2,note_on,42,0,480
2,note_on,34,0,0
2,note_on,30,0,0
2,note_on,31,35,0
2,note_on,34,35,0
2,note_on,43,42,0
2,note_on,43,0,960
2,note_on,34,0,0
2,note_on,31,0,0
2,note_on,55,37,0
2,note_on,55,0,60
2,note_on,57,33,0
2,note_on,57,0,60
2,note_on,55,37,0
2,note_on,55,0,60
2,note_on,57,33,0
2,note_on,57,0,60
2,note_on,55,37,0
2,note_on,55,0,60
2,note_on,57,33,0
2,note_on,57,0,60
2,note_on,55,37,0
2,note_on,55,0,60
2,note_on,57,33,0
2,note_on,57,0,60
2,note_on,55,37,0
2,note_on,55,0,60
2,note_on,57,33,0
2,note_on,57,0,60
2,note_on,55,37,0
2,note_on,55,0,60
2,note_on,57,34,0
2,note_on,57,0,60
2,note_on,55,37,0
2,note_on,55,0,80
2,note_on,53,33,0
2,note_on,53,0,80
2,note_on,55,33,0
2,note_on,55,0,80
2,note_on,57,42,0
2,note_on,57,0,480
2,note_on,60,39,0
2,note_on,60,0,60
2,note_on,62,35,0
2,note_on,62,0,60
2,note_on,60,39,0
2,note_on,60,0,60
2,note_on,62,35,0
2,note_on,62,0,60
2,note_on,60,39,0
2,note_on,60,0,60
2,note_on,62,35,0
2,note_on,62,0,60
2,note_on,60,39,0
2,note_on,60,0,60
2,note_on,62,35,0
2,note_on,62,0,60
2,note_on,60,39,0
2,note_on,53,52,0
2,note_on,60,0,60
2,note_on,62,35,0
2,note_on,62,0,60
2,note_on,60,39,0
2,note_on,60,0,60
2,note_on,62,36,0
2,note_on,62,0,60
2,note_on,60,39,0
2,note_on,60,0,80
2,note_on,58,35,0
2,note_on,58,0,80
2,note_on,60,35,0
2,note_on,60,0,80
2,note_on,53,0,0
2,note_on,53,34,0
2,note_on,57,34,0
2,note_on,60,40,0
2,note_on,60,0,480
2,note_on,57,0,0
2,note_on,53,0,0
2,note_on,53,39,0
2,note_on,60,47,0
2,note_on,57,39,0
2,note_on,57,0,720
2,note_on,60,0,0
2,note_on,53,0,0
2,note_on,55,37,1440
2,note_on,53,33,120
2,note_on,55,0,24
2,note_on,51,37,96
2,note_on,53,0,24
2,note_on,50,33,96
2,note_on,51,0,24
2,note_on,48,33,96
2,note_on,50,0,24
2,note_on,47,33,96
2,note_on,48,0,24
2,note_on,47,0,96
2,note_on,51,39,0
2,note_on,51,0,480
2,note_on,67,37,240
2,note_on,65,33,120
2,note_on,67,0,24
2,note_on,63,37,96
2,note_on,65,0,24
2,note_on,62,33,96
2,note_on,63,0,24
2,note_on,60,33,96
2,note_on,62,0,24
2,note_on,59,33,96
2,note_on,60,0,24
2,note_on,67,39,96
2,note_on,59,0,24
2,note_on,65,39,96
2,note_on,67,0,24
2,note_on,63,40,96
2,note_on,65,0,24
2,note_on,62,40,96
2,note_on,63,0,24
2,note_on,60,41,96
2,note_on,62,0,24
2,note_on,58,42,96
2,note_on,60,0,24
2,note_on,57,44,96
2,note_on,58,0,24
2,note_on,55,45,96
2,note_on,57,0,24
2,note_on,53,46,96
2,note_on,55,0,24
2,note_on,51,47,96
2,note_on,53,0,24
2,note_on,50,48,96
2,note_on,51,0,24
2,note_on,48,49,96
2,note_on,50,0,24
2,note_on,46,50,96
2,note_on,48,0,24
2,note_on,46,0,96
2,note_on,45,52,0
2,note_on,45,0,120
2,note_on,43,53,0
2,note_on,43,0,120
2,note_on,41,55,0
2,note_on,41,0,120
2,note_on,39,56,0
2,note_on,39,0,120
2,note_on,38,57,0
2,note_on,38,0,120
2,note_on,36,60,0
2,note_on,36,0,120
2,note_on,34,61,0
2,note_on,34,0,120
2,note_on,33,64,0
2,note_on,33,0,120
2,note_on,31,67,0
2,note_on,31,0,120
2,note_on,29,71,0
2,note_on,29,0,120
2,note_on,28,75,0
2,note_on,28,0,120
2,note_on,29,83,0
2,note_on,29,0,240
2,note_on,45,79,240
2,note_on,45,0,80
2,note_on,46,56,0
2,note_on,46,0,80
2,note_on,45,61,0
2,note_on,45,0,80
2,note_on,46,53,0
2,note_on,46,0,80
2,note_on,45,59,0
2,note_on,45,0,80
2,note_on,46,52,0
2,note_on,46,0,80
2,note_on,45,57,0
2,note_on,45,0,80
2,note_on,46,52,0
2,note_on,46,0,80
2,note_on,45,55,0
2,note_on,45,0,80
2,note_on,46,50,0
2,note_on,46,0,60
2,note_on,45,58,0
2,note_on,45,0,60
2,note_on,43,56,0
2,note_on,43,0,60
2,note_on,45,63,0
2,note_on,45,0,60
2,note_on,46,68,0
2,note_on,46,0,240
2,note_on,31,69,240
2,note_on,31,0,240
2,note_on,47,79,240
2,note_on,47,0,80
2,note_on,48,56,0
2,note_on,48,0,80
2,note_on,47,61,0
2,note_on,47,0,80
2,note_on,48,53,0
2,note_on,48,0,80
2,note_on,47,59,0
2,note_on,47,0,80
2,note_on,48,52,0
2,note_on,48,0,80
2,note_on,47,57,0
2,note_on,47,0,80
2,note_on,48,52,0
2,note_on,48,0,80
2,note_on,47,55,0
2,note_on,47,0,80
2,note_on,48,50,0
2,note_on,48,0,60
2,note_on,47,58,0
2,note_on,47,0,60
2,note_on,45,52,0
2,note_on,45,0,60
2,note_on,47,61,0
2,note_on,47,0,60
2,note_on,48,68,0
2,note_on,48,0,240
2,note_on,33,69,240
2,note_on,33,0,240
2,note_on,49,79,240
2,note_on,49,0,80
2,note_on,50,56,0
2,note_on,50,0,80
2,note_on,49,61,0
2,note_on,49,0,80
2,note_on,50,53,0
2,note_on,50,0,80
2,note_on,49,59,0
2,note_on,49,0,80
2,note_on,50,52,0
2,note_on,50,0,80
2,note_on,49,57,0
2,note_on,49,0,80
2,note_on,50,52,0
2,note_on,50,0,80
2,note_on,49,55,0
2,note_on,49,0,80
2,note_on,50,50,0
2,note_on,50,0,60
2,note_on,49,58,0
2,note_on,49,0,60
2,note_on,47,54,0
2,note_on,47,0,60
2,note_on,49,61,0
2,note_on,49,0,60
2,note_on,50,68,0
2,note_on,50,0,240
2,note_on,34,69,240
2,note_on,34,0,240
2,note_on,50,79,240
2,note_on,50,0,80
2,note_on,51,56,0
2,note_on,51,0,80
2,note_on,50,61,0
2,note_on,50,0,80
2,note_on,51,53,0
2,note_on,51,0,80
2,note_on,50,59,0
2,note_on,50,0,80
2,note_on,51,52,0
2,note_on,51,0,80
2,note_on,50,57,0
2,note_on,50,0,80
2,note_on,51,52,0
2,note_on,51,0,80
2,note_on,50,55,0
2,note_on,50,0,80
2,note_on,51,50,0
2,note_on,51,0,60
2,note_on,50,58,0
2,note_on,50,0,60
2,note_on,48,53,0
2,note_on,48,0,60
2,note_on,50,54,0
2,note_on,50,0,60
2,note_on,51,68,0
2,note_on,51,0,240
2,note_on,36,69,240
2,note_on,36,0,240
2,note_on,52,79,240
2,note_on,52,0,80
2,note_on,53,56,0
2,note_on,53,0,80
2,note_on,52,61,0
2,note_on,52,0,80
2,note_on,53,53,0
2,note_on,53,0,80
2,note_on,52,59,0
2,note_on,52,0,80
2,note_on,53,52,0
2,note_on,53,0,80
2,note_on,52,57,0
2,note_on,52,0,80
2,note_on,53,52,0
2,note_on,53,0,80
2,note_on,52,55,0
2,note_on,52,0,80
2,note_on,53,50,0
2,note_on,53,0,60
2,note_on,52,56,0
2,note_on,52,0,60
2,note_on,50,54,0
2,note_on,50,0,60
2,note_on,52,59,0
2,note_on,52,0,60
2,note_on,53,68,0
2,note_on,53,0,240
2,note_on,38,69,240
2,note_on,38,0,240
2,note_on,54,79,240
2,note_on,54,0,80
2,note_on,55,56,0
2,note_on,55,0,80
2,note_on,54,61,0
2,note_on,54,0,80
2,note_on,55,53,0
2,note_on,55,0,80
2,note_on,54,59,0
2,note_on,54,0,80
2,note_on,55,52,0
2,note_on,55,0,80
2,note_on,54,57,0
2,note_on,54,0,80
2,note_on,55,52,0
2,note_on,55,0,80
2,note_on,54,55,0
2,note_on,54,0,80
2,note_on,55,50,0
2,note_on,55,0,60
2,note_on,54,54,0
2,note_on,54,0,60
2,note_on,52,49,0
2,note_on,52,0,60
2,note_on,54,54,0
2,note_on,54,0,60
2,note_on,55,68,0
2,note_on,55,0,240
2,note_on,39,69,240
2,note_on,39,0,240
2,note_on,65,84,240
2,note_on,63,71,0
2,note_on,60,71,0
2,note_on,53,71,0
2,note_on,53,0,720
2,note_on,65,0,0
2,note_on,63,0,0
2,note_on,60,0,0
2,note_on,46,73,240
2,note_on,50,73,0
2,note_on,53,73,0
2,note_on,58,87,0
2,note_on,58,0,720
2,note_on,46,0,0
2,note_on,50,0,0
2,note_on,53,0,0
2,note_on,53,79,240
2,note_on,51,67,0
2,note_on,48,67,0
2,note_on,41,67,0
2,note_on,41,0,720
2,note_on,53,0,0
2,note_on,51,0,0
2,note_on,48,0,0
2,note_on,34,73,720
2,note_on,38,73,0
2,note_on,41,73,0
2,note_on,46,87,0
2,note_on,46,0,1920
2,note_on,34,0,0
2,note_on,38,0,0
2,note_on,41,0,0
