Track,Message Type,Note,Velocity,Time
1,note_on,60,40,720
1,note_on,60,0,240
1,note_on,59,45,0
1,note_on,59,0,240
1,note_on,60,40,0
1,note_on,60,0,240
1,note_on,65,45,0
1,note_on,65,0,120
1,note_on,65,38,120
1,note_on,65,0,120
1,note_on,63,45,120
1,note_on,63,0,480
1,note_on,60,40,240
1,note_on,60,0,240
1,note_on,59,45,0
1,note_on,59,0,240
1,note_on,60,40,0
1,note_on,60,0,240
1,note_on,68,45,0
1,note_on,68,0,120
1,note_on,68,38,120
1,note_on,68,0,120
1,note_on,67,45,120
1,note_on,67,0,480
1,note_on,60,40,240
1,note_on,60,0,240
1,note_on,59,45,0
1,note_on,59,0,240
1,note_on,60,40,0
1,note_on,60,0,240
1,note_on,72,45,0
1,note_on,72,0,120
1,note_on,72,38,120
1,note_on,72,0,120
1,note_on,72,45,120
1,note_on,72,0,240
1,note_on,74,45,0
1,note_on,74,0,60
1,note_on,72,45,0
1,note_on,72,0,60
1,note_on,71,40,0
1,note_on,71,0,60
1,note_on,72,45,0
1,note_on,72,0,60
1,note_on,75,50,0
1,note_on,75,0,240
1,note_on,74,45,0
1,note_on,74,0,240
1,note_on,77,56,0
1,note_on,77,0,240
1,note_on,75,53,0
1,note_on,75,0,240
1,note_on,74,50,0
1,note_on,74,0,240
1,note_on,72,47,0
1,note_on,72,0,240
1,note_on,71,51,0
1,note_on,71,0,480
1,note_on,55,40,240
1,note_on,55,0,240
1,note_on,54,45,0
1,note_on,54,0,240
1,note_on,55,40,0
1,note_on,55,0,240
1,note_on,60,45,0
1,note_on,60,0,120
1,note_on,60,38,120
1,note_on,60,0,120
1,note_on,59,45,120
1,note_on,59,0,480
1,note_on,55,40,240
1,note_on,55,0,240
1,note_on,54,45,0
1,note_on,54,0,240
1,note_on,55,40,0
1,note_on,55,0,240
1,note_on,63,45,0
1,note_on,63,0,120
1,note_on,63,38,120
1,note_on,63,0,120
1,note_on,62,45,120
1,note_on,62,0,480
1,note_on,55,45,240
1,note_on,55,0,120
1,note_on,59,51,120
1,note_on,59,0,120
1,note_on,62,45,120
1,note_on,62,0,120
1,note_on,65,45,120
1,note_on,65,0,120
1,note_on,68,45,120
1,note_on,68,0,120
1,note_on,71,55,120
1,note_on,71,0,120
1,note_on,74,53,120
1,note_on,74,0,120
1,note_on,77,56,120
1,note_on,77,0,120
1,note_on,80,60,120
1,note_on,80,0,120
1,note_on,79,63,120
1,note_on,79,0,120
1,note_on,77,59,120
1,note_on,77,0,120
1,note_on,75,55,120
1,note_on,75,0,120
1,note_on,74,54,120
1,note_on,74,0,120
1,note_on,72,62,120
1,note_on,72,0,480
1,note_on,72,50,240
1,note_on,72,0,240
1,note_on,71,57,0
1,note_on,71,0,240
1,note_on,72,53,0
1,note_on,72,0,240
1,note_on,84,60,0
1,note_on,84,0,120
1,note_on,84,52,120
1,note_on,84,0,120
1,note_on,84,60,120
1,note_on,84,0,480
1,note_on,89,59,240
1,note_on,89,0,240
1,note_on,87,65,0
1,note_on,87,0,240
1,note_on,86,60,0
1,note_on,86,0,240
1,note_on,84,66,0
1,note_on,84,0,240
1,note_on,83,60,0
1,note_on,83,0,240
1,note_on,86,69,0
1,note_on,86,0,240
1,note_on,84,60,0
1,note_on,84,0,240
1,note_on,72,50,240
1,note_on,72,0,240
1,note_on,71,57,0
1,note_on,71,0,240
1,note_on,72,53,0
1,note_on,72,0,240
1,note_on,84,60,0
1,note_on,84,0,120
1,note_on,84,52,120
1,note_on,84,0,120
1,note_on,84,60,120
1,note_on,84,0,480
1,note_on,86,60,0
1,note_on,86,0,60
1,note_on,84,60,0
1,note_on,84,0,60
1,note_on,83,60,0
1,note_on,83,0,60
1,note_on,84,60,0
1,note_on,84,0,60
1,note_on,89,59,0
1,note_on,89,0,240
1,note_on,87,65,0
1,note_on,87,0,240
1,note_on,86,60,0
1,note_on,86,0,240
1,note_on,84,66,0
1,note_on,84,0,240
1,note_on,83,60,0
1,note_on,83,0,240
1,note_on,84,69,0
1,note_on,84,0,120
1,note_on,86,63,0
1,note_on,86,0,120
1,note_on,84,63,0
1,note_on,84,0,120
1,note_on,83,63,0
1,note_on,83,0,120
1,note_on,84,69,0
1,note_on,84,0,120
1,note_on,87,73,0
1,note_on,87,0,120
1,note_on,86,72,0
1,note_on,86,0,120
1,note_on,84,71,0
1,note_on,84,0,120
1,note_on,83,72,0
1,note_on,83,0,120
1,note_on,84,65,0
1,note_on,84,0,120
1,note_on,83,65,0
1,note_on,83,0,120
1,note_on,80,65,0
1,note_on,80,0,120
1,note_on,79,69,0
1,note_on,79,0,120
1,note_on,77,63,0
1,note_on,77,0,120
1,note_on,75,63,0
1,note_on,75,0,120
1,note_on,74,63,0
1,note_on,74,0,120
1,note_on,72,69,0
1,note_on,72,0,120
1,note_on,74,63,0
1,note_on,74,0,120
1,note_on,72,63,0
1,note_on,72,0,120
1,note_on,71,61,0
1,note_on,71,0,120
1,note_on,72,66,0
1,note_on,72,0,120
1,note_on,75,72,0
1,note_on,75,0,120
1,note_on,74,70,0
1,note_on,74,0,120
1,note_on,72,67,0
1,note_on,72,0,120
1,note_on,71,69,0
1,note_on,71,0,120
1,note_on,72,63,0
1,note_on,72,0,120
1,note_on,71,63,0
1,note_on,71,0,120
1,note_on,68,63,0
1,note_on,68,0,120
1,note_on,67,69,0
1,note_on,67,0,120
1,note_on,65,63,0
1,note_on,65,0,120
1,note_on,63,63,0
1,note_on,63,0,120
1,note_on,62,63,0
1,note_on,62,0,120
1,note_on,60,77,0
1,note_on,60,0,120
1,note_on,62,69,0
1,note_on,62,0,120
1,note_on,60,69,0
1,note_on,60,0,120
1,note_on,59,69,0
1,note_on,59,0,120
1,note_on,60,77,0
1,note_on,60,0,120
1,note_on,63,69,0
1,note_on,63,0,120
1,note_on,62,69,0
1,note_on,62,0,120
1,note_on,60,69,0
1,note_on,60,0,120
1,note_on,59,77,0
1,note_on,59,0,120
1,note_on,67,69,0
1,note_on,67,0,120
1,note_on,62,69,0
1,note_on,62,0,120
1,note_on,59,69,0
1,note_on,59,0,120
1,note_on,55,79,0
1,note_on,55,0,120
1,note_on,67,69,0
1,note_on,67,0,120
1,note_on,63,69,0
1,note_on,63,0,120
1,note_on,60,69,0
1,note_on,60,0,120
1,note_on,55,81,0
1,note_on,55,0,120
1,note_on,67,69,0
1,note_on,67,0,120
1,note_on,62,69,0
1,note_on,62,0,120
1,note_on,59,69,0
1,note_on,59,0,120
1,note_on,55,80,0
1,note_on,55,0,120
1,note_on,67,69,0
1,note_on,67,0,120
1,note_on,63,69,0
1,note_on,63,0,120
1,note_on,60,69,0
1,note_on,60,0,120
1,note_on,55,80,0
1,note_on,55,0,120
1,note_on,67,69,0
1,note_on,67,0,120
1,note_on,62,69,0
1,note_on,62,0,120
1,note_on,59,69,0
1,note_on,59,0,120
1,note_on,55,80,0
1,note_on,55,0,120
1,note_on,67,69,0
1,note_on,67,0,120
1,note_on,63,69,0
1,note_on,63,0,120
1,note_on,60,69,0
1,note_on,60,0,120
1,note_on,55,74,0
1,note_on,59,74,0
1,note_on,62,74,0
1,note_on,67,89,0
1,note_on,67,0,960
1,note_on,55,0,0
1,note_on,59,0,0
1,note_on,62,0,0
1,note_on,58,40,240
1,note_on,58,0,120
1,note_on,60,37,120
1,note_on,60,0,120
1,note_on,62,37,120
1,note_on,62,0,120
1,note_on,55,39,120
1,note_on,58,39,0
1,note_on,63,46,0
1,note_on,63,0,120
1,note_on,65,40,120
1,note_on,65,0,120
1,note_on,67,40,120
1,note_on,67,0,120
1,note_on,58,0,360
1,note_on,55,0,0
1,note_on,58,38,0
1,note_on,62,38,0
1,note_on,65,45,0
1,note_on,65,0,120
1,note_on,62,0,0
1,note_on,58,0,0
1,note_on,58,33,360
1,note_on,63,39,0
1,note_on,63,0,120
1,note_on,58,0,0
1,note_on,56,37,360
1,note_on,58,37,0
1,note_on,62,37,0
1,note_on,68,45,0
1,note_on,68,0,960
1,note_on,56,0,0
1,note_on,58,0,0
1,note_on,62,0,0
1,note_on,58,40,240
1,note_on,58,0,120
1,note_on,60,37,120
1,note_on,60,0,120
1,note_on,62,37,120
1,note_on,62,0,120
1,note_on,55,39,120
1,note_on,58,39,0
1,note_on,63,46,0
1,note_on,63,0,120
1,note_on,65,40,120
1,note_on,65,0,120
1,note_on,67,40,120
1,note_on,67,0,120
1,note_on,58,0,360
1,note_on,55,0,0
1,note_on,53,38,0
1,note_on,60,38,0
1,note_on,65,45,0
1,note_on,65,0,120
1,note_on,60,0,0
1,note_on,53,0,0
1,note_on,60,33,360
1,note_on,53,33,0
1,note_on,63,39,0
1,note_on,63,0,120
1,note_on,53,0,0
1,note_on,60,0,0
1,note_on,50,31,360
1,note_on,53,31,0
1,note_on,58,37,0
1,note_on,58,0,960
1,note_on,53,0,0
1,note_on,50,0,0
1,note_on,58,40,240
1,note_on,58,0,120
1,note_on,60,37,120
1,note_on,60,0,120
1,note_on,62,37,120
1,note_on,62,0,120
1,note_on,55,39,120
1,note_on,58,39,0
1,note_on,63,46,0
1,note_on,63,0,120
1,note_on,65,40,120
1,note_on,65,0,120
1,note_on,67,40,120
1,note_on,67,0,120
1,note_on,58,0,360
1,note_on,55,0,0
1,note_on,58,38,0
1,note_on,62,38,0
1,note_on,65,45,0
1,note_on,65,0,120
1,note_on,62,0,0
1,note_on,58,0,0
1,note_on,58,33,360
1,note_on,63,39,0
1,note_on,63,0,120
1,note_on,58,0,0
1,note_on,60,45,315
1,note_on,63,50,15
1,note_on,68,63,15
1,note_on,72,72,15
1,note_on,68,0,960
1,note_on,60,0,0
1,note_on,63,0,0
1,note_on,72,0,240
1,note_on,72,48,0
1,note_on,72,0,120
1,note_on,70,53,120
1,note_on,70,0,120
1,note_on,68,50,120
1,note_on,68,0,120
1,note_on,67,53,120
1,note_on,67,0,240
1,note_on,65,48,0
1,note_on,65,0,240
1,note_on,63,48,0
1,note_on,63,0,120
1,note_on,62,48,120
1,note_on,62,0,120
1,note_on,53,45,120
1,note_on,56,45,0
1,note_on,60,53,0
1,note_on,60,0,480
1,note_on,58,49,0
1,note_on,58,0,480
1,note_on,56,0,0
1,note_on,53,0,0
1,note_on,51,41,0
1,note_on,55,41,0
1,note_on,58,49,0
1,note_on,58,0,960
1,note_on,55,0,0
1,note_on,51,0,0
1,note_on,70,48,240
1,note_on,70,0,120
1,note_on,68,53,120
1,note_on,68,0,120
1,note_on,67,50,120
1,note_on,67,0,120
1,note_on,67,53,120
1,note_on,67,0,240
1,note_on,65,48,0
1,note_on,65,0,240
1,note_on,63,48,0
1,note_on,63,0,120
1,note_on,62,48,120
1,note_on,62,0,120
1,note_on,53,45,120
1,note_on,56,45,0
1,note_on,60,53,0
1,note_on,60,0,480
1,note_on,58,49,0
1,note_on,58,0,480
1,note_on,56,0,0
1,note_on,53,0,0
1,note_on,51,54,0
1,note_on,55,54,0
1,note_on,58,54,0
1,note_on,58,0,960
1,note_on,55,0,0
1,note_on,51,0,0
1,note_on,82,48,240
1,note_on,70,48,0
1,note_on,70,0,120
1,note_on,82,0,0
1,note_on,80,53,120
1,note_on,68,53,0
1,note_on,68,0,120
1,note_on,80,0,0
1,note_on,79,50,120
1,note_on,67,50,0
1,note_on,67,0,120
1,note_on,79,0,0
1,note_on,79,55,120
1,note_on,67,55,0
1,note_on,67,0,240
1,note_on,79,0,0
1,note_on,77,48,0
1,note_on,65,48,0
1,note_on,65,0,240
1,note_on,77,0,0
1,note_on,75,48,0
1,note_on,63,48,0
1,note_on,63,0,120
1,note_on,75,0,0
1,note_on,74,48,120
1,note_on,62,48,0
1,note_on,62,0,120
1,note_on,74,0,0
1,note_on,60,55,120
1,note_on,72,55,0
1,note_on,72,0,120
1,note_on,60,0,0
1,note_on,58,48,120
1,note_on,70,48,0
1,note_on,70,0,120
1,note_on,58,0,0
1,note_on,60,48,120
1,note_on,72,48,0
1,note_on,72,0,120
1,note_on,60,0,0
1,note_on,62,48,120
1,note_on,74,48,0
1,note_on,74,0,120
1,note_on,62,0,0
1,note_on,63,48,120
1,note_on,63,0,120
1,note_on,75,43,0
1,note_on,75,0,120
1,note_on,63,48,0
1,note_on,63,0,120
1,note_on,75,42,0
1,note_on,75,0,120
1,note_on,63,49,0
1,note_on,63,0,120
1,note_on,75,43,0
1,note_on,75,0,120
1,note_on,63,50,0
1,note_on,63,0,120
1,note_on,75,45,0
1,note_on,75,0,120
1,note_on,63,51,0
1,note_on,63,0,120
1,note_on,75,44,0
1,note_on,75,0,120
1,note_on,63,52,0
1,note_on,63,0,120
1,note_on,75,47,0
1,note_on,75,0,120
1,note_on,63,53,0
1,note_on,63,0,120
1,note_on,75,47,0
1,note_on,75,0,120
1,note_on,63,53,0
1,note_on,63,0,120
1,note_on,75,47,0
1,note_on,75,0,120
1,note_on,63,54,0
1,note_on,63,0,120
1,note_on,75,48,0
1,note_on,75,0,120
1,note_on,63,55,0
1,note_on,63,0,120
1,note_on,75,48,0
1,note_on,75,0,120
1,note_on,63,55,0
1,note_on,63,0,120
1,note_on,75,48,0
1,note_on,75,0,120
1,note_on,63,56,0
1,note_on,63,0,120
1,note_on,75,51,0
1,note_on,75,0,120
1,note_on,63,57,0
1,note_on,63,0,120
1,note_on,75,49,0
1,note_on,75,0,120
1,note_on,63,58,0
1,note_on,63,0,120
1,note_on,75,53,0
1,note_on,75,0,120
1,note_on,63,59,0
1,note_on,63,0,120
1,note_on,75,54,0
1,note_on,75,0,120
1,note_on,63,60,0
1,note_on,63,0,120
1,note_on,75,54,0
1,note_on,75,0,120
1,note_on,63,70,0
1,note_on,75,70,0
1,note_on,75,0,480
1,note_on,63,0,0
1,note_on,75,74,240
1,note_on,75,0,240
1,note_on,74,84,0
1,note_on,74,0,240
1,note_on,75,77,0
1,note_on,75,0,240
1,note_on,84,86,0
1,note_on,80,86,0
1,note_on,80,0,120
1,note_on,84,0,0
1,note_on,80,79,120
1,note_on,84,79,0
1,note_on,84,0,120
1,note_on,80,0,0
1,note_on,80,92,120
1,note_on,84,92,0
1,note_on,80,0,480
1,note_on,84,0,120
1,note_on,82,74,0
1,note_on,82,0,120
1,note_on,80,73,0
1,note_on,80,0,120
1,note_on,79,72,0
1,note_on,79,0,120
1,note_on,77,72,0
1,note_on,77,0,120
1,note_on,75,72,0
1,note_on,75,0,120
1,note_on,74,71,0
1,note_on,74,0,120
1,note_on,72,70,0
1,note_on,72,0,120
1,note_on,71,69,0
1,note_on,71,0,120
1,note_on,70,68,0
1,note_on,70,0,120
1,note_on,69,67,0
1,note_on,69,0,120
1,note_on,68,66,0
1,note_on,68,0,120
1,note_on,67,66,0
1,note_on,67,0,160
1,note_on,68,62,0
1,note_on,68,0,160
1,note_on,70,62,0
1,note_on,70,0,160
1,note_on,68,66,0
1,note_on,68,0,160
1,note_on,67,62,0
1,note_on,67,0,160
1,note_on,65,62,0
1,note_on,65,0,160
1,note_on,63,66,0
1,note_on,63,0,160
1,note_on,62,62,0
1,note_on,62,0,160
1,note_on,60,62,0
1,note_on,60,0,160
1,note_on,58,66,0
1,note_on,58,0,160
1,note_on,56,60,0
1,note_on,56,0,160
1,note_on,55,63,0
1,note_on,55,0,160
1,note_on,53,59,120
1,note_on,53,0,120
1,note_on,56,63,0
1,note_on,56,0,120
1,note_on,60,67,0
1,note_on,60,0,120
1,note_on,65,72,0
1,note_on,65,0,240
1,note_on,53,63,360
1,note_on,53,0,120
1,note_on,56,66,0
1,note_on,56,0,120
1,note_on,58,69,0
1,note_on,58,0,120
1,note_on,62,72,0
1,note_on,62,0,240
1,note_on,74,67,240
1,note_on,74,0,120
1,note_on,86,60,0
1,note_on,86,0,120
1,note_on,74,67,0
1,note_on,74,0,120
1,note_on,86,60,0
1,note_on,86,0,120
1,note_on,74,67,0
1,note_on,74,0,120
1,note_on,86,59,0
1,note_on,86,0,120
1,note_on,74,67,0
1,note_on,74,0,120
1,note_on,86,61,0
1,note_on,86,0,120
1,note_on,74,67,0
1,note_on,74,0,120
1,note_on,86,59,0
1,note_on,86,0,120
1,note_on,74,67,0
1,note_on,74,0,120
1,note_on,86,59,0
1,note_on,86,0,120
1,note_on,74,67,0
1,note_on,74,0,120
1,note_on,86,59,0
1,note_on,86,0,120
1,note_on,74,67,0
1,note_on,74,0,120
1,note_on,86,60,0
1,note_on,86,0,120
1,note_on,75,67,0
1,note_on,75,0,120
1,note_on,87,60,0
1,note_on,87,0,120
1,note_on,75,69,0
1,note_on,75,0,120
1,note_on,87,62,0
1,note_on,87,0,120
1,note_on,75,71,0
1,note_on,75,0,120
1,note_on,87,63,0
1,note_on,87,0,120
1,note_on,75,72,0
1,note_on,75,0,120
1,note_on,87,67,0
1,note_on,87,0,120
1,note_on,75,75,0
1,note_on,75,0,120
1,note_on,87,67,0
1,note_on,87,0,120
1,note_on,75,77,0
1,note_on,75,0,120
1,note_on,87,69,0
1,note_on,87,0,120
1,note_on,76,80,0
1,note_on,76,0,120
1,note_on,88,71,0
1,note_on,88,0,120
1,note_on,76,81,0
1,note_on,76,0,120
1,note_on,88,73,0
1,note_on,88,0,120
1,note_on,77,71,120
1,note_on,77,0,120
1,note_on,80,76,0
1,note_on,80,0,120
1,note_on,84,81,0
1,note_on,84,0,120
1,note_on,89,86,0
1,note_on,89,0,240
1,note_on,74,75,360
1,note_on,74,0,120
1,note_on,77,79,0
1,note_on,77,0,120
1,note_on,80,82,0
1,note_on,80,0,120
1,note_on,86,86,0
1,note_on,86,0,240
1,note_on,75,80,240
1,note_on,82,80,0
1,note_on,79,80,0
1,note_on,87,94,0
1,note_on,87,0,480
1,note_on,75,0,0
1,note_on,82,0,0
1,note_on,79,0,0
1,note_on,82,63,0
1,note_on,82,0,120
1,note_on,82,63,120
1,note_on,82,0,120
1,note_on,82,70,120
1,note_on,82,0,240
1,note_on,82,63,240
1,note_on,82,0,120
1,note_on,82,63,120
1,note_on,82,0,120
1,note_on,82,69,120
1,note_on,82,0,240
1,note_on,53,60,240
1,note_on,56,60,0
1,note_on,62,72,0
1,note_on,62,0,240
1,note_on,56,0,0
1,note_on,53,0,0
1,note_on,53,33,720
1,note_on,56,33,0
1,note_on,62,39,0
1,note_on,62,0,120
1,note_on,56,0,0
1,note_on,53,0,0
1,note_on,55,37,360
1,note_on,63,45,0
1,note_on,63,0,120
1,note_on,55,0,0
1,note_on,60,35,360
1,note_on,63,35,0
1,note_on,65,41,0
1,note_on,65,0,120
1,note_on,63,0,0
1,note_on,60,0,0
1,note_on,58,37,360
1,note_on,63,37,0
1,note_on,67,45,0
1,note_on,67,0,120
1,note_on,63,0,0
1,note_on,58,0,0
1,note_on,56,33,360
1,note_on,62,33,0
1,note_on,65,39,0
1,note_on,65,0,120
1,note_on,62,0,0
1,note_on,56,0,0
1,note_on,55,37,360
1,note_on,63,45,0
1,note_on,63,0,120
1,note_on,55,0,0
1,note_on,82,63,360
1,note_on,82,0,120
1,note_on,84,59,0
1,note_on,84,0,120
1,note_on,82,63,0
1,note_on,82,0,120
1,note_on,81,59,0
1,note_on,81,0,120
1,note_on,82,70,0
1,note_on,82,0,240
1,note_on,82,63,240
1,note_on,82,0,120
1,note_on,84,58,0
1,note_on,84,0,120
1,note_on,82,63,0
1,note_on,82,0,120
1,note_on,81,57,0
1,note_on,81,0,120
1,note_on,82,69,0
1,note_on,82,0,240
1,note_on,53,60,240
1,note_on,56,60,0
1,note_on,62,72,0
1,note_on,62,0,240
1,note_on,56,0,0
1,note_on,53,0,0
1,note_on,51,55,720
1,note_on,54,55,0
1,note_on,57,55,0
1,note_on,63,66,0
1,note_on,63,0,960
1,note_on,51,0,0
1,note_on,54,0,0
1,note_on,57,0,0
1,note_on,60,35,0
1,note_on,63,35,0
1,note_on,65,41,0
1,note_on,65,0,120
1,note_on,63,0,0
1,note_on,60,0,0
1,note_on,58,37,360
1,note_on,63,37,0
1,note_on,67,45,0
1,note_on,67,0,120
1,note_on,63,0,0
1,note_on,58,0,0
1,note_on,56,33,360
1,note_on,62,33,0
1,note_on,65,39,0
1,note_on,65,0,120
1,note_on,62,0,0
1,note_on,56,0,0
1,note_on,55,37,360
1,note_on,63,45,0
1,note_on,63,0,240
1,note_on,55,0,0
1,note_on,62,30,240
1,note_on,68,36,0
1,note_on,68,0,240
1,note_on,62,0,0
1,note_on,63,27,0
1,note_on,67,32,0
1,note_on,67,0,240
1,note_on,63,0,0
1,note_on,68,31,480
1,note_on,74,37,0
1,note_on,74,0,240
1,note_on,68,0,0
1,note_on,67,27,0
1,note_on,75,32,0
1,note_on,75,0,240
1,note_on,67,0,0
1,note_on,80,37,480
1,note_on,74,31,0
1,note_on,74,0,240
1,note_on,80,0,0
1,note_on,75,27,0
1,note_on,79,32,0
1,note_on,79,0,240
1,note_on,75,0,0
1,note_on,86,43,480
1,note_on,80,36,0
1,note_on,80,0,240
1,note_on,86,0,0
1,note_on,79,30,0
1,note_on,87,36,0
1,note_on,87,0,240
1,note_on,79,0,0
1,note_on,55,48,480
1,note_on,58,48,0
1,note_on,63,57,0
1,note_on,63,0,480
1,note_on,58,0,0
1,note_on,55,0,0
1,note_on,60,40,1680
1,note_on,60,0,240
1,note_on,59,45,0
1,note_on,59,0,240
1,note_on,60,40,0
1,note_on,60,0,240
1,note_on,65,45,0
1,note_on,65,0,120
1,note_on,65,38,120
1,note_on,65,0,120
1,note_on,63,45,120
1,note_on,63,0,480
1,note_on,60,40,240
1,note_on,60,0,240
1,note_on,59,45,0
1,note_on,59,0,240
1,note_on,60,40,0
1,note_on,60,0,240
1,note_on,68,45,0
1,note_on,68,0,120
1,note_on,68,38,120
1,note_on,68,0,120
1,note_on,67,45,120
1,note_on,67,0,480
1,note_on,60,40,240
1,note_on,60,0,240
1,note_on,59,45,0
1,note_on,59,0,240
1,note_on,60,40,0
1,note_on,60,0,240
1,note_on,72,45,0
1,note_on,72,0,120
1,note_on,72,38,120
1,note_on,72,0,120
1,note_on,72,45,120
1,note_on,72,0,240
1,note_on,74,45,0
1,note_on,74,0,60
1,note_on,72,45,0
1,note_on,72,0,60
1,note_on,71,40,0
1,note_on,71,0,60
1,note_on,72,45,0
1,note_on,72,0,60
1,note_on,75,50,0
1,note_on,75,0,240
1,note_on,74,45,0
1,note_on,74,0,240
1,note_on,77,56,0
1,note_on,77,0,240
1,note_on,75,53,0
1,note_on,75,0,240
1,note_on,74,50,0
1,note_on,74,0,240
1,note_on,72,47,0
1,note_on,72,0,240
1,note_on,71,51,0
1,note_on,71,0,480
1,note_on,55,40,240
1,note_on,55,0,240
1,note_on,54,45,0
1,note_on,54,0,240
1,note_on,55,40,0
1,note_on,55,0,240
1,note_on,60,45,0
1,note_on,60,0,120
1,note_on,60,38,120
1,note_on,60,0,120
1,note_on,59,45,120
1,note_on,59,0,480
1,note_on,55,40,240
1,note_on,55,0,240
1,note_on,54,45,0
1,note_on,54,0,240
1,note_on,55,40,0
1,note_on,55,0,240
1,note_on,63,45,0
1,note_on,63,0,120
1,note_on,63,38,120
1,note_on,63,0,120
1,note_on,62,45,120
1,note_on,62,0,480
1,note_on,55,45,240
1,note_on,55,0,120
1,note_on,59,51,120
1,note_on,59,0,120
1,note_on,62,45,120
1,note_on,62,0,120
1,note_on,65,45,120
1,note_on,65,0,120
1,note_on,68,45,120
1,note_on,68,0,120
1,note_on,71,55,120
1,note_on,71,0,120
1,note_on,74,53,120
1,note_on,74,0,120
1,note_on,77,56,120
1,note_on,77,0,120
1,note_on,80,60,120
1,note_on,80,0,120
1,note_on,79,63,120
1,note_on,79,0,120
1,note_on,77,59,120
1,note_on,77,0,120
1,note_on,75,55,120
1,note_on,75,0,120
1,note_on,74,54,120
1,note_on,74,0,120
1,note_on,72,62,120
1,note_on,72,0,480
1,note_on,72,50,240
1,note_on,72,0,240
1,note_on,71,57,0
1,note_on,71,0,240
1,note_on,72,53,0
1,note_on,72,0,240
1,note_on,84,60,0
1,note_on,84,0,120
1,note_on,84,52,120
1,note_on,84,0,120
1,note_on,84,60,120
1,note_on,84,0,480
1,note_on,89,59,240
1,note_on,89,0,240
1,note_on,87,65,0
1,note_on,87,0,240
1,note_on,86,60,0
1,note_on,86,0,240
1,note_on,84,66,0
1,note_on,84,0,240
1,note_on,83,60,0
1,note_on,83,0,240
1,note_on,86,69,0
1,note_on,86,0,240
1,note_on,84,60,0
1,note_on,84,0,240
1,note_on,72,50,240
1,note_on,72,0,240
1,note_on,71,57,0
1,note_on,71,0,240
1,note_on,72,53,0
1,note_on,72,0,240
1,note_on,84,60,0
1,note_on,84,0,120
1,note_on,84,52,120
1,note_on,84,0,120
1,note_on,84,60,120
1,note_on,84,0,480
1,note_on,86,60,0
1,note_on,86,0,60
1,note_on,84,60,0
1,note_on,84,0,60
1,note_on,83,60,0
1,note_on,83,0,60
1,note_on,84,60,0
1,note_on,84,0,60
1,note_on,89,59,0
1,note_on,89,0,240
1,note_on,87,65,0
1,note_on,87,0,240
1,note_on,86,60,0
1,note_on,86,0,240
1,note_on,84,66,0
1,note_on,84,0,240
1,note_on,83,60,0
1,note_on,83,0,240
1,note_on,84,69,0
1,note_on,84,0,120
1,note_on,86,63,0
1,note_on,86,0,120
1,note_on,84,63,0
1,note_on,84,0,120
1,note_on,83,63,0
1,note_on,83,0,120
1,note_on,84,69,0
1,note_on,84,0,120
1,note_on,87,73,0
1,note_on,87,0,120
1,note_on,86,72,0
1,note_on,86,0,120
1,note_on,84,71,0
1,note_on,84,0,120
1,note_on,83,72,0
1,note_on,83,0,120
1,note_on,84,65,0
1,note_on,84,0,120
1,note_on,83,65,0
1,note_on,83,0,120
1,note_on,80,65,0
1,note_on,80,0,120
1,note_on,79,69,0
1,note_on,79,0,120
1,note_on,77,63,0
1,note_on,77,0,120
1,note_on,75,63,0
1,note_on,75,0,120
1,note_on,74,63,0
1,note_on,74,0,120
1,note_on,72,69,0
1,note_on,72,0,120
1,note_on,74,63,0
1,note_on,74,0,120
1,note_on,72,63,0
1,note_on,72,0,120
1,note_on,71,61,0
1,note_on,71,0,120
1,note_on,72,66,0
1,note_on,72,0,120
1,note_on,75,72,0
1,note_on,75,0,120
1,note_on,74,70,0
1,note_on,74,0,120
1,note_on,72,67,0
1,note_on,72,0,120
1,note_on,71,69,0
1,note_on,71,0,120
1,note_on,72,63,0
1,note_on,72,0,120
1,note_on,71,63,0
1,note_on,71,0,120
1,note_on,68,63,0
1,note_on,68,0,120
1,note_on,67,69,0
1,note_on,67,0,120
1,note_on,65,63,0
1,note_on,65,0,120
1,note_on,63,63,0
1,note_on,63,0,120
1,note_on,62,63,0
1,note_on,62,0,120
1,note_on,60,77,0
1,note_on,60,0,120
1,note_on,62,69,0
1,note_on,62,0,120
1,note_on,60,69,0
1,note_on,60,0,120
1,note_on,59,69,0
1,note_on,59,0,120
1,note_on,60,77,0
1,note_on,60,0,120
1,note_on,63,69,0
1,note_on,63,0,120
1,note_on,62,69,0
1,note_on,62,0,120
1,note_on,60,69,0
1,note_on,60,0,120
1,note_on,59,77,0
1,note_on,59,0,120
1,note_on,67,69,0
1,note_on,67,0,120
1,note_on,62,69,0
1,note_on,62,0,120
1,note_on,59,69,0
1,note_on,59,0,120
1,note_on,55,79,0
1,note_on,55,0,120
1,note_on,67,69,0
1,note_on,67,0,120
1,note_on,63,69,0
1,note_on,63,0,120
1,note_on,60,69,0
1,note_on,60,0,120
1,note_on,55,81,0
1,note_on,55,0,120
1,note_on,67,69,0
1,note_on,67,0,120
1,note_on,62,69,0
1,note_on,62,0,120
1,note_on,59,69,0
1,note_on,59,0,120
1,note_on,55,80,0
1,note_on,55,0,120
1,note_on,67,69,0
1,note_on,67,0,120
1,note_on,63,69,0
1,note_on,63,0,120
1,note_on,60,69,0
1,note_on,60,0,120
1,note_on,55,80,0
1,note_on,55,0,120
1,note_on,67,69,0
1,note_on,67,0,120
1,note_on,62,69,0
1,note_on,62,0,120
1,note_on,59,69,0
1,note_on,59,0,120
1,note_on,55,80,0
1,note_on,55,0,120
1,note_on,67,69,0
1,note_on,67,0,120
1,note_on,63,69,0
1,note_on,63,0,120
1,note_on,60,69,0
1,note_on,60,0,120
1,note_on,55,74,0
1,note_on,59,74,0
1,note_on,62,74,0
1,note_on,67,89,0
1,note_on,67,0,960
1,note_on,55,0,0
1,note_on,59,0,0
1,note_on,62,0,0
1,note_on,58,40,240
1,note_on,58,0,120
1,note_on,60,37,120
1,note_on,60,0,120
1,note_on,62,37,120
1,note_on,62,0,120
1,note_on,55,39,120
1,note_on,58,39,0
1,note_on,63,46,0
1,note_on,63,0,120
1,note_on,65,40,120
1,note_on,65,0,120
1,note_on,67,40,120
1,note_on,67,0,120
1,note_on,58,0,360
1,note_on,55,0,0
1,note_on,58,38,0
1,note_on,62,38,0
1,note_on,65,45,0
1,note_on,65,0,120
1,note_on,62,0,0
1,note_on,58,0,0
1,note_on,58,33,360
1,note_on,63,39,0
1,note_on,63,0,120
1,note_on,58,0,0
1,note_on,56,37,360
1,note_on,58,37,0
1,note_on,62,37,0
1,note_on,68,45,0
1,note_on,68,0,960
1,note_on,56,0,0
1,note_on,58,0,0
1,note_on,62,0,0
1,note_on,58,40,240
1,note_on,58,0,120
1,note_on,60,37,120
1,note_on,60,0,120
1,note_on,62,37,120
1,note_on,62,0,120
1,note_on,55,39,120
1,note_on,58,39,0
1,note_on,63,46,0
1,note_on,63,0,120
1,note_on,65,40,120
1,note_on,65,0,120
1,note_on,67,40,120
1,note_on,67,0,120
1,note_on,58,0,360
1,note_on,55,0,0
1,note_on,53,38,0
1,note_on,60,38,0
1,note_on,65,45,0
1,note_on,65,0,120
1,note_on,60,0,0
1,note_on,53,0,0
1,note_on,60,33,360
1,note_on,53,33,0
1,note_on,63,39,0
1,note_on,63,0,120
1,note_on,53,0,0
1,note_on,60,0,0
1,note_on,50,31,360
1,note_on,53,31,0
1,note_on,58,37,0
1,note_on,58,0,960
1,note_on,53,0,0
1,note_on,50,0,0
1,note_on,58,40,240
1,note_on,58,0,120
1,note_on,60,37,120
1,note_on,60,0,120
1,note_on,62,37,120
1,note_on,62,0,120
1,note_on,55,39,120
1,note_on,58,39,0
1,note_on,63,46,0
1,note_on,63,0,120
1,note_on,65,40,120
1,note_on,65,0,120
1,note_on,67,40,120
1,note_on,67,0,120
1,note_on,58,0,360
1,note_on,55,0,0
1,note_on,58,38,0
1,note_on,62,38,0
1,note_on,65,45,0
1,note_on,65,0,120
1,note_on,62,0,0
1,note_on,58,0,0
1,note_on,58,33,360
1,note_on,63,39,0
1,note_on,63,0,120
1,note_on,58,0,0
1,note_on,60,45,315
1,note_on,63,50,15
1,note_on,68,63,15
1,note_on,72,72,15
1,note_on,68,0,960
1,note_on,60,0,0
1,note_on,63,0,0
1,note_on,72,0,240
1,note_on,72,48,0
1,note_on,72,0,120
1,note_on,70,53,120
1,note_on,70,0,120
1,note_on,68,50,120
1,note_on,68,0,120
1,note_on,67,53,120
1,note_on,67,0,240
1,note_on,65,48,0
1,note_on,65,0,240
1,note_on,63,48,0
1,note_on,63,0,120
1,note_on,62,48,120
1,note_on,62,0,120
1,note_on,53,45,120
1,note_on,56,45,0
1,note_on,60,53,0
1,note_on,60,0,480
1,note_on,58,49,0
1,note_on,58,0,480
1,note_on,56,0,0
1,note_on,53,0,0
1,note_on,51,41,0
1,note_on,55,41,0
1,note_on,58,49,0
1,note_on,58,0,960
1,note_on,55,0,0
1,note_on,51,0,0
1,note_on,70,48,240
1,note_on,70,0,120
1,note_on,68,53,120
1,note_on,68,0,120
1,note_on,67,50,120
1,note_on,67,0,120
1,note_on,67,53,120
1,note_on,67,0,240
1,note_on,65,48,0
1,note_on,65,0,240
1,note_on,63,48,0
1,note_on,63,0,120
1,note_on,62,48,120
1,note_on,62,0,120
1,note_on,53,45,120
1,note_on,56,45,0
1,note_on,60,53,0
1,note_on,60,0,480
1,note_on,58,49,0
1,note_on,58,0,480
1,note_on,56,0,0
1,note_on,53,0,0
1,note_on,51,54,0
1,note_on,55,54,0
1,note_on,58,54,0
1,note_on,58,0,960
1,note_on,55,0,0
1,note_on,51,0,0
1,note_on,82,48,240
1,note_on,70,48,0
1,note_on,70,0,120
1,note_on,82,0,0
1,note_on,80,53,120
1,note_on,68,53,0
1,note_on,68,0,120
1,note_on,80,0,0
1,note_on,79,50,120
1,note_on,67,50,0
1,note_on,67,0,120
1,note_on,79,0,0
1,note_on,79,55,120
1,note_on,67,55,0
1,note_on,67,0,240
1,note_on,79,0,0
1,note_on,77,48,0
1,note_on,65,48,0
1,note_on,65,0,240
1,note_on,77,0,0
1,note_on,75,48,0
1,note_on,63,48,0
1,note_on,63,0,120
1,note_on,75,0,0
1,note_on,74,48,120
1,note_on,62,48,0
1,note_on,62,0,120
1,note_on,74,0,0
1,note_on,60,55,120
1,note_on,72,55,0
1,note_on,72,0,120
1,note_on,60,0,0
1,note_on,58,48,120
1,note_on,70,48,0
1,note_on,70,0,120
1,note_on,58,0,0
1,note_on,60,48,120
1,note_on,72,48,0
1,note_on,72,0,120
1,note_on,60,0,0
1,note_on,62,48,120
1,note_on,74,48,0
1,note_on,74,0,120
1,note_on,62,0,0
1,note_on,63,48,120
1,note_on,63,0,120
1,note_on,75,43,0
1,note_on,75,0,120
1,note_on,63,48,0
1,note_on,63,0,120
1,note_on,75,42,0
1,note_on,75,0,120
1,note_on,63,49,0
1,note_on,63,0,120
1,note_on,75,43,0
1,note_on,75,0,120
1,note_on,63,50,0
1,note_on,63,0,120
1,note_on,75,45,0
1,note_on,75,0,120
1,note_on,63,51,0
1,note_on,63,0,120
1,note_on,75,44,0
1,note_on,75,0,120
1,note_on,63,52,0
1,note_on,63,0,120
1,note_on,75,47,0
1,note_on,75,0,120
1,note_on,63,53,0
1,note_on,63,0,120
1,note_on,75,47,0
1,note_on,75,0,120
1,note_on,63,53,0
1,note_on,63,0,120
1,note_on,75,47,0
1,note_on,75,0,120
1,note_on,63,54,0
1,note_on,63,0,120
1,note_on,75,48,0
1,note_on,75,0,120
1,note_on,63,55,0
1,note_on,63,0,120
1,note_on,75,48,0
1,note_on,75,0,120
1,note_on,63,55,0
1,note_on,63,0,120
1,note_on,75,48,0
1,note_on,75,0,120
1,note_on,63,56,0
1,note_on,63,0,120
1,note_on,75,51,0
1,note_on,75,0,120
1,note_on,63,57,0
1,note_on,63,0,120
1,note_on,75,49,0
1,note_on,75,0,120
1,note_on,63,58,0
1,note_on,63,0,120
1,note_on,75,53,0
1,note_on,75,0,120
1,note_on,63,59,0
1,note_on,63,0,120
1,note_on,75,54,0
1,note_on,75,0,120
1,note_on,63,60,0
1,note_on,63,0,120
1,note_on,75,54,0
1,note_on,75,0,120
1,note_on,63,70,0
1,note_on,75,70,0
1,note_on,75,0,480
1,note_on,63,0,0
1,note_on,75,74,240
1,note_on,75,0,240
1,note_on,74,84,0
1,note_on,74,0,240
1,note_on,75,77,0
1,note_on,75,0,240
1,note_on,84,86,0
1,note_on,80,86,0
1,note_on,80,0,120
1,note_on,84,0,0
1,note_on,80,79,120
1,note_on,84,79,0
1,note_on,84,0,120
1,note_on,80,0,0
1,note_on,80,92,120
1,note_on,84,92,0
1,note_on,80,0,480
1,note_on,84,0,120
1,note_on,82,74,0
1,note_on,82,0,120
1,note_on,80,73,0
1,note_on,80,0,120
1,note_on,79,72,0
1,note_on,79,0,120
1,note_on,77,72,0
1,note_on,77,0,120
1,note_on,75,72,0
1,note_on,75,0,120
1,note_on,74,71,0
1,note_on,74,0,120
1,note_on,72,70,0
1,note_on,72,0,120
1,note_on,71,69,0
1,note_on,71,0,120
1,note_on,70,68,0
1,note_on,70,0,120
1,note_on,69,67,0
1,note_on,69,0,120
1,note_on,68,66,0
1,note_on,68,0,120
1,note_on,67,66,0
1,note_on,67,0,160
1,note_on,68,62,0
1,note_on,68,0,160
1,note_on,70,62,0
1,note_on,70,0,160
1,note_on,68,66,0
1,note_on,68,0,160
1,note_on,67,62,0
1,note_on,67,0,160
1,note_on,65,62,0
1,note_on,65,0,160
1,note_on,63,66,0
1,note_on,63,0,160
1,note_on,62,62,0
1,note_on,62,0,160
1,note_on,60,62,0
1,note_on,60,0,160
1,note_on,58,66,0
1,note_on,58,0,160
1,note_on,56,60,0
1,note_on,56,0,160
1,note_on,55,63,0
1,note_on,55,0,160
1,note_on,53,59,120
1,note_on,53,0,120
1,note_on,56,63,0
1,note_on,56,0,120
1,note_on,60,67,0
1,note_on,60,0,120
1,note_on,65,72,0
1,note_on,65,0,240
1,note_on,53,63,360
1,note_on,53,0,120
1,note_on,56,66,0
1,note_on,56,0,120
1,note_on,58,69,0
1,note_on,58,0,120
1,note_on,62,72,0
1,note_on,62,0,240
1,note_on,74,67,240
1,note_on,74,0,120
1,note_on,86,60,0
1,note_on,86,0,120
1,note_on,74,67,0
1,note_on,74,0,120
1,note_on,86,60,0
1,note_on,86,0,120
1,note_on,74,67,0
1,note_on,74,0,120
1,note_on,86,59,0
1,note_on,86,0,120
1,note_on,74,67,0
1,note_on,74,0,120
1,note_on,86,61,0
1,note_on,86,0,120
1,note_on,74,67,0
1,note_on,74,0,120
1,note_on,86,59,0
1,note_on,86,0,120
1,note_on,74,67,0
1,note_on,74,0,120
1,note_on,86,59,0
1,note_on,86,0,120
1,note_on,74,67,0
1,note_on,74,0,120
1,note_on,86,59,0
1,note_on,86,0,120
1,note_on,74,67,0
1,note_on,74,0,120
1,note_on,86,60,0
1,note_on,86,0,120
1,note_on,75,67,0
1,note_on,75,0,120
1,note_on,87,60,0
1,note_on,87,0,120
1,note_on,75,69,0
1,note_on,75,0,120
1,note_on,87,62,0
1,note_on,87,0,120
1,note_on,75,71,0
1,note_on,75,0,120
1,note_on,87,63,0
1,note_on,87,0,120
1,note_on,75,72,0
1,note_on,75,0,120
1,note_on,87,67,0
1,note_on,87,0,120
1,note_on,75,75,0
1,note_on,75,0,120
1,note_on,87,67,0
1,note_on,87,0,120
1,note_on,75,77,0
1,note_on,75,0,120
1,note_on,87,69,0
1,note_on,87,0,120
1,note_on,76,80,0
1,note_on,76,0,120
1,note_on,88,71,0
1,note_on,88,0,120
1,note_on,76,81,0
1,note_on,76,0,120
1,note_on,88,73,0
1,note_on,88,0,120
1,note_on,77,71,120
1,note_on,77,0,120
1,note_on,80,76,0
1,note_on,80,0,120
1,note_on,84,81,0
1,note_on,84,0,120
1,note_on,89,86,0
1,note_on,89,0,240
1,note_on,74,75,360
1,note_on,74,0,120
1,note_on,77,79,0
1,note_on,77,0,120
1,note_on,80,82,0
1,note_on,80,0,120
1,note_on,86,86,0
1,note_on,86,0,240
1,note_on,75,80,240
1,note_on,82,80,0
1,note_on,79,80,0
1,note_on,87,94,0
1,note_on,87,0,480
1,note_on,75,0,0
1,note_on,82,0,0
1,note_on,79,0,0
1,note_on,82,63,0
1,note_on,82,0,120
1,note_on,82,63,120
1,note_on,82,0,120
1,note_on,82,70,120
1,note_on,82,0,240
1,note_on,82,63,240
1,note_on,82,0,120
1,note_on,82,63,120
1,note_on,82,0,120
1,note_on,82,69,120
1,note_on,82,0,240
1,note_on,53,60,240
1,note_on,56,60,0
1,note_on,62,72,0
1,note_on,62,0,240
1,note_on,56,0,0
1,note_on,53,0,0
1,note_on,53,33,720
1,note_on,56,33,0
1,note_on,62,39,0
1,note_on,62,0,120
1,note_on,56,0,0
1,note_on,53,0,0
1,note_on,55,37,360
1,note_on,63,45,0
1,note_on,63,0,120
1,note_on,55,0,0
1,note_on,60,35,360
1,note_on,63,35,0
1,note_on,65,41,0
1,note_on,65,0,120
1,note_on,63,0,0
1,note_on,60,0,0
1,note_on,58,37,360
1,note_on,63,37,0
1,note_on,67,45,0
1,note_on,67,0,120
1,note_on,63,0,0
1,note_on,58,0,0
1,note_on,56,33,360
1,note_on,62,33,0
1,note_on,65,39,0
1,note_on,65,0,120
1,note_on,62,0,0
1,note_on,56,0,0
1,note_on,55,37,360
1,note_on,63,45,0
1,note_on,63,0,120
1,note_on,55,0,0
1,note_on,82,63,360
1,note_on,82,0,120
1,note_on,84,59,0
1,note_on,84,0,120
1,note_on,82,63,0
1,note_on,82,0,120
1,note_on,81,59,0
1,note_on,81,0,120
1,note_on,82,70,0
1,note_on,82,0,240
1,note_on,82,63,240
1,note_on,82,0,120
1,note_on,84,58,0
1,note_on,84,0,120
1,note_on,82,63,0
1,note_on,82,0,120
1,note_on,81,57,0
1,note_on,81,0,120
1,note_on,82,69,0
1,note_on,82,0,240
1,note_on,53,60,240
1,note_on,56,60,0
1,note_on,62,72,0
1,note_on,62,0,240
1,note_on,56,0,0
1,note_on,53,0,0
1,note_on,51,55,720
1,note_on,54,55,0
1,note_on,57,55,0
1,note_on,63,66,0
1,note_on,63,0,960
1,note_on,51,0,0
1,note_on,54,0,0
1,note_on,57,0,0
1,note_on,60,35,0
1,note_on,63,35,0
1,note_on,65,41,0
1,note_on,65,0,120
1,note_on,63,0,0
1,note_on,60,0,0
1,note_on,58,37,360
1,note_on,63,37,0
1,note_on,67,45,0
1,note_on,67,0,120
1,note_on,63,0,0
1,note_on,58,0,0
1,note_on,56,33,360
1,note_on,62,33,0
1,note_on,65,39,0
1,note_on,65,0,120
1,note_on,62,0,0
1,note_on,56,0,0
1,note_on,55,37,360
1,note_on,63,45,0
1,note_on,63,0,240
1,note_on,55,0,0
1,note_on,62,30,240
1,note_on,68,36,0
1,note_on,68,0,240
1,note_on,62,0,0
1,note_on,63,27,0
1,note_on,67,32,0
1,note_on,67,0,240
1,note_on,63,0,0
1,note_on,68,31,480
1,note_on,74,37,0
1,note_on,74,0,240
1,note_on,68,0,0
1,note_on,67,27,0
1,note_on,75,32,0
1,note_on,75,0,240
1,note_on,67,0,0
1,note_on,80,37,480
1,note_on,74,31,0
1,note_on,74,0,240
1,note_on,80,0,0
1,note_on,75,27,0
1,note_on,79,32,0
1,note_on,79,0,240
1,note_on,75,0,0
1,note_on,86,43,480
1,note_on,80,36,0
1,note_on,80,0,240
1,note_on,86,0,0
1,note_on,79,30,0
1,note_on,87,36,0
1,note_on,87,0,240
1,note_on,79,0,0
1,note_on,55,48,480
1,note_on,58,48,0
1,note_on,63,57,0
1,note_on,63,0,480
1,note_on,58,0,0
1,note_on,55,0,0
1,note_on,63,40,3600
1,note_on,63,0,240
1,note_on,62,45,0
1,note_on,62,0,240
1,note_on,63,40,0
1,note_on,63,0,240
1,note_on,70,45,0
1,note_on,70,0,120
1,note_on,70,38,120
1,note_on,70,0,120
1,note_on,61,45,120
1,note_on,61,0,240
1,note_on,62,40,0
1,note_on,62,0,240
1,note_on,70,45,0
1,note_on,70,0,120
1,note_on,70,38,120
1,note_on,70,0,120
1,note_on,65,40,1800
1,note_on,65,0,240
1,note_on,64,45,0
1,note_on,64,0,240
1,note_on,65,40,0
1,note_on,65,0,240
1,note_on,70,45,0
1,note_on,70,0,120
1,note_on,70,38,120
1,note_on,70,0,120
1,note_on,63,45,120
1,note_on,63,0,240
1,note_on,64,40,0
1,note_on,64,0,240
1,note_on,70,45,0
1,note_on,70,0,120
1,note_on,70,38,120
1,note_on,70,0,120
1,note_on,64,45,120
1,note_on,64,0,240
1,note_on,65,41,0
1,note_on,65,0,240
1,note_on,73,46,0
1,note_on,73,0,120
1,note_on,73,40,120
1,note_on,73,0,120
1,note_on,66,47,120
1,note_on,66,0,240
1,note_on,67,43,0
1,note_on,67,0,240
1,note_on,73,48,0
1,note_on,73,0,120
1,note_on,73,41,120
1,note_on,73,0,120
1,note_on,72,49,120
1,note_on,72,0,240
1,note_on,70,42,0
1,note_on,70,0,240
1,note_on,69,47,0
1,note_on,69,0,240
1,note_on,70,42,0
1,note_on,70,0,240
1,note_on,67,49,0
1,note_on,67,0,240
1,note_on,68,44,0
1,note_on,68,0,240
1,note_on,77,50,0
1,note_on,77,0,120
1,note_on,77,44,120
1,note_on,77,0,120
1,note_on,71,52,120
1,note_on,71,0,240
1,note_on,72,47,0
1,note_on,72,0,240
1,note_on,80,54,0
1,note_on,80,0,120
1,note_on,80,47,120
1,note_on,80,0,120
1,note_on,76,56,120
1,note_on,76,0,240
1,note_on,77,50,0
1,note_on,77,0,240
1,note_on,83,57,0
1,note_on,83,0,120
1,note_on,83,50,120
1,note_on,83,0,120
1,note_on,79,63,120
1,note_on,79,0,240
1,note_on,80,56,0
1,note_on,80,0,240
1,note_on,86,66,0
1,note_on,86,0,120
1,note_on,86,60,120
1,note_on,86,0,120
1,note_on,85,79,120
1,note_on,85,0,240
1,note_on,86,72,0
1,note_on,86,0,240
1,note_on,89,69,0
1,note_on,89,0,120
1,note_on,89,64,120
1,note_on,89,0,120
1,note_on,89,76,120
1,note_on,89,0,960
1,note_on,68,65,240
1,note_on,68,0,216
1,note_on,68,65,24
1,note_on,68,0,216
1,note_on,68,65,24
1,note_on,68,0,216
1,note_on,59,74,24
1,note_on,59,0,960
1,note_on,44,64,240
1,note_on,44,0,216
1,note_on,44,64,24
1,note_on,44,0,216
1,note_on,44,64,24
1,note_on,44,0,216
1,note_on,35,78,24
1,note_on,35,0,240
1,note_on,44,70,0
1,note_on,44,0,216
1,note_on,44,70,24
1,note_on,44,0,216
1,note_on,44,70,24
1,note_on,44,0,216
1,note_on,35,86,24
1,note_on,35,0,700
1,note_on,60,40,20
1,note_on,60,0,240
1,note_on,59,45,0
1,note_on,59,0,240
1,note_on,60,40,0
1,note_on,60,0,240
1,note_on,65,45,0
1,note_on,65,0,120
1,note_on,65,38,120
1,note_on,65,0,120
1,note_on,63,45,120
1,note_on,63,0,480
1,note_on,60,40,240
1,note_on,60,0,240
1,note_on,59,45,0
1,note_on,59,0,240
1,note_on,60,40,0
1,note_on,60,0,240
1,note_on,68,45,0
1,note_on,68,0,120
1,note_on,68,38,120
1,note_on,68,0,120
1,note_on,67,45,120
1,note_on,67,0,480
1,note_on,60,40,240
1,note_on,60,0,240
1,note_on,59,45,0
1,note_on,59,0,240
1,note_on,60,40,0
1,note_on,60,0,240
1,note_on,72,45,0
1,note_on,72,0,120
1,note_on,72,38,120
1,note_on,72,0,120
1,note_on,72,45,120
1,note_on,72,0,240
1,note_on,74,45,0
1,note_on,74,0,60
1,note_on,72,45,0
1,note_on,72,0,60
1,note_on,71,40,0
1,note_on,71,0,60
1,note_on,72,45,0
1,note_on,72,0,60
1,note_on,75,50,0
1,note_on,75,0,240
1,note_on,74,45,0
1,note_on,74,0,240
1,note_on,77,56,0
1,note_on,77,0,240
1,note_on,75,53,0
1,note_on,75,0,240
1,note_on,74,50,0
1,note_on,74,0,240
1,note_on,72,47,0
1,note_on,72,0,240
1,note_on,71,51,0
1,note_on,71,0,480
1,note_on,55,40,240
1,note_on,55,0,240
1,note_on,54,45,0
1,note_on,54,0,240
1,note_on,55,40,0
1,note_on,55,0,240
1,note_on,60,45,0
1,note_on,60,0,120
1,note_on,60,38,120
1,note_on,60,0,120
1,note_on,59,45,120
1,note_on,59,0,480
1,note_on,55,40,240
1,note_on,55,0,240
1,note_on,54,45,0
1,note_on,54,0,240
1,note_on,55,40,0
1,note_on,55,0,240
1,note_on,63,45,0
1,note_on,63,0,120
1,note_on,63,38,120
1,note_on,63,0,120
1,note_on,62,45,120
1,note_on,62,0,480
1,note_on,55,45,240
1,note_on,55,0,120
1,note_on,59,51,120
1,note_on,59,0,120
1,note_on,62,45,120
1,note_on,62,0,120
1,note_on,65,45,120
1,note_on,65,0,120
1,note_on,68,45,120
1,note_on,68,0,120
1,note_on,71,55,120
1,note_on,71,0,120
1,note_on,74,53,120
1,note_on,74,0,120
1,note_on,77,56,120
1,note_on,77,0,120
1,note_on,80,60,120
1,note_on,80,0,120
1,note_on,79,63,120
1,note_on,79,0,120
1,note_on,77,59,120
1,note_on,77,0,120
1,note_on,75,55,120
1,note_on,75,0,120
1,note_on,74,54,120
1,note_on,74,0,120
1,note_on,72,62,120
1,note_on,72,0,480
1,note_on,72,50,240
1,note_on,72,0,240
1,note_on,71,57,0
1,note_on,71,0,240
1,note_on,72,53,0
1,note_on,72,0,240
1,note_on,84,60,0
1,note_on,84,0,120
1,note_on,84,52,120
1,note_on,84,0,120
1,note_on,84,60,120
1,note_on,84,0,480
1,note_on,89,59,240
1,note_on,89,0,240
1,note_on,87,65,0
1,note_on,87,0,240
1,note_on,86,60,0
1,note_on,86,0,240
1,note_on,84,66,0
1,note_on,84,0,240
1,note_on,83,60,0
1,note_on,83,0,240
1,note_on,86,69,0
1,note_on,86,0,240
1,note_on,84,60,0
1,note_on,84,0,240
1,note_on,72,50,240
1,note_on,72,0,240
1,note_on,71,54,0
1,note_on,71,0,96
1,note_on,72,54,0
1,note_on,72,0,96
1,note_on,73,55,0
1,note_on,73,0,96
1,note_on,74,56,0
1,note_on,74,0,96
1,note_on,75,56,0
1,note_on,75,0,96
1,note_on,76,57,0
1,note_on,76,0,120
1,note_on,77,58,0
1,note_on,77,0,120
1,note_on,78,59,0
1,note_on,78,0,120
1,note_on,79,59,0
1,note_on,79,0,120
1,note_on,80,60,0
1,note_on,80,0,120
1,note_on,81,61,0
1,note_on,81,0,120
1,note_on,82,62,0
1,note_on,82,0,120
1,note_on,83,62,0
1,note_on,83,0,120
1,note_on,84,68,0
1,note_on,84,0,240
1,note_on,89,63,0
1,note_on,89,0,240
1,note_on,87,65,0
1,note_on,87,0,240
1,note_on,86,60,0
1,note_on,86,0,240
1,note_on,84,66,0
1,note_on,84,0,240
1,note_on,83,60,0
1,note_on,83,0,240
1,note_on,84,69,0
1,note_on,84,0,120
1,note_on,86,63,0
1,note_on,86,0,120
1,note_on,84,63,0
1,note_on,84,0,120
1,note_on,83,63,0
1,note_on,83,0,120
1,note_on,84,69,0
1,note_on,84,0,120
1,note_on,87,73,0
1,note_on,87,0,120
1,note_on,86,72,0
1,note_on,86,0,120
1,note_on,84,71,0
1,note_on,84,0,120
1,note_on,83,72,0
1,note_on,83,0,120
1,note_on,84,65,0
1,note_on,84,0,120
1,note_on,83,65,0
1,note_on,83,0,120
1,note_on,80,65,0
1,note_on,80,0,120
1,note_on,79,69,0
1,note_on,79,0,120
1,note_on,77,63,0
1,note_on,77,0,120
1,note_on,75,63,0
1,note_on,75,0,120
1,note_on,74,63,0
1,note_on,74,0,120
1,note_on,72,69,0
1,note_on,72,0,120
1,note_on,74,63,0
1,note_on,74,0,120
1,note_on,72,63,0
1,note_on,72,0,120
1,note_on,71,61,0
1,note_on,71,0,120
1,note_on,72,66,0
1,note_on,72,0,120
1,note_on,75,72,0
1,note_on,75,0,120
1,note_on,74,70,0
1,note_on,74,0,120
1,note_on,72,67,0
1,note_on,72,0,120
1,note_on,71,69,0
1,note_on,71,0,120
1,note_on,72,63,0
1,note_on,72,0,120
1,note_on,71,63,0
1,note_on,71,0,120
1,note_on,68,63,0
1,note_on,68,0,120
1,note_on,67,69,0
1,note_on,67,0,120
1,note_on,65,63,0
1,note_on,65,0,120
1,note_on,63,63,0
1,note_on,63,0,120
1,note_on,62,63,0
1,note_on,62,0,120
1,note_on,60,77,0
1,note_on,60,0,120
1,note_on,62,69,0
1,note_on,62,0,120
1,note_on,60,69,0
1,note_on,60,0,120
1,note_on,59,69,0
1,note_on,59,0,120
1,note_on,60,77,0
1,note_on,60,0,120
1,note_on,63,69,0
1,note_on,63,0,120
1,note_on,62,69,0
1,note_on,62,0,120
1,note_on,60,69,0
1,note_on,60,0,120
1,note_on,59,77,0
1,note_on,59,0,120
1,note_on,67,69,0
1,note_on,67,0,120
1,note_on,62,69,0
1,note_on,62,0,120
1,note_on,59,69,0
1,note_on,59,0,120
1,note_on,55,79,0
1,note_on,55,0,120
1,note_on,67,69,0
1,note_on,67,0,120
1,note_on,63,69,0
1,note_on,63,0,120
1,note_on,60,69,0
1,note_on,60,0,120
1,note_on,55,81,0
1,note_on,55,0,120
1,note_on,67,69,0
1,note_on,67,0,120
1,note_on,62,69,0
1,note_on,62,0,120
1,note_on,59,69,0
1,note_on,59,0,120
1,note_on,55,80,0
1,note_on,55,0,120
1,note_on,67,69,0
1,note_on,67,0,120
1,note_on,63,69,0
1,note_on,63,0,120
1,note_on,60,69,0
1,note_on,60,0,120
1,note_on,55,80,0
1,note_on,55,0,120
1,note_on,67,69,0
1,note_on,67,0,120
1,note_on,62,69,0
1,note_on,62,0,120
1,note_on,59,69,0
1,note_on,59,0,120
1,note_on,55,80,0
1,note_on,55,0,120
1,note_on,67,69,0
1,note_on,67,0,120
1,note_on,63,69,0
1,note_on,63,0,120
1,note_on,60,69,0
1,note_on,60,0,120
1,note_on,55,74,0
1,note_on,59,74,0
1,note_on,62,74,0
1,note_on,67,89,0
1,note_on,67,0,960
1,note_on,55,0,0
1,note_on,59,0,0
1,note_on,62,0,0
1,note_on,67,40,240
1,note_on,67,0,120
1,note_on,69,37,120
1,note_on,69,0,120
1,note_on,71,37,120
1,note_on,71,0,120
1,note_on,64,39,120
1,note_on,67,39,0
1,note_on,72,46,0
1,note_on,72,0,120
1,note_on,74,40,120
1,note_on,74,0,120
1,note_on,76,40,120
1,note_on,76,0,120
1,note_on,67,0,360
1,note_on,64,0,0
1,note_on,62,38,0
1,note_on,67,38,0
1,note_on,74,45,0
1,note_on,74,0,120
1,note_on,67,0,0
1,note_on,62,0,0
1,note_on,64,33,360
1,note_on,67,33,0
1,note_on,72,39,0
1,note_on,72,0,120
1,note_on,67,0,0
1,note_on,64,0,0
1,note_on,65,37,360
1,note_on,67,37,0
1,note_on,71,37,0
1,note_on,77,45,0
1,note_on,77,0,960
1,note_on,65,0,0
1,note_on,67,0,0
1,note_on,71,0,0
1,note_on,67,40,240
1,note_on,67,0,120
1,note_on,69,37,120
1,note_on,69,0,120
1,note_on,71,37,120
1,note_on,71,0,120
1,note_on,64,39,120
1,note_on,67,39,0
1,note_on,72,46,0
1,note_on,72,0,120
1,note_on,74,40,120
1,note_on,74,0,120
1,note_on,76,40,120
1,note_on,76,0,120
1,note_on,67,0,360
1,note_on,64,0,0
1,note_on,62,38,0
1,note_on,69,38,0
1,note_on,74,45,0
1,note_on,74,0,120
1,note_on,69,0,0
1,note_on,62,0,0
1,note_on,69,33,360
1,note_on,62,33,0
1,note_on,72,39,0
1,note_on,72,0,120
1,note_on,62,0,0
1,note_on,69,0,0
1,note_on,59,31,360
1,note_on,62,31,0
1,note_on,67,37,0
1,note_on,67,0,960
1,note_on,62,0,0
1,note_on,59,0,0
1,note_on,67,40,240
1,note_on,67,0,120
1,note_on,69,37,120
1,note_on,69,0,120
1,note_on,71,37,120
1,note_on,71,0,120
1,note_on,64,39,120
1,note_on,67,39,0
1,note_on,72,46,0
1,note_on,72,0,120
1,note_on,74,40,120
1,note_on,74,0,120
1,note_on,76,40,120
1,note_on,76,0,120
1,note_on,67,0,360
1,note_on,64,0,0
1,note_on,62,38,0
1,note_on,67,38,0
1,note_on,74,45,0
1,note_on,74,0,120
1,note_on,67,0,0
1,note_on,62,0,0
1,note_on,64,33,360
1,note_on,67,33,0
1,note_on,72,39,0
1,note_on,72,0,120
1,note_on,67,0,0
1,note_on,64,0,0
1,note_on,69,45,315
1,note_on,72,50,15
1,note_on,77,71,15
1,note_on,81,80,15
1,note_on,77,0,960
1,note_on,69,0,0
1,note_on,72,0,0
1,note_on,81,0,240
1,note_on,81,48,0
1,note_on,81,0,120
1,note_on,79,53,120
1,note_on,79,0,120
1,note_on,77,50,120
1,note_on,77,0,120
1,note_on,76,53,120
1,note_on,76,0,240
1,note_on,74,48,0
1,note_on,74,0,240
1,note_on,72,48,0
1,note_on,72,0,120
1,note_on,71,48,120
1,note_on,71,0,120
1,note_on,62,45,120
1,note_on,65,45,0
1,note_on,69,53,0
1,note_on,69,0,480
1,note_on,67,49,0
1,note_on,67,0,480
1,note_on,65,0,0
1,note_on,62,0,0
1,note_on,60,41,0
1,note_on,64,41,0
1,note_on,67,49,0
1,note_on,67,0,960
1,note_on,64,0,0
1,note_on,60,0,0
1,note_on,79,48,240
1,note_on,79,0,120
1,note_on,77,53,120
1,note_on,77,0,120
1,note_on,76,50,120
1,note_on,76,0,120
1,note_on,76,53,120
1,note_on,76,0,240
1,note_on,74,48,0
1,note_on,74,0,240
1,note_on,72,48,0
1,note_on,72,0,120
1,note_on,71,48,120
1,note_on,71,0,120
1,note_on,62,45,120
1,note_on,65,45,0
1,note_on,68,53,0
1,note_on,68,0,480
1,note_on,67,49,0
1,note_on,67,0,480
1,note_on,65,0,0
1,note_on,62,0,0
1,note_on,60,54,0
1,note_on,63,54,0
1,note_on,67,54,0
1,note_on,67,0,960
1,note_on,63,0,0
1,note_on,60,0,0
1,note_on,79,48,240
1,note_on,67,48,0
1,note_on,67,0,120
1,note_on,79,0,0
1,note_on,77,53,120
1,note_on,65,53,0
1,note_on,65,0,120
1,note_on,77,0,0
1,note_on,75,50,120
1,note_on,63,50,0
1,note_on,63,0,120
1,note_on,75,0,0
1,note_on,75,55,120
1,note_on,63,55,0
1,note_on,63,0,240
1,note_on,75,0,0
1,note_on,74,48,0
1,note_on,62,48,0
1,note_on,62,0,240
1,note_on,74,0,0
1,note_on,72,48,0
1,note_on,60,48,0
1,note_on,60,0,120
1,note_on,72,0,0
1,note_on,71,48,120
1,note_on,59,48,0
1,note_on,59,0,120
1,note_on,71,0,0
1,note_on,56,55,120
1,note_on,68,55,0
1,note_on,68,0,120
1,note_on,56,0,0
1,note_on,55,48,120
1,note_on,67,48,0
1,note_on,67,0,120
1,note_on,55,0,0
1,note_on,57,48,120
1,note_on,69,48,0
1,note_on,69,0,120
1,note_on,57,0,0
1,note_on,59,48,120
1,note_on,71,48,0
1,note_on,71,0,120
1,note_on,59,0,0
1,note_on,60,49,120
1,note_on,72,58,0
1,note_on,72,0,480
1,note_on,60,0,0
1,note_on,72,54,240
1,note_on,72,0,240
1,note_on,71,60,0
1,note_on,71,0,240
1,note_on,72,55,0
1,note_on,72,0,240
1,note_on,74,52,0
1,note_on,77,62,0
1,note_on,77,0,120
1,note_on,74,0,0
1,note_on,74,48,120
1,note_on,77,57,0
1,note_on,77,0,120
1,note_on,74,0,0
1,note_on,72,55,120
1,note_on,75,65,0
1,note_on,75,0,480
1,note_on,72,0,0
1,note_on,72,61,240
1,note_on,72,0,240
1,note_on,71,68,0
1,note_on,71,0,240
1,note_on,72,63,0
1,note_on,72,0,240
1,note_on,77,58,0
1,note_on,80,69,0
1,note_on,80,0,120
1,note_on,77,0,0
1,note_on,77,54,120
1,note_on,80,64,0
1,note_on,80,0,120
1,note_on,77,0,0
1,note_on,75,70,120
1,note_on,79,70,0
1,note_on,79,0,480
1,note_on,75,0,0
1,note_on,84,74,240
1,note_on,84,0,240
1,note_on,83,84,0
1,note_on,83,0,240
1,note_on,84,77,0
1,note_on,84,0,240
1,note_on,89,94,0
1,note_on,86,94,0
1,note_on,86,0,120
1,note_on,89,0,0
1,note_on,86,86,120
1,note_on,89,86,0
1,note_on,89,0,120
1,note_on,86,0,0
1,note_on,86,101,120
1,note_on,89,101,0
1,note_on,86,0,480
1,note_on,89,0,120
1,note_on,87,74,0
1,note_on,87,0,120
1,note_on,86,73,0
1,note_on,86,0,120
1,note_on,84,72,0
1,note_on,84,0,120
1,note_on,83,72,0
1,note_on,83,0,120
1,note_on,84,72,0
1,note_on,84,0,120
1,note_on,86,71,0
1,note_on,86,0,120
1,note_on,84,70,0
1,note_on,84,0,120
1,note_on,83,69,0
1,note_on,83,0,120
1,note_on,80,68,0
1,note_on,80,0,120
1,note_on,79,67,0
1,note_on,79,0,120
1,note_on,77,66,0
1,note_on,77,0,120
1,note_on,75,66,0
1,note_on,75,0,160
1,note_on,77,62,0
1,note_on,77,0,160
1,note_on,79,62,0
1,note_on,79,0,160
1,note_on,77,66,0
1,note_on,77,0,160
1,note_on,75,62,0
1,note_on,75,0,160
1,note_on,74,62,0
1,note_on,74,0,160
1,note_on,72,66,0
1,note_on,72,0,160
1,note_on,70,62,0
1,note_on,70,0,160
1,note_on,68,62,0
1,note_on,68,0,160
1,note_on,67,66,0
1,note_on,67,0,160
1,note_on,65,60,0
1,note_on,65,0,160
1,note_on,63,63,0
1,note_on,63,0,160
1,note_on,62,59,120
1,note_on,62,0,120
1,note_on,65,63,0
1,note_on,65,0,120
1,note_on,68,67,0
1,note_on,68,0,120
1,note_on,74,72,0
1,note_on,74,0,240
1,note_on,59,63,360
1,note_on,59,0,120
1,note_on,62,66,0
1,note_on,62,0,120
1,note_on,65,69,0
1,note_on,65,0,120
1,note_on,71,72,0
1,note_on,71,0,240
1,note_on,71,67,240
1,note_on,71,0,120
1,note_on,83,60,0
1,note_on,83,0,120
1,note_on,71,67,0
1,note_on,71,0,120
1,note_on,83,60,0
1,note_on,83,0,120
1,note_on,71,67,0
1,note_on,71,0,120
1,note_on,83,59,0
1,note_on,83,0,120
1,note_on,71,67,0
1,note_on,71,0,120
1,note_on,83,61,0
1,note_on,83,0,120
1,note_on,71,67,0
1,note_on,71,0,120
1,note_on,83,59,0
1,note_on,83,0,120
1,note_on,71,67,0
1,note_on,71,0,120
1,note_on,83,59,0
1,note_on,83,0,120
1,note_on,71,67,0
1,note_on,71,0,120
1,note_on,83,59,0
1,note_on,83,0,120
1,note_on,71,67,0
1,note_on,71,0,120
1,note_on,83,60,0
1,note_on,83,0,120
1,note_on,72,67,0
1,note_on,72,0,120
1,note_on,84,60,0
1,note_on,84,0,120
1,note_on,72,69,0
1,note_on,72,0,120
1,note_on,84,62,0
1,note_on,84,0,120
1,note_on,72,71,0
1,note_on,72,0,120
1,note_on,84,63,0
1,note_on,84,0,120
1,note_on,72,72,0
1,note_on,72,0,120
1,note_on,84,67,0
1,note_on,84,0,120
1,note_on,72,75,0
1,note_on,72,0,120
1,note_on,84,67,0
1,note_on,84,0,120
1,note_on,72,77,0
1,note_on,72,0,120
1,note_on,84,69,0
1,note_on,84,0,120
1,note_on,72,80,0
1,note_on,72,0,120
1,note_on,84,71,0
1,note_on,84,0,120
1,note_on,72,81,0
1,note_on,72,0,120
1,note_on,84,73,0
1,note_on,84,0,120
1,note_on,77,71,120
1,note_on,77,0,120
1,note_on,80,76,0
1,note_on,80,0,120
1,note_on,86,81,0
1,note_on,86,0,120
1,note_on,89,86,0
1,note_on,89,0,240
1,note_on,74,75,360
1,note_on,74,0,120
1,note_on,77,79,0
1,note_on,77,0,120
1,note_on,83,82,0
1,note_on,83,0,120
1,note_on,86,86,0
1,note_on,86,0,240
1,note_on,72,80,240
1,note_on,79,80,0
1,note_on,75,80,0
1,note_on,84,94,0
1,note_on,84,0,480
1,note_on,72,0,0
1,note_on,79,0,0
1,note_on,75,0,0
1,note_on,79,63,0
1,note_on,79,0,120
1,note_on,79,63,120
1,note_on,79,0,120
1,note_on,79,70,120
1,note_on,79,0,240
1,note_on,79,63,240
1,note_on,79,0,120
1,note_on,79,63,120
1,note_on,79,0,120
1,note_on,79,69,120
1,note_on,79,0,240
1,note_on,50,60,240
1,note_on,53,60,0
1,note_on,59,72,0
1,note_on,59,0,240
1,note_on,53,0,0
1,note_on,50,0,0
1,note_on,50,33,720
1,note_on,53,33,0
1,note_on,59,39,0
1,note_on,59,0,120
1,note_on,53,0,0
1,note_on,50,0,0
1,note_on,48,37,360
1,note_on,51,37,0
1,note_on,60,45,0
1,note_on,60,0,120
1,note_on,51,0,0
1,note_on,48,0,0
1,note_on,57,35,360
1,note_on,60,35,0
1,note_on,62,41,0
1,note_on,62,0,120
1,note_on,60,0,0
1,note_on,57,0,0
1,note_on,55,37,360
1,note_on,60,37,0
1,note_on,63,45,0
1,note_on,63,0,120
1,note_on,60,0,0
1,note_on,55,0,0
1,note_on,53,33,360
1,note_on,59,33,0
1,note_on,62,39,0
1,note_on,62,0,120
1,note_on,59,0,0
1,note_on,53,0,0
1,note_on,51,37,360
1,note_on,55,37,0
1,note_on,60,45,0
1,note_on,60,0,120
1,note_on,55,0,0
1,note_on,51,0,0
1,note_on,79,63,360
1,note_on,79,0,120
1,note_on,80,59,0
1,note_on,80,0,120
1,note_on,79,63,0
1,note_on,79,0,120
1,note_on,78,59,0
1,note_on,78,0,120
1,note_on,79,70,0
1,note_on,79,0,240
1,note_on,79,63,240
1,note_on,79,0,120
1,note_on,80,58,0
1,note_on,80,0,120
1,note_on,79,63,0
1,note_on,79,0,120
1,note_on,78,57,0
1,note_on,78,0,120
1,note_on,79,69,0
1,note_on,79,0,240
1,note_on,50,60,240
1,note_on,53,60,0
1,note_on,59,72,0
1,note_on,59,0,240
1,note_on,53,0,0
1,note_on,50,0,0
1,note_on,48,55,720
1,note_on,51,55,0
1,note_on,54,55,0
1,note_on,60,66,0
1,note_on,60,0,960
1,note_on,48,0,0
1,note_on,51,0,0
1,note_on,54,0,0
1,note_on,57,35,0
1,note_on,60,35,0
1,note_on,62,41,0
1,note_on,62,0,120
1,note_on,60,0,0
1,note_on,57,0,0
1,note_on,55,37,360
1,note_on,60,37,0
1,note_on,63,45,0
1,note_on,63,0,120
1,note_on,60,0,0
1,note_on,55,0,0
1,note_on,53,33,360
1,note_on,59,33,0
1,note_on,62,39,0
1,note_on,62,0,120
1,note_on,59,0,0
1,note_on,53,0,0
1,note_on,51,37,360
1,note_on,55,37,0
1,note_on,60,45,0
1,note_on,60,0,240
1,note_on,55,0,0
1,note_on,51,0,0
1,note_on,59,30,240
1,note_on,65,36,0
1,note_on,65,0,240
1,note_on,59,0,0
1,note_on,60,27,0
1,note_on,63,32,0
1,note_on,63,0,240
1,note_on,60,0,0
1,note_on,65,31,480
1,note_on,71,37,0
1,note_on,71,0,240
1,note_on,65,0,0
1,note_on,63,27,0
1,note_on,72,32,0
1,note_on,72,0,240
1,note_on,63,0,0
1,note_on,77,37,480
1,note_on,71,31,0
1,note_on,71,0,240
1,note_on,77,0,0
1,note_on,72,27,0
1,note_on,75,32,0
1,note_on,75,0,240
1,note_on,72,0,0
1,note_on,83,43,480
1,note_on,77,36,0
1,note_on,77,0,240
1,note_on,83,0,0
1,note_on,75,30,0
1,note_on,84,36,0
1,note_on,84,0,240
1,note_on,75,0,0
1,note_on,60,36,480
1,note_on,66,44,0
1,note_on,66,0,240
1,note_on,60,0,0
1,note_on,61,33,0
1,note_on,65,40,0
1,note_on,65,0,240
1,note_on,61,0,0
1,note_on,65,43,480
1,note_on,73,52,0
1,note_on,73,0,240
1,note_on,65,0,0
1,note_on,66,38,0
1,note_on,72,45,0
1,note_on,72,0,240
1,note_on,66,0,0
1,note_on,77,65,480
1,note_on,73,54,0
1,note_on,73,0,240
1,note_on,77,0,0
1,note_on,72,47,0
1,note_on,78,57,0
1,note_on,78,0,240
1,note_on,72,0,0
1,note_on,85,76,480
1,note_on,77,63,0
1,note_on,77,0,240
1,note_on,85,0,0
1,note_on,78,55,0
1,note_on,84,65,0
1,note_on,84,0,240
1,note_on,78,0,0
1,note_on,87,84,0
1,note_on,78,78,0
1,note_on,78,0,1920
1,note_on,87,0,0
1,note_on,85,59,0
1,note_on,75,40,0
1,note_on,85,0,480
1,note_on,84,54,0
1,note_on,84,0,480
1,note_on,75,0,0
1,note_on,82,57,0
1,note_on,72,40,0
1,note_on,82,0,480
1,note_on,80,50,0
1,note_on,80,0,240
1,note_on,77,41,0
1,note_on,77,0,80
1,note_on,78,36,0
1,note_on,78,0,80
1,note_on,80,36,0
1,note_on,80,0,80
1,note_on,78,50,0
1,note_on,78,0,960
1,note_on,72,0,0
1,note_on,56,34,240
1,note_on,56,0,120
1,note_on,58,31,120
1,note_on,58,0,120
1,note_on,60,31,120
1,note_on,60,0,120
1,note_on,53,33,120
1,note_on,56,33,0
1,note_on,61,39,0
1,note_on,61,0,120
1,note_on,63,34,120
1,note_on,63,0,120
1,note_on,65,34,120
1,note_on,65,0,120
1,note_on,56,0,360
1,note_on,53,0,0
1,note_on,56,32,0
1,note_on,63,38,0
1,note_on,63,0,120
1,note_on,56,0,0
1,note_on,56,27,360
1,note_on,61,33,0
1,note_on,61,0,120
1,note_on,56,0,0
1,note_on,54,31,360
1,note_on,56,31,0
1,note_on,60,31,0
1,note_on,66,37,0
1,note_on,66,0,1200
1,note_on,54,0,0
1,note_on,56,0,0
1,note_on,60,0,0
1,note_on,56,34,0
1,note_on,56,0,120
1,note_on,58,31,120
1,note_on,58,0,120
1,note_on,60,31,120
1,note_on,60,0,120
1,note_on,53,33,120
1,note_on,56,33,0
1,note_on,61,39,0
1,note_on,61,0,120
1,note_on,63,34,120
1,note_on,63,0,120
1,note_on,65,34,120
1,note_on,65,0,120
1,note_on,56,0,360
1,note_on,53,0,0
1,note_on,51,32,0
1,note_on,58,32,0
1,note_on,63,38,0
1,note_on,63,0,120
1,note_on,58,0,0
1,note_on,51,0,0
1,note_on,58,27,360
1,note_on,51,27,0
1,note_on,61,33,0
1,note_on,61,0,120
1,note_on,51,0,0
1,note_on,58,0,0
1,note_on,48,26,360
1,note_on,51,26,0
1,note_on,56,31,0
1,note_on,56,0,960
1,note_on,51,0,0
1,note_on,48,0,0
1,note_on,56,34,240
1,note_on,56,0,120
1,note_on,58,31,120
1,note_on,58,0,120
1,note_on,60,31,120
1,note_on,60,0,120
1,note_on,53,33,120
1,note_on,56,33,0
1,note_on,61,39,0
1,note_on,61,0,120
1,note_on,63,34,120
1,note_on,63,0,120
1,note_on,65,34,120
1,note_on,65,0,120
1,note_on,56,0,360
1,note_on,53,0,0
1,note_on,56,32,0
1,note_on,63,38,0
1,note_on,63,0,120
1,note_on,56,0,0
1,note_on,56,27,360
1,note_on,61,33,0
1,note_on,61,0,120
1,note_on,56,0,0
1,note_on,54,28,360
1,note_on,56,28,0
1,note_on,60,28,0
1,note_on,66,35,0
1,note_on,66,0,720
1,note_on,63,30,0
1,note_on,60,0,238
1,note_on,63,0,2
1,note_on,60,34,0
1,note_on,60,0,960
1,note_on,56,0,0
1,note_on,54,0,0
1,note_on,54,40,638
1,note_on,57,43,107
1,note_on,60,46,106
1,note_on,66,49,109
1,note_on,66,0,720
1,note_on,63,30,0
1,note_on,60,0,237
1,note_on,63,0,3
1,note_on,60,34,0
1,note_on,60,0,960
1,note_on,57,0,0
1,note_on,54,0,0
1,note_on,55,63,639
1,note_on,55,0,106
1,note_on,60,65,0
1,note_on,63,67,106
1,note_on,60,0,1
1,note_on,63,0,108
1,note_on,67,70,0
1,note_on,67,0,120
1,note_on,63,63,120
1,note_on,63,0,120
1,note_on,60,67,120
1,note_on,60,0,120
1,note_on,55,63,120
1,note_on,55,0,120
1,note_on,60,44,2280
1,note_on,60,0,120
1,note_on,62,47,120
1,note_on,62,0,120
1,note_on,64,51,120
1,note_on,64,0,120
1,note_on,65,54,120
1,note_on,65,0,120
1,note_on,67,46,120
1,note_on,67,0,120
1,note_on,68,47,120
1,note_on,68,0,120
1,note_on,84,56,120
1,note_on,84,0,240
1,note_on,83,65,0
1,note_on,83,0,240
1,note_on,84,55,0
1,note_on,84,0,240
1,note_on,89,66,0
1,note_on,89,0,120
1,note_on,89,54,120
1,note_on,89,0,120
1,note_on,88,66,120
1,note_on,88,0,480
1,note_on,60,44,720
1,note_on,60,0,120
1,note_on,62,47,120
1,note_on,62,0,120
1,note_on,64,51,120
1,note_on,64,0,120
1,note_on,65,54,120
1,note_on,65,0,120
1,note_on,67,46,120
1,note_on,67,0,120
1,note_on,68,47,120
1,note_on,68,0,120
1,note_on,84,56,120
1,note_on,84,0,240
1,note_on,83,65,0
1,note_on,83,0,240
1,note_on,84,55,0
1,note_on,84,0,240
1,note_on,89,66,0
1,note_on,89,0,120
1,note_on,89,54,120
1,note_on,89,0,120
1,note_on,88,66,120
1,note_on,88,0,480
1,note_on,72,50,240
1,note_on,72,0,240
1,note_on,71,57,0
1,note_on,71,0,240
1,note_on,72,47,0
1,note_on,72,0,240
1,note_on,77,57,0
1,note_on,77,0,120
1,note_on,77,45,120
1,note_on,77,0,120
1,note_on,76,55,120
1,note_on,76,0,480
1,note_on,60,45,240
1,note_on,60,0,240
1,note_on,59,51,0
1,note_on,59,0,238
1,note_on,60,43,2
1,note_on,60,0,240
1,note_on,65,51,0
1,note_on,65,0,120
1,note_on,65,40,120
1,note_on,65,0,120
1,note_on,64,49,120
1,note_on,64,0,480
1,note_on,36,30,240
1,note_on,36,0,238
1,note_on,36,40,2
1,note_on,36,0,480
1,note_on,36,26,240
1,note_on,36,0,240
1,note_on,36,33,0
1,note_on,36,0,480
2,note_on,48,36,720
2,note_on,48,0,240
2,note_on,47,38,0
2,note_on,47,0,240
2,note_on,48,35,0
2,note_on,48,0,240
2,note_on,53,38,0
2,note_on,53,0,120
2,note_on,53,34,120
2,note_on,53,0,120
2,note_on,51,38,120
2,note_on,51,0,480
2,note_on,48,36,240
2,note_on,48,0,240
2,note_on,47,38,0
2,note_on,47,0,240
2,note_on,48,35,0
2,note_on,48,0,240
2,note_on,56,38,0
2,note_on,56,0,120
2,note_on,56,34,120
2,note_on,56,0,120
2,note_on,55,38,120
2,note_on,55,0,480
2,note_on,56,38,1440
2,note_on,60,38,0
2,note_on,66,38,0
2,note_on,66,0,1920
2,note_on,60,0,0
2,note_on,56,0,0
2,note_on,67,38,0
2,note_on,62,32,0
2,note_on,55,32,0
2,note_on,55,0,480
2,note_on,62,0,0
2,note_on,67,0,0
2,note_on,43,36,240
2,note_on,43,0,240
2,note_on,42,38,0
2,note_on,42,0,240
2,note_on,43,35,0
2,note_on,43,0,240
2,note_on,48,38,0
2,note_on,48,0,120
2,note_on,48,34,120
2,note_on,48,0,120
2,note_on,47,38,120
2,note_on,47,0,480
2,note_on,43,36,240
2,note_on,43,0,240
2,note_on,42,38,0
2,note_on,42,0,240
2,note_on,43,35,0
2,note_on,43,0,240
2,note_on,51,38,0
2,note_on,51,0,120
2,note_on,51,34,120
2,note_on,51,0,120
2,note_on,50,38,120
2,note_on,50,0,480
2,note_on,43,37,240
2,note_on,43,0,120
2,note_on,47,43,120
2,note_on,47,0,120
2,note_on,50,37,120
2,note_on,50,0,120
2,note_on,53,37,120
2,note_on,53,0,120
2,note_on,56,37,120
2,note_on,56,0,120
2,note_on,59,46,120
2,note_on,59,0,120
2,note_on,62,45,120
2,note_on,62,0,120
2,note_on,65,47,120
2,note_on,65,0,120
2,note_on,68,50,120
2,note_on,68,0,120
2,note_on,67,53,120
2,note_on,67,0,120
2,note_on,65,50,120
2,note_on,65,0,120
2,note_on,63,46,120
2,note_on,63,0,120
2,note_on,62,45,120
2,note_on,62,0,120
2,note_on,60,42,120
2,note_on,60,0,120
2,note_on,63,32,120
2,note_on,67,38,0
2,note_on,67,0,120
2,note_on,63,0,0
2,note_on,63,32,120
2,note_on,67,38,0
2,note_on,67,0,120
2,note_on,63,0,0
2,note_on,63,32,120
2,note_on,67,38,0
2,note_on,67,0,120
2,note_on,63,0,0
2,note_on,60,42,120
2,note_on,60,0,120
2,note_on,64,31,120
2,note_on,67,31,0
2,note_on,70,37,0
2,note_on,70,0,120
2,note_on,67,0,0
2,note_on,64,0,0
2,note_on,64,31,120
2,note_on,67,31,0
2,note_on,70,37,0
2,note_on,70,0,120
2,note_on,67,0,0
2,note_on,64,0,0
2,note_on,64,31,120
2,note_on,67,31,0
2,note_on,70,37,0
2,note_on,70,0,120
2,note_on,67,0,0
2,note_on,64,0,0
2,note_on,60,42,120
2,note_on,60,0,120
2,note_on,65,32,120
2,note_on,68,38,0
2,note_on,68,0,120
2,note_on,65,0,0
2,note_on,65,32,120
2,note_on,68,38,0
2,note_on,68,0,120
2,note_on,65,0,0
2,note_on,65,32,120
2,note_on,68,38,0
2,note_on,68,0,120
2,note_on,65,0,0
2,note_on,60,42,120
2,note_on,60,0,120
2,note_on,65,31,120
2,note_on,68,31,0
2,note_on,71,37,0
2,note_on,71,0,120
2,note_on,68,0,0
2,note_on,65,0,0
2,note_on,65,31,120
2,note_on,68,31,0
2,note_on,71,37,0
2,note_on,71,0,120
2,note_on,68,0,0
2,note_on,65,0,0
2,note_on,65,31,120
2,note_on,68,31,0
2,note_on,71,37,0
2,note_on,71,0,120
2,note_on,68,0,0
2,note_on,65,0,0
2,note_on,60,42,120
2,note_on,60,0,120
2,note_on,63,32,120
2,note_on,67,38,0
2,note_on,67,0,120
2,note_on,63,0,0
2,note_on,63,32,120
2,note_on,67,38,0
2,note_on,67,0,120
2,note_on,63,0,0
2,note_on,63,32,120
2,note_on,67,38,0
2,note_on,67,0,120
2,note_on,63,0,0
2,note_on,60,42,120
2,note_on,60,0,120
2,note_on,64,31,120
2,note_on,67,31,0
2,note_on,70,37,0
2,note_on,70,0,120
2,note_on,67,0,0
2,note_on,64,0,0
2,note_on,64,31,120
2,note_on,67,31,0
2,note_on,70,37,0
2,note_on,70,0,120
2,note_on,67,0,0
2,note_on,64,0,0
2,note_on,64,31,120
2,note_on,67,31,0
2,note_on,70,37,0
2,note_on,70,0,120
2,note_on,67,0,0
2,note_on,64,0,0
2,note_on,60,42,120
2,note_on,60,0,120
2,note_on,65,32,120
2,note_on,68,38,0
2,note_on,68,0,120
2,note_on,65,0,0
2,note_on,65,32,120
2,note_on,68,38,0
2,note_on,68,0,120
2,note_on,65,0,0
2,note_on,65,32,120
2,note_on,68,38,0
2,note_on,68,0,120
2,note_on,65,0,0
2,note_on,60,42,120
2,note_on,60,0,120
2,note_on,65,31,120
2,note_on,68,31,0
2,note_on,71,37,0
2,note_on,71,0,120
2,note_on,68,0,0
2,note_on,65,0,0
2,note_on,65,31,120
2,note_on,68,31,0
2,note_on,71,37,0
2,note_on,71,0,120
2,note_on,68,0,0
2,note_on,65,0,0
2,note_on,65,31,120
2,note_on,68,31,0
2,note_on,71,37,0
2,note_on,71,0,120
2,note_on,68,0,0
2,note_on,65,0,0
2,note_on,60,36,120
2,note_on,63,36,0
2,note_on,67,36,0
2,note_on,72,44,7
2,note_on,67,0,473
2,note_on,60,0,0
2,note_on,63,0,0
2,note_on,72,0,7
2,note_on,66,42,233
2,note_on,66,0,240
2,note_on,67,52,0
2,note_on,67,0,480
2,note_on,59,48,240
2,note_on,59,0,240
2,note_on,60,57,0
2,note_on,60,0,480
2,note_on,54,54,240
2,note_on,54,0,240
2,note_on,55,63,0
2,note_on,55,0,480
2,note_on,47,57,240
2,note_on,47,0,240
2,note_on,48,66,0
2,note_on,48,0,480
2,note_on,42,58,240
2,note_on,42,0,240
2,note_on,43,67,0
2,note_on,43,0,480
2,note_on,36,82,0
2,note_on,48,96,0
2,note_on,48,0,240
2,note_on,36,0,0
2,note_on,31,55,240
2,note_on,43,66,0
2,note_on,43,0,240
2,note_on,31,0,0
2,note_on,36,82,240
2,note_on,48,97,0
2,note_on,48,0,240
2,note_on,36,0,0
2,note_on,31,57,240
2,note_on,43,68,0
2,note_on,43,0,240
2,note_on,31,0,0
2,note_on,36,82,240
2,note_on,48,97,0
2,note_on,48,0,240
2,note_on,36,0,0
2,note_on,31,66,240
2,note_on,35,66,0
2,note_on,38,66,0
2,note_on,43,78,0
2,note_on,43,0,960
2,note_on,31,0,0
2,note_on,35,0,0
2,note_on,38,0,0
2,note_on,39,26,960
2,note_on,51,31,0
2,note_on,51,0,960
2,note_on,39,0,0
2,note_on,44,25,0
2,note_on,56,30,0
2,note_on,56,0,120
2,note_on,44,0,0
2,note_on,43,23,360
2,note_on,55,27,0
2,note_on,55,0,120
2,note_on,43,0,0
2,note_on,46,27,360
2,note_on,41,27,0
2,note_on,53,32,0
2,note_on,53,0,960
2,note_on,41,0,0
2,note_on,46,0,0
2,note_on,39,26,960
2,note_on,51,31,0
2,note_on,51,0,960
2,note_on,39,0,0
2,note_on,32,25,0
2,note_on,44,30,0
2,note_on,44,0,120
2,note_on,32,0,0
2,note_on,33,23,360
2,note_on,45,27,0
2,note_on,45,0,120
2,note_on,33,0,0
2,note_on,34,22,360
2,note_on,46,27,0
2,note_on,46,0,960
2,note_on,34,0,0
2,note_on,39,26,960
2,note_on,51,31,0
2,note_on,51,0,960
2,note_on,39,0,0
2,note_on,44,25,0
2,note_on,56,30,0
2,note_on,56,0,120
2,note_on,44,0,0
2,note_on,43,23,360
2,note_on,55,27,0
2,note_on,55,0,120
2,note_on,43,0,0
2,note_on,44,28,255
2,note_on,48,32,15
2,note_on,51,36,15
2,note_on,56,40,15
2,note_on,56,0,540
2,note_on,44,0,0
2,note_on,48,0,0
2,note_on,51,0,0
2,note_on,46,80,1440
2,note_on,34,49,1200
2,note_on,34,0,120
2,note_on,36,53,120
2,note_on,36,0,120
2,note_on,38,45,120
2,note_on,38,0,120
2,note_on,39,53,120
2,note_on,39,0,120
2,note_on,41,49,120
2,note_on,41,0,120
2,note_on,43,51,120
2,note_on,43,0,120
2,note_on,41,53,360
2,note_on,41,0,480
2,note_on,39,50,0
2,note_on,39,0,480
2,note_on,46,0,0
2,note_on,46,80,0
2,note_on,34,49,1200
2,note_on,34,0,120
2,note_on,36,53,120
2,note_on,36,0,120
2,note_on,38,45,120
2,note_on,38,0,120
2,note_on,39,53,120
2,note_on,39,0,120
2,note_on,41,49,120
2,note_on,41,0,120
2,note_on,43,51,120
2,note_on,43,0,120
2,note_on,41,53,360
2,note_on,41,0,480
2,note_on,39,50,0
2,note_on,39,0,480
2,note_on,46,0,0
2,note_on,44,45,0
2,note_on,48,45,0
2,note_on,53,53,0
2,note_on,53,0,480
2,note_on,48,0,0
2,note_on,44,0,0
2,note_on,46,42,480
2,note_on,53,42,0
2,note_on,56,50,0
2,note_on,56,0,480
2,note_on,53,0,0
2,note_on,46,0,0
2,note_on,55,58,480
2,note_on,51,49,0
2,note_on,51,0,480
2,note_on,55,0,0
2,note_on,51,54,240
2,note_on,51,0,240
2,note_on,50,60,0
2,note_on,50,0,240
2,note_on,51,55,0
2,note_on,51,0,240
2,note_on,48,52,0
2,note_on,56,62,0
2,note_on,56,0,120
2,note_on,48,0,0
2,note_on,48,48,120
2,note_on,56,57,0
2,note_on,56,0,120
2,note_on,48,0,0
2,note_on,55,65,120
2,note_on,46,55,0
2,note_on,46,0,480
2,note_on,55,0,0
2,note_on,51,61,240
2,note_on,51,0,240
2,note_on,50,68,0
2,note_on,50,0,240
2,note_on,51,63,0
2,note_on,51,0,240
2,note_on,56,58,0
2,note_on,60,69,0
2,note_on,60,0,120
2,note_on,56,0,0
2,note_on,56,54,120
2,note_on,60,64,0
2,note_on,60,0,120
2,note_on,56,0,0
2,note_on,58,71,120
2,note_on,55,71,0
2,note_on,55,0,240
2,note_on,58,0,0
2,note_on,51,62,0
2,note_on,51,0,120
2,note_on,63,54,0
2,note_on,63,0,120
2,note_on,51,63,0
2,note_on,51,0,120
2,note_on,63,56,0
2,note_on,63,0,120
2,note_on,51,63,0
2,note_on,51,0,120
2,note_on,63,57,0
2,note_on,63,0,120
2,note_on,51,63,0
2,note_on,51,0,120
2,note_on,63,55,0
2,note_on,63,0,120
2,note_on,51,64,0
2,note_on,51,0,120
2,note_on,63,59,0
2,note_on,63,0,120
2,note_on,51,65,0
2,note_on,51,0,120
2,note_on,63,58,0
2,note_on,63,0,120
2,note_on,51,66,0
2,note_on,51,0,120
2,note_on,63,61,0
2,note_on,63,0,120
2,note_on,50,49,0
2,note_on,53,49,0
2,note_on,56,49,0
2,note_on,58,49,0
2,note_on,62,66,27
2,note_on,58,0,1893
2,note_on,56,0,0
2,note_on,50,0,0
2,note_on,53,0,0
2,note_on,51,49,0
2,note_on,55,49,0
2,note_on,58,49,0
2,note_on,63,66,0
2,note_on,62,0,27
2,note_on,58,0,453
2,note_on,51,0,0
2,note_on,55,0,0
2,note_on,63,0,0
2,note_on,32,73,1440
2,note_on,44,73,0
2,note_on,44,0,240
2,note_on,32,0,0
2,note_on,32,63,480
2,note_on,44,63,0
2,note_on,44,0,120
2,note_on,32,0,0
2,note_on,34,70,120
2,note_on,46,70,0
2,note_on,46,0,240
2,note_on,34,0,0
2,note_on,34,63,480
2,note_on,46,63,0
2,note_on,46,0,120
2,note_on,34,0,0
2,note_on,68,63,360
2,note_on,68,0,120
2,note_on,70,65,0
2,note_on,70,0,120
2,note_on,72,69,0
2,note_on,72,0,120
2,note_on,70,67,0
2,note_on,70,0,120
2,note_on,68,65,0
2,note_on,68,0,120
2,note_on,67,64,0
2,note_on,67,0,120
2,note_on,65,67,0
2,note_on,65,0,160
2,note_on,63,61,0
2,note_on,63,0,160
2,note_on,62,61,0
2,note_on,62,0,160
2,note_on,60,67,0
2,note_on,60,0,160
2,note_on,58,62,0
2,note_on,58,0,160
2,note_on,56,62,0
2,note_on,56,0,160
2,note_on,55,67,0
2,note_on,55,0,160
2,note_on,56,63,0
2,note_on,56,0,160
2,note_on,58,63,0
2,note_on,58,0,160
2,note_on,56,67,0
2,note_on,56,0,160
2,note_on,55,60,0
2,note_on,55,0,160
2,note_on,53,60,0
2,note_on,53,0,160
2,note_on,51,70,0
2,note_on,51,0,160
2,note_on,50,63,0
2,note_on,50,0,160
2,note_on,48,66,0
2,note_on,48,0,160
2,note_on,46,74,0
2,note_on,46,0,160
2,note_on,44,67,0
2,note_on,44,0,160
2,note_on,43,67,0
2,note_on,43,0,160
2,note_on,32,73,0
2,note_on,44,73,0
2,note_on,44,0,240
2,note_on,32,0,0
2,note_on,32,63,480
2,note_on,44,63,0
2,note_on,44,0,120
2,note_on,32,0,0
2,note_on,34,70,120
2,note_on,46,70,0
2,note_on,46,0,240
2,note_on,34,0,0
2,note_on,34,63,480
2,note_on,46,63,0
2,note_on,46,0,120
2,note_on,34,0,0
2,note_on,39,59,120
2,note_on,43,59,0
2,note_on,46,59,0
2,note_on,51,70,0
2,note_on,51,0,480
2,note_on,39,0,0
2,note_on,43,0,0
2,note_on,46,0,0
2,note_on,64,53,0
2,note_on,67,63,0
2,note_on,67,0,120
2,note_on,64,0,0
2,note_on,64,53,120
2,note_on,67,63,0
2,note_on,67,0,120
2,note_on,64,0,0
2,note_on,65,59,120
2,note_on,68,70,0
2,note_on,68,0,240
2,note_on,65,0,0
2,note_on,64,53,240
2,note_on,67,63,0
2,note_on,67,0,120
2,note_on,64,0,0
2,note_on,64,53,120
2,note_on,67,63,0
2,note_on,67,0,120
2,note_on,64,0,0
2,note_on,65,59,120
2,note_on,68,70,0
2,note_on,68,0,240
2,note_on,65,0,0
2,note_on,34,63,240
2,note_on,46,74,0
2,note_on,46,0,240
2,note_on,34,0,0
2,note_on,35,30,720
2,note_on,47,36,0
2,note_on,47,0,120
2,note_on,35,0,0
2,note_on,36,32,360
2,note_on,48,38,0
2,note_on,48,0,120
2,note_on,36,0,0
2,note_on,33,30,360
2,note_on,45,36,0
2,note_on,45,0,120
2,note_on,33,0,0
2,note_on,34,32,360
2,note_on,46,38,0
2,note_on,46,0,120
2,note_on,34,0,0
2,note_on,34,27,360
2,note_on,46,33,0
2,note_on,46,0,120
2,note_on,34,0,0
2,note_on,39,32,360
2,note_on,51,38,0
2,note_on,51,0,120
2,note_on,39,0,0
2,note_on,64,53,360
2,note_on,67,63,0
2,note_on,67,0,120
2,note_on,64,0,0
2,note_on,64,53,120
2,note_on,67,63,0
2,note_on,67,0,120
2,note_on,64,0,0
2,note_on,65,59,120
2,note_on,68,70,0
2,note_on,68,0,240
2,note_on,65,0,0
2,note_on,64,53,240
2,note_on,67,63,0
2,note_on,67,0,120
2,note_on,64,0,0
2,note_on,64,53,120
2,note_on,67,63,0
2,note_on,67,0,120
2,note_on,64,0,0
2,note_on,65,59,120
2,note_on,68,70,0
2,note_on,68,0,240
2,note_on,65,0,0
2,note_on,34,63,240
2,note_on,46,74,0
2,note_on,46,0,240
2,note_on,34,0,0
2,note_on,35,55,720
2,note_on,39,55,0
2,note_on,42,55,0
2,note_on,47,65,0
2,note_on,47,0,960
2,note_on,35,0,0
2,note_on,39,0,0
2,note_on,42,0,0
2,note_on,33,30,0
2,note_on,45,36,0
2,note_on,45,0,120
2,note_on,33,0,0
2,note_on,34,32,360
2,note_on,46,38,0
2,note_on,46,0,120
2,note_on,34,0,0
2,note_on,34,27,360
2,note_on,46,33,0
2,note_on,46,0,120
2,note_on,34,0,0
2,note_on,39,32,360
2,note_on,39,0,240
2,note_on,51,27,0
2,note_on,51,0,240
2,note_on,39,32,480
2,note_on,39,0,240
2,note_on,51,28,0
2,note_on,51,0,240
2,note_on,39,32,480
2,note_on,39,0,240
2,note_on,51,28,0
2,note_on,51,0,240
2,note_on,39,32,480
2,note_on,39,0,240
2,note_on,51,27,0
2,note_on,51,0,240
2,note_on,39,32,480
2,note_on,39,0,480
2,note_on,48,36,2160
2,note_on,48,0,240
2,note_on,47,38,0
2,note_on,47,0,240
2,note_on,48,35,0
2,note_on,48,0,240
2,note_on,53,38,0
2,note_on,53,0,120
2,note_on,53,34,120
2,note_on,53,0,120
2,note_on,51,38,120
2,note_on,51,0,480
2,note_on,48,36,240
2,note_on,48,0,240
2,note_on,47,38,0
2,note_on,47,0,240
2,note_on,48,35,0
2,note_on,48,0,240
2,note_on,56,38,0
2,note_on,56,0,120
2,note_on,56,34,120
2,note_on,56,0,120
2,note_on,55,38,120
2,note_on,55,0,480
2,note_on,56,38,1440
2,note_on,60,38,0
2,note_on,66,38,0
2,note_on,66,0,1920
2,note_on,60,0,0
2,note_on,56,0,0
2,note_on,67,38,0
2,note_on,62,32,0
2,note_on,55,32,0
2,note_on,55,0,480
2,note_on,62,0,0
2,note_on,67,0,0
2,note_on,43,36,240
2,note_on,43,0,240
2,note_on,42,38,0
2,note_on,42,0,240
2,note_on,43,35,0
2,note_on,43,0,240
2,note_on,48,38,0
2,note_on,48,0,120
2,note_on,48,34,120
2,note_on,48,0,120
2,note_on,47,38,120
2,note_on,47,0,480
2,note_on,43,36,240
2,note_on,43,0,240
2,note_on,42,38,0
2,note_on,42,0,240
2,note_on,43,35,0
2,note_on,43,0,240
2,note_on,51,38,0
2,note_on,51,0,120
2,note_on,51,34,120
2,note_on,51,0,120
2,note_on,50,38,120
2,note_on,50,0,480
2,note_on,43,37,240
2,note_on,43,0,120
2,note_on,47,43,120
2,note_on,47,0,120
2,note_on,50,37,120
2,note_on,50,0,120
2,note_on,53,37,120
2,note_on,53,0,120
2,note_on,56,37,120
2,note_on,56,0,120
2,note_on,59,46,120
2,note_on,59,0,120
2,note_on,62,45,120
2,note_on,62,0,120
2,note_on,65,47,120
2,note_on,65,0,120
2,note_on,68,50,120
2,note_on,68,0,120
2,note_on,67,53,120
2,note_on,67,0,120
2,note_on,65,50,120
2,note_on,65,0,120
2,note_on,63,46,120
2,note_on,63,0,120
2,note_on,62,45,120
2,note_on,62,0,120
2,note_on,60,42,120
2,note_on,60,0,120
2,note_on,63,32,120
2,note_on,67,38,0
2,note_on,67,0,120
2,note_on,63,0,0
2,note_on,63,32,120
2,note_on,67,38,0
2,note_on,67,0,120
2,note_on,63,0,0
2,note_on,63,32,120
2,note_on,67,38,0
2,note_on,67,0,120
2,note_on,63,0,0
2,note_on,60,42,120
2,note_on,60,0,120
2,note_on,64,31,120
2,note_on,67,31,0
2,note_on,70,37,0
2,note_on,70,0,120
2,note_on,67,0,0
2,note_on,64,0,0
2,note_on,64,31,120
2,note_on,67,31,0
2,note_on,70,37,0
2,note_on,70,0,120
2,note_on,67,0,0
2,note_on,64,0,0
2,note_on,64,31,120
2,note_on,67,31,0
2,note_on,70,37,0
2,note_on,70,0,120
2,note_on,67,0,0
2,note_on,64,0,0
2,note_on,60,42,120
2,note_on,60,0,120
2,note_on,65,32,120
2,note_on,68,38,0
2,note_on,68,0,120
2,note_on,65,0,0
2,note_on,65,32,120
2,note_on,68,38,0
2,note_on,68,0,120
2,note_on,65,0,0
2,note_on,65,32,120
2,note_on,68,38,0
2,note_on,68,0,120
2,note_on,65,0,0
2,note_on,60,42,120
2,note_on,60,0,120
2,note_on,65,31,120
2,note_on,68,31,0
2,note_on,71,37,0
2,note_on,71,0,120
2,note_on,68,0,0
2,note_on,65,0,0
2,note_on,65,31,120
2,note_on,68,31,0
2,note_on,71,37,0
2,note_on,71,0,120
2,note_on,68,0,0
2,note_on,65,0,0
2,note_on,65,31,120
2,note_on,68,31,0
2,note_on,71,37,0
2,note_on,71,0,120
2,note_on,68,0,0
2,note_on,65,0,0
2,note_on,60,42,120
2,note_on,60,0,120
2,note_on,63,32,120
2,note_on,67,38,0
2,note_on,67,0,120
2,note_on,63,0,0
2,note_on,63,32,120
2,note_on,67,38,0
2,note_on,67,0,120
2,note_on,63,0,0
2,note_on,63,32,120
2,note_on,67,38,0
2,note_on,67,0,120
2,note_on,63,0,0
2,note_on,60,42,120
2,note_on,60,0,120
2,note_on,64,31,120
2,note_on,67,31,0
2,note_on,70,37,0
2,note_on,70,0,120
2,note_on,67,0,0
2,note_on,64,0,0
2,note_on,64,31,120
2,note_on,67,31,0
2,note_on,70,37,0
2,note_on,70,0,120
2,note_on,67,0,0
2,note_on,64,0,0
2,note_on,64,31,120
2,note_on,67,31,0
2,note_on,70,37,0
2,note_on,70,0,120
2,note_on,67,0,0
2,note_on,64,0,0
2,note_on,60,42,120
2,note_on,60,0,120
2,note_on,65,32,120
2,note_on,68,38,0
2,note_on,68,0,120
2,note_on,65,0,0
2,note_on,65,32,120
2,note_on,68,38,0
2,note_on,68,0,120
2,note_on,65,0,0
2,note_on,65,32,120
2,note_on,68,38,0
2,note_on,68,0,120
2,note_on,65,0,0
2,note_on,60,42,120
2,note_on,60,0,120
2,note_on,65,31,120
2,note_on,68,31,0
2,note_on,71,37,0
2,note_on,71,0,120
2,note_on,68,0,0
2,note_on,65,0,0
2,note_on,65,31,120
2,note_on,68,31,0
2,note_on,71,37,0
2,note_on,71,0,120
2,note_on,68,0,0
2,note_on,65,0,0
2,note_on,65,31,120
2,note_on,68,31,0
2,note_on,71,37,0
2,note_on,71,0,120
2,note_on,68,0,0
2,note_on,65,0,0
2,note_on,60,36,120
2,note_on,63,36,0
2,note_on,67,36,0
2,note_on,72,44,7
2,note_on,67,0,473
2,note_on,60,0,0
2,note_on,63,0,0
2,note_on,72,0,7
2,note_on,66,42,233
2,note_on,66,0,240
2,note_on,67,52,0
2,note_on,67,0,480
2,note_on,59,48,240
2,note_on,59,0,240
2,note_on,60,57,0
2,note_on,60,0,480
2,note_on,54,54,240
2,note_on,54,0,240
2,note_on,55,63,0
2,note_on,55,0,480
2,note_on,47,57,240
2,note_on,47,0,240
2,note_on,48,66,0
2,note_on,48,0,480
2,note_on,42,58,240
2,note_on,42,0,240
2,note_on,43,67,0
2,note_on,43,0,480
2,note_on,36,82,0
2,note_on,48,96,0
2,note_on,48,0,240
2,note_on,36,0,0
2,note_on,31,55,240
2,note_on,43,66,0
2,note_on,43,0,240
2,note_on,31,0,0
2,note_on,36,82,240
2,note_on,48,97,0
2,note_on,48,0,240
2,note_on,36,0,0
2,note_on,31,57,240
2,note_on,43,68,0
2,note_on,43,0,240
2,note_on,31,0,0
2,note_on,36,82,240
2,note_on,48,97,0
2,note_on,48,0,240
2,note_on,36,0,0
2,note_on,31,66,240
2,note_on,35,66,0
2,note_on,38,66,0
2,note_on,43,78,0
2,note_on,43,0,960
2,note_on,31,0,0
2,note_on,35,0,0
2,note_on,38,0,0
2,note_on,39,26,960
2,note_on,51,31,0
2,note_on,51,0,960
2,note_on,39,0,0
2,note_on,44,25,0
2,note_on,56,30,0
2,note_on,56,0,120
2,note_on,44,0,0
2,note_on,43,23,360
2,note_on,55,27,0
2,note_on,55,0,120
2,note_on,43,0,0
2,note_on,46,27,360
2,note_on,41,27,0
2,note_on,53,32,0
2,note_on,53,0,960
2,note_on,41,0,0
2,note_on,46,0,0
2,note_on,39,26,960
2,note_on,51,31,0
2,note_on,51,0,960
2,note_on,39,0,0
2,note_on,32,25,0
2,note_on,44,30,0
2,note_on,44,0,120
2,note_on,32,0,0
2,note_on,33,23,360
2,note_on,45,27,0
2,note_on,45,0,120
2,note_on,33,0,0
2,note_on,34,22,360
2,note_on,46,27,0
2,note_on,46,0,960
2,note_on,34,0,0
2,note_on,39,26,960
2,note_on,51,31,0
2,note_on,51,0,960
2,note_on,39,0,0
2,note_on,44,25,0
2,note_on,56,30,0
2,note_on,56,0,120
2,note_on,44,0,0
2,note_on,43,23,360
2,note_on,55,27,0
2,note_on,55,0,120
2,note_on,43,0,0
2,note_on,44,28,255
2,note_on,48,32,15
2,note_on,51,36,15
2,note_on,56,40,15
2,note_on,56,0,540
2,note_on,44,0,0
2,note_on,48,0,0
2,note_on,51,0,0
2,note_on,46,80,1440
2,note_on,34,49,1200
2,note_on,34,0,120
2,note_on,36,53,120
2,note_on,36,0,120
2,note_on,38,45,120
2,note_on,38,0,120
2,note_on,39,53,120
2,note_on,39,0,120
2,note_on,41,49,120
2,note_on,41,0,120
2,note_on,43,51,120
2,note_on,43,0,120
2,note_on,41,53,360
2,note_on,41,0,480
2,note_on,39,50,0
2,note_on,39,0,480
2,note_on,46,0,0
2,note_on,46,80,0
2,note_on,34,49,1200
2,note_on,34,0,120
2,note_on,36,53,120
2,note_on,36,0,120
2,note_on,38,45,120
2,note_on,38,0,120
2,note_on,39,53,120
2,note_on,39,0,120
2,note_on,41,49,120
2,note_on,41,0,120
2,note_on,43,51,120
2,note_on,43,0,120
2,note_on,41,53,360
2,note_on,41,0,480
2,note_on,39,50,0
2,note_on,39,0,480
2,note_on,46,0,0
2,note_on,44,45,0
2,note_on,48,45,0
2,note_on,53,53,0
2,note_on,53,0,480
2,note_on,48,0,0
2,note_on,44,0,0
2,note_on,53,42,480
2,note_on,46,42,0
2,note_on,56,50,0
2,note_on,56,0,480
2,note_on,46,0,0
2,note_on,53,0,0
2,note_on,51,49,480
2,note_on,55,58,0
2,note_on,55,0,480
2,note_on,51,0,0
2,note_on,51,54,240
2,note_on,51,0,240
2,note_on,50,60,0
2,note_on,50,0,240
2,note_on,51,55,0
2,note_on,51,0,240
2,note_on,48,52,0
2,note_on,56,62,0
2,note_on,56,0,120
2,note_on,48,0,0
2,note_on,56,57,120
2,note_on,48,48,0
2,note_on,48,0,120
2,note_on,56,0,0
2,note_on,55,65,120
2,note_on,46,55,0
2,note_on,46,0,480
2,note_on,55,0,0
2,note_on,51,61,240
2,note_on,51,0,240
2,note_on,50,68,0
2,note_on,50,0,240
2,note_on,51,63,0
2,note_on,51,0,240
2,note_on,56,58,0
2,note_on,60,69,0
2,note_on,60,0,120
2,note_on,56,0,0
2,note_on,56,54,120
2,note_on,60,64,0
2,note_on,60,0,120
2,note_on,56,0,0
2,note_on,55,71,120
2,note_on,58,71,0
2,note_on,58,0,240
2,note_on,55,0,0
2,note_on,51,62,0
2,note_on,51,0,120
2,note_on,63,54,0
2,note_on,63,0,120
2,note_on,51,63,0
2,note_on,51,0,120
2,note_on,63,56,0
2,note_on,63,0,120
2,note_on,51,63,0
2,note_on,51,0,120
2,note_on,63,57,0
2,note_on,63,0,120
2,note_on,51,63,0
2,note_on,51,0,120
2,note_on,63,55,0
2,note_on,63,0,120
2,note_on,51,64,0
2,note_on,51,0,120
2,note_on,63,59,0
2,note_on,63,0,120
2,note_on,51,65,0
2,note_on,51,0,120
2,note_on,63,58,0
2,note_on,63,0,120
2,note_on,51,66,0
2,note_on,51,0,120
2,note_on,63,61,0
2,note_on,63,0,120
2,note_on,53,49,0
2,note_on,50,49,0
2,note_on,56,49,0
2,note_on,58,49,0
2,note_on,62,66,27
2,note_on,58,0,1893
2,note_on,56,0,0
2,note_on,53,0,0
2,note_on,50,0,0
2,note_on,55,49,0
2,note_on,51,49,0
2,note_on,63,66,0
2,note_on,58,49,0
2,note_on,62,0,27
2,note_on,63,0,453
2,note_on,55,0,0
2,note_on,51,0,0
2,note_on,58,0,0
2,note_on,44,73,1440
2,note_on,32,73,0
2,note_on,32,0,240
2,note_on,44,0,0
2,note_on,44,63,480
2,note_on,32,63,0
2,note_on,32,0,120
2,note_on,44,0,0
2,note_on,34,70,120
2,note_on,46,70,0
2,note_on,46,0,240
2,note_on,34,0,0
2,note_on,46,63,480
2,note_on,34,63,0
2,note_on,34,0,120
2,note_on,46,0,0
2,note_on,68,63,360
2,note_on,68,0,120
2,note_on,70,65,0
2,note_on,70,0,120
2,note_on,72,69,0
2,note_on,72,0,120
2,note_on,70,67,0
2,note_on,70,0,120
2,note_on,68,65,0
2,note_on,68,0,120
2,note_on,67,64,0
2,note_on,67,0,120
2,note_on,65,67,0
2,note_on,65,0,160
2,note_on,63,61,0
2,note_on,63,0,160
2,note_on,62,61,0
2,note_on,62,0,160
2,note_on,60,67,0
2,note_on,60,0,160
2,note_on,58,62,0
2,note_on,58,0,160
2,note_on,56,62,0
2,note_on,56,0,160
2,note_on,55,67,0
2,note_on,55,0,160
2,note_on,56,63,0
2,note_on,56,0,160
2,note_on,58,63,0
2,note_on,58,0,160
2,note_on,56,67,0
2,note_on,56,0,160
2,note_on,55,60,0
2,note_on,55,0,160
2,note_on,53,60,0
2,note_on,53,0,160
2,note_on,51,70,0
2,note_on,51,0,160
2,note_on,50,63,0
2,note_on,50,0,160
2,note_on,48,66,0
2,note_on,48,0,160
2,note_on,46,74,0
2,note_on,46,0,160
2,note_on,44,67,0
2,note_on,44,0,160
2,note_on,43,67,0
2,note_on,43,0,160
2,note_on,44,73,0
2,note_on,32,73,0
2,note_on,32,0,240
2,note_on,44,0,0
2,note_on,32,63,480
2,note_on,44,63,0
2,note_on,44,0,120
2,note_on,32,0,0
2,note_on,34,70,120
2,note_on,46,70,0
2,note_on,46,0,240
2,note_on,34,0,0
2,note_on,46,63,480
2,note_on,34,63,0
2,note_on,34,0,120
2,note_on,46,0,0
2,note_on,51,70,120
2,note_on,39,59,0
2,note_on,43,59,0
2,note_on,46,59,0
2,note_on,46,0,480
2,note_on,51,0,0
2,note_on,39,0,0
2,note_on,43,0,0
2,note_on,67,63,0
2,note_on,64,53,0
2,note_on,64,0,120
2,note_on,67,0,0
2,note_on,64,53,120
2,note_on,67,63,0
2,note_on,67,0,120
2,note_on,64,0,0
2,note_on,68,70,120
2,note_on,65,59,0
2,note_on,65,0,240
2,note_on,68,0,0
2,note_on,64,53,240
2,note_on,67,63,0
2,note_on,67,0,120
2,note_on,64,0,0
2,note_on,64,53,120
2,note_on,67,63,0
2,note_on,67,0,120
2,note_on,64,0,0
2,note_on,68,70,120
2,note_on,65,59,0
2,note_on,65,0,240
2,note_on,68,0,0
2,note_on,34,63,240
2,note_on,46,74,0
2,note_on,46,0,240
2,note_on,34,0,0
2,note_on,47,36,720
2,note_on,35,30,0
2,note_on,35,0,120
2,note_on,47,0,0
2,note_on,36,32,360
2,note_on,48,38,0
2,note_on,48,0,120
2,note_on,36,0,0
2,note_on,45,36,360
2,note_on,33,30,0
2,note_on,33,0,120
2,note_on,45,0,0
2,note_on,46,38,360
2,note_on,34,32,0
2,note_on,34,0,120
2,note_on,46,0,0
2,note_on,34,27,360
2,note_on,46,33,0
2,note_on,46,0,120
2,note_on,34,0,0
2,note_on,39,32,360
2,note_on,51,38,0
2,note_on,51,0,120
2,note_on,39,0,0
2,note_on,67,63,360
2,note_on,64,53,0
2,note_on,64,0,120
2,note_on,67,0,0
2,note_on,64,53,120
2,note_on,67,63,0
2,note_on,67,0,120
2,note_on,64,0,0
2,note_on,68,70,120
2,note_on,65,59,0
2,note_on,65,0,240
2,note_on,68,0,0
2,note_on,64,53,240
2,note_on,67,63,0
2,note_on,67,0,120
2,note_on,64,0,0
2,note_on,64,53,120
2,note_on,67,63,0
2,note_on,67,0,120
2,note_on,64,0,0
2,note_on,68,70,120
2,note_on,65,59,0
2,note_on,65,0,240
2,note_on,68,0,0
2,note_on,46,74,240
2,note_on,34,63,0
2,note_on,34,0,240
2,note_on,46,0,0
2,note_on,39,55,720
2,note_on,42,55,0
2,note_on,47,65,0
2,note_on,35,55,0
2,note_on,35,0,960
2,note_on,39,0,0
2,note_on,42,0,0
2,note_on,47,0,0
2,note_on,33,30,0
2,note_on,45,36,0
2,note_on,45,0,120
2,note_on,33,0,0
2,note_on,46,38,360
2,note_on,34,32,0
2,note_on,34,0,120
2,note_on,46,0,0
2,note_on,34,27,360
2,note_on,46,33,0
2,note_on,46,0,120
2,note_on,34,0,0
2,note_on,39,32,360
2,note_on,39,0,240
2,note_on,51,27,0
2,note_on,51,0,240
2,note_on,39,32,480
2,note_on,39,0,240
2,note_on,51,28,0
2,note_on,51,0,240
2,note_on,39,32,480
2,note_on,39,0,240
2,note_on,51,28,0
2,note_on,51,0,240
2,note_on,39,32,480
2,note_on,39,0,240
2,note_on,51,27,0
2,note_on,51,0,240
2,note_on,39,32,480
2,note_on,39,0,480
2,note_on,48,36,2160
2,note_on,48,0,240
2,note_on,47,42,0
2,note_on,47,0,240
2,note_on,48,35,0
2,note_on,48,0,240
2,note_on,58,45,0
2,note_on,55,37,0
2,note_on,55,0,120
2,note_on,58,0,0
2,note_on,58,42,120
2,note_on,55,35,0
2,note_on,55,0,120
2,note_on,58,0,0
2,note_on,58,77,120
2,note_on,55,64,0
2,note_on,55,0,1920
2,note_on,58,0,0
2,note_on,58,38,0
2,note_on,56,32,0
2,note_on,56,0,480
2,note_on,58,0,0
2,note_on,46,36,240
2,note_on,46,0,240
2,note_on,45,42,0
2,note_on,45,0,240
2,note_on,46,35,0
2,note_on,46,0,240
2,note_on,58,45,0
2,note_on,56,37,0
2,note_on,56,0,120
2,note_on,58,0,0
2,note_on,58,42,120
2,note_on,56,35,0
2,note_on,56,0,120
2,note_on,58,0,0
2,note_on,58,77,120
2,note_on,56,64,0
2,note_on,56,0,1920
2,note_on,58,0,0
2,note_on,58,38,0
2,note_on,55,32,0
2,note_on,55,0,480
2,note_on,58,0,0
2,note_on,58,33,480
2,note_on,61,39,0
2,note_on,53,33,0
2,note_on,53,0,480
2,note_on,61,0,0
2,note_on,58,0,0
2,note_on,55,34,480
2,note_on,58,34,0
2,note_on,60,40,0
2,note_on,52,34,0
2,note_on,52,0,480
2,note_on,55,0,0
2,note_on,58,0,0
2,note_on,60,0,0
2,note_on,53,43,1440
2,note_on,56,43,0
2,note_on,60,53,0
2,note_on,60,0,480
2,note_on,56,0,0
2,note_on,53,0,0
2,note_on,51,45,480
2,note_on,53,45,0
2,note_on,56,45,0
2,note_on,60,55,0
2,note_on,60,0,480
2,note_on,51,0,0
2,note_on,53,0,0
2,note_on,56,0,0
2,note_on,50,49,480
2,note_on,53,49,0
2,note_on,56,49,0
2,note_on,59,58,0
2,note_on,59,0,480
2,note_on,50,0,0
2,note_on,53,0,0
2,note_on,56,0,0
2,note_on,48,52,480
2,note_on,50,52,0
2,note_on,53,52,0
2,note_on,56,63,0
2,note_on,56,0,480
2,note_on,48,0,0
2,note_on,50,0,0
2,note_on,53,0,0
2,note_on,47,58,480
2,note_on,50,58,0
2,note_on,53,58,0
2,note_on,56,70,0
2,note_on,56,0,480
2,note_on,47,0,0
2,note_on,50,0,0
2,note_on,53,0,0
2,note_on,80,65,720
2,note_on,80,0,216
2,note_on,80,65,24
2,note_on,80,0,216
2,note_on,80,65,24
2,note_on,80,0,216
2,note_on,71,69,24
2,note_on,71,0,960
2,note_on,56,65,240
2,note_on,56,0,216
2,note_on,56,65,24
2,note_on,56,0,216
2,note_on,56,65,24
2,note_on,56,0,216
2,note_on,47,69,24
2,note_on,47,0,240
2,note_on,56,64,0
2,note_on,56,0,216
2,note_on,56,64,24
2,note_on,56,0,216
2,note_on,56,64,24
2,note_on,56,0,240
2,note_on,47,75,0
2,note_on,47,0,240
2,note_on,56,69,0
2,note_on,56,0,216
2,note_on,56,69,24
2,note_on,56,0,216
2,note_on,56,69,24
2,note_on,56,0,216
2,note_on,47,88,24
2,note_on,47,0,700
2,note_on,48,36,20
2,note_on,48,0,240
2,note_on,47,38,0
2,note_on,47,0,240
2,note_on,48,35,0
2,note_on,48,0,240
2,note_on,53,38,0
2,note_on,53,0,120
2,note_on,53,34,120
2,note_on,53,0,120
2,note_on,51,38,120
2,note_on,51,0,480
2,note_on,48,36,240
2,note_on,48,0,240
2,note_on,47,38,0
2,note_on,47,0,240
2,note_on,48,35,0
2,note_on,48,0,240
2,note_on,56,38,0
2,note_on,56,0,120
2,note_on,56,34,120
2,note_on,56,0,120
2,note_on,55,38,120
2,note_on,55,0,480
2,note_on,56,38,1440
2,note_on,60,38,0
2,note_on,66,38,0
2,note_on,66,0,1920
2,note_on,60,0,0
2,note_on,56,0,0
2,note_on,67,38,0
2,note_on,62,32,0
2,note_on,55,32,0
2,note_on,55,0,480
2,note_on,62,0,0
2,note_on,67,0,0
2,note_on,43,36,240
2,note_on,43,0,240
2,note_on,42,38,0
2,note_on,42,0,240
2,note_on,43,35,0
2,note_on,43,0,240
2,note_on,48,38,0
2,note_on,48,0,120
2,note_on,48,34,120
2,note_on,48,0,120
2,note_on,47,38,120
2,note_on,47,0,480
2,note_on,43,36,240
2,note_on,43,0,240
2,note_on,42,38,0
2,note_on,42,0,240
2,note_on,43,35,0
2,note_on,43,0,240
2,note_on,51,38,0
2,note_on,51,0,120
2,note_on,51,34,120
2,note_on,51,0,120
2,note_on,50,38,120
2,note_on,50,0,480
2,note_on,43,37,240
2,note_on,43,0,120
2,note_on,47,43,120
2,note_on,47,0,120
2,note_on,50,37,120
2,note_on,50,0,120
2,note_on,53,37,120
2,note_on,53,0,120
2,note_on,56,37,120
2,note_on,56,0,120
2,note_on,59,46,120
2,note_on,59,0,120
2,note_on,62,45,120
2,note_on,62,0,120
2,note_on,65,47,120
2,note_on,65,0,120
2,note_on,68,50,120
2,note_on,68,0,120
2,note_on,67,53,120
2,note_on,67,0,120
2,note_on,65,50,120
2,note_on,65,0,120
2,note_on,63,46,120
2,note_on,63,0,120
2,note_on,62,45,120
2,note_on,62,0,120
2,note_on,60,42,120
2,note_on,60,0,120
2,note_on,63,32,120
2,note_on,67,38,0
2,note_on,67,0,120
2,note_on,63,0,0
2,note_on,63,32,120
2,note_on,67,38,0
2,note_on,67,0,120
2,note_on,63,0,0
2,note_on,63,32,120
2,note_on,67,38,0
2,note_on,67,0,120
2,note_on,63,0,0
2,note_on,60,42,120
2,note_on,60,0,120
2,note_on,64,31,120
2,note_on,67,31,0
2,note_on,70,37,0
2,note_on,70,0,120
2,note_on,67,0,0
2,note_on,64,0,0
2,note_on,64,31,120
2,note_on,67,31,0
2,note_on,70,37,0
2,note_on,70,0,120
2,note_on,67,0,0
2,note_on,64,0,0
2,note_on,64,31,120
2,note_on,67,31,0
2,note_on,70,37,0
2,note_on,70,0,120
2,note_on,67,0,0
2,note_on,64,0,0
2,note_on,60,42,120
2,note_on,60,0,120
2,note_on,65,32,120
2,note_on,68,38,0
2,note_on,68,0,120
2,note_on,65,0,0
2,note_on,65,32,120
2,note_on,68,38,0
2,note_on,68,0,120
2,note_on,65,0,0
2,note_on,65,32,120
2,note_on,68,38,0
2,note_on,68,0,120
2,note_on,65,0,0
2,note_on,60,42,120
2,note_on,60,0,120
2,note_on,65,31,120
2,note_on,68,31,0
2,note_on,71,37,0
2,note_on,71,0,120
2,note_on,68,0,0
2,note_on,65,0,0
2,note_on,65,31,120
2,note_on,68,31,0
2,note_on,71,37,0
2,note_on,71,0,120
2,note_on,68,0,0
2,note_on,65,0,0
2,note_on,65,31,120
2,note_on,68,31,0
2,note_on,71,37,0
2,note_on,71,0,120
2,note_on,68,0,0
2,note_on,65,0,0
2,note_on,60,42,120
2,note_on,60,0,120
2,note_on,63,32,120
2,note_on,67,38,0
2,note_on,67,0,120
2,note_on,63,0,0
2,note_on,63,32,120
2,note_on,67,38,0
2,note_on,67,0,120
2,note_on,63,0,0
2,note_on,63,32,120
2,note_on,67,38,0
2,note_on,67,0,120
2,note_on,63,0,0
2,note_on,60,42,120
2,note_on,60,0,120
2,note_on,64,31,120
2,note_on,67,31,0
2,note_on,70,37,0
2,note_on,70,0,120
2,note_on,67,0,0
2,note_on,64,0,0
2,note_on,64,31,120
2,note_on,67,31,0
2,note_on,70,37,0
2,note_on,70,0,120
2,note_on,67,0,0
2,note_on,64,0,0
2,note_on,64,31,120
2,note_on,67,31,0
2,note_on,70,37,0
2,note_on,70,0,120
2,note_on,67,0,0
2,note_on,64,0,0
2,note_on,60,42,120
2,note_on,60,0,120
2,note_on,65,32,120
2,note_on,68,38,0
2,note_on,68,0,120
2,note_on,65,0,0
2,note_on,65,32,120
2,note_on,68,38,0
2,note_on,68,0,120
2,note_on,65,0,0
2,note_on,65,32,120
2,note_on,68,38,0
2,note_on,68,0,120
2,note_on,65,0,0
2,note_on,60,42,120
2,note_on,60,0,120
2,note_on,65,31,120
2,note_on,68,31,0
2,note_on,71,37,0
2,note_on,71,0,120
2,note_on,68,0,0
2,note_on,65,0,0
2,note_on,65,31,120
2,note_on,68,31,0
2,note_on,71,37,0
2,note_on,71,0,120
2,note_on,68,0,0
2,note_on,65,0,0
2,note_on,65,31,120
2,note_on,68,31,0
2,note_on,71,37,0
2,note_on,71,0,120
2,note_on,68,0,0
2,note_on,65,0,0
2,note_on,60,36,120
2,note_on,63,36,0
2,note_on,67,36,0
2,note_on,72,44,7
2,note_on,67,0,473
2,note_on,60,0,0
2,note_on,63,0,0
2,note_on,72,0,7
2,note_on,66,42,233
2,note_on,66,0,240
2,note_on,67,52,0
2,note_on,67,0,480
2,note_on,59,48,240
2,note_on,59,0,240
2,note_on,60,57,0
2,note_on,60,0,480
2,note_on,54,54,240
2,note_on,54,0,240
2,note_on,55,63,0
2,note_on,55,0,480
2,note_on,47,57,240
2,note_on,47,0,240
2,note_on,48,66,0
2,note_on,48,0,480
2,note_on,42,58,240
2,note_on,42,0,240
2,note_on,43,67,0
2,note_on,43,0,480
2,note_on,36,82,0
2,note_on,48,96,0
2,note_on,48,0,240
2,note_on,36,0,0
2,note_on,31,55,240
2,note_on,43,66,0
2,note_on,43,0,240
2,note_on,31,0,0
2,note_on,36,82,240
2,note_on,48,97,0
2,note_on,48,0,240
2,note_on,36,0,0
2,note_on,31,57,240
2,note_on,43,68,0
2,note_on,43,0,240
2,note_on,31,0,0
2,note_on,36,82,240
2,note_on,48,97,0
2,note_on,48,0,240
2,note_on,36,0,0
2,note_on,31,66,240
2,note_on,35,66,0
2,note_on,38,66,0
2,note_on,43,78,0
2,note_on,43,0,960
2,note_on,31,0,0
2,note_on,35,0,0
2,note_on,38,0,0
2,note_on,55,26,960
2,note_on,48,26,0
2,note_on,60,31,0
2,note_on,60,0,960
2,note_on,48,0,0
2,note_on,55,0,0
2,note_on,55,25,0
2,note_on,53,25,0
2,note_on,59,30,0
2,note_on,59,0,120
2,note_on,53,0,0
2,note_on,55,0,0
2,note_on,52,23,360
2,note_on,55,23,0
2,note_on,60,27,0
2,note_on,60,0,120
2,note_on,55,0,0
2,note_on,52,0,0
2,note_on,55,27,360
2,note_on,50,27,0
2,note_on,62,32,0
2,note_on,62,0,960
2,note_on,50,0,0
2,note_on,55,0,0
2,note_on,55,26,960
2,note_on,48,26,0
2,note_on,60,31,0
2,note_on,60,0,960
2,note_on,48,0,0
2,note_on,55,0,0
2,note_on,53,25,0
2,note_on,57,30,0
2,note_on,57,0,120
2,note_on,53,0,0
2,note_on,54,23,360
2,note_on,57,27,0
2,note_on,57,0,120
2,note_on,54,0,0
2,note_on,43,22,360
2,note_on,55,27,0
2,note_on,55,0,960
2,note_on,43,0,0
2,note_on,55,26,960
2,note_on,48,26,0
2,note_on,60,31,0
2,note_on,60,0,960
2,note_on,48,0,0
2,note_on,55,0,0
2,note_on,55,25,0
2,note_on,53,25,0
2,note_on,59,30,0
2,note_on,59,0,120
2,note_on,53,0,0
2,note_on,55,0,0
2,note_on,55,23,360
2,note_on,52,23,0
2,note_on,60,27,0
2,note_on,60,0,120
2,note_on,52,0,0
2,note_on,55,0,0
2,note_on,53,28,255
2,note_on,57,32,15
2,note_on,60,36,15
2,note_on,65,40,15
2,note_on,65,0,540
2,note_on,53,0,0
2,note_on,57,0,0
2,note_on,60,0,0
2,note_on,55,80,1440
2,note_on,43,49,1200
2,note_on,43,0,120
2,note_on,45,53,120
2,note_on,45,0,120
2,note_on,47,45,120
2,note_on,47,0,120
2,note_on,48,53,120
2,note_on,48,0,120
2,note_on,50,49,120
2,note_on,50,0,120
2,note_on,52,51,120
2,note_on,52,0,120
2,note_on,50,53,360
2,note_on,50,0,480
2,note_on,48,50,0
2,note_on,48,0,480
2,note_on,55,0,0
2,note_on,55,80,0
2,note_on,43,49,1200
2,note_on,43,0,120
2,note_on,45,53,120
2,note_on,45,0,120
2,note_on,47,45,120
2,note_on,47,0,120
2,note_on,48,53,120
2,note_on,48,0,120
2,note_on,50,49,120
2,note_on,50,0,120
2,note_on,51,51,120
2,note_on,51,0,120
2,note_on,50,53,360
2,note_on,50,0,480
2,note_on,48,50,0
2,note_on,48,0,480
2,note_on,55,0,0
2,note_on,50,45,0
2,note_on,53,53,0
2,note_on,41,45,0
2,note_on,44,45,0
2,note_on,44,0,480
2,note_on,50,0,0
2,note_on,53,0,0
2,note_on,41,0,0
2,note_on,47,42,480
2,note_on,43,42,0
2,note_on,50,42,0
2,note_on,53,50,0
2,note_on,53,0,480
2,note_on,47,0,0
2,note_on,43,0,0
2,note_on,50,0,0
2,note_on,51,58,480
2,note_on,48,49,0
2,note_on,48,0,240
2,note_on,51,0,0
2,note_on,55,48,0
2,note_on,55,0,120
2,note_on,55,48,120
2,note_on,55,0,120
2,note_on,55,48,120
2,note_on,55,0,120
2,note_on,55,54,120
2,note_on,55,0,240
2,note_on,55,47,0
2,note_on,55,0,120
2,note_on,47,47,120
2,note_on,47,0,120
2,note_on,55,47,120
2,note_on,55,0,120
2,note_on,48,63,120
2,note_on,48,0,240
2,note_on,55,52,0
2,note_on,55,0,120
2,note_on,55,52,120
2,note_on,55,0,120
2,note_on,55,52,120
2,note_on,55,0,120
2,note_on,55,59,120
2,note_on,55,0,240
2,note_on,55,52,0
2,note_on,55,0,120
2,note_on,47,52,120
2,note_on,47,0,120
2,note_on,55,52,120
2,note_on,55,0,120
2,note_on,48,69,120
2,note_on,48,0,240
2,note_on,55,55,0
2,note_on,55,0,120
2,note_on,55,55,120
2,note_on,55,0,120
2,note_on,55,55,120
2,note_on,55,0,120
2,note_on,55,71,120
2,note_on,55,0,240
2,note_on,55,62,0
2,note_on,55,0,120
2,note_on,47,57,120
2,note_on,50,57,0
2,note_on,53,57,0
2,note_on,55,68,0
2,note_on,55,0,120
2,note_on,47,0,0
2,note_on,50,0,0
2,note_on,53,0,0
2,note_on,47,58,120
2,note_on,50,58,0
2,note_on,53,58,0
2,note_on,55,69,0
2,note_on,55,0,120
2,note_on,47,0,0
2,note_on,50,0,0
2,note_on,53,0,0
2,note_on,55,72,120
2,note_on,47,53,0
2,note_on,50,53,0
2,note_on,53,53,0
2,note_on,53,0,1920
2,note_on,55,0,0
2,note_on,47,0,0
2,note_on,50,0,0
2,note_on,48,49,0
2,note_on,51,49,0
2,note_on,55,66,0
2,note_on,55,0,480
2,note_on,51,0,0
2,note_on,48,0,0
2,note_on,41,73,1440
2,note_on,41,0,240
2,note_on,53,63,480
2,note_on,53,0,120
2,note_on,43,70,120
2,note_on,43,0,240
2,note_on,55,63,480
2,note_on,55,0,120
2,note_on,65,63,360
2,note_on,65,0,120
2,note_on,67,65,0
2,note_on,67,0,120
2,note_on,68,69,0
2,note_on,68,0,120
2,note_on,67,67,0
2,note_on,67,0,120
2,note_on,65,65,0
2,note_on,65,0,120
2,note_on,63,64,0
2,note_on,63,0,120
2,note_on,62,67,0
2,note_on,62,0,160
2,note_on,60,61,0
2,note_on,60,0,160
2,note_on,59,61,0
2,note_on,59,0,160
2,note_on,56,67,0
2,note_on,56,0,160
2,note_on,55,62,0
2,note_on,55,0,160
2,note_on,53,62,0
2,note_on,53,0,160
2,note_on,51,67,0
2,note_on,51,0,160
2,note_on,53,63,0
2,note_on,53,0,160
2,note_on,55,63,0
2,note_on,55,0,160
2,note_on,53,67,0
2,note_on,53,0,160
2,note_on,51,60,0
2,note_on,51,0,160
2,note_on,50,60,0
2,note_on,50,0,160
2,note_on,48,70,0
2,note_on,48,0,160
2,note_on,46,63,0
2,note_on,46,0,160
2,note_on,44,66,0
2,note_on,44,0,160
2,note_on,43,74,0
2,note_on,43,0,160
2,note_on,41,67,0
2,note_on,41,0,160
2,note_on,39,67,0
2,note_on,39,0,160
2,note_on,29,73,0
2,note_on,41,73,0
2,note_on,41,0,240
2,note_on,29,0,0
2,note_on,29,63,480
2,note_on,41,63,0
2,note_on,41,0,120
2,note_on,29,0,0
2,note_on,31,70,120
2,note_on,43,70,0
2,note_on,43,0,240
2,note_on,31,0,0
2,note_on,31,63,480
2,note_on,43,63,0
2,note_on,43,0,120
2,note_on,31,0,0
2,note_on,36,59,120
2,note_on,39,59,0
2,note_on,43,59,0
2,note_on,48,70,0
2,note_on,48,0,480
2,note_on,36,0,0
2,note_on,39,0,0
2,note_on,43,0,0
2,note_on,61,53,0
2,note_on,64,63,0
2,note_on,64,0,120
2,note_on,61,0,0
2,note_on,61,53,120
2,note_on,64,63,0
2,note_on,64,0,120
2,note_on,61,0,0
2,note_on,62,59,120
2,note_on,65,70,0
2,note_on,65,0,240
2,note_on,62,0,0
2,note_on,61,53,240
2,note_on,64,63,0
2,note_on,64,0,120
2,note_on,61,0,0
2,note_on,61,53,120
2,note_on,64,63,0
2,note_on,64,0,120
2,note_on,61,0,0
2,note_on,62,59,120
2,note_on,65,70,0
2,note_on,65,0,240
2,note_on,62,0,0
2,note_on,31,63,240
2,note_on,43,74,0
2,note_on,43,0,240
2,note_on,31,0,0
2,note_on,31,30,720
2,note_on,43,36,0
2,note_on,43,0,120
2,note_on,31,0,0
2,note_on,32,32,360
2,note_on,44,38,0
2,note_on,44,0,120
2,note_on,32,0,0
2,note_on,30,30,360
2,note_on,42,36,0
2,note_on,42,0,120
2,note_on,30,0,0
2,note_on,31,32,360
2,note_on,43,38,0
2,note_on,43,0,120
2,note_on,31,0,0
2,note_on,31,27,360
2,note_on,43,33,0
2,note_on,43,0,120
2,note_on,31,0,0
2,note_on,36,32,360
2,note_on,48,38,0
2,note_on,48,0,120
2,note_on,36,0,0
2,note_on,61,53,360
2,note_on,64,63,0
2,note_on,64,0,120
2,note_on,61,0,0
2,note_on,61,53,120
2,note_on,64,63,0
2,note_on,64,0,120
2,note_on,61,0,0
2,note_on,62,59,120
2,note_on,65,70,0
2,note_on,65,0,240
2,note_on,62,0,0
2,note_on,61,53,240
2,note_on,64,63,0
2,note_on,64,0,120
2,note_on,61,0,0
2,note_on,64,53,120
2,note_on,61,63,0
2,note_on,61,0,120
2,note_on,64,0,0
2,note_on,62,59,120
2,note_on,65,70,0
2,note_on,65,0,240
2,note_on,62,0,0
2,note_on,31,63,240
2,note_on,43,74,0
2,note_on,43,0,240
2,note_on,31,0,0
2,note_on,32,55,720
2,note_on,36,55,0
2,note_on,39,55,0
2,note_on,44,65,0
2,note_on,44,0,960
2,note_on,32,0,0
2,note_on,36,0,0
2,note_on,39,0,0
2,note_on,30,30,0
2,note_on,42,36,0
2,note_on,42,0,120
2,note_on,30,0,0
2,note_on,31,32,360
2,note_on,43,38,0
2,note_on,43,0,120
2,note_on,31,0,0
2,note_on,31,27,360
2,note_on,43,33,0
2,note_on,43,0,120
2,note_on,31,0,0
2,note_on,36,32,360
2,note_on,36,0,240
2,note_on,48,27,0
2,note_on,48,0,240
2,note_on,36,32,480
2,note_on,36,0,240
2,note_on,48,28,0
2,note_on,48,0,240
2,note_on,36,32,480
2,note_on,36,0,240
2,note_on,48,28,0
2,note_on,48,0,240
2,note_on,36,32,480
2,note_on,36,0,240
2,note_on,48,27,0
2,note_on,48,0,240
2,note_on,32,36,480
2,note_on,32,0,240
2,note_on,44,32,0
2,note_on,44,0,240
2,note_on,32,42,480
2,note_on,32,0,240
2,note_on,44,38,0
2,note_on,44,0,240
2,note_on,32,55,480
2,note_on,32,0,240
2,note_on,44,51,0
2,note_on,44,0,240
2,note_on,32,64,480
2,note_on,32,0,240
2,note_on,44,56,0
2,note_on,44,0,240
2,note_on,32,65,480
2,note_on,44,70,0
2,note_on,44,0,4800
2,note_on,32,0,0
2,note_on,37,21,960
2,note_on,49,26,0
2,note_on,49,0,960
2,note_on,37,0,0
2,note_on,42,20,0
2,note_on,48,25,0
2,note_on,48,0,120
2,note_on,42,0,0
2,note_on,41,19,360
2,note_on,49,23,0
2,note_on,49,0,120
2,note_on,41,0,0
2,note_on,44,22,360
2,note_on,51,27,0
2,note_on,51,0,1200
2,note_on,44,0,0
2,note_on,37,21,720
2,note_on,49,26,0
2,note_on,49,0,960
2,note_on,37,0,0
2,note_on,30,20,0
2,note_on,42,25,0
2,note_on,42,0,120
2,note_on,30,0,0
2,note_on,31,19,360
2,note_on,43,23,0
2,note_on,43,0,120
2,note_on,31,0,0
2,note_on,32,18,360
2,note_on,44,22,0
2,note_on,44,0,960
2,note_on,32,0,0
2,note_on,37,21,960
2,note_on,49,26,0
2,note_on,49,0,960
2,note_on,37,0,0
2,note_on,42,20,0
2,note_on,48,25,0
2,note_on,48,0,120
2,note_on,42,0,0
2,note_on,41,19,360
2,note_on,49,23,0
2,note_on,49,0,120
2,note_on,41,0,0
2,note_on,44,24,360
2,note_on,48,24,0
2,note_on,51,28,0
2,note_on,51,0,1920
2,note_on,48,0,0
2,note_on,44,0,0
2,note_on,33,30,0
2,note_on,33,0,80
2,note_on,36,32,0
2,note_on,39,33,80
2,note_on,36,0,0
2,note_on,39,0,80
2,note_on,42,34,0
2,note_on,45,36,79
2,note_on,42,0,1
2,note_on,48,37,105
2,note_on,51,39,107
2,note_on,45,0,2342
2,note_on,51,0,6
2,note_on,48,0,0
2,note_on,31,60,0
2,note_on,31,0,107
2,note_on,36,61,0
2,note_on,36,0,106
2,note_on,39,62,0
2,note_on,43,63,106
2,note_on,39,0,1
2,note_on,43,0,106
2,note_on,48,63,0
2,note_on,48,0,106
2,note_on,51,64,0
2,note_on,51,0,107
2,note_on,51,70,1281
2,note_on,51,0,120
2,note_on,48,57,120
2,note_on,48,0,120
2,note_on,31,42,120
2,note_on,43,42,0
2,note_on,47,63,0
2,note_on,47,0,120
2,note_on,50,53,120
2,note_on,50,0,120
2,note_on,43,0,120
2,note_on,31,0,0
2,note_on,48,43,0
2,note_on,36,64,0
2,note_on,36,0,120
2,note_on,48,0,120
2,note_on,48,38,0
2,note_on,48,0,120
2,note_on,48,38,120
2,note_on,48,0,120
2,note_on,48,38,120
2,note_on,48,0,120
2,note_on,48,41,120
2,note_on,48,0,120
2,note_on,58,37,120
2,note_on,55,31,0
2,note_on,55,0,120
2,note_on,58,0,0
2,note_on,58,37,120
2,note_on,55,31,0
2,note_on,55,0,120
2,note_on,58,0,0
2,note_on,58,37,120
2,note_on,55,31,0
2,note_on,55,0,120
2,note_on,58,0,0
2,note_on,48,43,120
2,note_on,48,0,120
2,note_on,53,31,120
2,note_on,56,36,0
2,note_on,56,0,120
2,note_on,53,0,0
2,note_on,53,31,120
2,note_on,56,36,0
2,note_on,56,0,120
2,note_on,53,0,0
2,note_on,53,31,120
2,note_on,56,36,0
2,note_on,56,0,120
2,note_on,53,0,0
2,note_on,48,41,120
2,note_on,48,0,120
2,note_on,59,36,120
2,note_on,56,31,0
2,note_on,53,31,0
2,note_on,53,0,120
2,note_on,56,0,0
2,note_on,59,0,0
2,note_on,59,36,120
2,note_on,56,31,0
2,note_on,53,31,0
2,note_on,53,0,120
2,note_on,56,0,0
2,note_on,59,0,0
2,note_on,59,36,120
2,note_on,56,31,0
2,note_on,53,31,0
2,note_on,53,0,120
2,note_on,56,0,0
2,note_on,59,0,0
2,note_on,48,43,120
2,note_on,48,0,240
2,note_on,52,32,0
2,note_on,55,32,0
2,note_on,60,38,0
2,note_on,60,0,120
2,note_on,55,0,0
2,note_on,52,0,0
2,note_on,52,32,120
2,note_on,55,32,0
2,note_on,60,38,0
2,note_on,60,0,120
2,note_on,55,0,0
2,note_on,52,0,0
2,note_on,52,32,120
2,note_on,55,32,0
2,note_on,60,38,0
2,note_on,60,0,120
2,note_on,55,0,0
2,note_on,52,0,0
2,note_on,48,41,120
2,note_on,48,0,120
2,note_on,58,37,120
2,note_on,55,31,0
2,note_on,55,0,120
2,note_on,58,0,0
2,note_on,58,37,120
2,note_on,55,31,0
2,note_on,55,0,120
2,note_on,58,0,0
2,note_on,58,37,120
2,note_on,55,31,0
2,note_on,55,0,120
2,note_on,58,0,0
2,note_on,48,43,120
2,note_on,48,0,120
2,note_on,53,31,120
2,note_on,56,36,0
2,note_on,56,0,120
2,note_on,53,0,0
2,note_on,53,31,120
2,note_on,56,36,0
2,note_on,56,0,120
2,note_on,53,0,0
2,note_on,53,31,120
2,note_on,56,36,0
2,note_on,56,0,120
2,note_on,53,0,0
2,note_on,48,41,120
2,note_on,48,0,120
2,note_on,59,36,120
2,note_on,56,31,0
2,note_on,53,31,0
2,note_on,53,0,120
2,note_on,56,0,0
2,note_on,59,0,0
2,note_on,59,36,120
2,note_on,56,31,0
2,note_on,53,31,0
2,note_on,53,0,120
2,note_on,56,0,0
2,note_on,59,0,0
2,note_on,59,36,120
2,note_on,56,31,0
2,note_on,53,31,0
2,note_on,53,0,120
2,note_on,56,0,0
2,note_on,59,0,0
2,note_on,48,43,120
2,note_on,48,0,240
2,note_on,52,32,0
2,note_on,55,32,0
2,note_on,60,38,0
2,note_on,60,0,120
2,note_on,55,0,0
2,note_on,52,0,0
2,note_on,52,32,120
2,note_on,55,32,0
2,note_on,60,38,0
2,note_on,60,0,120
2,note_on,55,0,0
2,note_on,52,0,0
2,note_on,52,32,120
2,note_on,55,32,0
2,note_on,60,38,0
2,note_on,60,0,120
2,note_on,55,0,0
2,note_on,52,0,0
2,note_on,48,40,120
2,note_on,48,0,120
2,note_on,59,36,120
2,note_on,56,30,0
2,note_on,53,30,0
2,note_on,53,0,120
2,note_on,56,0,0
2,note_on,59,0,0
2,note_on,59,35,120
2,note_on,56,29,0
2,note_on,53,29,0
2,note_on,53,0,120
2,note_on,56,0,0
2,note_on,59,0,0
2,note_on,59,34,120
2,note_on,56,29,0
2,note_on,53,29,0
2,note_on,53,0,120
2,note_on,56,0,0
2,note_on,59,0,0
2,note_on,48,40,120
2,note_on,48,0,240
2,note_on,52,29,0
2,note_on,55,29,0
2,note_on,60,35,0
2,note_on,60,0,120
2,note_on,55,0,0
2,note_on,52,0,0
2,note_on,52,29,120
2,note_on,55,29,0
2,note_on,60,35,0
2,note_on,60,0,120
2,note_on,55,0,0
2,note_on,52,0,0
2,note_on,52,28,120
2,note_on,55,28,0
2,note_on,60,34,0
2,note_on,60,0,120
2,note_on,55,0,0
2,note_on,52,0,0
2,note_on,48,36,120
2,note_on,48,0,120
2,note_on,59,32,120
2,note_on,56,27,0
2,note_on,53,27,0
2,note_on,53,0,120
2,note_on,56,0,0
2,note_on,59,0,0
2,note_on,59,31,120
2,note_on,56,27,0
2,note_on,53,27,0
2,note_on,53,0,120
2,note_on,56,0,0
2,note_on,59,0,0
2,note_on,59,30,120
2,note_on,56,26,0
2,note_on,53,26,0
2,note_on,53,0,120
2,note_on,56,0,0
2,note_on,59,0,0
2,note_on,48,32,120
2,note_on,48,0,240
2,note_on,52,23,0
2,note_on,55,23,0
2,note_on,60,27,0
2,note_on,60,0,120
2,note_on,55,0,0
2,note_on,52,0,0
2,note_on,52,23,120
2,note_on,55,23,0
2,note_on,60,27,0
2,note_on,60,0,120
2,note_on,55,0,0
2,note_on,52,0,0
2,note_on,52,22,120
2,note_on,55,22,0
2,note_on,60,27,0
2,note_on,60,0,120
2,note_on,55,0,0
2,note_on,52,0,0
2,note_on,48,32,120
2,note_on,48,0,240
2,note_on,52,22,0
2,note_on,55,22,0
2,note_on,60,26,0
2,note_on,60,0,120
2,note_on,55,0,0
2,note_on,52,0,0
2,note_on,52,21,120
2,note_on,55,21,0
2,note_on,60,26,0
2,note_on,60,0,120
2,note_on,55,0,0
2,note_on,52,0,0
2,note_on,52,21,120
2,note_on,55,21,0
2,note_on,60,25,0
2,note_on,60,0,120
2,note_on,55,0,0
2,note_on,52,0,0
2,note_on,48,20,120
2,note_on,52,20,0
2,note_on,55,24,0
2,note_on,55,0,480
2,note_on,52,0,0
2,note_on,48,0,0
