Track,Message Type,Note,Velocity,Time
1,note_on,63,69,0
1,note_on,67,69,0
1,note_on,72,82,0
1,note_on,72,0,720
1,note_on,67,0,0
1,note_on,63,0,0
1,note_on,67,70,120
1,note_on,67,0,120
1,note_on,75,78,0
1,note_on,75,0,360
1,note_on,72,70,0
1,note_on,72,0,120
1,note_on,79,79,0
1,note_on,79,0,360
1,note_on,75,70,0
1,note_on,75,0,120
1,note_on,84,79,0
1,note_on,84,0,360
1,note_on,79,70,0
1,note_on,79,0,120
1,note_on,87,84,0
1,note_on,87,0,120
1,note_on,87,84,360
1,note_on,87,0,120
1,note_on,67,39,840
1,note_on,72,46,0
1,note_on,72,0,240
1,note_on,67,0,0
1,note_on,67,42,240
1,note_on,72,50,0
1,note_on,72,0,960
1,note_on,67,0,0
1,note_on,67,39,0
1,note_on,71,46,10
1,note_on,67,0,460
1,note_on,71,0,10
1,note_on,68,69,0
1,note_on,65,69,0
1,note_on,71,82,0
1,note_on,71,0,720
1,note_on,65,0,0
1,note_on,68,0,0
1,note_on,71,70,120
1,note_on,71,0,120
1,note_on,77,78,0
1,note_on,77,0,360
1,note_on,74,70,0
1,note_on,74,0,120
1,note_on,83,79,0
1,note_on,83,0,360
1,note_on,77,70,0
1,note_on,77,0,120
1,note_on,86,79,0
1,note_on,86,0,360
1,note_on,83,70,0
1,note_on,83,0,120
1,note_on,89,84,0
1,note_on,89,0,120
1,note_on,89,84,360
1,note_on,89,0,120
1,note_on,71,39,840
1,note_on,74,46,0
1,note_on,74,0,240
1,note_on,71,0,0
1,note_on,71,42,240
1,note_on,74,50,0
1,note_on,74,0,960
1,note_on,71,0,0
1,note_on,72,46,0
1,note_on,72,0,360
1,note_on,72,45,0
1,note_on,72,0,60
1,note_on,75,48,0
1,note_on,75,0,60
1,note_on,79,53,0
1,note_on,79,0,720
1,note_on,77,41,0
1,note_on,77,0,240
1,note_on,75,51,0
1,note_on,75,0,480
1,note_on,74,47,0
1,note_on,74,0,960
1,note_on,72,39,0
1,note_on,72,0,360
1,note_on,67,27,0
1,note_on,67,0,40
1,note_on,72,45,0
1,note_on,72,0,40
1,note_on,75,48,0
1,note_on,75,0,40
1,note_on,79,53,0
1,note_on,79,0,720
1,note_on,77,41,0
1,note_on,77,0,240
1,note_on,72,43,0
1,note_on,75,51,0
1,note_on,75,0,480
1,note_on,72,0,0
1,note_on,71,39,0
1,note_on,74,47,0
1,note_on,74,0,960
1,note_on,71,0,0
1,note_on,72,39,0
1,note_on,72,0,360
1,note_on,67,60,0
1,note_on,67,0,40
1,note_on,72,63,0
1,note_on,72,0,40
1,note_on,75,69,0
1,note_on,75,0,40
1,note_on,67,69,0
1,note_on,79,81,0
1,note_on,79,0,720
1,note_on,67,0,0
1,note_on,77,61,0
1,note_on,65,51,0
1,note_on,65,0,240
1,note_on,77,0,0
1,note_on,75,73,0
1,note_on,63,62,0
1,note_on,63,0,960
1,note_on,75,0,0
1,note_on,74,72,0
1,note_on,62,61,0
1,note_on,62,0,120
1,note_on,74,0,0
1,note_on,72,75,360
1,note_on,60,63,0
1,note_on,60,0,960
1,note_on,72,0,0
1,note_on,59,63,0
1,note_on,71,75,0
1,note_on,71,0,120
1,note_on,59,0,0
1,note_on,56,62,360
1,note_on,68,74,0
1,note_on,68,0,960
1,note_on,56,0,0
1,note_on,55,57,0
1,note_on,67,67,0
1,note_on,67,0,240
1,note_on,55,0,0
1,note_on,59,42,1200
1,note_on,59,0,160
1,note_on,62,35,0
1,note_on,62,0,160
1,note_on,65,35,0
1,note_on,65,0,160
1,note_on,68,43,0
1,note_on,68,0,160
1,note_on,67,36,0
1,note_on,67,0,160
1,note_on,65,36,0
1,note_on,65,0,160
1,note_on,63,43,0
1,note_on,63,0,120
1,note_on,53,42,1800
1,note_on,53,0,160
1,note_on,56,35,0
1,note_on,56,0,160
1,note_on,62,35,0
1,note_on,62,0,160
1,note_on,65,43,0
1,note_on,65,0,160
1,note_on,63,36,0
1,note_on,63,0,160
1,note_on,62,36,0
1,note_on,62,0,160
1,note_on,60,43,0
1,note_on,60,0,120
1,note_on,55,66,1800
1,note_on,55,0,160
1,note_on,59,69,0
1,note_on,59,0,160
1,note_on,62,72,0
1,note_on,62,0,160
1,note_on,65,75,0
1,note_on,65,0,160
1,note_on,62,67,0
1,note_on,62,0,160
1,note_on,59,67,0
1,note_on,59,0,160
1,note_on,55,79,0
1,note_on,51,79,0
1,note_on,60,94,0
1,note_on,60,0,720
1,note_on,51,0,0
1,note_on,55,0,0
1,note_on,60,70,120
1,note_on,60,0,120
1,note_on,67,78,0
1,note_on,67,0,360
1,note_on,63,70,0
1,note_on,63,0,120
1,note_on,72,85,0
1,note_on,72,0,360
1,note_on,67,72,0
1,note_on,67,0,120
1,note_on,75,80,0
1,note_on,75,0,360
1,note_on,72,83,0
1,note_on,72,0,120
1,note_on,79,96,0
1,note_on,67,81,0
1,note_on,67,0,120
1,note_on,79,0,0
1,note_on,79,96,360
1,note_on,67,81,0
1,note_on,67,0,120
1,note_on,79,0,0
1,note_on,59,70,720
1,note_on,59,0,120
1,note_on,67,78,0
1,note_on,67,0,360
1,note_on,62,70,0
1,note_on,62,0,120
1,note_on,71,85,0
1,note_on,71,0,360
1,note_on,67,74,0
1,note_on,67,0,120
1,note_on,74,86,0
1,note_on,74,0,360
1,note_on,71,83,0
1,note_on,71,0,120
1,note_on,79,96,0
1,note_on,67,81,0
1,note_on,67,0,120
1,note_on,79,0,0
1,note_on,79,96,360
1,note_on,67,81,0
1,note_on,67,0,120
1,note_on,79,0,0
1,note_on,63,70,720
1,note_on,63,0,120
1,note_on,67,78,0
1,note_on,67,0,360
1,note_on,63,70,0
1,note_on,63,0,120
1,note_on,72,85,0
1,note_on,72,0,360
1,note_on,67,74,0
1,note_on,67,0,120
1,note_on,75,86,0
1,note_on,75,0,360
1,note_on,72,83,0
1,note_on,72,0,120
1,note_on,79,90,0
1,note_on,79,0,360
1,note_on,75,83,0
1,note_on,75,0,120
1,note_on,74,96,0
1,note_on,74,0,120
1,note_on,89,96,360
1,note_on,89,0,120
1,note_on,71,96,840
1,note_on,71,0,120
1,note_on,86,96,360
1,note_on,86,0,120
1,note_on,72,96,840
1,note_on,72,0,120
1,note_on,84,96,360
1,note_on,84,0,120
1,note_on,67,50,4200
1,note_on,75,45,480
1,note_on,75,0,480
1,note_on,67,0,0
1,note_on,68,42,0
1,note_on,75,50,0
1,note_on,75,0,960
1,note_on,75,45,0
1,note_on,68,0,480
1,note_on,67,42,0
1,note_on,75,0,480
1,note_on,77,45,0
1,note_on,77,0,480
1,note_on,73,44,0
1,note_on,67,0,480
1,note_on,68,42,0
1,note_on,73,0,480
1,note_on,71,45,0
1,note_on,71,0,480
1,note_on,72,45,0
1,note_on,72,0,480
1,note_on,68,0,0
1,note_on,76,50,480
1,note_on,84,45,480
1,note_on,84,0,480
1,note_on,76,0,0
1,note_on,77,42,0
1,note_on,84,50,0
1,note_on,84,0,960
1,note_on,84,45,0
1,note_on,77,0,480
1,note_on,76,42,0
1,note_on,84,0,480
1,note_on,85,45,0
1,note_on,85,0,480
1,note_on,82,44,0
1,note_on,76,0,480
1,note_on,72,42,0
1,note_on,82,0,480
1,note_on,79,45,0
1,note_on,79,0,480
1,note_on,80,45,0
1,note_on,80,0,480
1,note_on,72,0,0
1,note_on,72,50,480
1,note_on,80,45,480
1,note_on,80,0,480
1,note_on,72,0,0
1,note_on,73,42,0
1,note_on,80,50,0
1,note_on,80,0,960
1,note_on,80,45,0
1,note_on,73,0,480
1,note_on,72,42,0
1,note_on,80,0,480
1,note_on,82,45,0
1,note_on,82,0,480
1,note_on,78,44,0
1,note_on,72,0,480
1,note_on,68,49,0
1,note_on,78,0,480
1,note_on,76,52,0
1,note_on,76,0,480
1,note_on,77,52,0
1,note_on,68,0,480
1,note_on,69,50,0
1,note_on,77,0,480
1,note_on,78,55,0
1,note_on,78,0,480
1,note_on,75,50,0
1,note_on,69,0,480
1,note_on,65,42,0
1,note_on,75,0,480
1,note_on,75,45,0
1,note_on,75,0,480
1,note_on,74,45,0
1,note_on,65,0,480
1,note_on,66,42,0
1,note_on,74,0,480
1,note_on,75,45,0
1,note_on,75,0,480
1,note_on,66,0,0
1,note_on,63,28,0
1,note_on,66,33,0
1,note_on,66,0,480
1,note_on,63,0,0
1,note_on,62,32,0
1,note_on,65,38,0
1,note_on,65,0,480
1,note_on,62,0,0
1,note_on,72,38,1440
1,note_on,72,0,240
1,note_on,72,38,240
1,note_on,72,0,240
1,note_on,72,46,240
1,note_on,72,0,480
1,note_on,70,38,0
1,note_on,70,0,480
1,note_on,68,38,960
1,note_on,68,0,240
1,note_on,68,38,240
1,note_on,68,0,240
1,note_on,68,43,240
1,note_on,68,0,480
1,note_on,67,38,0
1,note_on,67,0,480
1,note_on,72,37,720
1,note_on,72,0,240
1,note_on,71,38,0
1,note_on,71,0,240
1,note_on,72,34,0
1,note_on,72,0,240
1,note_on,74,43,0
1,note_on,74,0,240
1,note_on,72,38,0
1,note_on,72,0,240
1,note_on,70,36,240
1,note_on,70,0,240
1,note_on,69,38,0
1,note_on,69,0,240
1,note_on,70,36,0
1,note_on,70,0,240
1,note_on,72,44,0
1,note_on,72,0,240
1,note_on,70,38,0
1,note_on,70,0,240
1,note_on,68,36,240
1,note_on,68,0,240
1,note_on,67,38,0
1,note_on,67,0,240
1,note_on,68,35,0
1,note_on,68,0,240
1,note_on,70,44,0
1,note_on,70,0,240
1,note_on,68,37,0
1,note_on,68,0,240
1,note_on,67,46,0
1,note_on,67,0,2160
1,note_on,70,56,0
1,note_on,70,0,240
1,note_on,75,62,0
1,note_on,75,0,470
1,note_on,75,63,10
1,note_on,75,0,1440
1,note_on,74,57,0
1,note_on,74,0,480
1,note_on,70,51,960
1,note_on,70,0,1440
1,note_on,70,61,0
1,note_on,70,0,240
1,note_on,72,57,0
1,note_on,72,0,80
1,note_on,70,52,0
1,note_on,70,0,80
1,note_on,69,52,0
1,note_on,69,0,80
1,note_on,70,61,0
1,note_on,70,0,240
1,note_on,77,65,0
1,note_on,77,0,240
1,note_on,80,73,0
1,note_on,80,0,480
1,note_on,80,74,0
1,note_on,80,0,1440
1,note_on,79,69,0
1,note_on,79,0,480
1,note_on,67,56,960
1,note_on,67,0,120
1,note_on,68,58,120
1,note_on,68,0,120
1,note_on,70,60,120
1,note_on,70,0,120
1,note_on,72,62,120
1,note_on,72,0,120
1,note_on,74,64,120
1,note_on,74,0,120
1,note_on,75,65,120
1,note_on,75,0,120
1,note_on,77,70,120
1,note_on,77,0,120
1,note_on,79,73,120
1,note_on,79,0,120
1,note_on,80,76,120
1,note_on,80,0,120
1,note_on,82,78,120
1,note_on,82,0,120
1,note_on,84,81,120
1,note_on,84,0,120
1,note_on,86,84,120
1,note_on,86,0,120
1,note_on,87,91,120
1,note_on,87,0,1440
1,note_on,86,71,0
1,note_on,86,0,480
1,note_on,58,56,960
1,note_on,58,0,120
1,note_on,60,58,120
1,note_on,60,0,120
1,note_on,62,60,120
1,note_on,62,0,120
1,note_on,63,62,120
1,note_on,63,0,120
1,note_on,65,64,120
1,note_on,65,0,120
1,note_on,67,65,120
1,note_on,67,0,120
1,note_on,68,67,120
1,note_on,68,0,120
1,note_on,70,72,120
1,note_on,70,0,120
1,note_on,72,74,120
1,note_on,72,0,120
1,note_on,74,76,120
1,note_on,74,0,120
1,note_on,75,78,120
1,note_on,75,0,120
1,note_on,77,80,120
1,note_on,77,0,120
1,note_on,79,94,120
1,note_on,79,0,1440
1,note_on,87,100,0
1,note_on,87,0,960
1,note_on,55,77,0
1,note_on,55,0,480
1,note_on,56,82,0
1,note_on,56,0,1440
1,note_on,57,84,0
1,note_on,57,0,1440
1,note_on,58,84,0
1,note_on,58,0,1440
1,note_on,56,84,0
1,note_on,56,0,120
1,note_on,58,57,0
1,note_on,58,0,120
1,note_on,56,61,0
1,note_on,56,0,80
1,note_on,58,57,0
1,note_on,58,0,80
1,note_on,56,64,0
1,note_on,56,0,80
1,note_on,58,56,0
1,note_on,58,0,80
1,note_on,56,64,0
1,note_on,56,0,80
1,note_on,58,56,0
1,note_on,58,0,80
1,note_on,56,64,0
1,note_on,56,0,80
1,note_on,58,55,0
1,note_on,58,0,80
1,note_on,56,64,0
1,note_on,56,0,80
1,note_on,58,54,0
1,note_on,58,0,120
1,note_on,56,59,0
1,note_on,56,0,120
1,note_on,55,55,0
1,note_on,55,0,120
1,note_on,56,57,0
1,note_on,56,0,120
1,note_on,55,74,0
1,note_on,55,0,240
1,note_on,58,60,0
1,note_on,58,0,240
1,note_on,63,68,0
1,note_on,63,0,240
1,note_on,58,61,0
1,note_on,58,0,240
1,note_on,63,69,0
1,note_on,63,0,240
1,note_on,67,63,0
1,note_on,67,0,240
1,note_on,70,69,0
1,note_on,70,0,240
1,note_on,67,60,0
1,note_on,67,0,240
1,note_on,70,69,0
1,note_on,70,0,240
1,note_on,75,62,0
1,note_on,75,0,240
1,note_on,79,73,0
1,note_on,79,0,240
1,note_on,82,65,0
1,note_on,82,0,240
1,note_on,87,89,0
1,note_on,87,0,240
1,note_on,63,84,720
1,note_on,63,0,1440
1,note_on,55,81,0
1,note_on,55,0,480
1,note_on,56,84,0
1,note_on,56,0,960
1,note_on,63,84,0
1,note_on,63,0,480
1,note_on,57,92,0
1,note_on,57,0,960
1,note_on,63,84,0
1,note_on,63,0,480
1,note_on,58,77,0
1,note_on,58,0,240
1,note_on,63,59,0
1,note_on,63,0,240
1,note_on,62,68,0
1,note_on,62,0,240
1,note_on,63,55,0
1,note_on,63,0,240
1,note_on,59,65,0
1,note_on,59,0,240
1,note_on,63,59,0
1,note_on,63,0,240
1,note_on,60,82,0
1,note_on,60,0,240
1,note_on,63,62,0
1,note_on,63,0,240
1,note_on,62,71,0
1,note_on,62,0,240
1,note_on,63,59,0
1,note_on,63,0,240
1,note_on,57,66,0
1,note_on,57,0,240
1,note_on,63,56,0
1,note_on,63,0,240
1,note_on,58,88,0
1,note_on,58,0,240
1,note_on,63,58,0
1,note_on,63,0,240
1,note_on,61,72,0
1,note_on,61,0,240
1,note_on,63,62,0
1,note_on,63,0,240
1,note_on,59,72,0
1,note_on,59,0,240
1,note_on,63,64,0
1,note_on,63,0,240
1,note_on,60,88,0
1,note_on,60,0,240
1,note_on,63,65,0
1,note_on,63,0,240
1,note_on,62,75,0
1,note_on,62,0,240
1,note_on,63,65,0
1,note_on,63,0,240
1,note_on,57,80,0
1,note_on,57,0,240
1,note_on,63,72,0
1,note_on,63,0,240
1,note_on,58,93,0
1,note_on,58,0,480
1,note_on,63,81,360
1,note_on,63,0,120
1,note_on,70,87,0
1,note_on,70,0,360
1,note_on,67,84,0
1,note_on,67,0,120
1,note_on,75,93,0
1,note_on,75,0,120
1,note_on,63,81,720
1,note_on,63,0,120
1,note_on,69,87,0
1,note_on,69,0,360
1,note_on,66,84,0
1,note_on,66,0,120
1,note_on,75,93,0
1,note_on,75,0,120
1,note_on,63,81,720
1,note_on,63,0,120
1,note_on,70,87,0
1,note_on,70,0,360
1,note_on,67,84,0
1,note_on,67,0,120
1,note_on,75,93,0
1,note_on,75,0,120
1,note_on,72,81,720
1,note_on,72,0,120
1,note_on,78,87,0
1,note_on,78,0,360
1,note_on,75,84,0
1,note_on,75,0,120
1,note_on,79,95,0
1,note_on,79,0,720
1,note_on,75,85,0
1,note_on,75,0,240
1,note_on,75,93,0
1,note_on,75,0,240
1,note_on,70,79,0
1,note_on,70,0,180
1,note_on,70,88,60
1,note_on,70,0,240
1,note_on,67,78,0
1,note_on,67,0,180
1,note_on,67,85,60
1,note_on,67,0,240
1,note_on,63,77,0
1,note_on,63,0,180
1,note_on,63,81,60
1,note_on,63,0,240
1,note_on,58,77,0
1,note_on,58,0,180
1,note_on,58,66,2460
1,note_on,62,78,0
1,note_on,62,0,480
1,note_on,58,0,0
1,note_on,58,70,0
1,note_on,63,83,0
1,note_on,63,0,480
1,note_on,58,0,0
1,note_on,70,53,1440
1,note_on,65,42,0
1,note_on,68,42,0
1,note_on,62,42,0
1,note_on,62,0,480
1,note_on,70,0,0
1,note_on,65,0,0
1,note_on,68,0,0
1,note_on,62,38,0
1,note_on,65,38,0
1,note_on,68,38,0
1,note_on,70,48,0
1,note_on,70,0,480
1,note_on,62,0,0
1,note_on,65,0,0
1,note_on,68,0,0
1,note_on,63,42,0
1,note_on,67,42,0
1,note_on,72,53,0
1,note_on,72,0,480
1,note_on,70,49,0
1,note_on,70,0,480
1,note_on,67,0,0
1,note_on,63,0,0
1,note_on,65,42,960
1,note_on,68,42,0
1,note_on,74,53,0
1,note_on,74,0,480
1,note_on,68,0,0
1,note_on,65,0,0
1,note_on,65,38,0
1,note_on,68,38,0
1,note_on,74,48,0
1,note_on,74,0,480
1,note_on,68,0,0
1,note_on,65,0,0
1,note_on,67,42,0
1,note_on,70,42,0
1,note_on,77,53,0
1,note_on,77,0,480
1,note_on,75,49,0
1,note_on,75,0,480
1,note_on,70,0,0
1,note_on,67,0,0
1,note_on,62,42,960
1,note_on,65,42,0
1,note_on,68,42,0
1,note_on,70,53,0
1,note_on,70,0,480
1,note_on,62,0,0
1,note_on,65,0,0
1,note_on,68,0,0
1,note_on,70,48,0
1,note_on,65,38,0
1,note_on,68,38,0
1,note_on,62,38,0
1,note_on,62,0,480
1,note_on,70,0,0
1,note_on,65,0,0
1,note_on,68,0,0
1,note_on,63,42,0
1,note_on,67,42,0
1,note_on,72,53,0
1,note_on,72,0,480
1,note_on,70,49,0
1,note_on,70,0,480
1,note_on,67,0,0
1,note_on,63,0,0
1,note_on,53,42,960
1,note_on,56,42,0
1,note_on,62,53,0
1,note_on,62,0,480
1,note_on,56,0,0
1,note_on,53,0,0
1,note_on,53,38,0
1,note_on,56,38,0
1,note_on,62,48,0
1,note_on,62,0,480
1,note_on,56,0,0
1,note_on,53,0,0
1,note_on,55,42,0
1,note_on,58,42,0
1,note_on,65,53,0
1,note_on,65,0,480
1,note_on,63,49,0
1,note_on,63,0,480
1,note_on,58,0,0
1,note_on,55,0,0
1,note_on,53,42,960
1,note_on,56,42,0
1,note_on,62,53,0
1,note_on,62,0,480
1,note_on,56,0,0
1,note_on,53,0,0
1,note_on,53,38,0
1,note_on,56,38,0
1,note_on,62,48,0
1,note_on,62,0,480
1,note_on,56,0,0
1,note_on,53,0,0
1,note_on,56,42,0
1,note_on,62,42,0
1,note_on,65,53,0
1,note_on,65,0,1440
1,note_on,62,0,0
1,note_on,56,0,0
1,note_on,58,44,0
1,note_on,63,49,0
1,note_on,63,0,480
1,note_on,58,0,0
1,note_on,63,69,960
1,note_on,67,69,0
1,note_on,72,82,0
1,note_on,72,0,720
1,note_on,67,0,0
1,note_on,63,0,0
1,note_on,67,70,120
1,note_on,67,0,120
1,note_on,75,78,0
1,note_on,75,0,360
1,note_on,72,70,0
1,note_on,72,0,120
1,note_on,79,79,0
1,note_on,79,0,360
1,note_on,75,70,0
1,note_on,75,0,120
1,note_on,84,79,0
1,note_on,84,0,360
1,note_on,79,70,0
1,note_on,79,0,120
1,note_on,87,84,0
1,note_on,87,0,120
1,note_on,87,84,360
1,note_on,87,0,120
1,note_on,67,39,840
1,note_on,72,46,0
1,note_on,72,0,240
1,note_on,67,0,0
1,note_on,67,42,240
1,note_on,72,50,0
1,note_on,72,0,960
1,note_on,67,0,0
1,note_on,67,39,0
1,note_on,71,46,10
1,note_on,67,0,460
1,note_on,71,0,10
1,note_on,68,69,0
1,note_on,65,69,0
1,note_on,71,82,0
1,note_on,71,0,720
1,note_on,65,0,0
1,note_on,68,0,0
1,note_on,71,70,120
1,note_on,71,0,120
1,note_on,77,78,0
1,note_on,77,0,360
1,note_on,74,70,0
1,note_on,74,0,120
1,note_on,83,79,0
1,note_on,83,0,360
1,note_on,77,70,0
1,note_on,77,0,120
1,note_on,86,79,0
1,note_on,86,0,360
1,note_on,83,70,0
1,note_on,83,0,120
1,note_on,89,84,0
1,note_on,89,0,120
1,note_on,89,84,360
1,note_on,89,0,120
1,note_on,71,39,840
1,note_on,74,46,0
1,note_on,74,0,240
1,note_on,71,0,0
1,note_on,71,42,240
1,note_on,74,50,0
1,note_on,74,0,960
1,note_on,71,0,0
1,note_on,72,46,0
1,note_on,72,0,360
1,note_on,72,45,0
1,note_on,72,0,60
1,note_on,75,48,0
1,note_on,75,0,60
1,note_on,79,53,0
1,note_on,79,0,720
1,note_on,77,41,0
1,note_on,77,0,240
1,note_on,75,51,0
1,note_on,75,0,480
1,note_on,74,47,0
1,note_on,74,0,960
1,note_on,72,39,0
1,note_on,72,0,360
1,note_on,67,27,0
1,note_on,67,0,40
1,note_on,72,45,0
1,note_on,72,0,40
1,note_on,75,48,0
1,note_on,75,0,40
1,note_on,79,53,0
1,note_on,79,0,720
1,note_on,77,41,0
1,note_on,77,0,240
1,note_on,72,43,0
1,note_on,75,51,0
1,note_on,75,0,480
1,note_on,72,0,0
1,note_on,71,39,0
1,note_on,74,47,0
1,note_on,74,0,960
1,note_on,71,0,0
1,note_on,72,39,0
1,note_on,72,0,360
1,note_on,67,60,0
1,note_on,67,0,40
1,note_on,72,63,0
1,note_on,72,0,40
1,note_on,75,69,0
1,note_on,75,0,40
1,note_on,67,69,0
1,note_on,79,81,0
1,note_on,79,0,720
1,note_on,67,0,0
1,note_on,77,61,0
1,note_on,65,51,0
1,note_on,65,0,240
1,note_on,77,0,0
1,note_on,75,73,0
1,note_on,63,62,0
1,note_on,63,0,960
1,note_on,75,0,0
1,note_on,74,72,0
1,note_on,62,61,0
1,note_on,62,0,120
1,note_on,74,0,0
1,note_on,72,75,360
1,note_on,60,63,0
1,note_on,60,0,960
1,note_on,72,0,0
1,note_on,59,63,0
1,note_on,71,75,0
1,note_on,71,0,120
1,note_on,59,0,0
1,note_on,56,62,360
1,note_on,68,74,0
1,note_on,68,0,960
1,note_on,56,0,0
1,note_on,55,58,0
1,note_on,67,68,0
1,note_on,67,0,240
1,note_on,55,0,0
1,note_on,59,42,1200
1,note_on,59,0,160
1,note_on,62,35,0
1,note_on,62,0,160
1,note_on,65,35,0
1,note_on,65,0,160
1,note_on,68,43,0
1,note_on,68,0,160
1,note_on,67,36,0
1,note_on,67,0,160
1,note_on,65,36,0
1,note_on,65,0,160
1,note_on,63,43,0
1,note_on,63,0,120
1,note_on,53,42,1800
1,note_on,53,0,160
1,note_on,56,35,0
1,note_on,56,0,160
1,note_on,62,35,0
1,note_on,62,0,160
1,note_on,65,43,0
1,note_on,65,0,160
1,note_on,63,36,0
1,note_on,63,0,160
1,note_on,62,36,0
1,note_on,62,0,160
1,note_on,60,43,0
1,note_on,60,0,120
1,note_on,55,66,1800
1,note_on,55,0,160
1,note_on,59,69,0
1,note_on,59,0,160
1,note_on,62,72,0
1,note_on,62,0,160
1,note_on,65,75,0
1,note_on,65,0,160
1,note_on,62,67,0
1,note_on,62,0,160
1,note_on,59,67,0
1,note_on,59,0,160
1,note_on,55,79,0
1,note_on,51,79,0
1,note_on,60,94,0
1,note_on,60,0,720
1,note_on,51,0,0
1,note_on,55,0,0
1,note_on,60,70,120
1,note_on,60,0,120
1,note_on,67,78,0
1,note_on,67,0,360
1,note_on,63,70,0
1,note_on,63,0,120
1,note_on,72,85,0
1,note_on,72,0,360
1,note_on,67,72,0
1,note_on,67,0,120
1,note_on,75,80,0
1,note_on,75,0,360
1,note_on,72,83,0
1,note_on,72,0,120
1,note_on,79,96,0
1,note_on,67,81,0
1,note_on,67,0,120
1,note_on,79,0,0
1,note_on,79,96,360
1,note_on,67,81,0
1,note_on,67,0,120
1,note_on,79,0,0
1,note_on,59,70,720
1,note_on,59,0,120
1,note_on,67,78,0
1,note_on,67,0,360
1,note_on,62,70,0
1,note_on,62,0,120
1,note_on,71,85,0
1,note_on,71,0,360
1,note_on,67,74,0
1,note_on,67,0,120
1,note_on,74,86,0
1,note_on,74,0,360
1,note_on,71,83,0
1,note_on,71,0,120
1,note_on,79,96,0
1,note_on,67,81,0
1,note_on,67,0,120
1,note_on,79,0,0
1,note_on,79,96,360
1,note_on,67,81,0
1,note_on,67,0,120
1,note_on,79,0,0
1,note_on,63,70,720
1,note_on,63,0,120
1,note_on,67,78,0
1,note_on,67,0,360
1,note_on,63,70,0
1,note_on,63,0,120
1,note_on,72,85,0
1,note_on,72,0,360
1,note_on,67,74,0
1,note_on,67,0,120
1,note_on,75,86,0
1,note_on,75,0,360
1,note_on,72,83,0
1,note_on,72,0,120
1,note_on,79,90,0
1,note_on,79,0,360
1,note_on,75,83,0
1,note_on,75,0,120
1,note_on,74,96,0
1,note_on,74,0,120
1,note_on,89,96,360
1,note_on,89,0,120
1,note_on,71,96,840
1,note_on,71,0,120
1,note_on,86,96,360
1,note_on,86,0,120
1,note_on,72,96,840
1,note_on,72,0,120
1,note_on,84,96,360
1,note_on,84,0,120
1,note_on,67,50,4200
1,note_on,75,45,480
1,note_on,75,0,480
1,note_on,67,0,0
1,note_on,68,42,0
1,note_on,75,50,0
1,note_on,75,0,960
1,note_on,75,45,0
1,note_on,68,0,480
1,note_on,67,42,0
1,note_on,75,0,480
1,note_on,77,45,0
1,note_on,77,0,480
1,note_on,73,44,0
1,note_on,67,0,480
1,note_on,68,42,0
1,note_on,73,0,480
1,note_on,71,45,0
1,note_on,71,0,480
1,note_on,72,45,0
1,note_on,72,0,480
1,note_on,68,0,0
1,note_on,76,50,480
1,note_on,84,45,480
1,note_on,84,0,480
1,note_on,76,0,0
1,note_on,77,42,0
1,note_on,84,50,0
1,note_on,84,0,960
1,note_on,84,45,0
1,note_on,77,0,480
1,note_on,76,42,0
1,note_on,84,0,480
1,note_on,85,45,0
1,note_on,85,0,480
1,note_on,82,44,0
1,note_on,76,0,480
1,note_on,72,42,0
1,note_on,82,0,480
1,note_on,79,45,0
1,note_on,79,0,480
1,note_on,80,45,0
1,note_on,80,0,480
1,note_on,72,0,0
1,note_on,72,50,480
1,note_on,80,45,480
1,note_on,80,0,480
1,note_on,72,0,0
1,note_on,73,42,0
1,note_on,80,50,0
1,note_on,80,0,960
1,note_on,80,45,0
1,note_on,73,0,480
1,note_on,72,42,0
1,note_on,80,0,480
1,note_on,82,45,0
1,note_on,82,0,480
1,note_on,78,44,0
1,note_on,72,0,480
1,note_on,68,49,0
1,note_on,78,0,480
1,note_on,76,52,0
1,note_on,76,0,480
1,note_on,77,52,0
1,note_on,68,0,480
1,note_on,69,50,0
1,note_on,77,0,480
1,note_on,78,55,0
1,note_on,78,0,480
1,note_on,75,50,0
1,note_on,69,0,480
1,note_on,65,42,0
1,note_on,75,0,480
1,note_on,75,45,0
1,note_on,75,0,480
1,note_on,74,45,0
1,note_on,65,0,480
1,note_on,66,42,0
1,note_on,74,0,480
1,note_on,75,45,0
1,note_on,75,0,480
1,note_on,66,0,0
1,note_on,63,28,0
1,note_on,66,33,0
1,note_on,66,0,480
1,note_on,63,0,0
1,note_on,62,32,0
1,note_on,65,38,0
1,note_on,65,0,480
1,note_on,62,0,0
1,note_on,72,38,1440
1,note_on,72,0,240
1,note_on,72,38,240
1,note_on,72,0,240
1,note_on,72,46,240
1,note_on,72,0,480
1,note_on,70,38,0
1,note_on,70,0,480
1,note_on,68,38,960
1,note_on,68,0,240
1,note_on,68,38,240
1,note_on,68,0,240
1,note_on,68,43,240
1,note_on,68,0,480
1,note_on,67,38,0
1,note_on,67,0,480
1,note_on,72,37,720
1,note_on,72,0,240
1,note_on,71,38,0
1,note_on,71,0,240
1,note_on,72,34,0
1,note_on,72,0,240
1,note_on,74,43,0
1,note_on,74,0,240
1,note_on,72,38,0
1,note_on,72,0,240
1,note_on,70,36,240
1,note_on,70,0,240
1,note_on,69,38,0
1,note_on,69,0,240
1,note_on,70,36,0
1,note_on,70,0,240
1,note_on,72,44,0
1,note_on,72,0,240
1,note_on,70,38,0
1,note_on,70,0,240
1,note_on,68,36,240
1,note_on,68,0,240
1,note_on,67,38,0
1,note_on,67,0,240
1,note_on,68,35,0
1,note_on,68,0,240
1,note_on,70,44,0
1,note_on,70,0,240
1,note_on,68,37,0
1,note_on,68,0,240
1,note_on,67,46,0
1,note_on,67,0,2160
1,note_on,70,56,0
1,note_on,70,0,240
1,note_on,75,62,0
1,note_on,75,0,470
1,note_on,75,63,10
1,note_on,75,0,1440
1,note_on,74,57,0
1,note_on,74,0,480
1,note_on,70,51,960
1,note_on,70,0,1440
1,note_on,70,61,0
1,note_on,70,0,240
1,note_on,72,57,0
1,note_on,72,0,80
1,note_on,70,52,0
1,note_on,70,0,80
1,note_on,69,52,0
1,note_on,69,0,80
1,note_on,70,61,0
1,note_on,70,0,240
1,note_on,77,65,0
1,note_on,77,0,240
1,note_on,80,75,0
1,note_on,80,0,480
1,note_on,80,78,0
1,note_on,80,0,1440
1,note_on,79,69,0
1,note_on,79,0,480
1,note_on,67,56,960
1,note_on,67,0,120
1,note_on,68,58,120
1,note_on,68,0,120
1,note_on,70,60,120
1,note_on,70,0,120
1,note_on,72,62,120
1,note_on,72,0,120
1,note_on,74,64,120
1,note_on,74,0,120
1,note_on,75,65,120
1,note_on,75,0,120
1,note_on,77,68,120
1,note_on,77,0,120
1,note_on,79,70,120
1,note_on,79,0,120
1,note_on,80,73,120
1,note_on,80,0,120
1,note_on,82,76,120
1,note_on,82,0,120
1,note_on,84,79,120
1,note_on,84,0,120
1,note_on,86,81,120
1,note_on,86,0,120
1,note_on,87,88,120
1,note_on,87,0,1440
1,note_on,86,81,0
1,note_on,86,0,480
1,note_on,58,56,960
1,note_on,58,0,120
1,note_on,60,58,120
1,note_on,60,0,120
1,note_on,62,60,120
1,note_on,62,0,120
1,note_on,63,62,120
1,note_on,63,0,120
1,note_on,65,64,120
1,note_on,65,0,120
1,note_on,67,65,120
1,note_on,67,0,120
1,note_on,68,67,120
1,note_on,68,0,120
1,note_on,70,70,120
1,note_on,70,0,120
1,note_on,72,73,120
1,note_on,72,0,120
1,note_on,74,76,120
1,note_on,74,0,120
1,note_on,75,79,120
1,note_on,75,0,120
1,note_on,77,82,120
1,note_on,77,0,120
1,note_on,79,89,120
1,note_on,79,0,1440
1,note_on,87,100,0
1,note_on,87,0,960
1,note_on,55,77,0
1,note_on,55,0,480
1,note_on,56,82,0
1,note_on,56,0,1440
1,note_on,57,84,0
1,note_on,57,0,1440
1,note_on,58,84,0
1,note_on,58,0,1440
1,note_on,56,84,0
1,note_on,56,0,120
1,note_on,58,57,0
1,note_on,58,0,120
1,note_on,56,61,0
1,note_on,56,0,80
1,note_on,58,57,0
1,note_on,58,0,80
1,note_on,56,64,0
1,note_on,56,0,80
1,note_on,58,56,0
1,note_on,58,0,80
1,note_on,56,64,0
1,note_on,56,0,80
1,note_on,58,56,0
1,note_on,58,0,80
1,note_on,56,64,0
1,note_on,56,0,80
1,note_on,58,55,0
1,note_on,58,0,80
1,note_on,56,64,0
1,note_on,56,0,80
1,note_on,58,54,0
1,note_on,58,0,120
1,note_on,56,59,0
1,note_on,56,0,120
1,note_on,55,55,0
1,note_on,55,0,120
1,note_on,56,57,0
1,note_on,56,0,120
1,note_on,55,74,0
1,note_on,55,0,240
1,note_on,58,60,0
1,note_on,58,0,240
1,note_on,63,68,0
1,note_on,63,0,240
1,note_on,58,61,0
1,note_on,58,0,240
1,note_on,63,69,0
1,note_on,63,0,240
1,note_on,67,63,0
1,note_on,67,0,240
1,note_on,70,69,0
1,note_on,70,0,240
1,note_on,67,60,0
1,note_on,67,0,240
1,note_on,70,69,0
1,note_on,70,0,240
1,note_on,75,62,0
1,note_on,75,0,240
1,note_on,79,78,0
1,note_on,79,0,240
1,note_on,82,73,0
1,note_on,82,0,240
1,note_on,87,89,0
1,note_on,87,0,240
1,note_on,63,84,720
1,note_on,63,0,1440
1,note_on,55,81,0
1,note_on,55,0,480
1,note_on,56,84,0
1,note_on,56,0,960
1,note_on,63,84,0
1,note_on,63,0,480
1,note_on,57,92,0
1,note_on,57,0,960
1,note_on,63,84,0
1,note_on,63,0,480
1,note_on,58,77,0
1,note_on,58,0,240
1,note_on,63,60,0
1,note_on,63,0,240
1,note_on,62,69,0
1,note_on,62,0,240
1,note_on,63,55,0
1,note_on,63,0,240
1,note_on,59,68,0
1,note_on,59,0,240
1,note_on,63,61,0
1,note_on,63,0,240
1,note_on,60,82,0
1,note_on,60,0,240
1,note_on,63,63,0
1,note_on,63,0,240
1,note_on,62,70,0
1,note_on,62,0,240
1,note_on,63,62,0
1,note_on,63,0,240
1,note_on,57,70,0
1,note_on,57,0,240
1,note_on,63,61,0
1,note_on,63,0,240
1,note_on,58,88,0
1,note_on,58,0,240
1,note_on,63,66,0
1,note_on,63,0,240
1,note_on,61,75,0
1,note_on,61,0,240
1,note_on,63,62,0
1,note_on,63,0,240
1,note_on,59,74,0
1,note_on,59,0,240
1,note_on,63,65,0
1,note_on,63,0,240
1,note_on,60,88,0
1,note_on,60,0,240
1,note_on,63,65,0
1,note_on,63,0,240
1,note_on,62,71,0
1,note_on,62,0,240
1,note_on,63,65,0
1,note_on,63,0,240
1,note_on,57,80,0
1,note_on,57,0,240
1,note_on,63,72,0
1,note_on,63,0,240
1,note_on,58,93,0
1,note_on,58,0,480
1,note_on,63,81,360
1,note_on,63,0,120
1,note_on,70,87,0
1,note_on,70,0,360
1,note_on,67,84,0
1,note_on,67,0,120
1,note_on,75,93,0
1,note_on,75,0,120
1,note_on,63,81,720
1,note_on,63,0,120
1,note_on,69,87,0
1,note_on,69,0,360
1,note_on,66,84,0
1,note_on,66,0,120
1,note_on,75,93,0
1,note_on,75,0,120
1,note_on,63,81,720
1,note_on,63,0,120
1,note_on,70,87,0
1,note_on,70,0,360
1,note_on,67,84,0
1,note_on,67,0,120
1,note_on,75,93,0
1,note_on,75,0,120
1,note_on,72,81,720
1,note_on,72,0,120
1,note_on,78,87,0
1,note_on,78,0,360
1,note_on,75,84,0
1,note_on,75,0,120
1,note_on,79,95,0
1,note_on,79,0,720
1,note_on,75,85,0
1,note_on,75,0,240
1,note_on,75,93,0
1,note_on,75,0,240
1,note_on,70,79,0
1,note_on,70,0,180
1,note_on,70,88,60
1,note_on,70,0,240
1,note_on,67,78,0
1,note_on,67,0,180
1,note_on,67,85,60
1,note_on,67,0,240
1,note_on,63,77,0
1,note_on,63,0,180
1,note_on,63,81,60
1,note_on,63,0,240
1,note_on,58,77,0
1,note_on,58,0,180
1,note_on,58,66,2460
1,note_on,62,78,0
1,note_on,62,0,480
1,note_on,58,0,0
1,note_on,58,70,0
1,note_on,63,83,0
1,note_on,63,0,480
1,note_on,58,0,0
1,note_on,70,53,1440
1,note_on,65,42,0
1,note_on,68,42,0
1,note_on,62,42,0
1,note_on,62,0,480
1,note_on,70,0,0
1,note_on,65,0,0
1,note_on,68,0,0
1,note_on,62,38,0
1,note_on,65,38,0
1,note_on,68,38,0
1,note_on,70,48,0
1,note_on,70,0,480
1,note_on,62,0,0
1,note_on,65,0,0
1,note_on,68,0,0
1,note_on,63,42,0
1,note_on,67,42,0
1,note_on,72,53,0
1,note_on,72,0,480
1,note_on,70,49,0
1,note_on,70,0,480
1,note_on,67,0,0
1,note_on,63,0,0
1,note_on,65,42,960
1,note_on,68,42,0
1,note_on,74,53,0
1,note_on,74,0,480
1,note_on,68,0,0
1,note_on,65,0,0
1,note_on,65,38,0
1,note_on,68,38,0
1,note_on,74,48,0
1,note_on,74,0,480
1,note_on,68,0,0
1,note_on,65,0,0
1,note_on,67,42,0
1,note_on,70,42,0
1,note_on,77,53,0
1,note_on,77,0,480
1,note_on,75,49,0
1,note_on,75,0,480
1,note_on,70,0,0
1,note_on,67,0,0
1,note_on,62,42,960
1,note_on,65,42,0
1,note_on,68,42,0
1,note_on,70,53,0
1,note_on,70,0,480
1,note_on,62,0,0
1,note_on,65,0,0
1,note_on,68,0,0
1,note_on,70,48,0
1,note_on,65,38,0
1,note_on,68,38,0
1,note_on,62,38,0
1,note_on,62,0,480
1,note_on,70,0,0
1,note_on,65,0,0
1,note_on,68,0,0
1,note_on,63,42,0
1,note_on,67,42,0
1,note_on,72,53,0
1,note_on,72,0,480
1,note_on,70,49,0
1,note_on,70,0,480
1,note_on,67,0,0
1,note_on,63,0,0
1,note_on,53,42,960
1,note_on,56,42,0
1,note_on,62,53,0
1,note_on,62,0,480
1,note_on,56,0,0
1,note_on,53,0,0
1,note_on,53,38,0
1,note_on,56,38,0
1,note_on,62,48,0
1,note_on,62,0,480
1,note_on,56,0,0
1,note_on,53,0,0
1,note_on,55,42,0
1,note_on,58,42,0
1,note_on,65,53,0
1,note_on,65,0,480
1,note_on,63,49,0
1,note_on,63,0,480
1,note_on,58,0,0
1,note_on,55,0,0
1,note_on,53,42,960
1,note_on,56,42,0
1,note_on,62,53,0
1,note_on,62,0,480
1,note_on,56,0,0
1,note_on,53,0,0
1,note_on,53,38,0
1,note_on,56,38,0
1,note_on,62,48,0
1,note_on,62,0,480
1,note_on,56,0,0
1,note_on,53,0,0
1,note_on,56,42,0
1,note_on,62,42,0
1,note_on,65,53,0
1,note_on,65,0,1440
1,note_on,62,0,0
1,note_on,56,0,0
1,note_on,58,44,0
1,note_on,63,49,0
1,note_on,63,0,480
1,note_on,58,0,0
1,note_on,64,69,960
1,note_on,67,69,0
1,note_on,72,82,0
1,note_on,72,0,720
1,note_on,67,0,0
1,note_on,64,0,0
1,note_on,67,70,120
1,note_on,67,0,120
1,note_on,76,78,0
1,note_on,76,0,360
1,note_on,72,70,0
1,note_on,72,0,120
1,note_on,79,79,0
1,note_on,79,0,360
1,note_on,76,70,0
1,note_on,76,0,120
1,note_on,84,79,0
1,note_on,84,0,360
1,note_on,79,70,0
1,note_on,79,0,120
1,note_on,88,84,0
1,note_on,88,0,120
1,note_on,88,84,360
1,note_on,88,0,120
1,note_on,72,39,840
1,note_on,76,46,0
1,note_on,76,0,240
1,note_on,72,0,0
1,note_on,72,42,240
1,note_on,76,50,0
1,note_on,76,0,960
1,note_on,72,0,0
1,note_on,74,46,0
1,note_on,71,39,0
1,note_on,71,0,470
1,note_on,74,0,0
1,note_on,71,42,10
1,note_on,74,50,0
1,note_on,74,0,720
1,note_on,71,0,0
1,note_on,71,70,120
1,note_on,71,0,120
1,note_on,77,78,0
1,note_on,77,0,360
1,note_on,74,70,0
1,note_on,74,0,120
1,note_on,83,79,0
1,note_on,83,0,360
1,note_on,77,70,0
1,note_on,77,0,120
1,note_on,86,79,0
1,note_on,86,0,360
1,note_on,83,70,0
1,note_on,83,0,120
1,note_on,89,84,0
1,note_on,89,0,120
1,note_on,89,84,360
1,note_on,89,0,120
1,note_on,74,39,840
1,note_on,77,46,0
1,note_on,77,0,240
1,note_on,74,0,0
1,note_on,74,42,240
1,note_on,77,50,0
1,note_on,77,0,960
1,note_on,74,0,0
1,note_on,76,46,0
1,note_on,73,39,0
1,note_on,73,0,470
1,note_on,76,0,0
1,note_on,73,42,10
1,note_on,76,50,0
1,note_on,76,0,720
1,note_on,73,0,0
1,note_on,70,70,120
1,note_on,70,0,120
1,note_on,76,78,0
1,note_on,76,0,360
1,note_on,73,70,0
1,note_on,73,0,120
1,note_on,79,84,0
1,note_on,79,0,360
1,note_on,76,70,0
1,note_on,76,0,120
1,note_on,82,85,0
1,note_on,82,0,360
1,note_on,79,70,0
1,note_on,79,0,120
1,note_on,85,89,0
1,note_on,85,0,120
1,note_on,67,87,360
1,note_on,67,0,120
1,note_on,82,86,360
1,note_on,82,0,120
1,note_on,64,85,840
1,note_on,64,0,120
1,note_on,79,79,360
1,note_on,79,0,120
1,note_on,65,42,840
1,note_on,77,50,0
1,note_on,77,0,1440
1,note_on,65,0,0
1,note_on,84,53,0
1,note_on,72,45,0
1,note_on,72,0,950
1,note_on,84,0,0
1,note_on,84,50,10
1,note_on,72,42,0
1,note_on,72,0,470
1,note_on,84,0,0
1,note_on,84,54,10
1,note_on,72,45,0
1,note_on,72,0,480
1,note_on,84,0,0
1,note_on,83,50,0
1,note_on,71,42,0
1,note_on,71,0,480
1,note_on,83,0,0
1,note_on,85,50,0
1,note_on,73,42,0
1,note_on,73,0,480
1,note_on,85,0,0
1,note_on,72,42,0
1,note_on,84,50,0
1,note_on,84,0,480
1,note_on,72,0,0
1,note_on,82,50,0
1,note_on,70,42,0
1,note_on,70,0,480
1,note_on,82,0,0
1,note_on,79,50,0
1,note_on,67,42,0
1,note_on,67,0,480
1,note_on,79,0,0
1,note_on,76,56,0
1,note_on,64,47,0
1,note_on,64,0,960
1,note_on,76,0,0
1,note_on,67,50,0
1,note_on,79,59,0
1,note_on,79,0,480
1,note_on,67,0,0
1,note_on,84,65,0
1,note_on,72,55,0
1,note_on,72,0,960
1,note_on,84,0,0
1,note_on,79,59,0
1,note_on,67,50,0
1,note_on,67,0,480
1,note_on,79,0,0
1,note_on,70,54,0
1,note_on,82,64,0
1,note_on,82,0,1440
1,note_on,70,0,0
1,note_on,80,58,0
1,note_on,68,49,0
1,note_on,68,0,480
1,note_on,80,0,0
1,note_on,69,48,480
1,note_on,81,57,0
1,note_on,81,0,480
1,note_on,69,0,0
1,note_on,70,52,0
1,note_on,82,62,0
1,note_on,82,0,1440
1,note_on,70,0,0
1,note_on,89,66,0
1,note_on,77,56,0
1,note_on,77,0,950
1,note_on,89,0,0
1,note_on,89,62,10
1,note_on,77,52,0
1,note_on,77,0,470
1,note_on,89,0,0
1,note_on,89,68,10
1,note_on,77,57,0
1,note_on,77,0,480
1,note_on,89,0,0
1,note_on,88,62,0
1,note_on,76,52,0
1,note_on,76,0,480
1,note_on,88,0,0
1,note_on,90,62,0
1,note_on,78,52,0
1,note_on,78,0,480
1,note_on,90,0,0
1,note_on,77,52,0
1,note_on,89,62,0
1,note_on,89,0,480
1,note_on,77,0,0
1,note_on,87,62,0
1,note_on,75,52,0
1,note_on,75,0,480
1,note_on,87,0,0
1,note_on,84,62,0
1,note_on,72,52,0
1,note_on,72,0,480
1,note_on,84,0,0
1,note_on,81,70,0
1,note_on,69,59,0
1,note_on,69,0,960
1,note_on,81,0,0
1,note_on,72,61,0
1,note_on,84,73,0
1,note_on,84,0,480
1,note_on,72,0,0
1,note_on,89,81,0
1,note_on,77,68,0
1,note_on,77,0,960
1,note_on,89,0,0
1,note_on,84,73,0
1,note_on,72,61,0
1,note_on,72,0,480
1,note_on,84,0,0
1,note_on,75,68,0
1,note_on,87,80,0
1,note_on,87,0,1440
1,note_on,75,0,0
1,note_on,85,72,0
1,note_on,73,61,0
1,note_on,73,0,480
1,note_on,85,0,0
1,note_on,73,61,480
1,note_on,73,0,480
1,note_on,72,67,0
1,note_on,72,0,960
1,note_on,75,61,0
1,note_on,75,0,120
1,note_on,77,57,0
1,note_on,77,0,80
1,note_on,75,61,0
1,note_on,75,0,80
1,note_on,74,65,0
1,note_on,74,0,80
1,note_on,75,69,0
1,note_on,75,0,120
1,note_on,80,74,0
1,note_on,80,0,960
1,note_on,75,66,0
1,note_on,75,0,480
1,note_on,77,70,0
1,note_on,77,0,480
1,note_on,76,61,0
1,note_on,76,0,480
1,note_on,78,61,0
1,note_on,78,0,480
1,note_on,77,70,0
1,note_on,77,0,480
1,note_on,75,61,0
1,note_on,75,0,480
1,note_on,72,61,0
1,note_on,72,0,480
1,note_on,80,70,0
1,note_on,80,0,480
1,note_on,79,61,0
1,note_on,79,0,480
1,note_on,82,61,0
1,note_on,82,0,480
1,note_on,80,70,0
1,note_on,80,0,480
1,note_on,78,61,0
1,note_on,78,0,480
1,note_on,75,61,0
1,note_on,75,0,480
1,note_on,77,70,0
1,note_on,77,0,480
1,note_on,76,61,0
1,note_on,76,0,480
1,note_on,78,61,0
1,note_on,78,0,480
1,note_on,77,70,0
1,note_on,77,0,480
1,note_on,75,61,0
1,note_on,75,0,480
1,note_on,72,61,0
1,note_on,72,0,480
1,note_on,73,66,0
1,note_on,73,0,1440
1,note_on,82,71,0
1,note_on,73,57,0
1,note_on,73,0,950
1,note_on,82,0,0
1,note_on,82,74,10
1,note_on,73,60,0
1,note_on,73,0,470
1,note_on,82,0,0
1,note_on,82,78,10
1,note_on,72,63,0
1,note_on,72,0,2400
1,note_on,82,0,0
1,note_on,67,61,0
1,note_on,70,72,0
1,note_on,70,0,480
1,note_on,67,0,0
1,note_on,65,58,0
1,note_on,68,69,0
1,note_on,68,0,1440
1,note_on,65,0,0
1,note_on,80,78,0
1,note_on,77,62,0
1,note_on,77,0,950
1,note_on,80,0,0
1,note_on,77,66,10
1,note_on,80,81,0
1,note_on,80,0,480
1,note_on,77,0,0
1,note_on,79,85,0
1,note_on,77,69,0
1,note_on,77,0,2400
1,note_on,79,0,0
1,note_on,62,61,0
1,note_on,65,72,0
1,note_on,65,0,480
1,note_on,62,0,0
1,note_on,60,58,0
1,note_on,63,69,0
1,note_on,63,0,480
1,note_on,60,0,0
1,note_on,72,72,960
1,note_on,84,85,0
1,note_on,75,72,0
1,note_on,75,0,950
1,note_on,84,0,0
1,note_on,72,0,0
1,note_on,72,71,10
1,note_on,75,71,0
1,note_on,84,84,0
1,note_on,84,0,470
1,note_on,75,0,0
1,note_on,72,0,0
1,note_on,72,76,10
1,note_on,84,90,0
1,note_on,80,76,0
1,note_on,80,0,1440
1,note_on,84,0,0
1,note_on,72,0,0
1,note_on,77,82,0
1,note_on,89,97,0
1,note_on,80,82,0
1,note_on,80,0,950
1,note_on,89,0,0
1,note_on,77,0,0
1,note_on,77,81,10
1,note_on,80,81,0
1,note_on,89,96,0
1,note_on,89,0,470
1,note_on,80,0,0
1,note_on,77,0,0
1,note_on,79,87,10
1,note_on,77,87,0
1,note_on,89,103,0
1,note_on,86,87,0
1,note_on,86,0,2400
1,note_on,79,0,0
1,note_on,77,0,0
1,note_on,89,0,0
1,note_on,74,67,0
1,note_on,77,79,0
1,note_on,77,0,480
1,note_on,74,0,0
1,note_on,72,72,0
1,note_on,75,85,0
1,note_on,75,0,960
1,note_on,72,0,0
1,note_on,67,64,0
1,note_on,75,76,0
1,note_on,68,80,480
1,note_on,75,0,480
1,note_on,67,0,0
1,note_on,65,62,0
1,note_on,74,74,0
1,note_on,74,0,480
1,note_on,65,0,0
1,note_on,68,0,0
1,note_on,63,60,0
1,note_on,69,60,0
1,note_on,72,71,0
1,note_on,72,0,480
1,note_on,69,0,0
1,note_on,63,0,0
1,note_on,62,64,0
1,note_on,67,64,0
1,note_on,71,76,0
1,note_on,71,0,480
1,note_on,67,0,0
1,note_on,62,0,0
1,note_on,71,48,480
1,note_on,74,48,0
1,note_on,79,57,0
1,note_on,79,0,480
1,note_on,74,0,0
1,note_on,71,0,0
1,note_on,68,51,0
1,note_on,72,51,0
1,note_on,77,60,0
1,note_on,77,0,480
1,note_on,72,0,0
1,note_on,68,0,0
1,note_on,67,47,480
1,note_on,70,47,0
1,note_on,75,56,0
1,note_on,75,0,480
1,note_on,70,0,0
1,note_on,67,0,0
1,note_on,65,51,0
1,note_on,68,51,0
1,note_on,74,60,0
1,note_on,74,0,480
1,note_on,68,0,0
1,note_on,65,0,0
1,note_on,63,48,480
1,note_on,67,48,0
1,note_on,72,57,0
1,note_on,72,0,480
1,note_on,67,0,0
1,note_on,63,0,0
1,note_on,62,51,0
1,note_on,65,51,0
1,note_on,71,60,0
1,note_on,71,0,480
1,note_on,65,0,0
1,note_on,62,0,0
1,note_on,60,45,480
1,note_on,63,45,0
1,note_on,68,54,0
1,note_on,68,0,480
1,note_on,63,0,0
1,note_on,60,0,0
1,note_on,59,51,0
1,note_on,62,51,0
1,note_on,67,60,0
1,note_on,67,0,480
1,note_on,62,0,0
1,note_on,59,0,0
1,note_on,71,43,480
1,note_on,74,43,0
1,note_on,79,51,0
1,note_on,79,0,480
1,note_on,74,0,0
1,note_on,71,0,0
1,note_on,68,45,0
1,note_on,72,45,0
1,note_on,77,53,0
1,note_on,77,0,480
1,note_on,72,0,0
1,note_on,68,0,0
1,note_on,67,40,480
1,note_on,70,40,0
1,note_on,75,48,0
1,note_on,75,0,480
1,note_on,70,0,0
1,note_on,67,0,0
1,note_on,65,43,0
1,note_on,68,43,0
1,note_on,74,51,0
1,note_on,74,0,480
1,note_on,68,0,0
1,note_on,65,0,0
1,note_on,63,39,480
1,note_on,67,39,0
1,note_on,72,47,0
1,note_on,72,0,480
1,note_on,67,0,0
1,note_on,63,0,0
1,note_on,62,41,0
1,note_on,65,41,0
1,note_on,71,49,0
1,note_on,71,0,480
1,note_on,65,0,0
1,note_on,62,0,0
1,note_on,60,35,480
1,note_on,63,35,0
1,note_on,68,42,0
1,note_on,68,0,480
1,note_on,63,0,0
1,note_on,60,0,0
1,note_on,59,39,0
1,note_on,62,39,0
1,note_on,67,46,0
1,note_on,67,0,480
1,note_on,62,0,0
1,note_on,59,0,0
1,note_on,60,34,480
1,note_on,56,34,0
1,note_on,65,41,0
1,note_on,65,0,480
1,note_on,56,0,0
1,note_on,60,0,0
1,note_on,55,36,0
1,note_on,60,36,0
1,note_on,63,43,0
1,note_on,63,0,480
1,note_on,60,0,0
1,note_on,55,0,0
1,note_on,53,32,480
1,note_on,59,32,0
1,note_on,62,38,0
1,note_on,62,0,480
1,note_on,59,0,0
1,note_on,53,0,0
1,note_on,51,69,0
1,note_on,55,69,0
1,note_on,60,82,0
1,note_on,60,0,720
1,note_on,55,0,0
1,note_on,51,0,0
1,note_on,67,70,120
1,note_on,67,0,120
1,note_on,75,78,0
1,note_on,75,0,360
1,note_on,72,70,0
1,note_on,72,0,120
1,note_on,79,79,0
1,note_on,79,0,360
1,note_on,75,70,0
1,note_on,75,0,120
1,note_on,84,79,0
1,note_on,84,0,360
1,note_on,79,70,0
1,note_on,79,0,120
1,note_on,87,84,0
1,note_on,87,0,120
1,note_on,87,84,360
1,note_on,87,0,120
1,note_on,67,39,840
1,note_on,72,46,0
1,note_on,72,0,240
1,note_on,67,0,0
1,note_on,67,42,240
1,note_on,72,50,0
1,note_on,72,0,960
1,note_on,67,0,0
1,note_on,67,39,0
1,note_on,71,46,10
1,note_on,67,0,460
1,note_on,71,0,10
1,note_on,68,69,0
1,note_on,65,69,0
1,note_on,71,82,0
1,note_on,71,0,720
1,note_on,65,0,0
1,note_on,68,0,0
1,note_on,71,70,120
1,note_on,71,0,120
1,note_on,77,78,0
1,note_on,77,0,360
1,note_on,74,70,0
1,note_on,74,0,120
1,note_on,83,79,0
1,note_on,83,0,360
1,note_on,77,70,0
1,note_on,77,0,120
1,note_on,86,79,0
1,note_on,86,0,360
1,note_on,83,70,0
1,note_on,83,0,120
1,note_on,89,84,0
1,note_on,89,0,120
1,note_on,89,84,360
1,note_on,89,0,120
1,note_on,71,39,840
1,note_on,74,46,0
1,note_on,74,0,240
1,note_on,71,0,0
1,note_on,71,42,240
1,note_on,74,50,0
1,note_on,74,0,960
1,note_on,71,0,0
1,note_on,72,46,0
1,note_on,72,0,360
1,note_on,72,45,0
1,note_on,72,0,60
1,note_on,75,48,0
1,note_on,75,0,60
1,note_on,79,53,0
1,note_on,79,0,720
1,note_on,77,41,0
1,note_on,77,0,240
1,note_on,75,51,0
1,note_on,75,0,480
1,note_on,74,47,0
1,note_on,74,0,960
1,note_on,72,39,0
1,note_on,72,0,360
1,note_on,67,27,0
1,note_on,67,0,40
1,note_on,72,45,0
1,note_on,72,0,40
1,note_on,75,48,0
1,note_on,75,0,40
1,note_on,79,53,0
1,note_on,79,0,720
1,note_on,77,41,0
1,note_on,77,0,240
1,note_on,72,43,0
1,note_on,75,51,0
1,note_on,75,0,480
1,note_on,72,0,0
1,note_on,71,39,0
1,note_on,74,47,0
1,note_on,74,0,960
1,note_on,71,0,0
1,note_on,72,39,0
1,note_on,72,0,360
1,note_on,67,60,0
1,note_on,67,0,40
1,note_on,72,63,0
1,note_on,72,0,40
1,note_on,75,69,0
1,note_on,75,0,40
1,note_on,67,69,0
1,note_on,79,81,0
1,note_on,79,0,720
1,note_on,67,0,0
1,note_on,77,61,0
1,note_on,65,51,0
1,note_on,65,0,240
1,note_on,77,0,0
1,note_on,75,73,0
1,note_on,63,62,0
1,note_on,63,0,960
1,note_on,75,0,0
1,note_on,74,72,0
1,note_on,62,61,0
1,note_on,62,0,120
1,note_on,74,0,0
1,note_on,72,75,360
1,note_on,60,63,0
1,note_on,60,0,960
1,note_on,72,0,0
1,note_on,59,63,0
1,note_on,71,75,0
1,note_on,71,0,120
1,note_on,59,0,0
1,note_on,56,62,360
1,note_on,68,74,0
1,note_on,68,0,960
1,note_on,56,0,0
1,note_on,55,57,0
1,note_on,67,67,0
1,note_on,67,0,240
1,note_on,55,0,0
1,note_on,59,42,1200
1,note_on,59,0,160
1,note_on,62,35,0
1,note_on,62,0,160
1,note_on,65,35,0
1,note_on,65,0,160
1,note_on,68,43,0
1,note_on,68,0,160
1,note_on,67,36,0
1,note_on,67,0,160
1,note_on,65,36,0
1,note_on,65,0,160
1,note_on,63,43,0
1,note_on,63,0,120
1,note_on,53,42,1800
1,note_on,53,0,160
1,note_on,56,35,0
1,note_on,56,0,160
1,note_on,62,35,0
1,note_on,62,0,160
1,note_on,65,43,0
1,note_on,65,0,160
1,note_on,63,36,0
1,note_on,63,0,160
1,note_on,62,36,0
1,note_on,62,0,160
1,note_on,60,43,0
1,note_on,60,0,120
1,note_on,55,66,1800
1,note_on,55,0,160
1,note_on,59,69,0
1,note_on,59,0,160
1,note_on,62,72,0
1,note_on,62,0,160
1,note_on,65,75,0
1,note_on,65,0,160
1,note_on,62,67,0
1,note_on,62,0,160
1,note_on,59,71,0
1,note_on,59,0,160
1,note_on,60,94,0
1,note_on,60,0,240
1,note_on,65,50,4560
1,note_on,73,45,480
1,note_on,73,0,480
1,note_on,65,0,0
1,note_on,66,42,0
1,note_on,73,50,0
1,note_on,73,0,960
1,note_on,73,45,0
1,note_on,66,0,480
1,note_on,65,42,0
1,note_on,73,0,480
1,note_on,75,45,0
1,note_on,75,0,480
1,note_on,71,44,0
1,note_on,65,0,480
1,note_on,66,42,0
1,note_on,71,0,480
1,note_on,69,45,0
1,note_on,69,0,480
1,note_on,70,45,0
1,note_on,70,0,480
1,note_on,66,0,0
1,note_on,77,50,480
1,note_on,85,45,480
1,note_on,85,0,480
1,note_on,77,0,0
1,note_on,78,42,0
1,note_on,85,50,0
1,note_on,85,0,960
1,note_on,85,45,0
1,note_on,78,0,480
1,note_on,77,42,0
1,note_on,85,0,480
1,note_on,87,45,0
1,note_on,87,0,480
1,note_on,83,44,0
1,note_on,77,0,480
1,note_on,78,42,0
1,note_on,83,0,480
1,note_on,81,45,0
1,note_on,81,0,480
1,note_on,82,45,0
1,note_on,82,0,480
1,note_on,78,0,0
1,note_on,74,50,480
1,note_on,82,45,480
1,note_on,82,0,480
1,note_on,74,0,0
1,note_on,75,42,0
1,note_on,82,50,0
1,note_on,82,0,960
1,note_on,82,45,0
1,note_on,75,0,480
1,note_on,74,42,0
1,note_on,82,0,480
1,note_on,83,45,0
1,note_on,83,0,480
1,note_on,80,44,0
1,note_on,74,0,480
1,note_on,70,49,0
1,note_on,80,0,480
1,note_on,77,52,0
1,note_on,77,0,480
1,note_on,78,52,0
1,note_on,70,0,480
1,note_on,71,50,0
1,note_on,78,0,480
1,note_on,80,55,0
1,note_on,80,0,480
1,note_on,77,50,0
1,note_on,71,0,480
1,note_on,72,42,0
1,note_on,77,0,480
1,note_on,77,45,0
1,note_on,77,0,480
1,note_on,76,45,0
1,note_on,72,0,480
1,note_on,68,42,0
1,note_on,76,0,480
1,note_on,77,45,0
1,note_on,77,0,480
1,note_on,68,0,0
1,note_on,65,28,0
1,note_on,68,33,0
1,note_on,68,0,480
1,note_on,65,0,0
1,note_on,64,32,0
1,note_on,67,38,0
1,note_on,67,0,480
1,note_on,64,0,0
1,note_on,73,38,1440
1,note_on,73,0,240
1,note_on,73,38,240
1,note_on,73,0,240
1,note_on,73,46,240
1,note_on,73,0,480
1,note_on,72,38,0
1,note_on,72,0,480
1,note_on,70,38,960
1,note_on,70,0,240
1,note_on,70,38,240
1,note_on,70,0,240
1,note_on,70,43,240
1,note_on,70,0,480
1,note_on,69,38,0
1,note_on,69,0,480
1,note_on,74,37,720
1,note_on,74,0,240
1,note_on,73,38,0
1,note_on,73,0,240
1,note_on,74,34,0
1,note_on,74,0,240
1,note_on,76,43,0
1,note_on,76,0,240
1,note_on,74,38,0
1,note_on,74,0,240
1,note_on,72,36,240
1,note_on,72,0,240
1,note_on,71,38,0
1,note_on,71,0,240
1,note_on,72,36,0
1,note_on,72,0,240
1,note_on,74,44,0
1,note_on,74,0,240
1,note_on,72,38,0
1,note_on,72,0,240
1,note_on,70,36,240
1,note_on,70,0,240
1,note_on,69,38,0
1,note_on,69,0,240
1,note_on,70,35,0
1,note_on,70,0,240
1,note_on,72,44,0
1,note_on,72,0,240
1,note_on,70,37,0
1,note_on,70,0,240
1,note_on,69,46,0
1,note_on,69,0,2160
1,note_on,72,56,0
1,note_on,72,0,240
1,note_on,77,62,0
1,note_on,77,0,480
1,note_on,77,63,0
1,note_on,77,0,1440
1,note_on,76,57,0
1,note_on,76,0,480
1,note_on,72,51,960
1,note_on,72,0,1440
1,note_on,72,61,0
1,note_on,72,0,240
1,note_on,74,57,0
1,note_on,74,0,80
1,note_on,72,52,0
1,note_on,72,0,80
1,note_on,71,52,0
1,note_on,71,0,80
1,note_on,72,61,0
1,note_on,72,0,240
1,note_on,79,71,0
1,note_on,79,0,240
1,note_on,82,76,0
1,note_on,82,0,480
1,note_on,82,78,0
1,note_on,82,0,1440
1,note_on,81,69,0
1,note_on,81,0,480
1,note_on,69,56,960
1,note_on,69,0,120
1,note_on,70,58,120
1,note_on,70,0,120
1,note_on,72,60,120
1,note_on,72,0,120
1,note_on,74,62,120
1,note_on,74,0,120
1,note_on,76,64,120
1,note_on,76,0,120
1,note_on,77,65,120
1,note_on,77,0,120
1,note_on,79,67,120
1,note_on,79,0,120
1,note_on,81,71,120
1,note_on,81,0,120
1,note_on,82,74,120
1,note_on,82,0,120
1,note_on,84,77,120
1,note_on,84,0,120
1,note_on,86,80,120
1,note_on,86,0,120
1,note_on,88,83,120
1,note_on,88,0,120
1,note_on,89,90,120
1,note_on,89,0,1440
1,note_on,88,71,0
1,note_on,88,0,480
1,note_on,60,56,960
1,note_on,60,0,120
1,note_on,62,58,120
1,note_on,62,0,120
1,note_on,64,60,120
1,note_on,64,0,120
1,note_on,65,62,120
1,note_on,65,0,120
1,note_on,67,64,120
1,note_on,67,0,120
1,note_on,69,65,120
1,note_on,69,0,120
1,note_on,70,71,120
1,note_on,70,0,120
1,note_on,72,71,120
1,note_on,72,0,120
1,note_on,74,73,120
1,note_on,74,0,120
1,note_on,76,75,120
1,note_on,76,0,120
1,note_on,77,82,120
1,note_on,77,0,120
1,note_on,79,84,120
1,note_on,79,0,120
1,note_on,80,92,120
1,note_on,80,0,1920
1,note_on,79,77,0
1,note_on,79,0,480
1,note_on,77,77,0
1,note_on,77,0,480
1,note_on,75,84,0
1,note_on,75,0,1080
1,note_on,77,57,0
1,note_on,77,0,80
1,note_on,75,61,0
1,note_on,75,0,80
1,note_on,74,65,0
1,note_on,74,0,80
1,note_on,75,69,0
1,note_on,75,0,120
1,note_on,79,84,0
1,note_on,79,0,480
1,note_on,77,78,0
1,note_on,77,0,480
1,note_on,74,78,0
1,note_on,74,0,480
1,note_on,63,66,0
1,note_on,75,89,0
1,note_on,75,0,2160
1,note_on,63,0,0
1,note_on,67,63,0
1,note_on,79,84,0
1,note_on,79,0,240
1,note_on,67,0,0
1,note_on,72,72,0
1,note_on,84,97,0
1,note_on,84,0,480
1,note_on,72,0,0
1,note_on,72,73,0
1,note_on,84,98,0
1,note_on,84,0,1440
1,note_on,72,0,0
1,note_on,71,63,0
1,note_on,83,85,0
1,note_on,83,0,480
1,note_on,71,0,0
1,note_on,67,66,960
1,note_on,79,89,0
1,note_on,79,0,2160
1,note_on,67,0,0
1,note_on,74,63,0
1,note_on,86,84,0
1,note_on,86,0,240
1,note_on,74,0,0
1,note_on,77,72,0
1,note_on,89,97,0
1,note_on,89,0,470
1,note_on,77,0,0
1,note_on,77,73,10
1,note_on,89,98,0
1,note_on,89,0,1440
1,note_on,77,0,0
1,note_on,75,66,0
1,note_on,87,88,0
1,note_on,87,0,480
1,note_on,75,0,0
1,note_on,63,89,960
1,note_on,63,0,240
1,note_on,67,75,0
1,note_on,67,0,240
1,note_on,72,79,0
1,note_on,72,0,240
1,note_on,67,79,0
1,note_on,67,0,240
1,note_on,72,83,0
1,note_on,72,0,240
1,note_on,75,89,0
1,note_on,75,0,240
1,note_on,72,89,0
1,note_on,72,0,240
1,note_on,75,77,0
1,note_on,75,0,240
1,note_on,79,83,0
1,note_on,79,0,240
1,note_on,75,89,0
1,note_on,75,0,240
1,note_on,79,83,0
1,note_on,79,0,240
1,note_on,84,89,0
1,note_on,84,0,230
1,note_on,84,98,10
1,note_on,84,0,1440
1,note_on,83,92,0
1,note_on,83,0,480
1,note_on,55,80,960
1,note_on,55,0,240
1,note_on,59,67,0
1,note_on,59,0,240
1,note_on,62,71,0
1,note_on,62,0,240
1,note_on,59,71,0
1,note_on,59,0,240
1,note_on,62,74,0
1,note_on,62,0,240
1,note_on,67,80,0
1,note_on,67,0,240
1,note_on,62,80,0
1,note_on,62,0,240
1,note_on,67,69,0
1,note_on,67,0,240
1,note_on,71,74,0
1,note_on,71,0,240
1,note_on,67,80,0
1,note_on,67,0,240
1,note_on,71,74,0
1,note_on,71,0,240
1,note_on,74,80,0
1,note_on,74,0,240
1,note_on,75,86,0
1,note_on,75,0,480
1,note_on,84,100,480
1,note_on,84,0,1440
1,note_on,52,77,0
1,note_on,52,0,480
1,note_on,53,82,0
1,note_on,53,0,1440
1,note_on,54,84,0
1,note_on,54,0,1440
1,note_on,55,84,0
1,note_on,55,0,1440
1,note_on,53,84,0
1,note_on,53,0,120
1,note_on,55,57,0
1,note_on,55,0,120
1,note_on,53,61,0
1,note_on,53,0,80
1,note_on,55,57,0
1,note_on,55,0,80
1,note_on,53,64,0
1,note_on,53,0,80
1,note_on,55,56,0
1,note_on,55,0,80
1,note_on,53,64,0
1,note_on,53,0,80
1,note_on,55,56,0
1,note_on,55,0,80
1,note_on,53,64,0
1,note_on,53,0,80
1,note_on,55,55,0
1,note_on,55,0,80
1,note_on,53,64,0
1,note_on,53,0,80
1,note_on,55,54,0
1,note_on,55,0,120
1,note_on,53,59,0
1,note_on,53,0,120
1,note_on,52,55,0
1,note_on,52,0,120
1,note_on,53,57,0
1,note_on,53,0,120
1,note_on,51,74,0
1,note_on,51,0,240
1,note_on,55,60,0
1,note_on,55,0,240
1,note_on,60,68,0
1,note_on,60,0,240
1,note_on,55,61,0
1,note_on,55,0,240
1,note_on,60,69,0
1,note_on,60,0,240
1,note_on,63,63,0
1,note_on,63,0,240
1,note_on,67,69,0
1,note_on,67,0,240
1,note_on,63,60,0
1,note_on,63,0,240
1,note_on,67,73,0
1,note_on,67,0,240
1,note_on,72,68,0
1,note_on,72,0,240
1,note_on,75,80,0
1,note_on,75,0,240
1,note_on,79,73,0
1,note_on,79,0,240
1,note_on,84,89,0
1,note_on,84,0,240
1,note_on,60,84,720
1,note_on,60,0,1440
1,note_on,52,81,0
1,note_on,52,0,480
1,note_on,53,84,0
1,note_on,53,0,960
1,note_on,60,84,0
1,note_on,60,0,480
1,note_on,54,92,0
1,note_on,54,0,960
1,note_on,60,84,0
1,note_on,60,0,480
1,note_on,55,88,0
1,note_on,55,0,240
1,note_on,60,62,0
1,note_on,60,0,240
1,note_on,59,74,0
1,note_on,59,0,240
1,note_on,60,62,0
1,note_on,60,0,240
1,note_on,55,72,0
1,note_on,55,0,240
1,note_on,60,62,0
1,note_on,60,0,240
1,note_on,56,82,0
1,note_on,56,0,240
1,note_on,60,62,0
1,note_on,60,0,240
1,note_on,59,73,0
1,note_on,59,0,240
1,note_on,60,64,0
1,note_on,60,0,240
1,note_on,54,73,0
1,note_on,54,0,240
1,note_on,60,62,0
1,note_on,60,0,240
1,note_on,55,88,0
1,note_on,55,0,240
1,note_on,60,63,0
1,note_on,60,0,240
1,note_on,59,73,0
1,note_on,59,0,240
1,note_on,60,62,0
1,note_on,60,0,240
1,note_on,52,74,0
1,note_on,52,0,240
1,note_on,60,65,0
1,note_on,60,0,240
1,note_on,53,88,0
1,note_on,53,0,240
1,note_on,60,64,0
1,note_on,60,0,240
1,note_on,56,71,0
1,note_on,56,0,240
1,note_on,60,65,0
1,note_on,60,0,240
1,note_on,54,80,0
1,note_on,54,0,240
1,note_on,60,72,0
1,note_on,60,0,240
1,note_on,55,93,0
1,note_on,55,0,480
1,note_on,67,81,360
1,note_on,67,0,120
1,note_on,75,87,0
1,note_on,75,0,360
1,note_on,72,84,0
1,note_on,72,0,120
1,note_on,78,93,0
1,note_on,78,0,120
1,note_on,66,81,720
1,note_on,66,0,120
1,note_on,75,87,0
1,note_on,75,0,360
1,note_on,72,84,0
1,note_on,72,0,120
1,note_on,79,93,0
1,note_on,79,0,120
1,note_on,67,81,720
1,note_on,67,0,120
1,note_on,75,87,0
1,note_on,75,0,360
1,note_on,72,84,0
1,note_on,72,0,120
1,note_on,81,93,0
1,note_on,81,0,120
1,note_on,69,81,720
1,note_on,69,0,120
1,note_on,75,87,0
1,note_on,75,0,360
1,note_on,72,84,0
1,note_on,72,0,120
1,note_on,79,95,0
1,note_on,79,0,720
1,note_on,75,85,0
1,note_on,75,0,240
1,note_on,75,93,0
1,note_on,75,0,240
1,note_on,72,79,0
1,note_on,72,0,180
1,note_on,72,88,60
1,note_on,72,0,240
1,note_on,67,78,0
1,note_on,67,0,180
1,note_on,67,85,60
1,note_on,67,0,240
1,note_on,63,77,0
1,note_on,63,0,180
1,note_on,63,81,60
1,note_on,63,0,240
1,note_on,60,77,0
1,note_on,60,0,180
1,note_on,55,66,2460
1,note_on,59,78,0
1,note_on,59,0,480
1,note_on,55,0,0
1,note_on,55,70,0
1,note_on,60,83,0
1,note_on,60,0,480
1,note_on,55,0,0
1,note_on,67,53,1440
1,note_on,62,42,0
1,note_on,65,42,0
1,note_on,59,42,0
1,note_on,59,0,480
1,note_on,67,0,0
1,note_on,62,0,0
1,note_on,65,0,0
1,note_on,59,38,0
1,note_on,62,38,0
1,note_on,65,38,0
1,note_on,67,48,0
1,note_on,67,0,480
1,note_on,59,0,0
1,note_on,62,0,0
1,note_on,65,0,0
1,note_on,60,42,0
1,note_on,63,42,0
1,note_on,68,53,0
1,note_on,68,0,480
1,note_on,67,49,0
1,note_on,67,0,480
1,note_on,63,0,0
1,note_on,60,0,0
1,note_on,62,42,960
1,note_on,65,42,0
1,note_on,71,53,0
1,note_on,71,0,480
1,note_on,65,0,0
1,note_on,62,0,0
1,note_on,62,38,0
1,note_on,65,38,0
1,note_on,71,48,0
1,note_on,71,0,480
1,note_on,65,0,0
1,note_on,62,0,0
1,note_on,63,42,0
1,note_on,67,42,0
1,note_on,74,53,0
1,note_on,74,0,480
1,note_on,72,49,0
1,note_on,72,0,480
1,note_on,67,0,0
1,note_on,63,0,0
1,note_on,59,42,960
1,note_on,62,42,0
1,note_on,65,42,0
1,note_on,67,53,0
1,note_on,67,0,480
1,note_on,59,0,0
1,note_on,62,0,0
1,note_on,65,0,0
1,note_on,67,48,0
1,note_on,62,38,0
1,note_on,65,38,0
1,note_on,59,38,0
1,note_on,59,0,480
1,note_on,67,0,0
1,note_on,62,0,0
1,note_on,65,0,0
1,note_on,60,42,0
1,note_on,63,42,0
1,note_on,68,53,0
1,note_on,68,0,480
1,note_on,67,49,0
1,note_on,67,0,480
1,note_on,63,0,0
1,note_on,60,0,0
1,note_on,50,42,960
1,note_on,53,42,0
1,note_on,59,53,0
1,note_on,59,0,480
1,note_on,53,0,0
1,note_on,50,0,0
1,note_on,50,38,0
1,note_on,53,38,0
1,note_on,59,48,0
1,note_on,59,0,480
1,note_on,53,0,0
1,note_on,50,0,0
1,note_on,51,42,0
1,note_on,55,42,0
1,note_on,62,53,0
1,note_on,62,0,480
1,note_on,60,49,0
1,note_on,60,0,480
1,note_on,55,0,0
1,note_on,51,0,0
1,note_on,50,42,960
1,note_on,53,42,0
1,note_on,59,53,0
1,note_on,59,0,480
1,note_on,53,0,0
1,note_on,50,0,0
1,note_on,50,38,0
1,note_on,53,38,0
1,note_on,59,48,0
1,note_on,59,0,480
1,note_on,53,0,0
1,note_on,50,0,0
1,note_on,51,42,0
1,note_on,55,42,0
1,note_on,60,53,0
1,note_on,60,0,480
1,note_on,55,0,0
1,note_on,51,0,0
1,note_on,67,82,960
1,note_on,71,82,0
1,note_on,74,82,0
1,note_on,79,97,0
1,note_on,79,0,480
1,note_on,67,0,0
1,note_on,71,0,0
1,note_on,74,0,0
1,note_on,60,82,960
1,note_on,63,82,0
1,note_on,67,82,0
1,note_on,72,97,0
1,note_on,72,0,480
1,note_on,60,0,0
1,note_on,63,0,0
1,note_on,67,0,0
2,note_on,60,70,0
2,note_on,55,59,0
2,note_on,51,59,0
2,note_on,48,59,0
2,note_on,48,0,720
2,note_on,60,0,0
2,note_on,55,0,0
2,note_on,51,0,0
2,note_on,60,34,3120
2,note_on,63,41,0
2,note_on,63,0,240
2,note_on,60,0,0
2,note_on,63,41,240
2,note_on,60,34,0
2,note_on,60,0,960
2,note_on,63,0,0
2,note_on,62,32,0
2,note_on,65,38,0
2,note_on,65,0,470
2,note_on,62,0,0
2,note_on,53,59,10
2,note_on,59,59,0
2,note_on,56,59,0
2,note_on,62,70,0
2,note_on,50,59,0
2,note_on,50,0,720
2,note_on,56,0,0
2,note_on,53,0,0
2,note_on,59,0,0
2,note_on,62,0,0
2,note_on,62,34,3120
2,note_on,68,41,0
2,note_on,65,34,0
2,note_on,65,0,240
2,note_on,68,0,0
2,note_on,62,0,0
2,note_on,68,41,240
2,note_on,65,34,0
2,note_on,62,34,0
2,note_on,62,0,960
2,note_on,65,0,0
2,note_on,68,0,0
2,note_on,67,38,0
2,note_on,63,32,0
2,note_on,63,0,480
2,note_on,67,0,0
2,note_on,60,35,960
2,note_on,55,29,0
2,note_on,51,29,0
2,note_on,51,0,480
2,note_on,55,0,0
2,note_on,60,0,0
2,note_on,53,33,0
2,note_on,56,33,0
2,note_on,59,39,0
2,note_on,59,0,960
2,note_on,56,0,0
2,note_on,53,0,0
2,note_on,60,34,0
2,note_on,55,28,0
2,note_on,51,28,0
2,note_on,51,0,480
2,note_on,55,0,0
2,note_on,60,0,0
2,note_on,63,29,960
2,note_on,67,35,0
2,note_on,67,0,480
2,note_on,63,0,0
2,note_on,68,39,0
2,note_on,65,33,0
2,note_on,65,0,960
2,note_on,68,0,0
2,note_on,63,28,0
2,note_on,67,34,0
2,note_on,67,0,480
2,note_on,63,0,0
2,note_on,55,39,960
2,note_on,60,47,0
2,note_on,51,39,0
2,note_on,51,0,480
2,note_on,60,0,0
2,note_on,55,0,0
2,note_on,59,53,0
2,note_on,53,45,0
2,note_on,56,45,0
2,note_on,56,0,960
2,note_on,53,0,0
2,note_on,59,0,0
2,note_on,55,46,0
2,note_on,51,39,0
2,note_on,51,0,480
2,note_on,55,0,0
2,note_on,50,46,0
2,note_on,53,56,0
2,note_on,53,0,960
2,note_on,50,0,0
2,note_on,51,49,0
2,note_on,48,41,0
2,note_on,48,0,480
2,note_on,51,0,0
2,note_on,50,47,0
2,note_on,47,55,0
2,note_on,47,0,480
2,note_on,50,0,0
2,note_on,56,34,1920
2,note_on,53,28,0
2,note_on,50,28,0
2,note_on,47,28,0
2,note_on,47,0,480
2,note_on,56,0,0
2,note_on,53,0,0
2,note_on,50,0,0
2,note_on,55,34,0
2,note_on,51,28,0
2,note_on,48,28,0
2,note_on,48,0,120
2,note_on,51,0,0
2,note_on,55,0,0
2,note_on,50,34,2280
2,note_on,44,28,0
2,note_on,41,28,0
2,note_on,41,0,480
2,note_on,44,0,0
2,note_on,50,0,0
2,note_on,48,28,0
2,note_on,43,28,0
2,note_on,51,34,0
2,note_on,51,0,120
2,note_on,43,0,0
2,note_on,48,0,0
2,note_on,43,73,2280
2,note_on,31,73,0
2,note_on,31,0,240
2,note_on,43,0,0
2,note_on,43,67,240
2,note_on,36,67,0
2,note_on,48,80,0
2,note_on,39,67,0
2,note_on,39,0,720
2,note_on,43,0,0
2,note_on,36,0,0
2,note_on,48,0,0
2,note_on,48,58,1680
2,note_on,55,69,0
2,note_on,51,58,0
2,note_on,51,0,120
2,note_on,55,0,0
2,note_on,48,0,0
2,note_on,47,58,360
2,note_on,50,58,0
2,note_on,55,69,0
2,note_on,55,0,120
2,note_on,50,0,0
2,note_on,47,0,0
2,note_on,55,69,2280
2,note_on,47,58,0
2,note_on,50,58,0
2,note_on,50,0,120
2,note_on,47,0,0
2,note_on,55,0,0
2,note_on,55,69,360
2,note_on,48,58,0
2,note_on,51,58,0
2,note_on,51,0,120
2,note_on,48,0,0
2,note_on,55,0,0
2,note_on,51,58,2280
2,note_on,60,69,0
2,note_on,55,58,0
2,note_on,55,0,120
2,note_on,60,0,0
2,note_on,51,0,0
2,note_on,56,58,360
2,note_on,62,69,0
2,note_on,53,58,0
2,note_on,53,0,120
2,note_on,62,0,0
2,note_on,56,0,0
2,note_on,62,69,1320
2,note_on,59,58,0
2,note_on,55,58,0
2,note_on,55,0,120
2,note_on,59,0,0
2,note_on,62,0,0
2,note_on,55,58,1320
2,note_on,48,58,0
2,note_on,60,69,0
2,note_on,51,58,0
2,note_on,51,0,120
2,note_on,55,0,0
2,note_on,48,0,0
2,note_on,60,0,0
2,note_on,63,69,2760
2,note_on,61,50,1440
2,note_on,61,0,1440
2,note_on,60,49,0
2,note_on,60,0,1440
2,note_on,63,0,0
2,note_on,61,34,0
2,note_on,58,28,0
2,note_on,58,0,1440
2,note_on,61,0,0
2,note_on,56,28,0
2,note_on,63,33,0
2,note_on,63,0,1440
2,note_on,56,0,0
2,note_on,70,50,0
2,note_on,72,60,0
2,note_on,70,0,1440
2,note_on,68,49,0
2,note_on,68,0,1440
2,note_on,72,0,0
2,note_on,67,28,0
2,note_on,70,34,0
2,note_on,70,0,1440
2,note_on,67,0,0
2,note_on,65,28,0
2,note_on,68,33,0
2,note_on,68,0,1440
2,note_on,65,0,0
2,note_on,66,50,0
2,note_on,68,60,0
2,note_on,66,0,1440
2,note_on,65,49,0
2,note_on,65,0,1440
2,note_on,68,0,0
2,note_on,63,44,0
2,note_on,66,44,0
2,note_on,66,0,1440
2,note_on,63,0,0
2,note_on,61,28,0
2,note_on,65,33,0
2,note_on,65,0,1440
2,note_on,61,0,0
2,note_on,59,42,0
2,note_on,63,48,0
2,note_on,63,0,1440
2,note_on,59,0,0
2,note_on,58,33,0
2,note_on,58,0,1440
2,note_on,57,33,0
2,note_on,57,0,1440
2,note_on,46,33,0
2,note_on,53,33,480
2,note_on,53,0,480
2,note_on,55,37,0
2,note_on,55,0,480
2,note_on,56,41,0
2,note_on,56,0,480
2,note_on,52,33,0
2,note_on,52,0,480
2,note_on,53,35,0
2,note_on,53,0,480
2,note_on,46,0,0
2,note_on,46,42,0
2,note_on,55,42,0
2,note_on,55,0,480
2,note_on,50,33,0
2,note_on,50,0,480
2,note_on,51,33,0
2,note_on,51,0,480
2,note_on,53,40,0
2,note_on,53,0,480
2,note_on,48,33,0
2,note_on,48,0,480
2,note_on,50,33,0
2,note_on,50,0,480
2,note_on,46,0,0
2,note_on,46,39,0
2,note_on,51,39,0
2,note_on,51,0,480
2,note_on,53,33,0
2,note_on,53,0,480
2,note_on,55,36,0
2,note_on,55,0,480
2,note_on,56,40,0
2,note_on,56,0,480
2,note_on,52,33,0
2,note_on,52,0,480
2,note_on,53,33,0
2,note_on,53,0,480
2,note_on,46,0,0
2,note_on,55,42,0
2,note_on,46,42,0
2,note_on,55,0,480
2,note_on,50,33,0
2,note_on,50,0,480
2,note_on,51,33,0
2,note_on,51,0,480
2,note_on,53,40,0
2,note_on,53,0,480
2,note_on,48,33,0
2,note_on,48,0,480
2,note_on,50,33,0
2,note_on,50,0,480
2,note_on,46,0,0
2,note_on,51,40,0
2,note_on,51,0,240
2,note_on,58,28,0
2,note_on,58,0,240
2,note_on,55,33,0
2,note_on,55,0,240
2,note_on,58,27,0
2,note_on,58,0,240
2,note_on,53,33,14
2,note_on,58,30,226
2,note_on,53,0,14
2,note_on,58,0,226
2,note_on,51,38,0
2,note_on,51,0,240
2,note_on,58,28,0
2,note_on,58,0,240
2,note_on,53,42,0
2,note_on,53,0,240
2,note_on,58,35,0
2,note_on,58,0,240
2,note_on,55,46,0
2,note_on,55,0,240
2,note_on,58,40,0
2,note_on,58,0,240
2,note_on,53,51,0
2,note_on,53,0,240
2,note_on,58,44,0
2,note_on,58,0,240
2,note_on,55,52,0
2,note_on,55,0,240
2,note_on,58,43,0
2,note_on,58,0,240
2,note_on,56,55,0
2,note_on,56,0,240
2,note_on,58,47,0
2,note_on,58,0,240
2,note_on,53,60,0
2,note_on,53,0,240
2,note_on,58,39,0
2,note_on,58,0,240
2,note_on,55,46,0
2,note_on,55,0,240
2,note_on,58,33,0
2,note_on,58,0,240
2,note_on,56,41,0
2,note_on,56,0,240
2,note_on,58,33,0
2,note_on,58,0,240
2,note_on,50,40,0
2,note_on,50,0,240
2,note_on,58,28,0
2,note_on,58,0,240
2,note_on,53,33,0
2,note_on,53,0,240
2,note_on,58,27,0
2,note_on,58,0,240
2,note_on,51,33,0
2,note_on,51,0,240
2,note_on,58,30,0
2,note_on,58,0,240
2,note_on,50,38,0
2,note_on,50,0,240
2,note_on,58,31,0
2,note_on,58,0,240
2,note_on,51,46,0
2,note_on,51,0,240
2,note_on,58,38,0
2,note_on,58,0,240
2,note_on,53,50,0
2,note_on,53,0,240
2,note_on,58,43,0
2,note_on,58,0,240
2,note_on,51,56,0
2,note_on,51,0,240
2,note_on,58,42,0
2,note_on,58,0,240
2,note_on,53,54,0
2,note_on,53,0,240
2,note_on,58,44,0
2,note_on,58,0,240
2,note_on,55,46,0
2,note_on,55,0,240
2,note_on,58,33,0
2,note_on,58,0,240
2,note_on,51,48,0
2,note_on,51,0,240
2,note_on,58,39,0
2,note_on,58,0,240
2,note_on,53,41,0
2,note_on,53,0,240
2,note_on,58,33,0
2,note_on,58,0,240
2,note_on,55,41,0
2,note_on,55,0,240
2,note_on,58,33,0
2,note_on,58,0,240
2,note_on,51,40,0
2,note_on,51,0,240
2,note_on,58,28,0
2,note_on,58,0,240
2,note_on,55,33,0
2,note_on,55,0,240
2,note_on,58,27,0
2,note_on,58,0,240
2,note_on,51,35,0
2,note_on,51,0,240
2,note_on,58,32,0
2,note_on,58,0,240
2,note_on,51,41,0
2,note_on,51,0,240
2,note_on,58,38,0
2,note_on,58,0,240
2,note_on,55,48,0
2,note_on,55,0,240
2,note_on,58,41,0
2,note_on,58,0,240
2,note_on,51,54,0
2,note_on,51,0,240
2,note_on,58,51,0
2,note_on,58,0,240
2,note_on,53,52,0
2,note_on,53,0,240
2,note_on,58,48,0
2,note_on,58,0,240
2,note_on,56,52,0
2,note_on,56,0,240
2,note_on,58,44,0
2,note_on,58,0,240
2,note_on,53,46,0
2,note_on,53,0,240
2,note_on,58,43,0
2,note_on,58,0,240
2,note_on,53,43,0
2,note_on,53,0,240
2,note_on,58,31,0
2,note_on,58,0,240
2,note_on,56,39,0
2,note_on,56,0,240
2,note_on,58,31,0
2,note_on,58,0,240
2,note_on,53,39,0
2,note_on,53,0,240
2,note_on,58,31,0
2,note_on,58,0,238
2,note_on,50,40,2
2,note_on,50,0,240
2,note_on,58,32,0
2,note_on,58,0,240
2,note_on,53,39,0
2,note_on,53,0,240
2,note_on,58,29,0
2,note_on,58,0,240
2,note_on,50,46,0
2,note_on,50,0,240
2,note_on,58,37,0
2,note_on,58,0,240
2,note_on,50,52,0
2,note_on,50,0,240
2,note_on,58,43,0
2,note_on,58,0,240
2,note_on,53,57,0
2,note_on,53,0,240
2,note_on,58,49,0
2,note_on,58,0,240
2,note_on,50,62,0
2,note_on,50,0,240
2,note_on,58,51,0
2,note_on,58,0,240
2,note_on,51,43,240
2,note_on,51,0,240
2,note_on,50,50,0
2,note_on,50,0,240
2,note_on,51,44,0
2,note_on,51,0,240
2,note_on,50,53,0
2,note_on,50,0,240
2,note_on,51,44,0
2,note_on,51,0,240
2,note_on,43,67,0
2,note_on,43,0,240
2,note_on,51,45,0
2,note_on,51,0,240
2,note_on,44,59,0
2,note_on,44,0,240
2,note_on,51,47,0
2,note_on,51,0,240
2,note_on,46,61,0
2,note_on,46,0,240
2,note_on,51,44,0
2,note_on,51,0,240
2,note_on,44,65,0
2,note_on,44,0,240
2,note_on,51,45,0
2,note_on,51,0,240
2,note_on,46,57,0
2,note_on,46,0,240
2,note_on,51,42,0
2,note_on,51,0,240
2,note_on,48,55,0
2,note_on,48,0,240
2,note_on,51,45,0
2,note_on,51,0,240
2,note_on,45,67,0
2,note_on,45,0,240
2,note_on,51,45,0
2,note_on,51,0,240
2,note_on,46,56,0
2,note_on,46,0,240
2,note_on,51,47,0
2,note_on,51,0,240
2,note_on,48,55,0
2,note_on,48,0,240
2,note_on,51,44,0
2,note_on,51,0,240
2,note_on,46,64,0
2,note_on,46,0,240
2,note_on,55,46,0
2,note_on,55,0,240
2,note_on,51,56,0
2,note_on,51,0,240
2,note_on,55,45,0
2,note_on,55,0,240
2,note_on,46,57,0
2,note_on,46,0,240
2,note_on,55,46,0
2,note_on,55,0,240
2,note_on,46,64,0
2,note_on,46,0,240
2,note_on,53,46,0
2,note_on,53,0,240
2,note_on,50,55,0
2,note_on,50,0,240
2,note_on,53,45,0
2,note_on,53,0,240
2,note_on,46,55,0
2,note_on,46,0,240
2,note_on,53,46,0
2,note_on,53,0,240
2,note_on,39,64,0
2,note_on,51,64,0
2,note_on,51,0,480
2,note_on,39,0,0
2,note_on,43,67,2400
2,note_on,43,0,240
2,note_on,51,45,0
2,note_on,51,0,240
2,note_on,44,59,0
2,note_on,44,0,240
2,note_on,51,47,0
2,note_on,51,0,240
2,note_on,46,61,0
2,note_on,46,0,240
2,note_on,51,44,0
2,note_on,51,0,240
2,note_on,43,67,0
2,note_on,43,0,240
2,note_on,51,45,0
2,note_on,51,0,240
2,note_on,44,57,0
2,note_on,44,0,240
2,note_on,51,52,0
2,note_on,51,0,240
2,note_on,46,61,0
2,note_on,46,0,240
2,note_on,51,44,0
2,note_on,51,0,240
2,note_on,44,65,0
2,note_on,44,0,240
2,note_on,51,45,0
2,note_on,51,0,240
2,note_on,46,58,0
2,note_on,46,0,240
2,note_on,51,42,0
2,note_on,51,0,240
2,note_on,48,57,0
2,note_on,48,0,240
2,note_on,51,45,0
2,note_on,51,0,240
2,note_on,45,67,0
2,note_on,45,0,240
2,note_on,51,45,0
2,note_on,51,0,240
2,note_on,46,56,0
2,note_on,46,0,240
2,note_on,51,47,0
2,note_on,51,0,240
2,note_on,48,58,0
2,note_on,48,0,240
2,note_on,51,44,0
2,note_on,51,0,240
2,note_on,46,67,0
2,note_on,46,0,240
2,note_on,51,52,0
2,note_on,51,0,240
2,note_on,50,61,0
2,note_on,50,0,240
2,note_on,51,48,0
2,note_on,51,0,240
2,note_on,47,62,0
2,note_on,47,0,240
2,note_on,51,53,0
2,note_on,51,0,240
2,note_on,48,71,0
2,note_on,48,0,240
2,note_on,51,54,0
2,note_on,51,0,240
2,note_on,50,65,0
2,note_on,50,0,240
2,note_on,51,52,0
2,note_on,51,0,240
2,note_on,45,64,0
2,note_on,45,0,240
2,note_on,51,49,0
2,note_on,51,0,240
2,note_on,46,77,0
2,note_on,46,0,240
2,note_on,51,58,0
2,note_on,51,0,240
2,note_on,49,65,0
2,note_on,49,0,240
2,note_on,51,56,0
2,note_on,51,0,240
2,note_on,47,70,0
2,note_on,47,0,240
2,note_on,51,54,0
2,note_on,51,0,240
2,note_on,48,77,0
2,note_on,48,0,240
2,note_on,51,57,0
2,note_on,51,0,240
2,note_on,50,63,0
2,note_on,50,0,240
2,note_on,51,58,0
2,note_on,51,0,240
2,note_on,45,71,0
2,note_on,45,0,240
2,note_on,51,65,0
2,note_on,51,0,240
2,note_on,46,82,0
2,note_on,46,0,480
2,note_on,46,77,0
2,note_on,51,77,0
2,note_on,55,87,0
2,note_on,55,0,120
2,note_on,51,0,0
2,note_on,46,0,0
2,note_on,51,77,1320
2,note_on,48,77,0
2,note_on,54,87,0
2,note_on,54,0,120
2,note_on,48,0,0
2,note_on,51,0,0
2,note_on,55,87,1320
2,note_on,46,77,0
2,note_on,51,77,0
2,note_on,51,0,120
2,note_on,46,0,0
2,note_on,55,0,0
2,note_on,57,87,1320
2,note_on,51,77,0
2,note_on,54,77,0
2,note_on,45,77,0
2,note_on,45,0,120
2,note_on,57,0,0
2,note_on,51,0,0
2,note_on,54,0,0
2,note_on,46,77,1320
2,note_on,58,87,0
2,note_on,55,77,0
2,note_on,51,77,0
2,note_on,51,0,120
2,note_on,46,0,0
2,note_on,58,0,0
2,note_on,55,0,0
2,note_on,58,81,2280
2,note_on,58,0,240
2,note_on,55,77,0
2,note_on,55,0,180
2,note_on,55,82,60
2,note_on,55,0,240
2,note_on,51,77,0
2,note_on,51,0,180
2,note_on,51,83,60
2,note_on,51,0,240
2,note_on,46,77,0
2,note_on,46,0,180
2,note_on,46,92,60
2,note_on,34,78,0
2,note_on,56,70,960
2,note_on,53,59,0
2,note_on,53,0,480
2,note_on,46,0,0
2,note_on,34,0,0
2,note_on,56,0,0
2,note_on,55,79,0
2,note_on,39,67,0
2,note_on,39,0,480
2,note_on,55,0,0
2,note_on,46,51,0
2,note_on,45,51,480
2,note_on,45,0,480
2,note_on,44,51,0
2,note_on,44,0,480
2,note_on,43,49,0
2,note_on,43,0,480
2,note_on,41,49,0
2,note_on,41,0,480
2,note_on,46,0,0
2,note_on,39,51,0
2,note_on,39,0,480
2,note_on,43,47,0
2,note_on,43,0,480
2,note_on,46,47,0
2,note_on,46,0,480
2,note_on,34,51,0
2,note_on,34,0,480
2,note_on,41,48,0
2,note_on,41,0,480
2,note_on,46,48,0
2,note_on,46,0,480
2,note_on,39,67,0
2,note_on,39,0,480
2,note_on,46,51,0
2,note_on,45,51,480
2,note_on,45,0,480
2,note_on,44,51,0
2,note_on,44,0,480
2,note_on,43,49,0
2,note_on,43,0,480
2,note_on,41,49,0
2,note_on,41,0,480
2,note_on,46,0,0
2,note_on,39,51,0
2,note_on,39,0,480
2,note_on,43,47,0
2,note_on,43,0,480
2,note_on,46,47,0
2,note_on,46,0,480
2,note_on,34,51,0
2,note_on,34,0,480
2,note_on,41,48,0
2,note_on,41,0,480
2,note_on,46,48,0
2,note_on,46,0,480
2,note_on,39,51,0
2,note_on,39,0,480
2,note_on,43,47,0
2,note_on,43,0,480
2,note_on,46,47,0
2,note_on,46,0,480
2,note_on,34,51,0
2,note_on,34,0,480
2,note_on,41,48,0
2,note_on,41,0,480
2,note_on,46,48,0
2,note_on,46,0,480
2,note_on,39,51,0
2,note_on,39,0,480
2,note_on,43,47,0
2,note_on,43,0,480
2,note_on,46,47,0
2,note_on,46,0,480
2,note_on,51,40,0
2,note_on,55,44,0
2,note_on,55,0,480
2,note_on,51,0,0
2,note_on,60,70,960
2,note_on,55,59,0
2,note_on,51,59,0
2,note_on,48,59,0
2,note_on,48,0,720
2,note_on,60,0,0
2,note_on,55,0,0
2,note_on,51,0,0
2,note_on,60,34,3120
2,note_on,63,41,0
2,note_on,63,0,240
2,note_on,60,0,0
2,note_on,63,41,240
2,note_on,60,34,0
2,note_on,60,0,960
2,note_on,63,0,0
2,note_on,62,32,0
2,note_on,65,38,0
2,note_on,65,0,470
2,note_on,62,0,0
2,note_on,53,59,10
2,note_on,59,59,0
2,note_on,56,59,0
2,note_on,62,70,0
2,note_on,50,59,0
2,note_on,50,0,720
2,note_on,56,0,0
2,note_on,53,0,0
2,note_on,59,0,0
2,note_on,62,0,0
2,note_on,62,34,3120
2,note_on,68,41,0
2,note_on,65,34,0
2,note_on,65,0,240
2,note_on,68,0,0
2,note_on,62,0,0
2,note_on,68,41,240
2,note_on,65,34,0
2,note_on,62,34,0
2,note_on,62,0,960
2,note_on,65,0,0
2,note_on,68,0,0
2,note_on,67,38,0
2,note_on,63,32,0
2,note_on,63,0,480
2,note_on,67,0,0
2,note_on,60,35,960
2,note_on,55,29,0
2,note_on,51,29,0
2,note_on,51,0,480
2,note_on,55,0,0
2,note_on,60,0,0
2,note_on,53,33,0
2,note_on,56,33,0
2,note_on,59,39,0
2,note_on,59,0,960
2,note_on,56,0,0
2,note_on,53,0,0
2,note_on,60,34,0
2,note_on,55,28,0
2,note_on,51,28,0
2,note_on,51,0,480
2,note_on,55,0,0
2,note_on,60,0,0
2,note_on,63,29,960
2,note_on,67,35,0
2,note_on,67,0,480
2,note_on,63,0,0
2,note_on,68,39,0
2,note_on,65,33,0
2,note_on,65,0,960
2,note_on,68,0,0
2,note_on,63,28,0
2,note_on,67,34,0
2,note_on,67,0,480
2,note_on,63,0,0
2,note_on,55,39,960
2,note_on,60,47,0
2,note_on,51,39,0
2,note_on,51,0,480
2,note_on,60,0,0
2,note_on,55,0,0
2,note_on,59,53,0
2,note_on,53,45,0
2,note_on,56,45,0
2,note_on,56,0,960
2,note_on,53,0,0
2,note_on,59,0,0
2,note_on,55,46,0
2,note_on,51,39,0
2,note_on,51,0,480
2,note_on,55,0,0
2,note_on,50,46,0
2,note_on,53,56,0
2,note_on,53,0,960
2,note_on,50,0,0
2,note_on,51,49,0
2,note_on,48,41,0
2,note_on,48,0,480
2,note_on,51,0,0
2,note_on,50,47,0
2,note_on,47,56,0
2,note_on,47,0,480
2,note_on,50,0,0
2,note_on,56,34,1920
2,note_on,53,28,0
2,note_on,50,28,0
2,note_on,47,28,0
2,note_on,47,0,480
2,note_on,56,0,0
2,note_on,53,0,0
2,note_on,50,0,0
2,note_on,55,34,0
2,note_on,51,28,0
2,note_on,48,28,0
2,note_on,48,0,120
2,note_on,51,0,0
2,note_on,55,0,0
2,note_on,50,34,2280
2,note_on,44,28,0
2,note_on,41,28,0
2,note_on,41,0,480
2,note_on,44,0,0
2,note_on,50,0,0
2,note_on,48,28,0
2,note_on,43,28,0
2,note_on,51,34,0
2,note_on,51,0,120
2,note_on,43,0,0
2,note_on,48,0,0
2,note_on,43,73,2280
2,note_on,31,73,0
2,note_on,31,0,240
2,note_on,43,0,0
2,note_on,43,67,240
2,note_on,36,67,0
2,note_on,48,80,0
2,note_on,39,67,0
2,note_on,39,0,720
2,note_on,43,0,0
2,note_on,36,0,0
2,note_on,48,0,0
2,note_on,48,58,1680
2,note_on,55,69,0
2,note_on,51,58,0
2,note_on,51,0,120
2,note_on,55,0,0
2,note_on,48,0,0
2,note_on,47,58,360
2,note_on,50,58,0
2,note_on,55,69,0
2,note_on,55,0,120
2,note_on,50,0,0
2,note_on,47,0,0
2,note_on,55,69,2280
2,note_on,47,58,0
2,note_on,50,58,0
2,note_on,50,0,120
2,note_on,47,0,0
2,note_on,55,0,0
2,note_on,55,69,360
2,note_on,48,58,0
2,note_on,51,58,0
2,note_on,51,0,120
2,note_on,48,0,0
2,note_on,55,0,0
2,note_on,51,58,2280
2,note_on,60,69,0
2,note_on,55,58,0
2,note_on,55,0,120
2,note_on,60,0,0
2,note_on,51,0,0
2,note_on,56,58,360
2,note_on,62,69,0
2,note_on,53,58,0
2,note_on,53,0,120
2,note_on,62,0,0
2,note_on,56,0,0
2,note_on,62,69,1320
2,note_on,59,58,0
2,note_on,55,58,0
2,note_on,55,0,120
2,note_on,59,0,0
2,note_on,62,0,0
2,note_on,55,58,1320
2,note_on,48,58,0
2,note_on,60,69,0
2,note_on,51,58,0
2,note_on,51,0,120
2,note_on,55,0,0
2,note_on,48,0,0
2,note_on,60,0,0
2,note_on,63,69,2760
2,note_on,61,50,1440
2,note_on,61,0,1440
2,note_on,60,49,0
2,note_on,60,0,1440
2,note_on,63,0,0
2,note_on,61,34,0
2,note_on,58,28,0
2,note_on,58,0,1440
2,note_on,61,0,0
2,note_on,56,28,0
2,note_on,63,33,0
2,note_on,63,0,1440
2,note_on,56,0,0
2,note_on,70,50,0
2,note_on,72,60,0
2,note_on,70,0,1440
2,note_on,68,49,0
2,note_on,68,0,1440
2,note_on,72,0,0
2,note_on,67,28,0
2,note_on,70,34,0
2,note_on,70,0,1440
2,note_on,67,0,0
2,note_on,65,28,0
2,note_on,68,33,0
2,note_on,68,0,1440
2,note_on,65,0,0
2,note_on,66,50,0
2,note_on,68,60,0
2,note_on,66,0,1440
2,note_on,65,49,0
2,note_on,65,0,1440
2,note_on,68,0,0
2,note_on,63,44,0
2,note_on,66,44,0
2,note_on,66,0,1440
2,note_on,63,0,0
2,note_on,61,28,0
2,note_on,65,33,0
2,note_on,65,0,1440
2,note_on,61,0,0
2,note_on,59,42,0
2,note_on,63,48,0
2,note_on,63,0,1440
2,note_on,59,0,0
2,note_on,58,33,0
2,note_on,58,0,1440
2,note_on,57,33,0
2,note_on,57,0,1440
2,note_on,46,33,0
2,note_on,53,33,480
2,note_on,53,0,480
2,note_on,55,37,0
2,note_on,55,0,480
2,note_on,56,41,0
2,note_on,56,0,480
2,note_on,52,33,0
2,note_on,52,0,480
2,note_on,53,35,0
2,note_on,53,0,480
2,note_on,46,0,0
2,note_on,46,42,0
2,note_on,55,42,0
2,note_on,55,0,480
2,note_on,50,33,0
2,note_on,50,0,480
2,note_on,51,33,0
2,note_on,51,0,480
2,note_on,53,40,0
2,note_on,53,0,480
2,note_on,48,33,0
2,note_on,48,0,480
2,note_on,50,33,0
2,note_on,50,0,480
2,note_on,46,0,0
2,note_on,46,39,0
2,note_on,51,39,0
2,note_on,51,0,480
2,note_on,53,33,0
2,note_on,53,0,480
2,note_on,55,36,0
2,note_on,55,0,480
2,note_on,56,40,0
2,note_on,56,0,480
2,note_on,52,33,0
2,note_on,52,0,480
2,note_on,53,33,0
2,note_on,53,0,480
2,note_on,46,0,0
2,note_on,55,42,0
2,note_on,46,42,0
2,note_on,55,0,480
2,note_on,50,33,0
2,note_on,50,0,480
2,note_on,51,33,0
2,note_on,51,0,480
2,note_on,53,40,0
2,note_on,53,0,480
2,note_on,48,33,0
2,note_on,48,0,480
2,note_on,50,33,0
2,note_on,50,0,480
2,note_on,46,0,0
2,note_on,51,40,0
2,note_on,51,0,240
2,note_on,58,28,0
2,note_on,58,0,240
2,note_on,55,33,0
2,note_on,55,0,240
2,note_on,58,27,0
2,note_on,58,0,240
2,note_on,53,33,14
2,note_on,58,30,226
2,note_on,53,0,14
2,note_on,58,0,226
2,note_on,51,38,0
2,note_on,51,0,240
2,note_on,58,33,0
2,note_on,58,0,240
2,note_on,53,45,0
2,note_on,53,0,240
2,note_on,58,37,0
2,note_on,58,0,240
2,note_on,55,48,0
2,note_on,55,0,240
2,note_on,58,43,0
2,note_on,58,0,240
2,note_on,53,55,0
2,note_on,53,0,240
2,note_on,58,40,0
2,note_on,58,0,240
2,note_on,55,48,0
2,note_on,55,0,240
2,note_on,58,30,0
2,note_on,58,0,240
2,note_on,56,40,0
2,note_on,56,0,240
2,note_on,58,33,0
2,note_on,58,0,240
2,note_on,53,39,0
2,note_on,53,0,240
2,note_on,58,33,0
2,note_on,58,0,240
2,note_on,55,41,0
2,note_on,55,0,240
2,note_on,58,33,0
2,note_on,58,0,240
2,note_on,56,41,0
2,note_on,56,0,240
2,note_on,58,33,0
2,note_on,58,0,240
2,note_on,50,40,0
2,note_on,50,0,240
2,note_on,58,28,0
2,note_on,58,0,240
2,note_on,53,33,0
2,note_on,53,0,240
2,note_on,58,27,0
2,note_on,58,0,240
2,note_on,51,38,0
2,note_on,51,0,240
2,note_on,58,34,0
2,note_on,58,0,240
2,note_on,50,38,0
2,note_on,50,0,240
2,note_on,58,34,0
2,note_on,58,0,240
2,note_on,51,46,0
2,note_on,51,0,240
2,note_on,58,39,0
2,note_on,58,0,240
2,note_on,53,48,0
2,note_on,53,0,240
2,note_on,58,44,0
2,note_on,58,0,240
2,note_on,51,55,0
2,note_on,51,0,240
2,note_on,58,43,0
2,note_on,58,0,240
2,note_on,53,52,0
2,note_on,53,0,240
2,note_on,58,37,0
2,note_on,58,0,240
2,note_on,55,46,0
2,note_on,55,0,240
2,note_on,58,33,0
2,note_on,58,0,240
2,note_on,51,44,0
2,note_on,51,0,240
2,note_on,58,39,0
2,note_on,58,0,240
2,note_on,53,41,0
2,note_on,53,0,240
2,note_on,58,33,0
2,note_on,58,0,240
2,note_on,55,41,0
2,note_on,55,0,240
2,note_on,58,33,0
2,note_on,58,0,240
2,note_on,51,40,0
2,note_on,51,0,240
2,note_on,58,28,0
2,note_on,58,0,240
2,note_on,55,33,0
2,note_on,55,0,240
2,note_on,58,27,0
2,note_on,58,0,240
2,note_on,51,40,0
2,note_on,51,0,240
2,note_on,58,31,0
2,note_on,58,0,240
2,note_on,51,43,0
2,note_on,51,0,240
2,note_on,58,38,0
2,note_on,58,0,240
2,note_on,55,52,0
2,note_on,55,0,240
2,note_on,58,45,0
2,note_on,58,0,240
2,note_on,51,54,0
2,note_on,51,0,240
2,note_on,58,47,0
2,note_on,58,0,240
2,note_on,53,52,0
2,note_on,53,0,240
2,note_on,58,43,0
2,note_on,58,0,240
2,note_on,56,51,0
2,note_on,56,0,240
2,note_on,58,40,0
2,note_on,58,0,240
2,note_on,53,46,0
2,note_on,53,0,240
2,note_on,58,37,0
2,note_on,58,0,240
2,note_on,53,37,0
2,note_on,53,0,240
2,note_on,58,31,0
2,note_on,58,0,240
2,note_on,56,39,0
2,note_on,56,0,240
2,note_on,58,31,0
2,note_on,58,0,240
2,note_on,53,39,0
2,note_on,53,0,240
2,note_on,58,31,0
2,note_on,58,0,238
2,note_on,50,40,2
2,note_on,50,0,240
2,note_on,58,32,0
2,note_on,58,0,240
2,note_on,53,39,0
2,note_on,53,0,240
2,note_on,58,29,0
2,note_on,58,0,240
2,note_on,50,45,0
2,note_on,50,0,240
2,note_on,58,36,0
2,note_on,58,0,240
2,note_on,50,48,0
2,note_on,50,0,240
2,note_on,58,40,0
2,note_on,58,0,240
2,note_on,53,53,0
2,note_on,53,0,240
2,note_on,58,45,0
2,note_on,58,0,240
2,note_on,50,60,0
2,note_on,50,0,240
2,note_on,58,50,0
2,note_on,58,0,240
2,note_on,51,43,240
2,note_on,51,0,240
2,note_on,50,61,0
2,note_on,50,0,240
2,note_on,51,48,0
2,note_on,51,0,240
2,note_on,50,60,0
2,note_on,50,0,240
2,note_on,51,50,0
2,note_on,51,0,240
2,note_on,43,67,0
2,note_on,43,0,240
2,note_on,51,45,0
2,note_on,51,0,240
2,note_on,44,59,0
2,note_on,44,0,240
2,note_on,51,51,0
2,note_on,51,0,240
2,note_on,46,60,0
2,note_on,46,0,240
2,note_on,51,44,0
2,note_on,51,0,240
2,note_on,44,65,0
2,note_on,44,0,240
2,note_on,51,49,0
2,note_on,51,0,240
2,note_on,46,60,0
2,note_on,46,0,240
2,note_on,51,47,0
2,note_on,51,0,240
2,note_on,48,59,0
2,note_on,48,0,240
2,note_on,51,48,0
2,note_on,51,0,240
2,note_on,45,67,0
2,note_on,45,0,240
2,note_on,51,49,0
2,note_on,51,0,240
2,note_on,46,59,0
2,note_on,46,0,240
2,note_on,51,47,0
2,note_on,51,0,240
2,note_on,48,57,0
2,note_on,48,0,240
2,note_on,51,44,0
2,note_on,51,0,240
2,note_on,46,64,0
2,note_on,46,0,240
2,note_on,55,46,0
2,note_on,55,0,240
2,note_on,51,57,0
2,note_on,51,0,240
2,note_on,55,45,0
2,note_on,55,0,240
2,note_on,46,56,0
2,note_on,46,0,240
2,note_on,55,56,0
2,note_on,55,0,240
2,note_on,46,64,0
2,note_on,46,0,240
2,note_on,53,46,0
2,note_on,53,0,240
2,note_on,50,56,0
2,note_on,50,0,240
2,note_on,53,45,0
2,note_on,53,0,240
2,note_on,46,58,0
2,note_on,46,0,240
2,note_on,53,53,0
2,note_on,53,0,240
2,note_on,39,64,0
2,note_on,51,64,0
2,note_on,51,0,480
2,note_on,39,0,0
2,note_on,43,67,2400
2,note_on,43,0,240
2,note_on,51,45,0
2,note_on,51,0,240
2,note_on,44,50,0
2,note_on,44,0,240
2,note_on,51,47,0
2,note_on,51,0,240
2,note_on,46,54,0
2,note_on,46,0,240
2,note_on,51,44,0
2,note_on,51,0,240
2,note_on,43,67,0
2,note_on,43,0,240
2,note_on,51,45,0
2,note_on,51,0,240
2,note_on,44,50,0
2,note_on,44,0,240
2,note_on,51,47,0
2,note_on,51,0,240
2,note_on,46,54,0
2,note_on,46,0,240
2,note_on,51,44,0
2,note_on,51,0,240
2,note_on,44,65,0
2,note_on,44,0,240
2,note_on,51,45,0
2,note_on,51,0,240
2,note_on,46,59,0
2,note_on,46,0,240
2,note_on,51,42,0
2,note_on,51,0,240
2,note_on,48,58,0
2,note_on,48,0,240
2,note_on,51,45,0
2,note_on,51,0,240
2,note_on,45,67,0
2,note_on,45,0,240
2,note_on,51,45,0
2,note_on,51,0,240
2,note_on,46,60,0
2,note_on,46,0,240
2,note_on,51,47,0
2,note_on,51,0,240
2,note_on,48,58,0
2,note_on,48,0,240
2,note_on,51,44,0
2,note_on,51,0,240
2,note_on,46,67,0
2,note_on,46,0,240
2,note_on,51,53,0
2,note_on,51,0,240
2,note_on,50,61,0
2,note_on,50,0,240
2,note_on,51,48,0
2,note_on,51,0,240
2,note_on,47,61,0
2,note_on,47,0,240
2,note_on,51,49,0
2,note_on,51,0,240
2,note_on,48,71,0
2,note_on,48,0,240
2,note_on,51,52,0
2,note_on,51,0,240
2,note_on,50,63,0
2,note_on,50,0,240
2,note_on,51,55,0
2,note_on,51,0,240
2,note_on,45,66,0
2,note_on,45,0,240
2,note_on,51,49,0
2,note_on,51,0,240
2,note_on,46,77,0
2,note_on,46,0,240
2,note_on,51,56,0
2,note_on,51,0,240
2,note_on,49,66,0
2,note_on,49,0,240
2,note_on,51,54,0
2,note_on,51,0,240
2,note_on,47,67,0
2,note_on,47,0,240
2,note_on,51,56,0
2,note_on,51,0,240
2,note_on,48,77,0
2,note_on,48,0,240
2,note_on,51,58,0
2,note_on,51,0,240
2,note_on,50,63,0
2,note_on,50,0,240
2,note_on,51,58,0
2,note_on,51,0,240
2,note_on,45,71,0
2,note_on,45,0,240
2,note_on,51,65,0
2,note_on,51,0,240
2,note_on,46,82,0
2,note_on,46,0,480
2,note_on,46,77,0
2,note_on,51,77,0
2,note_on,55,87,0
2,note_on,55,0,120
2,note_on,51,0,0
2,note_on,46,0,0
2,note_on,51,77,1320
2,note_on,48,77,0
2,note_on,54,87,0
2,note_on,54,0,120
2,note_on,48,0,0
2,note_on,51,0,0
2,note_on,55,87,1320
2,note_on,46,77,0
2,note_on,51,77,0
2,note_on,51,0,120
2,note_on,46,0,0
2,note_on,55,0,0
2,note_on,57,87,1320
2,note_on,51,77,0
2,note_on,54,77,0
2,note_on,45,77,0
2,note_on,45,0,120
2,note_on,57,0,0
2,note_on,51,0,0
2,note_on,54,0,0
2,note_on,46,77,1320
2,note_on,58,87,0
2,note_on,55,77,0
2,note_on,51,77,0
2,note_on,51,0,120
2,note_on,46,0,0
2,note_on,58,0,0
2,note_on,55,0,0
2,note_on,58,81,2280
2,note_on,58,0,240
2,note_on,55,77,0
2,note_on,55,0,180
2,note_on,55,82,60
2,note_on,55,0,240
2,note_on,51,77,0
2,note_on,51,0,180
2,note_on,51,83,60
2,note_on,51,0,240
2,note_on,46,77,0
2,note_on,46,0,180
2,note_on,46,92,60
2,note_on,34,78,0
2,note_on,56,70,960
2,note_on,53,59,0
2,note_on,53,0,480
2,note_on,46,0,0
2,note_on,34,0,0
2,note_on,56,0,0
2,note_on,55,79,0
2,note_on,39,67,0
2,note_on,39,0,480
2,note_on,55,0,0
2,note_on,46,51,0
2,note_on,45,51,480
2,note_on,45,0,480
2,note_on,44,51,0
2,note_on,44,0,480
2,note_on,43,49,0
2,note_on,43,0,480
2,note_on,41,49,0
2,note_on,41,0,480
2,note_on,46,0,0
2,note_on,39,51,0
2,note_on,39,0,480
2,note_on,43,47,0
2,note_on,43,0,480
2,note_on,46,47,0
2,note_on,46,0,480
2,note_on,34,51,0
2,note_on,34,0,480
2,note_on,41,48,0
2,note_on,41,0,480
2,note_on,46,48,0
2,note_on,46,0,480
2,note_on,39,67,0
2,note_on,39,0,480
2,note_on,46,51,0
2,note_on,45,51,480
2,note_on,45,0,480
2,note_on,44,51,0
2,note_on,44,0,480
2,note_on,43,49,0
2,note_on,43,0,480
2,note_on,41,49,0
2,note_on,41,0,480
2,note_on,46,0,0
2,note_on,39,51,0
2,note_on,39,0,480
2,note_on,43,47,0
2,note_on,43,0,480
2,note_on,46,47,0
2,note_on,46,0,480
2,note_on,34,51,0
2,note_on,34,0,480
2,note_on,41,48,0
2,note_on,41,0,480
2,note_on,46,48,0
2,note_on,46,0,480
2,note_on,39,51,0
2,note_on,39,0,480
2,note_on,43,47,0
2,note_on,43,0,480
2,note_on,46,47,0
2,note_on,46,0,480
2,note_on,34,51,0
2,note_on,34,0,480
2,note_on,41,48,0
2,note_on,41,0,480
2,note_on,46,48,0
2,note_on,46,0,480
2,note_on,39,51,0
2,note_on,39,0,480
2,note_on,43,47,0
2,note_on,43,0,480
2,note_on,46,47,0
2,note_on,46,0,480
2,note_on,51,40,0
2,note_on,55,44,0
2,note_on,55,0,480
2,note_on,51,0,0
2,note_on,60,70,960
2,note_on,55,59,0
2,note_on,52,59,0
2,note_on,48,59,0
2,note_on,48,0,720
2,note_on,60,0,0
2,note_on,55,0,0
2,note_on,52,0,0
2,note_on,64,34,3120
2,note_on,67,41,0
2,note_on,67,0,240
2,note_on,64,0,0
2,note_on,67,41,240
2,note_on,64,34,0
2,note_on,64,0,960
2,note_on,67,0,0
2,note_on,65,32,0
2,note_on,68,38,0
2,note_on,68,0,470
2,note_on,65,0,0
2,note_on,65,34,10
2,note_on,68,41,0
2,note_on,68,0,720
2,note_on,65,0,0
2,note_on,65,34,3120
2,note_on,68,41,0
2,note_on,68,0,240
2,note_on,65,0,0
2,note_on,68,41,240
2,note_on,65,34,0
2,note_on,65,0,960
2,note_on,68,0,0
2,note_on,67,32,0
2,note_on,70,38,0
2,note_on,70,0,470
2,note_on,67,0,0
2,note_on,67,34,10
2,note_on,70,41,0
2,note_on,70,0,720
2,note_on,67,0,0
2,note_on,53,40,5040
2,note_on,53,0,240
2,note_on,60,32,0
2,note_on,60,0,240
2,note_on,56,34,0
2,note_on,56,0,240
2,note_on,60,32,0
2,note_on,60,0,240
2,note_on,53,34,0
2,note_on,53,0,240
2,note_on,60,32,0
2,note_on,60,0,240
2,note_on,53,40,0
2,note_on,53,0,240
2,note_on,60,33,0
2,note_on,60,0,240
2,note_on,56,34,0
2,note_on,56,0,240
2,note_on,60,32,0
2,note_on,60,0,240
2,note_on,53,35,0
2,note_on,53,0,240
2,note_on,60,32,0
2,note_on,60,0,240
2,note_on,55,40,0
2,note_on,55,0,240
2,note_on,60,32,0
2,note_on,60,0,240
2,note_on,58,34,0
2,note_on,58,0,240
2,note_on,60,32,0
2,note_on,60,0,240
2,note_on,55,37,0
2,note_on,55,0,240
2,note_on,60,32,0
2,note_on,60,0,240
2,note_on,52,32,0
2,note_on,52,0,240
2,note_on,60,32,0
2,note_on,60,0,240
2,note_on,55,35,0
2,note_on,55,0,240
2,note_on,60,32,0
2,note_on,60,0,240
2,note_on,52,37,0
2,note_on,52,0,240
2,note_on,60,32,0
2,note_on,60,0,240
2,note_on,48,40,0
2,note_on,48,0,240
2,note_on,60,31,0
2,note_on,60,0,240
2,note_on,52,36,0
2,note_on,52,0,240
2,note_on,60,32,0
2,note_on,60,0,240
2,note_on,55,38,0
2,note_on,55,0,240
2,note_on,60,33,0
2,note_on,60,0,240
2,note_on,52,45,0
2,note_on,52,0,240
2,note_on,60,35,0
2,note_on,60,0,240
2,note_on,55,38,0
2,note_on,55,0,240
2,note_on,60,31,0
2,note_on,60,0,240
2,note_on,58,37,0
2,note_on,58,0,240
2,note_on,60,31,0
2,note_on,60,0,240
2,note_on,53,45,0
2,note_on,53,0,240
2,note_on,60,31,0
2,note_on,60,0,240
2,note_on,56,36,0
2,note_on,56,0,240
2,note_on,60,31,0
2,note_on,60,0,240
2,note_on,53,36,0
2,note_on,53,0,240
2,note_on,60,31,0
2,note_on,60,0,240
2,note_on,53,40,0
2,note_on,53,0,240
2,note_on,60,30,0
2,note_on,60,0,240
2,note_on,52,42,0
2,note_on,52,0,240
2,note_on,53,40,0
2,note_on,53,0,240
2,note_on,51,49,0
2,note_on,51,0,240
2,note_on,53,43,0
2,note_on,53,0,240
2,note_on,49,52,0
2,note_on,49,0,240
2,note_on,53,38,0
2,note_on,53,0,240
2,note_on,48,43,0
2,note_on,48,0,240
2,note_on,53,32,0
2,note_on,53,0,240
2,note_on,49,38,0
2,note_on,49,0,240
2,note_on,53,32,0
2,note_on,53,0,240
2,note_on,46,45,0
2,note_on,46,0,240
2,note_on,53,33,0
2,note_on,53,0,240
2,note_on,48,34,0
2,note_on,48,0,240
2,note_on,53,32,0
2,note_on,53,0,240
2,note_on,49,35,0
2,note_on,49,0,240
2,note_on,53,32,0
2,note_on,53,0,240
2,note_on,48,46,0
2,note_on,48,0,240
2,note_on,53,32,0
2,note_on,53,0,240
2,note_on,51,34,0
2,note_on,51,0,240
2,note_on,53,32,0
2,note_on,53,0,240
2,note_on,48,37,0
2,note_on,48,0,240
2,note_on,53,32,0
2,note_on,53,0,240
2,note_on,45,40,0
2,note_on,45,0,240
2,note_on,53,32,0
2,note_on,53,0,240
2,note_on,48,35,0
2,note_on,48,0,240
2,note_on,53,32,0
2,note_on,53,0,240
2,note_on,45,37,0
2,note_on,45,0,240
2,note_on,53,32,0
2,note_on,53,0,240
2,note_on,41,40,0
2,note_on,41,0,240
2,note_on,53,31,0
2,note_on,53,0,240
2,note_on,45,45,0
2,note_on,45,0,240
2,note_on,53,37,0
2,note_on,53,0,240
2,note_on,48,46,0
2,note_on,48,0,240
2,note_on,53,39,0
2,note_on,53,0,240
2,note_on,45,51,0
2,note_on,45,0,240
2,note_on,53,44,0
2,note_on,53,0,240
2,note_on,48,38,0
2,note_on,48,0,240
2,note_on,53,31,0
2,note_on,53,0,240
2,note_on,51,37,0
2,note_on,51,0,240
2,note_on,53,31,0
2,note_on,53,0,240
2,note_on,46,45,0
2,note_on,46,0,240
2,note_on,53,31,0
2,note_on,53,0,240
2,note_on,49,36,0
2,note_on,49,0,240
2,note_on,53,31,0
2,note_on,53,0,240
2,note_on,46,36,0
2,note_on,46,0,240
2,note_on,53,31,0
2,note_on,53,0,240
2,note_on,46,40,0
2,note_on,46,0,240
2,note_on,53,30,0
2,note_on,53,0,240
2,note_on,49,33,0
2,note_on,49,0,240
2,note_on,53,30,0
2,note_on,53,0,240
2,note_on,46,33,0
2,note_on,46,0,240
2,note_on,53,30,0
2,note_on,53,0,240
2,note_on,44,40,0
2,note_on,44,0,240
2,note_on,54,32,0
2,note_on,54,0,240
2,note_on,51,48,0
2,note_on,51,0,240
2,note_on,54,40,0
2,note_on,54,0,240
2,note_on,44,51,0
2,note_on,44,0,240
2,note_on,54,46,0
2,note_on,54,0,240
2,note_on,44,52,0
2,note_on,44,0,240
2,note_on,54,40,0
2,note_on,54,0,240
2,note_on,48,40,0
2,note_on,48,0,240
2,note_on,54,35,0
2,note_on,54,0,240
2,note_on,44,40,0
2,note_on,44,0,240
2,note_on,54,34,0
2,note_on,54,0,240
2,note_on,49,40,0
2,note_on,53,40,0
2,note_on,53,0,480
2,note_on,49,0,0
2,note_on,68,45,960
2,note_on,68,0,480
2,note_on,66,38,0
2,note_on,66,0,480
2,note_on,63,38,0
2,note_on,63,0,480
2,note_on,65,45,0
2,note_on,65,0,480
2,note_on,64,38,0
2,note_on,64,0,480
2,note_on,66,38,0
2,note_on,66,0,480
2,note_on,65,45,0
2,note_on,65,0,480
2,note_on,63,38,0
2,note_on,63,0,480
2,note_on,60,38,0
2,note_on,60,0,480
2,note_on,61,45,0
2,note_on,61,0,480
2,note_on,60,38,0
2,note_on,60,0,480
2,note_on,63,38,0
2,note_on,63,0,480
2,note_on,61,45,0
2,note_on,61,0,480
2,note_on,60,38,0
2,note_on,60,0,480
2,note_on,57,38,0
2,note_on,57,0,480
2,note_on,58,45,0
2,note_on,58,0,480
2,note_on,61,37,0
2,note_on,61,0,480
2,note_on,56,37,0
2,note_on,56,0,480
2,note_on,55,45,0
2,note_on,55,0,480
2,note_on,58,43,0
2,note_on,58,0,480
2,note_on,53,48,0
2,note_on,53,0,480
2,note_on,52,53,0
2,note_on,52,0,480
2,note_on,55,44,0
2,note_on,55,0,480
2,note_on,50,44,0
2,note_on,50,0,480
2,note_on,48,52,0
2,note_on,48,0,480
2,note_on,50,44,0
2,note_on,50,0,480
2,note_on,52,44,0
2,note_on,52,0,480
2,note_on,53,53,0
2,note_on,53,0,480
2,note_on,56,45,0
2,note_on,56,0,480
2,note_on,51,45,0
2,note_on,51,0,480
2,note_on,50,45,0
2,note_on,50,0,480
2,note_on,53,43,0
2,note_on,53,0,480
2,note_on,48,48,0
2,note_on,48,0,480
2,note_on,47,56,0
2,note_on,47,0,480
2,note_on,50,46,0
2,note_on,50,0,480
2,note_on,45,46,0
2,note_on,45,0,480
2,note_on,43,55,0
2,note_on,43,0,480
2,note_on,45,48,0
2,note_on,45,0,480
2,note_on,47,48,0
2,note_on,47,0,480
2,note_on,48,62,0
2,note_on,48,0,480
2,note_on,51,52,0
2,note_on,51,0,480
2,note_on,46,52,0
2,note_on,46,0,480
2,note_on,44,61,0
2,note_on,44,0,480
2,note_on,48,53,0
2,note_on,48,0,480
2,note_on,43,53,0
2,note_on,43,0,480
2,note_on,41,61,0
2,note_on,41,0,480
2,note_on,44,53,0
2,note_on,44,0,480
2,note_on,39,53,0
2,note_on,39,0,480
2,note_on,38,70,0
2,note_on,38,0,480
2,note_on,41,60,0
2,note_on,41,0,480
2,note_on,36,60,0
2,note_on,36,0,480
2,note_on,35,70,0
2,note_on,35,0,480
2,note_on,38,60,0
2,note_on,38,0,480
2,note_on,33,60,0
2,note_on,33,0,480
2,note_on,31,66,0
2,note_on,31,0,480
2,note_on,33,57,0
2,note_on,33,0,480
2,note_on,35,57,0
2,note_on,35,0,480
2,note_on,36,62,0
2,note_on,36,0,480
2,note_on,38,57,0
2,note_on,38,0,480
2,note_on,39,62,0
2,note_on,39,0,480
2,note_on,41,57,0
2,note_on,41,0,960
2,note_on,42,50,0
2,note_on,42,0,480
2,note_on,43,57,0
2,note_on,43,0,240
2,note_on,55,54,240
2,note_on,55,0,480
2,note_on,55,45,960
2,note_on,55,0,480
2,note_on,55,46,960
2,note_on,55,0,480
2,note_on,55,47,960
2,note_on,55,0,480
2,note_on,43,47,960
2,note_on,43,0,480
2,note_on,43,39,960
2,note_on,43,0,480
2,note_on,43,38,960
2,note_on,43,0,480
2,note_on,43,37,960
2,note_on,43,0,480
2,note_on,31,36,960
2,note_on,43,36,0
2,note_on,43,0,480
2,note_on,31,0,0
2,note_on,31,28,960
2,note_on,43,33,0
2,note_on,43,0,480
2,note_on,31,0,0
2,note_on,48,70,480
2,note_on,43,59,0
2,note_on,39,59,0
2,note_on,36,59,0
2,note_on,36,0,720
2,note_on,48,0,0
2,note_on,43,0,0
2,note_on,39,0,0
2,note_on,60,34,3120
2,note_on,63,41,0
2,note_on,63,0,240
2,note_on,60,0,0
2,note_on,63,41,240
2,note_on,60,34,0
2,note_on,60,0,960
2,note_on,63,0,0
2,note_on,62,32,0
2,note_on,65,38,0
2,note_on,65,0,470
2,note_on,62,0,0
2,note_on,53,59,10
2,note_on,59,59,0
2,note_on,56,59,0
2,note_on,62,70,0
2,note_on,50,59,0
2,note_on,50,0,720
2,note_on,56,0,0
2,note_on,53,0,0
2,note_on,59,0,0
2,note_on,62,0,0
2,note_on,62,34,3120
2,note_on,68,41,0
2,note_on,65,34,0
2,note_on,65,0,240
2,note_on,68,0,0
2,note_on,62,0,0
2,note_on,68,41,240
2,note_on,65,34,0
2,note_on,62,34,0
2,note_on,62,0,960
2,note_on,65,0,0
2,note_on,68,0,0
2,note_on,67,38,0
2,note_on,63,32,0
2,note_on,63,0,480
2,note_on,67,0,0
2,note_on,60,35,960
2,note_on,55,29,0
2,note_on,51,29,0
2,note_on,51,0,480
2,note_on,55,0,0
2,note_on,60,0,0
2,note_on,53,33,0
2,note_on,56,33,0
2,note_on,59,39,0
2,note_on,59,0,960
2,note_on,56,0,0
2,note_on,53,0,0
2,note_on,60,34,0
2,note_on,55,28,0
2,note_on,51,28,0
2,note_on,51,0,480
2,note_on,55,0,0
2,note_on,60,0,0
2,note_on,63,29,960
2,note_on,67,35,0
2,note_on,67,0,480
2,note_on,63,0,0
2,note_on,68,39,0
2,note_on,65,33,0
2,note_on,65,0,960
2,note_on,68,0,0
2,note_on,63,28,0
2,note_on,67,34,0
2,note_on,67,0,480
2,note_on,63,0,0
2,note_on,55,39,960
2,note_on,60,47,0
2,note_on,51,39,0
2,note_on,51,0,480
2,note_on,60,0,0
2,note_on,55,0,0
2,note_on,59,53,0
2,note_on,53,45,0
2,note_on,56,45,0
2,note_on,56,0,960
2,note_on,53,0,0
2,note_on,59,0,0
2,note_on,55,46,0
2,note_on,51,39,0
2,note_on,51,0,480
2,note_on,55,0,0
2,note_on,50,46,0
2,note_on,53,56,0
2,note_on,53,0,960
2,note_on,50,0,0
2,note_on,51,49,0
2,note_on,48,41,0
2,note_on,48,0,480
2,note_on,51,0,0
2,note_on,50,47,0
2,note_on,47,56,0
2,note_on,47,0,480
2,note_on,50,0,0
2,note_on,56,34,1920
2,note_on,53,28,0
2,note_on,50,28,0
2,note_on,47,28,0
2,note_on,47,0,480
2,note_on,56,0,0
2,note_on,53,0,0
2,note_on,50,0,0
2,note_on,55,34,0
2,note_on,51,28,0
2,note_on,48,28,0
2,note_on,48,0,120
2,note_on,51,0,0
2,note_on,55,0,0
2,note_on,50,34,2280
2,note_on,44,28,0
2,note_on,41,28,0
2,note_on,41,0,480
2,note_on,44,0,0
2,note_on,50,0,0
2,note_on,48,28,0
2,note_on,43,28,0
2,note_on,51,34,0
2,note_on,51,0,120
2,note_on,43,0,0
2,note_on,48,0,0
2,note_on,43,73,2280
2,note_on,31,73,0
2,note_on,31,0,240
2,note_on,43,0,0
2,note_on,36,67,240
2,note_on,48,80,0
2,note_on,48,0,240
2,note_on,36,0,0
2,note_on,61,69,2640
2,note_on,59,50,1440
2,note_on,59,0,1440
2,note_on,58,49,0
2,note_on,58,0,1440
2,note_on,61,0,0
2,note_on,59,34,0
2,note_on,56,28,0
2,note_on,56,0,1440
2,note_on,59,0,0
2,note_on,54,28,0
2,note_on,61,33,0
2,note_on,61,0,1440
2,note_on,54,0,0
2,note_on,71,50,0
2,note_on,73,60,0
2,note_on,71,0,1440
2,note_on,70,49,0
2,note_on,70,0,1440
2,note_on,73,0,0
2,note_on,68,28,0
2,note_on,71,34,0
2,note_on,71,0,1440
2,note_on,68,0,0
2,note_on,66,28,0
2,note_on,73,33,0
2,note_on,73,0,1440
2,note_on,66,0,0
2,note_on,68,50,0
2,note_on,70,60,0
2,note_on,68,0,1440
2,note_on,66,49,0
2,note_on,66,0,1440
2,note_on,70,0,0
2,note_on,65,44,0
2,note_on,68,44,0
2,note_on,68,0,1440
2,note_on,65,0,0
2,note_on,63,28,0
2,note_on,66,33,0
2,note_on,66,0,1440
2,note_on,63,0,0
2,note_on,61,42,0
2,note_on,65,48,0
2,note_on,65,0,1440
2,note_on,61,0,0
2,note_on,67,33,0
2,note_on,60,28,0
2,note_on,60,0,1440
2,note_on,67,0,0
2,note_on,59,33,0
2,note_on,59,0,1440
2,note_on,60,42,0
2,note_on,48,33,0
2,note_on,60,0,480
2,note_on,55,33,0
2,note_on,55,0,480
2,note_on,56,37,0
2,note_on,56,0,480
2,note_on,58,41,0
2,note_on,58,0,480
2,note_on,53,33,0
2,note_on,53,0,480
2,note_on,55,35,0
2,note_on,55,0,480
2,note_on,48,0,0
2,note_on,48,42,0
2,note_on,56,42,0
2,note_on,56,0,480
2,note_on,52,33,0
2,note_on,52,0,480
2,note_on,53,33,0
2,note_on,53,0,480
2,note_on,55,40,0
2,note_on,55,0,480
2,note_on,50,33,0
2,note_on,50,0,480
2,note_on,52,33,0
2,note_on,52,0,480
2,note_on,48,0,0
2,note_on,48,39,0
2,note_on,53,39,0
2,note_on,53,0,480
2,note_on,55,33,0
2,note_on,55,0,480
2,note_on,57,36,0
2,note_on,57,0,480
2,note_on,58,40,0
2,note_on,58,0,480
2,note_on,54,33,0
2,note_on,54,0,480
2,note_on,55,33,0
2,note_on,55,0,480
2,note_on,48,0,0
2,note_on,57,42,0
2,note_on,48,42,0
2,note_on,57,0,480
2,note_on,52,33,0
2,note_on,52,0,480
2,note_on,53,33,0
2,note_on,53,0,480
2,note_on,55,40,0
2,note_on,55,0,480
2,note_on,50,33,0
2,note_on,50,0,480
2,note_on,52,33,0
2,note_on,52,0,480
2,note_on,48,0,0
2,note_on,53,40,0
2,note_on,53,0,240
2,note_on,60,28,0
2,note_on,60,0,240
2,note_on,57,33,0
2,note_on,57,0,240
2,note_on,60,27,0
2,note_on,60,0,240
2,note_on,55,33,14
2,note_on,60,30,226
2,note_on,55,0,14
2,note_on,60,0,226
2,note_on,53,38,0
2,note_on,53,0,240
2,note_on,60,28,0
2,note_on,60,0,240
2,note_on,55,43,0
2,note_on,55,0,240
2,note_on,60,38,0
2,note_on,60,0,240
2,note_on,57,51,0
2,note_on,57,0,240
2,note_on,60,41,0
2,note_on,60,0,240
2,note_on,55,53,0
2,note_on,55,0,240
2,note_on,60,40,0
2,note_on,60,0,240
2,note_on,57,45,0
2,note_on,57,0,240
2,note_on,60,35,0
2,note_on,60,0,240
2,note_on,58,40,0
2,note_on,58,0,240
2,note_on,60,33,0
2,note_on,60,0,240
2,note_on,55,39,0
2,note_on,55,0,240
2,note_on,60,33,0
2,note_on,60,0,240
2,note_on,57,41,0
2,note_on,57,0,240
2,note_on,60,33,0
2,note_on,60,0,240
2,note_on,58,41,0
2,note_on,58,0,240
2,note_on,60,33,0
2,note_on,60,0,240
2,note_on,52,40,0
2,note_on,52,0,240
2,note_on,60,28,0
2,note_on,60,0,240
2,note_on,55,33,0
2,note_on,55,0,240
2,note_on,60,27,0
2,note_on,60,0,240
2,note_on,53,33,0
2,note_on,53,0,240
2,note_on,60,30,0
2,note_on,60,0,240
2,note_on,52,38,0
2,note_on,52,0,240
2,note_on,60,28,0
2,note_on,60,0,240
2,note_on,53,47,0
2,note_on,53,0,240
2,note_on,60,41,0
2,note_on,60,0,240
2,note_on,55,49,0
2,note_on,55,0,240
2,note_on,60,40,0
2,note_on,60,0,240
2,note_on,53,54,0
2,note_on,53,0,240
2,note_on,60,43,0
2,note_on,60,0,240
2,note_on,55,45,0
2,note_on,55,0,240
2,note_on,60,37,0
2,note_on,60,0,240
2,note_on,57,46,0
2,note_on,57,0,240
2,note_on,60,33,0
2,note_on,60,0,240
2,note_on,53,44,0
2,note_on,53,0,240
2,note_on,60,39,0
2,note_on,60,0,240
2,note_on,55,41,14
2,note_on,60,33,226
2,note_on,55,0,14
2,note_on,60,0,226
2,note_on,57,41,0
2,note_on,57,0,240
2,note_on,60,33,0
2,note_on,60,0,240
2,note_on,53,40,0
2,note_on,53,0,240
2,note_on,60,28,0
2,note_on,60,0,240
2,note_on,57,33,0
2,note_on,57,0,240
2,note_on,60,27,0
2,note_on,60,0,240
2,note_on,53,34,0
2,note_on,53,0,240
2,note_on,60,31,0
2,note_on,60,0,240
2,note_on,53,40,0
2,note_on,53,0,240
2,note_on,60,36,0
2,note_on,60,0,240
2,note_on,57,48,0
2,note_on,57,0,240
2,note_on,60,40,0
2,note_on,60,0,240
2,note_on,53,51,0
2,note_on,53,0,240
2,note_on,60,42,0
2,note_on,60,0,240
2,note_on,55,59,0
2,note_on,55,0,240
2,note_on,60,47,0
2,note_on,60,0,240
2,note_on,58,46,0
2,note_on,58,0,240
2,note_on,60,38,0
2,note_on,60,0,240
2,note_on,55,46,0
2,note_on,55,0,240
2,note_on,60,37,0
2,note_on,60,0,240
2,note_on,55,44,0
2,note_on,55,0,240
2,note_on,60,37,0
2,note_on,60,0,240
2,note_on,58,47,0
2,note_on,58,0,240
2,note_on,60,37,0
2,note_on,60,0,240
2,note_on,55,47,0
2,note_on,55,0,240
2,note_on,60,37,0
2,note_on,60,0,238
2,note_on,52,40,2
2,note_on,52,0,240
2,note_on,60,32,0
2,note_on,60,0,240
2,note_on,55,39,0
2,note_on,55,0,240
2,note_on,60,29,0
2,note_on,60,0,240
2,note_on,52,40,0
2,note_on,52,0,240
2,note_on,60,31,0
2,note_on,60,0,240
2,note_on,52,46,0
2,note_on,52,0,240
2,note_on,60,41,0
2,note_on,60,0,240
2,note_on,55,52,0
2,note_on,55,0,240
2,note_on,60,40,0
2,note_on,60,0,240
2,note_on,52,57,0
2,note_on,52,0,240
2,note_on,60,44,0
2,note_on,60,0,240
2,note_on,53,45,0
2,note_on,53,0,240
2,note_on,60,36,0
2,note_on,60,0,240
2,note_on,55,49,0
2,note_on,55,0,240
2,note_on,60,42,0
2,note_on,60,0,240
2,note_on,56,51,0
2,note_on,56,0,240
2,note_on,60,44,0
2,note_on,60,0,240
2,note_on,53,47,0
2,note_on,53,0,240
2,note_on,60,37,0
2,note_on,60,0,240
2,note_on,55,41,0
2,note_on,55,0,240
2,note_on,60,37,0
2,note_on,60,0,240
2,note_on,56,41,0
2,note_on,56,0,240
2,note_on,60,37,0
2,note_on,60,0,240
2,note_on,55,51,0
2,note_on,55,0,240
2,note_on,63,36,0
2,note_on,63,0,240
2,note_on,60,41,0
2,note_on,60,0,240
2,note_on,63,36,0
2,note_on,63,0,240
2,note_on,55,41,0
2,note_on,55,0,240
2,note_on,63,36,0
2,note_on,63,0,240
2,note_on,55,47,0
2,note_on,55,0,240
2,note_on,62,36,0
2,note_on,62,0,240
2,note_on,59,42,0
2,note_on,59,0,240
2,note_on,62,34,0
2,note_on,62,0,240
2,note_on,55,40,0
2,note_on,55,0,240
2,note_on,62,35,0
2,note_on,62,0,240
2,note_on,48,60,0
2,note_on,48,0,240
2,note_on,55,37,0
2,note_on,55,0,240
2,note_on,51,52,0
2,note_on,51,0,240
2,note_on,55,36,0
2,note_on,55,0,240
2,note_on,50,52,14
2,note_on,55,46,226
2,note_on,50,0,14
2,note_on,55,0,226
2,note_on,48,57,0
2,note_on,48,0,240
2,note_on,55,46,0
2,note_on,55,0,240
2,note_on,50,57,0
2,note_on,50,0,240
2,note_on,55,50,0
2,note_on,55,0,240
2,note_on,51,61,0
2,note_on,51,0,240
2,note_on,55,56,0
2,note_on,55,0,240
2,note_on,50,66,0
2,note_on,50,0,240
2,note_on,55,43,0
2,note_on,55,0,240
2,note_on,51,59,0
2,note_on,51,0,240
2,note_on,55,51,0
2,note_on,55,0,240
2,note_on,53,60,0
2,note_on,53,0,240
2,note_on,55,53,0
2,note_on,55,0,240
2,note_on,50,63,0
2,note_on,50,0,240
2,note_on,55,44,0
2,note_on,55,0,240
2,note_on,51,54,0
2,note_on,51,0,240
2,note_on,55,44,0
2,note_on,55,0,240
2,note_on,53,54,0
2,note_on,53,0,240
2,note_on,55,44,0
2,note_on,55,0,240
2,note_on,47,54,0
2,note_on,47,0,240
2,note_on,55,37,0
2,note_on,55,0,240
2,note_on,50,44,0
2,note_on,50,0,240
2,note_on,55,36,0
2,note_on,55,0,240
2,note_on,48,44,0
2,note_on,48,0,240
2,note_on,55,40,0
2,note_on,55,0,240
2,note_on,47,51,0
2,note_on,47,0,240
2,note_on,55,44,0
2,note_on,55,0,240
2,note_on,48,57,0
2,note_on,48,0,240
2,note_on,55,52,0
2,note_on,55,0,240
2,note_on,50,61,0
2,note_on,50,0,240
2,note_on,55,46,0
2,note_on,55,0,240
2,note_on,48,69,0
2,note_on,48,0,240
2,note_on,55,53,0
2,note_on,55,0,240
2,note_on,50,60,0
2,note_on,50,0,240
2,note_on,55,44,0
2,note_on,55,0,240
2,note_on,51,54,0
2,note_on,51,0,240
2,note_on,55,44,0
2,note_on,55,0,240
2,note_on,48,52,0
2,note_on,48,0,240
2,note_on,55,44,0
2,note_on,55,0,240
2,note_on,50,54,0
2,note_on,50,0,240
2,note_on,55,44,0
2,note_on,55,0,240
2,note_on,51,54,0
2,note_on,51,0,240
2,note_on,55,44,0
2,note_on,55,0,240
2,note_on,48,54,0
2,note_on,48,0,240
2,note_on,55,37,0
2,note_on,55,0,240
2,note_on,51,44,0
2,note_on,51,0,240
2,note_on,55,36,0
2,note_on,55,0,240
2,note_on,48,44,0
2,note_on,48,0,240
2,note_on,55,40,0
2,note_on,55,0,240
2,note_on,48,51,0
2,note_on,48,0,240
2,note_on,55,42,0
2,note_on,55,0,240
2,note_on,51,51,0
2,note_on,51,0,240
2,note_on,55,42,0
2,note_on,55,0,240
2,note_on,48,60,0
2,note_on,48,0,240
2,note_on,55,53,0
2,note_on,55,0,240
2,note_on,50,66,0
2,note_on,50,0,240
2,note_on,55,43,0
2,note_on,55,0,240
2,note_on,53,54,0
2,note_on,53,0,240
2,note_on,55,45,0
2,note_on,55,0,240
2,note_on,50,54,0
2,note_on,50,0,240
2,note_on,55,44,0
2,note_on,55,0,240
2,note_on,50,52,0
2,note_on,50,0,240
2,note_on,55,44,0
2,note_on,55,0,240
2,note_on,53,54,0
2,note_on,53,0,240
2,note_on,55,44,0
2,note_on,55,0,240
2,note_on,50,54,0
2,note_on,50,0,240
2,note_on,55,44,0
2,note_on,55,0,238
2,note_on,47,54,2
2,note_on,47,0,240
2,note_on,55,37,0
2,note_on,55,0,240
2,note_on,50,49,0
2,note_on,50,0,240
2,note_on,55,36,0
2,note_on,55,0,240
2,note_on,47,50,0
2,note_on,47,0,240
2,note_on,55,40,0
2,note_on,55,0,240
2,note_on,47,58,0
2,note_on,47,0,240
2,note_on,55,45,0
2,note_on,55,0,240
2,note_on,50,51,0
2,note_on,50,0,240
2,note_on,55,45,0
2,note_on,55,0,240
2,note_on,47,56,0
2,note_on,47,0,240
2,note_on,55,37,0
2,note_on,55,0,240
2,note_on,48,43,240
2,note_on,48,0,240
2,note_on,47,61,0
2,note_on,47,0,240
2,note_on,48,44,0
2,note_on,48,0,240
2,note_on,47,63,0
2,note_on,47,0,240
2,note_on,48,50,0
2,note_on,48,0,240
2,note_on,40,67,0
2,note_on,40,0,240
2,note_on,48,52,0
2,note_on,48,0,240
2,note_on,41,57,0
2,note_on,41,0,240
2,note_on,48,47,0
2,note_on,48,0,240
2,note_on,43,61,0
2,note_on,43,0,240
2,note_on,48,44,0
2,note_on,48,0,240
2,note_on,41,65,0
2,note_on,41,0,240
2,note_on,48,45,0
2,note_on,48,0,240
2,note_on,43,57,0
2,note_on,43,0,240
2,note_on,48,48,0
2,note_on,48,0,240
2,note_on,44,56,0
2,note_on,44,0,240
2,note_on,48,50,0
2,note_on,48,0,240
2,note_on,42,67,0
2,note_on,42,0,240
2,note_on,48,51,0
2,note_on,48,0,240
2,note_on,43,58,0
2,note_on,43,0,240
2,note_on,48,49,0
2,note_on,48,0,240
2,note_on,45,60,0
2,note_on,45,0,240
2,note_on,48,44,0
2,note_on,48,0,240
2,note_on,43,64,0
2,note_on,43,0,240
2,note_on,51,51,0
2,note_on,51,0,240
2,note_on,48,59,0
2,note_on,48,0,240
2,note_on,51,50,0
2,note_on,51,0,240
2,note_on,43,57,0
2,note_on,43,0,240
2,note_on,51,46,0
2,note_on,51,0,240
2,note_on,43,64,0
2,note_on,43,0,240
2,note_on,50,46,0
2,note_on,50,0,240
2,note_on,47,58,0
2,note_on,47,0,240
2,note_on,50,47,0
2,note_on,50,0,240
2,note_on,43,56,0
2,note_on,43,0,240
2,note_on,50,46,0
2,note_on,50,0,240
2,note_on,36,64,0
2,note_on,48,64,0
2,note_on,48,0,480
2,note_on,36,0,0
2,note_on,39,67,2400
2,note_on,39,0,240
2,note_on,48,45,0
2,note_on,48,0,240
2,note_on,41,50,0
2,note_on,41,0,240
2,note_on,48,47,0
2,note_on,48,0,240
2,note_on,43,56,0
2,note_on,43,0,240
2,note_on,48,50,0
2,note_on,48,0,240
2,note_on,40,67,0
2,note_on,40,0,240
2,note_on,48,45,0
2,note_on,48,0,240
2,note_on,41,61,0
2,note_on,41,0,240
2,note_on,48,47,0
2,note_on,48,0,240
2,note_on,43,60,0
2,note_on,43,0,240
2,note_on,48,44,0
2,note_on,48,0,240
2,note_on,41,65,0
2,note_on,41,0,240
2,note_on,48,45,0
2,note_on,48,0,240
2,note_on,43,57,0
2,note_on,43,0,240
2,note_on,48,42,0
2,note_on,48,0,240
2,note_on,44,58,0
2,note_on,44,0,240
2,note_on,48,45,0
2,note_on,48,0,240
2,note_on,42,67,0
2,note_on,42,0,240
2,note_on,48,51,0
2,note_on,48,0,240
2,note_on,43,58,0
2,note_on,43,0,240
2,note_on,48,47,0
2,note_on,48,0,240
2,note_on,45,58,0
2,note_on,45,0,240
2,note_on,48,44,0
2,note_on,48,0,240
2,note_on,43,67,0
2,note_on,43,0,240
2,note_on,48,51,0
2,note_on,48,0,240
2,note_on,47,57,0
2,note_on,47,0,240
2,note_on,48,48,0
2,note_on,48,0,240
2,note_on,43,61,0
2,note_on,43,0,240
2,note_on,48,50,0
2,note_on,48,0,240
2,note_on,44,71,0
2,note_on,44,0,240
2,note_on,48,56,0
2,note_on,48,0,240
2,note_on,47,64,0
2,note_on,47,0,240
2,note_on,48,55,0
2,note_on,48,0,240
2,note_on,42,65,0
2,note_on,42,0,240
2,note_on,48,54,0
2,note_on,48,0,240
2,note_on,43,77,0
2,note_on,43,0,240
2,note_on,48,58,0
2,note_on,48,0,240
2,note_on,47,68,0
2,note_on,47,0,240
2,note_on,48,54,0
2,note_on,48,0,240
2,note_on,40,65,0
2,note_on,40,0,240
2,note_on,48,50,0
2,note_on,48,0,240
2,note_on,41,77,0
2,note_on,41,0,240
2,note_on,48,51,0
2,note_on,48,0,240
2,note_on,44,63,0
2,note_on,44,0,240
2,note_on,48,58,0
2,note_on,48,0,240
2,note_on,42,71,0
2,note_on,42,0,240
2,note_on,48,65,0
2,note_on,48,0,240
2,note_on,43,82,0
2,note_on,43,0,480
2,note_on,55,77,0
2,note_on,60,77,0
2,note_on,63,87,0
2,note_on,63,0,120
2,note_on,60,0,0
2,note_on,55,0,0
2,note_on,60,77,1320
2,note_on,56,77,0
2,note_on,63,87,0
2,note_on,63,0,120
2,note_on,56,0,0
2,note_on,60,0,0
2,note_on,63,87,1320
2,note_on,55,77,0
2,note_on,60,77,0
2,note_on,60,0,120
2,note_on,55,0,0
2,note_on,63,0,0
2,note_on,63,87,1320
2,note_on,60,77,0
2,note_on,54,77,0
2,note_on,54,0,120
2,note_on,60,0,0
2,note_on,63,0,0
2,note_on,55,77,1320
2,note_on,63,87,0
2,note_on,60,77,0
2,note_on,60,0,120
2,note_on,63,0,0
2,note_on,55,0,0
2,note_on,60,81,2280
2,note_on,60,0,240
2,note_on,55,77,0
2,note_on,55,0,180
2,note_on,55,82,60
2,note_on,55,0,240
2,note_on,51,77,0
2,note_on,51,0,180
2,note_on,51,83,60
2,note_on,51,0,240
2,note_on,48,77,0
2,note_on,48,0,180
2,note_on,43,92,60
2,note_on,31,78,0
2,note_on,53,70,960
2,note_on,50,59,0
2,note_on,50,0,480
2,note_on,43,0,0
2,note_on,31,0,0
2,note_on,53,0,0
2,note_on,51,79,0
2,note_on,36,67,0
2,note_on,36,0,480
2,note_on,51,0,0
2,note_on,43,51,0
2,note_on,42,51,480
2,note_on,42,0,480
2,note_on,41,51,0
2,note_on,41,0,480
2,note_on,39,49,0
2,note_on,39,0,480
2,note_on,38,49,0
2,note_on,38,0,480
2,note_on,43,0,0
2,note_on,36,51,0
2,note_on,36,0,480
2,note_on,39,47,0
2,note_on,39,0,480
2,note_on,43,47,0
2,note_on,43,0,480
2,note_on,31,51,0
2,note_on,31,0,480
2,note_on,38,48,0
2,note_on,38,0,480
2,note_on,43,48,0
2,note_on,43,0,480
2,note_on,36,67,0
2,note_on,36,0,480
2,note_on,43,51,0
2,note_on,42,51,480
2,note_on,42,0,480
2,note_on,41,51,0
2,note_on,41,0,480
2,note_on,39,49,0
2,note_on,39,0,480
2,note_on,38,49,0
2,note_on,38,0,480
2,note_on,43,0,0
2,note_on,36,51,0
2,note_on,36,0,480
2,note_on,39,47,0
2,note_on,39,0,480
2,note_on,43,47,0
2,note_on,43,0,480
2,note_on,31,51,0
2,note_on,31,0,480
2,note_on,38,48,0
2,note_on,38,0,480
2,note_on,43,48,0
2,note_on,43,0,480
2,note_on,36,51,0
2,note_on,36,0,480
2,note_on,39,47,0
2,note_on,39,0,480
2,note_on,43,47,0
2,note_on,43,0,480
2,note_on,31,51,0
2,note_on,31,0,480
2,note_on,38,48,0
2,note_on,38,0,480
2,note_on,43,48,0
2,note_on,43,0,480
2,note_on,36,51,0
2,note_on,36,0,480
2,note_on,31,60,960
2,note_on,35,60,0
2,note_on,38,60,0
2,note_on,43,71,0
2,note_on,43,0,480
2,note_on,31,0,0
2,note_on,35,0,0
2,note_on,38,0,0
2,note_on,36,60,960
2,note_on,39,60,0
2,note_on,43,60,0
2,note_on,48,71,0
2,note_on,48,0,480
2,note_on,36,0,0
2,note_on,39,0,0
2,note_on,43,0,0
