Track,Message Type,Note,Velocity,Time
1,note_on,77,45,600
1,note_on,77,0,120
1,note_on,79,50,0
1,note_on,79,0,120
1,note_on,77,46,0
1,note_on,77,0,120
1,note_on,75,50,0
1,note_on,75,0,120
1,note_on,74,46,0
1,note_on,74,0,120
1,note_on,72,46,0
1,note_on,72,0,120
1,note_on,70,46,0
1,note_on,70,0,120
1,note_on,69,50,0
1,note_on,69,0,240
1,note_on,70,47,0
1,note_on,70,0,240
1,note_on,71,53,0
1,note_on,71,0,240
1,note_on,72,49,0
1,note_on,72,0,360
1,note_on,78,45,0
1,note_on,78,0,120
1,note_on,81,50,0
1,note_on,81,0,120
1,note_on,79,46,0
1,note_on,79,0,120
1,note_on,77,50,0
1,note_on,77,0,120
1,note_on,75,46,0
1,note_on,75,0,120
1,note_on,74,46,0
1,note_on,74,0,120
1,note_on,72,46,0
1,note_on,72,0,120
1,note_on,70,50,0
1,note_on,70,0,240
1,note_on,72,47,0
1,note_on,72,0,240
1,note_on,73,53,0
1,note_on,73,0,240
1,note_on,74,49,0
1,note_on,74,0,360
1,note_on,77,51,0
1,note_on,77,0,120
1,note_on,79,58,0
1,note_on,79,0,120
1,note_on,74,52,0
1,note_on,74,0,120
1,note_on,77,56,0
1,note_on,77,0,120
1,note_on,75,52,0
1,note_on,75,0,120
1,note_on,77,57,0
1,note_on,77,0,120
1,note_on,72,52,0
1,note_on,72,0,120
1,note_on,75,57,0
1,note_on,75,0,120
1,note_on,74,52,0
1,note_on,74,0,120
1,note_on,79,59,0
1,note_on,79,0,120
1,note_on,74,52,0
1,note_on,74,0,120
1,note_on,77,62,0
1,note_on,77,0,120
1,note_on,75,56,0
1,note_on,75,0,120
1,note_on,77,62,0
1,note_on,77,0,120
1,note_on,72,54,0
1,note_on,72,0,120
1,note_on,74,67,0
1,note_on,74,0,120
1,note_on,75,57,0
1,note_on,75,0,120
1,note_on,76,59,0
1,note_on,76,0,120
1,note_on,77,61,0
1,note_on,77,0,120
1,note_on,78,67,0
1,note_on,78,0,120
1,note_on,79,64,0
1,note_on,79,0,120
1,note_on,81,67,0
1,note_on,81,0,120
1,note_on,82,69,0
1,note_on,82,0,120
1,note_on,84,70,0
1,note_on,84,0,120
1,note_on,85,74,0
1,note_on,85,0,120
1,note_on,86,81,0
1,note_on,86,0,120
1,note_on,76,54,0
1,note_on,76,0,120
1,note_on,79,58,0
1,note_on,79,0,240
1,note_on,77,53,0
1,note_on,77,0,240
1,note_on,65,38,120
1,note_on,77,45,0
1,note_on,77,0,120
1,note_on,65,0,0
1,note_on,67,42,0
1,note_on,79,50,0
1,note_on,79,0,120
1,note_on,67,0,0
1,note_on,65,39,0
1,note_on,77,46,0
1,note_on,77,0,120
1,note_on,65,0,0
1,note_on,63,42,0
1,note_on,75,50,0
1,note_on,75,0,120
1,note_on,63,0,0
1,note_on,62,39,0
1,note_on,74,46,0
1,note_on,74,0,120
1,note_on,62,0,0
1,note_on,60,39,0
1,note_on,72,46,0
1,note_on,72,0,120
1,note_on,60,0,0
1,note_on,58,39,0
1,note_on,70,46,0
1,note_on,70,0,120
1,note_on,58,0,0
1,note_on,57,42,0
1,note_on,69,42,0
1,note_on,69,0,240
1,note_on,57,0,0
1,note_on,58,39,0
1,note_on,70,47,0
1,note_on,70,0,240
1,note_on,58,0,0
1,note_on,59,45,0
1,note_on,71,53,0
1,note_on,71,0,240
1,note_on,59,0,0
1,note_on,60,41,0
1,note_on,72,49,0
1,note_on,72,0,360
1,note_on,60,0,0
1,note_on,66,38,0
1,note_on,78,45,0
1,note_on,78,0,120
1,note_on,66,0,0
1,note_on,69,42,0
1,note_on,81,50,0
1,note_on,81,0,120
1,note_on,69,0,0
1,note_on,67,39,0
1,note_on,79,46,0
1,note_on,79,0,120
1,note_on,67,0,0
1,note_on,65,42,0
1,note_on,77,50,0
1,note_on,77,0,120
1,note_on,65,0,0
1,note_on,63,39,0
1,note_on,75,46,0
1,note_on,75,0,120
1,note_on,63,0,0
1,note_on,62,39,0
1,note_on,74,46,0
1,note_on,74,0,120
1,note_on,62,0,0
1,note_on,60,39,0
1,note_on,72,46,0
1,note_on,72,0,120
1,note_on,60,0,0
1,note_on,58,42,0
1,note_on,70,50,0
1,note_on,70,0,240
1,note_on,58,0,0
1,note_on,60,39,0
1,note_on,72,47,0
1,note_on,72,0,240
1,note_on,60,0,0
1,note_on,61,45,0
1,note_on,73,53,0
1,note_on,73,0,240
1,note_on,61,0,0
1,note_on,62,41,0
1,note_on,74,49,0
1,note_on,74,0,360
1,note_on,62,0,0
1,note_on,77,56,0
1,note_on,77,0,120
1,note_on,68,45,0
1,note_on,79,63,0
1,note_on,79,0,120
1,note_on,74,57,0
1,note_on,74,0,120
1,note_on,77,62,0
1,note_on,77,0,120
1,note_on,75,58,0
1,note_on,75,0,120
1,note_on,68,0,0
1,note_on,69,45,0
1,note_on,77,63,0
1,note_on,77,0,120
1,note_on,72,58,0
1,note_on,72,0,120
1,note_on,69,0,0
1,note_on,70,46,0
1,note_on,75,64,0
1,note_on,75,0,120
1,note_on,74,59,0
1,note_on,74,0,120
1,note_on,70,0,0
1,note_on,68,46,0
1,note_on,79,67,0
1,note_on,79,0,120
1,note_on,74,59,0
1,note_on,74,0,120
1,note_on,77,71,0
1,note_on,77,0,120
1,note_on,75,64,0
1,note_on,75,0,120
1,note_on,68,0,0
1,note_on,69,47,0
1,note_on,77,71,0
1,note_on,77,0,120
1,note_on,72,63,0
1,note_on,72,0,120
1,note_on,69,0,0
1,note_on,70,59,0
1,note_on,75,71,0
1,note_on,75,0,120
1,note_on,70,0,0
1,note_on,62,53,0
1,note_on,74,63,0
1,note_on,74,0,120
1,note_on,62,0,0
1,note_on,63,56,0
1,note_on,75,67,0
1,note_on,75,0,120
1,note_on,63,0,0
1,note_on,65,60,0
1,note_on,77,71,0
1,note_on,77,0,120
1,note_on,65,0,0
1,note_on,66,67,0
1,note_on,78,80,0
1,note_on,78,0,120
1,note_on,66,0,0
1,note_on,67,63,0
1,note_on,79,75,0
1,note_on,79,0,120
1,note_on,67,0,0
1,note_on,69,67,0
1,note_on,81,80,0
1,note_on,81,0,60
1,note_on,69,0,0
1,note_on,70,70,60
1,note_on,82,83,0
1,note_on,82,0,60
1,note_on,70,0,0
1,note_on,58,70,60
1,note_on,70,70,0
1,note_on,70,0,240
1,note_on,58,0,0
1,note_on,60,58,0
1,note_on,72,69,0
1,note_on,72,0,240
1,note_on,60,0,0
1,note_on,61,41,0
1,note_on,73,49,0
1,note_on,73,0,240
1,note_on,61,0,0
1,note_on,62,38,0
1,note_on,74,45,0
1,note_on,74,0,300
1,note_on,62,0,0
1,note_on,70,59,0
1,note_on,70,0,60
1,note_on,69,61,0
1,note_on,69,0,60
1,note_on,70,62,0
1,note_on,70,0,60
1,note_on,71,62,0
1,note_on,71,0,60
1,note_on,72,64,0
1,note_on,72,0,60
1,note_on,73,65,0
1,note_on,73,0,60
1,note_on,74,67,0
1,note_on,74,0,60
1,note_on,75,69,0
1,note_on,75,0,60
1,note_on,76,70,0
1,note_on,76,0,60
1,note_on,77,71,0
1,note_on,77,0,60
1,note_on,78,73,0
1,note_on,78,0,60
1,note_on,79,74,0
1,note_on,79,0,60
1,note_on,80,76,0
1,note_on,80,0,60
1,note_on,81,77,0
1,note_on,81,0,60
1,note_on,82,78,0
1,note_on,82,0,60
1,note_on,70,53,0
1,note_on,70,0,48
1,note_on,72,48,0
1,note_on,72,0,48
1,note_on,70,45,0
1,note_on,70,0,48
1,note_on,69,45,0
1,note_on,69,0,48
1,note_on,70,45,0
1,note_on,70,0,48
1,note_on,63,42,0
1,note_on,74,52,0
1,note_on,74,0,180
1,note_on,72,41,0
1,note_on,72,0,60
1,note_on,63,0,0
1,note_on,62,42,0
1,note_on,70,50,0
1,note_on,70,0,240
1,note_on,62,0,0
1,note_on,65,67,240
1,note_on,74,80,0
1,note_on,74,0,480
1,note_on,65,0,0
1,note_on,67,45,0
1,note_on,72,53,0
1,note_on,72,0,52
1,note_on,74,50,0
1,note_on,74,0,51
1,note_on,72,53,0
1,note_on,72,0,52
1,note_on,74,50,0
1,note_on,74,0,52
1,note_on,72,53,0
1,note_on,72,0,51
1,note_on,71,49,0
1,note_on,71,0,52
1,note_on,72,49,0
1,note_on,74,49,50
1,note_on,72,0,1
1,note_on,74,0,59
1,note_on,75,50,0
1,note_on,75,0,60
1,note_on,67,0,0
1,note_on,67,57,0
1,note_on,67,0,240
1,note_on,63,45,0
1,note_on,69,54,0
1,note_on,69,0,240
1,note_on,63,0,0
1,note_on,62,47,0
1,note_on,70,56,0
1,note_on,70,0,240
1,note_on,65,46,0
1,note_on,65,0,120
1,note_on,62,0,120
1,note_on,65,67,0
1,note_on,74,80,0
1,note_on,74,0,480
1,note_on,65,0,0
1,note_on,67,45,0
1,note_on,72,63,0
1,note_on,72,0,120
1,note_on,74,56,0
1,note_on,74,0,40
1,note_on,72,56,0
1,note_on,72,0,40
1,note_on,71,56,0
1,note_on,71,0,40
1,note_on,72,63,0
1,note_on,72,0,180
1,note_on,74,58,0
1,note_on,74,0,60
1,note_on,67,0,0
1,note_on,64,45,0
1,note_on,70,63,0
1,note_on,70,0,120
1,note_on,72,56,0
1,note_on,72,0,40
1,note_on,70,56,0
1,note_on,70,0,40
1,note_on,69,56,0
1,note_on,69,0,40
1,note_on,70,63,0
1,note_on,70,0,180
1,note_on,72,58,0
1,note_on,72,0,60
1,note_on,64,0,0
1,note_on,65,47,0
1,note_on,70,56,0
1,note_on,70,0,240
1,note_on,69,46,0
1,note_on,69,0,120
1,note_on,65,0,120
1,note_on,69,55,240
1,note_on,77,64,60
1,note_on,81,69,60
1,note_on,81,0,360
1,note_on,77,0,0
1,note_on,69,0,0
1,note_on,69,57,0
1,note_on,77,68,60
1,note_on,81,73,60
1,note_on,81,0,360
1,note_on,77,0,0
1,note_on,69,0,0
1,note_on,69,60,0
1,note_on,77,71,60
1,note_on,81,76,60
1,note_on,81,0,360
1,note_on,77,0,0
1,note_on,69,0,0
1,note_on,69,63,0
1,note_on,77,74,60
1,note_on,81,79,60
1,note_on,81,0,120
1,note_on,77,0,0
1,note_on,69,0,0
1,note_on,89,82,240
1,note_on,77,69,0
1,note_on,77,0,480
1,note_on,89,0,0
1,note_on,88,62,0
1,note_on,76,52,0
1,note_on,76,0,120
1,note_on,88,0,0
1,note_on,86,82,360
1,note_on,74,69,0
1,note_on,74,0,480
1,note_on,86,0,0
1,note_on,84,62,0
1,note_on,72,52,0
1,note_on,72,0,120
1,note_on,84,0,0
1,note_on,82,82,360
1,note_on,70,69,0
1,note_on,70,0,360
1,note_on,82,0,0
1,note_on,69,52,0
1,note_on,81,62,0
1,note_on,81,0,240
1,note_on,69,0,0
1,note_on,67,60,0
1,note_on,79,60,0
1,note_on,79,0,240
1,note_on,67,0,0
1,note_on,65,52,0
1,note_on,77,62,0
1,note_on,77,0,240
1,note_on,65,0,0
1,note_on,67,54,0
1,note_on,79,58,0
1,note_on,79,0,120
1,note_on,67,0,0
1,note_on,68,56,0
1,note_on,80,66,0
1,note_on,80,0,240
1,note_on,68,0,0
1,note_on,69,51,0
1,note_on,81,60,0
1,note_on,81,0,240
1,note_on,69,0,0
1,note_on,65,57,0
1,note_on,69,57,0
1,note_on,69,0,240
1,note_on,71,49,0
1,note_on,71,0,480
1,note_on,65,0,0
1,note_on,72,62,0
1,note_on,64,52,0
1,note_on,64,0,120
1,note_on,72,0,0
1,note_on,62,57,120
1,note_on,65,57,0
1,note_on,65,0,240
1,note_on,67,49,0
1,note_on,67,0,240
1,note_on,68,53,0
1,note_on,68,0,240
1,note_on,62,0,0
1,note_on,69,62,0
1,note_on,60,52,0
1,note_on,60,0,120
1,note_on,69,0,0
1,note_on,58,57,120
1,note_on,62,57,0
1,note_on,62,0,240
1,note_on,64,49,0
1,note_on,64,0,240
1,note_on,65,53,0
1,note_on,65,0,120
1,note_on,58,0,0
1,note_on,57,57,0
1,note_on,57,0,240
1,note_on,55,62,0
1,note_on,55,0,240
1,note_on,53,67,0
1,note_on,53,0,240
1,note_on,52,72,0
1,note_on,52,0,120
1,note_on,53,70,0
1,note_on,53,0,60
1,note_on,45,50,0
1,note_on,45,0,60
1,note_on,48,50,0
1,note_on,48,0,60
1,note_on,53,50,0
1,note_on,53,0,60
1,note_on,57,53,0
1,note_on,57,0,60
1,note_on,60,50,0
1,note_on,60,0,60
1,note_on,65,50,0
1,note_on,65,0,60
1,note_on,69,50,0
1,note_on,69,0,60
1,note_on,60,55,0
1,note_on,60,0,60
1,note_on,65,50,0
1,note_on,65,0,60
1,note_on,69,50,0
1,note_on,69,0,60
1,note_on,72,50,0
1,note_on,72,0,60
1,note_on,65,55,0
1,note_on,65,0,60
1,note_on,69,50,0
1,note_on,69,0,60
1,note_on,72,50,0
1,note_on,72,0,60
1,note_on,77,50,0
1,note_on,77,0,60
1,note_on,76,74,0
1,note_on,76,0,60
1,note_on,82,50,0
1,note_on,82,0,60
1,note_on,79,50,0
1,note_on,79,0,60
1,note_on,76,50,0
1,note_on,76,0,60
1,note_on,72,54,0
1,note_on,72,0,60
1,note_on,79,50,0
1,note_on,79,0,60
1,note_on,76,50,0
1,note_on,76,0,60
1,note_on,72,50,0
1,note_on,72,0,60
1,note_on,70,56,0
1,note_on,70,0,60
1,note_on,76,50,0
1,note_on,76,0,60
1,note_on,72,50,0
1,note_on,72,0,60
1,note_on,70,50,0
1,note_on,70,0,60
1,note_on,67,54,0
1,note_on,67,0,60
1,note_on,72,50,0
1,note_on,72,0,60
1,note_on,70,50,0
1,note_on,70,0,60
1,note_on,67,50,0
1,note_on,67,0,60
1,note_on,65,70,0
1,note_on,65,0,60
1,note_on,57,50,0
1,note_on,57,0,60
1,note_on,60,50,0
1,note_on,60,0,60
1,note_on,65,50,0
1,note_on,65,0,60
1,note_on,69,53,0
1,note_on,69,0,60
1,note_on,72,50,0
1,note_on,72,0,60
1,note_on,77,50,0
1,note_on,77,0,60
1,note_on,81,50,0
1,note_on,81,0,60
1,note_on,72,55,0
1,note_on,72,0,60
1,note_on,77,50,0
1,note_on,77,0,60
1,note_on,81,50,0
1,note_on,81,0,60
1,note_on,84,50,0
1,note_on,84,0,60
1,note_on,77,55,0
1,note_on,77,0,60
1,note_on,81,50,0
1,note_on,81,0,60
1,note_on,84,50,0
1,note_on,84,0,60
1,note_on,89,50,0
1,note_on,89,0,60
1,note_on,82,74,0
1,note_on,82,0,60
1,note_on,88,50,0
1,note_on,88,0,60
1,note_on,84,50,0
1,note_on,84,0,60
1,note_on,82,50,0
1,note_on,82,0,60
1,note_on,79,54,0
1,note_on,79,0,60
1,note_on,84,50,0
1,note_on,84,0,60
1,note_on,82,50,0
1,note_on,82,0,60
1,note_on,79,50,0
1,note_on,79,0,60
1,note_on,76,56,0
1,note_on,76,0,60
1,note_on,82,50,0
1,note_on,82,0,60
1,note_on,79,50,0
1,note_on,79,0,60
1,note_on,76,50,0
1,note_on,76,0,60
1,note_on,70,54,0
1,note_on,70,0,60
1,note_on,79,50,0
1,note_on,79,0,60
1,note_on,76,50,0
1,note_on,76,0,60
1,note_on,70,50,0
1,note_on,70,0,60
1,note_on,65,77,0
1,note_on,65,0,60
1,note_on,57,55,0
1,note_on,57,0,60
1,note_on,60,55,0
1,note_on,60,0,60
1,note_on,65,55,0
1,note_on,65,0,60
1,note_on,69,58,0
1,note_on,69,0,60
1,note_on,72,55,0
1,note_on,72,0,60
1,note_on,77,55,0
1,note_on,77,0,60
1,note_on,81,55,0
1,note_on,81,0,60
1,note_on,72,61,0
1,note_on,72,0,60
1,note_on,77,55,0
1,note_on,77,0,60
1,note_on,81,56,0
1,note_on,81,0,60
1,note_on,84,56,0
1,note_on,84,0,60
1,note_on,77,61,0
1,note_on,77,0,60
1,note_on,81,56,0
1,note_on,81,0,60
1,note_on,84,56,0
1,note_on,84,0,60
1,note_on,89,56,0
1,note_on,89,0,60
1,note_on,57,62,60
1,note_on,57,0,60
1,note_on,60,62,0
1,note_on,60,0,60
1,note_on,65,62,0
1,note_on,65,0,60
1,note_on,69,66,0
1,note_on,69,0,60
1,note_on,72,62,0
1,note_on,72,0,60
1,note_on,77,62,0
1,note_on,77,0,60
1,note_on,81,62,0
1,note_on,81,0,60
1,note_on,72,69,0
1,note_on,72,0,60
1,note_on,77,63,0
1,note_on,77,0,60
1,note_on,81,63,0
1,note_on,81,0,60
1,note_on,84,63,0
1,note_on,84,0,60
1,note_on,77,69,0
1,note_on,77,0,60
1,note_on,81,63,0
1,note_on,81,0,60
1,note_on,84,63,0
1,note_on,84,0,60
1,note_on,89,63,0
1,note_on,89,0,60
1,note_on,58,63,60
1,note_on,58,0,60
1,note_on,61,70,0
1,note_on,61,0,60
1,note_on,65,70,0
1,note_on,65,0,60
1,note_on,70,73,0
1,note_on,70,0,60
1,note_on,73,70,0
1,note_on,73,0,60
1,note_on,77,70,0
1,note_on,77,0,60
1,note_on,82,70,0
1,note_on,82,0,60
1,note_on,73,77,0
1,note_on,73,0,60
1,note_on,77,70,0
1,note_on,77,0,60
1,note_on,82,70,0
1,note_on,82,0,60
1,note_on,85,70,0
1,note_on,85,0,60
1,note_on,77,78,0
1,note_on,77,0,60
1,note_on,82,71,0
1,note_on,82,0,60
1,note_on,85,71,0
1,note_on,85,0,60
1,note_on,89,71,0
1,note_on,89,0,60
1,note_on,76,79,0
1,note_on,76,0,60
1,note_on,88,70,0
1,note_on,88,0,60
1,note_on,85,70,0
1,note_on,85,0,60
1,note_on,82,70,0
1,note_on,82,0,60
1,note_on,76,80,0
1,note_on,76,0,60
1,note_on,73,68,0
1,note_on,73,0,60
1,note_on,70,70,0
1,note_on,70,0,60
1,note_on,64,70,0
1,note_on,64,0,60
1,note_on,61,79,0
1,note_on,61,0,60
1,note_on,63,68,0
1,note_on,63,0,60
1,note_on,61,69,0
1,note_on,61,0,60
1,note_on,60,69,0
1,note_on,60,0,60
1,note_on,58,78,0
1,note_on,58,0,60
1,note_on,61,72,0
1,note_on,61,0,60
1,note_on,60,76,0
1,note_on,60,0,60
1,note_on,58,81,0
1,note_on,58,0,60
1,note_on,57,86,0
1,note_on,57,0,240
1,note_on,60,40,1320
1,note_on,60,0,120
1,note_on,62,45,0
1,note_on,62,0,120
1,note_on,60,41,0
1,note_on,60,0,120
1,note_on,58,45,0
1,note_on,58,0,120
1,note_on,57,40,0
1,note_on,57,0,120
1,note_on,55,43,0
1,note_on,55,0,120
1,note_on,53,40,0
1,note_on,53,0,90
1,note_on,53,45,30
1,note_on,53,0,240
1,note_on,63,38,840
1,note_on,63,0,40
1,note_on,65,40,0
1,note_on,65,0,40
1,note_on,63,38,0
1,note_on,63,0,40
1,note_on,65,45,0
1,note_on,65,0,120
1,note_on,63,41,0
1,note_on,63,0,120
1,note_on,62,45,0
1,note_on,62,0,120
1,note_on,60,40,0
1,note_on,60,0,120
1,note_on,58,43,0
1,note_on,58,0,120
1,note_on,57,40,0
1,note_on,57,0,90
1,note_on,57,45,30
1,note_on,57,0,240
1,note_on,72,44,120
1,note_on,72,0,120
1,note_on,74,49,0
1,note_on,74,0,120
1,note_on,72,45,0
1,note_on,72,0,120
1,note_on,70,49,0
1,note_on,70,0,120
1,note_on,69,44,0
1,note_on,69,0,120
1,note_on,67,47,0
1,note_on,67,0,120
1,note_on,65,44,0
1,note_on,65,0,90
1,note_on,75,44,150
1,note_on,75,0,120
1,note_on,77,49,0
1,note_on,77,0,120
1,note_on,75,45,0
1,note_on,75,0,120
1,note_on,74,49,0
1,note_on,74,0,120
1,note_on,72,44,0
1,note_on,72,0,120
1,note_on,70,47,0
1,note_on,70,0,120
1,note_on,69,44,0
1,note_on,69,0,120
1,note_on,77,49,0
1,note_on,77,0,120
1,note_on,75,47,0
1,note_on,75,0,120
1,note_on,74,47,0
1,note_on,74,0,120
1,note_on,72,47,0
1,note_on,72,0,120
1,note_on,70,44,0
1,note_on,70,0,120
1,note_on,69,44,0
1,note_on,69,0,120
1,note_on,77,53,0
1,note_on,77,0,120
1,note_on,75,49,0
1,note_on,75,0,120
1,note_on,74,46,0
1,note_on,74,0,120
1,note_on,72,46,0
1,note_on,72,0,120
1,note_on,70,49,0
1,note_on,70,0,80
1,note_on,69,49,0
1,note_on,69,0,80
1,note_on,77,54,0
1,note_on,77,0,80
1,note_on,75,49,0
1,note_on,75,0,80
1,note_on,74,49,0
1,note_on,74,0,80
1,note_on,72,49,0
1,note_on,72,0,80
1,note_on,70,49,0
1,note_on,70,0,60
1,note_on,69,49,0
1,note_on,69,0,60
1,note_on,77,58,0
1,note_on,77,0,60
1,note_on,75,50,0
1,note_on,75,0,60
1,note_on,74,50,0
1,note_on,74,0,60
1,note_on,72,50,0
1,note_on,72,0,60
1,note_on,70,50,0
1,note_on,70,0,60
1,note_on,69,50,0
1,note_on,69,0,60
1,note_on,77,59,0
1,note_on,77,0,60
1,note_on,75,52,0
1,note_on,75,0,60
1,note_on,74,52,0
1,note_on,74,0,60
1,note_on,72,52,0
1,note_on,72,0,60
1,note_on,70,52,0
1,note_on,70,0,60
1,note_on,69,52,0
1,note_on,69,0,60
1,note_on,78,61,0
1,note_on,78,0,60
1,note_on,77,55,0
1,note_on,77,0,60
1,note_on,75,56,0
1,note_on,75,0,48
1,note_on,74,57,0
1,note_on,74,0,48
1,note_on,72,58,0
1,note_on,72,0,48
1,note_on,70,58,0
1,note_on,70,0,48
1,note_on,69,59,0
1,note_on,69,0,48
1,note_on,79,50,0
1,note_on,79,0,120
1,note_on,77,46,0
1,note_on,77,0,120
1,note_on,75,50,0
1,note_on,75,0,120
1,note_on,74,46,0
1,note_on,74,0,120
1,note_on,72,46,0
1,note_on,72,0,120
1,note_on,70,46,0
1,note_on,70,0,120
1,note_on,69,50,0
1,note_on,69,0,240
1,note_on,70,47,0
1,note_on,70,0,240
1,note_on,71,53,0
1,note_on,71,0,240
1,note_on,72,49,0
1,note_on,72,0,240
1,note_on,78,45,120
1,note_on,78,0,120
1,note_on,81,50,0
1,note_on,81,0,120
1,note_on,79,46,0
1,note_on,79,0,120
1,note_on,77,50,0
1,note_on,77,0,120
1,note_on,75,44,0
1,note_on,75,0,120
1,note_on,74,46,0
1,note_on,74,0,120
1,note_on,72,44,0
1,note_on,72,0,120
1,note_on,69,50,0
1,note_on,69,0,120
1,note_on,70,41,0
1,note_on,70,0,120
1,note_on,71,47,0
1,note_on,71,0,120
1,note_on,72,44,0
1,note_on,72,0,120
1,note_on,73,58,0
1,note_on,73,0,240
1,note_on,74,53,0
1,note_on,74,0,360
1,note_on,77,56,0
1,note_on,77,0,120
1,note_on,79,64,0
1,note_on,79,0,120
1,note_on,74,58,0
1,note_on,74,0,120
1,note_on,77,62,0
1,note_on,77,0,120
1,note_on,75,58,0
1,note_on,75,0,120
1,note_on,77,64,0
1,note_on,77,0,120
1,note_on,72,58,0
1,note_on,72,0,120
1,note_on,75,64,0
1,note_on,75,0,120
1,note_on,74,59,0
1,note_on,74,0,120
1,note_on,79,67,0
1,note_on,79,0,120
1,note_on,74,59,0
1,note_on,74,0,120
1,note_on,77,71,0
1,note_on,77,0,120
1,note_on,75,64,0
1,note_on,75,0,120
1,note_on,77,71,0
1,note_on,77,0,120
1,note_on,72,62,0
1,note_on,72,0,120
1,note_on,74,70,0
1,note_on,74,0,120
1,note_on,75,60,0
1,note_on,75,0,120
1,note_on,76,62,0
1,note_on,76,0,120
1,note_on,77,64,0
1,note_on,77,0,120
1,note_on,78,70,0
1,note_on,78,0,120
1,note_on,79,66,0
1,note_on,79,0,120
1,note_on,81,69,0
1,note_on,81,0,120
1,note_on,82,70,0
1,note_on,82,0,120
1,note_on,84,71,0
1,note_on,84,0,120
1,note_on,85,76,0
1,note_on,85,0,120
1,note_on,86,81,0
1,note_on,86,0,120
1,note_on,76,64,0
1,note_on,76,0,120
1,note_on,79,58,0
1,note_on,79,0,240
1,note_on,77,53,0
1,note_on,77,0,240
1,note_on,65,38,120
1,note_on,77,45,0
1,note_on,77,0,120
1,note_on,65,0,0
1,note_on,67,42,0
1,note_on,79,50,0
1,note_on,79,0,120
1,note_on,67,0,0
1,note_on,65,39,0
1,note_on,77,46,0
1,note_on,77,0,120
1,note_on,65,0,0
1,note_on,63,42,0
1,note_on,75,50,0
1,note_on,75,0,120
1,note_on,63,0,0
1,note_on,62,39,0
1,note_on,74,46,0
1,note_on,74,0,120
1,note_on,62,0,0
1,note_on,60,39,0
1,note_on,72,46,0
1,note_on,72,0,120
1,note_on,60,0,0
1,note_on,58,39,0
1,note_on,70,46,0
1,note_on,70,0,120
1,note_on,58,0,0
1,note_on,57,42,0
1,note_on,69,42,0
1,note_on,69,0,240
1,note_on,57,0,0
1,note_on,58,39,0
1,note_on,70,47,0
1,note_on,70,0,240
1,note_on,58,0,0
1,note_on,59,45,0
1,note_on,71,53,0
1,note_on,71,0,240
1,note_on,59,0,0
1,note_on,60,41,0
1,note_on,72,49,0
1,note_on,72,0,360
1,note_on,60,0,0
1,note_on,66,38,0
1,note_on,78,45,0
1,note_on,78,0,120
1,note_on,66,0,0
1,note_on,69,42,0
1,note_on,81,50,0
1,note_on,81,0,120
1,note_on,69,0,0
1,note_on,67,39,0
1,note_on,79,46,0
1,note_on,79,0,120
1,note_on,67,0,0
1,note_on,65,42,0
1,note_on,77,50,0
1,note_on,77,0,120
1,note_on,65,0,0
1,note_on,63,43,0
1,note_on,75,43,0
1,note_on,75,0,120
1,note_on,63,0,0
1,note_on,62,39,0
1,note_on,74,46,0
1,note_on,74,0,120
1,note_on,62,0,0
1,note_on,60,43,0
1,note_on,72,43,0
1,note_on,72,0,120
1,note_on,60,0,0
1,note_on,57,42,0
1,note_on,69,50,0
1,note_on,69,0,120
1,note_on,57,0,0
1,note_on,58,44,0
1,note_on,70,44,0
1,note_on,70,0,120
1,note_on,58,0,0
1,note_on,59,39,0
1,note_on,71,47,0
1,note_on,71,0,120
1,note_on,59,0,0
1,note_on,60,45,0
1,note_on,72,45,0
1,note_on,72,0,120
1,note_on,60,0,0
1,note_on,61,45,0
1,note_on,73,53,0
1,note_on,73,0,240
1,note_on,61,0,0
1,note_on,62,41,0
1,note_on,74,49,0
1,note_on,74,0,360
1,note_on,62,0,0
1,note_on,77,56,0
1,note_on,77,0,120
1,note_on,68,45,0
1,note_on,79,63,0
1,note_on,79,0,120
1,note_on,74,57,0
1,note_on,74,0,120
1,note_on,77,62,0
1,note_on,77,0,120
1,note_on,75,58,0
1,note_on,75,0,120
1,note_on,68,0,0
1,note_on,69,45,0
1,note_on,77,63,0
1,note_on,77,0,120
1,note_on,72,58,0
1,note_on,72,0,120
1,note_on,69,0,0
1,note_on,70,46,0
1,note_on,75,64,0
1,note_on,75,0,120
1,note_on,74,59,0
1,note_on,74,0,120
1,note_on,70,0,0
1,note_on,68,46,0
1,note_on,79,67,0
1,note_on,79,0,120
1,note_on,74,59,0
1,note_on,74,0,120
1,note_on,77,71,0
1,note_on,77,0,120
1,note_on,75,64,0
1,note_on,75,0,120
1,note_on,68,0,0
1,note_on,69,47,0
1,note_on,77,71,0
1,note_on,77,0,120
1,note_on,72,63,0
1,note_on,72,0,120
1,note_on,69,0,0
1,note_on,70,59,0
1,note_on,75,71,0
1,note_on,75,0,120
1,note_on,70,0,0
1,note_on,62,53,0
1,note_on,74,63,0
1,note_on,74,0,120
1,note_on,62,0,0
1,note_on,63,56,0
1,note_on,75,67,0
1,note_on,75,0,120
1,note_on,63,0,0
1,note_on,65,60,0
1,note_on,77,71,0
1,note_on,77,0,120
1,note_on,65,0,0
1,note_on,66,64,0
1,note_on,78,76,0
1,note_on,78,0,120
1,note_on,66,0,0
1,note_on,67,61,0
1,note_on,79,72,0
1,note_on,79,0,120
1,note_on,67,0,0
1,note_on,69,64,0
1,note_on,81,76,0
1,note_on,81,0,60
1,note_on,69,0,0
1,note_on,70,67,60
1,note_on,82,80,0
1,note_on,82,0,60
1,note_on,70,0,0
1,note_on,58,71,60
1,note_on,70,71,0
1,note_on,70,0,240
1,note_on,58,0,0
1,note_on,60,58,0
1,note_on,72,69,0
1,note_on,72,0,240
1,note_on,60,0,0
1,note_on,61,41,0
1,note_on,73,49,0
1,note_on,73,0,240
1,note_on,61,0,0
1,note_on,62,38,0
1,note_on,74,45,0
1,note_on,74,0,300
1,note_on,62,0,0
1,note_on,70,59,0
1,note_on,70,0,60
1,note_on,69,61,0
1,note_on,69,0,60
1,note_on,70,62,0
1,note_on,70,0,60
1,note_on,71,62,0
1,note_on,71,0,60
1,note_on,72,64,0
1,note_on,72,0,60
1,note_on,73,65,0
1,note_on,73,0,60
1,note_on,74,67,0
1,note_on,74,0,60
1,note_on,75,69,0
1,note_on,75,0,60
1,note_on,76,70,0
1,note_on,76,0,60
1,note_on,77,71,0
1,note_on,77,0,60
1,note_on,78,73,0
1,note_on,78,0,60
1,note_on,79,74,0
1,note_on,79,0,60
1,note_on,80,76,0
1,note_on,80,0,60
1,note_on,81,78,0
1,note_on,81,0,60
1,note_on,82,78,0
1,note_on,82,0,60
1,note_on,70,53,0
1,note_on,70,0,48
1,note_on,72,48,0
1,note_on,72,0,48
1,note_on,70,45,0
1,note_on,70,0,48
1,note_on,69,45,0
1,note_on,69,0,48
1,note_on,70,45,0
1,note_on,70,0,48
1,note_on,63,42,0
1,note_on,74,52,0
1,note_on,74,0,180
1,note_on,72,41,0
1,note_on,72,0,60
1,note_on,63,0,0
1,note_on,62,42,0
1,note_on,70,50,0
1,note_on,70,0,240
1,note_on,62,0,0
1,note_on,53,79,240
1,note_on,61,96,0
1,note_on,61,0,480
1,note_on,53,0,0
1,note_on,54,85,0
1,note_on,59,96,0
1,note_on,59,0,360
1,note_on,61,70,0
1,note_on,61,0,60
1,note_on,63,71,0
1,note_on,63,0,60
1,note_on,54,0,0
1,note_on,54,81,0
1,note_on,54,0,240
1,note_on,51,64,0
1,note_on,57,77,0
1,note_on,57,0,240
1,note_on,51,0,0
1,note_on,49,67,0
1,note_on,58,79,0
1,note_on,58,0,240
1,note_on,53,65,0
1,note_on,53,0,120
1,note_on,49,0,120
1,note_on,53,79,0
1,note_on,61,96,0
1,note_on,61,0,480
1,note_on,53,0,0
1,note_on,55,96,0
1,note_on,60,96,0
1,note_on,60,0,480
1,note_on,55,0,0
1,note_on,60,96,0
1,note_on,70,96,0
1,note_on,70,0,480
1,note_on,60,0,0
1,note_on,60,81,0
1,note_on,68,96,0
1,note_on,68,0,120
1,note_on,60,0,0
1,note_on,65,86,120
1,note_on,68,86,0
1,note_on,77,102,0
1,note_on,77,0,480
1,note_on,68,0,0
1,note_on,65,0,0
1,note_on,64,81,0
1,note_on,67,81,0
1,note_on,76,96,0
1,note_on,76,0,120
1,note_on,67,0,0
1,note_on,64,0,0
1,note_on,65,86,120
1,note_on,68,86,0
1,note_on,77,102,0
1,note_on,77,0,120
1,note_on,68,0,0
1,note_on,65,0,0
1,note_on,60,36,0
1,note_on,58,31,60
1,note_on,60,0,6
1,note_on,58,0,54
1,note_on,60,36,0
1,note_on,56,32,60
1,note_on,60,0,6
1,note_on,56,0,54
1,note_on,60,36,0
1,note_on,55,31,60
1,note_on,60,0,6
1,note_on,55,0,54
1,note_on,60,42,0
1,note_on,53,31,60
1,note_on,60,0,6
1,note_on,53,0,54
1,note_on,60,36,0
1,note_on,52,31,60
1,note_on,60,0,6
1,note_on,52,0,54
1,note_on,60,36,0
1,note_on,53,30,60
1,note_on,60,0,6
1,note_on,53,0,54
1,note_on,60,36,0
1,note_on,55,31,60
1,note_on,60,0,6
1,note_on,55,0,54
1,note_on,60,45,0
1,note_on,56,31,60
1,note_on,60,0,6
1,note_on,56,0,54
1,note_on,65,36,0
1,note_on,63,31,60
1,note_on,65,0,6
1,note_on,63,0,54
1,note_on,65,36,0
1,note_on,61,32,60
1,note_on,65,0,6
1,note_on,61,0,54
1,note_on,65,36,0
1,note_on,60,31,60
1,note_on,65,0,6
1,note_on,60,0,54
1,note_on,65,42,0
1,note_on,58,31,60
1,note_on,65,0,6
1,note_on,58,0,54
1,note_on,65,36,0
1,note_on,57,31,60
1,note_on,65,0,6
1,note_on,57,0,54
1,note_on,65,36,0
1,note_on,58,30,60
1,note_on,65,0,6
1,note_on,58,0,54
1,note_on,65,36,0
1,note_on,60,31,60
1,note_on,65,0,6
1,note_on,60,0,54
1,note_on,65,49,0
1,note_on,61,34,60
1,note_on,65,0,6
1,note_on,61,0,54
1,note_on,65,39,0
1,note_on,61,34,60
1,note_on,65,0,6
1,note_on,61,0,54
1,note_on,67,39,0
1,note_on,65,35,60
1,note_on,67,0,6
1,note_on,65,0,54
1,note_on,67,39,0
1,note_on,65,34,60
1,note_on,67,0,6
1,note_on,65,0,54
1,note_on,68,46,0
1,note_on,65,34,60
1,note_on,68,0,6
1,note_on,65,0,54
1,note_on,68,39,0
1,note_on,65,34,60
1,note_on,68,0,6
1,note_on,65,0,54
1,note_on,70,39,0
1,note_on,64,33,60
1,note_on,70,0,6
1,note_on,64,0,54
1,note_on,70,39,0
1,note_on,64,34,60
1,note_on,70,0,6
1,note_on,64,0,54
1,note_on,65,78,0
1,note_on,65,0,120
1,note_on,60,36,0
1,note_on,72,42,0
1,note_on,60,0,60
1,note_on,70,37,0
1,note_on,72,0,6
1,note_on,70,0,54
1,note_on,60,36,0
1,note_on,72,43,0
1,note_on,60,0,60
1,note_on,68,39,0
1,note_on,72,0,6
1,note_on,68,0,54
1,note_on,60,36,0
1,note_on,72,44,0
1,note_on,60,0,60
1,note_on,67,39,0
1,note_on,72,0,6
1,note_on,67,0,54
1,note_on,60,44,0
1,note_on,72,53,0
1,note_on,60,0,60
1,note_on,65,39,0
1,note_on,72,0,6
1,note_on,65,0,54
1,note_on,60,38,0
1,note_on,72,46,0
1,note_on,60,0,60
1,note_on,64,39,0
1,note_on,72,0,6
1,note_on,64,0,54
1,note_on,60,39,0
1,note_on,72,47,0
1,note_on,60,0,60
1,note_on,65,40,0
1,note_on,72,0,6
1,note_on,65,0,54
1,note_on,60,40,0
1,note_on,72,48,0
1,note_on,60,0,60
1,note_on,67,41,0
1,note_on,72,0,6
1,note_on,67,0,54
1,note_on,60,52,0
1,note_on,72,61,0
1,note_on,60,0,60
1,note_on,68,42,0
1,note_on,72,0,6
1,note_on,68,0,54
1,note_on,65,42,0
1,note_on,77,50,0
1,note_on,65,0,60
1,note_on,75,43,0
1,note_on,77,0,6
1,note_on,75,0,54
1,note_on,65,42,0
1,note_on,77,50,0
1,note_on,65,0,60
1,note_on,73,46,0
1,note_on,77,0,6
1,note_on,73,0,54
1,note_on,65,42,0
1,note_on,77,52,0
1,note_on,65,0,60
1,note_on,72,45,0
1,note_on,77,0,6
1,note_on,72,0,54
1,note_on,65,51,0
1,note_on,77,62,0
1,note_on,65,0,60
1,note_on,70,45,0
1,note_on,77,0,6
1,note_on,70,0,54
1,note_on,65,44,0
1,note_on,77,54,0
1,note_on,65,0,60
1,note_on,69,47,0
1,note_on,77,0,6
1,note_on,69,0,54
1,note_on,65,44,0
1,note_on,77,54,0
1,note_on,65,0,60
1,note_on,70,46,0
1,note_on,77,0,6
1,note_on,70,0,54
1,note_on,65,46,0
1,note_on,77,56,0
1,note_on,65,0,60
1,note_on,72,47,0
1,note_on,77,0,6
1,note_on,72,0,54
1,note_on,65,63,0
1,note_on,77,77,0
1,note_on,65,0,60
1,note_on,73,54,0
1,note_on,77,0,6
1,note_on,73,0,54
1,note_on,65,52,0
1,note_on,77,62,0
1,note_on,65,0,60
1,note_on,73,54,0
1,note_on,77,0,6
1,note_on,73,0,54
1,note_on,67,53,0
1,note_on,79,63,0
1,note_on,67,0,60
1,note_on,77,57,0
1,note_on,79,0,6
1,note_on,77,0,54
1,note_on,67,53,0
1,note_on,79,63,0
1,note_on,67,0,60
1,note_on,77,56,0
1,note_on,79,0,6
1,note_on,77,0,54
1,note_on,68,65,0
1,note_on,80,76,0
1,note_on,68,0,60
1,note_on,77,57,0
1,note_on,80,0,6
1,note_on,77,0,54
1,note_on,68,55,0
1,note_on,80,67,0
1,note_on,68,0,60
1,note_on,77,58,0
1,note_on,80,0,6
1,note_on,77,0,54
1,note_on,70,57,0
1,note_on,82,67,0
1,note_on,70,0,60
1,note_on,76,57,0
1,note_on,82,0,6
1,note_on,76,0,54
1,note_on,70,58,0
1,note_on,82,68,0
1,note_on,70,0,60
1,note_on,76,60,0
1,note_on,82,0,6
1,note_on,76,0,54
1,note_on,77,94,0
1,note_on,77,0,120
1,note_on,89,93,0
1,note_on,89,0,240
1,note_on,89,89,0
1,note_on,89,0,120
1,note_on,88,90,0
1,note_on,88,0,60
1,note_on,85,73,0
1,note_on,85,0,60
1,note_on,82,78,0
1,note_on,82,0,60
1,note_on,79,74,0
1,note_on,79,0,60
1,note_on,76,67,0
1,note_on,73,56,0
1,note_on,73,0,60
1,note_on,72,61,0
1,note_on,72,0,60
1,note_on,76,0,0
1,note_on,76,61,0
1,note_on,73,51,0
1,note_on,73,0,60
1,note_on,70,60,0
1,note_on,70,0,60
1,note_on,76,0,0
1,note_on,77,83,0
1,note_on,68,77,0
1,note_on,77,0,110
1,note_on,68,0,10
1,note_on,77,93,0
1,note_on,77,0,240
1,note_on,77,89,0
1,note_on,77,0,120
1,note_on,76,90,0
1,note_on,76,0,60
1,note_on,73,75,0
1,note_on,73,0,60
1,note_on,70,78,0
1,note_on,70,0,60
1,note_on,67,74,0
1,note_on,67,0,60
1,note_on,64,67,0
1,note_on,61,56,0
1,note_on,61,0,60
1,note_on,60,61,0
1,note_on,60,0,60
1,note_on,64,0,0
1,note_on,64,61,0
1,note_on,61,51,0
1,note_on,61,0,60
1,note_on,58,60,0
1,note_on,58,0,60
1,note_on,64,0,0
1,note_on,56,70,0
1,note_on,65,83,0
1,note_on,65,0,240
1,note_on,56,0,0
1,note_on,58,88,960
1,note_on,58,0,540
1,note_on,61,71,0
1,note_on,61,0,60
1,note_on,60,71,0
1,note_on,60,0,60
1,note_on,58,64,0
1,note_on,58,0,60
1,note_on,56,81,0
1,note_on,56,0,240
1,note_on,53,73,0
1,note_on,53,0,240
1,note_on,63,88,720
1,note_on,63,0,540
1,note_on,66,71,0
1,note_on,66,0,60
1,note_on,65,71,0
1,note_on,65,0,60
1,note_on,63,64,0
1,note_on,63,0,60
1,note_on,61,81,0
1,note_on,61,0,240
1,note_on,58,73,0
1,note_on,58,0,240
1,note_on,73,79,0
1,note_on,73,0,480
1,note_on,63,72,0
1,note_on,72,83,0
1,note_on,72,0,360
1,note_on,73,70,0
1,note_on,73,0,60
1,note_on,75,70,0
1,note_on,75,0,60
1,note_on,67,85,0
1,note_on,67,0,120
1,note_on,69,80,120
1,note_on,63,0,60
1,note_on,66,71,0
1,note_on,66,0,60
1,note_on,69,0,0
1,note_on,65,71,0
1,note_on,65,0,60
1,note_on,63,64,0
1,note_on,63,0,60
1,note_on,61,81,0
1,note_on,70,81,0
1,note_on,61,0,240
1,note_on,58,73,0
1,note_on,58,0,240
1,note_on,70,0,0
1,note_on,78,79,0
1,note_on,78,0,480
1,note_on,68,72,0
1,note_on,77,83,0
1,note_on,77,0,360
1,note_on,78,70,0
1,note_on,78,0,60
1,note_on,80,70,0
1,note_on,80,0,60
1,note_on,72,85,0
1,note_on,72,0,120
1,note_on,74,80,120
1,note_on,68,0,60
1,note_on,71,71,0
1,note_on,71,0,60
1,note_on,74,0,0
1,note_on,70,71,0
1,note_on,70,0,60
1,note_on,68,64,0
1,note_on,68,0,60
1,note_on,66,81,0
1,note_on,75,81,0
1,note_on,66,0,240
1,note_on,63,73,0
1,note_on,63,0,240
1,note_on,75,0,0
1,note_on,83,93,720
1,note_on,80,79,0
1,note_on,80,0,600
1,note_on,83,0,0
1,note_on,78,68,0
1,note_on,82,80,0
1,note_on,77,62,60
1,note_on,80,74,0
1,note_on,82,0,6
1,note_on,78,0,0
1,note_on,75,86,54
1,note_on,78,93,0
1,note_on,77,0,6
1,note_on,80,0,0
1,note_on,75,0,114
1,note_on,78,0,0
1,note_on,82,93,120
1,note_on,78,79,0
1,note_on,78,0,600
1,note_on,82,0,0
1,note_on,77,68,0
1,note_on,80,80,0
1,note_on,75,62,60
1,note_on,78,74,0
1,note_on,80,0,6
1,note_on,77,0,0
1,note_on,77,91,54
1,note_on,73,77,0
1,note_on,75,0,6
1,note_on,78,0,0
1,note_on,77,0,354
1,note_on,73,0,0
1,note_on,75,64,0
1,note_on,78,77,0
1,note_on,77,64,60
1,note_on,80,77,0
1,note_on,78,0,6
1,note_on,75,0,0
1,note_on,68,79,54
1,note_on,72,93,0
1,note_on,77,0,6
1,note_on,80,0,0
1,note_on,68,0,114
1,note_on,72,0,0
1,note_on,70,74,120
1,note_on,73,88,0
1,note_on,73,0,120
1,note_on,70,0,0
1,note_on,75,91,120
1,note_on,72,77,0
1,note_on,72,0,360
1,note_on,75,0,0
1,note_on,73,64,0
1,note_on,77,77,0
1,note_on,75,64,60
1,note_on,78,77,0
1,note_on,77,0,6
1,note_on,73,0,0
1,note_on,67,79,54
1,note_on,70,93,0
1,note_on,75,0,6
1,note_on,78,0,0
1,note_on,67,0,114
1,note_on,70,0,0
1,note_on,69,74,120
1,note_on,72,88,0
1,note_on,72,0,120
1,note_on,69,0,0
1,note_on,73,91,120
1,note_on,70,77,0
1,note_on,73,0,360
1,note_on,75,77,0
1,note_on,75,0,60
1,note_on,77,77,0
1,note_on,77,0,60
1,note_on,70,0,0
1,note_on,78,91,0
1,note_on,70,77,0
1,note_on,78,0,360
1,note_on,80,77,0
1,note_on,80,0,60
1,note_on,82,77,0
1,note_on,82,0,60
1,note_on,70,0,0
1,note_on,83,91,0
1,note_on,78,77,0
1,note_on,83,0,360
1,note_on,85,77,0
1,note_on,85,0,60
1,note_on,87,77,0
1,note_on,87,0,60
1,note_on,78,0,0
1,note_on,65,77,0
1,note_on,70,91,0
1,note_on,70,0,120
1,note_on,65,0,0
1,note_on,63,74,120
1,note_on,69,88,0
1,note_on,69,0,120
1,note_on,63,0,0
1,note_on,61,75,120
1,note_on,70,90,0
1,note_on,70,0,120
1,note_on,61,0,0
1,note_on,65,36,0
1,note_on,63,31,60
1,note_on,65,0,6
1,note_on,63,0,54
1,note_on,65,36,0
1,note_on,61,32,60
1,note_on,65,0,6
1,note_on,61,0,54
1,note_on,65,36,0
1,note_on,60,31,60
1,note_on,65,0,6
1,note_on,60,0,54
1,note_on,65,42,0
1,note_on,58,31,60
1,note_on,65,0,6
1,note_on,58,0,54
1,note_on,65,36,0
1,note_on,57,31,60
1,note_on,65,0,6
1,note_on,57,0,54
1,note_on,65,36,0
1,note_on,58,30,60
1,note_on,65,0,6
1,note_on,58,0,54
1,note_on,65,36,0
1,note_on,60,31,60
1,note_on,65,0,6
1,note_on,60,0,54
1,note_on,65,45,0
1,note_on,61,31,60
1,note_on,65,0,6
1,note_on,61,0,54
1,note_on,70,36,0
1,note_on,68,31,60
1,note_on,70,0,6
1,note_on,68,0,54
1,note_on,70,36,0
1,note_on,66,32,60
1,note_on,70,0,6
1,note_on,66,0,54
1,note_on,70,36,0
1,note_on,65,31,60
1,note_on,70,0,6
1,note_on,65,0,54
1,note_on,70,42,0
1,note_on,63,31,60
1,note_on,70,0,6
1,note_on,63,0,54
1,note_on,70,36,0
1,note_on,62,31,60
1,note_on,70,0,6
1,note_on,62,0,54
1,note_on,70,36,0
1,note_on,63,30,60
1,note_on,70,0,6
1,note_on,63,0,54
1,note_on,70,36,0
1,note_on,65,31,60
1,note_on,70,0,6
1,note_on,65,0,54
1,note_on,70,49,0
1,note_on,66,34,60
1,note_on,70,0,6
1,note_on,66,0,54
1,note_on,70,39,0
1,note_on,66,34,60
1,note_on,70,0,6
1,note_on,66,0,54
1,note_on,72,39,0
1,note_on,70,35,60
1,note_on,72,0,6
1,note_on,70,0,54
1,note_on,72,39,0
1,note_on,70,34,60
1,note_on,72,0,6
1,note_on,70,0,54
1,note_on,73,46,0
1,note_on,70,34,60
1,note_on,73,0,6
1,note_on,70,0,54
1,note_on,73,39,0
1,note_on,70,34,60
1,note_on,73,0,6
1,note_on,70,0,54
1,note_on,75,39,0
1,note_on,69,33,60
1,note_on,75,0,6
1,note_on,69,0,54
1,note_on,75,39,0
1,note_on,69,34,60
1,note_on,75,0,6
1,note_on,69,0,54
1,note_on,70,74,0
1,note_on,70,0,120
1,note_on,77,48,0
1,note_on,65,40,0
1,note_on,65,0,60
1,note_on,75,42,0
1,note_on,77,0,6
1,note_on,75,0,54
1,note_on,65,40,0
1,note_on,77,48,0
1,note_on,65,0,60
1,note_on,73,43,0
1,note_on,77,0,6
1,note_on,73,0,54
1,note_on,65,40,0
1,note_on,77,50,0
1,note_on,65,0,60
1,note_on,72,45,0
1,note_on,77,0,6
1,note_on,72,0,54
1,note_on,77,59,0
1,note_on,65,49,0
1,note_on,65,0,60
1,note_on,70,45,0
1,note_on,77,0,6
1,note_on,70,0,54
1,note_on,65,44,0
1,note_on,77,54,0
1,note_on,65,0,60
1,note_on,69,45,0
1,note_on,77,0,6
1,note_on,69,0,54
1,note_on,65,44,0
1,note_on,77,54,0
1,note_on,65,0,60
1,note_on,70,45,0
1,note_on,77,0,6
1,note_on,70,0,54
1,note_on,77,56,0
1,note_on,65,46,0
1,note_on,65,0,60
1,note_on,72,47,0
1,note_on,77,0,6
1,note_on,72,0,54
1,note_on,65,61,0
1,note_on,77,72,0
1,note_on,65,0,60
1,note_on,73,48,0
1,note_on,77,0,6
1,note_on,73,0,54
1,note_on,70,48,0
1,note_on,82,58,0
1,note_on,70,0,60
1,note_on,80,50,0
1,note_on,82,0,6
1,note_on,80,0,54
1,note_on,70,50,0
1,note_on,82,59,0
1,note_on,70,0,60
1,note_on,78,55,0
1,note_on,82,0,6
1,note_on,78,0,54
1,note_on,82,62,0
1,note_on,70,50,0
1,note_on,70,0,60
1,note_on,77,54,0
1,note_on,82,0,6
1,note_on,77,0,54
1,note_on,70,62,0
1,note_on,82,73,0
1,note_on,70,0,60
1,note_on,75,54,0
1,note_on,82,0,6
1,note_on,75,0,54
1,note_on,82,66,0
1,note_on,70,53,0
1,note_on,70,0,60
1,note_on,74,55,0
1,note_on,82,0,6
1,note_on,74,0,54
1,note_on,70,53,0
1,note_on,82,66,0
1,note_on,70,0,60
1,note_on,75,55,0
1,note_on,82,0,6
1,note_on,75,0,54
1,note_on,70,57,0
1,note_on,82,69,0
1,note_on,70,0,60
1,note_on,77,58,0
1,note_on,82,0,6
1,note_on,77,0,54
1,note_on,82,86,0
1,note_on,70,70,0
1,note_on,70,0,60
1,note_on,78,66,0
1,note_on,82,0,6
1,note_on,78,0,54
1,note_on,70,63,0
1,note_on,82,75,0
1,note_on,70,0,60
1,note_on,78,68,0
1,note_on,82,0,6
1,note_on,78,0,54
1,note_on,72,66,0
1,note_on,84,78,0
1,note_on,72,0,60
1,note_on,82,71,0
1,note_on,84,0,6
1,note_on,82,0,54
1,note_on,84,78,0
1,note_on,72,66,0
1,note_on,72,0,60
1,note_on,82,71,0
1,note_on,84,0,6
1,note_on,82,0,54
1,note_on,85,97,0
1,note_on,73,82,0
1,note_on,73,0,60
1,note_on,82,71,0
1,note_on,85,0,6
1,note_on,82,0,54
1,note_on,73,69,0
1,note_on,85,86,0
1,note_on,73,0,60
1,note_on,82,74,0
1,note_on,85,0,6
1,note_on,82,0,54
1,note_on,75,73,0
1,note_on,87,86,0
1,note_on,75,0,60
1,note_on,81,73,0
1,note_on,87,0,6
1,note_on,81,0,54
1,note_on,87,87,0
1,note_on,75,75,0
1,note_on,75,0,60
1,note_on,81,77,0
1,note_on,87,0,6
1,note_on,81,0,54
1,note_on,82,100,0
1,note_on,82,0,120
1,note_on,89,97,0
1,note_on,89,0,240
1,note_on,89,93,0
1,note_on,89,0,120
1,note_on,87,94,0
1,note_on,87,0,60
1,note_on,84,74,0
1,note_on,84,0,60
1,note_on,81,81,0
1,note_on,81,0,60
1,note_on,77,77,0
1,note_on,77,0,60
1,note_on,75,58,0
1,note_on,75,0,60
1,note_on,74,64,0
1,note_on,74,0,60
1,note_on,75,53,0
1,note_on,75,0,60
1,note_on,72,63,0
1,note_on,72,0,60
1,note_on,70,87,0
1,note_on,70,0,110
1,note_on,77,97,10
1,note_on,77,0,240
1,note_on,77,93,0
1,note_on,77,0,120
1,note_on,75,94,0
1,note_on,75,0,60
1,note_on,72,73,0
1,note_on,72,0,60
1,note_on,69,81,0
1,note_on,69,0,60
1,note_on,65,74,0
1,note_on,65,0,60
1,note_on,63,58,0
1,note_on,63,0,60
1,note_on,62,64,0
1,note_on,62,0,60
1,note_on,63,53,0
1,note_on,63,0,60
1,note_on,60,63,0
1,note_on,60,0,60
1,note_on,58,87,0
1,note_on,58,0,240
1,note_on,63,36,1680
1,note_on,58,36,0
1,note_on,61,43,0
1,note_on,61,0,240
1,note_on,58,0,0
1,note_on,56,34,0
1,note_on,59,40,0
1,note_on,59,0,240
1,note_on,56,0,0
1,note_on,63,0,0
1,note_on,63,30,1440
1,note_on,60,30,0
1,note_on,66,36,0
1,note_on,66,0,240
1,note_on,65,34,0
1,note_on,65,0,350
1,note_on,65,34,10
1,note_on,66,34,120
1,note_on,65,0,12
1,note_on,65,34,108
1,note_on,66,0,12
1,note_on,63,0,108
1,note_on,60,0,0
1,note_on,65,0,0
1,note_on,63,30,0
1,note_on,60,30,0
1,note_on,66,36,0
1,note_on,66,0,240
1,note_on,65,34,0
1,note_on,65,0,350
1,note_on,65,34,10
1,note_on,66,34,120
1,note_on,65,0,12
1,note_on,65,34,108
1,note_on,66,0,12
1,note_on,63,0,108
1,note_on,60,0,0
1,note_on,65,0,0
1,note_on,63,30,0
1,note_on,60,30,0
1,note_on,66,36,0
1,note_on,60,0,240
1,note_on,63,0,0
1,note_on,66,0,120
1,note_on,65,34,0
1,note_on,65,0,120
1,note_on,66,36,0
1,note_on,66,0,360
1,note_on,65,29,0
1,note_on,65,0,120
1,note_on,66,34,0
1,note_on,66,0,60
1,note_on,65,29,0
1,note_on,65,0,60
1,note_on,66,34,0
1,note_on,66,0,60
1,note_on,65,29,0
1,note_on,65,0,60
1,note_on,66,34,0
1,note_on,66,0,60
1,note_on,65,29,0
1,note_on,65,0,60
1,note_on,66,34,0
1,note_on,66,0,60
1,note_on,65,30,0
1,note_on,65,0,60
1,note_on,66,34,0
1,note_on,66,0,60
1,note_on,65,30,0
1,note_on,65,0,60
1,note_on,66,34,0
1,note_on,66,0,60
1,note_on,65,29,0
1,note_on,65,0,60
1,note_on,66,34,0
1,note_on,66,0,60
1,note_on,65,29,0
1,note_on,65,0,60
1,note_on,66,34,0
1,note_on,66,0,60
1,note_on,65,31,0
1,note_on,65,0,60
1,note_on,67,34,0
1,note_on,67,0,60
1,note_on,65,29,0
1,note_on,65,0,60
1,note_on,67,35,0
1,note_on,67,0,60
1,note_on,65,30,0
1,note_on,65,0,60
1,note_on,67,36,0
1,note_on,67,0,60
1,note_on,65,31,0
1,note_on,65,0,60
1,note_on,67,37,0
1,note_on,67,0,60
1,note_on,65,33,0
1,note_on,65,0,60
1,note_on,67,39,0
1,note_on,67,0,60
1,note_on,65,34,0
1,note_on,65,0,60
1,note_on,67,40,0
1,note_on,67,0,60
1,note_on,65,34,0
1,note_on,65,0,60
1,note_on,67,41,0
1,note_on,67,0,60
1,note_on,65,35,0
1,note_on,65,0,60
1,note_on,67,42,0
1,note_on,67,0,60
1,note_on,65,39,0
1,note_on,65,0,60
1,note_on,65,42,120
1,note_on,65,0,120
1,note_on,77,48,0
1,note_on,77,0,120
1,note_on,65,42,0
1,note_on,65,0,120
1,note_on,65,42,120
1,note_on,65,0,120
1,note_on,77,47,0
1,note_on,77,0,120
1,note_on,65,42,0
1,note_on,65,0,120
1,note_on,65,42,120
1,note_on,65,0,120
1,note_on,77,48,0
1,note_on,77,0,120
1,note_on,65,42,0
1,note_on,65,0,120
1,note_on,77,48,0
1,note_on,77,0,120
1,note_on,65,42,480
1,note_on,65,0,120
1,note_on,77,48,0
1,note_on,77,0,120
1,note_on,65,42,0
1,note_on,65,0,120
1,note_on,65,42,120
1,note_on,65,0,120
1,note_on,77,47,0
1,note_on,77,0,120
1,note_on,65,42,0
1,note_on,65,0,120
1,note_on,65,42,120
1,note_on,65,0,120
1,note_on,77,48,0
1,note_on,77,0,120
1,note_on,65,42,0
1,note_on,65,0,120
1,note_on,77,48,0
1,note_on,77,0,240
1,note_on,77,56,360
1,note_on,77,0,120
1,note_on,89,67,0
1,note_on,89,0,240
1,note_on,65,47,120
1,note_on,65,0,120
1,note_on,77,54,0
1,note_on,77,0,240
1,note_on,77,66,120
1,note_on,77,0,120
1,note_on,89,78,0
1,note_on,89,0,360
1,note_on,77,71,0
1,note_on,77,0,240
1,note_on,79,67,0
1,note_on,79,0,60
1,note_on,81,70,0
1,note_on,81,0,60
1,note_on,82,72,0
1,note_on,82,0,60
1,note_on,84,73,0
1,note_on,84,0,60
1,note_on,86,75,0
1,note_on,86,0,60
1,note_on,84,73,0
1,note_on,84,0,60
1,note_on,82,74,0
1,note_on,82,0,60
1,note_on,81,70,0
1,note_on,81,0,60
1,note_on,79,71,0
1,note_on,79,0,60
1,note_on,77,69,0
1,note_on,77,0,60
1,note_on,76,68,0
1,note_on,76,0,60
1,note_on,74,66,0
1,note_on,74,0,60
1,note_on,72,63,0
1,note_on,72,0,60
1,note_on,70,62,0
1,note_on,70,0,60
1,note_on,69,60,0
1,note_on,69,0,60
1,note_on,67,58,0
1,note_on,67,0,60
1,note_on,65,57,0
1,note_on,65,0,60
1,note_on,64,55,0
1,note_on,64,0,60
1,note_on,67,54,0
1,note_on,67,0,60
1,note_on,65,49,0
1,note_on,65,0,60
1,note_on,69,54,0
1,note_on,69,0,60
1,note_on,67,48,0
1,note_on,67,0,60
1,note_on,70,54,0
1,note_on,70,0,60
1,note_on,69,50,0
1,note_on,69,0,60
1,note_on,72,54,0
1,note_on,72,0,60
1,note_on,70,49,0
1,note_on,70,0,60
1,note_on,74,54,0
1,note_on,74,0,60
1,note_on,72,48,0
1,note_on,72,0,60
1,note_on,75,54,0
1,note_on,75,0,60
1,note_on,74,49,0
1,note_on,74,0,60
1,note_on,77,54,0
1,note_on,77,0,60
1,note_on,76,48,0
1,note_on,76,0,60
1,note_on,79,53,0
1,note_on,79,0,60
1,note_on,77,49,0
1,note_on,77,0,60
1,note_on,63,42,0
1,note_on,75,50,0
1,note_on,75,0,120
1,note_on,63,0,0
1,note_on,62,39,0
1,note_on,74,46,0
1,note_on,74,0,120
1,note_on,62,0,0
1,note_on,60,39,0
1,note_on,72,46,0
1,note_on,72,0,120
1,note_on,60,0,0
1,note_on,58,39,0
1,note_on,70,46,0
1,note_on,70,0,120
1,note_on,58,0,0
1,note_on,57,42,0
1,note_on,69,42,0
1,note_on,69,0,240
1,note_on,57,0,0
1,note_on,58,39,0
1,note_on,70,47,0
1,note_on,70,0,240
1,note_on,58,0,0
1,note_on,59,45,0
1,note_on,71,53,0
1,note_on,71,0,240
1,note_on,59,0,0
1,note_on,60,41,0
1,note_on,72,49,0
1,note_on,72,0,360
1,note_on,60,0,0
1,note_on,66,48,0
1,note_on,66,0,60
1,note_on,78,45,0
1,note_on,78,0,60
1,note_on,69,43,0
1,note_on,69,0,60
1,note_on,81,46,0
1,note_on,81,0,60
1,note_on,67,53,0
1,note_on,67,0,60
1,note_on,79,46,0
1,note_on,79,0,60
1,note_on,65,52,0
1,note_on,65,0,60
1,note_on,77,47,0
1,note_on,77,0,60
1,note_on,63,51,0
1,note_on,63,0,60
1,note_on,75,46,0
1,note_on,75,0,60
1,note_on,62,51,0
1,note_on,62,0,60
1,note_on,74,46,0
1,note_on,74,0,60
1,note_on,60,51,0
1,note_on,60,0,60
1,note_on,72,46,0
1,note_on,72,0,60
1,note_on,57,50,0
1,note_on,57,0,60
1,note_on,69,42,0
1,note_on,69,0,60
1,note_on,58,47,0
1,note_on,58,0,60
1,note_on,70,42,0
1,note_on,70,0,60
1,note_on,59,49,0
1,note_on,59,0,60
1,note_on,71,42,0
1,note_on,71,0,60
1,note_on,60,49,0
1,note_on,60,0,60
1,note_on,72,42,0
1,note_on,72,0,60
1,note_on,61,45,0
1,note_on,73,53,0
1,note_on,73,0,240
1,note_on,61,0,0
1,note_on,62,41,0
1,note_on,74,49,0
1,note_on,74,0,360
1,note_on,62,0,0
1,note_on,65,56,0
1,note_on,65,0,60
1,note_on,77,52,0
1,note_on,77,0,60
1,note_on,67,64,0
1,note_on,67,0,60
1,note_on,79,58,0
1,note_on,79,0,60
1,note_on,62,57,0
1,note_on,62,0,60
1,note_on,74,52,0
1,note_on,74,0,60
1,note_on,65,62,0
1,note_on,65,0,60
1,note_on,77,59,0
1,note_on,77,0,60
1,note_on,63,58,0
1,note_on,63,0,60
1,note_on,75,53,0
1,note_on,75,0,60
1,note_on,65,64,0
1,note_on,65,0,60
1,note_on,77,58,0
1,note_on,77,0,60
1,note_on,60,58,0
1,note_on,60,0,60
1,note_on,72,51,0
1,note_on,72,0,60
1,note_on,63,64,0
1,note_on,63,0,60
1,note_on,75,59,0
1,note_on,75,0,60
1,note_on,62,59,0
1,note_on,62,0,60
1,note_on,74,53,0
1,note_on,74,0,60
1,note_on,67,67,0
1,note_on,67,0,60
1,note_on,79,60,0
1,note_on,79,0,60
1,note_on,62,59,0
1,note_on,62,0,60
1,note_on,74,55,0
1,note_on,74,0,60
1,note_on,65,71,0
1,note_on,65,0,60
1,note_on,77,67,0
1,note_on,77,0,60
1,note_on,63,64,0
1,note_on,63,0,60
1,note_on,75,59,0
1,note_on,75,0,60
1,note_on,65,72,0
1,note_on,65,0,60
1,note_on,77,67,0
1,note_on,77,0,60
1,note_on,60,63,0
1,note_on,60,0,60
1,note_on,72,60,0
1,note_on,72,0,60
1,note_on,63,71,0
1,note_on,63,0,60
1,note_on,75,64,0
1,note_on,75,0,60
1,note_on,62,64,0
1,note_on,62,0,60
1,note_on,74,57,0
1,note_on,74,0,60
1,note_on,63,67,0
1,note_on,63,0,60
1,note_on,75,58,0
1,note_on,75,0,60
1,note_on,65,71,0
1,note_on,65,0,60
1,note_on,77,64,0
1,note_on,77,0,60
1,note_on,66,76,0
1,note_on,66,0,60
1,note_on,78,69,0
1,note_on,78,0,60
1,note_on,67,76,0
1,note_on,67,0,60
1,note_on,79,69,0
1,note_on,79,0,60
1,note_on,69,76,0
1,note_on,69,0,60
1,note_on,81,66,0
1,note_on,81,0,60
1,note_on,70,78,0
1,note_on,70,0,60
1,note_on,82,70,0
1,note_on,82,0,60
1,note_on,58,71,0
1,note_on,70,71,0
1,note_on,70,0,240
1,note_on,58,0,0
1,note_on,60,58,0
1,note_on,72,69,0
1,note_on,72,0,240
1,note_on,60,0,0
1,note_on,61,41,0
1,note_on,73,49,0
1,note_on,73,0,240
1,note_on,61,0,0
1,note_on,62,38,0
1,note_on,74,45,0
1,note_on,74,0,300
1,note_on,62,0,0
1,note_on,70,59,0
1,note_on,70,0,60
1,note_on,69,61,0
1,note_on,69,0,60
1,note_on,70,62,0
1,note_on,70,0,60
1,note_on,71,62,0
1,note_on,71,0,60
1,note_on,72,64,0
1,note_on,72,0,60
1,note_on,73,65,0
1,note_on,73,0,60
1,note_on,74,67,0
1,note_on,74,0,60
1,note_on,75,69,0
1,note_on,75,0,60
1,note_on,76,70,0
1,note_on,76,0,60
1,note_on,77,71,0
1,note_on,77,0,60
1,note_on,78,73,0
1,note_on,78,0,60
1,note_on,79,74,0
1,note_on,79,0,60
1,note_on,80,76,0
1,note_on,80,0,60
1,note_on,81,77,0
1,note_on,81,0,60
1,note_on,82,78,0
1,note_on,82,0,60
1,note_on,70,53,0
1,note_on,70,0,48
1,note_on,72,48,0
1,note_on,72,0,48
1,note_on,70,45,0
1,note_on,70,0,48
1,note_on,69,45,0
1,note_on,69,0,48
1,note_on,70,45,0
1,note_on,70,0,48
1,note_on,63,42,0
1,note_on,74,52,0
1,note_on,74,0,180
1,note_on,72,41,0
1,note_on,72,0,60
1,note_on,63,0,0
1,note_on,62,42,0
1,note_on,70,50,0
1,note_on,70,0,240
1,note_on,62,0,0
1,note_on,65,67,240
1,note_on,74,80,0
1,note_on,74,0,480
1,note_on,65,0,0
1,note_on,67,45,0
1,note_on,72,53,0
1,note_on,72,0,52
1,note_on,74,50,0
1,note_on,74,0,51
1,note_on,72,53,0
1,note_on,72,0,52
1,note_on,74,50,0
1,note_on,74,0,52
1,note_on,72,53,0
1,note_on,72,0,51
1,note_on,71,49,0
1,note_on,71,0,52
1,note_on,72,49,0
1,note_on,74,49,50
1,note_on,72,0,1
1,note_on,74,0,59
1,note_on,75,50,0
1,note_on,75,0,60
1,note_on,67,0,0
1,note_on,67,57,0
1,note_on,67,0,240
1,note_on,63,45,0
1,note_on,69,54,0
1,note_on,69,0,240
1,note_on,63,0,0
1,note_on,62,47,0
1,note_on,70,56,0
1,note_on,70,0,240
1,note_on,65,46,0
1,note_on,65,0,120
1,note_on,62,0,110
1,note_on,65,67,10
1,note_on,74,80,0
1,note_on,74,0,480
1,note_on,65,0,0
1,note_on,67,45,0
1,note_on,72,63,0
1,note_on,72,0,120
1,note_on,74,56,0
1,note_on,74,0,40
1,note_on,72,56,0
1,note_on,72,0,40
1,note_on,71,56,0
1,note_on,71,0,40
1,note_on,72,63,0
1,note_on,72,0,180
1,note_on,74,58,0
1,note_on,74,0,60
1,note_on,67,0,0
1,note_on,64,45,0
1,note_on,70,63,0
1,note_on,70,0,120
1,note_on,72,56,0
1,note_on,72,0,40
1,note_on,70,56,0
1,note_on,70,0,40
1,note_on,69,56,0
1,note_on,69,0,40
1,note_on,70,63,0
1,note_on,70,0,180
1,note_on,72,58,0
1,note_on,72,0,60
1,note_on,64,0,0
1,note_on,65,47,0
1,note_on,70,56,0
1,note_on,70,0,240
1,note_on,69,46,0
1,note_on,69,0,120
1,note_on,65,0,120
1,note_on,67,67,0
1,note_on,79,80,0
1,note_on,79,0,480
1,note_on,67,0,0
1,note_on,72,45,0
1,note_on,77,63,0
1,note_on,77,0,120
1,note_on,79,56,0
1,note_on,79,0,40
1,note_on,77,56,0
1,note_on,77,0,40
1,note_on,76,56,0
1,note_on,76,0,40
1,note_on,77,63,0
1,note_on,77,0,180
1,note_on,79,58,0
1,note_on,79,0,60
1,note_on,72,0,0
1,note_on,69,45,0
1,note_on,75,63,0
1,note_on,75,0,120
1,note_on,77,56,0
1,note_on,77,0,40
1,note_on,75,56,0
1,note_on,75,0,40
1,note_on,74,56,0
1,note_on,74,0,40
1,note_on,75,63,0
1,note_on,75,0,180
1,note_on,77,58,0
1,note_on,77,0,60
1,note_on,69,0,0
1,note_on,70,47,0
1,note_on,75,56,0
1,note_on,75,0,240
1,note_on,74,46,0
1,note_on,74,0,120
1,note_on,70,0,110
1,note_on,74,54,250
1,note_on,82,69,60
1,note_on,86,73,60
1,note_on,86,0,360
1,note_on,82,0,0
1,note_on,74,0,0
1,note_on,74,61,0
1,note_on,82,73,60
1,note_on,86,78,60
1,note_on,86,0,360
1,note_on,82,0,0
1,note_on,74,0,0
1,note_on,74,65,0
1,note_on,82,76,60
1,note_on,86,81,60
1,note_on,86,0,360
1,note_on,82,0,0
1,note_on,74,0,0
1,note_on,74,68,0
1,note_on,82,80,60
1,note_on,86,86,60
1,note_on,86,0,120
1,note_on,82,0,0
1,note_on,74,0,0
1,note_on,86,90,240
1,note_on,74,75,0
1,note_on,74,0,480
1,note_on,86,0,0
1,note_on,84,68,0
1,note_on,72,57,0
1,note_on,72,0,120
1,note_on,84,0,0
1,note_on,82,90,360
1,note_on,70,75,0
1,note_on,70,0,480
1,note_on,82,0,0
1,note_on,81,68,0
1,note_on,69,57,0
1,note_on,69,0,120
1,note_on,81,0,0
1,note_on,79,90,360
1,note_on,67,75,0
1,note_on,67,0,360
1,note_on,79,0,0
1,note_on,65,57,0
1,note_on,77,68,0
1,note_on,77,0,240
1,note_on,65,0,0
1,note_on,63,66,0
1,note_on,75,66,0
1,note_on,75,0,240
1,note_on,63,0,0
1,note_on,62,57,0
1,note_on,74,68,0
1,note_on,74,0,240
1,note_on,62,0,0
1,note_on,60,59,0
1,note_on,72,63,0
1,note_on,72,0,120
1,note_on,60,0,0
1,note_on,61,61,0
1,note_on,73,72,0
1,note_on,73,0,240
1,note_on,61,0,0
1,note_on,62,56,0
1,note_on,74,66,0
1,note_on,74,0,120
1,note_on,62,0,0
1,note_on,62,62,120
1,note_on,62,0,240
1,note_on,74,57,0
1,note_on,64,53,0
1,note_on,64,0,480
1,note_on,74,0,0
1,note_on,65,68,0
1,note_on,72,57,0
1,note_on,72,0,120
1,note_on,65,0,0
1,note_on,58,62,120
1,note_on,58,0,240
1,note_on,70,57,0
1,note_on,61,53,0
1,note_on,61,0,480
1,note_on,70,0,0
1,note_on,62,68,0
1,note_on,69,57,0
1,note_on,69,0,120
1,note_on,62,0,0
1,note_on,55,62,120
1,note_on,67,62,0
1,note_on,67,0,240
1,note_on,55,0,0
1,note_on,57,59,0
1,note_on,66,53,0
1,note_on,57,0,240
1,note_on,58,59,0
1,note_on,65,69,120
1,note_on,58,0,120
1,note_on,66,0,0
1,note_on,55,69,0
1,note_on,60,69,0
1,note_on,65,0,120
1,note_on,63,77,0
1,note_on,60,0,120
1,note_on,55,0,0
1,note_on,63,0,120
1,note_on,62,84,0
1,note_on,62,0,240
1,note_on,60,92,0
1,note_on,60,0,120
1,note_on,58,92,0
1,note_on,58,0,60
1,note_on,50,50,0
1,note_on,50,0,60
1,note_on,53,50,0
1,note_on,53,0,60
1,note_on,58,50,0
1,note_on,58,0,60
1,note_on,62,53,0
1,note_on,62,0,60
1,note_on,65,50,0
1,note_on,65,0,60
1,note_on,70,50,0
1,note_on,70,0,60
1,note_on,74,50,0
1,note_on,74,0,60
1,note_on,65,55,0
1,note_on,65,0,60
1,note_on,70,50,0
1,note_on,70,0,60
1,note_on,74,50,0
1,note_on,74,0,60
1,note_on,77,50,0
1,note_on,77,0,60
1,note_on,70,55,0
1,note_on,70,0,60
1,note_on,74,50,0
1,note_on,74,0,60
1,note_on,77,50,0
1,note_on,77,0,60
1,note_on,82,50,0
1,note_on,82,0,60
1,note_on,81,69,0
1,note_on,81,0,60
1,note_on,87,50,0
1,note_on,87,0,60
1,note_on,84,50,0
1,note_on,84,0,60
1,note_on,81,50,0
1,note_on,81,0,60
1,note_on,77,54,0
1,note_on,77,0,60
1,note_on,84,50,0
1,note_on,84,0,60
1,note_on,81,50,0
1,note_on,81,0,60
1,note_on,77,50,0
1,note_on,77,0,60
1,note_on,75,56,0
1,note_on,75,0,60
1,note_on,81,50,0
1,note_on,81,0,60
1,note_on,77,50,0
1,note_on,77,0,60
1,note_on,75,50,0
1,note_on,75,0,60
1,note_on,72,54,0
1,note_on,72,0,60
1,note_on,77,50,0
1,note_on,77,0,60
1,note_on,75,50,0
1,note_on,75,0,60
1,note_on,72,50,0
1,note_on,72,0,60
1,note_on,70,69,0
1,note_on,70,0,60
1,note_on,50,50,0
1,note_on,50,0,60
1,note_on,53,50,0
1,note_on,53,0,60
1,note_on,58,50,0
1,note_on,58,0,60
1,note_on,62,53,0
1,note_on,62,0,60
1,note_on,65,50,0
1,note_on,65,0,60
1,note_on,70,50,0
1,note_on,70,0,60
1,note_on,74,50,0
1,note_on,74,0,60
1,note_on,65,55,0
1,note_on,65,0,60
1,note_on,70,50,0
1,note_on,70,0,60
1,note_on,74,50,0
1,note_on,74,0,60
1,note_on,77,50,0
1,note_on,77,0,60
1,note_on,70,55,0
1,note_on,70,0,60
1,note_on,74,50,0
1,note_on,74,0,60
1,note_on,77,50,0
1,note_on,77,0,60
1,note_on,82,50,0
1,note_on,82,0,60
1,note_on,81,72,0
1,note_on,81,0,60
1,note_on,87,50,0
1,note_on,87,0,60
1,note_on,84,50,0
1,note_on,84,0,60
1,note_on,81,50,0
1,note_on,81,0,60
1,note_on,77,54,0
1,note_on,77,0,60
1,note_on,84,50,0
1,note_on,84,0,60
1,note_on,81,50,0
1,note_on,81,0,60
1,note_on,77,50,0
1,note_on,77,0,60
1,note_on,75,56,0
1,note_on,75,0,60
1,note_on,81,50,0
1,note_on,81,0,60
1,note_on,77,50,0
1,note_on,77,0,60
1,note_on,75,50,0
1,note_on,75,0,60
1,note_on,72,54,0
1,note_on,72,0,60
1,note_on,77,50,0
1,note_on,77,0,60
1,note_on,75,50,0
1,note_on,75,0,60
1,note_on,72,50,0
1,note_on,72,0,60
1,note_on,70,74,0
1,note_on,70,0,60
1,note_on,50,50,0
1,note_on,50,0,60
1,note_on,53,50,0
1,note_on,53,0,60
1,note_on,58,50,0
1,note_on,58,0,60
1,note_on,62,53,0
1,note_on,62,0,60
1,note_on,65,50,0
1,note_on,65,0,60
1,note_on,70,50,0
1,note_on,70,0,60
1,note_on,74,50,0
1,note_on,74,0,60
1,note_on,65,55,0
1,note_on,65,0,60
1,note_on,70,50,0
1,note_on,70,0,60
1,note_on,74,50,0
1,note_on,74,0,60
1,note_on,77,50,0
1,note_on,77,0,60
1,note_on,70,55,0
1,note_on,70,0,60
1,note_on,74,50,0
1,note_on,74,0,60
1,note_on,77,50,0
1,note_on,77,0,60
1,note_on,82,50,0
1,note_on,82,0,60
1,note_on,50,55,60
1,note_on,50,0,60
1,note_on,53,55,0
1,note_on,53,0,60
1,note_on,58,55,0
1,note_on,58,0,60
1,note_on,62,58,0
1,note_on,62,0,60
1,note_on,65,55,0
1,note_on,65,0,60
1,note_on,70,55,0
1,note_on,70,0,60
1,note_on,74,55,0
1,note_on,74,0,60
1,note_on,65,60,0
1,note_on,65,0,60
1,note_on,70,55,0
1,note_on,70,0,60
1,note_on,74,55,0
1,note_on,74,0,60
1,note_on,77,55,0
1,note_on,77,0,60
1,note_on,70,60,0
1,note_on,70,0,60
1,note_on,74,55,0
1,note_on,74,0,60
1,note_on,77,55,0
1,note_on,77,0,60
1,note_on,82,55,0
1,note_on,82,0,60
1,note_on,51,55,60
1,note_on,51,0,60
1,note_on,55,60,0
1,note_on,55,0,60
1,note_on,58,60,0
1,note_on,58,0,60
1,note_on,63,63,0
1,note_on,63,0,60
1,note_on,67,60,0
1,note_on,67,0,60
1,note_on,70,60,0
1,note_on,70,0,60
1,note_on,75,60,0
1,note_on,75,0,60
1,note_on,67,66,0
1,note_on,67,0,60
1,note_on,70,60,0
1,note_on,70,0,60
1,note_on,75,60,0
1,note_on,75,0,60
1,note_on,79,60,0
1,note_on,79,0,60
1,note_on,70,66,0
1,note_on,70,0,60
1,note_on,75,60,0
1,note_on,75,0,60
1,note_on,79,60,0
1,note_on,79,0,60
1,note_on,82,60,0
1,note_on,82,0,60
1,note_on,62,66,480
1,note_on,62,0,60
1,note_on,65,59,0
1,note_on,65,0,60
1,note_on,68,61,0
1,note_on,68,0,60
1,note_on,70,64,0
1,note_on,70,0,60
1,note_on,74,67,0
1,note_on,74,0,48
1,note_on,77,68,0
1,note_on,77,0,48
1,note_on,80,70,0
1,note_on,80,0,48
1,note_on,84,68,0
1,note_on,84,0,48
1,note_on,82,65,0
1,note_on,82,0,48
1,note_on,80,50,0
1,note_on,80,0,120
1,note_on,79,46,0
1,note_on,79,0,120
1,note_on,77,46,0
1,note_on,77,0,120
1,note_on,75,46,0
1,note_on,75,0,120
1,note_on,74,50,0
1,note_on,74,0,240
1,note_on,75,47,0
1,note_on,75,0,240
1,note_on,76,53,0
1,note_on,76,0,240
1,note_on,77,49,0
1,note_on,77,0,240
1,note_on,83,45,120
1,note_on,83,0,24
1,note_on,84,43,0
1,note_on,84,0,24
1,note_on,83,45,0
1,note_on,83,0,24
1,note_on,81,42,0
1,note_on,81,0,24
1,note_on,83,42,0
1,note_on,83,0,24
1,note_on,86,50,0
1,note_on,86,0,120
1,note_on,84,46,0
1,note_on,84,0,120
1,note_on,82,50,0
1,note_on,82,0,120
1,note_on,80,44,0
1,note_on,80,0,120
1,note_on,79,46,0
1,note_on,79,0,120
1,note_on,77,43,0
1,note_on,77,0,120
1,note_on,74,50,0
1,note_on,74,0,120
1,note_on,75,44,0
1,note_on,75,0,120
1,note_on,76,47,0
1,note_on,76,0,120
1,note_on,77,43,0
1,note_on,77,0,120
1,note_on,78,53,0
1,note_on,78,0,240
1,note_on,79,49,0
1,note_on,79,0,360
1,note_on,79,51,0
1,note_on,79,0,120
1,note_on,80,58,0
1,note_on,80,0,120
1,note_on,79,52,0
1,note_on,79,0,120
1,note_on,77,50,0
1,note_on,77,0,120
1,note_on,75,44,0
1,note_on,75,0,120
1,note_on,74,46,0
1,note_on,74,0,120
1,note_on,72,43,0
1,note_on,72,0,120
1,note_on,71,50,0
1,note_on,71,0,240
1,note_on,72,47,0
1,note_on,72,0,240
1,note_on,73,53,0
1,note_on,73,0,240
1,note_on,74,49,0
1,note_on,74,0,240
1,note_on,79,34,120
1,note_on,79,0,120
1,note_on,80,40,0
1,note_on,80,0,120
1,note_on,79,36,0
1,note_on,79,0,120
1,note_on,77,40,0
1,note_on,77,0,120
1,note_on,75,36,0
1,note_on,75,0,120
1,note_on,74,38,0
1,note_on,74,0,120
1,note_on,72,36,0
1,note_on,72,0,120
1,note_on,75,34,120
1,note_on,75,0,120
1,note_on,77,40,0
1,note_on,77,0,120
1,note_on,75,36,0
1,note_on,75,0,120
1,note_on,74,40,0
1,note_on,74,0,120
1,note_on,72,36,0
1,note_on,72,0,120
1,note_on,70,38,0
1,note_on,70,0,120
1,note_on,69,36,0
1,note_on,69,0,120
1,note_on,57,36,1500
1,note_on,57,0,60
1,note_on,58,36,0
1,note_on,58,0,60
1,note_on,60,37,0
1,note_on,60,0,60
1,note_on,62,37,0
1,note_on,62,0,60
1,note_on,63,38,0
1,note_on,63,0,60
1,note_on,65,39,0
1,note_on,65,0,60
1,note_on,67,39,0
1,note_on,67,0,60
1,note_on,69,40,0
1,note_on,69,0,80
1,note_on,70,42,0
1,note_on,70,0,80
1,note_on,71,43,0
1,note_on,71,0,80
1,note_on,72,44,0
1,note_on,72,0,80
1,note_on,73,44,0
1,note_on,73,0,80
1,note_on,74,45,0
1,note_on,74,0,80
1,note_on,75,49,0
1,note_on,75,0,80
1,note_on,69,42,0
1,note_on,69,0,80
1,note_on,70,42,0
1,note_on,70,0,80
1,note_on,71,45,0
1,note_on,71,0,80
1,note_on,72,48,0
1,note_on,72,0,80
1,note_on,74,50,0
1,note_on,74,0,80
1,note_on,75,52,0
1,note_on,75,0,80
1,note_on,69,47,0
1,note_on,69,0,80
1,note_on,70,49,0
1,note_on,70,0,80
1,note_on,71,50,0
1,note_on,71,0,80
1,note_on,72,52,0
1,note_on,72,0,80
1,note_on,74,53,0
1,note_on,74,0,80
1,note_on,75,62,0
1,note_on,75,0,60
1,note_on,69,54,0
1,note_on,69,0,60
1,note_on,68,51,0
1,note_on,68,0,60
1,note_on,69,52,0
1,note_on,69,0,60
1,note_on,70,53,0
1,note_on,70,0,60
1,note_on,71,54,0
1,note_on,71,0,60
1,note_on,72,56,0
1,note_on,72,0,60
1,note_on,73,57,0
1,note_on,73,0,60
1,note_on,74,59,0
1,note_on,74,0,80
1,note_on,75,61,0
1,note_on,75,0,80
1,note_on,76,59,0
1,note_on,76,0,80
1,note_on,79,50,0
1,note_on,79,0,120
1,note_on,77,46,0
1,note_on,77,0,110
1,note_on,77,50,10
1,note_on,77,0,40
1,note_on,75,46,40
1,note_on,75,0,40
1,note_on,74,46,40
1,note_on,74,0,40
1,note_on,74,46,40
1,note_on,74,0,40
1,note_on,72,46,40
1,note_on,72,0,40
1,note_on,70,46,40
1,note_on,70,0,40
1,note_on,70,50,40
1,note_on,70,0,40
1,note_on,68,44,40
1,note_on,68,0,40
1,note_on,69,44,40
1,note_on,69,0,40
1,note_on,72,47,40
1,note_on,72,0,40
1,note_on,69,44,40
1,note_on,69,0,40
1,note_on,70,44,40
1,note_on,70,0,40
1,note_on,71,53,40
1,note_on,71,0,240
1,note_on,72,49,0
1,note_on,72,0,240
1,note_on,78,45,120
1,note_on,78,0,120
1,note_on,81,50,0
1,note_on,81,0,120
1,note_on,79,46,0
1,note_on,79,0,120
1,note_on,79,50,0
1,note_on,79,0,40
1,note_on,77,46,40
1,note_on,77,0,40
1,note_on,75,46,40
1,note_on,75,0,40
1,note_on,75,46,40
1,note_on,75,0,40
1,note_on,74,42,40
1,note_on,74,0,40
1,note_on,72,42,40
1,note_on,72,0,40
1,note_on,72,50,40
1,note_on,72,0,40
1,note_on,69,44,40
1,note_on,69,0,40
1,note_on,70,44,40
1,note_on,70,0,40
1,note_on,74,47,40
1,note_on,74,0,40
1,note_on,71,44,40
1,note_on,71,0,40
1,note_on,72,44,40
1,note_on,72,0,40
1,note_on,73,53,40
1,note_on,73,0,240
1,note_on,74,49,0
1,note_on,74,0,320
1,note_on,77,51,0
1,note_on,77,0,80
1,note_on,76,48,0
1,note_on,76,0,80
1,note_on,77,58,0
1,note_on,77,0,80
1,note_on,79,52,0
1,note_on,79,0,80
1,note_on,74,49,0
1,note_on,74,0,80
1,note_on,77,56,0
1,note_on,77,0,80
1,note_on,75,52,0
1,note_on,75,0,80
1,note_on,74,51,0
1,note_on,74,0,80
1,note_on,75,57,0
1,note_on,75,0,80
1,note_on,77,52,0
1,note_on,77,0,80
1,note_on,72,52,0
1,note_on,72,0,80
1,note_on,75,57,0
1,note_on,75,0,80
1,note_on,74,52,0
1,note_on,74,0,80
1,note_on,73,51,0
1,note_on,73,0,80
1,note_on,74,59,0
1,note_on,74,0,80
1,note_on,79,52,0
1,note_on,79,0,80
1,note_on,74,55,0
1,note_on,74,0,80
1,note_on,77,62,0
1,note_on,77,0,80
1,note_on,75,56,0
1,note_on,75,0,80
1,note_on,74,56,0
1,note_on,74,0,80
1,note_on,75,62,0
1,note_on,75,0,80
1,note_on,77,54,0
1,note_on,77,0,80
1,note_on,72,54,0
1,note_on,72,0,80
1,note_on,75,61,0
1,note_on,75,0,60
1,note_on,74,55,0
1,note_on,74,0,60
1,note_on,73,52,0
1,note_on,73,0,60
1,note_on,74,53,0
1,note_on,74,0,60
1,note_on,75,55,0
1,note_on,75,0,60
1,note_on,76,56,0
1,note_on,76,0,60
1,note_on,77,57,0
1,note_on,77,0,60
1,note_on,78,58,0
1,note_on,78,0,60
1,note_on,79,64,0
1,note_on,79,0,60
1,note_on,80,60,0
1,note_on,80,0,60
1,note_on,81,61,0
1,note_on,81,0,60
1,note_on,82,62,0
1,note_on,82,0,60
1,note_on,83,63,0
1,note_on,83,0,60
1,note_on,84,65,0
1,note_on,84,0,60
1,note_on,85,67,0
1,note_on,85,0,60
1,note_on,86,68,0
1,note_on,86,0,60
1,note_on,88,79,0
1,note_on,88,0,60
1,note_on,86,62,0
1,note_on,86,0,60
1,note_on,84,65,0
1,note_on,84,0,60
1,note_on,82,59,0
1,note_on,82,0,60
1,note_on,81,64,0
1,note_on,81,0,60
1,note_on,79,59,0
1,note_on,79,0,60
1,note_on,77,58,0
1,note_on,77,0,60
1,note_on,76,54,0
1,note_on,76,0,60
1,note_on,79,58,0
1,note_on,79,0,240
1,note_on,77,53,0
1,note_on,77,0,240
1,note_on,65,38,120
1,note_on,77,45,0
1,note_on,77,0,120
1,note_on,65,0,0
1,note_on,67,42,0
1,note_on,79,50,0
1,note_on,79,0,120
1,note_on,67,0,0
1,note_on,65,39,0
1,note_on,77,46,0
1,note_on,77,0,120
1,note_on,65,0,0
1,note_on,63,42,80
1,note_on,75,50,0
1,note_on,75,0,40
1,note_on,63,0,0
1,note_on,62,35,40
1,note_on,74,41,0
1,note_on,74,0,40
1,note_on,62,0,0
1,note_on,60,39,120
1,note_on,72,46,0
1,note_on,72,0,40
1,note_on,60,0,0
1,note_on,58,35,40
1,note_on,70,41,0
1,note_on,70,0,40
1,note_on,58,0,0
1,note_on,56,42,120
1,note_on,68,50,0
1,note_on,68,0,40
1,note_on,56,0,0
1,note_on,57,35,40
1,note_on,69,41,0
1,note_on,69,0,40
1,note_on,57,0,0
1,note_on,57,39,120
1,note_on,69,46,0
1,note_on,69,0,40
1,note_on,57,0,0
1,note_on,70,41,40
1,note_on,58,35,0
1,note_on,58,0,40
1,note_on,70,0,0
1,note_on,59,45,40
1,note_on,71,53,0
1,note_on,71,0,240
1,note_on,59,0,0
1,note_on,72,49,0
1,note_on,60,41,0
1,note_on,60,0,360
1,note_on,72,0,0
1,note_on,78,45,0
1,note_on,66,38,0
1,note_on,66,0,120
1,note_on,78,0,0
1,note_on,69,42,0
1,note_on,81,50,0
1,note_on,81,0,120
1,note_on,69,0,0
1,note_on,67,39,0
1,note_on,79,46,0
1,note_on,79,0,120
1,note_on,67,0,0
1,note_on,65,42,80
1,note_on,77,50,0
1,note_on,77,0,40
1,note_on,65,0,0
1,note_on,63,35,40
1,note_on,75,41,0
1,note_on,75,0,40
1,note_on,63,0,0
1,note_on,62,39,120
1,note_on,74,46,0
1,note_on,74,0,40
1,note_on,62,0,0
1,note_on,72,41,40
1,note_on,60,35,0
1,note_on,60,0,40
1,note_on,72,0,0
1,note_on,57,42,120
1,note_on,69,50,0
1,note_on,69,0,40
1,note_on,57,0,0
1,note_on,58,35,40
1,note_on,70,41,0
1,note_on,70,0,40
1,note_on,58,0,0
1,note_on,59,39,120
1,note_on,71,46,0
1,note_on,71,0,40
1,note_on,59,0,0
1,note_on,72,41,40
1,note_on,60,35,0
1,note_on,60,0,40
1,note_on,72,0,0
1,note_on,61,45,40
1,note_on,73,53,0
1,note_on,73,0,240
1,note_on,61,0,0
1,note_on,74,49,0
1,note_on,62,41,0
1,note_on,74,0,320
1,note_on,77,56,0
1,note_on,77,0,80
1,note_on,76,56,0
1,note_on,76,0,80
1,note_on,62,0,0
1,note_on,68,54,0
1,note_on,77,62,0
1,note_on,77,0,80
1,note_on,79,57,0
1,note_on,79,0,80
1,note_on,74,51,0
1,note_on,74,0,80
1,note_on,77,62,0
1,note_on,77,0,80
1,note_on,75,58,0
1,note_on,75,0,80
1,note_on,74,54,0
1,note_on,74,0,80
1,note_on,68,0,0
1,note_on,75,63,0
1,note_on,69,46,0
1,note_on,75,0,80
1,note_on,77,58,0
1,note_on,77,0,80
1,note_on,72,53,0
1,note_on,72,0,80
1,note_on,69,0,0
1,note_on,75,64,0
1,note_on,70,46,0
1,note_on,75,0,80
1,note_on,74,59,0
1,note_on,74,0,80
1,note_on,73,59,0
1,note_on,73,0,80
1,note_on,70,0,0
1,note_on,74,67,0
1,note_on,68,47,0
1,note_on,74,0,80
1,note_on,79,62,0
1,note_on,79,0,80
1,note_on,74,59,0
1,note_on,74,0,80
1,note_on,77,71,0
1,note_on,77,0,80
1,note_on,75,64,0
1,note_on,75,0,80
1,note_on,74,61,0
1,note_on,74,0,80
1,note_on,68,0,0
1,note_on,75,72,0
1,note_on,69,47,0
1,note_on,75,0,80
1,note_on,77,66,0
1,note_on,77,0,80
1,note_on,72,63,0
1,note_on,72,0,60
1,note_on,69,0,20
1,note_on,70,60,0
1,note_on,75,71,0
1,note_on,75,0,80
1,note_on,70,0,0
1,note_on,62,53,0
1,note_on,74,63,0
1,note_on,74,0,80
1,note_on,62,0,0
1,note_on,61,53,0
1,note_on,73,63,0
1,note_on,73,0,80
1,note_on,61,0,0
1,note_on,62,57,0
1,note_on,74,67,0
1,note_on,74,0,80
1,note_on,62,0,0
1,note_on,63,60,0
1,note_on,75,71,0
1,note_on,75,0,40
1,note_on,63,0,0
1,note_on,64,60,40
1,note_on,76,71,0
1,note_on,76,0,40
1,note_on,64,0,0
1,note_on,65,64,40
1,note_on,77,76,0
1,note_on,77,0,40
1,note_on,65,0,0
1,note_on,66,61,40
1,note_on,78,72,0
1,note_on,78,0,40
1,note_on,66,0,0
1,note_on,67,61,40
1,note_on,79,72,0
1,note_on,79,0,40
1,note_on,67,0,0
1,note_on,68,64,40
1,note_on,80,76,0
1,note_on,80,0,40
1,note_on,68,0,0
1,note_on,69,67,40
1,note_on,81,80,0
1,note_on,81,0,40
1,note_on,69,0,0
1,note_on,70,67,40
1,note_on,82,80,0
1,note_on,82,0,40
1,note_on,70,0,0
1,note_on,70,71,40
1,note_on,58,71,0
1,note_on,58,0,240
1,note_on,70,0,0
1,note_on,72,69,0
1,note_on,60,58,0
1,note_on,60,0,240
1,note_on,72,0,0
1,note_on,61,41,0
1,note_on,73,49,0
1,note_on,73,0,240
1,note_on,61,0,0
1,note_on,62,38,0
1,note_on,74,45,0
1,note_on,74,0,300
1,note_on,62,0,0
1,note_on,70,59,0
1,note_on,70,0,60
1,note_on,69,61,0
1,note_on,69,0,60
1,note_on,70,62,0
1,note_on,70,0,60
1,note_on,71,62,0
1,note_on,71,0,60
1,note_on,72,64,0
1,note_on,72,0,60
1,note_on,73,65,0
1,note_on,73,0,60
1,note_on,74,67,0
1,note_on,74,0,60
1,note_on,75,69,0
1,note_on,75,0,60
1,note_on,76,70,0
1,note_on,76,0,60
1,note_on,77,71,0
1,note_on,77,0,60
1,note_on,78,73,0
1,note_on,78,0,60
1,note_on,79,74,0
1,note_on,79,0,60
1,note_on,80,76,0
1,note_on,80,0,60
1,note_on,81,77,0
1,note_on,81,0,60
1,note_on,82,78,0
1,note_on,82,0,60
1,note_on,70,53,0
1,note_on,70,0,48
1,note_on,72,48,0
1,note_on,72,0,48
1,note_on,70,45,0
1,note_on,70,0,48
1,note_on,69,45,0
1,note_on,69,0,48
1,note_on,70,45,0
1,note_on,70,0,48
1,note_on,63,44,0
1,note_on,74,52,0
1,note_on,74,0,180
1,note_on,72,41,0
1,note_on,72,0,60
1,note_on,63,0,0
1,note_on,70,53,0
1,note_on,62,53,0
1,note_on,70,0,60
1,note_on,65,59,0
1,note_on,65,0,60
1,note_on,67,62,0
1,note_on,67,0,60
1,note_on,69,64,0
1,note_on,69,0,60
1,note_on,62,0,0
1,note_on,70,67,0
1,note_on,70,0,60
1,note_on,72,71,0
1,note_on,72,0,60
1,note_on,74,78,0
1,note_on,74,0,60
1,note_on,75,84,0
1,note_on,75,0,60
1,note_on,70,85,0
1,note_on,77,101,0
1,note_on,77,0,480
1,note_on,70,0,0
1,note_on,69,85,0
1,note_on,77,101,0
1,note_on,77,0,480
1,note_on,69,0,0
1,note_on,70,85,0
1,note_on,77,101,0
1,note_on,70,0,360
1,note_on,72,85,0
1,note_on,72,0,60
1,note_on,74,85,0
1,note_on,74,0,60
1,note_on,77,0,0
1,note_on,75,85,0
1,note_on,77,101,0
1,note_on,77,0,480
1,note_on,75,0,0
1,note_on,74,85,0
1,note_on,82,101,0
1,note_on,74,0,360
1,note_on,75,56,0
1,note_on,75,0,60
1,note_on,77,57,0
1,note_on,77,0,60
1,note_on,82,0,0
1,note_on,82,81,0
1,note_on,79,68,0
1,note_on,79,0,60
1,note_on,82,0,0
1,note_on,72,45,180
1,note_on,84,53,0
1,note_on,79,45,0
1,note_on,79,0,60
1,note_on,84,0,0
1,note_on,72,0,0
1,note_on,86,63,180
1,note_on,77,53,0
1,note_on,74,53,0
1,note_on,74,0,60
1,note_on,77,0,0
1,note_on,86,0,0
1,note_on,87,54,180
1,note_on,75,45,0
1,note_on,75,0,60
1,note_on,87,0,0
1,note_on,74,51,180
1,note_on,86,61,0
1,note_on,86,0,240
1,note_on,82,53,0
1,note_on,82,0,120
1,note_on,74,0,120
1,note_on,70,81,0
1,note_on,77,97,0
1,note_on,77,0,480
1,note_on,70,0,0
1,note_on,69,81,0
1,note_on,77,97,0
1,note_on,77,0,480
1,note_on,69,0,0
1,note_on,70,81,0
1,note_on,77,97,0
1,note_on,70,0,360
1,note_on,72,81,0
1,note_on,72,0,60
1,note_on,74,81,0
1,note_on,74,0,60
1,note_on,77,0,0
1,note_on,75,81,0
1,note_on,77,97,0
1,note_on,77,0,480
1,note_on,75,0,0
1,note_on,74,81,0
1,note_on,82,97,0
1,note_on,74,0,360
1,note_on,75,67,0
1,note_on,75,0,60
1,note_on,77,68,0
1,note_on,77,0,60
1,note_on,79,97,0
1,note_on,75,81,0
1,note_on,75,0,60
1,note_on,79,0,0
1,note_on,82,0,0
1,note_on,72,67,180
1,note_on,84,79,0
1,note_on,79,67,0
1,note_on,79,0,60
1,note_on,84,0,0
1,note_on,72,0,0
1,note_on,86,98,180
1,note_on,77,82,0
1,note_on,74,82,0
1,note_on,74,0,60
1,note_on,77,0,0
1,note_on,86,0,0
1,note_on,87,87,180
1,note_on,75,74,0
1,note_on,75,0,60
1,note_on,87,0,0
1,note_on,74,75,180
1,note_on,86,104,0
1,note_on,86,0,240
1,note_on,82,81,0
1,note_on,82,0,120
1,note_on,74,0,120
1,note_on,70,74,0
1,note_on,74,88,0
1,note_on,82,106,0
1,note_on,74,0,360
1,note_on,70,0,0
1,note_on,72,61,0
1,note_on,75,73,0
1,note_on,75,0,60
1,note_on,72,0,0
1,note_on,74,62,0
1,note_on,77,74,0
1,note_on,77,0,60
1,note_on,74,0,0
1,note_on,79,106,0
1,note_on,75,88,0
1,note_on,75,0,60
1,note_on,79,0,0
1,note_on,82,0,0
1,note_on,72,72,180
1,note_on,84,86,0
1,note_on,79,72,0
1,note_on,79,0,60
1,note_on,84,0,0
1,note_on,72,0,0
1,note_on,86,108,180
1,note_on,77,90,0
1,note_on,74,90,0
1,note_on,74,0,60
1,note_on,77,0,0
1,note_on,86,0,0
1,note_on,87,99,180
1,note_on,75,80,0
1,note_on,75,0,60
1,note_on,87,0,0
1,note_on,74,82,180
1,note_on,86,114,0
1,note_on,86,0,240
1,note_on,82,88,0
1,note_on,82,0,120
1,note_on,74,0,110
1,note_on,70,94,10
1,note_on,74,94,0
1,note_on,82,111,0
1,note_on,74,0,360
1,note_on,70,0,0
1,note_on,72,73,0
1,note_on,75,86,0
1,note_on,75,0,60
1,note_on,72,0,0
1,note_on,74,75,0
1,note_on,77,90,0
1,note_on,77,0,60
1,note_on,74,0,0
1,note_on,79,106,0
1,note_on,75,74,0
1,note_on,75,0,60
1,note_on,79,0,0
1,note_on,82,0,0
1,note_on,76,85,180
1,note_on,72,85,0
1,note_on,84,100,0
1,note_on,82,85,0
1,note_on,82,0,60
1,note_on,76,0,0
1,note_on,72,0,0
1,note_on,84,0,0
1,note_on,82,91,180
1,note_on,86,108,0
1,note_on,77,91,0
1,note_on,74,91,0
1,note_on,74,0,60
1,note_on,82,0,0
1,note_on,86,0,0
1,note_on,77,0,0
1,note_on,75,82,180
1,note_on,81,97,0
1,note_on,69,82,0
1,note_on,69,0,60
1,note_on,81,0,0
1,note_on,75,0,0
1,note_on,74,87,180
1,note_on,70,87,0
1,note_on,82,103,0
1,note_on,82,0,60
1,note_on,70,0,0
1,note_on,74,0,0
1,note_on,77,45,60
1,note_on,77,0,120
1,note_on,79,50,0
1,note_on,79,0,120
1,note_on,77,46,0
1,note_on,77,0,120
1,note_on,75,50,0
1,note_on,75,0,120
1,note_on,74,43,0
1,note_on,74,0,120
1,note_on,72,46,0
1,note_on,72,0,120
1,note_on,70,43,0
1,note_on,70,0,120
1,note_on,63,40,0
1,note_on,69,50,0
1,note_on,69,0,120
1,note_on,67,46,0
1,note_on,67,0,120
1,note_on,65,47,0
1,note_on,63,0,470
1,note_on,65,0,10
1,note_on,63,37,0
1,note_on,67,44,0
1,note_on,67,0,120
1,note_on,69,42,0
1,note_on,69,0,120
1,note_on,63,0,0
1,note_on,62,35,0
1,note_on,70,42,0
1,note_on,70,0,60
1,note_on,62,0,0
1,note_on,65,38,60
1,note_on,65,0,120
1,note_on,67,42,0
1,note_on,67,0,120
1,note_on,65,39,0
1,note_on,65,0,120
1,note_on,63,42,0
1,note_on,63,0,120
1,note_on,62,37,0
1,note_on,62,0,120
1,note_on,60,39,0
1,note_on,60,0,120
1,note_on,58,37,0
1,note_on,58,0,120
1,note_on,51,34,0
1,note_on,57,42,0
1,note_on,57,0,120
1,note_on,55,39,0
1,note_on,55,0,120
1,note_on,53,39,0
1,note_on,51,0,470
1,note_on,53,0,10
1,note_on,51,31,0
1,note_on,55,37,0
1,note_on,55,0,120
1,note_on,57,35,0
1,note_on,57,0,120
1,note_on,51,0,0
1,note_on,50,32,0
1,note_on,58,37,0
1,note_on,58,0,60
1,note_on,50,0,0
1,note_on,63,42,180
1,note_on,69,42,0
1,note_on,69,0,60
1,note_on,63,0,0
1,note_on,62,42,180
1,note_on,70,42,0
1,note_on,70,0,60
1,note_on,62,0,0
1,note_on,72,88,180
1,note_on,75,88,0
1,note_on,81,105,0
1,note_on,81,0,60
1,note_on,75,0,0
1,note_on,72,0,0
1,note_on,70,98,180
1,note_on,74,98,0
1,note_on,82,116,0
1,note_on,82,0,60
1,note_on,74,0,0
1,note_on,70,0,0
2,note_on,58,42,960
2,note_on,65,34,120
2,note_on,65,0,120
2,note_on,58,0,0
2,note_on,62,38,0
2,note_on,65,34,120
2,note_on,65,0,120
2,note_on,62,0,0
2,note_on,63,38,0
2,note_on,60,38,0
2,note_on,63,0,120
2,note_on,65,34,0
2,note_on,65,0,120
2,note_on,60,0,0
2,note_on,62,37,0
2,note_on,58,37,0
2,note_on,62,0,120
2,note_on,65,34,0
2,note_on,65,0,120
2,note_on,58,0,0
2,note_on,57,43,0
2,note_on,63,43,0
2,note_on,65,34,120
2,note_on,65,0,60
2,note_on,65,34,60
2,note_on,65,0,60
2,note_on,65,34,60
2,note_on,65,0,60
2,note_on,65,37,60
2,note_on,65,0,60
2,note_on,65,34,60
2,note_on,65,0,60
2,note_on,65,34,60
2,note_on,65,0,60
2,note_on,65,34,60
2,note_on,65,0,60
2,note_on,63,0,60
2,note_on,57,0,0
2,note_on,57,42,0
2,note_on,65,34,120
2,note_on,65,0,120
2,note_on,57,0,0
2,note_on,63,38,0
2,note_on,65,34,120
2,note_on,65,0,120
2,note_on,63,0,0
2,note_on,62,38,0
2,note_on,65,34,120
2,note_on,65,0,120
2,note_on,62,0,0
2,note_on,57,37,0
2,note_on,65,34,120
2,note_on,65,0,120
2,note_on,57,0,0
2,note_on,58,43,0
2,note_on,65,34,120
2,note_on,65,0,60
2,note_on,65,34,60
2,note_on,65,0,60
2,note_on,65,34,60
2,note_on,65,0,60
2,note_on,65,37,60
2,note_on,65,0,60
2,note_on,65,34,60
2,note_on,65,0,60
2,note_on,58,0,60
2,note_on,59,34,0
2,note_on,65,34,120
2,note_on,65,0,60
2,note_on,59,0,60
2,note_on,60,42,0
2,note_on,65,34,120
2,note_on,65,0,120
2,note_on,60,0,0
2,note_on,57,38,0
2,note_on,65,34,120
2,note_on,65,0,120
2,note_on,57,0,0
2,note_on,58,42,0
2,note_on,65,34,120
2,note_on,65,0,120
2,note_on,58,0,0
2,note_on,59,38,0
2,note_on,65,34,120
2,note_on,65,0,120
2,note_on,59,0,0
2,note_on,60,47,0
2,note_on,65,34,120
2,note_on,65,0,120
2,note_on,60,0,0
2,note_on,57,42,0
2,note_on,65,34,120
2,note_on,65,0,120
2,note_on,57,0,0
2,note_on,58,52,0
2,note_on,62,38,120
2,note_on,62,0,120
2,note_on,58,0,0
2,note_on,57,47,0
2,note_on,60,42,120
2,note_on,60,0,120
2,note_on,57,0,0
2,note_on,55,58,0
2,note_on,58,42,120
2,note_on,55,0,110
2,note_on,58,0,10
2,note_on,55,49,0
2,note_on,58,41,120
2,note_on,58,0,120
2,note_on,55,0,0
2,note_on,48,63,0
2,note_on,58,39,120
2,note_on,48,0,110
2,note_on,58,0,10
2,note_on,48,43,0
2,note_on,58,34,120
2,note_on,58,0,120
2,note_on,48,0,0
2,note_on,53,43,0
2,note_on,58,29,120
2,note_on,58,0,120
2,note_on,57,35,0
2,note_on,57,0,120
2,note_on,55,29,0
2,note_on,55,0,120
2,note_on,57,34,0
2,note_on,57,0,240
2,note_on,53,0,0
2,note_on,46,42,240
2,note_on,53,34,120
2,note_on,53,0,120
2,note_on,46,0,0
2,note_on,50,38,0
2,note_on,53,34,120
2,note_on,53,0,120
2,note_on,50,0,0
2,note_on,51,38,0
2,note_on,48,38,0
2,note_on,51,0,120
2,note_on,53,34,0
2,note_on,53,0,120
2,note_on,48,0,0
2,note_on,50,37,0
2,note_on,46,37,0
2,note_on,50,0,120
2,note_on,53,34,0
2,note_on,53,0,120
2,note_on,46,0,0
2,note_on,45,43,0
2,note_on,51,43,0
2,note_on,53,34,120
2,note_on,53,0,60
2,note_on,53,34,60
2,note_on,53,0,60
2,note_on,53,34,60
2,note_on,53,0,60
2,note_on,53,37,60
2,note_on,53,0,60
2,note_on,53,34,60
2,note_on,53,0,60
2,note_on,53,34,60
2,note_on,53,0,60
2,note_on,53,34,60
2,note_on,53,0,60
2,note_on,51,0,60
2,note_on,45,0,0
2,note_on,45,42,0
2,note_on,53,34,120
2,note_on,53,0,120
2,note_on,45,0,0
2,note_on,51,38,0
2,note_on,53,34,120
2,note_on,53,0,120
2,note_on,51,0,0
2,note_on,50,38,0
2,note_on,53,34,120
2,note_on,53,0,120
2,note_on,50,0,0
2,note_on,45,37,0
2,note_on,53,34,120
2,note_on,53,0,120
2,note_on,45,0,0
2,note_on,46,43,0
2,note_on,53,34,120
2,note_on,53,0,60
2,note_on,53,34,60
2,note_on,53,0,60
2,note_on,53,34,60
2,note_on,53,0,60
2,note_on,53,37,60
2,note_on,53,0,60
2,note_on,53,37,60
2,note_on,53,0,60
2,note_on,46,0,60
2,note_on,47,37,0
2,note_on,53,37,120
2,note_on,53,0,60
2,note_on,47,0,60
2,note_on,48,46,0
2,note_on,53,38,120
2,note_on,53,0,120
2,note_on,48,0,0
2,note_on,41,42,0
2,note_on,53,38,120
2,note_on,53,0,120
2,note_on,41,0,0
2,note_on,46,47,0
2,note_on,53,38,120
2,note_on,53,0,120
2,note_on,46,0,0
2,note_on,47,43,0
2,note_on,53,39,120
2,note_on,53,0,120
2,note_on,47,0,0
2,note_on,48,54,0
2,note_on,53,39,120
2,note_on,53,0,120
2,note_on,48,0,0
2,note_on,41,48,0
2,note_on,53,39,120
2,note_on,53,0,120
2,note_on,41,0,0
2,note_on,46,56,0
2,note_on,53,41,120
2,note_on,53,0,120
2,note_on,46,0,0
2,note_on,44,50,0
2,note_on,46,45,120
2,note_on,46,0,120
2,note_on,44,0,0
2,note_on,43,65,0
2,note_on,46,53,120
2,note_on,43,0,110
2,note_on,46,0,10
2,note_on,39,61,0
2,note_on,51,53,120
2,note_on,51,0,120
2,note_on,39,0,0
2,note_on,41,56,0
2,note_on,50,42,120
2,note_on,41,0,110
2,note_on,50,0,10
2,note_on,41,49,0
2,note_on,45,43,120
2,note_on,45,0,120
2,note_on,41,0,0
2,note_on,34,43,0
2,note_on,34,0,120
2,note_on,46,29,0
2,note_on,58,35,120
2,note_on,58,0,60
2,note_on,58,29,60
2,note_on,58,0,60
2,note_on,58,37,60
2,note_on,58,0,60
2,note_on,58,35,60
2,note_on,58,0,60
2,note_on,46,0,60
2,note_on,56,43,0
2,note_on,58,39,120
2,note_on,58,0,120
2,note_on,56,0,0
2,note_on,55,52,0
2,note_on,58,46,120
2,note_on,58,0,120
2,note_on,55,0,0
2,note_on,51,56,0
2,note_on,63,50,120
2,note_on,63,0,120
2,note_on,51,0,0
2,note_on,53,35,0
2,note_on,62,29,120
2,note_on,53,0,110
2,note_on,62,0,10
2,note_on,53,35,0
2,note_on,57,29,120
2,note_on,57,0,120
2,note_on,53,0,0
2,note_on,46,33,0
2,note_on,58,39,0
2,note_on,58,0,240
2,note_on,46,0,0
2,note_on,58,50,240
2,note_on,62,60,0
2,note_on,62,0,480
2,note_on,58,0,0
2,note_on,51,38,0
2,note_on,60,45,0
2,note_on,60,0,720
2,note_on,51,0,0
2,note_on,53,34,0
2,note_on,60,41,0
2,note_on,60,0,240
2,note_on,53,0,0
2,note_on,46,42,0
2,note_on,58,50,0
2,note_on,58,0,240
2,note_on,46,0,0
2,note_on,58,50,240
2,note_on,62,60,0
2,note_on,62,0,480
2,note_on,58,0,0
2,note_on,52,41,0
2,note_on,55,41,0
2,note_on,55,0,480
2,note_on,52,0,0
2,note_on,48,41,0
2,note_on,60,41,0
2,note_on,60,0,480
2,note_on,48,0,0
2,note_on,53,42,0
2,note_on,60,50,0
2,note_on,60,0,480
2,note_on,53,0,0
2,note_on,45,62,0
2,note_on,53,52,60
2,note_on,57,54,60
2,note_on,57,0,360
2,note_on,53,0,0
2,note_on,45,0,0
2,note_on,46,65,0
2,note_on,53,54,60
2,note_on,57,57,60
2,note_on,57,0,360
2,note_on,53,0,0
2,note_on,46,0,0
2,note_on,48,68,0
2,note_on,53,57,60
2,note_on,57,59,60
2,note_on,57,0,360
2,note_on,53,0,0
2,note_on,48,0,0
2,note_on,50,71,0
2,note_on,53,59,60
2,note_on,57,62,60
2,note_on,57,0,360
2,note_on,53,0,0
2,note_on,50,0,0
2,note_on,62,53,0
2,note_on,65,53,0
2,note_on,69,63,0
2,note_on,69,0,240
2,note_on,71,59,0
2,note_on,65,0,240
2,note_on,62,0,0
2,note_on,60,54,0
2,note_on,67,64,0
2,note_on,71,0,240
2,note_on,72,58,0
2,note_on,72,0,120
2,note_on,67,0,120
2,note_on,60,0,0
2,note_on,58,53,0
2,note_on,62,53,0
2,note_on,65,63,0
2,note_on,65,0,240
2,note_on,64,50,0
2,note_on,67,59,0
2,note_on,62,0,240
2,note_on,58,0,0
2,note_on,57,54,0
2,note_on,64,0,240
2,note_on,67,0,0
2,note_on,65,50,0
2,note_on,69,58,0
2,note_on,69,0,120
2,note_on,65,0,0
2,note_on,57,0,120
2,note_on,55,53,0
2,note_on,58,53,0
2,note_on,62,63,0
2,note_on,62,0,240
2,note_on,64,59,0
2,note_on,64,0,240
2,note_on,58,0,0
2,note_on,55,0,0
2,note_on,60,58,0
2,note_on,65,58,0
2,note_on,53,58,0
2,note_on,53,0,240
2,note_on,65,0,0
2,note_on,60,0,0
2,note_on,46,45,0
2,note_on,58,53,0
2,note_on,58,0,120
2,note_on,46,0,0
2,note_on,48,51,120
2,note_on,57,60,0
2,note_on,57,0,120
2,note_on,48,0,0
2,note_on,48,45,120
2,note_on,52,54,0
2,note_on,52,0,120
2,note_on,48,0,0
2,note_on,41,51,120
2,note_on,53,60,0
2,note_on,53,0,240
2,note_on,41,0,0
2,note_on,50,58,240
2,note_on,53,58,0
2,note_on,53,0,240
2,note_on,56,52,0
2,note_on,50,0,240
2,note_on,48,62,0
2,note_on,56,0,240
2,note_on,57,58,0
2,note_on,57,0,120
2,note_on,48,0,120
2,note_on,46,58,0
2,note_on,50,58,0
2,note_on,50,0,240
2,note_on,52,52,0
2,note_on,46,0,240
2,note_on,45,62,0
2,note_on,52,0,240
2,note_on,53,58,0
2,note_on,53,0,120
2,note_on,45,0,120
2,note_on,43,62,0
2,note_on,50,58,0
2,note_on,50,0,240
2,note_on,49,52,0
2,note_on,43,0,240
2,note_on,41,62,0
2,note_on,49,0,120
2,note_on,48,51,0
2,note_on,41,0,120
2,note_on,34,57,0
2,note_on,48,0,120
2,note_on,46,54,0
2,note_on,34,0,120
2,note_on,36,59,0
2,note_on,46,0,120
2,note_on,45,55,0
2,note_on,36,0,120
2,note_on,36,62,0
2,note_on,45,0,120
2,note_on,43,57,0
2,note_on,43,0,120
2,note_on,36,0,0
2,note_on,29,64,0
2,note_on,29,0,240
2,note_on,41,46,0
2,note_on,45,46,240
2,note_on,48,46,240
2,note_on,48,0,240
2,note_on,45,0,0
2,note_on,41,0,0
2,note_on,41,54,0
2,note_on,43,54,0
2,note_on,46,47,240
2,note_on,48,47,240
2,note_on,52,47,240
2,note_on,52,0,240
2,note_on,46,0,0
2,note_on,41,0,0
2,note_on,43,0,0
2,note_on,48,0,0
2,note_on,41,64,0
2,note_on,41,0,240
2,note_on,53,46,0
2,note_on,57,46,240
2,note_on,60,46,240
2,note_on,60,0,240
2,note_on,57,0,0
2,note_on,53,0,0
2,note_on,53,54,0
2,note_on,55,54,0
2,note_on,58,47,240
2,note_on,60,47,240
2,note_on,64,47,240
2,note_on,64,0,240
2,note_on,58,0,0
2,note_on,53,0,0
2,note_on,55,0,0
2,note_on,60,0,0
2,note_on,41,75,0
2,note_on,41,0,240
2,note_on,53,57,0
2,note_on,57,57,240
2,note_on,60,58,240
2,note_on,60,0,240
2,note_on,57,0,0
2,note_on,53,0,0
2,note_on,39,82,0
2,note_on,39,0,240
2,note_on,51,63,0
2,note_on,57,64,240
2,note_on,60,64,240
2,note_on,60,0,240
2,note_on,57,0,0
2,note_on,51,0,0
2,note_on,37,91,0
2,note_on,37,0,240
2,note_on,49,66,0
2,note_on,53,67,240
2,note_on,58,67,240
2,note_on,58,0,240
2,note_on,53,0,0
2,note_on,49,0,0
2,note_on,42,94,0
2,note_on,46,68,240
2,note_on,46,0,240
2,note_on,49,72,0
2,note_on,49,0,240
2,note_on,52,75,0
2,note_on,52,0,240
2,note_on,42,0,0
2,note_on,41,72,0
2,note_on,53,84,0
2,note_on,53,0,600
2,note_on,41,0,0
2,note_on,48,40,0
2,note_on,48,0,120
2,note_on,50,45,0
2,note_on,50,0,120
2,note_on,48,41,0
2,note_on,48,0,120
2,note_on,46,45,0
2,note_on,46,0,120
2,note_on,45,40,0
2,note_on,45,0,120
2,note_on,43,43,0
2,note_on,43,0,120
2,note_on,41,40,0
2,note_on,41,0,90
2,note_on,41,45,30
2,note_on,41,0,240
2,note_on,51,38,840
2,note_on,51,0,40
2,note_on,53,40,0
2,note_on,53,0,40
2,note_on,51,38,0
2,note_on,51,0,40
2,note_on,53,45,0
2,note_on,53,0,120
2,note_on,51,41,0
2,note_on,51,0,120
2,note_on,50,45,0
2,note_on,50,0,120
2,note_on,48,40,0
2,note_on,48,0,120
2,note_on,46,43,0
2,note_on,46,0,120
2,note_on,45,40,0
2,note_on,45,0,90
2,note_on,45,45,30
2,note_on,45,0,240
2,note_on,60,40,840
2,note_on,60,0,120
2,note_on,62,45,0
2,note_on,62,0,120
2,note_on,60,41,0
2,note_on,60,0,120
2,note_on,58,45,0
2,note_on,58,0,120
2,note_on,57,40,0
2,note_on,57,0,120
2,note_on,55,43,0
2,note_on,55,0,120
2,note_on,53,40,0
2,note_on,53,0,90
2,note_on,63,40,150
2,note_on,63,0,120
2,note_on,65,45,0
2,note_on,65,0,120
2,note_on,63,41,0
2,note_on,63,0,120
2,note_on,62,45,0
2,note_on,62,0,120
2,note_on,60,40,0
2,note_on,60,0,120
2,note_on,58,43,0
2,note_on,58,0,120
2,note_on,57,40,0
2,note_on,57,0,90
2,note_on,58,42,3390
2,note_on,65,34,120
2,note_on,65,0,120
2,note_on,58,0,0
2,note_on,62,38,0
2,note_on,65,34,120
2,note_on,65,0,120
2,note_on,62,0,0
2,note_on,63,38,0
2,note_on,60,38,0
2,note_on,63,0,120
2,note_on,65,34,0
2,note_on,65,0,120
2,note_on,60,0,0
2,note_on,62,37,0
2,note_on,58,37,0
2,note_on,62,0,120
2,note_on,65,34,0
2,note_on,65,0,120
2,note_on,58,0,0
2,note_on,57,43,0
2,note_on,63,43,0
2,note_on,65,34,120
2,note_on,65,0,60
2,note_on,65,34,60
2,note_on,65,0,60
2,note_on,65,34,60
2,note_on,65,0,60
2,note_on,65,37,60
2,note_on,65,0,60
2,note_on,65,34,60
2,note_on,65,0,60
2,note_on,65,34,60
2,note_on,65,0,60
2,note_on,65,34,60
2,note_on,65,0,60
2,note_on,63,0,60
2,note_on,57,0,0
2,note_on,57,42,0
2,note_on,65,34,120
2,note_on,65,0,120
2,note_on,57,0,0
2,note_on,63,38,0
2,note_on,65,34,120
2,note_on,65,0,120
2,note_on,63,0,0
2,note_on,62,38,0
2,note_on,65,34,120
2,note_on,65,0,120
2,note_on,62,0,0
2,note_on,57,37,0
2,note_on,65,34,120
2,note_on,65,0,120
2,note_on,57,0,0
2,note_on,58,47,0
2,note_on,65,37,120
2,note_on,65,0,60
2,note_on,65,37,60
2,note_on,65,0,60
2,note_on,65,37,60
2,note_on,65,0,60
2,note_on,65,41,60
2,note_on,65,0,60
2,note_on,65,37,60
2,note_on,65,0,60
2,note_on,58,0,60
2,note_on,59,37,0
2,note_on,65,38,120
2,note_on,65,0,60
2,note_on,59,0,60
2,note_on,60,47,0
2,note_on,65,38,120
2,note_on,65,0,120
2,note_on,60,0,0
2,note_on,57,42,0
2,note_on,65,38,120
2,note_on,65,0,120
2,note_on,57,0,0
2,note_on,58,47,0
2,note_on,65,38,120
2,note_on,65,0,120
2,note_on,58,0,0
2,note_on,59,43,0
2,note_on,65,38,120
2,note_on,65,0,120
2,note_on,59,0,0
2,note_on,60,54,0
2,note_on,65,39,120
2,note_on,65,0,120
2,note_on,60,0,0
2,note_on,57,48,0
2,note_on,65,39,120
2,note_on,65,0,120
2,note_on,57,0,0
2,note_on,58,55,0
2,note_on,62,40,120
2,note_on,62,0,120
2,note_on,58,0,0
2,note_on,57,49,0
2,note_on,60,44,120
2,note_on,60,0,120
2,note_on,57,0,0
2,note_on,55,60,0
2,note_on,58,43,120
2,note_on,55,0,110
2,note_on,58,0,10
2,note_on,55,50,0
2,note_on,58,42,120
2,note_on,58,0,120
2,note_on,55,0,0
2,note_on,48,57,0
2,note_on,58,40,120
2,note_on,48,0,110
2,note_on,58,0,10
2,note_on,48,44,0
2,note_on,58,40,120
2,note_on,58,0,120
2,note_on,48,0,0
2,note_on,53,43,0
2,note_on,58,29,120
2,note_on,58,0,120
2,note_on,57,35,0
2,note_on,57,0,120
2,note_on,55,29,0
2,note_on,55,0,120
2,note_on,57,34,0
2,note_on,57,0,240
2,note_on,53,0,0
2,note_on,46,42,240
2,note_on,53,34,120
2,note_on,53,0,120
2,note_on,46,0,0
2,note_on,50,38,0
2,note_on,53,34,120
2,note_on,53,0,120
2,note_on,50,0,0
2,note_on,51,38,0
2,note_on,48,38,0
2,note_on,51,0,120
2,note_on,53,34,0
2,note_on,53,0,120
2,note_on,48,0,0
2,note_on,50,37,0
2,note_on,46,37,0
2,note_on,50,0,120
2,note_on,53,34,0
2,note_on,53,0,120
2,note_on,46,0,0
2,note_on,45,43,0
2,note_on,51,43,0
2,note_on,53,34,120
2,note_on,53,0,60
2,note_on,53,34,60
2,note_on,53,0,60
2,note_on,53,34,60
2,note_on,53,0,60
2,note_on,53,37,60
2,note_on,53,0,60
2,note_on,53,34,60
2,note_on,53,0,60
2,note_on,53,34,60
2,note_on,53,0,60
2,note_on,53,34,60
2,note_on,53,0,60
2,note_on,51,0,60
2,note_on,45,0,0
2,note_on,45,42,0
2,note_on,53,34,120
2,note_on,53,0,120
2,note_on,45,0,0
2,note_on,51,38,0
2,note_on,53,34,120
2,note_on,53,0,120
2,note_on,51,0,0
2,note_on,50,38,0
2,note_on,53,34,120
2,note_on,53,0,120
2,note_on,50,0,0
2,note_on,45,37,0
2,note_on,53,34,120
2,note_on,53,0,120
2,note_on,45,0,0
2,note_on,46,43,0
2,note_on,53,34,120
2,note_on,53,0,60
2,note_on,53,34,60
2,note_on,53,0,60
2,note_on,53,34,60
2,note_on,53,0,60
2,note_on,53,37,60
2,note_on,53,0,60
2,note_on,53,37,60
2,note_on,53,0,60
2,note_on,46,0,60
2,note_on,47,37,0
2,note_on,53,37,120
2,note_on,53,0,60
2,note_on,47,0,60
2,note_on,48,46,0
2,note_on,53,38,120
2,note_on,53,0,120
2,note_on,48,0,0
2,note_on,41,42,0
2,note_on,53,38,120
2,note_on,53,0,120
2,note_on,41,0,0
2,note_on,46,47,0
2,note_on,53,38,120
2,note_on,53,0,120
2,note_on,46,0,0
2,note_on,47,43,0
2,note_on,53,39,120
2,note_on,53,0,120
2,note_on,47,0,0
2,note_on,48,54,0
2,note_on,53,39,120
2,note_on,53,0,120
2,note_on,48,0,0
2,note_on,41,48,0
2,note_on,53,39,120
2,note_on,53,0,120
2,note_on,41,0,0
2,note_on,46,56,0
2,note_on,53,41,120
2,note_on,53,0,120
2,note_on,46,0,0
2,note_on,44,50,0
2,note_on,46,45,120
2,note_on,46,0,120
2,note_on,44,0,0
2,note_on,43,62,0
2,note_on,46,51,120
2,note_on,43,0,110
2,note_on,46,0,10
2,note_on,39,58,0
2,note_on,51,51,120
2,note_on,51,0,120
2,note_on,39,0,0
2,note_on,41,56,0
2,note_on,50,42,120
2,note_on,41,0,110
2,note_on,50,0,10
2,note_on,41,49,0
2,note_on,45,43,120
2,note_on,45,0,120
2,note_on,41,0,0
2,note_on,34,43,0
2,note_on,34,0,120
2,note_on,46,29,0
2,note_on,58,35,120
2,note_on,58,0,60
2,note_on,58,29,60
2,note_on,58,0,60
2,note_on,58,40,60
2,note_on,58,0,60
2,note_on,58,35,60
2,note_on,58,0,60
2,note_on,46,0,60
2,note_on,56,43,0
2,note_on,58,39,120
2,note_on,58,0,120
2,note_on,56,0,0
2,note_on,55,52,0
2,note_on,58,46,120
2,note_on,58,0,120
2,note_on,55,0,0
2,note_on,51,56,0
2,note_on,63,51,120
2,note_on,63,0,120
2,note_on,51,0,0
2,note_on,53,35,0
2,note_on,62,29,120
2,note_on,53,0,110
2,note_on,62,0,10
2,note_on,53,35,0
2,note_on,57,29,120
2,note_on,57,0,120
2,note_on,53,0,0
2,note_on,46,33,0
2,note_on,58,39,0
2,note_on,58,0,240
2,note_on,46,0,0
2,note_on,46,59,240
2,note_on,49,71,0
2,note_on,49,0,480
2,note_on,46,0,0
2,note_on,39,53,0
2,note_on,47,64,0
2,note_on,47,0,360
2,note_on,49,64,0
2,note_on,49,0,60
2,note_on,51,64,0
2,note_on,51,0,60
2,note_on,42,58,0
2,note_on,42,0,240
2,note_on,39,0,0
2,note_on,41,48,0
2,note_on,45,58,0
2,note_on,45,0,240
2,note_on,41,0,0
2,note_on,34,59,0
2,note_on,46,71,0
2,note_on,46,0,360
2,note_on,34,0,0
2,note_on,46,59,120
2,note_on,49,71,0
2,note_on,49,0,480
2,note_on,46,0,0
2,note_on,40,71,0
2,note_on,48,71,0
2,note_on,48,0,480
2,note_on,40,0,0
2,note_on,52,71,0
2,note_on,55,71,0
2,note_on,55,0,480
2,note_on,52,0,0
2,note_on,53,59,0
2,note_on,56,71,0
2,note_on,56,0,120
2,note_on,53,0,0
2,note_on,47,64,120
2,note_on,59,76,0
2,note_on,59,0,120
2,note_on,47,0,0
2,note_on,48,59,120
2,note_on,60,71,0
2,note_on,60,0,120
2,note_on,48,0,0
2,note_on,36,59,120
2,note_on,48,71,0
2,note_on,48,0,120
2,note_on,36,0,0
2,note_on,41,70,120
2,note_on,53,82,0
2,note_on,53,0,120
2,note_on,41,0,0
2,note_on,40,30,0
2,note_on,43,36,0
2,note_on,43,0,60
2,note_on,40,0,0
2,note_on,41,30,60
2,note_on,44,36,0
2,note_on,44,0,60
2,note_on,41,0,0
2,note_on,43,30,60
2,note_on,46,36,0
2,note_on,46,0,60
2,note_on,43,0,0
2,note_on,44,34,60
2,note_on,48,40,0
2,note_on,48,0,60
2,note_on,44,0,0
2,note_on,46,29,60
2,note_on,49,35,0
2,note_on,49,0,60
2,note_on,46,0,0
2,note_on,44,29,60
2,note_on,48,35,0
2,note_on,48,0,60
2,note_on,44,0,0
2,note_on,43,29,60
2,note_on,46,35,0
2,note_on,46,0,60
2,note_on,43,0,0
2,note_on,41,34,60
2,note_on,44,40,0
2,note_on,44,0,60
2,note_on,41,0,0
2,note_on,45,30,60
2,note_on,48,36,0
2,note_on,48,0,60
2,note_on,45,0,0
2,note_on,46,30,60
2,note_on,49,36,0
2,note_on,49,0,60
2,note_on,46,0,0
2,note_on,51,36,60
2,note_on,48,30,0
2,note_on,48,0,60
2,note_on,51,0,0
2,note_on,53,40,60
2,note_on,49,34,0
2,note_on,49,0,60
2,note_on,53,0,0
2,note_on,51,30,60
2,note_on,54,36,0
2,note_on,54,0,60
2,note_on,51,0,0
2,note_on,49,30,60
2,note_on,53,36,0
2,note_on,53,0,60
2,note_on,49,0,0
2,note_on,48,30,60
2,note_on,51,36,0
2,note_on,51,0,60
2,note_on,48,0,0
2,note_on,46,38,60
2,note_on,49,45,0
2,note_on,49,0,60
2,note_on,46,0,0
2,note_on,46,30,60
2,note_on,49,36,0
2,note_on,49,0,60
2,note_on,46,0,0
2,note_on,47,30,60
2,note_on,50,36,0
2,note_on,50,0,60
2,note_on,47,0,0
2,note_on,47,30,60
2,note_on,50,36,0
2,note_on,50,0,60
2,note_on,47,0,0
2,note_on,48,39,60
2,note_on,53,47,0
2,note_on,53,0,60
2,note_on,48,0,0
2,note_on,48,32,60
2,note_on,53,38,0
2,note_on,53,0,60
2,note_on,48,0,0
2,note_on,48,32,60
2,note_on,55,38,0
2,note_on,55,0,60
2,note_on,48,0,0
2,note_on,48,32,60
2,note_on,55,38,0
2,note_on,55,0,60
2,note_on,48,0,0
2,note_on,53,61,60
2,note_on,56,72,0
2,note_on,56,0,120
2,note_on,53,0,0
2,note_on,40,36,0
2,note_on,52,42,0
2,note_on,52,0,60
2,note_on,40,0,0
2,note_on,41,36,60
2,note_on,53,43,0
2,note_on,53,0,60
2,note_on,41,0,0
2,note_on,43,36,60
2,note_on,55,44,0
2,note_on,55,0,60
2,note_on,43,0,0
2,note_on,44,42,60
2,note_on,56,50,0
2,note_on,56,0,60
2,note_on,44,0,0
2,note_on,46,37,60
2,note_on,58,45,0
2,note_on,58,0,60
2,note_on,46,0,0
2,note_on,44,37,60
2,note_on,56,46,0
2,note_on,56,0,60
2,note_on,44,0,0
2,note_on,43,37,60
2,note_on,55,46,0
2,note_on,55,0,60
2,note_on,43,0,0
2,note_on,41,46,60
2,note_on,53,54,0
2,note_on,53,0,60
2,note_on,41,0,0
2,note_on,45,42,60
2,note_on,57,50,0
2,note_on,57,0,60
2,note_on,45,0,0
2,note_on,46,42,60
2,note_on,58,50,0
2,note_on,58,0,60
2,note_on,46,0,0
2,note_on,60,52,60
2,note_on,48,42,0
2,note_on,48,0,60
2,note_on,60,0,0
2,note_on,61,58,60
2,note_on,49,50,0
2,note_on,49,0,60
2,note_on,61,0,0
2,note_on,51,44,60
2,note_on,63,54,0
2,note_on,63,0,60
2,note_on,51,0,0
2,note_on,49,44,60
2,note_on,61,54,0
2,note_on,61,0,60
2,note_on,49,0,0
2,note_on,48,46,60
2,note_on,60,56,0
2,note_on,60,0,60
2,note_on,48,0,0
2,note_on,46,60,60
2,note_on,58,71,0
2,note_on,58,0,60
2,note_on,46,0,0
2,note_on,58,48,60
2,note_on,61,57,0
2,note_on,61,0,60
2,note_on,58,0,0
2,note_on,59,48,60
2,note_on,62,58,0
2,note_on,62,0,60
2,note_on,59,0,0
2,note_on,59,48,60
2,note_on,62,58,0
2,note_on,62,0,60
2,note_on,59,0,0
2,note_on,60,65,60
2,note_on,65,78,0
2,note_on,65,0,60
2,note_on,60,0,0
2,note_on,60,54,60
2,note_on,65,64,0
2,note_on,65,0,60
2,note_on,60,0,0
2,note_on,60,55,60
2,note_on,67,66,0
2,note_on,67,0,60
2,note_on,60,0,0
2,note_on,60,56,60
2,note_on,67,67,0
2,note_on,67,0,60
2,note_on,60,0,0
2,note_on,53,53,60
2,note_on,56,53,0
2,note_on,60,53,0
2,note_on,65,63,0
2,note_on,65,0,60
2,note_on,53,0,0
2,note_on,56,0,0
2,note_on,60,0,0
2,note_on,53,53,60
2,note_on,56,53,0
2,note_on,60,53,0
2,note_on,65,63,0
2,note_on,65,0,60
2,note_on,53,0,0
2,note_on,56,0,0
2,note_on,60,0,0
2,note_on,53,47,60
2,note_on,56,47,0
2,note_on,60,47,0
2,note_on,65,56,0
2,note_on,65,0,60
2,note_on,53,0,0
2,note_on,56,0,0
2,note_on,60,0,0
2,note_on,53,47,60
2,note_on,56,47,0
2,note_on,60,47,0
2,note_on,65,56,0
2,note_on,65,0,60
2,note_on,53,0,0
2,note_on,56,0,0
2,note_on,60,0,0
2,note_on,53,49,60
2,note_on,55,49,0
2,note_on,58,49,0
2,note_on,60,49,0
2,note_on,64,59,0
2,note_on,64,0,60
2,note_on,58,0,0
2,note_on,53,0,0
2,note_on,55,0,0
2,note_on,60,0,0
2,note_on,53,42,60
2,note_on,55,42,0
2,note_on,58,42,0
2,note_on,60,42,0
2,note_on,64,50,0
2,note_on,64,0,60
2,note_on,58,0,0
2,note_on,53,0,0
2,note_on,55,0,0
2,note_on,60,0,0
2,note_on,53,42,60
2,note_on,55,42,0
2,note_on,58,42,0
2,note_on,60,42,0
2,note_on,64,50,0
2,note_on,64,0,60
2,note_on,58,0,0
2,note_on,53,0,0
2,note_on,55,0,0
2,note_on,60,0,0
2,note_on,53,42,60
2,note_on,55,42,0
2,note_on,58,42,0
2,note_on,60,42,0
2,note_on,64,50,0
2,note_on,64,0,60
2,note_on,58,0,0
2,note_on,53,0,0
2,note_on,55,0,0
2,note_on,60,0,0
2,note_on,41,53,60
2,note_on,44,53,0
2,note_on,48,53,0
2,note_on,53,63,0
2,note_on,53,0,60
2,note_on,41,0,0
2,note_on,44,0,0
2,note_on,48,0,0
2,note_on,41,53,60
2,note_on,44,53,0
2,note_on,48,53,0
2,note_on,53,63,0
2,note_on,53,0,60
2,note_on,41,0,0
2,note_on,44,0,0
2,note_on,48,0,0
2,note_on,41,47,60
2,note_on,44,47,0
2,note_on,48,47,0
2,note_on,53,56,0
2,note_on,53,0,60
2,note_on,41,0,0
2,note_on,44,0,0
2,note_on,48,0,0
2,note_on,41,47,60
2,note_on,44,47,0
2,note_on,48,47,0
2,note_on,53,56,0
2,note_on,53,0,60
2,note_on,41,0,0
2,note_on,44,0,0
2,note_on,48,0,0
2,note_on,41,49,60
2,note_on,43,49,0
2,note_on,46,49,0
2,note_on,48,49,0
2,note_on,52,59,0
2,note_on,52,0,60
2,note_on,46,0,0
2,note_on,41,0,0
2,note_on,43,0,0
2,note_on,48,0,0
2,note_on,41,42,60
2,note_on,43,42,0
2,note_on,46,42,0
2,note_on,48,42,0
2,note_on,52,50,0
2,note_on,52,0,60
2,note_on,46,0,0
2,note_on,41,0,0
2,note_on,43,0,0
2,note_on,48,0,0
2,note_on,41,42,60
2,note_on,43,42,0
2,note_on,46,42,0
2,note_on,48,42,0
2,note_on,52,50,0
2,note_on,52,0,60
2,note_on,46,0,0
2,note_on,41,0,0
2,note_on,43,0,0
2,note_on,48,0,0
2,note_on,41,42,60
2,note_on,43,42,0
2,note_on,46,42,0
2,note_on,48,42,0
2,note_on,52,50,0
2,note_on,52,0,60
2,note_on,46,0,0
2,note_on,41,0,0
2,note_on,43,0,0
2,note_on,48,0,0
2,note_on,41,51,60
2,note_on,53,61,0
2,note_on,53,0,480
2,note_on,41,0,0
2,note_on,44,79,0
2,note_on,44,0,480
2,note_on,43,83,0
2,note_on,43,0,360
2,note_on,44,70,0
2,note_on,44,0,60
2,note_on,46,70,0
2,note_on,46,0,60
2,note_on,38,85,0
2,note_on,38,0,120
2,note_on,40,80,120
2,note_on,40,0,120
2,note_on,41,90,120
2,note_on,41,0,120
2,note_on,49,79,360
2,note_on,49,0,480
2,note_on,48,83,0
2,note_on,48,0,360
2,note_on,49,70,0
2,note_on,49,0,60
2,note_on,51,70,0
2,note_on,51,0,60
2,note_on,43,85,0
2,note_on,43,0,120
2,note_on,45,80,120
2,note_on,45,0,120
2,note_on,46,90,120
2,note_on,46,0,120
2,note_on,53,80,1320
2,note_on,53,0,480
2,note_on,46,90,0
2,note_on,46,0,240
2,note_on,58,80,1200
2,note_on,58,0,480
2,note_on,51,90,0
2,note_on,51,0,240
2,note_on,58,79,240
2,note_on,54,67,0
2,note_on,54,0,480
2,note_on,58,0,0
2,note_on,56,83,0
2,note_on,53,70,0
2,note_on,53,0,360
2,note_on,56,0,0
2,note_on,54,59,0
2,note_on,58,70,0
2,note_on,56,59,60
2,note_on,59,70,0
2,note_on,58,0,6
2,note_on,54,0,0
2,note_on,48,72,54
2,note_on,51,85,0
2,note_on,56,0,6
2,note_on,59,0,0
2,note_on,48,0,114
2,note_on,51,0,0
2,note_on,50,68,120
2,note_on,53,80,0
2,note_on,53,0,120
2,note_on,50,0,0
2,note_on,54,83,120
2,note_on,51,70,0
2,note_on,51,0,360
2,note_on,54,0,0
2,note_on,53,59,0
2,note_on,56,70,0
2,note_on,54,59,60
2,note_on,58,70,0
2,note_on,56,0,6
2,note_on,53,0,0
2,note_on,46,72,54
2,note_on,49,85,0
2,note_on,54,0,6
2,note_on,58,0,0
2,note_on,46,0,114
2,note_on,49,0,0
2,note_on,48,68,120
2,note_on,51,80,0
2,note_on,51,0,120
2,note_on,48,0,0
2,note_on,49,78,120
2,note_on,53,83,0
2,note_on,53,0,120
2,note_on,49,0,0
2,note_on,56,83,120
2,note_on,53,70,0
2,note_on,53,0,600
2,note_on,56,0,0
2,note_on,51,60,0
2,note_on,54,71,0
2,note_on,49,56,60
2,note_on,53,67,0
2,note_on,54,0,6
2,note_on,51,0,0
2,note_on,48,78,54
2,note_on,51,83,0
2,note_on,49,0,6
2,note_on,53,0,0
2,note_on,48,0,114
2,note_on,51,0,0
2,note_on,66,83,120
2,note_on,63,70,0
2,note_on,63,0,600
2,note_on,66,0,0
2,note_on,61,60,0
2,note_on,65,71,0
2,note_on,60,56,60
2,note_on,63,67,0
2,note_on,65,0,6
2,note_on,61,0,0
2,note_on,61,83,54
2,note_on,58,70,0
2,note_on,60,0,6
2,note_on,63,0,0
2,note_on,61,0,354
2,note_on,58,0,0
2,note_on,56,59,0
2,note_on,60,70,0
2,note_on,60,0,120
2,note_on,56,0,0
2,note_on,58,83,0
2,note_on,54,70,0
2,note_on,54,0,360
2,note_on,58,0,0
2,note_on,53,59,0
2,note_on,56,70,0
2,note_on,56,0,120
2,note_on,53,0,0
2,note_on,54,83,0
2,note_on,51,70,0
2,note_on,54,0,240
2,note_on,63,70,0
2,note_on,63,0,240
2,note_on,51,0,0
2,note_on,53,70,0
2,note_on,61,83,0
2,note_on,61,0,120
2,note_on,53,0,0
2,note_on,60,79,120
2,note_on,53,67,0
2,note_on,53,0,120
2,note_on,60,0,0
2,note_on,46,61,120
2,note_on,58,72,0
2,note_on,58,0,120
2,note_on,46,0,0
2,note_on,45,30,0
2,note_on,48,36,0
2,note_on,48,0,60
2,note_on,45,0,0
2,note_on,46,30,60
2,note_on,49,36,0
2,note_on,49,0,60
2,note_on,46,0,0
2,note_on,48,30,60
2,note_on,51,36,0
2,note_on,51,0,60
2,note_on,48,0,0
2,note_on,49,34,60
2,note_on,53,40,0
2,note_on,53,0,60
2,note_on,49,0,0
2,note_on,51,29,60
2,note_on,54,35,0
2,note_on,54,0,60
2,note_on,51,0,0
2,note_on,49,29,60
2,note_on,53,35,0
2,note_on,53,0,60
2,note_on,49,0,0
2,note_on,48,29,60
2,note_on,51,35,0
2,note_on,51,0,60
2,note_on,48,0,0
2,note_on,46,34,60
2,note_on,49,40,0
2,note_on,49,0,60
2,note_on,46,0,0
2,note_on,50,30,60
2,note_on,53,36,0
2,note_on,53,0,60
2,note_on,50,0,0
2,note_on,51,30,60
2,note_on,54,36,0
2,note_on,54,0,60
2,note_on,51,0,0
2,note_on,56,36,60
2,note_on,53,30,0
2,note_on,53,0,60
2,note_on,56,0,0
2,note_on,58,40,60
2,note_on,54,34,0
2,note_on,54,0,60
2,note_on,58,0,0
2,note_on,56,30,60
2,note_on,59,36,0
2,note_on,59,0,60
2,note_on,56,0,0
2,note_on,54,30,60
2,note_on,58,36,0
2,note_on,58,0,60
2,note_on,54,0,0
2,note_on,53,30,60
2,note_on,56,36,0
2,note_on,56,0,60
2,note_on,53,0,0
2,note_on,51,38,60
2,note_on,54,45,0
2,note_on,54,0,60
2,note_on,51,0,0
2,note_on,51,30,60
2,note_on,54,36,0
2,note_on,54,0,60
2,note_on,51,0,0
2,note_on,52,30,60
2,note_on,55,36,0
2,note_on,55,0,60
2,note_on,52,0,0
2,note_on,52,30,60
2,note_on,55,36,0
2,note_on,55,0,60
2,note_on,52,0,0
2,note_on,53,39,60
2,note_on,58,47,0
2,note_on,58,0,60
2,note_on,53,0,0
2,note_on,53,32,60
2,note_on,58,38,0
2,note_on,58,0,60
2,note_on,53,0,0
2,note_on,53,32,60
2,note_on,60,38,0
2,note_on,60,0,60
2,note_on,53,0,0
2,note_on,53,32,60
2,note_on,60,38,0
2,note_on,60,0,60
2,note_on,53,0,0
2,note_on,46,58,60
2,note_on,58,69,0
2,note_on,58,0,120
2,note_on,46,0,0
2,note_on,45,40,0
2,note_on,57,48,0
2,note_on,57,0,60
2,note_on,45,0,0
2,note_on,46,40,60
2,note_on,58,48,0
2,note_on,58,0,60
2,note_on,46,0,0
2,note_on,48,40,60
2,note_on,60,50,0
2,note_on,60,0,60
2,note_on,48,0,0
2,note_on,49,48,60
2,note_on,61,57,0
2,note_on,61,0,60
2,note_on,49,0,0
2,note_on,51,43,60
2,note_on,63,51,0
2,note_on,63,0,60
2,note_on,51,0,0
2,note_on,49,43,60
2,note_on,61,53,0
2,note_on,61,0,60
2,note_on,49,0,0
2,note_on,48,43,60
2,note_on,60,54,0
2,note_on,60,0,60
2,note_on,48,0,0
2,note_on,46,54,60
2,note_on,58,64,0
2,note_on,58,0,60
2,note_on,46,0,0
2,note_on,50,48,60
2,note_on,62,58,0
2,note_on,62,0,60
2,note_on,50,0,0
2,note_on,51,50,60
2,note_on,63,59,0
2,note_on,63,0,60
2,note_on,51,0,0
2,note_on,65,62,60
2,note_on,53,50,0
2,note_on,53,0,60
2,note_on,65,0,0
2,note_on,66,70,60
2,note_on,54,58,0
2,note_on,54,0,60
2,note_on,66,0,0
2,note_on,56,53,60
2,note_on,68,66,0
2,note_on,68,0,60
2,note_on,56,0,0
2,note_on,54,53,60
2,note_on,66,66,0
2,note_on,66,0,60
2,note_on,54,0,0
2,note_on,53,57,60
2,note_on,65,69,0
2,note_on,65,0,60
2,note_on,53,0,0
2,note_on,51,74,60
2,note_on,63,88,0
2,note_on,63,0,60
2,note_on,51,0,0
2,note_on,63,58,60
2,note_on,66,69,0
2,note_on,66,0,60
2,note_on,63,0,0
2,note_on,64,60,60
2,note_on,67,72,0
2,note_on,67,0,60
2,note_on,64,0,0
2,note_on,64,60,60
2,note_on,67,72,0
2,note_on,67,0,60
2,note_on,64,0,0
2,note_on,65,73,60
2,note_on,70,90,0
2,note_on,70,0,60
2,note_on,65,0,0
2,note_on,65,68,60
2,note_on,70,81,0
2,note_on,70,0,60
2,note_on,65,0,0
2,note_on,65,70,60
2,note_on,72,85,0
2,note_on,72,0,60
2,note_on,65,0,0
2,note_on,65,71,60
2,note_on,72,86,0
2,note_on,72,0,60
2,note_on,65,0,0
2,note_on,58,66,60
2,note_on,61,66,0
2,note_on,65,66,0
2,note_on,70,78,0
2,note_on,70,0,60
2,note_on,58,0,0
2,note_on,61,0,0
2,note_on,65,0,0
2,note_on,58,55,60
2,note_on,61,55,0
2,note_on,65,55,0
2,note_on,70,66,0
2,note_on,70,0,60
2,note_on,58,0,0
2,note_on,61,0,0
2,note_on,65,0,0
2,note_on,58,49,60
2,note_on,61,49,0
2,note_on,65,49,0
2,note_on,70,58,0
2,note_on,70,0,60
2,note_on,58,0,0
2,note_on,61,0,0
2,note_on,65,0,0
2,note_on,58,49,60
2,note_on,61,49,0
2,note_on,65,49,0
2,note_on,70,58,0
2,note_on,70,0,60
2,note_on,58,0,0
2,note_on,61,0,0
2,note_on,65,0,0
2,note_on,58,51,60
2,note_on,60,51,0
2,note_on,63,51,0
2,note_on,65,51,0
2,note_on,69,61,0
2,note_on,69,0,60
2,note_on,63,0,0
2,note_on,58,0,0
2,note_on,60,0,0
2,note_on,65,0,0
2,note_on,58,44,60
2,note_on,60,44,0
2,note_on,63,44,0
2,note_on,65,44,0
2,note_on,69,52,0
2,note_on,69,0,60
2,note_on,63,0,0
2,note_on,58,0,0
2,note_on,60,0,0
2,note_on,65,0,0
2,note_on,58,44,60
2,note_on,60,44,0
2,note_on,63,44,0
2,note_on,65,44,0
2,note_on,69,52,0
2,note_on,69,0,60
2,note_on,63,0,0
2,note_on,58,0,0
2,note_on,60,0,0
2,note_on,65,0,0
2,note_on,58,44,60
2,note_on,60,44,0
2,note_on,63,44,0
2,note_on,65,44,0
2,note_on,69,52,0
2,note_on,69,0,60
2,note_on,63,0,0
2,note_on,58,0,0
2,note_on,60,0,0
2,note_on,65,0,0
2,note_on,46,55,60
2,note_on,49,55,0
2,note_on,53,55,0
2,note_on,58,66,0
2,note_on,58,0,60
2,note_on,46,0,0
2,note_on,49,0,0
2,note_on,53,0,0
2,note_on,46,55,60
2,note_on,49,55,0
2,note_on,53,55,0
2,note_on,58,66,0
2,note_on,58,0,60
2,note_on,46,0,0
2,note_on,49,0,0
2,note_on,53,0,0
2,note_on,46,49,60
2,note_on,49,49,0
2,note_on,53,49,0
2,note_on,58,58,0
2,note_on,58,0,60
2,note_on,46,0,0
2,note_on,49,0,0
2,note_on,53,0,0
2,note_on,46,49,60
2,note_on,49,49,0
2,note_on,53,49,0
2,note_on,58,58,0
2,note_on,58,0,60
2,note_on,46,0,0
2,note_on,49,0,0
2,note_on,53,0,0
2,note_on,46,51,60
2,note_on,48,51,0
2,note_on,51,51,0
2,note_on,53,51,0
2,note_on,57,61,0
2,note_on,57,0,60
2,note_on,51,0,0
2,note_on,46,0,0
2,note_on,48,0,0
2,note_on,53,0,0
2,note_on,46,44,60
2,note_on,48,44,0
2,note_on,51,44,0
2,note_on,53,44,0
2,note_on,57,52,0
2,note_on,57,0,60
2,note_on,51,0,0
2,note_on,46,0,0
2,note_on,48,0,0
2,note_on,53,0,0
2,note_on,46,44,60
2,note_on,48,44,0
2,note_on,51,44,0
2,note_on,53,44,0
2,note_on,57,52,0
2,note_on,57,0,60
2,note_on,51,0,0
2,note_on,46,0,0
2,note_on,48,0,0
2,note_on,53,0,0
2,note_on,46,44,60
2,note_on,48,44,0
2,note_on,51,44,0
2,note_on,53,44,0
2,note_on,57,52,0
2,note_on,57,0,60
2,note_on,51,0,0
2,note_on,46,0,0
2,note_on,48,0,0
2,note_on,53,0,0
2,note_on,46,64,60
2,note_on,46,0,600
2,note_on,49,45,0
2,note_on,51,50,120
2,note_on,49,0,12
2,note_on,49,46,108
2,note_on,51,0,12
2,note_on,47,50,108
2,note_on,49,0,12
2,note_on,46,46,108
2,note_on,47,0,12
2,note_on,44,46,108
2,note_on,46,0,12
2,note_on,42,46,108
2,note_on,44,0,12
2,note_on,41,50,108
2,note_on,42,0,12
2,note_on,41,0,228
2,note_on,42,47,0
2,note_on,42,0,240
2,note_on,43,53,0
2,note_on,43,0,240
2,note_on,44,49,0
2,note_on,44,0,360
2,note_on,51,45,0
2,note_on,52,50,120
2,note_on,51,0,12
2,note_on,51,46,108
2,note_on,52,0,12
2,note_on,49,50,108
2,note_on,51,0,12
2,note_on,47,41,108
2,note_on,49,0,12
2,note_on,46,46,108
2,note_on,47,0,12
2,note_on,44,40,108
2,note_on,46,0,12
2,note_on,43,48,108
2,note_on,44,0,12
2,note_on,43,0,228
2,note_on,44,40,0
2,note_on,44,0,240
2,note_on,45,45,0
2,note_on,45,0,960
2,note_on,46,45,0
2,note_on,46,0,960
2,note_on,45,45,0
2,note_on,45,0,240
2,note_on,55,35,2640
2,note_on,63,42,0
2,note_on,63,0,120
2,note_on,55,0,0
2,note_on,53,33,0
2,note_on,62,39,0
2,note_on,62,0,120
2,note_on,53,0,0
2,note_on,51,33,0
2,note_on,60,39,0
2,note_on,60,0,120
2,note_on,51,0,0
2,note_on,50,33,0
2,note_on,58,39,0
2,note_on,58,0,120
2,note_on,50,0,0
2,note_on,48,35,0
2,note_on,57,35,0
2,note_on,57,0,240
2,note_on,48,0,0
2,note_on,50,33,0
2,note_on,58,39,0
2,note_on,58,0,240
2,note_on,50,0,0
2,note_on,56,38,0
2,note_on,59,45,0
2,note_on,59,0,240
2,note_on,56,0,0
2,note_on,57,34,0
2,note_on,60,41,0
2,note_on,60,0,360
2,note_on,57,0,0
2,note_on,66,38,0
2,note_on,66,0,120
2,note_on,69,42,0
2,note_on,69,0,120
2,note_on,67,39,0
2,note_on,67,0,120
2,note_on,65,42,0
2,note_on,65,0,110
2,note_on,55,33,10
2,note_on,63,39,0
2,note_on,63,0,120
2,note_on,55,0,0
2,note_on,53,33,0
2,note_on,62,39,0
2,note_on,62,0,120
2,note_on,53,0,0
2,note_on,51,33,0
2,note_on,60,39,0
2,note_on,60,0,120
2,note_on,51,0,0
2,note_on,50,35,0
2,note_on,58,42,0
2,note_on,58,0,240
2,note_on,50,0,0
2,note_on,57,33,0
2,note_on,60,39,0
2,note_on,60,0,240
2,note_on,57,0,0
2,note_on,57,38,0
2,note_on,61,45,0
2,note_on,61,0,240
2,note_on,57,0,0
2,note_on,58,34,0
2,note_on,62,41,0
2,note_on,62,0,360
2,note_on,58,0,0
2,note_on,65,43,0
2,note_on,65,0,120
2,note_on,59,34,0
2,note_on,67,49,0
2,note_on,67,0,120
2,note_on,62,44,0
2,note_on,62,0,120
2,note_on,59,0,0
2,note_on,60,37,0
2,note_on,65,51,0
2,note_on,65,0,120
2,note_on,63,48,0
2,note_on,63,0,120
2,note_on,60,0,0
2,note_on,57,37,0
2,note_on,65,53,0
2,note_on,65,0,120
2,note_on,60,48,0
2,note_on,60,0,120
2,note_on,57,0,0
2,note_on,58,38,0
2,note_on,63,53,0
2,note_on,63,0,120
2,note_on,62,49,0
2,note_on,62,0,120
2,note_on,58,0,0
2,note_on,59,38,0
2,note_on,67,56,0
2,note_on,67,0,120
2,note_on,62,50,0
2,note_on,62,0,120
2,note_on,59,0,0
2,note_on,60,39,0
2,note_on,65,59,0
2,note_on,65,0,120
2,note_on,63,54,0
2,note_on,63,0,120
2,note_on,60,0,0
2,note_on,57,39,0
2,note_on,65,60,0
2,note_on,65,0,120
2,note_on,60,52,0
2,note_on,60,0,120
2,note_on,57,0,0
2,note_on,58,50,0
2,note_on,63,59,0
2,note_on,63,0,120
2,note_on,62,53,0
2,note_on,58,0,120
2,note_on,57,47,0
2,note_on,62,0,120
2,note_on,60,60,0
2,note_on,57,0,120
2,note_on,55,66,0
2,note_on,60,0,240
2,note_on,58,60,0
2,note_on,55,0,240
2,note_on,48,62,0
2,note_on,58,0,240
2,note_on,58,58,0
2,note_on,48,0,240
2,note_on,53,58,0
2,note_on,58,0,240
2,note_on,57,47,0
2,note_on,57,0,240
2,note_on,53,0,0
2,note_on,46,42,480
2,note_on,53,34,120
2,note_on,53,0,120
2,note_on,46,0,0
2,note_on,50,38,0
2,note_on,53,34,120
2,note_on,53,0,120
2,note_on,50,0,0
2,note_on,51,38,0
2,note_on,48,38,0
2,note_on,51,0,120
2,note_on,53,34,0
2,note_on,53,0,120
2,note_on,48,0,0
2,note_on,50,37,0
2,note_on,46,37,0
2,note_on,50,0,120
2,note_on,53,34,0
2,note_on,53,0,120
2,note_on,46,0,0
2,note_on,45,43,0
2,note_on,51,43,0
2,note_on,53,34,120
2,note_on,53,0,60
2,note_on,53,34,60
2,note_on,53,0,60
2,note_on,53,34,60
2,note_on,53,0,60
2,note_on,53,37,60
2,note_on,53,0,60
2,note_on,53,34,60
2,note_on,53,0,60
2,note_on,53,34,60
2,note_on,53,0,60
2,note_on,53,34,60
2,note_on,53,0,60
2,note_on,51,0,60
2,note_on,45,0,0
2,note_on,45,42,0
2,note_on,53,34,120
2,note_on,53,0,120
2,note_on,45,0,0
2,note_on,51,38,0
2,note_on,53,34,120
2,note_on,53,0,120
2,note_on,51,0,0
2,note_on,50,38,0
2,note_on,53,34,120
2,note_on,53,0,120
2,note_on,50,0,0
2,note_on,45,37,0
2,note_on,53,34,120
2,note_on,53,0,120
2,note_on,45,0,0
2,note_on,46,43,0
2,note_on,53,34,120
2,note_on,53,0,60
2,note_on,53,34,60
2,note_on,53,0,60
2,note_on,53,34,60
2,note_on,53,0,60
2,note_on,53,40,60
2,note_on,53,0,60
2,note_on,53,37,60
2,note_on,53,0,60
2,note_on,46,0,60
2,note_on,53,37,0
2,note_on,47,37,0
2,note_on,53,0,60
2,note_on,53,37,60
2,note_on,53,0,60
2,note_on,47,0,60
2,note_on,48,47,0
2,note_on,53,38,120
2,note_on,53,0,120
2,note_on,48,0,0
2,note_on,45,42,0
2,note_on,53,38,120
2,note_on,53,0,120
2,note_on,45,0,0
2,note_on,46,47,0
2,note_on,53,38,120
2,note_on,53,0,120
2,note_on,46,0,0
2,note_on,47,43,0
2,note_on,53,39,120
2,note_on,53,0,120
2,note_on,47,0,0
2,note_on,48,54,0
2,note_on,53,39,120
2,note_on,53,0,120
2,note_on,48,0,0
2,note_on,45,49,0
2,note_on,53,39,120
2,note_on,53,0,120
2,note_on,45,0,0
2,note_on,46,56,0
2,note_on,53,41,120
2,note_on,53,0,120
2,note_on,46,0,0
2,note_on,44,51,0
2,note_on,46,45,120
2,note_on,46,0,120
2,note_on,44,0,0
2,note_on,43,62,0
2,note_on,46,51,120
2,note_on,43,0,110
2,note_on,46,0,10
2,note_on,39,58,0
2,note_on,51,51,120
2,note_on,51,0,120
2,note_on,39,0,0
2,note_on,41,56,0
2,note_on,50,42,120
2,note_on,41,0,110
2,note_on,50,0,10
2,note_on,41,49,0
2,note_on,45,43,120
2,note_on,45,0,120
2,note_on,41,0,0
2,note_on,34,43,0
2,note_on,34,0,120
2,note_on,46,29,0
2,note_on,58,35,120
2,note_on,58,0,60
2,note_on,58,29,60
2,note_on,58,0,60
2,note_on,58,37,60
2,note_on,58,0,60
2,note_on,58,35,60
2,note_on,58,0,60
2,note_on,46,0,60
2,note_on,56,43,0
2,note_on,58,39,120
2,note_on,58,0,120
2,note_on,56,0,0
2,note_on,55,52,0
2,note_on,58,46,120
2,note_on,58,0,120
2,note_on,55,0,0
2,note_on,51,56,0
2,note_on,63,50,120
2,note_on,63,0,120
2,note_on,51,0,0
2,note_on,53,35,0
2,note_on,62,29,120
2,note_on,53,0,110
2,note_on,62,0,10
2,note_on,53,35,0
2,note_on,57,29,120
2,note_on,57,0,120
2,note_on,53,0,0
2,note_on,46,33,0
2,note_on,58,39,0
2,note_on,58,0,240
2,note_on,46,0,0
2,note_on,58,50,240
2,note_on,62,60,0
2,note_on,62,0,480
2,note_on,58,0,0
2,note_on,51,38,0
2,note_on,60,45,0
2,note_on,60,0,720
2,note_on,51,0,0
2,note_on,53,34,0
2,note_on,60,41,0
2,note_on,60,0,240
2,note_on,53,0,0
2,note_on,46,42,0
2,note_on,58,50,0
2,note_on,58,0,470
2,note_on,46,0,0
2,note_on,58,50,10
2,note_on,62,60,0
2,note_on,62,0,480
2,note_on,58,0,0
2,note_on,52,41,0
2,note_on,55,41,0
2,note_on,55,0,480
2,note_on,52,0,0
2,note_on,48,41,0
2,note_on,60,41,0
2,note_on,60,0,480
2,note_on,48,0,0
2,note_on,53,42,0
2,note_on,60,50,0
2,note_on,60,0,480
2,note_on,53,0,0
2,note_on,58,50,0
2,note_on,62,60,0
2,note_on,62,0,480
2,note_on,58,0,0
2,note_on,57,41,0
2,note_on,60,41,0
2,note_on,60,0,480
2,note_on,57,0,0
2,note_on,53,41,0
2,note_on,65,41,0
2,note_on,65,0,480
2,note_on,53,0,0
2,note_on,58,42,0
2,note_on,65,50,0
2,note_on,65,0,470
2,note_on,58,0,0
2,note_on,50,62,10
2,note_on,58,52,60
2,note_on,62,54,60
2,note_on,62,0,360
2,note_on,58,0,0
2,note_on,50,0,0
2,note_on,51,69,0
2,note_on,58,58,60
2,note_on,62,60,60
2,note_on,62,0,360
2,note_on,58,0,0
2,note_on,51,0,0
2,note_on,53,73,0
2,note_on,58,61,60
2,note_on,62,64,60
2,note_on,62,0,360
2,note_on,58,0,0
2,note_on,53,0,0
2,note_on,55,77,0
2,note_on,58,64,60
2,note_on,62,68,60
2,note_on,62,0,360
2,note_on,58,0,0
2,note_on,55,0,0
2,note_on,62,58,0
2,note_on,65,58,0
2,note_on,70,69,0
2,note_on,70,0,230
2,note_on,65,0,10
2,note_on,62,0,0
2,note_on,64,58,0
2,note_on,67,58,0
2,note_on,70,64,0
2,note_on,67,0,240
2,note_on,64,0,0
2,note_on,65,59,0
2,note_on,70,0,240
2,note_on,69,63,0
2,note_on,69,0,120
2,note_on,65,0,120
2,note_on,58,58,0
2,note_on,62,58,0
2,note_on,67,69,0
2,note_on,67,0,230
2,note_on,62,0,10
2,note_on,58,0,0
2,note_on,61,55,0
2,note_on,64,55,0
2,note_on,67,64,0
2,note_on,61,0,240
2,note_on,62,59,0
2,note_on,67,0,240
2,note_on,64,0,0
2,note_on,65,63,0
2,note_on,65,0,120
2,note_on,62,0,0
2,note_on,55,58,120
2,note_on,58,58,0
2,note_on,63,69,0
2,note_on,63,0,240
2,note_on,58,0,0
2,note_on,55,0,0
2,note_on,57,58,0
2,note_on,60,58,0
2,note_on,63,64,0
2,note_on,60,0,240
2,note_on,57,0,0
2,note_on,58,68,0
2,note_on,62,58,120
2,note_on,58,0,120
2,note_on,63,0,0
2,note_on,51,49,0
2,note_on,62,0,120
2,note_on,60,66,0
2,note_on,51,0,120
2,note_on,53,56,0
2,note_on,60,0,120
2,note_on,58,59,0
2,note_on,53,0,110
2,note_on,53,49,10
2,note_on,58,0,120
2,note_on,57,59,0
2,note_on,53,0,120
2,note_on,46,56,0
2,note_on,57,0,240
2,note_on,58,66,0
2,note_on,58,0,120
2,note_on,46,0,0
2,note_on,46,63,120
2,note_on,53,63,0
2,note_on,53,0,240
2,note_on,55,57,0
2,note_on,46,0,240
2,note_on,45,68,0
2,note_on,55,0,240
2,note_on,57,63,0
2,note_on,57,0,120
2,note_on,45,0,120
2,note_on,43,63,0
2,note_on,50,63,0
2,note_on,50,0,240
2,note_on,52,57,0
2,note_on,43,0,240
2,note_on,41,68,0
2,note_on,52,0,240
2,note_on,53,63,0
2,note_on,53,0,120
2,note_on,41,0,120
2,note_on,39,68,0
2,note_on,46,63,0
2,note_on,46,0,240
2,note_on,48,57,0
2,note_on,48,0,240
2,note_on,39,0,0
2,note_on,53,56,0
2,note_on,38,68,0
2,note_on,38,0,240
2,note_on,53,0,0
2,note_on,39,69,0
2,note_on,39,0,240
2,note_on,58,68,0
2,note_on,53,68,0
2,note_on,41,73,0
2,note_on,41,0,240
2,note_on,53,0,0
2,note_on,58,0,0
2,note_on,57,72,0
2,note_on,51,72,0
2,note_on,29,79,0
2,note_on,29,0,240
2,note_on,51,0,0
2,note_on,57,0,0
2,note_on,34,83,0
2,note_on,34,0,240
2,note_on,46,46,0
2,note_on,50,46,240
2,note_on,53,46,240
2,note_on,53,0,240
2,note_on,50,0,0
2,note_on,46,0,0
2,note_on,46,54,0
2,note_on,48,54,0
2,note_on,51,47,240
2,note_on,53,47,240
2,note_on,57,47,240
2,note_on,57,0,240
2,note_on,51,0,0
2,note_on,46,0,0
2,note_on,48,0,0
2,note_on,53,0,0
2,note_on,34,64,0
2,note_on,34,0,240
2,note_on,46,46,0
2,note_on,50,46,240
2,note_on,53,46,240
2,note_on,53,0,240
2,note_on,50,0,0
2,note_on,46,0,0
2,note_on,46,54,0
2,note_on,48,54,0
2,note_on,51,47,240
2,note_on,53,47,240
2,note_on,57,47,240
2,note_on,57,0,240
2,note_on,51,0,0
2,note_on,46,0,0
2,note_on,48,0,0
2,note_on,53,0,0
2,note_on,34,69,0
2,note_on,34,0,240
2,note_on,46,52,0
2,note_on,50,52,240
2,note_on,53,52,240
2,note_on,53,0,240
2,note_on,50,0,0
2,note_on,46,0,0
2,note_on,32,77,0
2,note_on,32,0,240
2,note_on,44,56,0
2,note_on,50,56,240
2,note_on,53,56,240
2,note_on,53,0,240
2,note_on,50,0,0
2,note_on,44,0,0
2,note_on,31,83,0
2,note_on,31,0,240
2,note_on,43,57,0
2,note_on,46,57,240
2,note_on,51,57,240
2,note_on,51,0,240
2,note_on,46,0,0
2,note_on,43,0,0
2,note_on,38,59,0
2,note_on,38,0,60
2,note_on,41,60,0
2,note_on,41,0,60
2,note_on,44,61,0
2,note_on,44,0,60
2,note_on,46,61,0
2,note_on,46,0,60
2,note_on,50,62,0
2,note_on,50,0,60
2,note_on,53,64,0
2,note_on,53,0,60
2,note_on,56,65,0
2,note_on,56,0,60
2,note_on,58,66,0
2,note_on,58,0,60
2,note_on,63,42,480
2,note_on,70,34,120
2,note_on,70,0,120
2,note_on,63,0,0
2,note_on,67,38,0
2,note_on,70,34,120
2,note_on,70,0,120
2,note_on,67,0,0
2,note_on,68,38,0
2,note_on,65,38,0
2,note_on,68,0,120
2,note_on,70,34,0
2,note_on,70,0,120
2,note_on,65,0,0
2,note_on,67,37,0
2,note_on,63,37,0
2,note_on,67,0,120
2,note_on,70,34,0
2,note_on,70,0,120
2,note_on,63,0,0
2,note_on,62,43,0
2,note_on,68,43,0
2,note_on,70,34,120
2,note_on,70,0,60
2,note_on,70,34,60
2,note_on,70,0,60
2,note_on,70,34,60
2,note_on,70,0,60
2,note_on,70,37,60
2,note_on,70,0,60
2,note_on,70,34,60
2,note_on,70,0,60
2,note_on,70,34,60
2,note_on,70,0,60
2,note_on,70,34,60
2,note_on,70,0,60
2,note_on,68,0,60
2,note_on,62,0,0
2,note_on,62,42,0
2,note_on,70,34,120
2,note_on,70,0,120
2,note_on,62,0,0
2,note_on,68,38,0
2,note_on,70,34,120
2,note_on,70,0,120
2,note_on,68,0,0
2,note_on,67,38,0
2,note_on,70,34,120
2,note_on,70,0,120
2,note_on,67,0,0
2,note_on,62,37,0
2,note_on,70,34,120
2,note_on,70,0,120
2,note_on,62,0,0
2,note_on,63,43,0
2,note_on,70,34,120
2,note_on,70,0,60
2,note_on,63,0,60
2,note_on,63,43,0
2,note_on,71,34,120
2,note_on,71,0,60
2,note_on,63,0,60
2,note_on,63,43,0
2,note_on,72,34,120
2,note_on,72,0,60
2,note_on,63,0,60
2,note_on,67,34,360
2,note_on,67,0,120
2,note_on,63,38,0
2,note_on,67,34,120
2,note_on,67,0,120
2,note_on,63,0,0
2,note_on,65,38,0
2,note_on,62,38,0
2,note_on,65,0,120
2,note_on,67,34,0
2,note_on,67,0,120
2,note_on,62,0,0
2,note_on,63,37,0
2,note_on,60,37,0
2,note_on,63,0,120
2,note_on,67,34,0
2,note_on,67,0,120
2,note_on,60,0,0
2,note_on,59,43,0
2,note_on,65,43,0
2,note_on,67,34,120
2,note_on,67,0,60
2,note_on,67,34,60
2,note_on,67,0,60
2,note_on,67,34,60
2,note_on,67,0,60
2,note_on,67,34,60
2,note_on,67,0,120
2,note_on,65,0,0
2,note_on,59,0,0
2,note_on,67,28,960
2,note_on,67,0,120
2,note_on,68,34,0
2,note_on,68,0,120
2,note_on,67,30,0
2,note_on,67,0,120
2,note_on,65,34,0
2,note_on,65,0,120
2,note_on,63,30,0
2,note_on,63,0,120
2,note_on,62,32,0
2,note_on,62,0,120
2,note_on,60,30,0
2,note_on,60,0,120
2,note_on,63,40,120
2,note_on,63,0,120
2,note_on,65,45,0
2,note_on,65,0,120
2,note_on,63,41,0
2,note_on,63,0,120
2,note_on,62,45,0
2,note_on,62,0,120
2,note_on,60,40,0
2,note_on,60,0,120
2,note_on,58,43,0
2,note_on,58,0,120
2,note_on,57,40,0
2,note_on,57,0,120
2,note_on,55,46,0
2,note_on,55,0,120
2,note_on,53,40,0
2,note_on,53,0,120
2,note_on,51,40,0
2,note_on,51,0,120
2,note_on,50,40,0
2,note_on,50,0,120
2,note_on,48,51,0
2,note_on,48,0,120
2,note_on,46,41,0
2,note_on,46,0,120
2,note_on,45,45,0
2,note_on,45,0,120
2,note_on,43,47,0
2,note_on,43,0,120
2,note_on,41,51,0
2,note_on,41,0,2400
2,note_on,67,42,0
2,note_on,67,0,60
2,note_on,65,34,60
2,note_on,65,0,120
2,note_on,62,38,0
2,note_on,65,34,120
2,note_on,65,0,120
2,note_on,62,0,0
2,note_on,63,38,0
2,note_on,60,38,0
2,note_on,63,0,120
2,note_on,65,34,0
2,note_on,65,0,120
2,note_on,60,0,0
2,note_on,62,37,0
2,note_on,58,37,0
2,note_on,62,0,120
2,note_on,65,34,0
2,note_on,65,0,120
2,note_on,58,0,0
2,note_on,57,43,0
2,note_on,63,43,0
2,note_on,65,34,120
2,note_on,65,0,60
2,note_on,65,34,60
2,note_on,65,0,60
2,note_on,65,34,60
2,note_on,65,0,60
2,note_on,65,37,60
2,note_on,65,0,60
2,note_on,65,34,60
2,note_on,65,0,60
2,note_on,65,34,60
2,note_on,65,0,60
2,note_on,65,34,60
2,note_on,65,0,60
2,note_on,63,0,60
2,note_on,57,0,0
2,note_on,57,42,0
2,note_on,65,34,120
2,note_on,65,0,120
2,note_on,57,0,0
2,note_on,63,38,0
2,note_on,65,34,120
2,note_on,65,0,120
2,note_on,63,0,0
2,note_on,62,38,0
2,note_on,65,34,120
2,note_on,65,0,120
2,note_on,62,0,0
2,note_on,57,37,0
2,note_on,65,34,120
2,note_on,65,0,120
2,note_on,57,0,0
2,note_on,58,43,0
2,note_on,65,34,120
2,note_on,65,0,60
2,note_on,65,34,60
2,note_on,65,0,60
2,note_on,65,34,60
2,note_on,65,0,60
2,note_on,65,37,60
2,note_on,65,0,60
2,note_on,65,34,60
2,note_on,65,0,60
2,note_on,58,0,60
2,note_on,59,34,0
2,note_on,65,34,120
2,note_on,65,0,60
2,note_on,59,0,60
2,note_on,60,42,0
2,note_on,65,34,120
2,note_on,65,0,120
2,note_on,60,0,0
2,note_on,57,38,0
2,note_on,65,34,120
2,note_on,65,0,120
2,note_on,57,0,0
2,note_on,58,42,0
2,note_on,65,34,120
2,note_on,65,0,120
2,note_on,58,0,0
2,note_on,59,38,0
2,note_on,65,34,120
2,note_on,65,0,120
2,note_on,59,0,0
2,note_on,60,47,0
2,note_on,65,34,120
2,note_on,65,0,120
2,note_on,60,0,0
2,note_on,57,42,0
2,note_on,65,34,120
2,note_on,65,0,120
2,note_on,57,0,0
2,note_on,58,48,0
2,note_on,62,35,120
2,note_on,62,0,120
2,note_on,58,0,0
2,note_on,57,44,0
2,note_on,60,39,120
2,note_on,60,0,120
2,note_on,57,0,0
2,note_on,55,55,0
2,note_on,58,47,120
2,note_on,55,0,110
2,note_on,58,0,10
2,note_on,55,57,0
2,note_on,58,50,120
2,note_on,58,0,120
2,note_on,55,0,0
2,note_on,48,63,0
2,note_on,58,46,120
2,note_on,48,0,110
2,note_on,58,0,10
2,note_on,48,53,0
2,note_on,58,34,120
2,note_on,48,0,120
2,note_on,53,43,0
2,note_on,58,0,110
2,note_on,58,29,10
2,note_on,58,0,120
2,note_on,57,35,0
2,note_on,57,0,120
2,note_on,55,29,0
2,note_on,55,0,120
2,note_on,57,34,0
2,note_on,57,0,240
2,note_on,53,0,0
2,note_on,46,42,240
2,note_on,53,34,120
2,note_on,53,0,120
2,note_on,46,0,0
2,note_on,50,38,0
2,note_on,53,34,120
2,note_on,53,0,120
2,note_on,50,0,0
2,note_on,51,38,0
2,note_on,48,38,0
2,note_on,51,0,120
2,note_on,53,34,0
2,note_on,53,0,120
2,note_on,48,0,0
2,note_on,50,37,0
2,note_on,46,37,0
2,note_on,50,0,120
2,note_on,53,34,0
2,note_on,53,0,120
2,note_on,46,0,0
2,note_on,45,43,0
2,note_on,51,43,0
2,note_on,53,34,120
2,note_on,53,0,60
2,note_on,53,34,60
2,note_on,53,0,60
2,note_on,53,34,60
2,note_on,53,0,60
2,note_on,53,37,60
2,note_on,53,0,60
2,note_on,53,34,60
2,note_on,53,0,60
2,note_on,53,34,60
2,note_on,53,0,60
2,note_on,53,34,60
2,note_on,53,0,60
2,note_on,51,0,60
2,note_on,45,0,0
2,note_on,45,42,0
2,note_on,53,34,120
2,note_on,53,0,120
2,note_on,45,0,0
2,note_on,51,38,0
2,note_on,53,34,120
2,note_on,53,0,120
2,note_on,51,0,0
2,note_on,50,38,0
2,note_on,53,34,120
2,note_on,53,0,120
2,note_on,50,0,0
2,note_on,45,37,0
2,note_on,53,34,120
2,note_on,53,0,120
2,note_on,45,0,0
2,note_on,46,43,0
2,note_on,53,34,120
2,note_on,53,0,60
2,note_on,53,34,60
2,note_on,53,0,60
2,note_on,53,34,60
2,note_on,53,0,60
2,note_on,53,40,60
2,note_on,53,0,60
2,note_on,53,37,60
2,note_on,53,0,60
2,note_on,46,0,60
2,note_on,47,37,0
2,note_on,53,37,120
2,note_on,53,0,60
2,note_on,47,0,60
2,note_on,48,47,0
2,note_on,53,38,120
2,note_on,53,0,120
2,note_on,48,0,0
2,note_on,41,42,0
2,note_on,53,38,120
2,note_on,53,0,120
2,note_on,41,0,0
2,note_on,46,47,0
2,note_on,53,38,120
2,note_on,53,0,120
2,note_on,46,0,0
2,note_on,47,43,0
2,note_on,53,39,120
2,note_on,53,0,120
2,note_on,47,0,0
2,note_on,48,54,0
2,note_on,53,47,120
2,note_on,53,0,120
2,note_on,48,0,0
2,note_on,41,53,0
2,note_on,53,44,120
2,note_on,53,0,120
2,note_on,41,0,0
2,note_on,46,64,0
2,note_on,53,49,120
2,note_on,53,0,120
2,note_on,46,0,0
2,note_on,44,60,0
2,note_on,46,45,120
2,note_on,46,0,120
2,note_on,44,0,0
2,note_on,43,73,0
2,note_on,46,60,120
2,note_on,43,0,110
2,note_on,46,0,10
2,note_on,39,69,0
2,note_on,51,60,120
2,note_on,51,0,120
2,note_on,39,0,0
2,note_on,41,56,0
2,note_on,50,42,120
2,note_on,41,0,110
2,note_on,50,0,10
2,note_on,41,49,0
2,note_on,45,43,120
2,note_on,45,0,120
2,note_on,41,0,0
2,note_on,34,43,0
2,note_on,34,0,120
2,note_on,46,29,0
2,note_on,58,35,120
2,note_on,58,0,60
2,note_on,58,29,60
2,note_on,58,0,60
2,note_on,58,49,60
2,note_on,58,0,60
2,note_on,58,39,60
2,note_on,58,0,60
2,note_on,46,0,60
2,note_on,56,50,0
2,note_on,58,39,120
2,note_on,58,0,120
2,note_on,56,0,0
2,note_on,55,63,0
2,note_on,58,52,120
2,note_on,58,0,120
2,note_on,55,0,0
2,note_on,51,56,0
2,note_on,63,50,120
2,note_on,63,0,120
2,note_on,51,0,0
2,note_on,53,35,0
2,note_on,62,29,120
2,note_on,53,0,110
2,note_on,62,0,10
2,note_on,53,35,0
2,note_on,57,29,120
2,note_on,57,0,120
2,note_on,53,0,0
2,note_on,46,33,0
2,note_on,58,39,0
2,note_on,58,0,240
2,note_on,46,0,0
2,note_on,62,69,240
2,note_on,65,79,0
2,note_on,65,0,480
2,note_on,62,0,0
2,note_on,60,69,0
2,note_on,63,69,0
2,note_on,65,79,0
2,note_on,65,0,480
2,note_on,63,0,0
2,note_on,60,0,0
2,note_on,58,69,0
2,note_on,62,69,0
2,note_on,65,79,0
2,note_on,65,0,480
2,note_on,62,0,0
2,note_on,58,0,0
2,note_on,65,79,0
2,note_on,60,69,0
2,note_on,57,69,0
2,note_on,57,0,480
2,note_on,60,0,0
2,note_on,65,0,0
2,note_on,65,86,0
2,note_on,56,72,0
2,note_on,58,72,0
2,note_on,58,0,480
2,note_on,56,0,0
2,note_on,65,0,0
2,note_on,63,64,0
2,note_on,58,55,0
2,note_on,55,55,0
2,note_on,55,0,60
2,note_on,58,0,0
2,note_on,63,0,0
2,note_on,60,35,180
2,note_on,58,29,0
2,note_on,52,29,0
2,note_on,52,0,60
2,note_on,58,0,0
2,note_on,60,0,0
2,note_on,62,39,180
2,note_on,58,33,0
2,note_on,53,33,0
2,note_on,53,0,60
2,note_on,58,0,0
2,note_on,62,0,0
2,note_on,60,35,180
2,note_on,57,29,0
2,note_on,53,29,0
2,note_on,53,0,60
2,note_on,57,0,0
2,note_on,60,0,0
2,note_on,46,33,180
2,note_on,58,39,0
2,note_on,58,0,240
2,note_on,46,0,0
2,note_on,62,70,240
2,note_on,61,56,60
2,note_on,62,0,6
2,note_on,62,60,54
2,note_on,61,0,6
2,note_on,61,55,54
2,note_on,62,0,6
2,note_on,62,60,54
2,note_on,61,0,6
2,note_on,65,55,54
2,note_on,62,0,6
2,note_on,63,55,54
2,note_on,65,0,6
2,note_on,62,55,54
2,note_on,63,0,6
2,note_on,62,0,54
2,note_on,60,70,0
2,note_on,59,56,60
2,note_on,60,0,6
2,note_on,60,60,54
2,note_on,59,0,6
2,note_on,59,55,54
2,note_on,60,0,6
2,note_on,60,60,54
2,note_on,59,0,6
2,note_on,63,55,54
2,note_on,60,0,6
2,note_on,62,55,54
2,note_on,63,0,6
2,note_on,60,55,54
2,note_on,62,0,6
2,note_on,60,0,54
2,note_on,58,70,0
2,note_on,57,56,60
2,note_on,58,0,6
2,note_on,58,60,54
2,note_on,57,0,6
2,note_on,57,55,54
2,note_on,58,0,6
2,note_on,58,60,54
2,note_on,57,0,6
2,note_on,62,55,54
2,note_on,58,0,6
2,note_on,60,55,54
2,note_on,62,0,6
2,note_on,58,55,54
2,note_on,60,0,6
2,note_on,58,0,54
2,note_on,57,70,0
2,note_on,56,56,60
2,note_on,57,0,6
2,note_on,57,60,54
2,note_on,56,0,6
2,note_on,56,55,54
2,note_on,57,0,6
2,note_on,57,60,54
2,note_on,56,0,6
2,note_on,60,55,54
2,note_on,57,0,6
2,note_on,58,55,54
2,note_on,60,0,6
2,note_on,57,55,54
2,note_on,58,0,6
2,note_on,57,0,54
2,note_on,56,70,0
2,note_on,55,56,60
2,note_on,56,0,6
2,note_on,56,60,54
2,note_on,55,0,6
2,note_on,55,55,54
2,note_on,56,0,6
2,note_on,56,60,54
2,note_on,55,0,6
2,note_on,60,55,54
2,note_on,56,0,6
2,note_on,58,55,54
2,note_on,60,0,6
2,note_on,56,55,54
2,note_on,58,0,6
2,note_on,56,0,54
2,note_on,55,70,0
2,note_on,58,48,60
2,note_on,55,0,6
2,note_on,57,43,54
2,note_on,58,0,6
2,note_on,58,43,54
2,note_on,57,0,6
2,note_on,58,0,54
2,note_on,52,49,0
2,note_on,58,43,60
2,note_on,52,0,6
2,note_on,57,42,54
2,note_on,58,0,6
2,note_on,58,43,54
2,note_on,57,0,6
2,note_on,58,0,54
2,note_on,53,57,0
2,note_on,58,46,60
2,note_on,53,0,6
2,note_on,57,50,54
2,note_on,58,0,6
2,note_on,58,50,54
2,note_on,57,0,6
2,note_on,58,0,54
2,note_on,53,60,0
2,note_on,57,50,60
2,note_on,53,0,6
2,note_on,56,50,54
2,note_on,57,0,6
2,note_on,57,51,54
2,note_on,56,0,6
2,note_on,57,0,54
2,note_on,58,61,0
2,note_on,58,0,60
2,note_on,60,56,0
2,note_on,60,0,60
2,note_on,62,58,0
2,note_on,62,0,60
2,note_on,63,61,0
2,note_on,63,0,60
2,note_on,65,63,0
2,note_on,65,0,60
2,note_on,67,66,0
2,note_on,67,0,60
2,note_on,69,68,0
2,note_on,69,0,60
2,note_on,70,72,0
2,note_on,70,0,60
2,note_on,68,76,0
2,note_on,67,61,60
2,note_on,68,0,6
2,note_on,65,66,54
2,note_on,67,0,6
2,note_on,63,60,54
2,note_on,65,0,6
2,note_on,62,66,54
2,note_on,63,0,6
2,note_on,60,60,54
2,note_on,62,0,6
2,note_on,58,60,54
2,note_on,60,0,6
2,note_on,56,60,54
2,note_on,58,0,6
2,note_on,56,0,54
2,note_on,55,76,0
2,note_on,58,52,60
2,note_on,55,0,6
2,note_on,57,46,54
2,note_on,58,0,6
2,note_on,58,46,54
2,note_on,57,0,6
2,note_on,58,0,54
2,note_on,52,44,0
2,note_on,58,52,60
2,note_on,52,0,6
2,note_on,57,46,54
2,note_on,58,0,6
2,note_on,58,48,54
2,note_on,57,0,6
2,note_on,58,0,54
2,note_on,53,62,0
2,note_on,58,50,60
2,note_on,53,0,6
2,note_on,57,55,54
2,note_on,58,0,6
2,note_on,58,55,54
2,note_on,57,0,6
2,note_on,58,0,54
2,note_on,53,66,0
2,note_on,57,55,60
2,note_on,53,0,6
2,note_on,56,55,54
2,note_on,57,0,6
2,note_on,57,56,54
2,note_on,56,0,6
2,note_on,57,0,54
2,note_on,58,67,0
2,note_on,58,0,60
2,note_on,57,61,0
2,note_on,57,0,60
2,note_on,55,63,0
2,note_on,55,0,60
2,note_on,53,67,0
2,note_on,53,0,60
2,note_on,51,69,0
2,note_on,51,0,60
2,note_on,50,72,0
2,note_on,50,0,60
2,note_on,48,74,0
2,note_on,48,0,60
2,note_on,46,79,0
2,note_on,46,0,60
2,note_on,44,76,0
2,note_on,43,61,60
2,note_on,44,0,6
2,note_on,41,66,54
2,note_on,43,0,6
2,note_on,39,60,54
2,note_on,41,0,6
2,note_on,38,66,54
2,note_on,39,0,6
2,note_on,36,60,54
2,note_on,38,0,6
2,note_on,34,60,54
2,note_on,36,0,6
2,note_on,32,60,54
2,note_on,34,0,6
2,note_on,32,0,54
2,note_on,31,87,0
2,note_on,43,56,60
2,note_on,31,0,6
2,note_on,42,58,54
2,note_on,43,0,6
2,note_on,43,58,54
2,note_on,42,0,6
2,note_on,43,0,54
2,note_on,30,84,0
2,note_on,42,63,60
2,note_on,30,0,6
2,note_on,41,62,54
2,note_on,42,0,6
2,note_on,42,62,54
2,note_on,41,0,6
2,note_on,42,0,54
2,note_on,29,93,0
2,note_on,41,66,60
2,note_on,29,0,6
2,note_on,40,66,54
2,note_on,41,0,6
2,note_on,41,66,54
2,note_on,40,0,6
2,note_on,41,0,54
2,note_on,29,90,0
2,note_on,41,68,60
2,note_on,29,0,6
2,note_on,40,68,54
2,note_on,41,0,6
2,note_on,41,68,54
2,note_on,40,0,6
2,note_on,41,0,54
2,note_on,34,96,0
2,note_on,34,0,240
2,note_on,65,39,120
2,note_on,65,0,120
2,note_on,67,42,0
2,note_on,67,0,120
2,note_on,65,36,0
2,note_on,65,0,120
2,note_on,63,39,0
2,note_on,63,0,120
2,note_on,62,36,0
2,note_on,62,0,120
2,note_on,53,35,0
2,note_on,60,42,0
2,note_on,60,0,120
2,note_on,58,37,0
2,note_on,58,0,120
2,note_on,57,39,0
2,note_on,57,0,120
2,note_on,55,36,0
2,note_on,55,0,120
2,note_on,53,0,0
2,note_on,41,35,0
2,note_on,53,39,0
2,note_on,53,0,120
2,note_on,51,37,0
2,note_on,51,0,120
2,note_on,50,36,0
2,note_on,50,0,120
2,note_on,48,34,0
2,note_on,48,0,120
2,note_on,41,0,0
2,note_on,46,53,0
2,note_on,46,0,240
2,note_on,53,33,120
2,note_on,53,0,120
2,note_on,55,35,0
2,note_on,55,0,120
2,note_on,53,32,0
2,note_on,53,0,120
2,note_on,51,33,0
2,note_on,51,0,120
2,note_on,50,32,0
2,note_on,50,0,120
2,note_on,41,30,0
2,note_on,48,35,0
2,note_on,48,0,120
2,note_on,46,32,0
2,note_on,46,0,120
2,note_on,45,33,0
2,note_on,45,0,120
2,note_on,43,29,0
2,note_on,43,0,120
2,note_on,41,0,0
2,note_on,29,30,0
2,note_on,41,33,0
2,note_on,41,0,120
2,note_on,39,31,0
2,note_on,39,0,120
2,note_on,38,30,0
2,note_on,38,0,120
2,note_on,36,28,0
2,note_on,36,0,120
2,note_on,29,0,0
2,note_on,34,31,0
2,note_on,34,0,60
2,note_on,53,35,180
2,note_on,60,35,0
2,note_on,60,0,60
2,note_on,53,0,0
2,note_on,58,35,180
2,note_on,58,0,60
2,note_on,41,70,180
2,note_on,53,84,0
2,note_on,53,0,60
2,note_on,41,0,0
2,note_on,34,79,180
2,note_on,46,93,0
2,note_on,46,0,60
2,note_on,34,0,0
