Track,Message Type,Note,Velocity,Time
1,note_on,74,88,1320
1,note_on,77,88,0
1,note_on,82,88,0
1,note_on,86,105,0
1,note_on,86,0,120
1,note_on,74,0,0
1,note_on,77,0,0
1,note_on,82,0,0
1,note_on,77,79,0
1,note_on,82,79,0
1,note_on,74,79,0
1,note_on,86,94,0
1,note_on,86,0,180
1,note_on,77,0,0
1,note_on,82,0,0
1,note_on,74,0,0
1,note_on,74,80,60
1,note_on,87,100,0
1,note_on,77,80,0
1,note_on,82,80,0
1,note_on,82,0,45
1,note_on,74,0,0
1,note_on,87,0,0
1,note_on,77,0,0
1,note_on,86,97,75
1,note_on,74,82,0
1,note_on,82,82,0
1,note_on,77,82,0
1,note_on,77,0,45
1,note_on,86,0,0
1,note_on,74,0,0
1,note_on,82,0,0
1,note_on,77,88,75
1,note_on,74,88,0
1,note_on,82,88,0
1,note_on,86,105,0
1,note_on,86,0,120
1,note_on,77,0,0
1,note_on,74,0,0
1,note_on,82,0,0
1,note_on,74,80,120
1,note_on,70,80,0
1,note_on,77,80,0
1,note_on,82,96,0
1,note_on,82,0,120
1,note_on,74,0,0
1,note_on,70,0,0
1,note_on,77,0,0
1,note_on,82,88,960
1,note_on,86,88,0
1,note_on,77,88,0
1,note_on,89,105,0
1,note_on,89,0,120
1,note_on,82,0,0
1,note_on,86,0,0
1,note_on,77,0,0
1,note_on,77,79,0
1,note_on,82,79,0
1,note_on,86,79,0
1,note_on,89,94,0
1,note_on,89,0,180
1,note_on,77,0,0
1,note_on,82,0,0
1,note_on,86,0,0
1,note_on,82,80,60
1,note_on,86,80,0
1,note_on,91,100,0
1,note_on,77,80,0
1,note_on,77,0,45
1,note_on,82,0,0
1,note_on,86,0,0
1,note_on,91,0,0
1,note_on,77,82,75
1,note_on,82,82,0
1,note_on,89,97,0
1,note_on,86,82,0
1,note_on,86,0,45
1,note_on,77,0,0
1,note_on,82,0,0
1,note_on,89,0,0
1,note_on,89,105,75
1,note_on,77,88,0
1,note_on,82,88,0
1,note_on,86,88,0
1,note_on,86,0,120
1,note_on,89,0,0
1,note_on,77,0,0
1,note_on,82,0,0
1,note_on,74,80,120
1,note_on,77,80,0
1,note_on,82,80,0
1,note_on,86,96,0
1,note_on,86,0,120
1,note_on,74,0,0
1,note_on,77,0,0
1,note_on,82,0,0
1,note_on,70,50,360
1,note_on,70,0,120
1,note_on,72,45,0
1,note_on,72,0,120
1,note_on,74,50,0
1,note_on,67,39,240
1,note_on,67,0,240
1,note_on,74,0,0
1,note_on,69,33,0
1,note_on,72,39,0
1,note_on,72,0,240
1,note_on,69,0,0
1,note_on,68,42,0
1,note_on,72,50,0
1,note_on,72,0,120
1,note_on,74,46,0
1,note_on,74,0,120
1,note_on,68,0,0
1,note_on,75,55,0
1,note_on,67,46,0
1,note_on,67,0,240
1,note_on,69,45,0
1,note_on,69,0,240
1,note_on,75,0,0
1,note_on,70,38,0
1,note_on,74,45,0
1,note_on,74,0,240
1,note_on,70,0,0
1,note_on,67,39,0
1,note_on,74,47,0
1,note_on,74,0,120
1,note_on,75,50,0
1,note_on,75,0,120
1,note_on,67,0,0
1,note_on,65,45,0
1,note_on,77,54,0
1,note_on,65,0,240
1,note_on,70,45,0
1,note_on,77,0,120
1,note_on,79,52,0
1,note_on,79,0,120
1,note_on,70,0,0
1,note_on,67,42,0
1,note_on,77,50,0
1,note_on,77,0,120
1,note_on,75,43,0
1,note_on,67,0,120
1,note_on,69,43,0
1,note_on,75,0,120
1,note_on,77,45,0
1,note_on,77,0,120
1,note_on,69,0,0
1,note_on,70,35,0
1,note_on,65,35,0
1,note_on,75,49,0
1,note_on,75,0,120
1,note_on,74,41,0
1,note_on,74,0,120
1,note_on,65,0,0
1,note_on,70,0,0
1,note_on,72,30,0
1,note_on,77,43,0
1,note_on,67,30,0
1,note_on,77,0,120
1,note_on,75,37,0
1,note_on,75,0,120
1,note_on,67,0,0
1,note_on,72,0,0
1,note_on,69,30,0
1,note_on,72,35,0
1,note_on,72,0,240
1,note_on,69,0,0
1,note_on,82,50,0
1,note_on,82,0,120
1,note_on,84,45,0
1,note_on,84,0,120
1,note_on,86,50,0
1,note_on,79,39,240
1,note_on,79,0,240
1,note_on,86,0,0
1,note_on,81,33,0
1,note_on,84,39,0
1,note_on,84,0,240
1,note_on,81,0,0
1,note_on,84,50,0
1,note_on,80,42,0
1,note_on,84,0,120
1,note_on,86,46,0
1,note_on,86,0,120
1,note_on,80,0,0
1,note_on,79,46,0
1,note_on,87,55,0
1,note_on,79,0,240
1,note_on,81,45,0
1,note_on,81,0,240
1,note_on,87,0,0
1,note_on,86,45,0
1,note_on,82,38,0
1,note_on,82,0,240
1,note_on,86,0,0
1,note_on,79,39,0
1,note_on,86,51,0
1,note_on,86,0,120
1,note_on,87,55,0
1,note_on,87,0,120
1,note_on,79,0,0
1,note_on,89,59,0
1,note_on,77,45,0
1,note_on,77,0,240
1,note_on,82,45,0
1,note_on,89,0,120
1,note_on,91,57,0
1,note_on,91,0,120
1,note_on,82,0,0
1,note_on,89,55,0
1,note_on,79,42,0
1,note_on,89,0,120
1,note_on,87,47,0
1,note_on,79,0,120
1,note_on,81,43,0
1,note_on,87,0,120
1,note_on,89,50,0
1,note_on,89,0,120
1,note_on,81,0,0
1,note_on,87,57,0
1,note_on,77,44,0
1,note_on,87,0,120
1,note_on,86,49,0
1,note_on,77,0,120
1,note_on,82,46,0
1,note_on,86,0,120
1,note_on,87,53,0
1,note_on,87,0,120
1,note_on,86,60,0
1,note_on,86,0,120
1,note_on,84,49,0
1,note_on,84,0,120
1,note_on,82,0,0
1,note_on,86,55,0
1,note_on,81,47,0
1,note_on,77,47,0
1,note_on,86,0,120
1,note_on,87,51,0
1,note_on,87,0,120
1,note_on,77,0,0
1,note_on,81,0,0
1,note_on,77,52,0
1,note_on,91,67,0
1,note_on,82,52,0
1,note_on,91,0,120
1,note_on,89,53,0
1,note_on,89,0,120
1,note_on,82,0,0
1,note_on,77,0,0
1,note_on,91,58,0
1,note_on,82,41,0
1,note_on,91,0,120
1,note_on,89,59,0
1,note_on,89,0,120
1,note_on,82,0,0
1,note_on,89,69,0
1,note_on,79,53,0
1,note_on,89,0,120
1,note_on,87,55,0
1,note_on,87,0,120
1,note_on,79,0,0
1,note_on,81,43,0
1,note_on,89,61,0
1,note_on,89,0,120
1,note_on,87,56,0
1,note_on,87,0,120
1,note_on,81,0,0
1,note_on,87,74,0
1,note_on,77,57,0
1,note_on,87,0,120
1,note_on,86,57,0
1,note_on,86,0,120
1,note_on,77,0,0
1,note_on,87,63,0
1,note_on,82,45,0
1,note_on,87,0,120
1,note_on,86,58,0
1,note_on,86,0,117
1,note_on,86,75,3
1,note_on,86,0,120
1,note_on,84,61,0
1,note_on,84,0,120
1,note_on,82,0,0
1,note_on,86,67,0
1,note_on,77,47,0
1,note_on,81,47,0
1,note_on,86,0,120
1,note_on,87,70,0
1,note_on,87,0,120
1,note_on,81,0,0
1,note_on,77,0,0
1,note_on,91,69,0
1,note_on,77,58,0
1,note_on,82,58,0
1,note_on,91,0,120
1,note_on,89,70,0
1,note_on,89,0,120
1,note_on,82,0,0
1,note_on,77,0,0
1,note_on,82,60,0
1,note_on,88,76,0
1,note_on,91,72,120
1,note_on,88,0,120
1,note_on,82,0,0
1,note_on,87,67,0
1,note_on,91,0,120
1,note_on,92,74,0
1,note_on,87,0,120
1,note_on,84,64,0
1,note_on,87,76,0
1,note_on,92,0,120
1,note_on,93,77,0
1,note_on,93,0,120
1,note_on,87,0,0
1,note_on,84,0,0
1,note_on,82,73,0
1,note_on,96,86,0
1,note_on,86,73,0
1,note_on,96,0,120
1,note_on,94,72,0
1,note_on,94,0,120
1,note_on,86,0,0
1,note_on,82,0,0
1,note_on,82,71,0
1,note_on,93,84,0
1,note_on,87,71,0
1,note_on,93,0,120
1,note_on,91,74,0
1,note_on,91,0,120
1,note_on,87,0,0
1,note_on,82,0,0
1,note_on,89,86,0
1,note_on,86,72,0
1,note_on,82,72,0
1,note_on,82,0,120
1,note_on,86,0,0
1,note_on,89,0,0
1,note_on,89,80,120
1,note_on,93,80,0
1,note_on,84,67,0
1,note_on,81,67,0
1,note_on,81,0,120
1,note_on,89,0,0
1,note_on,93,0,0
1,note_on,84,0,0
1,note_on,82,85,120
1,note_on,89,85,0
1,note_on,86,85,0
1,note_on,94,101,0
1,note_on,94,0,480
1,note_on,82,0,0
1,note_on,89,0,0
1,note_on,86,0,0
1,note_on,70,63,0
1,note_on,82,75,0
1,note_on,74,63,0
1,note_on,74,0,480
1,note_on,82,0,0
1,note_on,70,0,0
1,note_on,77,50,0
1,note_on,86,59,0
1,note_on,74,50,0
1,note_on,74,0,60
1,note_on,86,0,0
1,note_on,77,0,0
1,note_on,82,61,180
1,note_on,74,51,0
1,note_on,70,51,0
1,note_on,70,0,60
1,note_on,74,0,0
1,note_on,82,0,0
1,note_on,74,51,180
1,note_on,77,51,0
1,note_on,86,61,0
1,note_on,86,0,60
1,note_on,77,0,0
1,note_on,74,0,0
1,note_on,72,51,180
1,note_on,75,51,0
1,note_on,84,61,0
1,note_on,84,0,60
1,note_on,75,0,0
1,note_on,72,0,0
1,note_on,87,116,180
1,note_on,79,97,0
1,note_on,75,97,0
1,note_on,75,0,480
1,note_on,79,0,0
1,note_on,87,0,0
1,note_on,84,75,0
1,note_on,75,63,0
1,note_on,72,63,0
1,note_on,72,0,480
1,note_on,75,0,0
1,note_on,84,0,0
1,note_on,87,59,0
1,note_on,75,50,0
1,note_on,79,50,0
1,note_on,79,0,60
1,note_on,75,0,0
1,note_on,87,0,0
1,note_on,73,51,180
1,note_on,76,51,0
1,note_on,85,61,0
1,note_on,85,0,60
1,note_on,76,0,0
1,note_on,73,0,0
1,note_on,78,51,180
1,note_on,87,61,0
1,note_on,75,51,0
1,note_on,75,0,60
1,note_on,87,0,0
1,note_on,78,0,0
1,note_on,77,51,180
1,note_on,74,51,0
1,note_on,86,61,0
1,note_on,86,0,60
1,note_on,74,0,0
1,note_on,77,0,0
1,note_on,89,111,180
1,note_on,80,93,0
1,note_on,77,93,0
1,note_on,77,0,480
1,note_on,80,0,0
1,note_on,89,0,0
1,note_on,86,75,0
1,note_on,74,63,0
1,note_on,77,63,0
1,note_on,77,0,480
1,note_on,74,0,0
1,note_on,86,0,0
1,note_on,80,50,0
1,note_on,77,50,0
1,note_on,89,59,0
1,note_on,89,0,60
1,note_on,77,0,0
1,note_on,80,0,0
1,note_on,74,51,180
1,note_on,78,51,0
1,note_on,86,61,0
1,note_on,86,0,60
1,note_on,78,0,0
1,note_on,74,0,0
1,note_on,80,51,180
1,note_on,89,61,0
1,note_on,77,51,0
1,note_on,77,0,60
1,note_on,89,0,0
1,note_on,80,0,0
1,note_on,79,51,180
1,note_on,75,51,0
1,note_on,87,61,0
1,note_on,87,0,60
1,note_on,75,0,0
1,note_on,79,0,0
1,note_on,91,111,180
1,note_on,79,93,0
1,note_on,82,93,0
1,note_on,82,0,480
1,note_on,79,0,0
1,note_on,91,0,0
1,note_on,87,75,0
1,note_on,79,63,0
1,note_on,75,63,0
1,note_on,82,63,0
1,note_on,82,0,480
1,note_on,87,0,0
1,note_on,79,0,0
1,note_on,75,0,0
1,note_on,79,50,0
1,note_on,91,59,0
1,note_on,82,50,0
1,note_on,82,0,60
1,note_on,91,0,0
1,note_on,79,0,0
1,note_on,76,51,180
1,note_on,82,51,0
1,note_on,88,61,0
1,note_on,88,0,60
1,note_on,82,0,0
1,note_on,76,0,0
1,note_on,82,56,180
1,note_on,78,56,0
1,note_on,90,67,0
1,note_on,90,0,60
1,note_on,78,0,0
1,note_on,82,0,0
1,note_on,89,69,180
1,note_on,82,58,0
1,note_on,77,58,0
1,note_on,77,0,60
1,note_on,82,0,0
1,note_on,89,0,0
1,note_on,92,69,180
1,note_on,82,59,0
1,note_on,80,59,0
1,note_on,80,0,60
1,note_on,82,0,0
1,note_on,92,0,0
1,note_on,78,62,180
1,note_on,90,74,0
1,note_on,82,62,0
1,note_on,82,0,60
1,note_on,90,0,0
1,note_on,78,0,0
1,note_on,92,76,180
1,note_on,82,64,0
1,note_on,80,64,0
1,note_on,80,0,60
1,note_on,82,0,0
1,note_on,92,0,0
1,note_on,82,66,180
1,note_on,91,79,0
1,note_on,79,66,0
1,note_on,79,0,60
1,note_on,91,0,0
1,note_on,82,0,0
1,note_on,82,67,180
1,note_on,87,67,0
1,note_on,94,79,0
1,note_on,91,67,0
1,note_on,91,0,60
1,note_on,82,0,0
1,note_on,87,0,0
1,note_on,94,0,0
1,note_on,80,70,180
1,note_on,92,84,0
1,note_on,92,0,60
1,note_on,80,0,0
1,note_on,82,72,180
1,note_on,94,86,0
1,note_on,94,0,60
1,note_on,82,0,0
1,note_on,93,89,180
1,note_on,81,74,0
1,note_on,81,0,60
1,note_on,93,0,0
1,note_on,84,84,180
1,note_on,96,99,0
1,note_on,96,0,120
1,note_on,84,0,0
1,note_on,82,74,120
1,note_on,94,88,0
1,note_on,94,0,120
1,note_on,82,0,0
1,note_on,79,82,120
1,note_on,91,97,0
1,note_on,91,0,120
1,note_on,79,0,0
1,note_on,89,90,120
1,note_on,77,76,0
1,note_on,77,0,120
1,note_on,89,0,0
1,note_on,87,97,120
1,note_on,75,85,0
1,note_on,75,0,120
1,note_on,87,0,0
1,note_on,86,82,120
1,note_on,74,69,0
1,note_on,74,0,120
1,note_on,86,0,0
1,note_on,84,87,120
1,note_on,72,73,0
1,note_on,72,0,120
1,note_on,84,0,0
1,note_on,70,68,120
1,note_on,82,81,0
1,note_on,82,0,120
1,note_on,70,0,0
1,note_on,67,75,120
1,note_on,79,89,0
1,note_on,79,0,120
1,note_on,67,0,0
1,note_on,65,66,120
1,note_on,77,79,0
1,note_on,77,0,120
1,note_on,65,0,0
1,note_on,75,82,120
1,note_on,63,69,0
1,note_on,63,0,120
1,note_on,75,0,0
1,note_on,62,64,120
1,note_on,74,76,0
1,note_on,74,0,120
1,note_on,62,0,0
1,note_on,72,80,120
1,note_on,60,67,0
1,note_on,60,0,120
1,note_on,72,0,0
1,note_on,70,71,120
1,note_on,58,59,0
1,note_on,58,0,120
1,note_on,70,0,0
1,note_on,67,78,120
1,note_on,55,65,0
1,note_on,55,0,120
1,note_on,67,0,0
1,note_on,65,72,120
1,note_on,53,61,0
1,note_on,53,0,120
1,note_on,65,0,0
1,note_on,69,77,120
1,note_on,69,0,240
1,note_on,65,67,0
1,note_on,65,0,240
1,note_on,72,73,0
1,note_on,72,0,240
1,note_on,65,67,0
1,note_on,65,0,240
1,note_on,77,71,0
1,note_on,77,0,240
1,note_on,65,59,0
1,note_on,65,0,240
1,note_on,81,68,0
1,note_on,81,0,240
1,note_on,65,56,0
1,note_on,65,0,240
1,note_on,84,62,0
1,note_on,84,0,240
1,note_on,65,49,0
1,note_on,65,0,240
1,note_on,89,54,0
1,note_on,89,0,240
1,note_on,65,45,0
1,note_on,65,0,240
1,note_on,89,52,0
1,note_on,89,0,240
1,note_on,65,41,0
1,note_on,65,0,240
1,note_on,89,48,0
1,note_on,89,0,240
1,note_on,82,77,600
1,note_on,86,92,0
1,note_on,74,77,0
1,note_on,77,77,0
1,note_on,77,0,120
1,note_on,82,0,0
1,note_on,86,0,0
1,note_on,74,0,0
1,note_on,74,69,0
1,note_on,77,69,0
1,note_on,86,82,0
1,note_on,82,69,0
1,note_on,82,0,240
1,note_on,74,0,0
1,note_on,77,0,0
1,note_on,86,0,0
1,note_on,74,70,0
1,note_on,82,70,0
1,note_on,77,70,0
1,note_on,87,89,0
1,note_on,87,0,45
1,note_on,74,0,0
1,note_on,82,0,0
1,note_on,77,0,0
1,note_on,77,72,75
1,note_on,74,72,0
1,note_on,86,85,0
1,note_on,82,72,0
1,note_on,82,0,45
1,note_on,77,0,0
1,note_on,74,0,0
1,note_on,86,0,0
1,note_on,86,92,75
1,note_on,82,77,0
1,note_on,77,77,0
1,note_on,74,77,0
1,note_on,74,0,120
1,note_on,86,0,0
1,note_on,82,0,0
1,note_on,77,0,0
1,note_on,70,70,120
1,note_on,82,84,0
1,note_on,77,70,0
1,note_on,74,70,0
1,note_on,74,0,120
1,note_on,70,0,0
1,note_on,82,0,0
1,note_on,77,0,0
1,note_on,82,77,960
1,note_on,77,77,0
1,note_on,86,92,0
1,note_on,74,77,7
1,note_on,86,0,113
1,note_on,82,0,0
1,note_on,77,0,0
1,note_on,74,82,0
1,note_on,86,99,0
1,note_on,74,0,7
1,note_on,86,0,233
1,note_on,74,0,0
1,note_on,78,70,0
1,note_on,74,70,0
1,note_on,81,70,0
1,note_on,86,84,0
1,note_on,86,0,45
1,note_on,78,0,0
1,note_on,74,0,0
1,note_on,81,0,0
1,note_on,86,85,75
1,note_on,78,70,0
1,note_on,74,72,0
1,note_on,81,72,0
1,note_on,81,0,45
1,note_on,86,0,0
1,note_on,78,0,0
1,note_on,74,0,0
1,note_on,81,77,75
1,note_on,74,77,0
1,note_on,86,92,0
1,note_on,78,77,0
1,note_on,78,0,120
1,note_on,81,0,0
1,note_on,74,0,0
1,note_on,86,0,0
1,note_on,81,70,120
1,note_on,78,70,0
1,note_on,74,70,0
1,note_on,86,84,0
1,note_on,86,0,120
1,note_on,81,0,0
1,note_on,78,0,0
1,note_on,74,0,0
1,note_on,66,33,840
1,note_on,74,39,0
1,note_on,69,33,0
1,note_on,69,0,120
1,note_on,74,0,0
1,note_on,66,0,0
1,note_on,74,42,360
1,note_on,69,35,0
1,note_on,66,35,0
1,note_on,66,0,120
1,note_on,69,0,0
1,note_on,74,0,0
1,note_on,69,37,360
1,note_on,74,44,0
1,note_on,66,37,0
1,note_on,66,0,120
1,note_on,74,0,0
1,note_on,69,0,0
1,note_on,66,39,360
1,note_on,69,39,0
1,note_on,74,46,0
1,note_on,74,0,120
1,note_on,69,0,0
1,note_on,66,0,0
1,note_on,74,41,360
1,note_on,72,41,0
1,note_on,78,49,0
1,note_on,69,41,0
1,note_on,69,0,120
1,note_on,74,0,0
1,note_on,72,0,0
1,note_on,78,0,0
1,note_on,69,43,360
1,note_on,74,43,0
1,note_on,78,51,0
1,note_on,72,43,0
1,note_on,72,0,120
1,note_on,69,0,0
1,note_on,74,0,0
1,note_on,78,0,0
1,note_on,81,60,360
1,note_on,78,50,0
1,note_on,72,50,0
1,note_on,69,50,0
1,note_on,69,0,120
1,note_on,81,0,0
1,note_on,78,0,0
1,note_on,72,0,0
1,note_on,84,68,360
1,note_on,78,57,0
1,note_on,72,57,0
1,note_on,81,57,0
1,note_on,81,0,120
1,note_on,84,0,0
1,note_on,78,0,0
1,note_on,72,0,0
1,note_on,78,64,360
1,note_on,84,64,0
1,note_on,90,75,0
1,note_on,81,64,0
1,note_on,81,0,120
1,note_on,78,0,0
1,note_on,84,0,0
1,note_on,90,0,0
1,note_on,93,79,360
1,note_on,84,66,0
1,note_on,81,66,0
1,note_on,81,0,120
1,note_on,84,0,0
1,note_on,93,0,0
1,note_on,84,69,360
1,note_on,93,69,0
1,note_on,96,82,0
1,note_on,96,0,120
1,note_on,93,0,0
1,note_on,84,0,0
1,note_on,96,85,360
1,note_on,90,71,0
1,note_on,84,71,0
1,note_on,93,71,0
1,note_on,93,0,120
1,note_on,96,0,0
1,note_on,90,0,0
1,note_on,84,0,0
1,note_on,93,71,120
1,note_on,96,85,0
1,note_on,84,71,0
1,note_on,90,71,0
1,note_on,90,0,120
1,note_on,93,0,0
1,note_on,96,0,0
1,note_on,84,0,0
1,note_on,84,57,120
1,note_on,81,57,0
1,note_on,81,0,120
1,note_on,84,0,0
1,note_on,83,57,0
1,note_on,80,57,0
1,note_on,80,0,120
1,note_on,83,0,0
1,note_on,84,63,0
1,note_on,81,63,0
1,note_on,81,0,240
1,note_on,84,0,0
1,note_on,66,52,0
1,note_on,69,52,0
1,note_on,69,0,120
1,note_on,66,0,0
1,note_on,70,52,0
1,note_on,67,52,0
1,note_on,67,0,120
1,note_on,70,0,0
1,note_on,69,58,0
1,note_on,66,58,0
1,note_on,66,0,240
1,note_on,69,0,0
1,note_on,81,47,0
1,note_on,84,47,0
1,note_on,84,0,120
1,note_on,81,0,0
1,note_on,83,47,0
1,note_on,80,47,0
1,note_on,80,0,120
1,note_on,83,0,0
1,note_on,84,56,0
1,note_on,81,56,0
1,note_on,81,0,240
1,note_on,84,0,0
1,note_on,90,47,0
1,note_on,90,0,120
1,note_on,93,47,0
1,note_on,93,0,120
1,note_on,96,57,0
1,note_on,96,0,120
1,note_on,98,48,0
1,note_on,98,0,120
1,note_on,96,49,0
1,note_on,96,0,120
1,note_on,95,50,0
1,note_on,95,0,120
1,note_on,96,65,0
1,note_on,96,0,120
1,note_on,98,57,0
1,note_on,98,0,120
1,note_on,100,66,0
1,note_on,100,0,120
1,note_on,96,58,0
1,note_on,96,0,120
1,note_on,93,69,0
1,note_on,93,0,120
1,note_on,95,56,0
1,note_on,95,0,120
1,note_on,96,66,0
1,note_on,96,0,120
1,note_on,93,54,0
1,note_on,93,0,120
1,note_on,90,66,0
1,note_on,90,0,120
1,note_on,91,53,0
1,note_on,91,0,120
1,note_on,93,61,0
1,note_on,93,0,120
1,note_on,90,53,0
1,note_on,90,0,120
1,note_on,84,47,0
1,note_on,84,0,120
1,note_on,86,47,0
1,note_on,86,0,120
1,note_on,88,58,0
1,note_on,88,0,120
1,note_on,84,47,0
1,note_on,84,0,120
1,note_on,81,47,0
1,note_on,81,0,120
1,note_on,83,47,0
1,note_on,83,0,120
1,note_on,84,53,0
1,note_on,84,0,120
1,note_on,81,47,0
1,note_on,81,0,120
1,note_on,78,47,0
1,note_on,78,0,120
1,note_on,79,47,0
1,note_on,79,0,120
1,note_on,81,52,0
1,note_on,81,0,120
1,note_on,78,47,0
1,note_on,78,0,120
1,note_on,74,47,0
1,note_on,72,47,0
1,note_on,69,47,0
1,note_on,69,0,240
1,note_on,72,0,0
1,note_on,74,0,0
1,note_on,95,57,240
1,note_on,95,0,120
1,note_on,96,48,0
1,note_on,96,0,120
1,note_on,95,49,0
1,note_on,95,0,120
1,note_on,93,50,0
1,note_on,93,0,120
1,note_on,95,65,0
1,note_on,95,0,120
1,note_on,96,57,0
1,note_on,96,0,120
1,note_on,98,66,0
1,note_on,98,0,120
1,note_on,95,58,0
1,note_on,95,0,120
1,note_on,91,69,0
1,note_on,91,0,120
1,note_on,93,56,0
1,note_on,93,0,120
1,note_on,95,66,0
1,note_on,95,0,120
1,note_on,91,54,0
1,note_on,91,0,120
1,note_on,86,66,0
1,note_on,86,0,120
1,note_on,90,53,0
1,note_on,90,0,120
1,note_on,91,61,0
1,note_on,91,0,120
1,note_on,86,53,0
1,note_on,86,0,120
1,note_on,83,47,0
1,note_on,83,0,120
1,note_on,84,47,0
1,note_on,84,0,120
1,note_on,86,58,0
1,note_on,86,0,120
1,note_on,83,47,0
1,note_on,83,0,120
1,note_on,79,47,0
1,note_on,79,0,120
1,note_on,81,47,0
1,note_on,81,0,120
1,note_on,83,53,0
1,note_on,83,0,120
1,note_on,79,47,0
1,note_on,79,0,120
1,note_on,74,47,0
1,note_on,74,0,120
1,note_on,78,47,0
1,note_on,78,0,120
1,note_on,79,52,0
1,note_on,79,0,120
1,note_on,71,47,0
1,note_on,71,0,118
1,note_on,67,40,2
1,note_on,67,0,120
1,note_on,69,40,0
1,note_on,69,0,120
1,note_on,71,45,0
1,note_on,71,0,118
1,note_on,67,40,2
1,note_on,67,0,120
1,note_on,62,40,0
1,note_on,69,46,0
1,note_on,66,40,0
1,note_on,66,0,240
1,note_on,69,0,0
1,note_on,62,0,0
1,note_on,88,52,0
1,note_on,88,0,120
1,note_on,86,47,0
1,note_on,86,0,120
1,note_on,88,40,0
1,note_on,88,0,120
1,note_on,86,40,0
1,note_on,86,0,120
1,note_on,84,45,0
1,note_on,84,0,120
1,note_on,88,40,0
1,note_on,88,0,120
1,note_on,84,52,0
1,note_on,84,0,120
1,note_on,83,42,0
1,note_on,83,0,120
1,note_on,81,49,0
1,note_on,81,0,120
1,note_on,84,43,0
1,note_on,84,0,120
1,note_on,81,48,0
1,note_on,81,0,120
1,note_on,79,40,0
1,note_on,79,0,120
1,note_on,78,45,0
1,note_on,78,0,120
1,note_on,81,40,0
1,note_on,81,0,120
1,note_on,76,52,0
1,note_on,76,0,120
1,note_on,74,42,0
1,note_on,74,0,120
1,note_on,72,49,0
1,note_on,72,0,120
1,note_on,76,43,0
1,note_on,76,0,120
1,note_on,72,48,0
1,note_on,72,0,120
1,note_on,71,40,0
1,note_on,71,0,120
1,note_on,69,45,0
1,note_on,69,0,120
1,note_on,72,40,0
1,note_on,72,0,120
1,note_on,69,52,0
1,note_on,69,0,120
1,note_on,67,42,0
1,note_on,67,0,120
1,note_on,66,49,0
1,note_on,66,0,120
1,note_on,69,43,0
1,note_on,69,0,120
1,note_on,72,48,0
1,note_on,72,0,120
1,note_on,71,40,0
1,note_on,71,0,120
1,note_on,69,45,0
1,note_on,69,0,120
1,note_on,72,40,0
1,note_on,72,0,120
1,note_on,62,40,0
1,note_on,67,46,0
1,note_on,67,0,240
1,note_on,62,0,0
1,note_on,98,52,0
1,note_on,98,0,120
1,note_on,96,47,0
1,note_on,96,0,120
1,note_on,98,40,0
1,note_on,98,0,120
1,note_on,96,40,0
1,note_on,96,0,120
1,note_on,95,45,0
1,note_on,95,0,120
1,note_on,98,40,0
1,note_on,98,0,120
1,note_on,95,52,0
1,note_on,95,0,120
1,note_on,93,42,0
1,note_on,93,0,120
1,note_on,91,49,0
1,note_on,91,0,120
1,note_on,95,43,0
1,note_on,95,0,120
1,note_on,83,48,0
1,note_on,83,0,120
1,note_on,81,40,0
1,note_on,81,0,120
1,note_on,79,45,0
1,note_on,79,0,120
1,note_on,83,40,0
1,note_on,83,0,120
1,note_on,74,52,0
1,note_on,74,0,120
1,note_on,72,42,0
1,note_on,72,0,120
1,note_on,71,49,0
1,note_on,71,0,120
1,note_on,74,43,0
1,note_on,74,0,120
1,note_on,83,48,0
1,note_on,83,0,120
1,note_on,81,40,0
1,note_on,81,0,120
1,note_on,79,45,0
1,note_on,79,0,120
1,note_on,83,40,0
1,note_on,83,0,120
1,note_on,86,62,0
1,note_on,86,0,120
1,note_on,84,51,0
1,note_on,84,0,120
1,note_on,83,61,0
1,note_on,83,0,120
1,note_on,84,52,0
1,note_on,84,0,120
1,note_on,88,62,0
1,note_on,88,0,240
1,note_on,90,51,0
1,note_on,81,51,0
1,note_on,86,51,0
1,note_on,86,0,240
1,note_on,81,0,0
1,note_on,90,0,0
1,note_on,91,51,0
1,note_on,79,51,0
1,note_on,86,51,0
1,note_on,86,0,240
1,note_on,79,0,0
1,note_on,91,0,0
1,note_on,69,40,960
1,note_on,66,34,0
1,note_on,66,0,240
1,note_on,69,0,0
1,note_on,67,32,0
1,note_on,71,38,0
1,note_on,71,0,120
1,note_on,67,0,0
1,note_on,91,47,120
1,note_on,83,39,0
1,note_on,83,0,120
1,note_on,91,0,0
1,note_on,90,44,0
1,note_on,81,37,0
1,note_on,81,0,120
1,note_on,90,0,0
1,note_on,91,47,0
1,note_on,83,39,0
1,note_on,83,0,240
1,note_on,91,0,0
1,note_on,83,33,0
1,note_on,79,33,0
1,note_on,88,39,0
1,note_on,88,0,240
1,note_on,79,0,0
1,note_on,83,0,0
1,note_on,86,42,0
1,note_on,81,35,0
1,note_on,78,35,0
1,note_on,78,0,240
1,note_on,81,0,0
1,note_on,86,0,0
1,note_on,85,40,0
1,note_on,79,30,0
1,note_on,76,30,0
1,note_on,76,0,240
1,note_on,79,0,0
1,note_on,85,0,0
1,note_on,79,38,0
1,note_on,88,45,0
1,note_on,88,0,240
1,note_on,79,0,0
1,note_on,78,30,0
1,note_on,86,36,0
1,note_on,78,0,238
1,note_on,86,0,0
1,note_on,86,36,2
1,note_on,78,30,0
1,note_on,78,0,240
1,note_on,86,0,0
1,note_on,79,38,0
1,note_on,86,45,0
1,note_on,86,0,120
1,note_on,79,0,0
1,note_on,84,40,0
1,note_on,81,34,0
1,note_on,81,0,120
1,note_on,84,0,0
1,note_on,83,46,0
1,note_on,83,0,240
1,note_on,79,43,0
1,note_on,91,51,0
1,note_on,91,0,120
1,note_on,88,46,120
1,note_on,88,0,120
1,note_on,79,0,0
1,note_on,96,51,120
1,note_on,84,43,0
1,note_on,84,0,120
1,note_on,96,0,0
1,note_on,93,44,0
1,note_on,88,37,0
1,note_on,88,0,120
1,note_on,93,0,0
1,note_on,90,51,0
1,note_on,90,0,240
1,note_on,86,47,0
1,note_on,98,56,0
1,note_on,98,0,240
1,note_on,95,53,0
1,note_on,95,0,120
1,note_on,86,0,0
1,note_on,91,52,120
1,note_on,91,0,120
1,note_on,90,45,0
1,note_on,90,0,120
1,note_on,91,52,0
1,note_on,91,0,240
1,note_on,88,47,0
1,note_on,88,0,240
1,note_on,84,51,0
1,note_on,84,0,240
1,note_on,78,37,0
1,note_on,83,44,0
1,note_on,83,0,240
1,note_on,78,0,0
1,note_on,83,44,0
1,note_on,78,44,0
1,note_on,78,0,240
1,note_on,81,50,0
1,note_on,81,0,120
1,note_on,79,44,0
1,note_on,79,0,118
1,note_on,79,49,2
1,note_on,79,0,240
1,note_on,83,0,0
1,note_on,88,55,0
1,note_on,79,46,0
1,note_on,82,46,0
1,note_on,82,0,240
1,note_on,88,0,0
1,note_on,81,44,0
1,note_on,79,0,240
1,note_on,79,50,0
1,note_on,79,0,120
1,note_on,77,44,0
1,note_on,77,0,120
1,note_on,77,49,0
1,note_on,77,0,240
1,note_on,81,0,0
1,note_on,77,55,0
1,note_on,80,55,0
1,note_on,86,55,0
1,note_on,86,0,240
1,note_on,80,0,0
1,note_on,79,44,0
1,note_on,77,0,240
1,note_on,77,50,0
1,note_on,77,0,120
1,note_on,76,44,0
1,note_on,76,0,118
1,note_on,76,49,2
1,note_on,76,0,240
1,note_on,79,0,0
1,note_on,85,55,0
1,note_on,76,46,0
1,note_on,79,46,0
1,note_on,79,0,240
1,note_on,85,0,0
1,note_on,78,44,0
1,note_on,76,0,240
1,note_on,76,50,0
1,note_on,76,0,120
1,note_on,75,44,0
1,note_on,75,0,120
1,note_on,74,49,0
1,note_on,74,0,240
1,note_on,78,0,0
1,note_on,77,46,0
1,note_on,74,46,0
1,note_on,83,55,0
1,note_on,83,0,240
1,note_on,74,0,0
1,note_on,77,0,0
1,note_on,74,46,0
1,note_on,77,55,0
1,note_on,77,0,120
1,note_on,76,46,0
1,note_on,74,0,120
1,note_on,73,46,0
1,note_on,76,0,120
1,note_on,81,48,0
1,note_on,81,0,120
1,note_on,73,0,0
1,note_on,72,46,0
1,note_on,75,55,0
1,note_on,75,0,120
1,note_on,74,47,0
1,note_on,72,0,120
1,note_on,71,46,0
1,note_on,74,0,120
1,note_on,79,49,0
1,note_on,79,0,120
1,note_on,71,0,0
1,note_on,74,56,0
1,note_on,74,0,120
1,note_on,86,44,0
1,note_on,86,0,120
1,note_on,85,45,0
1,note_on,85,0,120
1,note_on,84,46,0
1,note_on,84,0,120
1,note_on,81,47,0
1,note_on,81,0,120
1,note_on,78,47,0
1,note_on,78,0,120
1,note_on,75,48,0
1,note_on,75,0,120
1,note_on,74,49,0
1,note_on,74,0,120
1,note_on,73,50,0
1,note_on,73,0,120
1,note_on,72,51,0
1,note_on,72,0,120
1,note_on,69,52,0
1,note_on,69,0,120
1,note_on,66,53,0
1,note_on,66,0,120
1,note_on,63,61,0
1,note_on,67,51,0
1,note_on,63,0,120
1,note_on,62,47,0
1,note_on,62,0,120
1,note_on,67,0,0
1,note_on,76,58,0
1,note_on,67,49,0
1,note_on,76,0,120
1,note_on,74,47,0
1,note_on,74,0,120
1,note_on,67,0,0
1,note_on,74,56,0
1,note_on,74,0,120
1,note_on,86,44,0
1,note_on,86,0,120
1,note_on,85,45,0
1,note_on,85,0,120
1,note_on,84,46,0
1,note_on,84,0,120
1,note_on,81,47,0
1,note_on,81,0,120
1,note_on,78,47,0
1,note_on,78,0,120
1,note_on,75,48,0
1,note_on,75,0,120
1,note_on,74,49,0
1,note_on,74,0,120
1,note_on,73,50,0
1,note_on,73,0,120
1,note_on,72,51,0
1,note_on,72,0,120
1,note_on,69,52,0
1,note_on,69,0,120
1,note_on,66,53,0
1,note_on,66,0,120
1,note_on,67,51,0
1,note_on,63,61,0
1,note_on,63,0,120
1,note_on,62,47,0
1,note_on,62,0,120
1,note_on,67,0,0
1,note_on,76,58,0
1,note_on,67,49,0
1,note_on,76,0,120
1,note_on,74,47,0
1,note_on,74,0,120
1,note_on,67,0,0
1,note_on,74,52,0
1,note_on,74,0,120
1,note_on,71,45,0
1,note_on,79,54,0
1,note_on,79,0,120
1,note_on,71,0,0
1,note_on,83,58,0
1,note_on,74,49,0
1,note_on,74,0,120
1,note_on,83,0,0
1,note_on,72,44,0
1,note_on,81,52,0
1,note_on,81,0,120
1,note_on,72,0,0
1,note_on,71,58,0
1,note_on,79,58,0
1,note_on,71,0,120
1,note_on,75,50,0
1,note_on,75,0,120
1,note_on,76,55,0
1,note_on,76,0,120
1,note_on,71,50,0
1,note_on,71,0,120
1,note_on,70,54,0
1,note_on,70,0,120
1,note_on,75,58,0
1,note_on,75,0,120
1,note_on,76,58,0
1,note_on,76,0,120
1,note_on,70,53,0
1,note_on,70,0,120
1,note_on,79,0,0
1,note_on,69,56,0
1,note_on,69,0,120
1,note_on,73,50,0
1,note_on,73,0,120
1,note_on,74,60,0
1,note_on,74,0,120
1,note_on,86,54,0
1,note_on,86,0,120
1,note_on,86,61,0
1,note_on,86,0,120
1,note_on,98,48,0
1,note_on,98,0,120
1,note_on,97,49,0
1,note_on,97,0,120
1,note_on,96,50,0
1,note_on,96,0,120
1,note_on,93,51,0
1,note_on,93,0,120
1,note_on,90,51,0
1,note_on,90,0,120
1,note_on,87,52,0
1,note_on,87,0,120
1,note_on,86,53,0
1,note_on,86,0,120
1,note_on,85,55,0
1,note_on,85,0,120
1,note_on,84,60,0
1,note_on,84,0,120
1,note_on,81,64,0
1,note_on,81,0,120
1,note_on,78,67,0
1,note_on,78,0,120
1,note_on,75,72,0
1,note_on,79,60,0
1,note_on,75,0,120
1,note_on,74,51,0
1,note_on,74,0,120
1,note_on,79,0,0
1,note_on,79,53,0
1,note_on,88,63,0
1,note_on,88,0,120
1,note_on,86,51,0
1,note_on,86,0,120
1,note_on,79,0,0
1,note_on,86,61,0
1,note_on,86,0,120
1,note_on,98,48,0
1,note_on,98,0,120
1,note_on,97,49,0
1,note_on,97,0,120
1,note_on,96,50,0
1,note_on,96,0,120
1,note_on,93,51,0
1,note_on,93,0,120
1,note_on,90,51,0
1,note_on,90,0,120
1,note_on,87,52,0
1,note_on,87,0,120
1,note_on,86,53,0
1,note_on,86,0,120
1,note_on,85,57,0
1,note_on,85,0,120
1,note_on,84,59,0
1,note_on,84,0,120
1,note_on,81,61,0
1,note_on,81,0,120
1,note_on,78,63,0
1,note_on,78,0,120
1,note_on,79,54,0
1,note_on,75,67,0
1,note_on,75,0,120
1,note_on,74,51,0
1,note_on,74,0,120
1,note_on,79,0,0
1,note_on,79,53,0
1,note_on,88,63,0
1,note_on,88,0,120
1,note_on,86,51,0
1,note_on,86,0,120
1,note_on,79,0,0
1,note_on,86,56,0
1,note_on,86,0,120
1,note_on,79,54,0
1,note_on,71,45,0
1,note_on,71,0,120
1,note_on,79,0,0
1,note_on,74,49,0
1,note_on,83,58,0
1,note_on,83,0,120
1,note_on,74,0,0
1,note_on,81,52,0
1,note_on,72,44,0
1,note_on,72,0,120
1,note_on,81,0,0
1,note_on,71,58,0
1,note_on,79,58,0
1,note_on,71,0,120
1,note_on,75,50,0
1,note_on,75,0,120
1,note_on,76,55,0
1,note_on,76,0,120
1,note_on,71,50,0
1,note_on,71,0,120
1,note_on,70,54,0
1,note_on,70,0,120
1,note_on,75,58,0
1,note_on,75,0,120
1,note_on,76,58,0
1,note_on,76,0,120
1,note_on,70,53,0
1,note_on,70,0,120
1,note_on,79,0,0
1,note_on,69,56,0
1,note_on,78,54,0
1,note_on,69,0,120
1,note_on,74,50,0
1,note_on,74,0,120
1,note_on,78,0,0
1,note_on,79,54,0
1,note_on,67,60,0
1,note_on,67,0,120
1,note_on,72,50,0
1,note_on,72,0,120
1,note_on,79,0,0
1,note_on,79,54,0
1,note_on,79,0,120
1,note_on,76,47,0
1,note_on,84,57,0
1,note_on,84,0,120
1,note_on,76,0,0
1,note_on,88,62,0
1,note_on,79,52,0
1,note_on,79,0,120
1,note_on,88,0,0
1,note_on,77,47,0
1,note_on,86,56,0
1,note_on,86,0,120
1,note_on,77,0,0
1,note_on,76,63,0
1,note_on,84,63,0
1,note_on,76,0,120
1,note_on,80,55,0
1,note_on,80,0,120
1,note_on,81,61,0
1,note_on,81,0,120
1,note_on,75,56,0
1,note_on,75,0,120
1,note_on,75,61,0
1,note_on,75,0,120
1,note_on,80,66,0
1,note_on,80,0,120
1,note_on,81,66,0
1,note_on,81,0,120
1,note_on,75,62,0
1,note_on,75,0,120
1,note_on,84,0,0
1,note_on,74,66,0
1,note_on,83,63,0
1,note_on,74,0,120
1,note_on,79,59,0
1,note_on,79,0,120
1,note_on,83,0,0
1,note_on,84,64,0
1,note_on,72,72,0
1,note_on,72,0,120
1,note_on,77,60,0
1,note_on,77,0,120
1,note_on,84,0,0
1,note_on,84,63,0
1,note_on,84,0,120
1,note_on,81,55,0
1,note_on,89,66,0
1,note_on,89,0,120
1,note_on,81,0,0
1,note_on,84,60,0
1,note_on,93,71,0
1,note_on,93,0,120
1,note_on,84,0,0
1,note_on,82,55,0
1,note_on,91,65,0
1,note_on,91,0,120
1,note_on,82,0,0
1,note_on,89,73,0
1,note_on,80,73,0
1,note_on,80,0,120
1,note_on,77,63,0
1,note_on,77,0,120
1,note_on,80,70,0
1,note_on,80,0,120
1,note_on,79,65,0
1,note_on,79,0,120
1,note_on,80,70,0
1,note_on,80,0,120
1,note_on,85,71,0
1,note_on,85,0,120
1,note_on,86,77,0
1,note_on,86,0,120
1,note_on,80,71,0
1,note_on,80,0,120
1,note_on,89,0,0
1,note_on,79,75,0
1,note_on,88,78,0
1,note_on,79,0,120
1,note_on,83,68,0
1,note_on,83,0,120
1,note_on,84,82,0
1,note_on,84,0,120
1,note_on,79,69,0
1,note_on,79,0,120
1,note_on,84,74,0
1,note_on,84,0,240
1,note_on,88,0,0
1,note_on,76,79,0
1,note_on,88,93,0
1,note_on,84,79,0
1,note_on,79,79,0
1,note_on,79,0,240
1,note_on,76,0,0
1,note_on,88,0,0
1,note_on,84,0,0
1,note_on,83,74,0
1,note_on,86,88,0
1,note_on,86,0,240
1,note_on,83,0,0
1,note_on,84,74,0
1,note_on,88,86,0
1,note_on,88,0,120
1,note_on,84,0,0
1,note_on,89,92,0
1,note_on,86,78,0
1,note_on,86,0,120
1,note_on,89,0,0
1,note_on,88,81,0
1,note_on,91,96,0
1,note_on,91,0,120
1,note_on,88,0,0
1,note_on,84,77,120
1,note_on,88,91,0
1,note_on,88,0,120
1,note_on,84,0,0
1,note_on,79,79,840
1,note_on,76,79,0
1,note_on,88,93,0
1,note_on,84,79,0
1,note_on,84,0,240
1,note_on,79,0,0
1,note_on,76,0,0
1,note_on,88,0,0
1,note_on,86,88,0
1,note_on,83,74,0
1,note_on,83,0,240
1,note_on,86,0,0
1,note_on,88,86,0
1,note_on,84,74,0
1,note_on,84,0,120
1,note_on,88,0,0
1,note_on,86,78,0
1,note_on,89,92,0
1,note_on,89,0,120
1,note_on,86,0,0
1,note_on,88,81,0
1,note_on,91,96,0
1,note_on,91,0,120
1,note_on,88,0,0
1,note_on,88,86,120
1,note_on,79,86,0
1,note_on,81,86,0
1,note_on,91,103,0
1,note_on,91,0,240
1,note_on,88,0,0
1,note_on,79,0,0
1,note_on,81,0,0
1,note_on,88,86,240
1,note_on,85,86,0
1,note_on,91,103,0
1,note_on,79,86,0
1,note_on,79,0,240
1,note_on,88,0,0
1,note_on,85,0,0
1,note_on,91,0,0
1,note_on,91,103,240
1,note_on,86,86,0
1,note_on,83,86,0
1,note_on,79,86,0
1,note_on,79,0,240
1,note_on,91,0,0
1,note_on,86,0,0
1,note_on,83,0,0
1,note_on,79,86,240
1,note_on,91,103,0
1,note_on,85,86,0
1,note_on,81,86,0
1,note_on,81,0,240
1,note_on,79,0,0
1,note_on,91,0,0
1,note_on,85,0,0
1,note_on,91,77,0
1,note_on,83,65,0
1,note_on,86,65,0
1,note_on,79,65,0
1,note_on,79,0,480
1,note_on,91,0,0
1,note_on,83,0,0
1,note_on,86,0,0
1,note_on,79,54,0
1,note_on,86,64,0
1,note_on,83,54,0
1,note_on,83,0,720
1,note_on,86,0,0
1,note_on,79,0,0
1,note_on,74,53,0
1,note_on,83,63,0
1,note_on,79,53,0
1,note_on,79,0,240
1,note_on,83,0,0
1,note_on,74,0,0
1,note_on,74,56,0
1,note_on,74,0,120
1,note_on,78,57,0
1,note_on,78,0,120
1,note_on,79,58,0
1,note_on,79,0,120
1,note_on,83,59,0
1,note_on,83,0,120
1,note_on,85,60,0
1,note_on,85,0,120
1,note_on,86,61,0
1,note_on,86,0,120
1,note_on,88,62,0
1,note_on,88,0,120
1,note_on,86,62,0
1,note_on,86,0,120
1,note_on,90,63,0
1,note_on,90,0,120
1,note_on,91,64,0
1,note_on,91,0,120
1,note_on,93,65,0
1,note_on,93,0,120
1,note_on,91,66,0
1,note_on,91,0,120
1,note_on,94,67,0
1,note_on,94,0,120
1,note_on,95,68,0
1,note_on,95,0,120
1,note_on,96,69,0
1,note_on,96,0,120
1,note_on,95,70,0
1,note_on,95,0,120
1,note_on,98,71,0
1,note_on,98,0,240
1,note_on,84,70,0
1,note_on,81,59,0
1,note_on,74,59,0
1,note_on,74,0,240
1,note_on,81,0,0
1,note_on,84,0,0
1,note_on,74,49,0
1,note_on,83,58,0
1,note_on,79,49,0
1,note_on,79,0,960
1,note_on,83,0,0
1,note_on,74,0,0
1,note_on,84,57,0
1,note_on,79,48,0
1,note_on,79,0,480
1,note_on,84,0,0
1,note_on,84,51,0
1,note_on,87,61,0
1,note_on,79,51,0
1,note_on,79,0,480
1,note_on,87,0,0
1,note_on,84,0,0
1,note_on,91,56,0
1,note_on,79,56,0
1,note_on,86,67,0
1,note_on,86,0,480
1,note_on,83,61,0
1,note_on,83,0,480
1,note_on,79,0,0
1,note_on,91,0,0
1,note_on,84,51,0
1,note_on,79,51,0
1,note_on,87,60,0
1,note_on,87,0,480
1,note_on,79,0,0
1,note_on,84,0,0
1,note_on,84,63,0
1,note_on,79,53,0
1,note_on,79,0,480
1,note_on,84,0,0
1,note_on,79,56,0
1,note_on,82,66,0
1,note_on,82,0,480
1,note_on,83,59,0
1,note_on,83,0,480
1,note_on,79,0,0
1,note_on,86,64,0
1,note_on,78,54,0
1,note_on,78,0,480
1,note_on,86,0,0
1,note_on,81,53,0
1,note_on,84,63,0
1,note_on,74,52,240
1,note_on,84,0,120
1,note_on,81,0,0
1,note_on,81,57,0
1,note_on,78,48,0
1,note_on,78,0,120
1,note_on,81,0,0
1,note_on,74,0,0
1,note_on,83,58,0
1,note_on,74,49,0
1,note_on,79,49,0
1,note_on,79,0,81
1,note_on,81,42,0
1,note_on,81,0,80
1,note_on,79,49,0
1,note_on,74,0,79
1,note_on,81,44,1
1,note_on,79,0,1
1,note_on,81,0,80
1,note_on,79,49,0
1,note_on,79,0,80
1,note_on,81,44,0
1,note_on,79,50,78
1,note_on,81,0,3
1,note_on,79,0,78
1,note_on,81,44,0
1,note_on,81,0,80
1,note_on,79,50,0
1,note_on,81,46,80
1,note_on,79,0,1
1,note_on,81,0,80
1,note_on,79,51,0
1,note_on,79,0,80
1,note_on,81,45,0
1,note_on,83,0,78
1,note_on,84,67,0
1,note_on,79,51,0
1,note_on,81,0,3
1,note_on,79,0,78
1,note_on,81,44,0
1,note_on,81,0,80
1,note_on,79,52,0
1,note_on,81,47,80
1,note_on,79,0,1
1,note_on,81,0,80
1,note_on,79,52,0
1,note_on,79,0,80
1,note_on,81,47,0
1,note_on,84,0,78
1,note_on,79,53,0
1,note_on,88,73,0
1,note_on,81,0,3
1,note_on,79,0,78
1,note_on,81,47,0
1,note_on,81,0,80
1,note_on,79,54,0
1,note_on,81,48,80
1,note_on,79,0,1
1,note_on,81,0,80
1,note_on,79,54,0
1,note_on,79,0,80
1,note_on,81,48,0
1,note_on,88,0,78
1,note_on,79,55,0
1,note_on,91,67,0
1,note_on,81,0,3
1,note_on,79,0,78
1,note_on,81,47,0
1,note_on,81,0,80
1,note_on,79,55,0
1,note_on,81,50,80
1,note_on,79,0,1
1,note_on,81,0,80
1,note_on,79,56,0
1,note_on,79,0,80
1,note_on,81,51,0
1,note_on,79,56,78
1,note_on,81,0,3
1,note_on,79,0,78
1,note_on,81,50,0
1,note_on,81,0,80
1,note_on,79,57,0
1,note_on,81,51,80
1,note_on,79,0,1
1,note_on,81,0,80
1,note_on,79,57,0
1,note_on,79,0,80
1,note_on,81,51,0
1,note_on,91,0,78
1,note_on,88,72,0
1,note_on,79,58,0
1,note_on,81,0,3
1,note_on,79,0,78
1,note_on,81,50,0
1,note_on,81,0,80
1,note_on,79,59,0
1,note_on,81,53,80
1,note_on,79,0,1
1,note_on,81,0,80
1,note_on,79,59,0
1,note_on,79,0,80
1,note_on,81,53,0
1,note_on,88,0,78
1,note_on,84,77,0
1,note_on,79,60,0
1,note_on,81,0,3
1,note_on,79,0,78
1,note_on,81,52,0
1,note_on,81,0,80
1,note_on,79,60,0
1,note_on,81,55,80
1,note_on,79,0,1
1,note_on,81,0,80
1,note_on,79,61,0
1,note_on,79,0,80
1,note_on,81,54,0
1,note_on,84,0,78
1,note_on,79,61,0
1,note_on,82,83,0
1,note_on,81,0,3
1,note_on,79,0,78
1,note_on,81,53,0
1,note_on,81,0,80
1,note_on,79,62,0
1,note_on,82,0,79
1,note_on,83,75,0
1,note_on,81,56,1
1,note_on,79,0,1
1,note_on,81,0,80
1,note_on,79,62,0
1,note_on,79,0,80
1,note_on,81,56,0
1,note_on,79,63,78
1,note_on,81,0,3
1,note_on,79,0,78
1,note_on,81,55,0
1,note_on,81,0,80
1,note_on,79,64,0
1,note_on,83,0,79
1,note_on,86,86,0
1,note_on,81,57,1
1,note_on,79,0,1
1,note_on,81,0,80
1,note_on,79,64,0
1,note_on,79,0,80
1,note_on,81,56,0
1,note_on,86,0,78
1,note_on,86,75,0
1,note_on,81,0,3
1,note_on,86,0,78
1,note_on,88,66,0
1,note_on,88,0,80
1,note_on,86,75,0
1,note_on,74,60,79
1,note_on,88,64,1
1,note_on,86,0,1
1,note_on,88,0,80
1,note_on,86,75,0
1,note_on,86,0,80
1,note_on,88,68,0
1,note_on,74,0,78
1,note_on,86,78,0
1,note_on,88,0,3
1,note_on,86,0,78
1,note_on,88,69,0
1,note_on,88,0,80
1,note_on,86,75,0
1,note_on,85,75,79
1,note_on,86,0,2
1,note_on,85,0,118
1,note_on,86,79,0
1,note_on,86,0,120
1,note_on,89,73,0
1,note_on,86,73,0
1,note_on,95,73,0
1,note_on,98,86,0
1,note_on,98,0,120
1,note_on,89,0,0
1,note_on,86,0,0
1,note_on,95,0,0
1,note_on,86,66,120
1,note_on,89,66,0
1,note_on,95,66,0
1,note_on,98,78,0
1,note_on,98,0,480
1,note_on,86,0,0
1,note_on,89,0,0
1,note_on,95,0,0
1,note_on,86,66,0
1,note_on,84,66,0
1,note_on,89,66,0
1,note_on,96,78,0
1,note_on,96,0,120
1,note_on,86,0,0
1,note_on,84,0,0
1,note_on,89,0,0
1,note_on,89,67,120
1,note_on,95,79,0
1,note_on,83,67,0
1,note_on,86,67,0
1,note_on,86,0,120
1,note_on,89,0,0
1,note_on,95,0,0
1,note_on,83,0,0
1,note_on,86,70,120
1,note_on,96,83,0
1,note_on,89,70,0
1,note_on,84,70,0
1,note_on,84,0,120
1,note_on,86,0,0
1,note_on,96,0,0
1,note_on,89,0,0
1,note_on,98,82,120
1,note_on,86,69,0
1,note_on,89,69,0
1,note_on,89,0,120
1,note_on,86,0,0
1,note_on,98,0,0
1,note_on,95,69,120
1,note_on,83,58,0
1,note_on,86,58,0
1,note_on,88,58,0
1,note_on,88,0,120
1,note_on,95,0,0
1,note_on,83,0,0
1,note_on,86,0,0
1,note_on,88,50,120
1,note_on,96,59,0
1,note_on,84,50,0
1,note_on,84,0,120
1,note_on,96,0,0
1,note_on,88,0,0
1,note_on,83,45,120
1,note_on,86,45,0
1,note_on,88,45,0
1,note_on,95,53,0
1,note_on,95,0,120
1,note_on,83,0,0
1,note_on,86,0,0
1,note_on,88,0,0
1,note_on,96,59,120
1,note_on,88,50,0
1,note_on,84,50,0
1,note_on,84,0,120
1,note_on,88,0,0
1,note_on,96,0,0
1,note_on,84,45,120
1,note_on,93,53,0
1,note_on,88,45,0
1,note_on,81,45,0
1,note_on,81,0,120
1,note_on,84,0,0
1,note_on,93,0,0
1,note_on,88,0,0
1,note_on,81,50,120
1,note_on,88,50,0
1,note_on,91,59,0
1,note_on,91,0,120
1,note_on,88,0,0
1,note_on,81,0,0
1,note_on,91,53,120
1,note_on,81,45,0
1,note_on,85,45,0
1,note_on,85,0,120
1,note_on,81,0,0
1,note_on,91,0,0
1,note_on,90,59,120
1,note_on,81,50,0
1,note_on,84,50,0
1,note_on,84,0,120
1,note_on,81,0,0
1,note_on,90,0,0
1,note_on,84,45,120
1,note_on,93,53,0
1,note_on,81,45,0
1,note_on,81,0,120
1,note_on,93,0,0
1,note_on,84,0,0
1,note_on,91,64,120
1,note_on,83,55,0
1,note_on,79,55,0
1,note_on,79,0,120
1,note_on,83,0,0
1,note_on,91,0,0
1,note_on,83,50,120
1,note_on,86,59,0
1,note_on,74,50,0
1,note_on,74,0,120
1,note_on,86,0,0
1,note_on,83,0,0
1,note_on,84,58,120
1,note_on,78,58,0
1,note_on,90,69,0
1,note_on,90,0,120
1,note_on,78,0,0
1,note_on,84,0,0
1,note_on,90,55,120
1,note_on,84,55,0
1,note_on,93,65,0
1,note_on,81,55,0
1,note_on,81,0,120
1,note_on,90,0,0
1,note_on,84,0,0
1,note_on,93,0,0
1,note_on,83,63,120
1,note_on,79,63,0
1,note_on,91,75,0
1,note_on,91,0,120
1,note_on,79,0,0
1,note_on,83,0,0
1,note_on,83,59,120
1,note_on,74,59,0
1,note_on,86,69,0
1,note_on,86,0,120
1,note_on,74,0,0
1,note_on,83,0,0
1,note_on,84,69,120
1,note_on,90,80,0
1,note_on,78,69,0
1,note_on,78,0,120
1,note_on,90,0,0
1,note_on,84,0,0
1,note_on,90,64,120
1,note_on,84,64,0
1,note_on,81,64,0
1,note_on,93,76,0
1,note_on,93,0,120
1,note_on,90,0,0
1,note_on,84,0,0
1,note_on,81,0,0
1,note_on,79,77,120
1,note_on,79,0,120
1,note_on,91,70,0
1,note_on,91,0,120
1,note_on,74,79,0
1,note_on,74,0,120
1,note_on,86,73,0
1,note_on,86,0,120
1,note_on,78,82,0
1,note_on,78,0,120
1,note_on,90,76,0
1,note_on,90,0,120
1,note_on,81,85,0
1,note_on,81,0,120
1,note_on,93,79,0
1,note_on,93,0,120
1,note_on,79,88,0
1,note_on,79,0,120
1,note_on,91,82,0
1,note_on,91,0,120
1,note_on,74,91,0
1,note_on,74,0,120
1,note_on,86,86,0
1,note_on,86,0,120
1,note_on,78,94,0
1,note_on,78,0,120
1,note_on,90,90,0
1,note_on,90,0,120
1,note_on,81,99,0
1,note_on,81,0,120
1,note_on,93,92,0
1,note_on,93,0,120
1,note_on,91,110,0
1,note_on,79,91,0
1,note_on,79,0,180
1,note_on,91,0,0
1,note_on,93,112,300
1,note_on,81,94,0
1,note_on,81,0,180
1,note_on,93,0,0
1,note_on,82,99,300
1,note_on,94,118,0
1,note_on,94,0,840
1,note_on,82,0,0
1,note_on,58,57,1920
1,note_on,58,0,120
1,note_on,70,81,0
1,note_on,70,0,360
1,note_on,70,71,0
1,note_on,70,0,120
1,note_on,70,78,0
1,note_on,70,0,240
1,note_on,77,88,1560
1,note_on,86,105,0
1,note_on,82,88,0
1,note_on,74,88,0
1,note_on,74,0,120
1,note_on,77,0,0
1,note_on,86,0,0
1,note_on,82,0,0
1,note_on,86,94,0
1,note_on,74,79,0
1,note_on,82,79,0
1,note_on,77,79,0
1,note_on,77,0,180
1,note_on,86,0,0
1,note_on,74,0,0
1,note_on,82,0,0
1,note_on,74,80,60
1,note_on,77,80,0
1,note_on,87,100,0
1,note_on,82,80,0
1,note_on,82,0,45
1,note_on,74,0,0
1,note_on,77,0,0
1,note_on,87,0,0
1,note_on,74,82,75
1,note_on,77,82,0
1,note_on,82,82,0
1,note_on,86,97,0
1,note_on,86,0,45
1,note_on,74,0,0
1,note_on,77,0,0
1,note_on,82,0,0
1,note_on,77,88,75
1,note_on,86,105,0
1,note_on,82,88,0
1,note_on,74,88,0
1,note_on,74,0,120
1,note_on,77,0,0
1,note_on,86,0,0
1,note_on,82,0,0
1,note_on,70,80,120
1,note_on,82,96,0
1,note_on,77,80,0
1,note_on,74,80,0
1,note_on,74,0,120
1,note_on,70,0,0
1,note_on,82,0,0
1,note_on,77,0,0
1,note_on,77,88,960
1,note_on,82,88,0
1,note_on,86,88,0
1,note_on,89,105,0
1,note_on,89,0,120
1,note_on,77,0,0
1,note_on,82,0,0
1,note_on,86,0,0
1,note_on,89,94,0
1,note_on,86,79,0
1,note_on,82,79,0
1,note_on,77,79,0
1,note_on,77,0,180
1,note_on,89,0,0
1,note_on,86,0,0
1,note_on,82,0,0
1,note_on,82,80,60
1,note_on,91,100,0
1,note_on,77,80,0
1,note_on,86,80,0
1,note_on,86,0,45
1,note_on,82,0,0
1,note_on,91,0,0
1,note_on,77,0,0
1,note_on,82,82,75
1,note_on,86,82,0
1,note_on,89,97,0
1,note_on,77,82,0
1,note_on,77,0,45
1,note_on,82,0,0
1,note_on,86,0,0
1,note_on,89,0,0
1,note_on,89,105,75
1,note_on,77,88,0
1,note_on,82,88,0
1,note_on,86,88,0
1,note_on,86,0,120
1,note_on,89,0,0
1,note_on,77,0,0
1,note_on,82,0,0
1,note_on,86,96,120
1,note_on,82,80,0
1,note_on,74,80,0
1,note_on,77,80,0
1,note_on,77,0,120
1,note_on,86,0,0
1,note_on,82,0,0
1,note_on,74,0,0
1,note_on,70,50,360
1,note_on,70,0,120
1,note_on,72,45,0
1,note_on,72,0,120
1,note_on,74,50,0
1,note_on,67,39,240
1,note_on,67,0,240
1,note_on,74,0,0
1,note_on,72,39,0
1,note_on,69,33,0
1,note_on,69,0,240
1,note_on,72,0,0
1,note_on,72,50,0
1,note_on,68,42,0
1,note_on,72,0,120
1,note_on,74,46,0
1,note_on,74,0,120
1,note_on,68,0,0
1,note_on,67,46,0
1,note_on,75,55,0
1,note_on,67,0,240
1,note_on,69,45,0
1,note_on,69,0,240
1,note_on,75,0,0
1,note_on,70,38,0
1,note_on,74,45,0
1,note_on,74,0,240
1,note_on,70,0,0
1,note_on,67,39,0
1,note_on,74,47,0
1,note_on,74,0,120
1,note_on,75,50,0
1,note_on,75,0,120
1,note_on,67,0,0
1,note_on,77,54,0
1,note_on,65,45,0
1,note_on,65,0,240
1,note_on,70,45,0
1,note_on,77,0,120
1,note_on,79,52,0
1,note_on,79,0,120
1,note_on,70,0,0
1,note_on,67,42,0
1,note_on,77,50,0
1,note_on,77,0,120
1,note_on,75,43,0
1,note_on,67,0,120
1,note_on,69,43,0
1,note_on,75,0,120
1,note_on,77,45,0
1,note_on,77,0,120
1,note_on,69,0,0
1,note_on,75,49,0
1,note_on,65,35,0
1,note_on,70,35,0
1,note_on,75,0,120
1,note_on,74,41,0
1,note_on,74,0,120
1,note_on,70,0,0
1,note_on,65,0,0
1,note_on,72,30,0
1,note_on,67,30,0
1,note_on,77,43,0
1,note_on,77,0,120
1,note_on,75,37,0
1,note_on,75,0,120
1,note_on,67,0,0
1,note_on,72,0,0
1,note_on,69,30,0
1,note_on,72,35,0
1,note_on,72,0,240
1,note_on,69,0,0
1,note_on,82,50,0
1,note_on,82,0,120
1,note_on,84,45,0
1,note_on,84,0,120
1,note_on,86,50,0
1,note_on,79,39,240
1,note_on,79,0,240
1,note_on,86,0,0
1,note_on,81,33,0
1,note_on,84,39,0
1,note_on,84,0,240
1,note_on,81,0,0
1,note_on,80,42,0
1,note_on,84,50,0
1,note_on,84,0,120
1,note_on,86,46,0
1,note_on,86,0,120
1,note_on,80,0,0
1,note_on,79,46,0
1,note_on,87,55,0
1,note_on,79,0,240
1,note_on,81,45,0
1,note_on,81,0,240
1,note_on,87,0,0
1,note_on,82,38,0
1,note_on,86,45,0
1,note_on,86,0,240
1,note_on,82,0,0
1,note_on,86,51,0
1,note_on,79,39,0
1,note_on,86,0,120
1,note_on,87,55,0
1,note_on,87,0,120
1,note_on,79,0,0
1,note_on,77,45,0
1,note_on,89,59,0
1,note_on,77,0,240
1,note_on,82,45,0
1,note_on,89,0,120
1,note_on,91,57,0
1,note_on,91,0,120
1,note_on,82,0,0
1,note_on,79,42,0
1,note_on,89,55,0
1,note_on,89,0,120
1,note_on,87,47,0
1,note_on,79,0,120
1,note_on,81,43,0
1,note_on,87,0,120
1,note_on,89,50,0
1,note_on,89,0,120
1,note_on,81,0,0
1,note_on,87,57,0
1,note_on,77,44,0
1,note_on,87,0,120
1,note_on,86,49,0
1,note_on,77,0,120
1,note_on,82,46,0
1,note_on,86,0,120
1,note_on,87,53,0
1,note_on,87,0,120
1,note_on,86,60,0
1,note_on,86,0,120
1,note_on,84,49,0
1,note_on,84,0,120
1,note_on,82,0,0
1,note_on,77,47,0
1,note_on,86,55,0
1,note_on,81,47,0
1,note_on,86,0,120
1,note_on,87,51,0
1,note_on,87,0,120
1,note_on,81,0,0
1,note_on,77,0,0
1,note_on,91,67,0
1,note_on,77,52,0
1,note_on,82,52,0
1,note_on,91,0,120
1,note_on,89,53,0
1,note_on,89,0,120
1,note_on,82,0,0
1,note_on,77,0,0
1,note_on,82,41,0
1,note_on,91,58,0
1,note_on,91,0,120
1,note_on,89,59,0
1,note_on,89,0,118
1,note_on,82,0,2
1,note_on,79,53,0
1,note_on,89,69,0
1,note_on,89,0,120
1,note_on,87,55,0
1,note_on,87,0,120
1,note_on,79,0,0
1,note_on,89,61,0
1,note_on,81,43,0
1,note_on,89,0,120
1,note_on,87,56,0
1,note_on,87,0,120
1,note_on,81,0,0
1,note_on,77,57,0
1,note_on,87,74,0
1,note_on,87,0,120
1,note_on,86,57,0
1,note_on,86,0,120
1,note_on,77,0,0
1,note_on,82,45,0
1,note_on,87,63,0
1,note_on,87,0,120
1,note_on,86,58,0
1,note_on,86,0,118
1,note_on,86,75,2
1,note_on,86,0,120
1,note_on,84,61,0
1,note_on,84,0,120
1,note_on,82,0,0
1,note_on,86,67,0
1,note_on,81,47,0
1,note_on,77,47,0
1,note_on,86,0,120
1,note_on,87,70,0
1,note_on,87,0,120
1,note_on,77,0,0
1,note_on,81,0,0
1,note_on,82,58,0
1,note_on,91,69,0
1,note_on,77,58,0
1,note_on,91,0,120
1,note_on,89,70,0
1,note_on,89,0,120
1,note_on,77,0,0
1,note_on,82,0,0
1,note_on,82,60,0
1,note_on,88,76,0
1,note_on,91,72,120
1,note_on,88,0,120
1,note_on,82,0,0
1,note_on,87,67,0
1,note_on,91,0,120
1,note_on,92,74,0
1,note_on,87,0,120
1,note_on,87,76,0
1,note_on,84,64,0
1,note_on,92,0,120
1,note_on,93,77,0
1,note_on,93,0,120
1,note_on,84,0,0
1,note_on,87,0,0
1,note_on,86,73,0
1,note_on,82,73,0
1,note_on,96,86,0
1,note_on,96,0,120
1,note_on,94,72,0
1,note_on,94,0,120
1,note_on,82,0,0
1,note_on,86,0,0
1,note_on,93,84,0
1,note_on,82,71,0
1,note_on,87,71,0
1,note_on,93,0,120
1,note_on,91,74,0
1,note_on,91,0,120
1,note_on,87,0,0
1,note_on,82,0,0
1,note_on,89,86,0
1,note_on,86,72,0
1,note_on,82,72,0
1,note_on,82,0,120
1,note_on,86,0,0
1,note_on,89,0,0
1,note_on,93,80,120
1,note_on,84,67,0
1,note_on,89,80,0
1,note_on,81,67,0
1,note_on,81,0,120
1,note_on,93,0,0
1,note_on,84,0,0
1,note_on,89,0,0
1,note_on,94,101,120
1,note_on,86,85,0
1,note_on,89,85,0
1,note_on,82,85,0
1,note_on,82,0,480
1,note_on,94,0,0
1,note_on,86,0,0
1,note_on,89,0,0
1,note_on,74,63,0
1,note_on,70,63,0
1,note_on,82,75,0
1,note_on,82,0,480
1,note_on,70,0,0
1,note_on,74,0,0
1,note_on,74,50,0
1,note_on,77,50,0
1,note_on,86,59,0
1,note_on,86,0,60
1,note_on,77,0,0
1,note_on,74,0,0
1,note_on,82,61,180
1,note_on,74,51,0
1,note_on,70,51,0
1,note_on,70,0,60
1,note_on,74,0,0
1,note_on,82,0,0
1,note_on,77,51,180
1,note_on,74,51,0
1,note_on,86,61,0
1,note_on,86,0,60
1,note_on,74,0,0
1,note_on,77,0,0
1,note_on,72,51,180
1,note_on,84,61,0
1,note_on,75,51,0
1,note_on,75,0,60
1,note_on,84,0,0
1,note_on,72,0,0
1,note_on,75,97,180
1,note_on,79,97,0
1,note_on,87,116,0
1,note_on,87,0,480
1,note_on,79,0,0
1,note_on,75,0,0
1,note_on,84,75,0
1,note_on,75,63,0
1,note_on,72,63,0
1,note_on,72,0,480
1,note_on,75,0,0
1,note_on,84,0,0
1,note_on,87,59,0
1,note_on,75,50,0
1,note_on,79,50,0
1,note_on,79,0,60
1,note_on,75,0,0
1,note_on,87,0,0
1,note_on,73,51,180
1,note_on,76,51,0
1,note_on,85,61,0
1,note_on,85,0,60
1,note_on,76,0,0
1,note_on,73,0,0
1,note_on,87,61,180
1,note_on,75,51,0
1,note_on,78,51,0
1,note_on,78,0,60
1,note_on,75,0,0
1,note_on,87,0,0
1,note_on,86,61,180
1,note_on,77,51,0
1,note_on,74,51,0
1,note_on,74,0,60
1,note_on,77,0,0
1,note_on,86,0,0
1,note_on,89,111,180
1,note_on,80,93,0
1,note_on,77,93,0
1,note_on,77,0,480
1,note_on,80,0,0
1,note_on,89,0,0
1,note_on,74,63,0
1,note_on,86,75,0
1,note_on,77,63,0
1,note_on,77,0,480
1,note_on,86,0,0
1,note_on,74,0,0
1,note_on,80,50,0
1,note_on,77,50,0
1,note_on,89,59,0
1,note_on,89,0,60
1,note_on,77,0,0
1,note_on,80,0,0
1,note_on,86,61,180
1,note_on,74,51,0
1,note_on,78,51,0
1,note_on,78,0,60
1,note_on,74,0,0
1,note_on,86,0,0
1,note_on,89,61,180
1,note_on,80,51,0
1,note_on,77,51,0
1,note_on,77,0,60
1,note_on,80,0,0
1,note_on,89,0,0
1,note_on,87,61,180
1,note_on,75,51,0
1,note_on,79,51,0
1,note_on,79,0,60
1,note_on,75,0,0
1,note_on,87,0,0
1,note_on,79,93,180
1,note_on,82,93,0
1,note_on,91,111,0
1,note_on,91,0,480
1,note_on,82,0,0
1,note_on,79,0,0
1,note_on,75,63,0
1,note_on,79,63,0
1,note_on,82,63,0
1,note_on,87,75,0
1,note_on,87,0,480
1,note_on,75,0,0
1,note_on,79,0,0
1,note_on,82,0,0
1,note_on,82,50,0
1,note_on,79,50,0
1,note_on,91,59,0
1,note_on,91,0,60
1,note_on,79,0,0
1,note_on,82,0,0
1,note_on,82,51,180
1,note_on,88,61,0
1,note_on,76,51,0
1,note_on,76,0,60
1,note_on,88,0,0
1,note_on,82,0,0
1,note_on,78,56,180
1,note_on,82,56,0
1,note_on,90,67,0
1,note_on,90,0,60
1,note_on,82,0,0
1,note_on,78,0,0
1,note_on,82,58,180
1,note_on,89,69,0
1,note_on,77,58,0
1,note_on,77,0,60
1,note_on,89,0,0
1,note_on,82,0,0
1,note_on,80,59,180
1,note_on,82,59,0
1,note_on,92,69,0
1,note_on,92,0,60
1,note_on,82,0,0
1,note_on,80,0,0
1,note_on,78,62,180
1,note_on,82,62,0
1,note_on,90,74,0
1,note_on,90,0,60
1,note_on,82,0,0
1,note_on,78,0,0
1,note_on,80,64,180
1,note_on,82,64,0
1,note_on,92,76,0
1,note_on,92,0,60
1,note_on,82,0,0
1,note_on,80,0,0
1,note_on,91,79,180
1,note_on,82,66,0
1,note_on,79,66,0
1,note_on,79,0,60
1,note_on,82,0,0
1,note_on,91,0,0
1,note_on,91,67,180
1,note_on,82,67,0
1,note_on,94,79,0
1,note_on,87,67,0
1,note_on,87,0,60
1,note_on,91,0,0
1,note_on,82,0,0
1,note_on,94,0,0
1,note_on,92,84,180
1,note_on,80,70,0
1,note_on,80,0,60
1,note_on,92,0,0
1,note_on,82,72,180
1,note_on,94,86,0
1,note_on,94,0,60
1,note_on,82,0,0
1,note_on,93,89,180
1,note_on,81,74,0
1,note_on,81,0,60
1,note_on,93,0,0
1,note_on,84,84,180
1,note_on,96,99,0
1,note_on,96,0,120
1,note_on,84,0,0
1,note_on,94,88,120
1,note_on,82,74,0
1,note_on,82,0,120
1,note_on,94,0,0
1,note_on,91,97,120
1,note_on,79,82,0
1,note_on,79,0,120
1,note_on,91,0,0
1,note_on,77,76,120
1,note_on,89,90,0
1,note_on,89,0,120
1,note_on,77,0,0
1,note_on,75,85,120
1,note_on,87,97,0
1,note_on,87,0,120
1,note_on,75,0,0
1,note_on,86,82,120
1,note_on,74,69,0
1,note_on,74,0,120
1,note_on,86,0,0
1,note_on,72,73,120
1,note_on,84,87,0
1,note_on,84,0,120
1,note_on,72,0,0
1,note_on,82,81,120
1,note_on,70,68,0
1,note_on,70,0,120
1,note_on,82,0,0
1,note_on,79,89,120
1,note_on,67,75,0
1,note_on,67,0,120
1,note_on,79,0,0
1,note_on,77,79,120
1,note_on,65,66,0
1,note_on,65,0,120
1,note_on,77,0,0
1,note_on,63,69,120
1,note_on,75,82,0
1,note_on,75,0,120
1,note_on,63,0,0
1,note_on,62,64,120
1,note_on,74,76,0
1,note_on,74,0,120
1,note_on,62,0,0
1,note_on,60,67,120
1,note_on,72,80,0
1,note_on,72,0,120
1,note_on,60,0,0
1,note_on,70,71,120
1,note_on,58,59,0
1,note_on,58,0,120
1,note_on,70,0,0
1,note_on,67,78,120
1,note_on,55,65,0
1,note_on,55,0,120
1,note_on,67,0,0
1,note_on,65,72,120
1,note_on,53,61,0
1,note_on,53,0,120
1,note_on,65,0,0
1,note_on,69,77,120
1,note_on,69,0,240
1,note_on,65,67,0
1,note_on,65,0,240
1,note_on,72,73,0
1,note_on,72,0,240
1,note_on,65,67,0
1,note_on,65,0,240
1,note_on,77,71,0
1,note_on,77,0,240
1,note_on,65,59,0
1,note_on,65,0,240
1,note_on,81,68,0
1,note_on,81,0,240
1,note_on,65,56,0
1,note_on,65,0,240
1,note_on,84,62,0
1,note_on,84,0,240
1,note_on,65,49,0
1,note_on,65,0,240
1,note_on,89,54,0
1,note_on,89,0,240
1,note_on,65,45,0
1,note_on,65,0,240
1,note_on,89,52,0
1,note_on,89,0,240
1,note_on,65,41,0
1,note_on,65,0,240
1,note_on,89,48,0
1,note_on,89,0,240
1,note_on,82,77,600
1,note_on,86,92,0
1,note_on,77,77,0
1,note_on,74,77,0
1,note_on,74,0,120
1,note_on,82,0,0
1,note_on,86,0,0
1,note_on,77,0,0
1,note_on,82,69,0
1,note_on,77,69,0
1,note_on,86,82,0
1,note_on,74,69,0
1,note_on,74,0,240
1,note_on,82,0,0
1,note_on,77,0,0
1,note_on,86,0,0
1,note_on,82,70,0
1,note_on,77,70,0
1,note_on,87,89,0
1,note_on,74,70,0
1,note_on,74,0,45
1,note_on,82,0,0
1,note_on,77,0,0
1,note_on,87,0,0
1,note_on,82,72,75
1,note_on,74,72,0
1,note_on,77,72,0
1,note_on,86,85,0
1,note_on,86,0,45
1,note_on,82,0,0
1,note_on,74,0,0
1,note_on,77,0,0
1,note_on,82,77,75
1,note_on,74,77,0
1,note_on,77,77,0
1,note_on,86,92,0
1,note_on,86,0,120
1,note_on,82,0,0
1,note_on,74,0,0
1,note_on,77,0,0
1,note_on,82,84,120
1,note_on,74,70,0
1,note_on,77,70,0
1,note_on,70,70,0
1,note_on,70,0,120
1,note_on,82,0,0
1,note_on,74,0,0
1,note_on,77,0,0
1,note_on,77,77,960
1,note_on,86,92,0
1,note_on,82,77,0
1,note_on,74,77,7
1,note_on,82,0,113
1,note_on,77,0,0
1,note_on,86,0,0
1,note_on,86,99,0
1,note_on,74,82,0
1,note_on,74,0,7
1,note_on,74,0,233
1,note_on,86,0,0
1,note_on,81,70,0
1,note_on,74,70,0
1,note_on,78,70,0
1,note_on,86,84,0
1,note_on,86,0,45
1,note_on,81,0,0
1,note_on,74,0,0
1,note_on,78,0,0
1,note_on,86,85,75
1,note_on,78,70,0
1,note_on,74,72,0
1,note_on,81,72,0
1,note_on,81,0,45
1,note_on,86,0,0
1,note_on,78,0,0
1,note_on,74,0,0
1,note_on,81,77,75
1,note_on,86,92,0
1,note_on,74,77,0
1,note_on,78,77,0
1,note_on,78,0,120
1,note_on,81,0,0
1,note_on,86,0,0
1,note_on,74,0,0
1,note_on,86,84,120
1,note_on,81,70,0
1,note_on,74,70,0
1,note_on,78,70,0
1,note_on,78,0,120
1,note_on,86,0,0
1,note_on,81,0,0
1,note_on,74,0,0
1,note_on,66,33,840
1,note_on,74,39,0
1,note_on,69,33,0
1,note_on,69,0,120
1,note_on,74,0,0
1,note_on,66,0,0
1,note_on,66,35,360
1,note_on,69,35,0
1,note_on,74,42,0
1,note_on,74,0,120
1,note_on,69,0,0
1,note_on,66,0,0
1,note_on,69,37,360
1,note_on,66,37,0
1,note_on,74,44,0
1,note_on,74,0,120
1,note_on,66,0,0
1,note_on,69,0,0
1,note_on,66,39,360
1,note_on,69,39,0
1,note_on,74,46,0
1,note_on,74,0,120
1,note_on,69,0,0
1,note_on,66,0,0
1,note_on,74,41,360
1,note_on,72,41,0
1,note_on,78,49,0
1,note_on,69,41,0
1,note_on,69,0,120
1,note_on,74,0,0
1,note_on,72,0,0
1,note_on,78,0,0
1,note_on,69,43,360
1,note_on,78,51,0
1,note_on,72,43,0
1,note_on,74,43,0
1,note_on,74,0,120
1,note_on,69,0,0
1,note_on,78,0,0
1,note_on,72,0,0
1,note_on,69,50,360
1,note_on,72,50,0
1,note_on,81,60,0
1,note_on,78,50,0
1,note_on,78,0,120
1,note_on,69,0,0
1,note_on,72,0,0
1,note_on,81,0,0
1,note_on,78,57,360
1,note_on,84,68,0
1,note_on,72,57,0
1,note_on,81,57,0
1,note_on,81,0,120
1,note_on,78,0,0
1,note_on,84,0,0
1,note_on,72,0,0
1,note_on,84,64,360
1,note_on,78,64,0
1,note_on,90,75,0
1,note_on,81,64,0
1,note_on,81,0,120
1,note_on,84,0,0
1,note_on,78,0,0
1,note_on,90,0,0
1,note_on,84,66,360
1,note_on,81,66,0
1,note_on,93,79,0
1,note_on,93,0,120
1,note_on,81,0,0
1,note_on,84,0,0
1,note_on,93,69,360
1,note_on,84,69,0
1,note_on,96,82,0
1,note_on,96,0,120
1,note_on,84,0,0
1,note_on,93,0,0
1,note_on,84,71,360
1,note_on,96,85,0
1,note_on,90,71,0
1,note_on,93,71,0
1,note_on,93,0,120
1,note_on,84,0,0
1,note_on,96,0,0
1,note_on,90,0,0
1,note_on,93,71,120
1,note_on,96,85,0
1,note_on,84,71,0
1,note_on,90,71,0
1,note_on,90,0,120
1,note_on,93,0,0
1,note_on,96,0,0
1,note_on,84,0,0
1,note_on,84,57,120
1,note_on,81,57,0
1,note_on,81,0,120
1,note_on,84,0,0
1,note_on,80,57,0
1,note_on,83,57,0
1,note_on,83,0,120
1,note_on,80,0,0
1,note_on,81,63,0
1,note_on,84,63,0
1,note_on,84,0,240
1,note_on,81,0,0
1,note_on,66,52,0
1,note_on,69,52,0
1,note_on,69,0,120
1,note_on,66,0,0
1,note_on,70,52,0
1,note_on,67,52,0
1,note_on,67,0,120
1,note_on,70,0,0
1,note_on,69,58,0
1,note_on,66,58,0
1,note_on,66,0,240
1,note_on,69,0,0
1,note_on,84,47,0
1,note_on,81,47,0
1,note_on,81,0,120
1,note_on,84,0,0
1,note_on,80,47,0
1,note_on,83,47,0
1,note_on,83,0,120
1,note_on,80,0,0
1,note_on,81,56,0
1,note_on,84,56,0
1,note_on,84,0,240
1,note_on,81,0,0
1,note_on,90,47,0
1,note_on,90,0,120
1,note_on,93,47,0
1,note_on,93,0,120
1,note_on,96,57,0
1,note_on,96,0,120
1,note_on,98,48,0
1,note_on,98,0,120
1,note_on,96,49,0
1,note_on,96,0,120
1,note_on,95,50,0
1,note_on,95,0,120
1,note_on,96,65,0
1,note_on,96,0,120
1,note_on,98,57,0
1,note_on,98,0,120
1,note_on,100,66,0
1,note_on,100,0,120
1,note_on,96,58,0
1,note_on,96,0,120
1,note_on,93,69,0
1,note_on,93,0,120
1,note_on,95,56,0
1,note_on,95,0,120
1,note_on,96,66,0
1,note_on,96,0,120
1,note_on,93,54,0
1,note_on,93,0,120
1,note_on,90,66,0
1,note_on,90,0,120
1,note_on,91,53,0
1,note_on,91,0,120
1,note_on,93,61,0
1,note_on,93,0,120
1,note_on,90,53,0
1,note_on,90,0,120
1,note_on,84,47,0
1,note_on,84,0,120
1,note_on,86,47,0
1,note_on,86,0,120
1,note_on,88,58,0
1,note_on,88,0,120
1,note_on,84,47,0
1,note_on,84,0,120
1,note_on,81,47,0
1,note_on,81,0,120
1,note_on,83,47,0
1,note_on,83,0,120
1,note_on,84,53,0
1,note_on,84,0,120
1,note_on,81,47,0
1,note_on,81,0,120
1,note_on,78,47,0
1,note_on,78,0,120
1,note_on,79,47,0
1,note_on,79,0,120
1,note_on,81,52,0
1,note_on,81,0,120
1,note_on,78,47,0
1,note_on,78,0,120
1,note_on,72,47,0
1,note_on,69,47,0
1,note_on,74,47,0
1,note_on,74,0,240
1,note_on,69,0,0
1,note_on,72,0,0
1,note_on,95,57,240
1,note_on,95,0,120
1,note_on,96,48,0
1,note_on,96,0,120
1,note_on,95,49,0
1,note_on,95,0,120
1,note_on,93,50,0
1,note_on,93,0,120
1,note_on,95,65,0
1,note_on,95,0,120
1,note_on,96,57,0
1,note_on,96,0,120
1,note_on,98,66,0
1,note_on,98,0,120
1,note_on,95,58,0
1,note_on,95,0,120
1,note_on,91,69,0
1,note_on,91,0,120
1,note_on,93,56,0
1,note_on,93,0,120
1,note_on,95,66,0
1,note_on,95,0,120
1,note_on,91,54,0
1,note_on,91,0,120
1,note_on,86,66,0
1,note_on,86,0,120
1,note_on,90,53,0
1,note_on,90,0,120
1,note_on,91,61,0
1,note_on,91,0,120
1,note_on,86,53,0
1,note_on,86,0,120
1,note_on,83,47,0
1,note_on,83,0,120
1,note_on,84,47,0
1,note_on,84,0,120
1,note_on,86,58,0
1,note_on,86,0,120
1,note_on,83,47,0
1,note_on,83,0,120
1,note_on,79,47,0
1,note_on,79,0,120
1,note_on,81,47,0
1,note_on,81,0,120
1,note_on,83,53,0
1,note_on,83,0,120
1,note_on,79,47,0
1,note_on,79,0,120
1,note_on,74,47,0
1,note_on,74,0,120
1,note_on,78,47,0
1,note_on,78,0,120
1,note_on,79,52,0
1,note_on,79,0,120
1,note_on,71,47,0
1,note_on,71,0,120
1,note_on,67,40,0
1,note_on,67,0,120
1,note_on,69,40,0
1,note_on,69,0,120
1,note_on,71,45,0
1,note_on,71,0,118
1,note_on,67,40,2
1,note_on,67,0,120
1,note_on,66,40,0
1,note_on,69,46,0
1,note_on,62,40,0
1,note_on,62,0,240
1,note_on,69,0,0
1,note_on,66,0,0
1,note_on,88,52,0
1,note_on,88,0,120
1,note_on,86,47,0
1,note_on,86,0,120
1,note_on,88,40,0
1,note_on,88,0,120
1,note_on,86,40,0
1,note_on,86,0,120
1,note_on,84,45,0
1,note_on,84,0,120
1,note_on,88,40,0
1,note_on,88,0,120
1,note_on,84,52,0
1,note_on,84,0,120
1,note_on,83,42,0
1,note_on,83,0,120
1,note_on,81,49,0
1,note_on,81,0,120
1,note_on,84,43,0
1,note_on,84,0,120
1,note_on,81,48,0
1,note_on,81,0,120
1,note_on,79,40,0
1,note_on,79,0,120
1,note_on,78,45,0
1,note_on,78,0,120
1,note_on,81,40,0
1,note_on,81,0,120
1,note_on,76,52,0
1,note_on,76,0,120
1,note_on,74,42,0
1,note_on,74,0,120
1,note_on,72,49,0
1,note_on,72,0,120
1,note_on,76,43,0
1,note_on,76,0,120
1,note_on,72,48,0
1,note_on,72,0,120
1,note_on,71,40,0
1,note_on,71,0,120
1,note_on,69,45,0
1,note_on,69,0,120
1,note_on,72,40,0
1,note_on,72,0,120
1,note_on,69,52,0
1,note_on,69,0,120
1,note_on,67,42,0
1,note_on,67,0,120
1,note_on,66,49,0
1,note_on,66,0,120
1,note_on,69,43,0
1,note_on,69,0,120
1,note_on,72,48,0
1,note_on,72,0,120
1,note_on,71,40,0
1,note_on,71,0,120
1,note_on,69,45,0
1,note_on,69,0,120
1,note_on,72,40,0
1,note_on,72,0,120
1,note_on,62,40,0
1,note_on,67,46,0
1,note_on,67,0,240
1,note_on,62,0,0
1,note_on,98,52,0
1,note_on,98,0,120
1,note_on,96,47,0
1,note_on,96,0,120
1,note_on,98,40,0
1,note_on,98,0,120
1,note_on,96,40,0
1,note_on,96,0,120
1,note_on,95,45,0
1,note_on,95,0,120
1,note_on,98,40,0
1,note_on,98,0,120
1,note_on,95,52,0
1,note_on,95,0,120
1,note_on,93,42,0
1,note_on,93,0,120
1,note_on,91,49,0
1,note_on,91,0,120
1,note_on,95,43,0
1,note_on,95,0,120
1,note_on,83,48,0
1,note_on,83,0,120
1,note_on,81,40,0
1,note_on,81,0,120
1,note_on,79,45,0
1,note_on,79,0,120
1,note_on,83,40,0
1,note_on,83,0,120
1,note_on,74,52,0
1,note_on,74,0,120
1,note_on,72,42,0
1,note_on,72,0,120
1,note_on,71,49,0
1,note_on,71,0,120
1,note_on,74,43,0
1,note_on,74,0,120
1,note_on,83,48,0
1,note_on,83,0,120
1,note_on,81,40,0
1,note_on,81,0,120
1,note_on,79,45,0
1,note_on,79,0,120
1,note_on,83,40,0
1,note_on,83,0,120
1,note_on,86,62,0
1,note_on,86,0,120
1,note_on,84,51,0
1,note_on,84,0,120
1,note_on,83,61,0
1,note_on,83,0,120
1,note_on,84,52,0
1,note_on,84,0,120
1,note_on,88,62,0
1,note_on,88,0,240
1,note_on,86,51,0
1,note_on,81,51,0
1,note_on,90,51,0
1,note_on,90,0,240
1,note_on,81,0,0
1,note_on,86,0,0
1,note_on,79,51,0
1,note_on,91,51,0
1,note_on,86,51,0
1,note_on,86,0,240
1,note_on,91,0,0
1,note_on,79,0,0
1,note_on,69,40,960
1,note_on,66,34,0
1,note_on,66,0,240
1,note_on,69,0,0
1,note_on,67,32,0
1,note_on,71,38,0
1,note_on,71,0,120
1,note_on,67,0,0
1,note_on,91,47,120
1,note_on,83,39,0
1,note_on,83,0,120
1,note_on,91,0,0
1,note_on,90,44,0
1,note_on,81,37,0
1,note_on,81,0,120
1,note_on,90,0,0
1,note_on,83,39,0
1,note_on,91,47,0
1,note_on,91,0,240
1,note_on,83,0,0
1,note_on,79,33,0
1,note_on,83,33,0
1,note_on,88,39,0
1,note_on,88,0,240
1,note_on,83,0,0
1,note_on,79,0,0
1,note_on,81,35,0
1,note_on,86,42,0
1,note_on,78,35,0
1,note_on,78,0,240
1,note_on,86,0,0
1,note_on,81,0,0
1,note_on,79,30,0
1,note_on,76,30,0
1,note_on,85,40,0
1,note_on,85,0,240
1,note_on,76,0,0
1,note_on,79,0,0
1,note_on,88,45,0
1,note_on,79,38,0
1,note_on,79,0,240
1,note_on,88,0,0
1,note_on,86,36,0
1,note_on,78,30,0
1,note_on,78,0,238
1,note_on,86,0,0
1,note_on,78,30,2
1,note_on,86,36,0
1,note_on,86,0,240
1,note_on,78,0,0
1,note_on,79,38,0
1,note_on,86,45,0
1,note_on,86,0,120
1,note_on,79,0,0
1,note_on,81,34,0
1,note_on,84,40,0
1,note_on,84,0,120
1,note_on,81,0,0
1,note_on,83,46,0
1,note_on,83,0,240
1,note_on,91,51,0
1,note_on,79,43,0
1,note_on,91,0,120
1,note_on,88,46,120
1,note_on,88,0,120
1,note_on,79,0,0
1,note_on,96,51,120
1,note_on,84,43,0
1,note_on,84,0,120
1,note_on,96,0,0
1,note_on,88,37,0
1,note_on,93,44,0
1,note_on,93,0,120
1,note_on,88,0,0
1,note_on,90,51,0
1,note_on,90,0,240
1,note_on,86,47,0
1,note_on,98,56,0
1,note_on,98,0,240
1,note_on,95,53,0
1,note_on,95,0,120
1,note_on,86,0,0
1,note_on,91,52,120
1,note_on,91,0,120
1,note_on,90,45,0
1,note_on,90,0,120
1,note_on,91,52,0
1,note_on,91,0,240
1,note_on,88,47,0
1,note_on,88,0,240
1,note_on,84,51,0
1,note_on,84,0,240
1,note_on,78,37,0
1,note_on,83,44,0
1,note_on,83,0,240
1,note_on,78,0,0
1,note_on,78,44,0
1,note_on,83,44,0
1,note_on,78,0,240
1,note_on,81,50,0
1,note_on,81,0,120
1,note_on,79,44,0
1,note_on,79,0,118
1,note_on,79,49,2
1,note_on,79,0,240
1,note_on,83,0,0
1,note_on,82,46,0
1,note_on,88,55,0
1,note_on,79,46,0
1,note_on,88,0,240
1,note_on,82,0,0
1,note_on,81,44,0
1,note_on,79,0,240
1,note_on,79,50,0
1,note_on,79,0,120
1,note_on,77,44,0
1,note_on,77,0,120
1,note_on,77,49,0
1,note_on,77,0,240
1,note_on,81,0,0
1,note_on,77,55,0
1,note_on,86,55,0
1,note_on,80,55,0
1,note_on,80,0,240
1,note_on,86,0,0
1,note_on,79,44,0
1,note_on,77,0,240
1,note_on,77,50,0
1,note_on,77,0,120
1,note_on,76,44,0
1,note_on,76,0,118
1,note_on,76,49,2
1,note_on,76,0,240
1,note_on,79,0,0
1,note_on,79,46,0
1,note_on,76,46,0
1,note_on,85,55,0
1,note_on,85,0,240
1,note_on,79,0,0
1,note_on,78,44,0
1,note_on,76,0,240
1,note_on,76,50,0
1,note_on,76,0,120
1,note_on,75,44,0
1,note_on,75,0,120
1,note_on,74,49,0
1,note_on,74,0,240
1,note_on,78,0,0
1,note_on,77,46,0
1,note_on,83,55,0
1,note_on,74,46,0
1,note_on,74,0,240
1,note_on,83,0,0
1,note_on,77,0,0
1,note_on,77,55,0
1,note_on,74,46,0
1,note_on,77,0,120
1,note_on,76,46,0
1,note_on,74,0,120
1,note_on,73,46,0
1,note_on,76,0,120
1,note_on,81,48,0
1,note_on,81,0,120
1,note_on,73,0,0
1,note_on,75,55,0
1,note_on,72,46,0
1,note_on,75,0,120
1,note_on,74,47,0
1,note_on,72,0,120
1,note_on,71,46,0
1,note_on,74,0,120
1,note_on,79,49,0
1,note_on,79,0,120
1,note_on,71,0,0
1,note_on,74,56,0
1,note_on,74,0,120
1,note_on,86,44,0
1,note_on,86,0,120
1,note_on,85,45,0
1,note_on,85,0,120
1,note_on,84,46,0
1,note_on,84,0,120
1,note_on,81,47,0
1,note_on,81,0,120
1,note_on,78,47,0
1,note_on,78,0,120
1,note_on,75,48,0
1,note_on,75,0,120
1,note_on,74,49,0
1,note_on,74,0,120
1,note_on,73,50,0
1,note_on,73,0,120
1,note_on,72,51,0
1,note_on,72,0,120
1,note_on,69,52,0
1,note_on,69,0,120
1,note_on,66,53,0
1,note_on,66,0,120
1,note_on,67,51,0
1,note_on,63,61,0
1,note_on,63,0,120
1,note_on,62,47,0
1,note_on,62,0,120
1,note_on,67,0,0
1,note_on,67,49,0
1,note_on,76,58,0
1,note_on,76,0,120
1,note_on,74,47,0
1,note_on,74,0,120
1,note_on,67,0,0
1,note_on,74,56,0
1,note_on,74,0,120
1,note_on,86,44,0
1,note_on,86,0,120
1,note_on,85,45,0
1,note_on,85,0,120
1,note_on,84,46,0
1,note_on,84,0,120
1,note_on,81,47,0
1,note_on,81,0,120
1,note_on,78,47,0
1,note_on,78,0,120
1,note_on,75,48,0
1,note_on,75,0,120
1,note_on,74,49,0
1,note_on,74,0,120
1,note_on,73,50,0
1,note_on,73,0,120
1,note_on,72,51,0
1,note_on,72,0,120
1,note_on,69,52,0
1,note_on,69,0,120
1,note_on,66,53,0
1,note_on,66,0,120
1,note_on,67,51,0
1,note_on,63,61,0
1,note_on,63,0,120
1,note_on,62,47,0
1,note_on,62,0,120
1,note_on,67,0,0
1,note_on,67,49,0
1,note_on,76,58,0
1,note_on,76,0,120
1,note_on,74,47,0
1,note_on,74,0,120
1,note_on,67,0,0
1,note_on,74,52,0
1,note_on,74,0,120
1,note_on,71,45,0
1,note_on,79,54,0
1,note_on,79,0,120
1,note_on,71,0,0
1,note_on,83,58,0
1,note_on,74,49,0
1,note_on,74,0,120
1,note_on,83,0,0
1,note_on,72,44,0
1,note_on,81,52,0
1,note_on,81,0,120
1,note_on,72,0,0
1,note_on,71,58,0
1,note_on,79,58,0
1,note_on,71,0,120
1,note_on,75,50,0
1,note_on,75,0,120
1,note_on,76,55,0
1,note_on,76,0,120
1,note_on,71,50,0
1,note_on,71,0,120
1,note_on,70,54,0
1,note_on,70,0,120
1,note_on,75,58,0
1,note_on,75,0,120
1,note_on,76,58,0
1,note_on,76,0,120
1,note_on,70,53,0
1,note_on,70,0,120
1,note_on,79,0,0
1,note_on,69,56,0
1,note_on,69,0,120
1,note_on,73,50,0
1,note_on,73,0,120
1,note_on,74,60,0
1,note_on,74,0,120
1,note_on,86,54,0
1,note_on,86,0,120
1,note_on,86,61,0
1,note_on,86,0,120
1,note_on,98,48,0
1,note_on,98,0,120
1,note_on,97,49,0
1,note_on,97,0,120
1,note_on,96,50,0
1,note_on,96,0,120
1,note_on,93,51,0
1,note_on,93,0,120
1,note_on,90,51,0
1,note_on,90,0,120
1,note_on,87,52,0
1,note_on,87,0,120
1,note_on,86,53,0
1,note_on,86,0,120
1,note_on,85,55,0
1,note_on,85,0,120
1,note_on,84,56,0
1,note_on,84,0,120
1,note_on,81,64,0
1,note_on,81,0,120
1,note_on,78,67,0
1,note_on,78,0,120
1,note_on,75,72,0
1,note_on,79,60,0
1,note_on,75,0,120
1,note_on,74,51,0
1,note_on,74,0,120
1,note_on,79,0,0
1,note_on,79,53,0
1,note_on,88,63,0
1,note_on,88,0,120
1,note_on,86,51,0
1,note_on,86,0,120
1,note_on,79,0,0
1,note_on,86,61,0
1,note_on,86,0,120
1,note_on,98,48,0
1,note_on,98,0,120
1,note_on,97,49,0
1,note_on,97,0,120
1,note_on,96,50,0
1,note_on,96,0,120
1,note_on,93,51,0
1,note_on,93,0,120
1,note_on,90,51,0
1,note_on,90,0,120
1,note_on,87,52,0
1,note_on,87,0,120
1,note_on,86,53,0
1,note_on,86,0,120
1,note_on,85,57,0
1,note_on,85,0,120
1,note_on,84,53,0
1,note_on,84,0,120
1,note_on,81,61,0
1,note_on,81,0,120
1,note_on,78,63,0
1,note_on,78,0,120
1,note_on,75,67,0
1,note_on,79,54,0
1,note_on,75,0,120
1,note_on,74,51,0
1,note_on,74,0,120
1,note_on,79,0,0
1,note_on,88,63,0
1,note_on,79,53,0
1,note_on,88,0,120
1,note_on,86,51,0
1,note_on,86,0,120
1,note_on,79,0,0
1,note_on,86,56,0
1,note_on,86,0,120
1,note_on,79,54,0
1,note_on,71,45,0
1,note_on,71,0,120
1,note_on,79,0,0
1,note_on,74,49,0
1,note_on,83,58,0
1,note_on,83,0,120
1,note_on,74,0,0
1,note_on,72,44,0
1,note_on,81,52,0
1,note_on,81,0,120
1,note_on,72,0,0
1,note_on,79,58,0
1,note_on,71,58,0
1,note_on,71,0,120
1,note_on,75,50,0
1,note_on,75,0,120
1,note_on,76,55,0
1,note_on,76,0,120
1,note_on,71,50,0
1,note_on,71,0,120
1,note_on,70,54,0
1,note_on,70,0,120
1,note_on,75,58,0
1,note_on,75,0,120
1,note_on,76,58,0
1,note_on,76,0,120
1,note_on,70,53,0
1,note_on,70,0,120
1,note_on,79,0,0
1,note_on,78,54,0
1,note_on,69,56,0
1,note_on,69,0,120
1,note_on,74,50,0
1,note_on,74,0,120
1,note_on,78,0,0
1,note_on,79,54,0
1,note_on,67,60,0
1,note_on,67,0,120
1,note_on,72,50,0
1,note_on,72,0,120
1,note_on,79,0,0
1,note_on,79,54,0
1,note_on,79,0,120
1,note_on,76,47,0
1,note_on,84,57,0
1,note_on,84,0,120
1,note_on,76,0,0
1,note_on,79,52,0
1,note_on,88,62,0
1,note_on,88,0,120
1,note_on,79,0,0
1,note_on,86,56,0
1,note_on,77,47,0
1,note_on,77,0,120
1,note_on,86,0,0
1,note_on,84,63,0
1,note_on,76,63,0
1,note_on,76,0,120
1,note_on,80,55,0
1,note_on,80,0,120
1,note_on,81,61,0
1,note_on,81,0,120
1,note_on,75,56,0
1,note_on,75,0,120
1,note_on,75,61,0
1,note_on,75,0,120
1,note_on,80,66,0
1,note_on,80,0,120
1,note_on,81,66,0
1,note_on,81,0,120
1,note_on,75,62,0
1,note_on,75,0,120
1,note_on,84,0,0
1,note_on,83,63,0
1,note_on,74,66,0
1,note_on,74,0,120
1,note_on,79,59,0
1,note_on,79,0,120
1,note_on,83,0,0
1,note_on,72,72,0
1,note_on,84,64,0
1,note_on,72,0,120
1,note_on,77,60,0
1,note_on,77,0,120
1,note_on,84,0,0
1,note_on,84,63,0
1,note_on,84,0,120
1,note_on,81,55,0
1,note_on,89,66,0
1,note_on,89,0,120
1,note_on,81,0,0
1,note_on,93,71,0
1,note_on,84,60,0
1,note_on,84,0,120
1,note_on,93,0,0
1,note_on,91,65,0
1,note_on,82,55,0
1,note_on,82,0,120
1,note_on,91,0,0
1,note_on,89,73,0
1,note_on,80,73,0
1,note_on,80,0,120
1,note_on,77,63,0
1,note_on,77,0,120
1,note_on,80,70,0
1,note_on,80,0,120
1,note_on,79,65,0
1,note_on,79,0,120
1,note_on,80,70,0
1,note_on,80,0,120
1,note_on,85,73,0
1,note_on,85,0,120
1,note_on,86,77,0
1,note_on,86,0,120
1,note_on,80,71,0
1,note_on,80,0,120
1,note_on,89,0,0
1,note_on,79,75,0
1,note_on,88,78,0
1,note_on,79,0,120
1,note_on,83,68,0
1,note_on,83,0,120
1,note_on,84,82,0
1,note_on,84,0,120
1,note_on,79,69,0
1,note_on,79,0,120
1,note_on,84,74,0
1,note_on,84,0,240
1,note_on,88,0,0
1,note_on,76,79,0
1,note_on,84,79,0
1,note_on,79,79,0
1,note_on,88,93,0
1,note_on,88,0,240
1,note_on,76,0,0
1,note_on,84,0,0
1,note_on,79,0,0
1,note_on,83,74,0
1,note_on,86,88,0
1,note_on,86,0,240
1,note_on,83,0,0
1,note_on,84,74,0
1,note_on,88,86,0
1,note_on,88,0,120
1,note_on,84,0,0
1,note_on,89,92,0
1,note_on,86,78,0
1,note_on,86,0,120
1,note_on,89,0,0
1,note_on,91,96,0
1,note_on,88,81,0
1,note_on,88,0,120
1,note_on,91,0,0
1,note_on,84,77,120
1,note_on,88,91,0
1,note_on,88,0,120
1,note_on,84,0,0
1,note_on,88,93,840
1,note_on,79,79,0
1,note_on,84,79,0
1,note_on,76,79,0
1,note_on,76,0,240
1,note_on,88,0,0
1,note_on,79,0,0
1,note_on,84,0,0
1,note_on,83,74,0
1,note_on,86,88,0
1,note_on,86,0,240
1,note_on,83,0,0
1,note_on,88,86,0
1,note_on,84,74,0
1,note_on,84,0,120
1,note_on,88,0,0
1,note_on,86,78,0
1,note_on,89,92,0
1,note_on,89,0,120
1,note_on,86,0,0
1,note_on,91,96,0
1,note_on,88,81,0
1,note_on,88,0,120
1,note_on,91,0,0
1,note_on,91,103,120
1,note_on,88,86,0
1,note_on,81,86,0
1,note_on,79,86,0
1,note_on,79,0,240
1,note_on,91,0,0
1,note_on,88,0,0
1,note_on,81,0,0
1,note_on,85,86,240
1,note_on,88,86,0
1,note_on,91,103,0
1,note_on,79,86,0
1,note_on,79,0,240
1,note_on,85,0,0
1,note_on,88,0,0
1,note_on,91,0,0
1,note_on,91,103,240
1,note_on,83,86,0
1,note_on,86,86,0
1,note_on,79,86,0
1,note_on,79,0,240
1,note_on,91,0,0
1,note_on,83,0,0
1,note_on,86,0,0
1,note_on,79,86,240
1,note_on,85,86,0
1,note_on,81,86,0
1,note_on,91,103,0
1,note_on,91,0,240
1,note_on,79,0,0
1,note_on,85,0,0
1,note_on,81,0,0
1,note_on,91,77,0
1,note_on,79,65,0
1,note_on,83,65,0
1,note_on,86,65,0
1,note_on,86,0,480
1,note_on,91,0,0
1,note_on,79,0,0
1,note_on,83,0,0
1,note_on,86,64,0
1,note_on,79,54,0
1,note_on,83,54,0
1,note_on,83,0,720
1,note_on,79,0,0
1,note_on,86,0,0
1,note_on,74,53,0
1,note_on,79,53,0
1,note_on,83,63,0
1,note_on,83,0,240
1,note_on,79,0,0
1,note_on,74,0,0
1,note_on,74,56,0
1,note_on,74,0,120
1,note_on,78,57,0
1,note_on,78,0,120
1,note_on,79,58,0
1,note_on,79,0,120
1,note_on,83,59,0
1,note_on,83,0,120
1,note_on,85,60,0
1,note_on,85,0,120
1,note_on,86,61,0
1,note_on,86,0,120
1,note_on,88,62,0
1,note_on,88,0,120
1,note_on,86,62,0
1,note_on,86,0,120
1,note_on,90,63,0
1,note_on,90,0,120
1,note_on,91,64,0
1,note_on,91,0,120
1,note_on,93,65,0
1,note_on,93,0,120
1,note_on,91,66,0
1,note_on,91,0,120
1,note_on,94,67,0
1,note_on,94,0,120
1,note_on,95,68,0
1,note_on,95,0,120
1,note_on,96,69,0
1,note_on,96,0,120
1,note_on,95,70,0
1,note_on,95,0,120
1,note_on,98,71,0
1,note_on,98,0,240
1,note_on,81,59,0
1,note_on,74,59,0
1,note_on,84,70,0
1,note_on,84,0,240
1,note_on,74,0,0
1,note_on,81,0,0
1,note_on,83,58,0
1,note_on,79,49,0
1,note_on,74,49,0
1,note_on,74,0,960
1,note_on,79,0,0
1,note_on,83,0,0
1,note_on,84,57,0
1,note_on,79,48,0
1,note_on,79,0,480
1,note_on,84,0,0
1,note_on,84,51,0
1,note_on,79,51,0
1,note_on,87,61,0
1,note_on,87,0,480
1,note_on,79,0,0
1,note_on,84,0,0
1,note_on,91,56,0
1,note_on,86,67,0
1,note_on,79,56,0
1,note_on,86,0,480
1,note_on,83,61,0
1,note_on,83,0,480
1,note_on,79,0,0
1,note_on,91,0,0
1,note_on,84,51,0
1,note_on,79,51,0
1,note_on,87,60,0
1,note_on,87,0,480
1,note_on,79,0,0
1,note_on,84,0,0
1,note_on,79,53,0
1,note_on,84,63,0
1,note_on,84,0,480
1,note_on,79,0,0
1,note_on,82,66,0
1,note_on,79,56,0
1,note_on,82,0,480
1,note_on,83,59,0
1,note_on,83,0,480
1,note_on,79,0,0
1,note_on,78,54,0
1,note_on,86,64,0
1,note_on,86,0,480
1,note_on,78,0,0
1,note_on,84,63,0
1,note_on,81,53,0
1,note_on,74,52,240
1,note_on,81,0,120
1,note_on,84,0,0
1,note_on,78,48,0
1,note_on,81,57,0
1,note_on,81,0,120
1,note_on,78,0,0
1,note_on,74,0,0
1,note_on,79,49,0
1,note_on,74,49,0
1,note_on,83,58,0
1,note_on,79,0,81
1,note_on,81,42,0
1,note_on,81,0,80
1,note_on,79,49,0
1,note_on,74,0,79
1,note_on,81,44,1
1,note_on,79,0,1
1,note_on,81,0,80
1,note_on,79,49,0
1,note_on,79,0,80
1,note_on,81,44,0
1,note_on,79,50,78
1,note_on,81,0,3
1,note_on,79,0,78
1,note_on,81,44,0
1,note_on,81,0,80
1,note_on,79,50,0
1,note_on,81,46,80
1,note_on,79,0,1
1,note_on,81,0,80
1,note_on,79,51,0
1,note_on,79,0,80
1,note_on,81,45,0
1,note_on,83,0,78
1,note_on,84,67,0
1,note_on,79,51,0
1,note_on,81,0,3
1,note_on,79,0,78
1,note_on,81,44,0
1,note_on,81,0,80
1,note_on,79,52,0
1,note_on,81,47,80
1,note_on,79,0,1
1,note_on,81,0,80
1,note_on,79,52,0
1,note_on,79,0,80
1,note_on,81,47,0
1,note_on,84,0,78
1,note_on,79,53,0
1,note_on,88,73,0
1,note_on,81,0,3
1,note_on,79,0,78
1,note_on,81,47,0
1,note_on,81,0,80
1,note_on,79,54,0
1,note_on,81,48,80
1,note_on,79,0,1
1,note_on,81,0,80
1,note_on,79,54,0
1,note_on,79,0,80
1,note_on,81,48,0
1,note_on,88,0,78
1,note_on,91,67,0
1,note_on,79,55,0
1,note_on,81,0,3
1,note_on,79,0,78
1,note_on,81,47,0
1,note_on,81,0,80
1,note_on,79,55,0
1,note_on,81,50,80
1,note_on,79,0,1
1,note_on,81,0,80
1,note_on,79,56,0
1,note_on,79,0,80
1,note_on,81,51,0
1,note_on,79,56,78
1,note_on,81,0,3
1,note_on,79,0,78
1,note_on,81,50,0
1,note_on,81,0,80
1,note_on,79,57,0
1,note_on,81,51,80
1,note_on,79,0,1
1,note_on,81,0,80
1,note_on,79,57,0
1,note_on,79,0,80
1,note_on,81,51,0
1,note_on,91,0,78
1,note_on,88,72,0
1,note_on,79,58,0
1,note_on,81,0,3
1,note_on,79,0,78
1,note_on,81,50,0
1,note_on,81,0,80
1,note_on,79,59,0
1,note_on,81,53,80
1,note_on,79,0,1
1,note_on,81,0,80
1,note_on,79,59,0
1,note_on,79,0,80
1,note_on,81,53,0
1,note_on,88,0,78
1,note_on,79,60,0
1,note_on,84,77,0
1,note_on,81,0,3
1,note_on,79,0,78
1,note_on,81,52,0
1,note_on,81,0,80
1,note_on,79,60,0
1,note_on,81,55,80
1,note_on,79,0,1
1,note_on,81,0,80
1,note_on,79,61,0
1,note_on,79,0,80
1,note_on,81,54,0
1,note_on,84,0,78
1,note_on,82,83,0
1,note_on,79,61,0
1,note_on,81,0,3
1,note_on,79,0,78
1,note_on,81,53,0
1,note_on,81,0,80
1,note_on,79,62,0
1,note_on,82,0,79
1,note_on,83,75,0
1,note_on,81,56,1
1,note_on,79,0,1
1,note_on,81,0,80
1,note_on,79,62,0
1,note_on,79,0,80
1,note_on,81,56,0
1,note_on,79,63,78
1,note_on,81,0,3
1,note_on,79,0,78
1,note_on,81,55,0
1,note_on,81,0,80
1,note_on,79,64,0
1,note_on,83,0,79
1,note_on,86,86,0
1,note_on,81,57,1
1,note_on,79,0,1
1,note_on,81,0,80
1,note_on,79,64,0
1,note_on,79,0,80
1,note_on,81,56,0
1,note_on,86,0,78
1,note_on,86,75,0
1,note_on,81,0,3
1,note_on,86,0,78
1,note_on,88,66,0
1,note_on,88,0,80
1,note_on,86,75,0
1,note_on,74,60,79
1,note_on,88,64,1
1,note_on,86,0,1
1,note_on,88,0,80
1,note_on,86,75,0
1,note_on,86,0,80
1,note_on,88,68,0
1,note_on,74,0,78
1,note_on,86,78,0
1,note_on,88,0,3
1,note_on,86,0,78
1,note_on,88,69,0
1,note_on,88,0,80
1,note_on,86,75,0
1,note_on,85,75,79
1,note_on,86,0,2
1,note_on,85,0,118
1,note_on,86,79,0
1,note_on,86,0,120
1,note_on,86,73,0
1,note_on,95,73,0
1,note_on,98,86,0
1,note_on,89,73,0
1,note_on,89,0,120
1,note_on,86,0,0
1,note_on,95,0,0
1,note_on,98,0,0
1,note_on,89,66,120
1,note_on,95,66,0
1,note_on,86,66,0
1,note_on,98,78,0
1,note_on,98,0,480
1,note_on,89,0,0
1,note_on,95,0,0
1,note_on,86,0,0
1,note_on,86,66,0
1,note_on,84,66,0
1,note_on,96,78,0
1,note_on,89,66,0
1,note_on,89,0,120
1,note_on,86,0,0
1,note_on,84,0,0
1,note_on,96,0,0
1,note_on,86,67,120
1,note_on,95,79,0
1,note_on,83,67,0
1,note_on,89,67,0
1,note_on,89,0,120
1,note_on,86,0,0
1,note_on,95,0,0
1,note_on,83,0,0
1,note_on,96,83,120
1,note_on,89,70,0
1,note_on,84,70,0
1,note_on,86,70,0
1,note_on,86,0,120
1,note_on,96,0,0
1,note_on,89,0,0
1,note_on,84,0,0
1,note_on,89,69,120
1,note_on,86,69,0
1,note_on,98,82,0
1,note_on,98,0,120
1,note_on,86,0,0
1,note_on,89,0,0
1,note_on,88,58,120
1,note_on,95,69,0
1,note_on,83,58,0
1,note_on,86,58,0
1,note_on,86,0,120
1,note_on,88,0,0
1,note_on,95,0,0
1,note_on,83,0,0
1,note_on,84,50,120
1,note_on,88,50,0
1,note_on,96,59,0
1,note_on,96,0,120
1,note_on,88,0,0
1,note_on,84,0,0
1,note_on,88,45,120
1,note_on,86,45,0
1,note_on,83,45,0
1,note_on,95,53,0
1,note_on,95,0,120
1,note_on,88,0,0
1,note_on,86,0,0
1,note_on,83,0,0
1,note_on,84,50,120
1,note_on,88,50,0
1,note_on,96,59,0
1,note_on,96,0,120
1,note_on,88,0,0
1,note_on,84,0,0
1,note_on,84,45,120
1,note_on,81,45,0
1,note_on,93,53,0
1,note_on,88,45,0
1,note_on,88,0,120
1,note_on,84,0,0
1,note_on,81,0,0
1,note_on,93,0,0
1,note_on,91,59,120
1,note_on,88,50,0
1,note_on,81,50,0
1,note_on,81,0,120
1,note_on,88,0,0
1,note_on,91,0,0
1,note_on,85,45,120
1,note_on,91,53,0
1,note_on,81,45,0
1,note_on,81,0,120
1,note_on,91,0,0
1,note_on,85,0,0
1,note_on,81,50,120
1,note_on,84,50,0
1,note_on,90,59,0
1,note_on,90,0,120
1,note_on,84,0,0
1,note_on,81,0,0
1,note_on,81,45,120
1,note_on,93,53,0
1,note_on,84,45,0
1,note_on,84,0,120
1,note_on,93,0,0
1,note_on,81,0,0
1,note_on,79,55,120
1,note_on,83,55,0
1,note_on,91,64,0
1,note_on,91,0,120
1,note_on,83,0,0
1,note_on,79,0,0
1,note_on,86,59,120
1,note_on,74,50,0
1,note_on,83,50,0
1,note_on,83,0,120
1,note_on,74,0,0
1,note_on,86,0,0
1,note_on,90,69,120
1,note_on,84,58,0
1,note_on,78,58,0
1,note_on,78,0,120
1,note_on,84,0,0
1,note_on,90,0,0
1,note_on,84,55,120
1,note_on,93,65,0
1,note_on,90,55,0
1,note_on,81,55,0
1,note_on,81,0,120
1,note_on,84,0,0
1,note_on,93,0,0
1,note_on,90,0,0
1,note_on,79,63,120
1,note_on,91,75,0
1,note_on,83,63,0
1,note_on,83,0,120
1,note_on,91,0,0
1,note_on,79,0,0
1,note_on,74,59,120
1,note_on,83,59,0
1,note_on,86,69,0
1,note_on,86,0,120
1,note_on,83,0,0
1,note_on,74,0,0
1,note_on,84,69,120
1,note_on,78,69,0
1,note_on,90,80,0
1,note_on,90,0,120
1,note_on,78,0,0
1,note_on,84,0,0
1,note_on,90,64,120
1,note_on,93,76,0
1,note_on,84,64,0
1,note_on,81,64,0
1,note_on,81,0,120
1,note_on,90,0,0
1,note_on,93,0,0
1,note_on,84,0,0
1,note_on,79,77,120
1,note_on,79,0,120
1,note_on,91,70,0
1,note_on,91,0,120
1,note_on,74,79,0
1,note_on,74,0,120
1,note_on,86,73,0
1,note_on,86,0,120
1,note_on,78,82,0
1,note_on,78,0,120
1,note_on,90,76,0
1,note_on,90,0,120
1,note_on,81,85,0
1,note_on,81,0,120
1,note_on,93,79,0
1,note_on,93,0,120
1,note_on,79,88,0
1,note_on,79,0,120
1,note_on,91,82,0
1,note_on,91,0,120
1,note_on,74,91,0
1,note_on,74,0,120
1,note_on,86,86,0
1,note_on,86,0,120
1,note_on,78,94,0
1,note_on,78,0,120
1,note_on,90,90,0
1,note_on,90,0,120
1,note_on,81,99,0
1,note_on,81,0,120
1,note_on,93,92,0
1,note_on,93,0,120
1,note_on,79,91,0
1,note_on,91,110,0
1,note_on,91,0,180
1,note_on,79,0,0
1,note_on,81,94,300
1,note_on,93,112,0
1,note_on,93,0,180
1,note_on,81,0,0
1,note_on,83,99,300
1,note_on,95,118,0
1,note_on,95,0,960
1,note_on,83,0,0
1,note_on,83,91,0
1,note_on,95,110,0
1,note_on,95,0,180
1,note_on,83,0,0
1,note_on,84,94,300
1,note_on,96,112,0
1,note_on,96,0,180
1,note_on,84,0,0
1,note_on,86,99,300
1,note_on,98,118,0
1,note_on,98,0,960
1,note_on,86,0,0
1,note_on,74,43,0
1,note_on,79,43,0
1,note_on,86,51,0
1,note_on,86,0,60
1,note_on,79,0,0
1,note_on,74,0,0
1,note_on,86,46,180
1,note_on,79,39,0
1,note_on,74,39,0
1,note_on,74,0,480
1,note_on,79,0,0
1,note_on,86,0,0
1,note_on,79,39,0
1,note_on,75,39,0
1,note_on,84,46,0
1,note_on,84,0,120
1,note_on,75,0,0
1,note_on,79,0,0
1,note_on,83,47,120
1,note_on,77,40,0
1,note_on,79,40,0
1,note_on,79,0,120
1,note_on,77,0,0
1,note_on,83,0,0
1,note_on,84,49,120
1,note_on,79,42,0
1,note_on,75,42,0
1,note_on,75,0,120
1,note_on,79,0,0
1,note_on,84,0,0
1,note_on,74,41,120
1,note_on,86,49,0
1,note_on,79,41,0
1,note_on,79,0,120
1,note_on,86,0,0
1,note_on,74,0,0
1,note_on,79,34,120
1,note_on,77,34,0
1,note_on,83,41,0
1,note_on,83,0,120
1,note_on,77,0,0
1,note_on,79,0,0
1,note_on,79,43,120
1,note_on,75,43,0
1,note_on,87,51,0
1,note_on,87,0,60
1,note_on,75,0,0
1,note_on,79,0,0
1,note_on,79,39,180
1,note_on,75,39,0
1,note_on,87,46,0
1,note_on,87,0,480
1,note_on,75,0,0
1,note_on,79,0,0
1,note_on,77,39,0
1,note_on,79,39,0
1,note_on,86,46,0
1,note_on,74,39,0
1,note_on,74,0,120
1,note_on,77,0,0
1,note_on,79,0,0
1,note_on,86,0,0
1,note_on,75,40,120
1,note_on,79,40,0
1,note_on,84,47,0
1,note_on,84,0,120
1,note_on,79,0,0
1,note_on,75,0,0
1,note_on,77,42,120
1,note_on,74,42,0
1,note_on,79,42,0
1,note_on,86,49,0
1,note_on,86,0,120
1,note_on,77,0,0
1,note_on,74,0,0
1,note_on,79,0,0
1,note_on,87,49,120
1,note_on,75,41,0
1,note_on,79,41,0
1,note_on,79,0,120
1,note_on,75,0,0
1,note_on,87,0,0
1,note_on,84,41,120
1,note_on,79,34,0
1,note_on,75,34,0
1,note_on,75,0,120
1,note_on,79,0,0
1,note_on,84,0,0
1,note_on,80,47,120
1,note_on,89,56,0
1,note_on,77,47,0
1,note_on,77,0,60
1,note_on,89,0,0
1,note_on,80,0,0
1,note_on,80,44,180
1,note_on,77,44,0
1,note_on,89,52,0
1,note_on,89,0,480
1,note_on,77,0,0
1,note_on,80,0,0
1,note_on,79,48,0
1,note_on,75,48,0
1,note_on,87,57,0
1,note_on,87,0,120
1,note_on,75,0,0
1,note_on,79,0,0
1,note_on,86,61,120
1,note_on,77,52,0
1,note_on,74,52,0
1,note_on,74,0,120
1,note_on,77,0,0
1,note_on,86,0,0
1,note_on,87,66,120
1,note_on,79,56,0
1,note_on,75,56,0
1,note_on,75,0,120
1,note_on,79,0,0
1,note_on,87,0,0
1,note_on,80,57,120
1,note_on,77,57,0
1,note_on,89,68,0
1,note_on,89,0,120
1,note_on,77,0,0
1,note_on,80,0,0
1,note_on,86,67,120
1,note_on,82,56,0
1,note_on,74,56,0
1,note_on,77,56,0
1,note_on,77,0,120
1,note_on,86,0,0
1,note_on,82,0,0
1,note_on,74,0,0
1,note_on,91,105,120
1,note_on,79,87,0
1,note_on,87,87,0
1,note_on,87,0,180
1,note_on,79,0,0
1,note_on,91,0,0
1,note_on,92,107,300
1,note_on,80,90,0
1,note_on,89,90,0
1,note_on,89,0,180
1,note_on,80,0,0
1,note_on,92,0,0
1,note_on,94,113,300
1,note_on,82,94,0
1,note_on,91,94,0
1,note_on,91,0,960
1,note_on,82,0,0
1,note_on,94,0,0
1,note_on,67,50,0
1,note_on,63,42,0
1,note_on,63,0,180
1,note_on,67,0,0
1,note_on,68,52,300
1,note_on,65,44,0
1,note_on,65,0,180
1,note_on,68,0,0
1,note_on,70,53,300
1,note_on,67,45,0
1,note_on,67,0,840
1,note_on,70,0,0
1,note_on,51,57,1920
1,note_on,51,0,120
1,note_on,63,77,0
1,note_on,63,0,357
1,note_on,63,56,3
1,note_on,63,0,118
1,note_on,63,63,2
1,note_on,63,0,240
1,note_on,46,40,1080
1,note_on,46,0,120
1,note_on,51,44,0
1,note_on,51,0,358
1,note_on,51,40,2
1,note_on,51,0,118
1,note_on,51,43,2
1,note_on,51,0,240
1,note_on,53,44,0
1,note_on,53,0,90
1,note_on,51,40,30
1,note_on,51,0,90
1,note_on,51,44,30
1,note_on,51,0,90
1,note_on,48,39,150
1,note_on,48,0,90
1,note_on,48,39,150
1,note_on,48,0,480
1,note_on,56,47,0
1,note_on,56,0,90
1,note_on,56,42,150
1,note_on,56,0,90
1,note_on,55,42,30
1,note_on,55,0,90
1,note_on,53,47,30
1,note_on,53,0,120
1,note_on,53,44,120
1,note_on,53,0,90
1,note_on,51,44,30
1,note_on,51,0,90
1,note_on,50,47,30
1,note_on,50,0,240
1,note_on,50,39,240
1,note_on,50,0,480
1,note_on,58,50,0
1,note_on,58,0,90
1,note_on,58,44,150
1,note_on,58,0,90
1,note_on,56,44,30
1,note_on,56,0,90
1,note_on,55,48,30
1,note_on,55,0,120
1,note_on,55,44,120
1,note_on,55,0,90
1,note_on,53,44,30
1,note_on,53,0,90
1,note_on,52,48,30
1,note_on,52,0,240
1,note_on,52,39,240
1,note_on,52,0,480
1,note_on,60,48,0
1,note_on,60,0,90
1,note_on,60,44,150
1,note_on,60,0,90
1,note_on,58,44,30
1,note_on,58,0,90
1,note_on,56,49,30
1,note_on,56,0,120
1,note_on,56,45,120
1,note_on,56,0,90
1,note_on,55,46,30
1,note_on,55,0,90
1,note_on,53,50,30
1,note_on,53,0,90
1,note_on,53,47,150
1,note_on,53,0,90
1,note_on,55,47,30
1,note_on,55,0,90
1,note_on,56,51,30
1,note_on,56,0,120
1,note_on,56,48,120
1,note_on,56,0,90
1,note_on,58,48,30
1,note_on,58,0,90
1,note_on,55,51,30
1,note_on,55,0,120
1,note_on,55,49,120
1,note_on,55,0,90
1,note_on,53,49,30
1,note_on,53,0,90
1,note_on,51,55,30
1,note_on,51,0,240
1,note_on,65,46,120
1,note_on,65,0,120
1,note_on,70,56,0
1,note_on,70,0,358
1,note_on,70,47,2
1,note_on,70,0,118
1,note_on,70,55,2
1,note_on,70,0,240
1,note_on,72,53,0
1,note_on,72,0,90
1,note_on,70,48,30
1,note_on,70,0,90
1,note_on,70,57,30
1,note_on,70,0,90
1,note_on,67,48,150
1,note_on,67,0,90
1,note_on,67,49,150
1,note_on,67,0,480
1,note_on,75,61,0
1,note_on,75,0,90
1,note_on,75,57,150
1,note_on,75,0,90
1,note_on,74,57,30
1,note_on,74,0,90
1,note_on,72,62,30
1,note_on,72,0,120
1,note_on,72,58,120
1,note_on,72,0,90
1,note_on,70,58,30
1,note_on,70,0,90
1,note_on,69,64,30
1,note_on,69,0,240
1,note_on,69,53,240
1,note_on,69,0,480
1,note_on,77,65,0
1,note_on,77,0,90
1,note_on,77,62,150
1,note_on,77,0,90
1,note_on,75,62,30
1,note_on,75,0,90
1,note_on,74,66,30
1,note_on,74,0,120
1,note_on,74,63,120
1,note_on,74,0,90
1,note_on,72,63,30
1,note_on,72,0,90
1,note_on,71,67,30
1,note_on,71,0,240
1,note_on,71,53,240
1,note_on,71,0,480
1,note_on,79,71,0
1,note_on,79,0,90
1,note_on,79,67,150
1,note_on,79,0,90
1,note_on,77,67,30
1,note_on,77,0,90
1,note_on,75,68,30
1,note_on,75,0,120
1,note_on,75,68,120
1,note_on,75,0,90
1,note_on,74,69,30
1,note_on,74,0,90
1,note_on,72,71,30
1,note_on,72,0,90
1,note_on,72,69,150
1,note_on,72,0,90
1,note_on,70,70,30
1,note_on,70,0,90
1,note_on,68,74,30
1,note_on,68,0,120
1,note_on,68,71,120
1,note_on,68,0,90
1,note_on,67,71,30
1,note_on,67,0,90
1,note_on,65,76,30
1,note_on,65,0,120
1,note_on,65,72,120
1,note_on,65,0,90
1,note_on,67,73,30
1,note_on,67,0,90
1,note_on,68,76,30
1,note_on,68,0,240
1,note_on,70,73,0
1,note_on,70,0,240
1,note_on,63,62,0
1,note_on,70,62,0
1,note_on,67,74,0
1,note_on,70,0,240
1,note_on,63,0,0
1,note_on,67,0,118
1,note_on,67,64,2
1,note_on,67,0,118
1,note_on,67,76,2
1,note_on,67,0,240
1,note_on,68,74,0
1,note_on,68,0,90
1,note_on,70,70,30
1,note_on,67,70,0
1,note_on,67,0,90
1,note_on,70,0,0
1,note_on,75,74,30
1,note_on,67,62,0
1,note_on,67,0,240
1,note_on,63,53,0
1,note_on,75,0,118
1,note_on,75,64,2
1,note_on,75,0,120
1,note_on,63,0,0
1,note_on,63,64,0
1,note_on,75,76,0
1,note_on,75,0,240
1,note_on,77,74,0
1,note_on,77,0,90
1,note_on,75,70,30
1,note_on,75,0,90
1,note_on,63,0,30
1,note_on,63,62,0
1,note_on,75,74,0
1,note_on,75,0,90
1,note_on,63,0,0
1,note_on,72,68,150
1,note_on,70,57,120
1,note_on,70,0,90
1,note_on,72,0,0
1,note_on,68,62,30
1,note_on,72,74,0
1,note_on,68,0,90
1,note_on,68,73,150
1,note_on,68,0,90
1,note_on,67,64,30
1,note_on,67,0,90
1,note_on,72,0,30
1,note_on,65,62,0
1,note_on,80,81,0
1,note_on,80,0,90
1,note_on,65,0,150
1,note_on,80,71,0
1,note_on,80,0,90
1,note_on,79,67,30
1,note_on,79,0,90
1,note_on,77,78,30
1,note_on,65,64,0
1,note_on,77,0,120
1,note_on,77,74,120
1,note_on,77,0,90
1,note_on,75,68,30
1,note_on,75,0,90
1,note_on,65,0,30
1,note_on,74,74,0
1,note_on,74,0,90
1,note_on,74,68,150
1,note_on,74,0,90
1,note_on,72,57,30
1,note_on,72,0,90
1,note_on,70,62,30
1,note_on,74,74,0
1,note_on,70,0,90
1,note_on,70,73,150
1,note_on,70,0,90
1,note_on,68,64,30
1,note_on,68,0,90
1,note_on,74,0,30
1,note_on,82,79,0
1,note_on,67,62,0
1,note_on,82,0,90
1,note_on,67,0,150
1,note_on,82,71,0
1,note_on,82,0,90
1,note_on,80,67,30
1,note_on,80,0,90
1,note_on,79,78,30
1,note_on,67,64,0
1,note_on,79,0,120
1,note_on,79,74,120
1,note_on,79,0,90
1,note_on,77,68,30
1,note_on,77,0,90
1,note_on,76,74,30
1,note_on,76,0,240
1,note_on,67,0,0
1,note_on,64,56,0
1,note_on,64,0,240
1,note_on,65,59,0
1,note_on,65,0,240
1,note_on,67,62,0
1,note_on,60,51,0
1,note_on,60,0,90
1,note_on,58,49,30
1,note_on,58,0,90
1,note_on,67,0,30
1,note_on,56,58,0
1,note_on,68,58,0
1,note_on,56,0,120
1,note_on,65,51,120
1,note_on,65,0,120
1,note_on,63,44,0
1,note_on,63,0,120
1,note_on,62,51,0
1,note_on,62,0,120
1,note_on,68,0,120
1,note_on,62,52,0
1,note_on,69,52,0
1,note_on,62,0,120
1,note_on,60,45,0
1,note_on,60,0,120
1,note_on,69,0,0
1,note_on,70,63,0
1,note_on,58,63,0
1,note_on,70,0,90
1,note_on,58,0,150
1,note_on,79,62,0
1,note_on,79,0,90
1,note_on,77,57,30
1,note_on,77,0,90
1,note_on,75,67,30
1,note_on,75,0,120
1,note_on,75,63,120
1,note_on,75,0,90
1,note_on,74,57,30
1,note_on,74,0,90
1,note_on,72,68,30
1,note_on,60,47,240
1,note_on,60,0,240
1,note_on,65,60,0
1,note_on,72,0,240
1,note_on,73,61,0
1,note_on,73,0,240
1,note_on,65,0,0
1,note_on,65,72,0
1,note_on,74,72,0
1,note_on,74,0,90
1,note_on,65,0,0
1,note_on,67,66,150
1,note_on,75,66,0
1,note_on,75,0,90
1,note_on,67,0,0
1,note_on,74,59,30
1,note_on,65,59,0
1,note_on,65,0,90
1,note_on,74,0,0
1,note_on,72,76,30
1,note_on,63,76,0
1,note_on,63,0,120
1,note_on,72,0,0
1,note_on,71,73,120
1,note_on,62,76,0
1,note_on,71,0,90
1,note_on,62,0,30
1,note_on,67,66,0
1,note_on,67,0,90
1,note_on,72,67,30
1,note_on,75,79,0
1,note_on,75,0,357
1,note_on,72,0,0
1,note_on,75,72,3
1,note_on,72,61,0
1,note_on,72,0,119
1,note_on,75,0,0
1,note_on,72,64,1
1,note_on,75,76,0
1,note_on,75,0,240
1,note_on,72,0,0
1,note_on,74,67,0
1,note_on,77,79,0
1,note_on,77,0,90
1,note_on,74,0,0
1,note_on,75,68,30
1,note_on,72,57,0
1,note_on,72,0,90
1,note_on,75,0,0
1,note_on,72,67,30
1,note_on,75,79,0
1,note_on,75,0,90
1,note_on,72,0,0
1,note_on,72,69,150
1,note_on,68,58,0
1,note_on,68,0,90
1,note_on,72,0,0
1,note_on,68,58,150
1,note_on,72,69,0
1,note_on,72,0,480
1,note_on,68,0,0
1,note_on,80,79,0
1,note_on,77,67,0
1,note_on,77,0,90
1,note_on,80,0,0
1,note_on,80,79,150
1,note_on,77,67,0
1,note_on,77,0,90
1,note_on,80,0,0
1,note_on,79,75,30
1,note_on,75,63,0
1,note_on,75,0,90
1,note_on,79,0,0
1,note_on,77,79,30
1,note_on,73,67,0
1,note_on,73,0,120
1,note_on,77,0,0
1,note_on,73,67,120
1,note_on,77,79,0
1,note_on,77,0,90
1,note_on,73,0,0
1,note_on,75,75,30
1,note_on,72,63,0
1,note_on,72,0,90
1,note_on,75,0,0
1,note_on,73,79,30
1,note_on,70,67,0
1,note_on,70,0,240
1,note_on,73,0,0
1,note_on,70,58,240
1,note_on,73,69,0
1,note_on,73,0,480
1,note_on,70,0,0
1,note_on,79,67,0
1,note_on,82,79,0
1,note_on,82,0,90
1,note_on,79,0,0
1,note_on,79,67,150
1,note_on,82,79,0
1,note_on,82,0,90
1,note_on,79,0,0
1,note_on,77,63,30
1,note_on,80,75,0
1,note_on,80,0,90
1,note_on,77,0,0
1,note_on,76,67,30
1,note_on,79,79,0
1,note_on,79,0,120
1,note_on,76,0,0
1,note_on,79,79,120
1,note_on,76,67,0
1,note_on,76,0,90
1,note_on,79,0,0
1,note_on,74,63,30
1,note_on,77,75,0
1,note_on,77,0,90
1,note_on,74,0,0
1,note_on,76,79,30
1,note_on,72,67,0
1,note_on,72,0,240
1,note_on,76,0,0
1,note_on,72,58,240
1,note_on,77,69,0
1,note_on,77,0,480
1,note_on,72,0,0
1,note_on,84,79,0
1,note_on,80,67,0
1,note_on,80,0,90
1,note_on,84,0,0
1,note_on,80,67,150
1,note_on,84,79,0
1,note_on,84,0,90
1,note_on,80,0,0
1,note_on,79,63,30
1,note_on,82,75,0
1,note_on,82,0,90
1,note_on,79,0,0
1,note_on,80,79,30
1,note_on,77,67,0
1,note_on,77,0,120
1,note_on,80,0,0
1,note_on,79,68,120
1,note_on,82,80,0
1,note_on,82,0,90
1,note_on,79,0,0
1,note_on,77,65,30
1,note_on,80,77,0
1,note_on,80,0,90
1,note_on,77,0,0
1,note_on,79,79,30
1,note_on,75,67,0
1,note_on,75,0,90
1,note_on,79,0,0
1,note_on,80,79,150
1,note_on,89,79,0
1,note_on,89,0,90
1,note_on,80,0,0
1,note_on,87,75,30
1,note_on,79,63,0
1,note_on,79,0,90
1,note_on,87,0,0
1,note_on,77,67,30
1,note_on,86,79,0
1,note_on,86,0,120
1,note_on,77,0,0
1,note_on,87,80,120
1,note_on,79,68,0
1,note_on,79,0,90
1,note_on,87,0,0
1,note_on,77,65,30
1,note_on,86,77,0
1,note_on,86,0,90
1,note_on,77,0,0
1,note_on,75,67,30
1,note_on,84,79,0
1,note_on,84,0,90
1,note_on,75,0,0
1,note_on,79,67,150
1,note_on,82,79,0
1,note_on,82,0,90
1,note_on,79,0,0
1,note_on,80,63,30
1,note_on,84,75,0
1,note_on,84,0,90
1,note_on,80,0,0
1,note_on,85,80,30
1,note_on,82,68,0
1,note_on,82,0,120
1,note_on,85,0,0
1,note_on,77,70,120
1,note_on,80,82,0
1,note_on,80,0,90
1,note_on,77,0,0
1,note_on,79,67,30
1,note_on,82,80,0
1,note_on,82,0,90
1,note_on,79,0,0
1,note_on,80,70,30
1,note_on,84,82,0
1,note_on,84,0,90
1,note_on,80,0,0
1,note_on,72,71,150
1,note_on,75,83,0
1,note_on,75,0,90
1,note_on,77,80,30
1,note_on,77,0,90
1,note_on,72,0,30
1,note_on,79,84,0
1,note_on,71,71,0
1,note_on,71,0,240
1,note_on,79,0,0
1,note_on,71,79,120
1,note_on,74,94,0
1,note_on,74,0,120
1,note_on,71,0,0
1,note_on,79,86,0
1,note_on,83,102,0
1,note_on,83,0,840
1,note_on,79,0,0
1,note_on,71,73,0
1,note_on,74,87,0
1,note_on,74,0,120
1,note_on,71,0,0
1,note_on,79,86,0
1,note_on,83,102,0
1,note_on,83,0,720
1,note_on,79,0,0
1,note_on,83,53,0
1,note_on,79,45,0
1,note_on,87,53,0
1,note_on,87,0,120
1,note_on,86,45,0
1,note_on,86,0,120
1,note_on,79,0,0
1,note_on,83,0,0
1,note_on,86,45,0
1,note_on,83,45,0
1,note_on,91,53,0
1,note_on,91,0,120
1,note_on,89,45,0
1,note_on,89,0,120
1,note_on,83,0,0
1,note_on,86,0,0
1,note_on,71,45,240
1,note_on,79,53,0
1,note_on,74,45,0
1,note_on,79,0,120
1,note_on,77,45,0
1,note_on,77,0,120
1,note_on,74,0,0
1,note_on,71,0,0
1,note_on,67,53,240
1,note_on,59,45,0
1,note_on,62,45,0
1,note_on,67,0,120
1,note_on,65,45,0
1,note_on,65,0,120
1,note_on,62,0,0
1,note_on,59,0,0
1,note_on,74,45,240
1,note_on,71,45,0
1,note_on,79,53,0
1,note_on,79,0,120
1,note_on,77,45,0
1,note_on,77,0,120
1,note_on,71,0,0
1,note_on,74,0,0
1,note_on,79,86,240
1,note_on,87,102,0
1,note_on,84,86,0
1,note_on,84,0,840
1,note_on,87,0,0
1,note_on,79,0,0
1,note_on,79,73,0
1,note_on,75,87,0
1,note_on,84,86,120
1,note_on,87,102,0
1,note_on,87,0,720
1,note_on,79,0,0
1,note_on,75,0,0
1,note_on,84,0,0
1,note_on,84,53,0
1,note_on,79,45,0
1,note_on,89,53,0
1,note_on,89,0,120
1,note_on,87,45,0
1,note_on,87,0,120
1,note_on,79,0,0
1,note_on,84,0,0
1,note_on,87,45,0
1,note_on,84,45,0
1,note_on,92,53,0
1,note_on,92,0,120
1,note_on,91,45,0
1,note_on,91,0,120
1,note_on,84,0,0
1,note_on,87,0,0
1,note_on,72,45,240
1,note_on,75,45,0
1,note_on,80,53,0
1,note_on,79,45,113
1,note_on,80,0,7
1,note_on,79,0,113
1,note_on,75,0,7
1,note_on,72,0,0
1,note_on,63,45,240
1,note_on,60,45,0
1,note_on,68,53,0
1,note_on,68,0,120
1,note_on,67,45,0
1,note_on,67,0,120
1,note_on,60,0,0
1,note_on,63,0,0
1,note_on,75,45,240
1,note_on,80,53,0
1,note_on,72,45,0
1,note_on,80,0,120
1,note_on,79,45,0
1,note_on,79,0,120
1,note_on,72,0,0
1,note_on,75,0,0
1,note_on,77,86,240
1,note_on,86,86,0
1,note_on,89,102,0
1,note_on,89,0,840
1,note_on,86,0,0
1,note_on,77,0,0
1,note_on,74,87,0
1,note_on,77,73,0
1,note_on,77,0,120
1,note_on,74,0,0
1,note_on,89,102,0
1,note_on,86,86,0
1,note_on,77,73,360
1,note_on,77,0,120
1,note_on,82,67,0
1,note_on,82,0,240
1,note_on,86,0,0
1,note_on,89,0,0
1,note_on,86,53,0
1,note_on,82,45,0
1,note_on,91,53,0
1,note_on,91,0,120
1,note_on,89,45,0
1,note_on,89,0,120
1,note_on,82,0,0
1,note_on,86,0,0
1,note_on,86,49,0
1,note_on,89,49,0
1,note_on,94,58,0
1,note_on,94,0,120
1,note_on,92,50,0
1,note_on,92,0,120
1,note_on,89,0,0
1,note_on,86,0,0
1,note_on,82,63,240
1,note_on,77,54,0
1,note_on,74,54,0
1,note_on,80,54,113
1,note_on,82,0,7
1,note_on,80,0,113
1,note_on,74,0,7
1,note_on,77,0,0
1,note_on,65,58,240
1,note_on,62,58,0
1,note_on,70,68,0
1,note_on,70,0,120
1,note_on,68,59,0
1,note_on,68,0,120
1,note_on,62,0,0
1,note_on,65,0,0
1,note_on,77,63,240
1,note_on,74,63,0
1,note_on,82,74,0
1,note_on,82,0,120
1,note_on,80,63,0
1,note_on,80,0,120
1,note_on,74,0,0
1,note_on,77,0,0
1,note_on,87,86,240
1,note_on,91,102,0
1,note_on,91,0,840
1,note_on,87,0,0
1,note_on,79,73,0
1,note_on,82,73,0
1,note_on,82,0,120
1,note_on,79,0,0
1,note_on,91,102,0
1,note_on,87,86,0
1,note_on,79,87,360
1,note_on,79,0,120
1,note_on,84,80,0
1,note_on,84,0,240
1,note_on,87,0,0
1,note_on,91,0,0
1,note_on,78,73,120
1,note_on,81,87,0
1,note_on,81,0,120
1,note_on,78,0,0
1,note_on,93,106,0
1,note_on,90,90,0
1,note_on,90,0,840
1,note_on,93,0,0
1,note_on,81,76,0
1,note_on,78,76,0
1,note_on,78,0,120
1,note_on,81,0,0
1,note_on,93,106,0
1,note_on,90,90,0
1,note_on,81,91,360
1,note_on,81,0,120
1,note_on,86,84,0
1,note_on,90,90,0
1,note_on,90,0,240
1,note_on,93,0,0
1,note_on,90,0,0
1,note_on,86,0,0
1,note_on,80,76,120
1,note_on,83,91,0
1,note_on,83,0,120
1,note_on,80,0,0
1,note_on,95,97,0
1,note_on,86,82,0
1,note_on,89,82,0
1,note_on,92,82,0
1,note_on,83,82,0
1,note_on,83,0,840
1,note_on,89,0,0
1,note_on,95,0,0
1,note_on,86,0,0
1,note_on,92,0,0
1,note_on,80,76,0
1,note_on,83,76,0
1,note_on,83,0,120
1,note_on,80,0,0
1,note_on,89,82,0
1,note_on,83,82,0
1,note_on,86,82,0
1,note_on,92,82,0
1,note_on,95,97,0
1,note_on,95,0,840
1,note_on,86,0,0
1,note_on,89,0,0
1,note_on,83,0,0
1,note_on,92,0,0
1,note_on,82,76,0
1,note_on,76,76,0
1,note_on,79,76,0
1,note_on,85,76,0
1,note_on,85,0,120
1,note_on,82,0,0
1,note_on,76,0,0
1,note_on,79,0,0
1,note_on,94,82,0
1,note_on,91,82,0
1,note_on,97,97,0
1,note_on,88,82,0
1,note_on,88,0,840
1,note_on,94,0,0
1,note_on,91,0,0
1,note_on,97,0,0
1,note_on,82,76,0
1,note_on,85,76,0
1,note_on,79,76,0
1,note_on,76,76,0
1,note_on,76,0,120
1,note_on,82,0,0
1,note_on,85,0,0
1,note_on,79,0,0
1,note_on,91,82,0
1,note_on,88,82,0
1,note_on,94,82,0
1,note_on,97,97,0
1,note_on,97,0,840
1,note_on,91,0,0
1,note_on,88,0,0
1,note_on,94,0,0
1,note_on,86,83,0
1,note_on,81,83,0
1,note_on,78,83,0
1,note_on,78,0,120
1,note_on,81,0,0
1,note_on,86,0,0
1,note_on,86,90,0
1,note_on,90,90,0
1,note_on,93,90,0
1,note_on,98,106,0
1,note_on,98,0,360
1,note_on,86,0,0
1,note_on,90,0,0
1,note_on,93,0,0
1,note_on,86,80,0
1,note_on,86,0,120
1,note_on,98,100,0
1,note_on,98,0,360
1,note_on,74,74,0
1,note_on,74,0,120
1,note_on,86,93,0
1,note_on,86,0,360
1,note_on,74,68,0
1,note_on,74,0,120
1,note_on,86,85,0
1,note_on,86,0,360
1,note_on,74,62,0
1,note_on,74,0,120
1,note_on,86,78,0
1,note_on,86,0,360
1,note_on,74,56,0
1,note_on,74,0,120
1,note_on,86,70,0
1,note_on,86,0,360
1,note_on,74,51,0
1,note_on,74,0,120
1,note_on,86,63,0
1,note_on,86,0,360
1,note_on,74,45,0
1,note_on,74,0,120
1,note_on,86,55,0
1,note_on,86,0,360
1,note_on,75,39,0
1,note_on,75,0,120
1,note_on,87,58,0
1,note_on,75,49,480
1,note_on,75,0,480
1,note_on,87,0,0
1,note_on,88,57,0
1,note_on,76,48,0
1,note_on,88,0,480
1,note_on,79,61,0
1,note_on,79,0,480
1,note_on,76,0,0
1,note_on,78,67,0
1,note_on,83,56,0
1,note_on,78,0,480
1,note_on,75,61,0
1,note_on,75,0,480
1,note_on,83,0,0
1,note_on,76,51,0
1,note_on,71,51,0
1,note_on,79,60,0
1,note_on,79,0,480
1,note_on,71,0,0
1,note_on,76,0,0
1,note_on,71,53,0
1,note_on,76,63,0
1,note_on,76,0,480
1,note_on,71,0,0
1,note_on,74,66,0
1,note_on,74,0,480
1,note_on,75,59,0
1,note_on,75,0,480
1,note_on,78,64,0
1,note_on,78,0,480
1,note_on,76,63,0
1,note_on,76,0,240
1,note_on,73,57,0
1,note_on,73,0,240
1,note_on,75,66,0
1,note_on,75,0,240
1,note_on,62,48,0
1,note_on,62,0,240
1,note_on,63,56,0
1,note_on,63,0,480
1,note_on,66,64,0
1,note_on,66,0,480
1,note_on,64,52,0
1,note_on,64,0,240
1,note_on,61,48,0
1,note_on,61,0,240
1,note_on,71,59,0
1,note_on,75,59,0
1,note_on,75,0,120
1,note_on,71,0,0
1,note_on,76,48,0
1,note_on,76,0,120
1,note_on,75,48,0
1,note_on,75,0,120
1,note_on,74,48,0
1,note_on,74,0,120
1,note_on,75,55,0
1,note_on,75,0,120
1,note_on,76,48,0
1,note_on,76,0,120
1,note_on,78,48,0
1,note_on,78,0,120
1,note_on,77,48,0
1,note_on,77,0,120
1,note_on,80,57,0
1,note_on,80,0,120
1,note_on,78,54,0
1,note_on,78,0,120
1,note_on,77,54,0
1,note_on,77,0,120
1,note_on,78,54,0
1,note_on,78,0,120
1,note_on,76,56,0
1,note_on,76,0,120
1,note_on,75,53,0
1,note_on,75,0,120
1,note_on,76,51,0
1,note_on,76,0,120
1,note_on,73,45,0
1,note_on,73,0,120
1,note_on,63,59,0
1,note_on,75,59,0
1,note_on,63,0,120
1,note_on,64,48,0
1,note_on,64,0,120
1,note_on,75,0,0
1,note_on,63,48,0
1,note_on,63,0,120
1,note_on,62,48,0
1,note_on,62,0,120
1,note_on,63,55,0
1,note_on,63,0,120
1,note_on,64,48,0
1,note_on,64,0,120
1,note_on,66,48,0
1,note_on,66,0,120
1,note_on,65,48,0
1,note_on,65,0,120
1,note_on,68,57,0
1,note_on,68,0,120
1,note_on,66,54,0
1,note_on,66,0,120
1,note_on,65,54,0
1,note_on,65,0,120
1,note_on,66,54,0
1,note_on,66,0,120
1,note_on,64,56,0
1,note_on,64,0,120
1,note_on,63,53,0
1,note_on,63,0,120
1,note_on,64,51,0
1,note_on,64,0,120
1,note_on,66,45,0
1,note_on,66,0,120
1,note_on,61,51,0
1,note_on,54,51,0
1,note_on,64,61,0
1,note_on,64,0,240
1,note_on,54,0,0
1,note_on,61,0,0
1,note_on,66,63,1560
1,note_on,66,0,90
1,note_on,73,61,30
1,note_on,73,0,358
1,note_on,73,54,2
1,note_on,73,0,118
1,note_on,73,61,2
1,note_on,73,0,180
1,note_on,75,48,60
1,note_on,75,0,90
1,note_on,61,63,30
1,note_on,73,51,0
1,note_on,73,0,90
1,note_on,61,0,0
1,note_on,73,51,30
1,note_on,64,61,0
1,note_on,73,0,120
1,note_on,70,51,120
1,note_on,64,0,118
1,note_on,70,0,2
1,note_on,64,54,0
1,note_on,64,0,118
1,note_on,64,61,2
1,note_on,64,0,180
1,note_on,66,48,60
1,note_on,66,0,90
1,note_on,64,51,30
1,note_on,64,0,90
1,note_on,64,51,30
1,note_on,64,0,120
1,note_on,61,51,120
1,note_on,61,0,120
1,note_on,66,63,480
1,note_on,66,0,90
1,note_on,76,67,30
1,note_on,76,0,358
1,note_on,64,63,2
1,note_on,76,54,0
1,note_on,64,0,90
1,note_on,76,0,28
1,note_on,73,61,2
1,note_on,76,61,0
1,note_on,76,0,180
1,note_on,73,0,180
1,note_on,73,54,0
1,note_on,73,0,120
1,note_on,73,61,0
1,note_on,73,0,180
1,note_on,73,63,660
1,note_on,73,0,90
1,note_on,82,67,30
1,note_on,82,0,358
1,note_on,61,63,2
1,note_on,82,54,0
1,note_on,61,0,90
1,note_on,82,0,28
1,note_on,70,61,2
1,note_on,82,61,0
1,note_on,82,0,180
1,note_on,70,0,180
1,note_on,70,54,0
1,note_on,70,0,118
1,note_on,70,61,2
1,note_on,70,0,180
1,note_on,52,64,180
1,note_on,52,0,90
1,note_on,61,62,30
1,note_on,61,0,840
1,note_on,55,68,0
1,note_on,55,0,90
1,note_on,64,71,30
1,note_on,64,0,600
1,note_on,55,70,0
1,note_on,55,0,90
1,note_on,64,76,30
1,note_on,64,0,360
1,note_on,79,72,0
1,note_on,79,0,90
1,note_on,88,78,30
1,note_on,88,0,360
1,note_on,56,74,0
1,note_on,56,0,90
1,note_on,64,79,30
1,note_on,64,0,360
1,note_on,80,76,0
1,note_on,80,0,90
1,note_on,88,83,30
1,note_on,88,0,360
1,note_on,57,78,0
1,note_on,57,0,90
1,note_on,64,84,30
1,note_on,64,0,360
1,note_on,81,81,0
1,note_on,81,0,90
1,note_on,88,88,30
1,note_on,88,0,360
1,note_on,57,85,0
1,note_on,57,0,90
1,note_on,65,93,30
1,note_on,65,0,360
1,note_on,81,89,0
1,note_on,81,0,90
1,note_on,89,101,30
1,note_on,89,0,240
1,note_on,74,82,0
1,note_on,82,82,0
1,note_on,77,82,0
1,note_on,86,99,11
1,note_on,77,0,169
1,note_on,74,0,0
1,note_on,82,0,0
1,note_on,86,0,11
1,note_on,74,91,169
1,note_on,82,91,0
1,note_on,86,111,0
1,note_on,77,91,0
1,note_on,77,0,120
1,note_on,74,0,0
1,note_on,82,0,0
1,note_on,86,0,0
1,note_on,77,82,0
1,note_on,86,99,0
1,note_on,82,82,0
1,note_on,74,82,0
1,note_on,74,0,180
1,note_on,77,0,0
1,note_on,86,0,0
1,note_on,82,0,0
1,note_on,74,84,60
1,note_on,87,104,0
1,note_on,82,84,0
1,note_on,77,84,0
1,note_on,77,0,45
1,note_on,74,0,0
1,note_on,87,0,0
1,note_on,82,0,0
1,note_on,74,86,75
1,note_on,86,102,0
1,note_on,77,86,0
1,note_on,82,86,0
1,note_on,82,0,45
1,note_on,74,0,0
1,note_on,86,0,0
1,note_on,77,0,0
1,note_on,77,91,75
1,note_on,74,91,0
1,note_on,82,91,0
1,note_on,86,111,0
1,note_on,86,0,120
1,note_on,77,0,0
1,note_on,74,0,0
1,note_on,82,0,0
1,note_on,74,84,120
1,note_on,70,84,0
1,note_on,77,84,0
1,note_on,82,101,0
1,note_on,82,0,120
1,note_on,74,0,0
1,note_on,70,0,0
1,note_on,77,0,0
1,note_on,77,101,480
1,note_on,74,93,0
1,note_on,74,0,120
1,note_on,77,0,0
1,note_on,82,82,0
1,note_on,77,82,0
1,note_on,89,99,0
1,note_on,89,0,180
1,note_on,77,0,0
1,note_on,82,0,0
1,note_on,82,91,180
1,note_on,77,91,0
1,note_on,89,111,0
1,note_on,86,91,0
1,note_on,86,0,120
1,note_on,82,0,0
1,note_on,77,0,0
1,note_on,89,0,0
1,note_on,86,82,0
1,note_on,82,82,0
1,note_on,77,82,0
1,note_on,89,99,0
1,note_on,89,0,180
1,note_on,86,0,0
1,note_on,82,0,0
1,note_on,77,0,0
1,note_on,91,104,60
1,note_on,86,84,0
1,note_on,82,84,0
1,note_on,77,84,0
1,note_on,77,0,45
1,note_on,91,0,0
1,note_on,86,0,0
1,note_on,82,0,0
1,note_on,89,102,75
1,note_on,86,86,0
1,note_on,77,86,0
1,note_on,82,86,0
1,note_on,82,0,45
1,note_on,89,0,0
1,note_on,86,0,0
1,note_on,77,0,0
1,note_on,89,111,75
1,note_on,86,91,0
1,note_on,82,91,0
1,note_on,77,91,0
1,note_on,77,0,120
1,note_on,89,0,0
1,note_on,86,0,0
1,note_on,82,0,0
1,note_on,86,101,120
1,note_on,74,84,0
1,note_on,77,84,0
1,note_on,82,84,0
1,note_on,82,0,120
1,note_on,86,0,0
1,note_on,74,0,0
1,note_on,77,0,0
1,note_on,79,45,360
1,note_on,82,54,0
1,note_on,82,0,120
1,note_on,79,0,0
1,note_on,81,43,0
1,note_on,84,51,0
1,note_on,84,0,120
1,note_on,81,0,0
1,note_on,77,51,0
1,note_on,86,61,0
1,note_on,82,51,0
1,note_on,82,0,480
1,note_on,86,0,0
1,note_on,77,0,0
1,note_on,77,47,0
1,note_on,84,56,0
1,note_on,81,47,0
1,note_on,81,0,240
1,note_on,84,0,0
1,note_on,77,0,0
1,note_on,69,47,0
1,note_on,72,56,0
1,note_on,65,41,0
1,note_on,72,0,120
1,note_on,69,0,0
1,note_on,71,35,0
1,note_on,74,46,0
1,note_on,74,0,120
1,note_on,71,0,0
1,note_on,65,0,0
1,note_on,67,49,0
1,note_on,72,49,0
1,note_on,75,58,0
1,note_on,75,0,480
1,note_on,72,0,0
1,note_on,67,0,0
1,note_on,67,43,0
1,note_on,74,51,0
1,note_on,70,43,0
1,note_on,70,0,240
1,note_on,74,0,0
1,note_on,67,0,0
1,note_on,74,58,0
1,note_on,70,49,0
1,note_on,74,0,120
1,note_on,75,60,0
1,note_on,75,0,120
1,note_on,77,63,0
1,note_on,70,0,240
1,note_on,67,45,0
1,note_on,70,54,0
1,note_on,77,0,120
1,note_on,79,60,0
1,note_on,79,0,120
1,note_on,70,0,0
1,note_on,67,0,0
1,note_on,67,62,0
1,note_on,77,62,0
1,note_on,77,0,120
1,note_on,75,51,0
1,note_on,67,0,120
1,note_on,69,57,0
1,note_on,75,0,120
1,note_on,77,50,0
1,note_on,77,0,120
1,note_on,69,0,0
1,note_on,70,51,0
1,note_on,75,60,0
1,note_on,75,0,120
1,note_on,74,46,0
1,note_on,74,0,120
1,note_on,70,0,0
1,note_on,65,41,0
1,note_on,68,41,0
1,note_on,74,49,0
1,note_on,77,49,0
1,note_on,77,0,120
1,note_on,65,0,0
1,note_on,68,0,0
1,note_on,74,0,0
1,note_on,67,37,0
1,note_on,72,44,0
1,note_on,75,44,0
1,note_on,63,37,0
1,note_on,63,0,120
1,note_on,67,0,0
1,note_on,72,0,0
1,note_on,75,0,0
1,note_on,60,34,0
1,note_on,72,40,0
1,note_on,69,40,0
1,note_on,69,0,240
1,note_on,72,0,0
1,note_on,60,0,0
1,note_on,74,58,0
1,note_on,74,0,120
1,note_on,75,60,0
1,note_on,75,0,120
1,note_on,77,63,0
1,note_on,69,45,120
1,note_on,69,0,120
1,note_on,70,54,0
1,note_on,77,0,120
1,note_on,79,60,0
1,note_on,79,0,120
1,note_on,75,64,0
1,note_on,70,0,120
1,note_on,66,47,0
1,note_on,66,0,120
1,note_on,69,53,0
1,note_on,75,0,120
1,note_on,77,50,0
1,note_on,77,0,120
1,note_on,75,60,0
1,note_on,75,0,120
1,note_on,69,0,0
1,note_on,70,50,0
1,note_on,74,50,0
1,note_on,74,0,120
1,note_on,70,0,0
1,note_on,77,57,0
1,note_on,65,35,0
1,note_on,77,0,120
1,note_on,75,55,0
1,note_on,75,0,120
1,note_on,72,50,0
1,note_on,72,0,240
1,note_on,65,0,0
1,note_on,75,58,0
1,note_on,63,49,0
1,note_on,63,0,120
1,note_on,75,0,0
1,note_on,77,60,0
1,note_on,65,51,0
1,note_on,65,0,120
1,note_on,77,0,0
1,note_on,79,63,0
1,note_on,67,45,0
1,note_on,67,0,120
1,note_on,69,45,0
1,note_on,69,0,120
1,note_on,70,54,0
1,note_on,79,0,120
1,note_on,80,60,0
1,note_on,80,0,120
1,note_on,77,64,0
1,note_on,70,0,120
1,note_on,69,47,0
1,note_on,69,0,120
1,note_on,70,53,0
1,note_on,77,0,120
1,note_on,79,50,0
1,note_on,79,0,120
1,note_on,77,60,0
1,note_on,77,0,120
1,note_on,75,50,0
1,note_on,75,0,120
1,note_on,70,0,0
1,note_on,70,35,0
1,note_on,79,57,0
1,note_on,79,0,120
1,note_on,77,55,0
1,note_on,77,0,120
1,note_on,74,50,0
1,note_on,74,0,240
1,note_on,70,0,0
1,note_on,77,58,0
1,note_on,77,0,120
1,note_on,78,60,0
1,note_on,78,0,120
1,note_on,80,63,0
1,note_on,69,45,120
1,note_on,69,0,120
1,note_on,70,54,0
1,note_on,80,0,120
1,note_on,82,60,0
1,note_on,82,0,120
1,note_on,78,64,0
1,note_on,78,0,240
1,note_on,70,0,0
1,note_on,66,49,0
1,note_on,78,58,0
1,note_on,78,0,120
1,note_on,66,0,0
1,note_on,68,51,0
1,note_on,80,60,0
1,note_on,80,0,120
1,note_on,68,0,0
1,note_on,82,63,0
1,note_on,70,38,0
1,note_on,70,0,120
1,note_on,72,45,0
1,note_on,72,0,120
1,note_on,73,54,0
1,note_on,82,0,120
1,note_on,83,60,0
1,note_on,83,0,120
1,note_on,80,64,0
1,note_on,73,0,120
1,note_on,77,45,0
1,note_on,77,0,120
1,note_on,80,0,0
1,note_on,78,47,0
1,note_on,82,56,0
1,note_on,82,0,120
1,note_on,78,0,0
1,note_on,83,60,0
1,note_on,80,51,0
1,note_on,80,0,120
1,note_on,83,0,0
1,note_on,82,65,0
1,note_on,85,65,0
1,note_on,82,0,240
1,note_on,78,54,0
1,note_on,85,0,120
1,note_on,87,64,0
1,note_on,87,0,120
1,note_on,85,60,0
1,note_on,85,0,120
1,note_on,83,43,0
1,note_on,78,0,120
1,note_on,77,53,0
1,note_on,83,0,120
1,note_on,85,63,0
1,note_on,85,0,120
1,note_on,83,60,0
1,note_on,83,0,120
1,note_on,82,46,0
1,note_on,77,0,120
1,note_on,78,53,0
1,note_on,82,0,120
1,note_on,83,62,0
1,note_on,83,0,120
1,note_on,82,58,0
1,note_on,82,0,120
1,note_on,78,0,0
1,note_on,77,41,0
1,note_on,80,48,0
1,note_on,80,0,120
1,note_on,77,0,0
1,note_on,78,48,0
1,note_on,82,56,0
1,note_on,82,0,120
1,note_on,78,0,0
1,note_on,83,60,0
1,note_on,80,50,0
1,note_on,80,0,120
1,note_on,83,0,0
1,note_on,87,64,0
1,note_on,80,51,0
1,note_on,80,0,120
1,note_on,87,0,0
1,note_on,85,58,0
1,note_on,77,46,0
1,note_on,77,0,120
1,note_on,85,0,0
1,note_on,87,65,0
1,note_on,78,52,0
1,note_on,87,0,120
1,note_on,85,58,0
1,note_on,85,0,120
1,note_on,85,66,0
1,note_on,85,0,120
1,note_on,78,0,0
1,note_on,83,58,0
1,note_on,76,46,0
1,note_on,76,0,120
1,note_on,83,0,0
1,note_on,85,67,0
1,note_on,77,53,0
1,note_on,85,0,120
1,note_on,83,60,0
1,note_on,83,0,120
1,note_on,83,67,0
1,note_on,83,0,120
1,note_on,77,0,0
1,note_on,82,61,0
1,note_on,73,48,0
1,note_on,73,0,120
1,note_on,82,0,0
1,note_on,83,68,0
1,note_on,78,54,0
1,note_on,83,0,120
1,note_on,82,61,0
1,note_on,82,0,120
1,note_on,82,69,0
1,note_on,82,0,120
1,note_on,78,0,0
1,note_on,80,62,0
1,note_on,77,49,0
1,note_on,77,0,120
1,note_on,80,0,0
1,note_on,82,69,0
1,note_on,78,55,0
1,note_on,78,0,120
1,note_on,82,0,0
1,note_on,80,51,0
1,note_on,83,63,0
1,note_on,83,0,120
1,note_on,80,0,0
1,note_on,77,56,0
1,note_on,87,70,0
1,note_on,87,0,120
1,note_on,77,0,0
1,note_on,78,48,0
1,note_on,85,61,0
1,note_on,85,0,120
1,note_on,78,0,0
1,note_on,78,48,0
1,note_on,73,61,0
1,note_on,73,0,120
1,note_on,85,63,0
1,note_on,85,0,118
1,note_on,78,0,2
1,note_on,85,71,0
1,note_on,76,57,0
1,note_on,76,0,120
1,note_on,85,0,0
1,note_on,83,62,0
1,note_on,77,49,0
1,note_on,77,0,120
1,note_on,83,0,0
1,note_on,71,62,0
1,note_on,77,49,0
1,note_on,71,0,120
1,note_on,83,62,0
1,note_on,83,0,120
1,note_on,77,0,0
1,note_on,83,72,0
1,note_on,77,58,0
1,note_on,77,0,120
1,note_on,83,0,0
1,note_on,82,65,0
1,note_on,78,52,0
1,note_on,78,0,120
1,note_on,82,0,0
1,note_on,78,52,0
1,note_on,70,65,0
1,note_on,70,0,120
1,note_on,82,67,0
1,note_on,82,0,118
1,note_on,78,0,2
1,note_on,82,75,0
1,note_on,82,0,120
1,note_on,80,69,0
1,note_on,80,0,120
1,note_on,82,70,0
1,note_on,73,53,0
1,note_on,82,0,120
1,note_on,83,70,0
1,note_on,83,0,120
1,note_on,73,0,0
1,note_on,73,65,0
1,note_on,87,81,0
1,note_on,87,0,120
1,note_on,73,0,0
1,note_on,78,60,0
1,note_on,85,75,0
1,note_on,78,0,120
1,note_on,83,76,0
1,note_on,77,60,0
1,note_on,85,0,120
1,note_on,86,81,0
1,note_on,77,0,120
1,note_on,83,0,0
1,note_on,82,61,0
1,note_on,78,61,0
1,note_on,86,0,120
1,note_on,87,80,0
1,note_on,87,0,120
1,note_on,78,0,0
1,note_on,82,0,0
1,note_on,88,83,0
1,note_on,82,61,0
1,note_on,77,61,0
1,note_on,88,0,120
1,note_on,89,87,0
1,note_on,89,0,120
1,note_on,77,0,0
1,note_on,82,0,0
1,note_on,78,71,0
1,note_on,92,89,0
1,note_on,82,71,0
1,note_on,92,0,120
1,note_on,90,85,0
1,note_on,90,0,120
1,note_on,82,0,0
1,note_on,78,0,0
1,note_on,78,74,0
1,note_on,89,91,0
1,note_on,82,74,0
1,note_on,89,0,120
1,note_on,87,82,0
1,note_on,87,0,120
1,note_on,82,0,0
1,note_on,78,0,0
1,note_on,85,98,0
1,note_on,80,77,0
1,note_on,77,77,0
1,note_on,77,0,120
1,note_on,80,0,0
1,note_on,85,0,0
1,note_on,77,81,120
1,note_on,85,81,0
1,note_on,80,81,0
1,note_on,89,103,0
1,note_on,89,0,120
1,note_on,77,0,0
1,note_on,85,0,0
1,note_on,80,0,0
1,note_on,78,97,120
1,note_on,85,97,0
1,note_on,82,97,0
1,note_on,90,115,0
1,note_on,90,0,480
1,note_on,78,0,0
1,note_on,85,0,0
1,note_on,82,0,0
1,note_on,58,63,0
1,note_on,66,75,0
1,note_on,61,63,0
1,note_on,61,0,480
1,note_on,66,0,0
1,note_on,58,0,0
1,note_on,66,50,0
1,note_on,70,59,0
1,note_on,61,50,0
1,note_on,61,0,60
1,note_on,70,0,0
1,note_on,66,0,0
1,note_on,66,61,180
1,note_on,61,51,0
1,note_on,58,51,0
1,note_on,58,0,60
1,note_on,61,0,0
1,note_on,66,0,0
1,note_on,61,51,180
1,note_on,66,51,0
1,note_on,70,61,0
1,note_on,70,0,60
1,note_on,66,0,0
1,note_on,61,0,0
1,note_on,65,51,180
1,note_on,59,51,0
1,note_on,62,51,0
1,note_on,68,61,0
1,note_on,68,0,60
1,note_on,65,0,0
1,note_on,59,0,0
1,note_on,62,0,0
1,note_on,83,89,180
1,note_on,92,105,0
1,note_on,86,89,0
1,note_on,89,89,0
1,note_on,80,89,0
1,note_on,80,0,480
1,note_on,86,0,0
1,note_on,83,0,0
1,note_on,92,0,0
1,note_on,89,0,0
1,note_on,62,63,0
1,note_on,68,75,0
1,note_on,65,63,0
1,note_on,59,63,0
1,note_on,59,0,480
1,note_on,62,0,0
1,note_on,68,0,0
1,note_on,65,0,0
1,note_on,65,50,0
1,note_on,68,50,0
1,note_on,62,50,0
1,note_on,71,59,0
1,note_on,71,0,60
1,note_on,65,0,0
1,note_on,68,0,0
1,note_on,62,0,0
1,note_on,62,51,180
1,note_on,68,61,0
1,note_on,65,51,0
1,note_on,59,51,0
1,note_on,59,0,60
1,note_on,62,0,0
1,note_on,68,0,0
1,note_on,65,0,0
1,note_on,68,51,180
1,note_on,62,51,0
1,note_on,65,51,0
1,note_on,71,61,0
1,note_on,71,0,60
1,note_on,68,0,0
1,note_on,62,0,0
1,note_on,65,0,0
1,note_on,67,51,180
1,note_on,61,51,0
1,note_on,64,51,0
1,note_on,70,61,0
1,note_on,70,0,60
1,note_on,67,0,0
1,note_on,61,0,0
1,note_on,64,0,0
1,note_on,82,89,180
1,note_on,85,89,0
1,note_on,88,89,0
1,note_on,94,105,0
1,note_on,94,0,480
1,note_on,82,0,0
1,note_on,85,0,0
1,note_on,88,0,0
1,note_on,61,63,0
1,note_on,67,63,0
1,note_on,64,63,0
1,note_on,70,75,0
1,note_on,70,0,480
1,note_on,61,0,0
1,note_on,67,0,0
1,note_on,64,0,0
1,note_on,70,50,0
1,note_on,67,50,0
1,note_on,73,59,0
1,note_on,64,50,0
1,note_on,64,0,60
1,note_on,70,0,0
1,note_on,67,0,0
1,note_on,73,0,0
1,note_on,67,51,180
1,note_on,64,51,0
1,note_on,70,61,0
1,note_on,61,51,0
1,note_on,61,0,60
1,note_on,67,0,0
1,note_on,64,0,0
1,note_on,70,0,0
1,note_on,67,51,180
1,note_on,70,51,0
1,note_on,64,51,0
1,note_on,73,61,0
1,note_on,73,0,60
1,note_on,67,0,0
1,note_on,70,0,0
1,note_on,64,0,0
1,note_on,62,51,180
1,note_on,71,61,0
1,note_on,66,51,0
1,note_on,66,0,60
1,note_on,71,0,0
1,note_on,62,0,0
1,note_on,83,89,180
1,note_on,86,89,0
1,note_on,95,105,0
1,note_on,90,89,0
1,note_on,90,0,480
1,note_on,83,0,0
1,note_on,86,0,0
1,note_on,95,0,0
1,note_on,71,75,0
1,note_on,66,63,0
1,note_on,62,63,0
1,note_on,62,0,480
1,note_on,66,0,0
1,note_on,71,0,0
1,note_on,68,50,0
1,note_on,65,50,0
1,note_on,71,50,0
1,note_on,74,59,0
1,note_on,74,0,60
1,note_on,68,0,0
1,note_on,65,0,0
1,note_on,71,0,0
1,note_on,68,51,180
1,note_on,71,61,0
1,note_on,65,51,0
1,note_on,62,51,0
1,note_on,62,0,60
1,note_on,68,0,0
1,note_on,71,0,0
1,note_on,65,0,0
1,note_on,71,56,180
1,note_on,74,67,0
1,note_on,68,56,0
1,note_on,65,56,0
1,note_on,65,0,60
1,note_on,71,0,0
1,note_on,74,0,0
1,note_on,68,0,0
1,note_on,70,58,180
1,note_on,73,69,0
1,note_on,67,58,0
1,note_on,64,58,0
1,note_on,64,0,60
1,note_on,70,0,0
1,note_on,73,0,0
1,note_on,67,0,0
1,note_on,70,59,180
1,note_on,76,69,0
1,note_on,67,59,0
1,note_on,73,59,0
1,note_on,73,0,60
1,note_on,70,0,0
1,note_on,76,0,0
1,note_on,67,0,0
1,note_on,67,62,180
1,note_on,70,62,0
1,note_on,64,62,0
1,note_on,73,74,0
1,note_on,73,0,60
1,note_on,67,0,0
1,note_on,70,0,0
1,note_on,64,0,0
1,note_on,67,65,180
1,note_on,73,65,0
1,note_on,70,65,0
1,note_on,76,77,0
1,note_on,76,0,60
1,note_on,67,0,0
1,note_on,73,0,0
1,note_on,70,0,0
1,note_on,66,67,180
1,note_on,74,81,0
1,note_on,71,67,0
1,note_on,71,0,60
1,note_on,74,0,0
1,note_on,66,0,0
1,note_on,78,82,180
1,note_on,74,70,0
1,note_on,66,70,0
1,note_on,71,70,0
1,note_on,71,0,60
1,note_on,78,0,0
1,note_on,74,0,0
1,note_on,66,0,0
1,note_on,71,74,180
1,note_on,74,89,0
1,note_on,66,74,0
1,note_on,66,0,60
1,note_on,74,0,0
1,note_on,71,0,0
1,note_on,74,77,180
1,note_on,71,77,0
1,note_on,78,92,0
1,note_on,66,77,0
1,note_on,66,0,60
1,note_on,74,0,0
1,note_on,71,0,0
1,note_on,78,0,0
1,note_on,71,80,180
1,note_on,68,80,0
1,note_on,77,97,0
1,note_on,73,80,0
1,note_on,73,0,60
1,note_on,71,0,0
1,note_on,68,0,0
1,note_on,77,0,0
1,note_on,80,92,180
1,note_on,92,108,0
1,note_on,92,0,240
1,note_on,80,0,0
1,note_on,78,81,0
1,note_on,90,96,0
1,note_on,90,0,240
1,note_on,78,0,0
1,note_on,87,106,0
1,note_on,75,90,0
1,note_on,75,0,240
1,note_on,87,0,0
1,note_on,73,83,0
1,note_on,85,99,0
1,note_on,85,0,240
1,note_on,73,0,0
1,note_on,71,93,0
1,note_on,83,106,0
1,note_on,83,0,240
1,note_on,71,0,0
1,note_on,70,75,0
1,note_on,82,90,0
1,note_on,82,0,240
1,note_on,70,0,0
1,note_on,68,80,0
1,note_on,80,95,0
1,note_on,80,0,240
1,note_on,68,0,0
1,note_on,66,74,0
1,note_on,78,89,0
1,note_on,78,0,240
1,note_on,66,0,0
1,note_on,75,97,0
1,note_on,63,82,0
1,note_on,63,0,240
1,note_on,75,0,0
1,note_on,61,72,0
1,note_on,73,86,0
1,note_on,73,0,240
1,note_on,61,0,0
1,note_on,59,75,0
1,note_on,71,90,0
1,note_on,71,0,240
1,note_on,59,0,0
1,note_on,58,70,0
1,note_on,70,83,0
1,note_on,70,0,240
1,note_on,58,0,0
1,note_on,68,88,0
1,note_on,56,73,0
1,note_on,56,0,240
1,note_on,68,0,0
1,note_on,66,76,0
1,note_on,54,63,0
1,note_on,54,0,240
1,note_on,66,0,0
1,note_on,63,81,0
1,note_on,51,68,0
1,note_on,51,0,240
1,note_on,63,0,0
1,note_on,61,74,0
1,note_on,49,62,0
1,note_on,49,0,240
1,note_on,61,0,0
1,note_on,65,77,0
1,note_on,65,0,240
1,note_on,61,67,0
1,note_on,61,0,240
1,note_on,68,73,0
1,note_on,68,0,240
1,note_on,61,67,0
1,note_on,61,0,240
1,note_on,73,71,0
1,note_on,73,0,240
1,note_on,61,59,0
1,note_on,61,0,240
1,note_on,77,68,0
1,note_on,77,0,240
1,note_on,61,56,0
1,note_on,61,0,240
1,note_on,80,62,0
1,note_on,80,0,240
1,note_on,61,49,0
1,note_on,61,0,240
1,note_on,85,54,0
1,note_on,85,0,240
1,note_on,61,45,0
1,note_on,61,0,240
1,note_on,85,52,0
1,note_on,85,0,240
1,note_on,61,41,0
1,note_on,61,0,240
1,note_on,85,48,0
1,note_on,85,0,240
1,note_on,83,91,600
1,note_on,78,91,0
1,note_on,86,111,0
1,note_on,74,91,0
1,note_on,74,0,119
1,note_on,83,0,0
1,note_on,78,0,0
1,note_on,86,0,0
1,note_on,78,82,1
1,note_on,86,99,0
1,note_on,74,82,0
1,note_on,83,82,0
1,note_on,83,0,240
1,note_on,78,0,0
1,note_on,86,0,0
1,note_on,74,0,0
1,note_on,83,84,0
1,note_on,88,105,0
1,note_on,74,84,0
1,note_on,78,84,0
1,note_on,78,0,45
1,note_on,83,0,0
1,note_on,88,0,0
1,note_on,74,0,0
1,note_on,78,86,75
1,note_on,74,86,0
1,note_on,83,86,0
1,note_on,86,102,0
1,note_on,86,0,45
1,note_on,78,0,0
1,note_on,74,0,0
1,note_on,83,0,0
1,note_on,86,111,75
1,note_on,78,91,0
1,note_on,83,91,0
1,note_on,74,91,0
1,note_on,74,0,120
1,note_on,86,0,0
1,note_on,78,0,0
1,note_on,83,0,0
1,note_on,83,101,120
1,note_on,74,84,0
1,note_on,78,84,0
1,note_on,71,84,0
1,note_on,71,0,120
1,note_on,83,0,0
1,note_on,74,0,0
1,note_on,78,0,0
1,note_on,78,33,840
1,note_on,83,33,0
1,note_on,74,33,0
1,note_on,86,39,0
1,note_on,86,0,120
1,note_on,78,0,0
1,note_on,83,0,0
1,note_on,74,0,0
1,note_on,86,45,360
1,note_on,78,37,0
1,note_on,83,37,0
1,note_on,74,37,0
1,note_on,74,0,120
1,note_on,86,0,0
1,note_on,78,0,0
1,note_on,83,0,0
1,note_on,83,42,360
1,note_on,86,50,0
1,note_on,79,42,0
1,note_on,74,42,0
1,note_on,74,0,120
1,note_on,83,0,0
1,note_on,86,0,0
1,note_on,79,0,0
1,note_on,86,54,360
1,note_on,83,46,0
1,note_on,79,46,0
1,note_on,74,46,0
1,note_on,74,0,120
1,note_on,86,0,0
1,note_on,83,0,0
1,note_on,79,0,0
1,note_on,83,46,360
1,note_on,74,46,0
1,note_on,79,46,0
1,note_on,86,55,0
1,note_on,86,0,120
1,note_on,83,0,0
1,note_on,74,0,0
1,note_on,79,0,0
1,note_on,79,51,360
1,note_on,74,51,0
1,note_on,86,60,0
1,note_on,83,51,0
1,note_on,83,0,120
1,note_on,79,0,0
1,note_on,74,0,0
1,note_on,86,0,0
1,note_on,84,50,360
1,note_on,75,50,0
1,note_on,79,50,0
1,note_on,87,60,0
1,note_on,87,0,120
1,note_on,84,0,0
1,note_on,75,0,0
1,note_on,79,0,0
1,note_on,79,55,360
1,note_on,75,55,0
1,note_on,87,65,0
1,note_on,84,55,0
1,note_on,84,0,120
1,note_on,79,0,0
1,note_on,75,0,0
1,note_on,87,0,0
1,note_on,87,65,360
1,note_on,84,55,0
1,note_on,75,55,0
1,note_on,79,55,0
1,note_on,79,0,120
1,note_on,87,0,0
1,note_on,84,0,0
1,note_on,75,0,0
1,note_on,84,60,360
1,note_on,79,60,0
1,note_on,75,60,0
1,note_on,87,71,0
1,note_on,87,0,120
1,note_on,84,0,0
1,note_on,79,0,0
1,note_on,75,0,0
1,note_on,75,59,360
1,note_on,87,70,0
1,note_on,84,59,0
1,note_on,81,59,0
1,note_on,81,0,120
1,note_on,75,0,0
1,note_on,87,0,0
1,note_on,84,0,0
1,note_on,75,64,360
1,note_on,84,65,0
1,note_on,81,65,0
1,note_on,87,76,0
1,note_on,87,0,120
1,note_on,75,0,0
1,note_on,84,0,0
1,note_on,81,0,0
1,note_on,87,75,360
1,note_on,75,63,0
1,note_on,81,63,0
1,note_on,84,63,0
1,note_on,84,0,120
1,note_on,87,0,0
1,note_on,75,0,0
1,note_on,81,0,0
1,note_on,81,69,360
1,note_on,87,69,0
1,note_on,84,69,0
1,note_on,93,81,0
1,note_on,93,0,120
1,note_on,81,0,0
1,note_on,87,0,0
1,note_on,84,0,0
1,note_on,84,68,360
1,note_on,96,80,0
1,note_on,87,68,0
1,note_on,93,68,0
1,note_on,93,0,120
1,note_on,84,0,0
1,note_on,96,0,0
1,note_on,87,0,0
1,note_on,87,74,360
1,note_on,96,74,0
1,note_on,99,87,0
1,note_on,93,74,0
1,note_on,93,0,120
1,note_on,87,0,0
1,note_on,96,0,0
1,note_on,99,0,0
1,note_on,87,75,120
1,note_on,99,88,0
1,note_on,93,75,0
1,note_on,96,75,0
1,note_on,96,0,240
1,note_on,87,0,0
1,note_on,99,0,0
1,note_on,93,0,0
1,note_on,84,57,0
1,note_on,87,57,0
1,note_on,87,0,120
1,note_on,84,0,0
1,note_on,83,57,0
1,note_on,86,57,0
1,note_on,86,0,120
1,note_on,83,0,0
1,note_on,84,63,0
1,note_on,87,63,0
1,note_on,87,0,240
1,note_on,84,0,0
1,note_on,69,52,0
1,note_on,72,52,0
1,note_on,72,0,120
1,note_on,69,0,0
1,note_on,73,52,0
1,note_on,70,52,0
1,note_on,70,0,120
1,note_on,73,0,0
1,note_on,72,58,0
1,note_on,69,58,0
1,note_on,69,0,240
1,note_on,72,0,0
1,note_on,72,47,0
1,note_on,75,47,0
1,note_on,75,0,120
1,note_on,72,0,0
1,note_on,74,47,0
1,note_on,71,47,0
1,note_on,71,0,120
1,note_on,74,0,0
1,note_on,75,56,0
1,note_on,72,56,0
1,note_on,72,0,240
1,note_on,75,0,0
1,note_on,81,47,0
1,note_on,81,0,120
1,note_on,84,47,0
1,note_on,84,0,120
1,note_on,87,57,0
1,note_on,87,0,120
1,note_on,89,48,0
1,note_on,89,0,120
1,note_on,87,49,0
1,note_on,87,0,120
1,note_on,86,50,0
1,note_on,86,0,120
1,note_on,87,65,0
1,note_on,87,0,120
1,note_on,89,57,0
1,note_on,89,0,120
1,note_on,91,66,0
1,note_on,91,0,120
1,note_on,87,58,0
1,note_on,87,0,120
1,note_on,84,69,0
1,note_on,84,0,120
1,note_on,86,56,0
1,note_on,86,0,120
1,note_on,87,66,0
1,note_on,87,0,120
1,note_on,84,54,0
1,note_on,84,0,120
1,note_on,81,66,0
1,note_on,81,0,120
1,note_on,82,53,0
1,note_on,82,0,120
1,note_on,84,61,0
1,note_on,84,0,120
1,note_on,81,53,0
1,note_on,81,0,120
1,note_on,75,47,0
1,note_on,75,0,120
1,note_on,77,47,0
1,note_on,77,0,120
1,note_on,79,58,0
1,note_on,79,0,120
1,note_on,75,47,0
1,note_on,75,0,120
1,note_on,72,47,0
1,note_on,72,0,120
1,note_on,74,47,0
1,note_on,74,0,120
1,note_on,75,53,0
1,note_on,75,0,120
1,note_on,72,47,0
1,note_on,72,0,120
1,note_on,69,47,0
1,note_on,69,0,120
1,note_on,70,47,0
1,note_on,70,0,120
1,note_on,72,52,0
1,note_on,72,0,120
1,note_on,69,47,0
1,note_on,69,0,120
1,note_on,65,47,0
1,note_on,63,47,0
1,note_on,60,47,0
1,note_on,60,0,240
1,note_on,63,0,0
1,note_on,65,0,0
1,note_on,86,57,240
1,note_on,86,0,120
1,note_on,87,48,0
1,note_on,87,0,120
1,note_on,86,49,0
1,note_on,86,0,120
1,note_on,84,50,0
1,note_on,84,0,120
1,note_on,86,65,0
1,note_on,86,0,120
1,note_on,87,57,0
1,note_on,87,0,120
1,note_on,89,66,0
1,note_on,89,0,120
1,note_on,86,58,0
1,note_on,86,0,120
1,note_on,82,69,0
1,note_on,82,0,120
1,note_on,84,56,0
1,note_on,84,0,120
1,note_on,86,66,0
1,note_on,86,0,120
1,note_on,82,54,0
1,note_on,82,0,120
1,note_on,77,66,0
1,note_on,77,0,120
1,note_on,81,53,0
1,note_on,81,0,120
1,note_on,82,61,0
1,note_on,82,0,120
1,note_on,77,53,0
1,note_on,77,0,120
1,note_on,74,47,0
1,note_on,74,0,120
1,note_on,75,47,0
1,note_on,75,0,120
1,note_on,77,58,0
1,note_on,77,0,120
1,note_on,74,47,0
1,note_on,74,0,120
1,note_on,70,47,0
1,note_on,70,0,120
1,note_on,72,47,0
1,note_on,72,0,120
1,note_on,74,53,0
1,note_on,74,0,120
1,note_on,70,47,0
1,note_on,70,0,120
1,note_on,65,47,0
1,note_on,65,0,120
1,note_on,69,47,0
1,note_on,69,0,120
1,note_on,70,52,0
1,note_on,70,0,120
1,note_on,62,47,0
1,note_on,62,0,120
1,note_on,70,40,0
1,note_on,70,0,120
1,note_on,72,40,0
1,note_on,72,0,120
1,note_on,74,45,0
1,note_on,74,0,118
1,note_on,70,40,2
1,note_on,70,0,120
1,note_on,65,40,0
1,note_on,72,46,0
1,note_on,69,40,0
1,note_on,69,0,240
1,note_on,72,0,0
1,note_on,65,0,0
1,note_on,91,52,0
1,note_on,91,0,120
1,note_on,89,47,0
1,note_on,89,0,120
1,note_on,91,40,0
1,note_on,91,0,120
1,note_on,89,40,0
1,note_on,89,0,120
1,note_on,87,45,0
1,note_on,87,0,120
1,note_on,91,40,0
1,note_on,91,0,120
1,note_on,87,52,0
1,note_on,87,0,120
1,note_on,86,42,0
1,note_on,86,0,120
1,note_on,84,49,0
1,note_on,84,0,120
1,note_on,87,43,0
1,note_on,87,0,120
1,note_on,84,48,0
1,note_on,84,0,120
1,note_on,82,40,0
1,note_on,82,0,120
1,note_on,81,45,0
1,note_on,81,0,120
1,note_on,84,40,0
1,note_on,84,0,120
1,note_on,78,52,0
1,note_on,78,0,120
1,note_on,77,42,0
1,note_on,77,0,120
1,note_on,75,49,0
1,note_on,75,0,120
1,note_on,78,43,0
1,note_on,78,0,120
1,note_on,75,48,0
1,note_on,75,0,120
1,note_on,74,40,0
1,note_on,74,0,120
1,note_on,72,45,0
1,note_on,72,0,120
1,note_on,75,40,0
1,note_on,75,0,120
1,note_on,72,52,0
1,note_on,72,0,120
1,note_on,70,42,0
1,note_on,70,0,120
1,note_on,69,49,0
1,note_on,69,0,120
1,note_on,72,43,0
1,note_on,72,0,120
1,note_on,63,48,0
1,note_on,63,0,120
1,note_on,62,40,0
1,note_on,62,0,120
1,note_on,60,45,0
1,note_on,60,0,120
1,note_on,63,40,0
1,note_on,63,0,120
1,note_on,65,40,0
1,note_on,70,46,0
1,note_on,70,0,240
1,note_on,65,0,0
1,note_on,89,52,0
1,note_on,89,0,120
1,note_on,87,47,0
1,note_on,87,0,120
1,note_on,89,40,0
1,note_on,89,0,120
1,note_on,87,40,0
1,note_on,87,0,120
1,note_on,86,45,0
1,note_on,86,0,120
1,note_on,89,40,0
1,note_on,89,0,120
1,note_on,86,52,0
1,note_on,86,0,120
1,note_on,84,42,0
1,note_on,84,0,120
1,note_on,82,49,0
1,note_on,82,0,120
1,note_on,86,43,0
1,note_on,86,0,120
1,note_on,77,48,0
1,note_on,77,0,120
1,note_on,75,40,0
1,note_on,75,0,120
1,note_on,74,45,0
1,note_on,74,0,120
1,note_on,77,40,0
1,note_on,77,0,120
1,note_on,82,52,0
1,note_on,82,0,120
1,note_on,79,42,0
1,note_on,79,0,120
1,note_on,77,49,0
1,note_on,77,0,120
1,note_on,82,43,0
1,note_on,82,0,120
1,note_on,74,48,0
1,note_on,74,0,120
1,note_on,72,40,0
1,note_on,72,0,120
1,note_on,70,45,0
1,note_on,70,0,120
1,note_on,74,40,0
1,note_on,74,0,120
1,note_on,86,62,0
1,note_on,74,62,0
1,note_on,86,0,120
1,note_on,84,51,0
1,note_on,84,0,120
1,note_on,82,61,0
1,note_on,82,0,120
1,note_on,86,52,0
1,note_on,86,0,120
1,note_on,74,0,0
1,note_on,87,52,0
1,note_on,78,62,0
1,note_on,87,0,120
1,note_on,86,59,0
1,note_on,86,0,120
1,note_on,87,62,0
1,note_on,87,0,120
1,note_on,89,65,0
1,note_on,89,0,120
1,note_on,78,0,0
1,note_on,77,51,0
1,note_on,89,51,0
1,note_on,89,0,240
1,note_on,77,0,0
1,note_on,72,40,960
1,note_on,69,34,0
1,note_on,69,0,240
1,note_on,72,0,0
1,note_on,74,38,0
1,note_on,70,32,0
1,note_on,70,0,120
1,note_on,74,0,0
1,note_on,94,47,120
1,note_on,94,0,120
1,note_on,93,44,0
1,note_on,93,0,120
1,note_on,94,47,0
1,note_on,94,0,240
1,note_on,91,39,0
1,note_on,82,33,0
1,note_on,79,33,0
1,note_on,79,0,240
1,note_on,82,0,0
1,note_on,91,0,0
1,note_on,81,35,0
1,note_on,89,42,0
1,note_on,77,35,0
1,note_on,77,0,240
1,note_on,89,0,0
1,note_on,81,0,0
1,note_on,88,40,0
1,note_on,79,30,0
1,note_on,76,30,0
1,note_on,76,0,240
1,note_on,79,0,0
1,note_on,88,0,0
1,note_on,79,38,0
1,note_on,91,45,0
1,note_on,82,38,0
1,note_on,82,0,240
1,note_on,91,0,0
1,note_on,79,0,0
1,note_on,81,30,0
1,note_on,77,30,0
1,note_on,89,36,0
1,note_on,89,0,240
1,note_on,77,0,0
1,note_on,81,0,0
1,note_on,81,30,0
1,note_on,89,36,0
1,note_on,89,0,240
1,note_on,81,0,0
1,note_on,70,38,0
1,note_on,77,45,0
1,note_on,77,0,120
1,note_on,70,0,0
1,note_on,75,40,0
1,note_on,72,34,0
1,note_on,72,0,120
1,note_on,75,0,0
1,note_on,74,46,0
1,note_on,74,0,240
1,note_on,82,51,0
1,note_on,70,43,0
1,note_on,82,0,240
1,note_on,79,46,0
1,note_on,79,0,120
1,note_on,70,0,0
1,note_on,75,43,120
1,note_on,87,51,0
1,note_on,87,0,120
1,note_on,75,0,0
1,note_on,79,37,0
1,note_on,84,44,0
1,note_on,84,0,120
1,note_on,79,0,0
1,note_on,81,51,0
1,note_on,81,0,240
1,note_on,77,47,0
1,note_on,89,56,0
1,note_on,89,0,240
1,note_on,86,53,0
1,note_on,86,0,120
1,note_on,77,0,0
1,note_on,82,52,120
1,note_on,82,0,120
1,note_on,81,45,0
1,note_on,81,0,120
1,note_on,82,52,0
1,note_on,82,0,240
1,note_on,79,37,0
1,note_on,91,47,0
1,note_on,91,0,240
1,note_on,79,0,0
1,note_on,87,51,0
1,note_on,75,37,0
1,note_on,79,37,0
1,note_on,79,0,240
1,note_on,75,0,0
1,note_on,87,0,0
1,note_on,86,44,0
1,note_on,81,37,0
1,note_on,74,37,0
1,note_on,74,0,238
1,note_on,81,0,0
1,note_on,86,0,0
1,note_on,74,36,2
1,note_on,81,44,0
1,note_on,86,44,0
1,note_on,81,0,240
1,note_on,74,0,0
1,note_on,84,50,0
1,note_on,84,0,120
1,note_on,82,44,0
1,note_on,82,0,118
1,note_on,82,49,2
1,note_on,82,0,240
1,note_on,86,0,0
1,note_on,91,55,0
1,note_on,82,46,0
1,note_on,85,46,0
1,note_on,85,0,240
1,note_on,91,0,0
1,note_on,84,44,0
1,note_on,82,0,240
1,note_on,82,50,0
1,note_on,82,0,120
1,note_on,80,44,0
1,note_on,80,0,118
1,note_on,80,49,2
1,note_on,80,0,240
1,note_on,84,0,0
1,note_on,80,55,0
1,note_on,89,55,0
1,note_on,83,55,0
1,note_on,83,0,240
1,note_on,89,0,0
1,note_on,82,44,0
1,note_on,80,0,240
1,note_on,80,50,0
1,note_on,80,0,120
1,note_on,79,44,0
1,note_on,79,0,118
1,note_on,79,49,2
1,note_on,79,0,240
1,note_on,82,0,0
1,note_on,79,46,0
1,note_on,88,55,0
1,note_on,82,46,0
1,note_on,82,0,240
1,note_on,88,0,0
1,note_on,81,44,0
1,note_on,79,0,240
1,note_on,79,50,0
1,note_on,79,0,120
1,note_on,77,44,0
1,note_on,77,0,118
1,note_on,77,49,2
1,note_on,77,0,240
1,note_on,81,0,0
1,note_on,80,46,0
1,note_on,86,55,0
1,note_on,77,46,0
1,note_on,77,0,240
1,note_on,86,0,0
1,note_on,80,0,0
1,note_on,80,55,0
1,note_on,77,46,0
1,note_on,80,0,120
1,note_on,79,46,0
1,note_on,77,0,120
1,note_on,75,46,0
1,note_on,79,0,120
1,note_on,84,48,0
1,note_on,84,0,120
1,note_on,75,0,0
1,note_on,78,55,0
1,note_on,75,46,0
1,note_on,78,0,120
1,note_on,77,47,0
1,note_on,75,0,120
1,note_on,74,46,0
1,note_on,77,0,120
1,note_on,82,49,0
1,note_on,82,0,120
1,note_on,74,0,0
1,note_on,77,56,0
1,note_on,77,0,120
1,note_on,89,49,0
1,note_on,89,0,120
1,note_on,88,50,0
1,note_on,88,0,120
1,note_on,87,50,0
1,note_on,87,0,120
1,note_on,84,51,0
1,note_on,84,0,120
1,note_on,81,52,0
1,note_on,81,0,120
1,note_on,78,53,0
1,note_on,78,0,120
1,note_on,77,54,0
1,note_on,77,0,120
1,note_on,76,55,0
1,note_on,76,0,120
1,note_on,75,56,0
1,note_on,75,0,120
1,note_on,72,56,0
1,note_on,72,0,120
1,note_on,69,57,0
1,note_on,69,0,120
1,note_on,66,61,0
1,note_on,70,51,0
1,note_on,66,0,120
1,note_on,65,47,0
1,note_on,65,0,120
1,note_on,70,0,0
1,note_on,79,58,0
1,note_on,70,49,0
1,note_on,79,0,120
1,note_on,77,47,0
1,note_on,77,0,120
1,note_on,70,0,0
1,note_on,77,56,0
1,note_on,77,0,120
1,note_on,89,50,0
1,note_on,89,0,120
1,note_on,88,51,0
1,note_on,88,0,120
1,note_on,87,52,0
1,note_on,87,0,120
1,note_on,84,53,0
1,note_on,84,0,120
1,note_on,81,54,0
1,note_on,81,0,120
1,note_on,78,55,0
1,note_on,78,0,120
1,note_on,77,57,0
1,note_on,77,0,120
1,note_on,76,58,0
1,note_on,76,0,120
1,note_on,75,59,0
1,note_on,75,0,120
1,note_on,72,60,0
1,note_on,72,0,120
1,note_on,69,61,0
1,note_on,69,0,120
1,note_on,66,64,0
1,note_on,70,64,0
1,note_on,66,0,120
1,note_on,65,47,0
1,note_on,65,0,120
1,note_on,70,0,0
1,note_on,70,49,0
1,note_on,79,58,0
1,note_on,79,0,120
1,note_on,77,47,0
1,note_on,77,0,120
1,note_on,70,0,0
1,note_on,77,52,0
1,note_on,77,0,120
1,note_on,74,45,0
1,note_on,82,54,0
1,note_on,82,0,120
1,note_on,74,0,0
1,note_on,77,49,0
1,note_on,86,58,0
1,note_on,86,0,120
1,note_on,77,0,0
1,note_on,84,52,0
1,note_on,75,44,0
1,note_on,75,0,120
1,note_on,84,0,0
1,note_on,82,58,0
1,note_on,74,58,0
1,note_on,74,0,120
1,note_on,78,50,0
1,note_on,78,0,120
1,note_on,79,55,0
1,note_on,79,0,120
1,note_on,74,50,0
1,note_on,74,0,120
1,note_on,73,54,0
1,note_on,73,0,120
1,note_on,78,58,0
1,note_on,78,0,120
1,note_on,79,58,0
1,note_on,79,0,120
1,note_on,73,53,0
1,note_on,73,0,120
1,note_on,82,0,0
1,note_on,72,56,0
1,note_on,72,0,120
1,note_on,76,50,0
1,note_on,76,0,120
1,note_on,77,60,0
1,note_on,77,0,120
1,note_on,89,54,0
1,note_on,89,0,120
1,note_on,89,61,0
1,note_on,89,0,120
1,note_on,101,48,0
1,note_on,101,0,120
1,note_on,100,49,0
1,note_on,100,0,120
1,note_on,99,50,0
1,note_on,99,0,120
1,note_on,96,51,0
1,note_on,96,0,120
1,note_on,93,51,0
1,note_on,93,0,120
1,note_on,90,52,0
1,note_on,90,0,120
1,note_on,89,53,0
1,note_on,89,0,120
1,note_on,88,55,0
1,note_on,88,0,120
1,note_on,87,60,0
1,note_on,87,0,120
1,note_on,84,64,0
1,note_on,84,0,120
1,note_on,81,67,0
1,note_on,81,0,120
1,note_on,82,60,0
1,note_on,78,72,0
1,note_on,78,0,120
1,note_on,77,51,0
1,note_on,77,0,120
1,note_on,82,0,0
1,note_on,91,63,0
1,note_on,82,53,0
1,note_on,91,0,120
1,note_on,89,51,0
1,note_on,89,0,120
1,note_on,82,0,0
1,note_on,89,48,120
1,note_on,89,0,120
1,note_on,88,49,0
1,note_on,88,0,120
1,note_on,87,50,0
1,note_on,87,0,120
1,note_on,84,51,0
1,note_on,84,0,120
1,note_on,81,51,0
1,note_on,81,0,120
1,note_on,78,52,0
1,note_on,78,0,120
1,note_on,77,53,0
1,note_on,77,0,120
1,note_on,76,57,0
1,note_on,76,0,120
1,note_on,75,59,0
1,note_on,75,0,120
1,note_on,72,61,0
1,note_on,72,0,120
1,note_on,69,63,0
1,note_on,69,0,120
1,note_on,70,54,0
1,note_on,66,67,0
1,note_on,66,0,120
1,note_on,65,51,0
1,note_on,65,0,120
1,note_on,70,0,0
1,note_on,79,63,0
1,note_on,70,53,0
1,note_on,79,0,120
1,note_on,77,51,0
1,note_on,77,0,120
1,note_on,70,0,0
1,note_on,77,56,0
1,note_on,77,0,120
1,note_on,82,54,0
1,note_on,74,45,0
1,note_on,74,0,120
1,note_on,82,0,0
1,note_on,77,49,0
1,note_on,86,58,0
1,note_on,86,0,120
1,note_on,77,0,0
1,note_on,84,52,0
1,note_on,75,44,0
1,note_on,75,0,120
1,note_on,84,0,0
1,note_on,74,58,0
1,note_on,82,58,0
1,note_on,74,0,120
1,note_on,78,50,0
1,note_on,78,0,120
1,note_on,79,55,0
1,note_on,79,0,120
1,note_on,74,50,0
1,note_on,74,0,120
1,note_on,73,54,0
1,note_on,73,0,120
1,note_on,78,58,0
1,note_on,78,0,120
1,note_on,79,58,0
1,note_on,79,0,120
1,note_on,73,53,0
1,note_on,73,0,120
1,note_on,82,0,0
1,note_on,72,56,0
1,note_on,81,54,0
1,note_on,72,0,120
1,note_on,77,50,0
1,note_on,77,0,120
1,note_on,81,0,0
1,note_on,82,54,0
1,note_on,70,60,0
1,note_on,70,0,120
1,note_on,75,50,0
1,note_on,75,0,120
1,note_on,82,0,0
1,note_on,82,54,0
1,note_on,82,0,120
1,note_on,87,57,0
1,note_on,79,47,0
1,note_on,79,0,120
1,note_on,87,0,0
1,note_on,82,52,0
1,note_on,91,62,0
1,note_on,91,0,120
1,note_on,82,0,0
1,note_on,89,56,0
1,note_on,80,47,0
1,note_on,80,0,120
1,note_on,89,0,0
1,note_on,87,63,0
1,note_on,79,63,0
1,note_on,79,0,120
1,note_on,83,55,0
1,note_on,83,0,120
1,note_on,84,61,0
1,note_on,84,0,120
1,note_on,79,56,0
1,note_on,79,0,120
1,note_on,78,61,0
1,note_on,78,0,120
1,note_on,83,64,0
1,note_on,83,0,120
1,note_on,84,66,0
1,note_on,84,0,120
1,note_on,78,62,0
1,note_on,78,0,120
1,note_on,87,0,0
1,note_on,77,66,0
1,note_on,86,63,0
1,note_on,77,0,120
1,note_on,82,59,0
1,note_on,82,0,120
1,note_on,86,0,0
1,note_on,75,66,0
1,note_on,87,64,0
1,note_on,75,0,120
1,note_on,80,60,0
1,note_on,80,0,120
1,note_on,87,0,0
1,note_on,87,63,0
1,note_on,84,55,120
1,note_on,84,0,120
1,note_on,87,0,0
1,note_on,87,60,0
1,note_on,92,71,0
1,note_on,87,0,120
1,note_on,85,55,0
1,note_on,85,0,120
1,note_on,92,0,0
1,note_on,85,68,0
1,note_on,92,73,0
1,note_on,85,0,120
1,note_on,83,63,0
1,note_on,83,0,120
1,note_on,82,70,0
1,note_on,82,0,120
1,note_on,83,65,0
1,note_on,83,0,120
1,note_on,83,70,0
1,note_on,83,0,120
1,note_on,88,73,0
1,note_on,88,0,120
1,note_on,89,77,0
1,note_on,89,0,120
1,note_on,83,71,0
1,note_on,83,0,120
1,note_on,92,0,0
1,note_on,91,78,0
1,note_on,82,75,0
1,note_on,82,0,120
1,note_on,86,68,0
1,note_on,86,0,120
1,note_on,87,82,0
1,note_on,87,0,120
1,note_on,82,69,0
1,note_on,82,0,120
1,note_on,79,83,0
1,note_on,79,0,240
1,note_on,91,0,0
1,note_on,91,93,0
1,note_on,87,79,0
1,note_on,79,79,0
1,note_on,82,79,0
1,note_on,82,0,240
1,note_on,91,0,0
1,note_on,87,0,0
1,note_on,79,0,0
1,note_on,86,74,0
1,note_on,89,88,0
1,note_on,89,0,240
1,note_on,86,0,0
1,note_on,91,86,0
1,note_on,87,74,0
1,note_on,87,0,120
1,note_on,91,0,0
1,note_on,89,78,0
1,note_on,92,92,0
1,note_on,92,0,120
1,note_on,89,0,0
1,note_on,94,96,0
1,note_on,91,81,0
1,note_on,91,0,120
1,note_on,94,0,0
1,note_on,91,91,120
1,note_on,87,77,0
1,note_on,87,0,120
1,note_on,91,0,0
1,note_on,91,93,840
1,note_on,79,79,0
1,note_on,82,79,0
1,note_on,87,79,0
1,note_on,87,0,240
1,note_on,91,0,0
1,note_on,79,0,0
1,note_on,82,0,0
1,note_on,89,88,0
1,note_on,86,74,0
1,note_on,86,0,240
1,note_on,89,0,0
1,note_on,87,74,0
1,note_on,91,86,0
1,note_on,91,0,120
1,note_on,87,0,0
1,note_on,89,78,0
1,note_on,92,92,0
1,note_on,92,0,120
1,note_on,89,0,0
1,note_on,91,81,0
1,note_on,94,96,0
1,note_on,94,0,120
1,note_on,91,0,0
1,note_on,79,86,120
1,note_on,70,86,0
1,note_on,72,86,0
1,note_on,82,103,0
1,note_on,82,0,240
1,note_on,79,0,0
1,note_on,70,0,0
1,note_on,72,0,0
1,note_on,76,86,240
1,note_on,70,86,0
1,note_on,79,86,0
1,note_on,82,103,0
1,note_on,82,0,240
1,note_on,76,0,0
1,note_on,70,0,0
1,note_on,79,0,0
1,note_on,82,103,240
1,note_on,74,86,0
1,note_on,77,86,0
1,note_on,70,86,0
1,note_on,70,0,240
1,note_on,82,0,0
1,note_on,74,0,0
1,note_on,77,0,0
1,note_on,72,79,240
1,note_on,82,94,0
1,note_on,70,79,0
1,note_on,76,79,0
1,note_on,76,0,240
1,note_on,72,0,0
1,note_on,82,0,0
1,note_on,70,0,0
1,note_on,74,65,0
1,note_on,82,77,0
1,note_on,70,65,0
1,note_on,77,65,0
1,note_on,77,0,480
1,note_on,74,0,0
1,note_on,82,0,0
1,note_on,70,0,0
1,note_on,77,64,0
1,note_on,74,54,0
1,note_on,74,0,720
1,note_on,77,0,0
1,note_on,74,63,0
1,note_on,74,0,118
1,note_on,77,56,122
1,note_on,77,0,120
1,note_on,81,57,0
1,note_on,81,0,120
1,note_on,82,58,0
1,note_on,82,0,120
1,note_on,86,59,0
1,note_on,86,0,120
1,note_on,88,60,0
1,note_on,88,0,120
1,note_on,89,61,0
1,note_on,89,0,120
1,note_on,91,62,0
1,note_on,91,0,120
1,note_on,89,62,0
1,note_on,89,0,120
1,note_on,93,63,0
1,note_on,93,0,120
1,note_on,94,64,0
1,note_on,94,0,120
1,note_on,96,65,0
1,note_on,96,0,120
1,note_on,94,66,0
1,note_on,94,0,120
1,note_on,97,67,0
1,note_on,97,0,120
1,note_on,98,68,0
1,note_on,98,0,120
1,note_on,99,69,0
1,note_on,99,0,120
1,note_on,98,70,0
1,note_on,98,0,120
1,note_on,101,71,0
1,note_on,101,0,240
1,note_on,75,70,0
1,note_on,72,59,0
1,note_on,72,0,240
1,note_on,75,0,0
1,note_on,74,58,0
1,note_on,86,59,480
1,note_on,86,0,480
1,note_on,74,0,0
1,note_on,87,57,0
1,note_on,75,48,0
1,note_on,75,0,480
1,note_on,87,0,0
1,note_on,90,61,0
1,note_on,78,51,0
1,note_on,78,0,480
1,note_on,90,0,0
1,note_on,82,62,0
1,note_on,77,57,480
1,note_on,74,51,0
1,note_on,74,0,480
1,note_on,77,0,0
1,note_on,82,0,0
1,note_on,78,59,0
1,note_on,90,60,240
1,note_on,90,0,240
1,note_on,78,0,0
1,note_on,87,63,0
1,note_on,75,53,0
1,note_on,75,0,480
1,note_on,87,0,0
1,note_on,73,56,0
1,note_on,85,66,0
1,note_on,85,0,480
1,note_on,73,0,0
1,note_on,86,59,0
1,note_on,74,56,0
1,note_on,74,0,480
1,note_on,86,0,0
1,note_on,77,54,0
1,note_on,89,64,0
1,note_on,89,0,480
1,note_on,77,0,0
1,note_on,87,63,0
1,note_on,75,53,0
1,note_on,75,0,360
1,note_on,87,0,0
1,note_on,72,48,0
1,note_on,84,57,0
1,note_on,84,0,120
1,note_on,72,0,0
1,note_on,86,58,0
1,note_on,82,49,0
1,note_on,77,49,0
1,note_on,82,0,81
1,note_on,84,42,0
1,note_on,84,0,80
1,note_on,82,49,0
1,note_on,84,44,80
1,note_on,82,0,1
1,note_on,84,0,80
1,note_on,82,49,0
1,note_on,82,0,80
1,note_on,84,44,0
1,note_on,82,50,78
1,note_on,84,0,3
1,note_on,82,0,78
1,note_on,84,44,0
1,note_on,84,0,80
1,note_on,82,50,0
1,note_on,84,46,80
1,note_on,82,0,1
1,note_on,84,0,80
1,note_on,82,51,0
1,note_on,82,0,80
1,note_on,84,45,0
1,note_on,77,0,78
1,note_on,86,0,0
1,note_on,75,56,0
1,note_on,82,51,0
1,note_on,87,67,0
1,note_on,84,0,3
1,note_on,82,0,78
1,note_on,84,44,0
1,note_on,84,0,80
1,note_on,82,52,0
1,note_on,84,47,80
1,note_on,82,0,1
1,note_on,84,0,80
1,note_on,82,52,0
1,note_on,82,0,80
1,note_on,84,47,0
1,note_on,75,0,78
1,note_on,87,0,0
1,note_on,79,62,0
1,note_on,82,53,0
1,note_on,91,73,0
1,note_on,84,0,3
1,note_on,82,0,78
1,note_on,84,47,0
1,note_on,84,0,80
1,note_on,82,54,0
1,note_on,84,48,80
1,note_on,82,0,1
1,note_on,84,0,80
1,note_on,82,54,0
1,note_on,82,0,80
1,note_on,84,48,0
1,note_on,79,0,78
1,note_on,91,0,0
1,note_on,82,55,0
1,note_on,94,85,0
1,note_on,84,0,3
1,note_on,82,0,78
1,note_on,84,47,0
1,note_on,84,0,80
1,note_on,82,55,0
1,note_on,84,50,80
1,note_on,82,0,1
1,note_on,84,0,80
1,note_on,82,56,0
1,note_on,82,0,80
1,note_on,84,51,0
1,note_on,82,56,78
1,note_on,84,0,3
1,note_on,82,0,78
1,note_on,84,50,0
1,note_on,84,0,80
1,note_on,82,57,0
1,note_on,84,51,80
1,note_on,82,0,1
1,note_on,84,0,80
1,note_on,82,57,0
1,note_on,82,0,80
1,note_on,84,51,0
1,note_on,94,0,78
1,note_on,79,61,0
1,note_on,82,58,0
1,note_on,91,72,0
1,note_on,84,0,3
1,note_on,82,0,78
1,note_on,84,50,0
1,note_on,84,0,80
1,note_on,82,59,0
1,note_on,84,53,80
1,note_on,82,0,1
1,note_on,84,0,80
1,note_on,82,59,0
1,note_on,82,0,80
1,note_on,84,53,0
1,note_on,79,0,78
1,note_on,91,0,0
1,note_on,75,65,0
1,note_on,87,77,0
1,note_on,82,60,0
1,note_on,84,0,3
1,note_on,82,0,78
1,note_on,84,52,0
1,note_on,84,0,80
1,note_on,82,60,0
1,note_on,84,55,80
1,note_on,82,0,1
1,note_on,84,0,80
1,note_on,82,61,0
1,note_on,82,0,80
1,note_on,84,54,0
1,note_on,87,0,78
1,note_on,75,0,0
1,note_on,82,61,0
1,note_on,73,65,0
1,note_on,85,83,0
1,note_on,84,0,3
1,note_on,82,0,78
1,note_on,84,53,0
1,note_on,84,0,80
1,note_on,82,62,0
1,note_on,73,0,79
1,note_on,85,0,0
1,note_on,86,75,0
1,note_on,74,65,0
1,note_on,84,56,1
1,note_on,82,0,1
1,note_on,84,0,80
1,note_on,82,62,0
1,note_on,82,0,80
1,note_on,84,56,0
1,note_on,82,63,78
1,note_on,84,0,3
1,note_on,82,0,78
1,note_on,84,55,0
1,note_on,84,0,80
1,note_on,82,64,0
1,note_on,74,0,79
1,note_on,86,0,0
1,note_on,77,74,0
1,note_on,89,86,0
1,note_on,84,57,1
1,note_on,82,0,1
1,note_on,84,0,80
1,note_on,82,64,0
1,note_on,82,0,80
1,note_on,84,56,0
1,note_on,89,0,78
1,note_on,77,0,0
1,note_on,89,86,0
1,note_on,81,75,0
1,note_on,84,0,3
1,note_on,81,0,78
1,note_on,82,66,0
1,note_on,82,0,80
1,note_on,81,75,0
1,note_on,82,64,80
1,note_on,81,0,1
1,note_on,82,0,80
1,note_on,81,75,0
1,note_on,81,0,80
1,note_on,82,68,0
1,note_on,81,78,78
1,note_on,82,0,3
1,note_on,81,0,78
1,note_on,82,69,0
1,note_on,89,0,39
1,note_on,87,86,0
1,note_on,82,0,41
1,note_on,81,75,0
1,note_on,87,0,79
1,note_on,79,79,0
1,note_on,84,79,0
1,note_on,81,0,2
1,note_on,84,0,118
1,note_on,79,0,0
1,note_on,81,79,0
1,note_on,89,79,0
1,note_on,89,0,120
1,note_on,81,0,0
1,note_on,80,87,0
1,note_on,77,87,0
1,note_on,86,87,0
1,note_on,89,103,0
1,note_on,89,0,120
1,note_on,80,0,0
1,note_on,77,0,0
1,note_on,86,0,0
1,note_on,89,79,120
1,note_on,92,79,0
1,note_on,101,93,0
1,note_on,98,79,0
1,note_on,98,0,480
1,note_on,89,0,0
1,note_on,92,0,0
1,note_on,101,0,0
1,note_on,99,78,0
1,note_on,92,66,0
1,note_on,87,66,0
1,note_on,89,66,0
1,note_on,89,0,120
1,note_on,99,0,0
1,note_on,92,0,0
1,note_on,87,0,0
1,note_on,86,67,120
1,note_on,98,79,0
1,note_on,89,67,0
1,note_on,92,67,0
1,note_on,92,0,120
1,note_on,86,0,0
1,note_on,98,0,0
1,note_on,89,0,0
1,note_on,87,70,120
1,note_on,89,70,0
1,note_on,99,83,0
1,note_on,92,70,0
1,note_on,92,0,120
1,note_on,87,0,0
1,note_on,89,0,0
1,note_on,99,0,0
1,note_on,92,69,120
1,note_on,101,82,0
1,note_on,89,69,0
1,note_on,89,0,120
1,note_on,101,0,0
1,note_on,92,0,0
1,note_on,98,69,120
1,note_on,91,58,0
1,note_on,89,58,0
1,note_on,86,58,0
1,note_on,86,0,120
1,note_on,98,0,0
1,note_on,91,0,0
1,note_on,89,0,0
1,note_on,87,50,120
1,note_on,99,59,0
1,note_on,91,50,0
1,note_on,91,0,120
1,note_on,99,0,0
1,note_on,87,0,0
1,note_on,86,45,120
1,note_on,98,53,0
1,note_on,91,45,0
1,note_on,89,45,0
1,note_on,89,0,120
1,note_on,86,0,0
1,note_on,98,0,0
1,note_on,91,0,0
1,note_on,99,59,120
1,note_on,87,50,0
1,note_on,91,50,0
1,note_on,91,0,120
1,note_on,87,0,0
1,note_on,99,0,0
1,note_on,91,45,120
1,note_on,84,45,0
1,note_on,96,53,0
1,note_on,96,0,120
1,note_on,84,0,0
1,note_on,91,0,0
1,note_on,84,50,120
1,note_on,94,59,0
1,note_on,91,50,0
1,note_on,91,0,120
1,note_on,94,0,0
1,note_on,84,0,0
1,note_on,88,45,120
1,note_on,84,45,0
1,note_on,94,53,0
1,note_on,94,0,120
1,note_on,84,0,0
1,note_on,88,0,0
1,note_on,87,50,120
1,note_on,84,50,0
1,note_on,93,59,0
1,note_on,93,0,120
1,note_on,84,0,0
1,note_on,87,0,0
1,note_on,84,45,120
1,note_on,96,53,0
1,note_on,87,45,0
1,note_on,87,0,120
1,note_on,96,0,0
1,note_on,84,0,0
1,note_on,86,55,120
1,note_on,82,55,0
1,note_on,94,64,0
1,note_on,94,0,120
1,note_on,82,0,0
1,note_on,86,0,0
1,note_on,77,50,120
1,note_on,86,50,0
1,note_on,89,59,0
1,note_on,89,0,120
1,note_on,86,0,0
1,note_on,77,0,0
1,note_on,89,58,120
1,note_on,81,58,0
1,note_on,93,69,0
1,note_on,87,58,0
1,note_on,87,0,120
1,note_on,89,0,0
1,note_on,81,0,0
1,note_on,93,0,0
1,note_on,96,65,120
1,note_on,89,55,0
1,note_on,87,55,0
1,note_on,84,55,0
1,note_on,84,0,120
1,note_on,96,0,0
1,note_on,89,0,0
1,note_on,87,0,0
1,note_on,86,63,120
1,note_on,94,75,0
1,note_on,82,63,0
1,note_on,82,0,120
1,note_on,94,0,0
1,note_on,86,0,0
1,note_on,89,69,120
1,note_on,86,59,0
1,note_on,77,59,0
1,note_on,77,0,120
1,note_on,86,0,0
1,note_on,89,0,0
1,note_on,81,69,120
1,note_on,87,69,0
1,note_on,89,69,0
1,note_on,93,80,0
1,note_on,93,0,120
1,note_on,81,0,0
1,note_on,87,0,0
1,note_on,89,0,0
1,note_on,87,64,120
1,note_on,89,64,0
1,note_on,96,76,0
1,note_on,84,64,0
1,note_on,84,0,120
1,note_on,87,0,0
1,note_on,89,0,0
1,note_on,96,0,0
1,note_on,82,77,120
1,note_on,82,0,120
1,note_on,94,70,0
1,note_on,94,0,120
1,note_on,77,79,0
1,note_on,77,0,120
1,note_on,89,73,0
1,note_on,89,0,120
1,note_on,81,82,0
1,note_on,81,0,120
1,note_on,93,76,0
1,note_on,93,0,120
1,note_on,84,85,0
1,note_on,84,0,120
1,note_on,96,79,0
1,note_on,96,0,120
1,note_on,82,88,0
1,note_on,82,0,120
1,note_on,94,82,0
1,note_on,94,0,120
1,note_on,77,91,0
1,note_on,77,0,120
1,note_on,89,81,0
1,note_on,89,0,120
1,note_on,69,89,0
1,note_on,69,0,120
1,note_on,81,81,0
1,note_on,81,0,120
1,note_on,72,90,0
1,note_on,72,0,120
1,note_on,84,80,0
1,note_on,84,0,120
1,note_on,70,88,0
1,note_on,70,0,120
1,note_on,82,82,0
1,note_on,82,0,120
1,note_on,65,91,0
1,note_on,65,0,120
1,note_on,77,81,0
1,note_on,77,0,120
1,note_on,71,89,0
1,note_on,71,0,120
1,note_on,83,81,0
1,note_on,83,0,120
1,note_on,74,90,0
1,note_on,74,0,120
1,note_on,86,80,0
1,note_on,86,0,120
1,note_on,72,88,0
1,note_on,72,0,120
1,note_on,84,82,0
1,note_on,84,0,120
1,note_on,67,91,0
1,note_on,67,0,120
1,note_on,79,81,0
1,note_on,79,0,120
1,note_on,71,89,0
1,note_on,71,0,120
1,note_on,83,81,0
1,note_on,83,0,120
1,note_on,74,90,0
1,note_on,74,0,120
1,note_on,86,80,0
1,note_on,86,0,120
1,note_on,72,88,0
1,note_on,72,0,120
1,note_on,84,82,0
1,note_on,84,0,120
1,note_on,67,91,0
1,note_on,67,0,120
1,note_on,79,81,0
1,note_on,79,0,120
1,note_on,72,89,0
1,note_on,72,0,120
1,note_on,84,81,0
1,note_on,84,0,120
1,note_on,75,90,0
1,note_on,75,0,120
1,note_on,87,80,0
1,note_on,87,0,120
1,note_on,74,88,0
1,note_on,74,0,120
1,note_on,86,82,0
1,note_on,86,0,120
1,note_on,69,91,0
1,note_on,69,0,120
1,note_on,81,80,0
1,note_on,81,0,120
1,note_on,73,88,0
1,note_on,73,0,120
1,note_on,85,80,0
1,note_on,85,0,120
1,note_on,76,88,0
1,note_on,76,0,120
1,note_on,88,78,0
1,note_on,88,0,120
1,note_on,74,86,0
1,note_on,74,0,120
1,note_on,86,79,0
1,note_on,86,0,120
1,note_on,69,88,0
1,note_on,69,0,120
1,note_on,81,78,0
1,note_on,81,0,120
1,note_on,74,85,0
1,note_on,74,0,120
1,note_on,86,77,0
1,note_on,86,0,120
1,note_on,77,85,0
1,note_on,77,0,120
1,note_on,89,76,0
1,note_on,89,0,120
1,note_on,75,83,0
1,note_on,75,0,120
1,note_on,87,77,0
1,note_on,87,0,120
1,note_on,70,85,0
1,note_on,70,0,120
1,note_on,82,76,0
1,note_on,82,0,120
1,note_on,74,82,0
1,note_on,74,0,120
1,note_on,86,75,0
1,note_on,86,0,120
1,note_on,77,83,0
1,note_on,77,0,120
1,note_on,89,73,0
1,note_on,89,0,120
1,note_on,75,80,0
1,note_on,75,0,120
1,note_on,87,75,0
1,note_on,87,0,120
1,note_on,70,82,0
1,note_on,70,0,120
1,note_on,82,73,0
1,note_on,82,0,120
1,note_on,75,80,0
1,note_on,75,0,120
1,note_on,87,72,0
1,note_on,87,0,120
1,note_on,78,81,0
1,note_on,78,0,120
1,note_on,90,71,0
1,note_on,90,0,120
1,note_on,77,78,0
1,note_on,77,0,120
1,note_on,89,72,0
1,note_on,89,0,120
1,note_on,72,80,0
1,note_on,72,0,120
1,note_on,84,71,0
1,note_on,84,0,120
1,note_on,75,78,0
1,note_on,75,0,120
1,note_on,87,70,0
1,note_on,87,0,120
1,note_on,78,78,0
1,note_on,78,0,120
1,note_on,90,69,0
1,note_on,90,0,120
1,note_on,73,75,0
1,note_on,73,0,120
1,note_on,85,70,0
1,note_on,85,0,120
1,note_on,69,77,0
1,note_on,69,0,120
1,note_on,81,68,0
1,note_on,81,0,120
1,note_on,72,75,0
1,note_on,72,0,120
1,note_on,84,68,0
1,note_on,84,0,120
1,note_on,75,75,0
1,note_on,75,0,120
1,note_on,87,67,0
1,note_on,87,0,120
1,note_on,66,73,0
1,note_on,66,0,120
1,note_on,78,68,0
1,note_on,78,0,120
1,note_on,65,75,0
1,note_on,65,0,120
1,note_on,77,66,0
1,note_on,77,0,120
1,note_on,69,72,0
1,note_on,69,0,120
1,note_on,81,66,0
1,note_on,81,0,120
1,note_on,75,72,0
1,note_on,75,0,120
1,note_on,87,64,0
1,note_on,87,0,120
1,note_on,71,40,0
1,note_on,74,58,0
1,note_on,71,0,120
1,note_on,70,34,0
1,note_on,70,0,120
1,note_on,71,40,0
1,note_on,71,0,120
1,note_on,70,35,0
1,note_on,70,0,120
1,note_on,71,40,0
1,note_on,71,0,120
1,note_on,70,35,0
1,note_on,70,0,120
1,note_on,71,40,0
1,note_on,71,0,120
1,note_on,70,36,0
1,note_on,70,0,120
1,note_on,74,0,0
1,note_on,71,40,0
1,note_on,75,48,0
1,note_on,71,0,120
1,note_on,70,34,0
1,note_on,70,0,120
1,note_on,71,40,0
1,note_on,71,0,120
1,note_on,70,35,0
1,note_on,70,0,120
1,note_on,75,0,0
1,note_on,78,51,0
1,note_on,71,40,0
1,note_on,71,0,120
1,note_on,70,35,0
1,note_on,70,0,120
1,note_on,71,40,0
1,note_on,71,0,120
1,note_on,70,36,0
1,note_on,70,0,120
1,note_on,78,0,0
1,note_on,82,60,0
1,note_on,71,40,0
1,note_on,71,0,120
1,note_on,70,34,0
1,note_on,70,0,120
1,note_on,71,40,0
1,note_on,71,0,120
1,note_on,70,35,0
1,note_on,70,0,120
1,note_on,71,40,0
1,note_on,71,0,120
1,note_on,70,35,0
1,note_on,70,0,120
1,note_on,71,40,0
1,note_on,71,0,120
1,note_on,70,36,0
1,note_on,70,0,120
1,note_on,82,0,0
1,note_on,71,40,0
1,note_on,78,62,0
1,note_on,71,0,120
1,note_on,70,34,0
1,note_on,70,0,120
1,note_on,71,40,0
1,note_on,71,0,120
1,note_on,70,35,0
1,note_on,70,0,120
1,note_on,78,0,0
1,note_on,71,40,0
1,note_on,75,51,0
1,note_on,71,0,120
1,note_on,70,35,0
1,note_on,70,0,120
1,note_on,70,40,0
1,note_on,70,0,120
1,note_on,72,36,0
1,note_on,72,0,120
1,note_on,75,0,0
1,note_on,74,52,0
1,note_on,70,39,0
1,note_on,70,0,81
1,note_on,72,33,0
1,note_on,72,0,80
1,note_on,70,39,0
1,note_on,72,35,80
1,note_on,70,0,1
1,note_on,72,0,80
1,note_on,70,39,0
1,note_on,70,0,80
1,note_on,72,35,0
1,note_on,70,40,78
1,note_on,72,0,3
1,note_on,70,0,78
1,note_on,72,35,0
1,note_on,72,0,80
1,note_on,70,40,0
1,note_on,72,36,80
1,note_on,70,0,1
1,note_on,72,0,80
1,note_on,70,40,0
1,note_on,70,0,80
1,note_on,72,36,0
1,note_on,74,0,78
1,note_on,75,60,0
1,note_on,70,40,0
1,note_on,72,0,3
1,note_on,70,0,78
1,note_on,72,35,0
1,note_on,72,0,80
1,note_on,70,41,0
1,note_on,72,37,80
1,note_on,70,0,1
1,note_on,72,0,80
1,note_on,70,41,0
1,note_on,70,0,80
1,note_on,72,37,0
1,note_on,70,42,78
1,note_on,72,0,3
1,note_on,70,0,78
1,note_on,72,37,0
1,note_on,72,0,80
1,note_on,70,43,0
1,note_on,75,0,79
1,note_on,79,65,0
1,note_on,72,38,1
1,note_on,70,0,1
1,note_on,72,0,80
1,note_on,70,43,0
1,note_on,70,0,80
1,note_on,72,38,0
1,note_on,79,0,78
1,note_on,82,74,0
1,note_on,70,44,0
1,note_on,72,0,3
1,note_on,70,0,78
1,note_on,72,37,0
1,note_on,72,0,80
1,note_on,70,44,0
1,note_on,72,40,80
1,note_on,70,0,1
1,note_on,72,0,80
1,note_on,70,45,0
1,note_on,70,0,80
1,note_on,72,40,0
1,note_on,70,45,78
1,note_on,72,0,3
1,note_on,70,0,78
1,note_on,72,40,0
1,note_on,72,0,80
1,note_on,70,45,0
1,note_on,82,0,79
1,note_on,80,65,0
1,note_on,72,40,1
1,note_on,70,0,1
1,note_on,72,0,80
1,note_on,70,45,0
1,note_on,70,0,80
1,note_on,72,40,0
1,note_on,80,0,78
1,note_on,70,46,0
1,note_on,79,64,0
1,note_on,72,0,3
1,note_on,70,0,78
1,note_on,72,40,0
1,note_on,72,0,80
1,note_on,70,47,0
1,note_on,79,0,79
1,note_on,77,64,0
1,note_on,72,42,1
1,note_on,70,0,1
1,note_on,72,0,80
1,note_on,70,47,0
1,note_on,70,0,80
1,note_on,72,42,0
1,note_on,77,0,78
1,note_on,70,48,0
1,note_on,75,69,0
1,note_on,72,0,3
1,note_on,70,0,78
1,note_on,72,41,0
1,note_on,72,0,80
1,note_on,70,48,0
1,note_on,75,0,79
1,note_on,74,69,0
1,note_on,72,44,1
1,note_on,70,0,1
1,note_on,72,0,80
1,note_on,70,48,0
1,note_on,70,0,80
1,note_on,72,43,0
1,note_on,74,0,78
1,note_on,75,66,0
1,note_on,70,43,0
1,note_on,72,0,3
1,note_on,70,0,78
1,note_on,72,37,0
1,note_on,72,0,80
1,note_on,70,44,0
1,note_on,72,39,80
1,note_on,70,0,1
1,note_on,72,0,80
1,note_on,70,42,0
1,note_on,70,0,80
1,note_on,72,38,0
1,note_on,70,43,78
1,note_on,72,0,3
1,note_on,70,0,78
1,note_on,72,36,0
1,note_on,72,0,80
1,note_on,70,42,0
1,note_on,75,0,79
1,note_on,74,63,0
1,note_on,72,37,1
1,note_on,70,0,1
1,note_on,72,0,80
1,note_on,70,41,0
1,note_on,70,0,80
1,note_on,72,36,0
1,note_on,74,0,78
1,note_on,77,60,0
1,note_on,70,39,0
1,note_on,72,0,3
1,note_on,70,0,78
1,note_on,72,33,0
1,note_on,72,0,80
1,note_on,70,38,0
1,note_on,77,0,79
1,note_on,75,57,0
1,note_on,72,34,1
1,note_on,70,0,1
1,note_on,72,0,80
1,note_on,70,37,0
1,note_on,70,0,80
1,note_on,72,33,0
1,note_on,70,37,78
1,note_on,72,0,3
1,note_on,70,0,78
1,note_on,72,32,0
1,note_on,72,0,80
1,note_on,70,37,0
1,note_on,75,0,79
1,note_on,74,55,0
1,note_on,72,32,1
1,note_on,70,0,1
1,note_on,72,0,80
1,note_on,70,36,0
1,note_on,70,0,80
1,note_on,72,31,0
1,note_on,74,0,78
1,note_on,70,50,0
1,note_on,74,39,0
1,note_on,72,0,3
1,note_on,74,0,58
1,note_on,75,33,0
1,note_on,74,38,60
1,note_on,75,0,0
1,note_on,74,0,60
1,note_on,75,34,0
1,note_on,74,37,60
1,note_on,75,0,1
1,note_on,74,0,60
1,note_on,75,33,0
1,note_on,74,37,58
1,note_on,75,0,2
1,note_on,74,0,59
1,note_on,75,32,0
1,note_on,74,37,60
1,note_on,75,0,0
1,note_on,74,0,60
1,note_on,75,32,0
1,note_on,74,36,60
1,note_on,75,0,1
1,note_on,74,0,60
1,note_on,75,31,0
1,note_on,74,37,58
1,note_on,75,0,2
1,note_on,74,0,58
1,note_on,75,32,7
1,note_on,74,36,53
1,note_on,75,0,7
1,note_on,72,32,43
1,note_on,74,0,10
1,note_on,72,0,50
1,note_on,70,0,10
1,note_on,74,41,0
1,note_on,75,37,120
1,note_on,74,0,12
1,note_on,74,41,108
1,note_on,75,0,12
1,note_on,72,37,108
1,note_on,74,0,12
1,note_on,70,42,108
1,note_on,72,0,12
1,note_on,69,37,108
1,note_on,70,0,12
1,note_on,70,40,108
1,note_on,69,0,12
1,note_on,72,37,108
1,note_on,70,0,12
1,note_on,74,41,108
1,note_on,72,0,12
1,note_on,75,42,108
1,note_on,74,0,12
1,note_on,77,43,108
1,note_on,75,0,12
1,note_on,79,44,108
1,note_on,77,0,12
1,note_on,81,45,108
1,note_on,79,0,12
1,note_on,82,46,108
1,note_on,81,0,12
1,note_on,84,47,108
1,note_on,82,0,12
1,note_on,86,48,108
1,note_on,84,0,12
1,note_on,87,49,108
1,note_on,86,0,12
1,note_on,89,46,108
1,note_on,87,0,12
1,note_on,87,48,108
1,note_on,89,0,12
1,note_on,86,47,108
1,note_on,87,0,12
1,note_on,84,46,108
1,note_on,86,0,12
1,note_on,82,45,108
1,note_on,84,0,12
1,note_on,81,44,108
1,note_on,82,0,12
1,note_on,79,43,108
1,note_on,81,0,12
1,note_on,77,42,108
1,note_on,79,0,12
1,note_on,75,41,108
1,note_on,77,0,12
1,note_on,74,40,108
1,note_on,75,0,12
1,note_on,72,39,108
1,note_on,74,0,12
1,note_on,70,38,108
1,note_on,72,0,12
1,note_on,69,37,108
1,note_on,70,0,12
1,note_on,67,35,108
1,note_on,69,0,12
1,note_on,65,34,108
1,note_on,67,0,12
1,note_on,65,0,108
1,note_on,74,37,0
1,note_on,65,31,0
1,note_on,65,0,357
1,note_on,74,0,0
1,note_on,65,25,3
1,note_on,74,30,0
1,note_on,74,0,119
1,note_on,65,0,0
1,note_on,74,39,1
1,note_on,65,33,0
1,note_on,65,0,240
1,note_on,74,0,0
1,note_on,62,71,120
1,note_on,65,71,0
1,note_on,67,85,0
1,note_on,67,0,120
1,note_on,65,0,0
1,note_on,62,0,0
1,note_on,63,88,0
1,note_on,75,105,0
1,note_on,67,88,0
1,note_on,67,0,357
1,note_on,63,0,0
1,note_on,75,0,0
1,note_on,63,59,3
1,note_on,67,59,0
1,note_on,75,72,0
1,note_on,75,0,119
1,note_on,67,0,0
1,note_on,63,0,0
1,note_on,75,94,1
1,note_on,67,79,0
1,note_on,63,79,0
1,note_on,63,0,240
1,note_on,67,0,0
1,note_on,75,0,0
1,note_on,67,30,120
1,note_on,65,25,0
1,note_on,65,0,120
1,note_on,67,0,0
1,note_on,67,31,0
1,note_on,75,37,0
1,note_on,75,0,357
1,note_on,67,0,0
1,note_on,75,30,3
1,note_on,67,25,0
1,note_on,67,0,119
1,note_on,75,0,0
1,note_on,75,39,1
1,note_on,67,33,0
1,note_on,67,0,240
1,note_on,75,0,0
1,note_on,64,71,120
1,note_on,67,71,0
1,note_on,69,85,0
1,note_on,69,0,120
1,note_on,67,0,0
1,note_on,64,0,0
1,note_on,65,88,0
1,note_on,77,105,0
1,note_on,69,88,0
1,note_on,69,0,357
1,note_on,77,0,0
1,note_on,65,0,0
1,note_on,77,72,3
1,note_on,69,59,0
1,note_on,65,59,0
1,note_on,65,0,119
1,note_on,69,0,0
1,note_on,77,0,0
1,note_on,69,79,1
1,note_on,77,94,0
1,note_on,65,79,0
1,note_on,65,0,240
1,note_on,77,0,0
1,note_on,69,0,0
1,note_on,67,25,120
1,note_on,69,30,0
1,note_on,69,0,120
1,note_on,67,0,0
1,note_on,77,37,0
1,note_on,69,31,0
1,note_on,69,0,357
1,note_on,77,0,0
1,note_on,69,25,3
1,note_on,77,30,0
1,note_on,77,0,119
1,note_on,69,0,0
1,note_on,77,39,1
1,note_on,69,33,0
1,note_on,69,0,240
1,note_on,77,0,0
1,note_on,65,65,120
1,note_on,68,65,0
1,note_on,70,78,0
1,note_on,70,0,120
1,note_on,68,0,0
1,note_on,65,0,0
1,note_on,67,80,0
1,note_on,70,80,0
1,note_on,79,96,0
1,note_on,79,0,357
1,note_on,70,0,0
1,note_on,67,0,0
1,note_on,67,54,3
1,note_on,79,66,0
1,note_on,70,54,0
1,note_on,70,0,119
1,note_on,79,0,0
1,note_on,67,0,0
1,note_on,79,86,1
1,note_on,70,72,0
1,note_on,67,72,0
1,note_on,67,0,240
1,note_on,70,0,0
1,note_on,79,0,0
1,note_on,67,74,1080
1,note_on,75,90,0
1,note_on,75,0,120
1,note_on,67,0,0
1,note_on,69,92,0
1,note_on,72,92,0
1,note_on,81,110,0
1,note_on,75,92,0
1,note_on,75,0,357
1,note_on,69,0,0
1,note_on,72,0,0
1,note_on,81,0,0
1,note_on,69,67,3
1,note_on,72,67,0
1,note_on,75,67,0
1,note_on,81,82,0
1,note_on,81,0,119
1,note_on,69,0,0
1,note_on,72,0,0
1,note_on,75,0,0
1,note_on,81,108,1
1,note_on,72,90,0
1,note_on,69,90,0
1,note_on,75,90,0
1,note_on,75,0,240
1,note_on,81,0,0
1,note_on,72,0,0
1,note_on,69,0,0
1,note_on,86,57,1560
1,note_on,82,47,0
1,note_on,77,47,0
1,note_on,74,47,0
1,note_on,74,0,120
1,note_on,86,0,0
1,note_on,82,0,0
1,note_on,77,0,0
1,note_on,82,42,0
1,note_on,74,42,0
1,note_on,86,51,0
1,note_on,77,42,0
1,note_on,77,0,180
1,note_on,82,0,0
1,note_on,74,0,0
1,note_on,86,0,0
1,note_on,77,45,60
1,note_on,82,45,0
1,note_on,74,45,0
1,note_on,87,55,0
1,note_on,87,0,60
1,note_on,77,0,0
1,note_on,82,0,0
1,note_on,74,0,0
1,note_on,82,47,60
1,note_on,86,55,0
1,note_on,77,47,0
1,note_on,74,47,0
1,note_on,74,0,60
1,note_on,82,0,0
1,note_on,86,0,0
1,note_on,77,0,0
1,note_on,86,62,60
1,note_on,77,51,0
1,note_on,74,51,0
1,note_on,82,51,0
1,note_on,82,0,60
1,note_on,86,0,0
1,note_on,77,0,0
1,note_on,74,0,0
1,note_on,74,49,180
1,note_on,70,49,0
1,note_on,77,49,0
1,note_on,82,59,0
1,note_on,82,0,60
1,note_on,74,0,0
1,note_on,70,0,0
1,note_on,77,0,0
1,note_on,65,76,180
1,note_on,70,76,0
1,note_on,62,76,0
1,note_on,74,92,0
1,note_on,74,0,60
1,note_on,65,0,0
1,note_on,70,0,0
1,note_on,62,0,0
1,note_on,62,70,180
1,note_on,65,70,0
1,note_on,58,70,0
1,note_on,70,84,0
1,note_on,70,0,60
1,note_on,62,0,0
1,note_on,65,0,0
1,note_on,58,0,0
1,note_on,77,42,180
1,note_on,86,42,0
1,note_on,82,42,0
1,note_on,89,51,0
1,note_on,89,0,357
1,note_on,77,0,0
1,note_on,86,0,0
1,note_on,82,0,0
1,note_on,86,47,3
1,note_on,77,47,0
1,note_on,89,57,0
1,note_on,82,47,0
1,note_on,82,0,120
1,note_on,86,0,0
1,note_on,77,0,0
1,note_on,89,0,0
1,note_on,82,42,0
1,note_on,77,42,0
1,note_on,86,42,0
1,note_on,89,51,0
1,note_on,89,0,180
1,note_on,82,0,0
1,note_on,77,0,0
1,note_on,86,0,0
1,note_on,91,55,60
1,note_on,86,45,0
1,note_on,77,45,0
1,note_on,82,45,0
1,note_on,82,0,60
1,note_on,91,0,0
1,note_on,86,0,0
1,note_on,77,0,0
1,note_on,77,47,60
1,note_on,89,55,0
1,note_on,82,47,0
1,note_on,86,47,0
1,note_on,86,0,60
1,note_on,77,0,0
1,note_on,89,0,0
1,note_on,82,0,0
1,note_on,89,62,60
1,note_on,82,51,0
1,note_on,77,51,0
1,note_on,86,51,0
1,note_on,86,0,60
1,note_on,89,0,0
1,note_on,82,0,0
1,note_on,77,0,0
1,note_on,77,49,180
1,note_on,74,49,0
1,note_on,82,49,0
1,note_on,86,59,0
1,note_on,86,0,60
1,note_on,77,0,0
1,note_on,74,0,0
1,note_on,82,0,0
1,note_on,77,92,180
1,note_on,70,76,0
1,note_on,65,76,0
1,note_on,74,76,0
1,note_on,74,0,60
1,note_on,77,0,0
1,note_on,70,0,0
1,note_on,65,0,0
1,note_on,74,84,180
1,note_on,65,70,0
1,note_on,62,70,0
1,note_on,70,70,0
1,note_on,70,0,60
1,note_on,74,0,0
1,note_on,65,0,0
1,note_on,62,0,0
1,note_on,89,55,180
1,note_on,86,45,0
1,note_on,86,0,60
1,note_on,89,0,0
1,note_on,86,53,180
1,note_on,82,44,0
1,note_on,82,0,60
1,note_on,86,0,0
1,note_on,77,90,180
1,note_on,74,74,0
1,note_on,74,0,60
1,note_on,77,0,0
1,note_on,74,75,180
1,note_on,70,63,0
1,note_on,70,0,60
1,note_on,74,0,0
1,note_on,86,55,180
1,note_on,82,45,0
1,note_on,82,0,60
1,note_on,86,0,0
1,note_on,82,53,180
1,note_on,77,44,0
1,note_on,77,0,60
1,note_on,82,0,0
1,note_on,74,90,180
1,note_on,70,74,0
1,note_on,70,0,60
1,note_on,74,0,0
1,note_on,70,75,180
1,note_on,65,63,0
1,note_on,65,0,60
1,note_on,70,0,0
1,note_on,82,55,180
1,note_on,77,45,0
1,note_on,77,0,60
1,note_on,82,0,0
1,note_on,77,53,180
1,note_on,74,44,0
1,note_on,74,0,60
1,note_on,77,0,0
1,note_on,70,90,180
1,note_on,65,74,0
1,note_on,65,0,60
1,note_on,70,0,0
1,note_on,62,63,180
1,note_on,65,75,0
1,note_on,65,0,60
1,note_on,62,0,0
1,note_on,69,42,180
1,note_on,75,52,0
1,note_on,75,0,960
1,note_on,69,0,0
1,note_on,74,45,0
1,note_on,77,55,0
1,note_on,77,0,60
1,note_on,74,0,0
1,note_on,70,44,180
1,note_on,74,53,0
1,note_on,74,0,60
1,note_on,70,0,0
1,note_on,62,61,180
1,note_on,65,75,0
1,note_on,65,0,60
1,note_on,62,0,0
1,note_on,58,57,180
1,note_on,62,68,0
1,note_on,62,0,60
1,note_on,58,0,0
1,note_on,70,51,180
1,note_on,74,62,0
1,note_on,74,0,60
1,note_on,70,0,0
1,note_on,65,49,180
1,note_on,70,59,0
1,note_on,70,0,60
1,note_on,65,0,0
1,note_on,62,79,180
1,note_on,58,65,0
1,note_on,58,0,60
1,note_on,62,0,0
1,note_on,58,72,180
1,note_on,53,60,0
1,note_on,53,0,60
1,note_on,58,0,0
1,note_on,65,51,180
1,note_on,70,62,0
1,note_on,70,0,60
1,note_on,65,0,0
1,note_on,62,49,180
1,note_on,65,59,0
1,note_on,65,0,60
1,note_on,62,0,0
1,note_on,53,65,180
1,note_on,58,79,0
1,note_on,58,0,60
1,note_on,53,0,0
1,note_on,50,60,180
1,note_on,53,72,0
1,note_on,53,0,60
1,note_on,50,0,0
1,note_on,57,42,180
1,note_on,63,52,0
1,note_on,63,0,960
1,note_on,57,0,0
1,note_on,57,42,360
1,note_on,66,51,0
1,note_on,63,42,0
1,note_on,63,0,60
1,note_on,66,0,0
1,note_on,57,0,0
1,note_on,66,45,60
1,note_on,63,37,0
1,note_on,57,37,0
1,note_on,57,0,60
1,note_on,63,0,0
1,note_on,66,0,0
1,note_on,58,40,180
1,note_on,65,49,0
1,note_on,62,40,0
1,note_on,62,0,60
1,note_on,65,0,0
1,note_on,58,0,0
1,note_on,54,41,540
1,note_on,60,41,0
1,note_on,57,41,0
1,note_on,63,49,0
1,note_on,63,0,60
1,note_on,54,0,0
1,note_on,60,0,0
1,note_on,57,0,0
1,note_on,54,35,60
1,note_on,57,35,0
1,note_on,60,35,0
1,note_on,63,43,0
1,note_on,63,0,60
1,note_on,54,0,0
1,note_on,57,0,0
1,note_on,60,0,0
1,note_on,53,38,180
1,note_on,58,38,0
1,note_on,62,46,0
1,note_on,62,0,60
1,note_on,58,0,0
1,note_on,53,0,0
1,note_on,63,46,540
1,note_on,54,38,0
1,note_on,57,38,0
1,note_on,60,38,0
1,note_on,60,0,60
1,note_on,63,0,0
1,note_on,54,0,0
1,note_on,57,0,0
1,note_on,60,33,60
1,note_on,57,33,0
1,note_on,63,40,0
1,note_on,54,33,0
1,note_on,54,0,60
1,note_on,60,0,0
1,note_on,57,0,0
1,note_on,63,0,0
1,note_on,62,43,180
1,note_on,53,35,0
1,note_on,58,35,0
1,note_on,58,0,60
1,note_on,53,0,0
1,note_on,62,0,0
1,note_on,51,35,540
1,note_on,58,35,0
1,note_on,54,35,0
1,note_on,60,43,0
1,note_on,60,0,60
1,note_on,51,0,0
1,note_on,58,0,0
1,note_on,54,0,0
1,note_on,51,31,60
1,note_on,54,31,0
1,note_on,58,31,0
1,note_on,60,37,0
1,note_on,60,0,60
1,note_on,51,0,0
1,note_on,54,0,0
1,note_on,58,0,0
1,note_on,58,40,180
1,note_on,50,32,0
1,note_on,53,32,0
1,note_on,53,0,60
1,note_on,50,0,0
1,note_on,58,0,0
1,note_on,50,33,540
1,note_on,53,33,0
1,note_on,58,33,0
1,note_on,62,40,0
1,note_on,62,0,60
1,note_on,50,0,0
1,note_on,53,0,0
1,note_on,58,0,0
1,note_on,53,29,60
1,note_on,50,29,0
1,note_on,58,29,0
1,note_on,62,36,0
1,note_on,62,0,60
1,note_on,53,0,0
1,note_on,50,0,0
1,note_on,58,0,0
1,note_on,53,32,180
1,note_on,50,32,0
1,note_on,58,39,0
1,note_on,58,0,60
1,note_on,50,0,0
1,note_on,53,0,0
1,note_on,53,26,420
1,note_on,62,32,0
1,note_on,58,26,0
1,note_on,50,26,0
1,note_on,50,0,240
1,note_on,53,0,0
1,note_on,62,0,0
1,note_on,58,0,0
1,note_on,89,100,960
1,note_on,86,100,0
1,note_on,82,100,0
1,note_on,94,119,0
1,note_on,94,0,240
1,note_on,89,0,0
1,note_on,86,0,0
1,note_on,82,0,0
1,note_on,70,119,240
1,note_on,58,100,0
1,note_on,58,0,960
1,note_on,70,0,0
2,note_on,34,96,840
2,note_on,34,0,120
2,note_on,62,93,0
2,note_on,53,78,0
2,note_on,58,78,0
2,note_on,58,0,360
2,note_on,53,0,0
2,note_on,62,0,0
2,note_on,53,69,0
2,note_on,62,84,0
2,note_on,58,69,0
2,note_on,58,0,120
2,note_on,62,0,0
2,note_on,53,0,0
2,note_on,62,93,0
2,note_on,58,78,0
2,note_on,53,78,0
2,note_on,53,0,180
2,note_on,58,0,0
2,note_on,62,0,0
2,note_on,62,88,60
2,note_on,58,75,0
2,note_on,53,75,0
2,note_on,53,0,45
2,note_on,58,0,0
2,note_on,62,0,0
2,note_on,58,78,75
2,note_on,62,93,0
2,note_on,53,78,0
2,note_on,53,0,45
2,note_on,62,0,0
2,note_on,58,0,0
2,note_on,62,93,75
2,note_on,53,78,0
2,note_on,58,78,0
2,note_on,58,0,120
2,note_on,53,0,0
2,note_on,62,0,0
2,note_on,53,78,120
2,note_on,50,78,0
2,note_on,58,93,0
2,note_on,58,0,120
2,note_on,50,0,0
2,note_on,53,0,0
2,note_on,34,96,480
2,note_on,34,0,120
2,note_on,58,78,0
2,note_on,53,78,0
2,note_on,62,78,0
2,note_on,65,93,0
2,note_on,65,0,360
2,note_on,58,0,0
2,note_on,53,0,0
2,note_on,62,0,0
2,note_on,58,69,0
2,note_on,53,69,0
2,note_on,62,69,0
2,note_on,65,84,0
2,note_on,65,0,120
2,note_on,58,0,0
2,note_on,53,0,0
2,note_on,62,0,0
2,note_on,58,78,0
2,note_on,65,93,0
2,note_on,62,78,0
2,note_on,53,78,0
2,note_on,53,0,180
2,note_on,58,0,0
2,note_on,65,0,0
2,note_on,62,0,0
2,note_on,62,75,60
2,note_on,58,75,0
2,note_on,65,88,0
2,note_on,53,75,0
2,note_on,53,0,45
2,note_on,62,0,0
2,note_on,58,0,0
2,note_on,65,0,0
2,note_on,62,78,75
2,note_on,58,78,0
2,note_on,65,93,0
2,note_on,53,78,0
2,note_on,53,0,45
2,note_on,62,0,0
2,note_on,58,0,0
2,note_on,65,0,0
2,note_on,58,78,75
2,note_on,65,93,0
2,note_on,53,78,0
2,note_on,62,78,0
2,note_on,62,0,120
2,note_on,58,0,0
2,note_on,65,0,0
2,note_on,53,0,0
2,note_on,58,78,120
2,note_on,62,93,0
2,note_on,53,78,0
2,note_on,53,0,120
2,note_on,62,0,0
2,note_on,58,0,0
2,note_on,64,29,840
2,note_on,64,0,240
2,note_on,65,29,0
2,note_on,65,0,240
2,note_on,59,40,0
2,note_on,59,0,240
2,note_on,60,40,0
2,note_on,60,0,240
2,note_on,54,36,0
2,note_on,54,0,240
2,note_on,55,36,0
2,note_on,55,0,240
2,note_on,51,40,0
2,note_on,51,0,240
2,note_on,50,40,0
2,note_on,50,0,240
2,note_on,49,35,0
2,note_on,49,0,240
2,note_on,48,35,0
2,note_on,48,0,240
2,note_on,41,40,0
2,note_on,41,0,240
2,note_on,46,38,0
2,note_on,46,0,240
2,note_on,39,30,0
2,note_on,39,0,240
2,note_on,41,27,0
2,note_on,41,0,240
2,note_on,76,29,480
2,note_on,76,0,240
2,note_on,77,29,0
2,note_on,77,0,240
2,note_on,71,40,0
2,note_on,71,0,240
2,note_on,72,40,0
2,note_on,72,0,240
2,note_on,66,36,0
2,note_on,66,0,240
2,note_on,67,36,0
2,note_on,67,0,240
2,note_on,63,40,0
2,note_on,63,0,240
2,note_on,62,40,0
2,note_on,62,0,240
2,note_on,61,35,0
2,note_on,61,0,240
2,note_on,60,35,0
2,note_on,60,0,240
2,note_on,53,40,0
2,note_on,53,0,240
2,note_on,58,36,0
2,note_on,58,0,240
2,note_on,54,43,0
2,note_on,54,0,240
2,note_on,53,44,0
2,note_on,53,0,240
2,note_on,51,45,0
2,note_on,51,0,240
2,note_on,50,46,0
2,note_on,50,0,240
2,note_on,49,47,0
2,note_on,49,0,240
2,note_on,48,48,0
2,note_on,48,0,240
2,note_on,41,50,0
2,note_on,41,0,240
2,note_on,46,50,0
2,note_on,46,0,240
2,note_on,42,52,0
2,note_on,42,0,240
2,note_on,41,53,0
2,note_on,41,0,240
2,note_on,39,54,0
2,note_on,39,0,240
2,note_on,38,55,0
2,note_on,38,0,240
2,note_on,37,56,0
2,note_on,37,0,240
2,note_on,36,57,0
2,note_on,36,0,240
2,note_on,30,58,0
2,note_on,30,0,240
2,note_on,31,67,0
2,note_on,31,0,240
2,note_on,39,61,0
2,note_on,39,0,240
2,note_on,41,70,0
2,note_on,41,0,120
2,note_on,29,66,120
2,note_on,41,66,0
2,note_on,41,0,120
2,note_on,29,0,0
2,note_on,46,68,120
2,note_on,34,57,0
2,note_on,34,0,120
2,note_on,46,0,0
2,note_on,53,47,0
2,note_on,58,47,0
2,note_on,62,56,0
2,note_on,62,0,120
2,note_on,58,0,0
2,note_on,53,0,0
2,note_on,62,56,0
2,note_on,58,47,0
2,note_on,53,47,0
2,note_on,53,0,120
2,note_on,58,0,0
2,note_on,62,0,0
2,note_on,53,47,0
2,note_on,62,56,0
2,note_on,58,47,0
2,note_on,58,0,120
2,note_on,62,0,0
2,note_on,53,0,0
2,note_on,62,53,120
2,note_on,53,45,0
2,note_on,58,45,0
2,note_on,58,0,120
2,note_on,53,0,0
2,note_on,62,0,0
2,note_on,58,45,0
2,note_on,53,45,0
2,note_on,62,54,0
2,note_on,62,0,120
2,note_on,53,0,0
2,note_on,58,0,0
2,note_on,58,45,0
2,note_on,53,45,0
2,note_on,62,54,0
2,note_on,62,0,120
2,note_on,53,0,0
2,note_on,58,0,0
2,note_on,53,37,120
2,note_on,58,37,0
2,note_on,62,44,0
2,note_on,62,0,60
2,note_on,58,0,0
2,note_on,53,0,0
2,note_on,58,44,180
2,note_on,50,37,0
2,note_on,50,0,60
2,note_on,58,0,0
2,note_on,53,37,180
2,note_on,58,37,0
2,note_on,62,44,0
2,note_on,62,0,60
2,note_on,58,0,0
2,note_on,53,0,0
2,note_on,60,44,180
2,note_on,51,37,0
2,note_on,58,37,0
2,note_on,58,0,60
2,note_on,51,0,0
2,note_on,60,0,0
2,note_on,46,78,60
2,note_on,34,65,0
2,note_on,34,0,120
2,note_on,46,0,0
2,note_on,58,54,0
2,note_on,63,64,0
2,note_on,55,54,0
2,note_on,55,0,120
2,note_on,63,0,0
2,note_on,58,0,0
2,note_on,63,64,0
2,note_on,55,54,0
2,note_on,58,54,0
2,note_on,58,0,120
2,note_on,55,0,0
2,note_on,63,0,0
2,note_on,63,64,0
2,note_on,58,54,0
2,note_on,55,54,0
2,note_on,55,0,120
2,note_on,58,0,0
2,note_on,63,0,0
2,note_on,58,45,120
2,note_on,60,53,0
2,note_on,51,45,0
2,note_on,51,0,120
2,note_on,60,0,0
2,note_on,58,0,0
2,note_on,58,45,0
2,note_on,60,54,0
2,note_on,51,45,0
2,note_on,51,0,120
2,note_on,60,0,0
2,note_on,58,0,0
2,note_on,60,54,0
2,note_on,58,45,0
2,note_on,51,45,0
2,note_on,51,0,120
2,note_on,58,0,0
2,note_on,60,0,0
2,note_on,58,37,120
2,note_on,63,44,0
2,note_on,55,37,0
2,note_on,55,0,60
2,note_on,63,0,0
2,note_on,58,0,0
2,note_on,52,37,180
2,note_on,58,37,0
2,note_on,61,44,0
2,note_on,61,0,60
2,note_on,58,0,0
2,note_on,52,0,0
2,note_on,54,37,180
2,note_on,63,44,0
2,note_on,58,37,0
2,note_on,58,0,60
2,note_on,63,0,0
2,note_on,54,0,0
2,note_on,62,44,180
2,note_on,53,37,0
2,note_on,58,37,0
2,note_on,58,0,60
2,note_on,53,0,0
2,note_on,62,0,0
2,note_on,46,74,60
2,note_on,34,62,0
2,note_on,34,0,120
2,note_on,46,0,0
2,note_on,58,51,0
2,note_on,56,51,0
2,note_on,65,61,0
2,note_on,65,0,120
2,note_on,56,0,0
2,note_on,58,0,0
2,note_on,65,61,0
2,note_on,56,51,0
2,note_on,58,51,0
2,note_on,58,0,120
2,note_on,56,0,0
2,note_on,65,0,0
2,note_on,65,61,0
2,note_on,56,51,0
2,note_on,58,51,0
2,note_on,58,0,120
2,note_on,56,0,0
2,note_on,65,0,0
2,note_on,58,45,120
2,note_on,53,45,0
2,note_on,62,53,0
2,note_on,62,0,120
2,note_on,53,0,0
2,note_on,58,0,0
2,note_on,62,54,0
2,note_on,58,45,0
2,note_on,53,45,0
2,note_on,53,0,120
2,note_on,58,0,0
2,note_on,62,0,0
2,note_on,58,45,0
2,note_on,62,54,0
2,note_on,53,45,0
2,note_on,53,0,120
2,note_on,62,0,0
2,note_on,58,0,0
2,note_on,58,37,120
2,note_on,65,44,0
2,note_on,56,37,0
2,note_on,56,0,60
2,note_on,65,0,0
2,note_on,58,0,0
2,note_on,58,37,180
2,note_on,54,37,0
2,note_on,62,44,0
2,note_on,62,0,60
2,note_on,54,0,0
2,note_on,58,0,0
2,note_on,58,37,180
2,note_on,65,44,0
2,note_on,56,37,0
2,note_on,56,0,60
2,note_on,65,0,0
2,note_on,58,0,0
2,note_on,58,37,180
2,note_on,63,44,0
2,note_on,55,37,0
2,note_on,55,0,60
2,note_on,63,0,0
2,note_on,58,0,0
2,note_on,46,74,60
2,note_on,34,62,0
2,note_on,34,0,120
2,note_on,46,0,0
2,note_on,63,51,0
2,note_on,67,61,0
2,note_on,58,51,0
2,note_on,58,0,120
2,note_on,67,0,0
2,note_on,63,0,0
2,note_on,67,61,0
2,note_on,58,51,0
2,note_on,63,51,0
2,note_on,63,0,120
2,note_on,58,0,0
2,note_on,67,0,0
2,note_on,67,61,0
2,note_on,58,51,0
2,note_on,63,51,0
2,note_on,63,0,120
2,note_on,58,0,0
2,note_on,67,0,0
2,note_on,58,45,120
2,note_on,63,53,0
2,note_on,55,45,0
2,note_on,55,0,120
2,note_on,63,0,0
2,note_on,58,0,0
2,note_on,63,54,0
2,note_on,58,45,0
2,note_on,55,45,0
2,note_on,55,0,120
2,note_on,58,0,0
2,note_on,63,0,0
2,note_on,58,45,0
2,note_on,63,54,0
2,note_on,55,45,0
2,note_on,55,0,120
2,note_on,63,0,0
2,note_on,58,0,0
2,note_on,58,33,120
2,note_on,67,39,0
2,note_on,63,33,0
2,note_on,63,0,60
2,note_on,67,0,0
2,note_on,58,0,0
2,note_on,64,39,180
2,note_on,58,33,0
2,note_on,61,33,0
2,note_on,61,0,60
2,note_on,58,0,0
2,note_on,64,0,0
2,note_on,63,36,180
2,note_on,58,36,0
2,note_on,66,44,0
2,note_on,66,0,60
2,note_on,58,0,0
2,note_on,63,0,0
2,note_on,62,37,180
2,note_on,58,37,0
2,note_on,65,45,0
2,note_on,65,0,60
2,note_on,58,0,0
2,note_on,62,0,0
2,note_on,58,39,180
2,note_on,65,39,0
2,note_on,68,46,0
2,note_on,68,0,60
2,note_on,65,0,0
2,note_on,58,0,0
2,note_on,58,40,180
2,note_on,66,48,0
2,note_on,62,40,0
2,note_on,62,0,60
2,note_on,66,0,0
2,note_on,58,0,0
2,note_on,68,50,180
2,note_on,65,42,0
2,note_on,58,42,0
2,note_on,58,0,60
2,note_on,65,0,0
2,note_on,68,0,0
2,note_on,58,43,180
2,note_on,67,52,0
2,note_on,63,43,0
2,note_on,63,0,60
2,note_on,67,0,0
2,note_on,58,0,0
2,note_on,60,45,180
2,note_on,67,53,0
2,note_on,63,45,0
2,note_on,58,45,0
2,note_on,58,0,60
2,note_on,60,0,0
2,note_on,67,0,0
2,note_on,63,0,0
2,note_on,68,54,180
2,note_on,58,45,0
2,note_on,63,45,0
2,note_on,60,45,0
2,note_on,60,0,60
2,note_on,68,0,0
2,note_on,58,0,0
2,note_on,63,0,0
2,note_on,70,56,180
2,note_on,58,47,0
2,note_on,60,47,0
2,note_on,63,47,0
2,note_on,63,0,60
2,note_on,70,0,0
2,note_on,58,0,0
2,note_on,60,0,0
2,note_on,60,48,180
2,note_on,63,48,0
2,note_on,58,48,0
2,note_on,69,58,0
2,note_on,69,0,60
2,note_on,60,0,0
2,note_on,63,0,0
2,note_on,58,0,0
2,note_on,72,66,180
2,note_on,60,56,0
2,note_on,60,0,60
2,note_on,72,0,0
2,note_on,70,66,180
2,note_on,58,56,0
2,note_on,58,0,60
2,note_on,70,0,0
2,note_on,55,56,180
2,note_on,67,66,0
2,note_on,67,0,60
2,note_on,55,0,0
2,note_on,65,66,180
2,note_on,53,56,0
2,note_on,53,0,60
2,note_on,65,0,0
2,note_on,51,50,180
2,note_on,63,59,0
2,note_on,63,0,60
2,note_on,51,0,0
2,note_on,62,59,180
2,note_on,50,50,0
2,note_on,50,0,60
2,note_on,62,0,0
2,note_on,48,50,180
2,note_on,60,59,0
2,note_on,60,0,60
2,note_on,48,0,0
2,note_on,58,59,180
2,note_on,46,50,0
2,note_on,46,0,60
2,note_on,58,0,0
2,note_on,55,59,180
2,note_on,43,50,0
2,note_on,43,0,60
2,note_on,55,0,0
2,note_on,41,50,180
2,note_on,53,59,0
2,note_on,53,0,60
2,note_on,41,0,0
2,note_on,39,47,180
2,note_on,51,56,0
2,note_on,51,0,60
2,note_on,39,0,0
2,note_on,50,56,180
2,note_on,38,47,0
2,note_on,38,0,60
2,note_on,50,0,0
2,note_on,48,53,180
2,note_on,36,45,0
2,note_on,36,0,60
2,note_on,48,0,0
2,note_on,34,45,180
2,note_on,46,53,0
2,note_on,46,0,60
2,note_on,34,0,0
2,note_on,31,45,180
2,note_on,43,53,0
2,note_on,43,0,60
2,note_on,31,0,0
2,note_on,29,45,180
2,note_on,41,53,0
2,note_on,41,0,60
2,note_on,29,0,0
2,note_on,33,42,180
2,note_on,33,0,120
2,note_on,29,28,120
2,note_on,29,0,120
2,note_on,36,39,120
2,note_on,36,0,120
2,note_on,29,27,120
2,note_on,29,0,120
2,note_on,41,37,120
2,note_on,41,0,120
2,note_on,29,26,120
2,note_on,29,0,120
2,note_on,45,34,120
2,note_on,45,0,120
2,note_on,29,24,120
2,note_on,29,0,120
2,note_on,48,32,120
2,note_on,48,0,120
2,note_on,29,23,120
2,note_on,29,0,120
2,note_on,53,29,120
2,note_on,53,0,120
2,note_on,29,24,120
2,note_on,29,0,120
2,note_on,53,28,120
2,note_on,53,0,120
2,note_on,29,21,120
2,note_on,29,0,120
2,note_on,53,21,120
2,note_on,53,0,120
2,note_on,34,77,120
2,note_on,34,0,120
2,note_on,62,81,0
2,note_on,53,68,0
2,note_on,58,68,0
2,note_on,58,0,360
2,note_on,53,0,0
2,note_on,62,0,0
2,note_on,62,73,0
2,note_on,58,61,0
2,note_on,53,61,0
2,note_on,53,0,120
2,note_on,58,0,0
2,note_on,62,0,0
2,note_on,53,68,0
2,note_on,58,68,0
2,note_on,62,81,0
2,note_on,62,0,240
2,note_on,58,0,0
2,note_on,53,0,0
2,note_on,53,66,0
2,note_on,62,77,0
2,note_on,58,66,0
2,note_on,58,0,45
2,note_on,62,0,0
2,note_on,53,0,0
2,note_on,53,68,75
2,note_on,62,81,0
2,note_on,58,68,0
2,note_on,58,0,45
2,note_on,62,0,0
2,note_on,53,0,0
2,note_on,53,68,75
2,note_on,62,81,0
2,note_on,58,68,0
2,note_on,58,0,120
2,note_on,62,0,0
2,note_on,53,0,0
2,note_on,50,68,120
2,note_on,58,81,0
2,note_on,53,68,0
2,note_on,53,0,120
2,note_on,58,0,0
2,note_on,50,0,0
2,note_on,34,84,480
2,note_on,34,0,120
2,note_on,62,81,0
2,note_on,50,68,0
2,note_on,58,68,0
2,note_on,53,68,0
2,note_on,53,0,360
2,note_on,62,0,0
2,note_on,50,0,0
2,note_on,58,0,0
2,note_on,58,61,0
2,note_on,50,61,0
2,note_on,53,61,0
2,note_on,62,73,0
2,note_on,62,0,120
2,note_on,58,0,0
2,note_on,50,0,0
2,note_on,53,0,0
2,note_on,62,97,0
2,note_on,50,81,0
2,note_on,50,0,240
2,note_on,62,0,0
2,note_on,57,66,0
2,note_on,62,77,0
2,note_on,50,66,0
2,note_on,54,66,0
2,note_on,54,0,45
2,note_on,57,0,0
2,note_on,62,0,0
2,note_on,50,0,0
2,note_on,62,81,75
2,note_on,54,68,0
2,note_on,57,68,0
2,note_on,50,68,0
2,note_on,50,0,45
2,note_on,62,0,0
2,note_on,54,0,0
2,note_on,57,0,0
2,note_on,57,68,75
2,note_on,54,68,0
2,note_on,62,81,0
2,note_on,50,68,0
2,note_on,50,0,120
2,note_on,57,0,0
2,note_on,54,0,0
2,note_on,62,0,0
2,note_on,57,68,120
2,note_on,50,68,0
2,note_on,54,68,0
2,note_on,62,81,0
2,note_on,62,0,120
2,note_on,57,0,0
2,note_on,50,0,0
2,note_on,54,0,0
2,note_on,50,39,480
2,note_on,50,0,120
2,note_on,62,45,0
2,note_on,62,0,360
2,note_on,50,40,0
2,note_on,50,0,120
2,note_on,62,47,0
2,note_on,62,0,360
2,note_on,50,42,0
2,note_on,50,0,120
2,note_on,62,49,0
2,note_on,62,0,360
2,note_on,50,41,0
2,note_on,50,0,120
2,note_on,62,52,0
2,note_on,62,0,360
2,note_on,50,44,0
2,note_on,50,0,120
2,note_on,57,55,0
2,note_on,60,55,0
2,note_on,60,0,360
2,note_on,57,0,0
2,note_on,50,46,0
2,note_on,50,0,120
2,note_on,60,58,0
2,note_on,57,58,0
2,note_on,57,0,360
2,note_on,60,0,0
2,note_on,50,50,0
2,note_on,50,0,120
2,note_on,57,60,0
2,note_on,54,60,0
2,note_on,54,0,360
2,note_on,57,0,0
2,note_on,50,52,0
2,note_on,50,0,120
2,note_on,45,63,0
2,note_on,45,0,360
2,note_on,50,52,0
2,note_on,50,0,120
2,note_on,45,65,0
2,note_on,45,0,360
2,note_on,50,57,0
2,note_on,50,0,120
2,note_on,43,68,0
2,note_on,43,0,360
2,note_on,50,57,0
2,note_on,50,0,120
2,note_on,42,71,0
2,note_on,42,0,360
2,note_on,50,59,0
2,note_on,50,0,120
2,note_on,39,73,0
2,note_on,39,0,360
2,note_on,50,67,0
2,note_on,50,0,120
2,note_on,38,67,0
2,note_on,50,73,0
2,note_on,50,0,240
2,note_on,38,0,0
2,note_on,75,48,0
2,note_on,75,0,120
2,note_on,74,48,0
2,note_on,74,0,120
2,note_on,75,54,0
2,note_on,75,0,240
2,note_on,74,44,0
2,note_on,74,0,120
2,note_on,73,44,0
2,note_on,73,0,120
2,note_on,74,44,0
2,note_on,74,0,240
2,note_on,63,43,0
2,note_on,63,0,120
2,note_on,62,43,0
2,note_on,62,0,120
2,note_on,63,51,0
2,note_on,63,0,240
2,note_on,62,43,0
2,note_on,62,0,120
2,note_on,61,43,0
2,note_on,61,0,120
2,note_on,62,51,0
2,note_on,62,0,240
2,note_on,50,42,120
2,note_on,50,0,120
2,note_on,54,51,0
2,note_on,54,0,240
2,note_on,57,40,120
2,note_on,57,0,120
2,note_on,60,51,0
2,note_on,60,0,240
2,note_on,66,43,120
2,note_on,66,0,120
2,note_on,69,51,0
2,note_on,69,0,240
2,note_on,72,45,0
2,note_on,72,0,120
2,note_on,69,45,0
2,note_on,69,0,120
2,note_on,81,40,0
2,note_on,81,0,120
2,note_on,83,40,0
2,note_on,83,0,120
2,note_on,84,44,0
2,note_on,84,0,120
2,note_on,81,40,0
2,note_on,81,0,120
2,note_on,72,40,0
2,note_on,72,0,120
2,note_on,74,40,0
2,note_on,74,0,120
2,note_on,76,45,0
2,note_on,76,0,120
2,note_on,72,40,0
2,note_on,72,0,120
2,note_on,69,40,0
2,note_on,69,0,120
2,note_on,71,40,0
2,note_on,71,0,120
2,note_on,72,45,0
2,note_on,72,0,120
2,note_on,69,40,0
2,note_on,69,0,118
2,note_on,66,40,2
2,note_on,66,0,120
2,note_on,67,40,0
2,note_on,67,0,120
2,note_on,69,45,0
2,note_on,69,0,120
2,note_on,66,40,0
2,note_on,66,0,120
2,note_on,71,51,0
2,note_on,62,48,0
2,note_on,67,48,0
2,note_on,67,0,240
2,note_on,62,0,0
2,note_on,71,0,0
2,note_on,50,42,120
2,note_on,50,0,120
2,note_on,55,51,0
2,note_on,55,0,240
2,note_on,59,40,120
2,note_on,59,0,120
2,note_on,62,51,0
2,note_on,62,0,240
2,note_on,67,43,120
2,note_on,67,0,120
2,note_on,71,51,0
2,note_on,71,0,240
2,note_on,74,45,120
2,note_on,74,0,120
2,note_on,79,40,0
2,note_on,79,0,120
2,note_on,81,40,0
2,note_on,81,0,120
2,note_on,83,44,0
2,note_on,83,0,120
2,note_on,79,40,0
2,note_on,79,0,118
2,note_on,71,40,2
2,note_on,71,0,120
2,note_on,72,40,0
2,note_on,72,0,120
2,note_on,74,45,0
2,note_on,74,0,120
2,note_on,71,40,0
2,note_on,71,0,120
2,note_on,67,40,0
2,note_on,67,0,120
2,note_on,69,40,0
2,note_on,69,0,120
2,note_on,71,45,0
2,note_on,71,0,118
2,note_on,67,40,2
2,note_on,67,0,118
2,note_on,71,40,2
2,note_on,71,0,120
2,note_on,72,40,0
2,note_on,72,0,120
2,note_on,74,45,0
2,note_on,74,0,120
2,note_on,71,40,0
2,note_on,71,0,120
2,note_on,72,40,0
2,note_on,72,0,120
2,note_on,74,40,0
2,note_on,74,0,120
2,note_on,72,45,0
2,note_on,72,0,120
2,note_on,71,40,0
2,note_on,71,0,120
2,note_on,72,40,0
2,note_on,72,0,120
2,note_on,74,40,0
2,note_on,74,0,120
2,note_on,76,45,0
2,note_on,76,0,120
2,note_on,72,40,0
2,note_on,72,0,120
2,note_on,69,46,0
2,note_on,69,0,120
2,note_on,71,38,0
2,note_on,71,0,120
2,note_on,72,45,0
2,note_on,72,0,120
2,note_on,69,40,0
2,note_on,69,0,120
2,note_on,66,45,0
2,note_on,66,0,120
2,note_on,67,36,0
2,note_on,67,0,120
2,note_on,69,41,0
2,note_on,69,0,120
2,note_on,66,36,0
2,note_on,66,0,120
2,note_on,60,46,0
2,note_on,60,0,120
2,note_on,62,38,0
2,note_on,62,0,120
2,note_on,64,45,0
2,note_on,64,0,120
2,note_on,60,40,0
2,note_on,60,0,120
2,note_on,57,45,0
2,note_on,57,0,120
2,note_on,59,36,0
2,note_on,59,0,120
2,note_on,60,41,0
2,note_on,60,0,120
2,note_on,57,36,0
2,note_on,57,0,120
2,note_on,54,46,0
2,note_on,54,0,120
2,note_on,55,38,0
2,note_on,55,0,120
2,note_on,57,45,0
2,note_on,57,0,120
2,note_on,54,40,0
2,note_on,54,0,120
2,note_on,69,45,0
2,note_on,69,0,120
2,note_on,67,36,0
2,note_on,67,0,120
2,note_on,66,41,0
2,note_on,66,0,120
2,note_on,69,36,0
2,note_on,69,0,120
2,note_on,71,40,0
2,note_on,71,0,120
2,note_on,72,40,0
2,note_on,72,0,120
2,note_on,71,45,0
2,note_on,71,0,120
2,note_on,69,40,0
2,note_on,69,0,120
2,note_on,71,40,0
2,note_on,71,0,120
2,note_on,72,40,0
2,note_on,72,0,120
2,note_on,74,45,0
2,note_on,74,0,120
2,note_on,71,40,0
2,note_on,71,0,120
2,note_on,67,46,0
2,note_on,67,0,120
2,note_on,69,38,0
2,note_on,69,0,120
2,note_on,71,45,0
2,note_on,71,0,120
2,note_on,67,40,0
2,note_on,67,0,120
2,note_on,62,45,0
2,note_on,62,0,120
2,note_on,66,36,0
2,note_on,66,0,120
2,note_on,67,41,0
2,note_on,67,0,120
2,note_on,62,36,0
2,note_on,62,0,120
2,note_on,59,46,0
2,note_on,59,0,120
2,note_on,60,38,0
2,note_on,60,0,120
2,note_on,62,45,0
2,note_on,62,0,120
2,note_on,59,40,0
2,note_on,59,0,120
2,note_on,55,45,0
2,note_on,55,0,120
2,note_on,57,36,0
2,note_on,57,0,120
2,note_on,59,41,0
2,note_on,59,0,120
2,note_on,55,36,0
2,note_on,55,0,120
2,note_on,50,46,0
2,note_on,50,0,120
2,note_on,54,38,0
2,note_on,54,0,120
2,note_on,55,45,0
2,note_on,55,0,120
2,note_on,50,40,0
2,note_on,50,0,120
2,note_on,48,45,0
2,note_on,48,0,120
2,note_on,55,36,0
2,note_on,55,0,120
2,note_on,50,41,0
2,note_on,50,0,120
2,note_on,48,36,0
2,note_on,48,0,120
2,note_on,47,36,0
2,note_on,47,0,240
2,note_on,43,34,0
2,note_on,55,40,0
2,note_on,55,0,240
2,note_on,43,0,0
2,note_on,52,36,0
2,note_on,48,30,0
2,note_on,48,0,120
2,note_on,52,0,0
2,note_on,60,40,120
2,note_on,60,0,120
2,note_on,57,36,0
2,note_on,57,0,120
2,note_on,54,36,0
2,note_on,54,0,240
2,note_on,50,31,0
2,note_on,62,36,0
2,note_on,62,0,240
2,note_on,50,0,0
2,note_on,59,36,0
2,note_on,55,30,0
2,note_on,55,0,120
2,note_on,59,0,0
2,note_on,64,36,120
2,note_on,55,30,0
2,note_on,55,0,480
2,note_on,64,0,0
2,note_on,55,30,0
2,note_on,64,36,0
2,note_on,64,0,240
2,note_on,55,0,0
2,note_on,66,40,0
2,note_on,57,34,0
2,note_on,57,0,240
2,note_on,66,0,0
2,note_on,57,25,0
2,note_on,67,30,0
2,note_on,67,0,120
2,note_on,69,36,0
2,note_on,69,0,120
2,note_on,57,0,0
2,note_on,69,36,0
2,note_on,62,30,0
2,note_on,69,0,240
2,note_on,71,36,0
2,note_on,71,0,180
2,note_on,73,31,0
2,note_on,73,0,60
2,note_on,74,36,0
2,note_on,74,0,240
2,note_on,62,0,0
2,note_on,76,37,0
2,note_on,76,0,120
2,note_on,78,36,0
2,note_on,78,0,120
2,note_on,79,36,0
2,note_on,79,0,240
2,note_on,74,36,0
2,note_on,71,30,0
2,note_on,71,0,240
2,note_on,74,0,0
2,note_on,72,30,0
2,note_on,76,36,0
2,note_on,76,0,120
2,note_on,72,0,0
2,note_on,69,36,120
2,note_on,69,0,120
2,note_on,72,32,0
2,note_on,72,0,120
2,note_on,74,36,0
2,note_on,74,0,240
2,note_on,66,30,0
2,note_on,69,36,0
2,note_on,69,0,240
2,note_on,66,0,0
2,note_on,67,33,0
2,note_on,71,36,0
2,note_on,71,0,120
2,note_on,67,0,0
2,note_on,67,30,360
2,note_on,64,30,0
2,note_on,71,36,0
2,note_on,71,0,240
2,note_on,64,0,0
2,note_on,67,0,0
2,note_on,72,36,0
2,note_on,67,30,0
2,note_on,64,30,0
2,note_on,64,0,240
2,note_on,67,0,0
2,note_on,72,0,0
2,note_on,64,30,0
2,note_on,67,36,0
2,note_on,72,36,0
2,note_on,67,0,120
2,note_on,69,30,0
2,note_on,69,0,120
2,note_on,72,0,0
2,note_on,64,0,0
2,note_on,66,30,0
2,note_on,63,30,0
2,note_on,71,36,0
2,note_on,71,0,240
2,note_on,63,0,0
2,note_on,66,0,0
2,note_on,71,36,0
2,note_on,66,30,0
2,note_on,63,30,0
2,note_on,63,0,240
2,note_on,66,0,0
2,note_on,71,0,0
2,note_on,63,31,0
2,note_on,59,26,0
2,note_on,59,0,240
2,note_on,63,0,0
2,note_on,64,30,0
2,note_on,67,36,0
2,note_on,67,0,240
2,note_on,64,0,0
2,note_on,62,34,0
2,note_on,65,40,0
2,note_on,65,0,120
2,note_on,62,0,0
2,note_on,64,36,0
2,note_on,61,30,0
2,note_on,61,0,120
2,note_on,64,0,0
2,note_on,61,30,0
2,note_on,64,36,0
2,note_on,64,0,240
2,note_on,61,0,0
2,note_on,57,26,0
2,note_on,61,31,0
2,note_on,61,0,240
2,note_on,57,0,0
2,note_on,62,30,0
2,note_on,65,36,0
2,note_on,65,0,240
2,note_on,62,0,0
2,note_on,63,40,0
2,note_on,60,34,0
2,note_on,60,0,120
2,note_on,63,0,0
2,note_on,62,36,0
2,note_on,59,30,0
2,note_on,59,0,119
2,note_on,62,0,0
2,note_on,59,30,1
2,note_on,62,36,0
2,note_on,62,0,240
2,note_on,59,0,0
2,note_on,59,31,0
2,note_on,55,26,0
2,note_on,55,0,240
2,note_on,59,0,0
2,note_on,60,30,0
2,note_on,64,36,0
2,note_on,64,0,240
2,note_on,60,0,0
2,note_on,63,40,0
2,note_on,59,34,0
2,note_on,59,0,120
2,note_on,63,0,0
2,note_on,58,30,0
2,note_on,61,36,0
2,note_on,61,0,119
2,note_on,58,0,0
2,note_on,58,30,1
2,note_on,61,36,0
2,note_on,61,0,240
2,note_on,58,0,0
2,note_on,58,31,0
2,note_on,54,26,0
2,note_on,54,0,240
2,note_on,58,0,0
2,note_on,62,36,0
2,note_on,59,30,0
2,note_on,59,0,240
2,note_on,62,0,0
2,note_on,61,40,0
2,note_on,57,34,0
2,note_on,57,0,120
2,note_on,61,0,0
2,note_on,59,36,0
2,note_on,56,30,0
2,note_on,56,0,120
2,note_on,59,0,0
2,note_on,59,36,0
2,note_on,56,30,0
2,note_on,56,0,240
2,note_on,59,0,0
2,note_on,57,36,0
2,note_on,64,30,0
2,note_on,57,0,120
2,note_on,55,30,0
2,note_on,55,0,120
2,note_on,64,0,0
2,note_on,54,30,0
2,note_on,57,36,0
2,note_on,57,0,240
2,note_on,54,0,0
2,note_on,55,36,0
2,note_on,59,30,0
2,note_on,55,0,120
2,note_on,47,32,0
2,note_on,47,0,120
2,note_on,59,0,0
2,note_on,50,25,0
2,note_on,60,30,0
2,note_on,45,25,0
2,note_on,45,0,1440
2,note_on,60,0,0
2,note_on,50,0,0
2,note_on,59,30,0
2,note_on,47,25,0
2,note_on,50,25,0
2,note_on,50,0,480
2,note_on,47,0,0
2,note_on,59,0,0
2,note_on,45,25,0
2,note_on,60,30,0
2,note_on,50,25,0
2,note_on,50,0,1440
2,note_on,60,0,0
2,note_on,45,0,0
2,note_on,47,25,0
2,note_on,50,25,0
2,note_on,59,30,0
2,note_on,59,0,480
2,note_on,50,0,0
2,note_on,47,0,0
2,note_on,47,30,0
2,note_on,35,25,0
2,note_on,35,0,480
2,note_on,47,0,0
2,note_on,40,23,0
2,note_on,52,28,0
2,note_on,52,0,480
2,note_on,40,0,0
2,note_on,49,30,0
2,note_on,37,25,0
2,note_on,37,0,480
2,note_on,49,0,0
2,note_on,50,29,0
2,note_on,38,24,0
2,note_on,38,0,240
2,note_on,50,0,0
2,note_on,57,25,240
2,note_on,72,30,0
2,note_on,62,25,0
2,note_on,62,0,1440
2,note_on,72,0,0
2,note_on,57,0,0
2,note_on,71,30,0
2,note_on,59,25,0
2,note_on,62,25,0
2,note_on,62,0,480
2,note_on,59,0,0
2,note_on,71,0,0
2,note_on,60,30,0
2,note_on,45,25,0
2,note_on,50,25,0
2,note_on,50,0,1440
2,note_on,45,0,0
2,note_on,60,0,0
2,note_on,47,25,0
2,note_on,59,30,0
2,note_on,50,25,0
2,note_on,50,0,240
2,note_on,59,0,0
2,note_on,47,0,0
2,note_on,59,30,0
2,note_on,59,0,240
2,note_on,59,30,0
2,note_on,59,0,480
2,note_on,64,28,0
2,note_on,64,0,480
2,note_on,61,30,0
2,note_on,61,0,480
2,note_on,62,29,0
2,note_on,62,0,240
2,note_on,63,29,0
2,note_on,63,0,240
2,note_on,64,31,0
2,note_on,64,0,480
2,note_on,69,30,0
2,note_on,69,0,480
2,note_on,66,33,0
2,note_on,66,0,480
2,note_on,67,34,0
2,note_on,67,0,240
2,note_on,68,34,0
2,note_on,68,0,240
2,note_on,69,36,0
2,note_on,69,0,480
2,note_on,73,35,0
2,note_on,73,0,480
2,note_on,71,39,0
2,note_on,71,0,480
2,note_on,60,39,0
2,note_on,72,39,0
2,note_on,72,0,720
2,note_on,60,0,0
2,note_on,36,56,0
2,note_on,48,66,0
2,note_on,48,0,240
2,note_on,36,0,0
2,note_on,64,82,720
2,note_on,60,69,0
2,note_on,60,0,120
2,note_on,64,0,0
2,note_on,59,67,120
2,note_on,62,79,0
2,note_on,62,0,240
2,note_on,59,0,0
2,note_on,60,68,0
2,note_on,64,81,0
2,note_on,64,0,120
2,note_on,60,0,0
2,note_on,65,84,0
2,note_on,62,71,0
2,note_on,62,0,120
2,note_on,65,0,0
2,note_on,67,88,0
2,note_on,64,74,0
2,note_on,64,0,120
2,note_on,67,0,0
2,note_on,48,66,120
2,note_on,36,56,0
2,note_on,36,0,240
2,note_on,48,0,0
2,note_on,37,62,720
2,note_on,49,74,0
2,note_on,49,0,240
2,note_on,37,0,0
2,note_on,45,79,240
2,note_on,33,67,0
2,note_on,33,0,240
2,note_on,45,0,0
2,note_on,50,74,240
2,note_on,38,62,0
2,note_on,38,0,240
2,note_on,50,0,0
2,note_on,52,79,240
2,note_on,40,67,0
2,note_on,40,0,240
2,note_on,52,0,0
2,note_on,38,50,0
2,note_on,38,0,120
2,note_on,42,50,0
2,note_on,42,0,120
2,note_on,43,50,0
2,note_on,43,0,120
2,note_on,47,50,0
2,note_on,47,0,120
2,note_on,50,50,0
2,note_on,50,0,120
2,note_on,54,50,0
2,note_on,54,0,120
2,note_on,55,50,0
2,note_on,55,0,120
2,note_on,59,50,0
2,note_on,59,0,120
2,note_on,62,50,0
2,note_on,62,0,120
2,note_on,66,50,0
2,note_on,66,0,120
2,note_on,67,50,0
2,note_on,67,0,120
2,note_on,71,50,0
2,note_on,71,0,120
2,note_on,67,43,240
2,note_on,67,0,120
2,note_on,71,44,0
2,note_on,71,0,120
2,note_on,73,45,0
2,note_on,73,0,120
2,note_on,74,46,0
2,note_on,74,0,120
2,note_on,76,47,0
2,note_on,76,0,120
2,note_on,74,48,0
2,note_on,74,0,120
2,note_on,78,50,0
2,note_on,78,0,120
2,note_on,79,51,0
2,note_on,79,0,120
2,note_on,81,52,0
2,note_on,81,0,120
2,note_on,79,53,0
2,note_on,79,0,120
2,note_on,82,54,0
2,note_on,82,0,120
2,note_on,83,55,0
2,note_on,83,0,120
2,note_on,84,56,0
2,note_on,84,0,120
2,note_on,83,58,0
2,note_on,83,0,120
2,note_on,86,59,0
2,note_on,86,0,240
2,note_on,62,60,0
2,note_on,62,0,80
2,note_on,64,63,0
2,note_on,64,0,80
2,note_on,66,66,0
2,note_on,66,0,80
2,note_on,55,40,0
2,note_on,55,0,160
2,note_on,71,32,0
2,note_on,71,0,160
2,note_on,67,32,0
2,note_on,67,0,160
2,note_on,66,40,0
2,note_on,66,0,160
2,note_on,71,33,0
2,note_on,71,0,160
2,note_on,67,33,0
2,note_on,67,0,160
2,note_on,63,40,0
2,note_on,63,0,160
2,note_on,72,31,0
2,note_on,72,0,160
2,note_on,67,31,0
2,note_on,67,0,160
2,note_on,60,40,0
2,note_on,60,0,160
2,note_on,72,33,0
2,note_on,72,0,160
2,note_on,67,33,0
2,note_on,67,0,160
2,note_on,59,40,0
2,note_on,59,0,160
2,note_on,71,31,0
2,note_on,71,0,160
2,note_on,67,31,0
2,note_on,67,0,160
2,note_on,55,40,0
2,note_on,55,0,160
2,note_on,71,32,0
2,note_on,71,0,160
2,note_on,67,32,0
2,note_on,67,0,160
2,note_on,60,40,0
2,note_on,60,0,160
2,note_on,72,33,0
2,note_on,72,0,160
2,note_on,67,33,0
2,note_on,67,0,160
2,note_on,63,40,0
2,note_on,63,0,160
2,note_on,72,32,0
2,note_on,72,0,160
2,note_on,67,32,0
2,note_on,67,0,160
2,note_on,62,40,0
2,note_on,62,0,160
2,note_on,70,32,0
2,note_on,70,0,160
2,note_on,67,32,0
2,note_on,67,0,160
2,note_on,62,40,0
2,note_on,62,0,160
2,note_on,71,36,0
2,note_on,71,0,160
2,note_on,67,36,0
2,note_on,67,0,160
2,note_on,62,40,0
2,note_on,62,0,160
2,note_on,72,33,0
2,note_on,72,0,160
2,note_on,69,33,0
2,note_on,69,0,160
2,note_on,50,40,0
2,note_on,50,0,160
2,note_on,62,34,0
2,note_on,62,0,160
2,note_on,60,34,0
2,note_on,60,0,160
2,note_on,43,40,0
2,note_on,43,0,120
2,note_on,55,33,0
2,note_on,55,0,120
2,note_on,59,33,0
2,note_on,59,0,120
2,note_on,55,33,0
2,note_on,55,0,120
2,note_on,54,41,0
2,note_on,54,0,120
2,note_on,55,35,0
2,note_on,55,0,120
2,note_on,67,35,0
2,note_on,67,0,120
2,note_on,55,35,0
2,note_on,55,0,120
2,note_on,52,42,0
2,note_on,52,0,120
2,note_on,55,36,0
2,note_on,55,0,120
2,note_on,67,36,0
2,note_on,67,0,120
2,note_on,55,37,0
2,note_on,55,0,120
2,note_on,48,44,0
2,note_on,48,0,120
2,note_on,55,37,0
2,note_on,55,0,120
2,note_on,64,37,0
2,note_on,64,0,120
2,note_on,55,38,0
2,note_on,55,0,120
2,note_on,47,45,0
2,note_on,47,0,120
2,note_on,55,37,0
2,note_on,55,0,120
2,note_on,62,37,0
2,note_on,62,0,120
2,note_on,55,37,0
2,note_on,55,0,120
2,note_on,43,46,0
2,note_on,43,0,120
2,note_on,55,39,0
2,note_on,55,0,120
2,note_on,59,40,0
2,note_on,59,0,120
2,note_on,55,40,0
2,note_on,55,0,120
2,note_on,48,48,0
2,note_on,48,0,120
2,note_on,55,42,0
2,note_on,55,0,120
2,note_on,64,42,0
2,note_on,64,0,120
2,note_on,55,42,0
2,note_on,55,0,120
2,note_on,52,51,0
2,note_on,52,0,120
2,note_on,55,43,0
2,note_on,55,0,120
2,note_on,67,43,0
2,note_on,67,0,120
2,note_on,55,43,0
2,note_on,55,0,120
2,note_on,50,50,0
2,note_on,50,0,120
2,note_on,52,44,0
2,note_on,52,0,120
2,note_on,54,48,0
2,note_on,54,0,120
2,note_on,55,51,0
2,note_on,55,0,120
2,note_on,57,54,0
2,note_on,57,0,120
2,note_on,59,55,0
2,note_on,59,0,120
2,note_on,57,55,0
2,note_on,57,0,120
2,note_on,55,54,0
2,note_on,55,0,120
2,note_on,54,54,0
2,note_on,54,0,120
2,note_on,55,49,0
2,note_on,55,0,120
2,note_on,54,49,0
2,note_on,54,0,120
2,note_on,52,49,0
2,note_on,52,0,120
2,note_on,50,54,0
2,note_on,50,0,120
2,note_on,48,50,0
2,note_on,48,0,120
2,note_on,47,59,0
2,note_on,47,0,120
2,note_on,45,66,0
2,note_on,45,0,120
2,note_on,31,66,0
2,note_on,31,0,120
2,note_on,43,56,0
2,note_on,43,0,120
2,note_on,31,66,0
2,note_on,31,0,120
2,note_on,43,56,0
2,note_on,43,0,120
2,note_on,31,66,0
2,note_on,31,0,120
2,note_on,43,57,0
2,note_on,43,0,120
2,note_on,31,66,0
2,note_on,31,0,120
2,note_on,43,57,0
2,note_on,43,0,120
2,note_on,31,66,0
2,note_on,31,0,120
2,note_on,43,57,0
2,note_on,43,0,120
2,note_on,31,66,0
2,note_on,31,0,120
2,note_on,43,58,0
2,note_on,43,0,120
2,note_on,31,66,0
2,note_on,31,0,120
2,note_on,43,59,0
2,note_on,43,0,120
2,note_on,32,45,0
2,note_on,32,0,120
2,note_on,44,34,0
2,note_on,44,0,120
2,note_on,33,43,0
2,note_on,33,0,120
2,note_on,45,33,0
2,note_on,45,0,120
2,note_on,32,43,0
2,note_on,32,0,120
2,note_on,44,33,0
2,note_on,44,0,120
2,note_on,33,43,0
2,note_on,33,0,120
2,note_on,45,34,0
2,note_on,45,0,120
2,note_on,36,43,0
2,note_on,36,0,120
2,note_on,48,35,0
2,note_on,48,0,120
2,note_on,37,43,0
2,note_on,37,0,120
2,note_on,49,33,0
2,note_on,49,0,120
2,note_on,40,43,0
2,note_on,40,0,120
2,note_on,52,33,0
2,note_on,52,0,120
2,note_on,38,43,0
2,note_on,38,0,120
2,note_on,50,34,0
2,note_on,50,0,120
2,note_on,38,43,0
2,note_on,38,0,120
2,note_on,50,35,0
2,note_on,50,0,120
2,note_on,38,47,0
2,note_on,38,0,120
2,note_on,50,36,0
2,note_on,50,0,120
2,note_on,43,48,0
2,note_on,43,0,120
2,note_on,55,37,0
2,note_on,55,0,120
2,note_on,38,50,0
2,note_on,38,0,120
2,note_on,50,40,0
2,note_on,50,0,118
2,note_on,50,53,2
2,note_on,50,0,120
2,note_on,62,44,0
2,note_on,62,0,120
2,note_on,38,54,0
2,note_on,38,0,120
2,note_on,50,42,0
2,note_on,50,0,120
2,note_on,43,57,0
2,note_on,43,0,120
2,note_on,55,44,0
2,note_on,55,0,120
2,note_on,38,58,0
2,note_on,38,0,120
2,note_on,50,47,0
2,note_on,50,0,118
2,note_on,50,61,2
2,note_on,50,0,120
2,note_on,62,51,0
2,note_on,62,0,120
2,note_on,43,59,0
2,note_on,43,0,120
2,note_on,55,50,0
2,note_on,55,0,120
2,note_on,38,61,0
2,note_on,38,0,120
2,note_on,50,51,0
2,note_on,50,0,120
2,note_on,42,64,0
2,note_on,42,0,120
2,note_on,54,55,0
2,note_on,54,0,120
2,note_on,45,67,0
2,note_on,45,0,120
2,note_on,57,58,0
2,note_on,57,0,120
2,note_on,43,68,0
2,note_on,43,0,120
2,note_on,55,63,0
2,note_on,55,0,120
2,note_on,38,71,0
2,note_on,38,0,120
2,note_on,50,63,0
2,note_on,50,0,120
2,note_on,30,74,0
2,note_on,30,0,120
2,note_on,42,64,0
2,note_on,42,0,120
2,note_on,33,76,0
2,note_on,33,0,120
2,note_on,45,67,0
2,note_on,45,0,120
2,note_on,31,69,0
2,note_on,43,81,0
2,note_on,43,0,180
2,note_on,31,0,0
2,note_on,33,69,300
2,note_on,45,81,0
2,note_on,45,0,180
2,note_on,33,0,0
2,note_on,34,72,300
2,note_on,46,86,0
2,note_on,46,0,840
2,note_on,34,0,0
2,note_on,46,50,0
2,note_on,46,0,120
2,note_on,58,71,0
2,note_on,58,0,360
2,note_on,58,58,0
2,note_on,58,0,120
2,note_on,58,65,0
2,note_on,58,0,240
2,note_on,50,50,1080
2,note_on,50,0,120
2,note_on,62,71,0
2,note_on,62,0,360
2,note_on,62,58,0
2,note_on,62,0,120
2,note_on,62,64,0
2,note_on,62,0,240
2,note_on,34,96,1080
2,note_on,34,0,120
2,note_on,53,78,0
2,note_on,62,93,0
2,note_on,58,78,0
2,note_on,58,0,360
2,note_on,62,0,0
2,note_on,53,0,0
2,note_on,58,69,0
2,note_on,62,84,0
2,note_on,53,69,0
2,note_on,53,0,120
2,note_on,62,0,0
2,note_on,58,0,0
2,note_on,58,78,0
2,note_on,53,78,0
2,note_on,62,93,0
2,note_on,62,0,180
2,note_on,53,0,0
2,note_on,58,0,0
2,note_on,58,75,60
2,note_on,62,88,0
2,note_on,53,75,0
2,note_on,53,0,45
2,note_on,62,0,0
2,note_on,58,0,0
2,note_on,58,78,75
2,note_on,53,78,0
2,note_on,62,93,0
2,note_on,62,0,45
2,note_on,53,0,0
2,note_on,58,0,0
2,note_on,62,93,75
2,note_on,53,78,0
2,note_on,58,78,0
2,note_on,58,0,120
2,note_on,53,0,0
2,note_on,62,0,0
2,note_on,50,78,120
2,note_on,58,93,0
2,note_on,53,78,0
2,note_on,53,0,120
2,note_on,58,0,0
2,note_on,50,0,0
2,note_on,34,96,480
2,note_on,34,0,120
2,note_on,62,78,0
2,note_on,58,78,0
2,note_on,65,93,0
2,note_on,53,78,0
2,note_on,53,0,360
2,note_on,62,0,0
2,note_on,58,0,0
2,note_on,65,0,0
2,note_on,53,69,0
2,note_on,65,84,0
2,note_on,62,69,0
2,note_on,58,69,0
2,note_on,58,0,120
2,note_on,53,0,0
2,note_on,65,0,0
2,note_on,62,0,0
2,note_on,58,78,0
2,note_on,65,93,0
2,note_on,62,78,0
2,note_on,53,78,0
2,note_on,53,0,180
2,note_on,58,0,0
2,note_on,65,0,0
2,note_on,62,0,0
2,note_on,53,75,60
2,note_on,58,75,0
2,note_on,65,88,0
2,note_on,62,75,0
2,note_on,62,0,45
2,note_on,53,0,0
2,note_on,58,0,0
2,note_on,65,0,0
2,note_on,58,78,75
2,note_on,65,93,0
2,note_on,53,78,0
2,note_on,62,78,0
2,note_on,62,0,45
2,note_on,58,0,0
2,note_on,65,0,0
2,note_on,53,0,0
2,note_on,53,78,75
2,note_on,62,78,0
2,note_on,65,93,0
2,note_on,58,78,0
2,note_on,58,0,120
2,note_on,53,0,0
2,note_on,62,0,0
2,note_on,65,0,0
2,note_on,58,78,120
2,note_on,62,93,0
2,note_on,53,78,0
2,note_on,53,0,120
2,note_on,62,0,0
2,note_on,58,0,0
2,note_on,64,29,840
2,note_on,64,0,240
2,note_on,65,29,0
2,note_on,65,0,240
2,note_on,59,40,0
2,note_on,59,0,240
2,note_on,60,40,0
2,note_on,60,0,240
2,note_on,54,36,0
2,note_on,54,0,240
2,note_on,55,36,0
2,note_on,55,0,240
2,note_on,51,40,0
2,note_on,51,0,240
2,note_on,50,40,0
2,note_on,50,0,240
2,note_on,49,35,0
2,note_on,49,0,240
2,note_on,48,35,0
2,note_on,48,0,240
2,note_on,41,40,0
2,note_on,41,0,240
2,note_on,46,38,0
2,note_on,46,0,240
2,note_on,39,30,0
2,note_on,39,0,240
2,note_on,41,27,0
2,note_on,41,0,240
2,note_on,76,29,480
2,note_on,76,0,240
2,note_on,77,29,0
2,note_on,77,0,240
2,note_on,71,40,0
2,note_on,71,0,240
2,note_on,72,40,0
2,note_on,72,0,240
2,note_on,66,36,0
2,note_on,66,0,240
2,note_on,67,36,0
2,note_on,67,0,240
2,note_on,63,40,0
2,note_on,63,0,240
2,note_on,62,40,0
2,note_on,62,0,240
2,note_on,61,35,0
2,note_on,61,0,240
2,note_on,60,35,0
2,note_on,60,0,240
2,note_on,53,40,0
2,note_on,53,0,240
2,note_on,58,36,0
2,note_on,58,0,240
2,note_on,54,43,0
2,note_on,54,0,240
2,note_on,53,44,0
2,note_on,53,0,240
2,note_on,51,45,0
2,note_on,51,0,240
2,note_on,50,46,0
2,note_on,50,0,240
2,note_on,49,47,0
2,note_on,49,0,240
2,note_on,48,48,0
2,note_on,48,0,240
2,note_on,41,50,0
2,note_on,41,0,240
2,note_on,46,50,0
2,note_on,46,0,240
2,note_on,42,52,0
2,note_on,42,0,240
2,note_on,41,53,0
2,note_on,41,0,240
2,note_on,39,54,0
2,note_on,39,0,240
2,note_on,38,55,0
2,note_on,38,0,240
2,note_on,37,56,0
2,note_on,37,0,240
2,note_on,36,57,0
2,note_on,36,0,240
2,note_on,30,58,0
2,note_on,30,0,240
2,note_on,31,67,0
2,note_on,31,0,240
2,note_on,39,61,0
2,note_on,39,0,240
2,note_on,41,70,0
2,note_on,41,0,120
2,note_on,29,66,120
2,note_on,41,66,0
2,note_on,41,0,120
2,note_on,29,0,0
2,note_on,34,57,120
2,note_on,46,68,0
2,note_on,46,0,120
2,note_on,34,0,0
2,note_on,62,56,0
2,note_on,53,47,0
2,note_on,58,47,0
2,note_on,58,0,120
2,note_on,53,0,0
2,note_on,62,0,0
2,note_on,53,47,0
2,note_on,62,56,0
2,note_on,58,47,0
2,note_on,58,0,120
2,note_on,62,0,0
2,note_on,53,0,0
2,note_on,62,56,0
2,note_on,53,47,0
2,note_on,58,47,0
2,note_on,58,0,120
2,note_on,53,0,0
2,note_on,62,0,0
2,note_on,53,45,120
2,note_on,58,45,0
2,note_on,62,53,0
2,note_on,62,0,120
2,note_on,58,0,0
2,note_on,53,0,0
2,note_on,58,45,0
2,note_on,53,45,0
2,note_on,62,54,0
2,note_on,62,0,120
2,note_on,53,0,0
2,note_on,58,0,0
2,note_on,62,54,0
2,note_on,53,45,0
2,note_on,58,45,0
2,note_on,58,0,120
2,note_on,53,0,0
2,note_on,62,0,0
2,note_on,53,37,120
2,note_on,62,44,0
2,note_on,58,37,0
2,note_on,58,0,60
2,note_on,62,0,0
2,note_on,53,0,0
2,note_on,58,44,180
2,note_on,50,37,0
2,note_on,50,0,60
2,note_on,58,0,0
2,note_on,62,44,180
2,note_on,58,37,0
2,note_on,53,37,0
2,note_on,53,0,60
2,note_on,58,0,0
2,note_on,62,0,0
2,note_on,58,37,180
2,note_on,60,44,0
2,note_on,51,37,0
2,note_on,51,0,60
2,note_on,60,0,0
2,note_on,58,0,0
2,note_on,34,65,60
2,note_on,46,78,0
2,note_on,46,0,120
2,note_on,34,0,0
2,note_on,55,54,0
2,note_on,63,64,0
2,note_on,58,54,0
2,note_on,58,0,120
2,note_on,63,0,0
2,note_on,55,0,0
2,note_on,55,54,0
2,note_on,58,54,0
2,note_on,63,64,0
2,note_on,63,0,120
2,note_on,58,0,0
2,note_on,55,0,0
2,note_on,58,54,0
2,note_on,63,64,0
2,note_on,55,54,0
2,note_on,55,0,120
2,note_on,63,0,0
2,note_on,58,0,0
2,note_on,60,53,120
2,note_on,51,45,0
2,note_on,58,45,0
2,note_on,58,0,120
2,note_on,51,0,0
2,note_on,60,0,0
2,note_on,51,45,0
2,note_on,58,45,0
2,note_on,60,54,0
2,note_on,60,0,120
2,note_on,58,0,0
2,note_on,51,0,0
2,note_on,60,54,0
2,note_on,51,45,0
2,note_on,58,45,0
2,note_on,58,0,120
2,note_on,51,0,0
2,note_on,60,0,0
2,note_on,55,37,120
2,note_on,63,44,0
2,note_on,58,37,0
2,note_on,58,0,60
2,note_on,63,0,0
2,note_on,55,0,0
2,note_on,58,37,180
2,note_on,61,44,0
2,note_on,52,37,0
2,note_on,52,0,60
2,note_on,61,0,0
2,note_on,58,0,0
2,note_on,58,37,180
2,note_on,63,44,0
2,note_on,54,37,0
2,note_on,54,0,60
2,note_on,63,0,0
2,note_on,58,0,0
2,note_on,58,37,180
2,note_on,53,37,0
2,note_on,62,44,0
2,note_on,62,0,60
2,note_on,53,0,0
2,note_on,58,0,0
2,note_on,34,62,60
2,note_on,46,74,0
2,note_on,46,0,120
2,note_on,34,0,0
2,note_on,58,51,0
2,note_on,56,51,0
2,note_on,65,61,0
2,note_on,65,0,120
2,note_on,56,0,0
2,note_on,58,0,0
2,note_on,56,51,0
2,note_on,58,51,0
2,note_on,65,61,0
2,note_on,65,0,120
2,note_on,58,0,0
2,note_on,56,0,0
2,note_on,65,61,0
2,note_on,58,51,0
2,note_on,56,51,0
2,note_on,56,0,120
2,note_on,58,0,0
2,note_on,65,0,0
2,note_on,58,45,120
2,note_on,62,53,0
2,note_on,53,45,0
2,note_on,53,0,120
2,note_on,62,0,0
2,note_on,58,0,0
2,note_on,58,45,0
2,note_on,62,54,0
2,note_on,53,45,0
2,note_on,53,0,120
2,note_on,62,0,0
2,note_on,58,0,0
2,note_on,53,45,0
2,note_on,62,54,0
2,note_on,58,45,0
2,note_on,58,0,120
2,note_on,62,0,0
2,note_on,53,0,0
2,note_on,58,37,120
2,note_on,65,44,0
2,note_on,56,37,0
2,note_on,56,0,60
2,note_on,65,0,0
2,note_on,58,0,0
2,note_on,62,44,180
2,note_on,54,37,0
2,note_on,58,37,0
2,note_on,58,0,60
2,note_on,54,0,0
2,note_on,62,0,0
2,note_on,56,37,180
2,note_on,58,37,0
2,note_on,65,44,0
2,note_on,65,0,60
2,note_on,58,0,0
2,note_on,56,0,0
2,note_on,63,44,180
2,note_on,58,37,0
2,note_on,55,37,0
2,note_on,55,0,60
2,note_on,58,0,0
2,note_on,63,0,0
2,note_on,46,74,60
2,note_on,34,62,0
2,note_on,34,0,120
2,note_on,46,0,0
2,note_on,67,61,0
2,note_on,58,51,0
2,note_on,63,51,0
2,note_on,63,0,120
2,note_on,58,0,0
2,note_on,67,0,0
2,note_on,58,51,0
2,note_on,67,61,0
2,note_on,63,51,0
2,note_on,63,0,120
2,note_on,67,0,0
2,note_on,58,0,0
2,note_on,67,61,0
2,note_on,63,51,0
2,note_on,58,51,0
2,note_on,58,0,120
2,note_on,63,0,0
2,note_on,67,0,0
2,note_on,55,45,120
2,note_on,58,45,0
2,note_on,63,53,0
2,note_on,63,0,120
2,note_on,58,0,0
2,note_on,55,0,0
2,note_on,55,45,0
2,note_on,58,45,0
2,note_on,63,54,0
2,note_on,63,0,120
2,note_on,58,0,0
2,note_on,55,0,0
2,note_on,55,45,0
2,note_on,63,54,0
2,note_on,58,45,0
2,note_on,58,0,120
2,note_on,63,0,0
2,note_on,55,0,0
2,note_on,63,33,120
2,note_on,67,39,0
2,note_on,58,33,0
2,note_on,58,0,60
2,note_on,67,0,0
2,note_on,63,0,0
2,note_on,64,39,180
2,note_on,61,33,0
2,note_on,58,33,0
2,note_on,58,0,60
2,note_on,61,0,0
2,note_on,64,0,0
2,note_on,63,36,180
2,note_on,66,44,0
2,note_on,58,36,0
2,note_on,58,0,60
2,note_on,66,0,0
2,note_on,63,0,0
2,note_on,58,37,180
2,note_on,65,45,0
2,note_on,62,37,0
2,note_on,62,0,60
2,note_on,65,0,0
2,note_on,58,0,0
2,note_on,58,39,180
2,note_on,68,46,0
2,note_on,65,39,0
2,note_on,65,0,60
2,note_on,68,0,0
2,note_on,58,0,0
2,note_on,58,40,180
2,note_on,62,40,0
2,note_on,66,48,0
2,note_on,66,0,60
2,note_on,62,0,0
2,note_on,58,0,0
2,note_on,65,42,180
2,note_on,58,42,0
2,note_on,68,50,0
2,note_on,68,0,60
2,note_on,58,0,0
2,note_on,65,0,0
2,note_on,58,43,180
2,note_on,63,43,0
2,note_on,67,52,0
2,note_on,67,0,60
2,note_on,63,0,0
2,note_on,58,0,0
2,note_on,67,53,180
2,note_on,58,45,0
2,note_on,63,45,0
2,note_on,60,45,0
2,note_on,60,0,60
2,note_on,67,0,0
2,note_on,58,0,0
2,note_on,63,0,0
2,note_on,63,45,180
2,note_on,60,45,0
2,note_on,68,54,0
2,note_on,58,45,0
2,note_on,58,0,60
2,note_on,63,0,0
2,note_on,60,0,0
2,note_on,68,0,0
2,note_on,58,47,180
2,note_on,60,47,0
2,note_on,63,47,0
2,note_on,70,56,0
2,note_on,70,0,60
2,note_on,58,0,0
2,note_on,60,0,0
2,note_on,63,0,0
2,note_on,60,48,180
2,note_on,58,48,0
2,note_on,69,58,0
2,note_on,63,48,0
2,note_on,63,0,60
2,note_on,60,0,0
2,note_on,58,0,0
2,note_on,69,0,0
2,note_on,60,56,180
2,note_on,72,66,0
2,note_on,72,0,60
2,note_on,60,0,0
2,note_on,58,56,180
2,note_on,70,66,0
2,note_on,70,0,60
2,note_on,58,0,0
2,note_on,67,66,180
2,note_on,55,56,0
2,note_on,55,0,60
2,note_on,67,0,0
2,note_on,53,56,180
2,note_on,65,66,0
2,note_on,65,0,60
2,note_on,53,0,0
2,note_on,63,59,180
2,note_on,51,50,0
2,note_on,51,0,60
2,note_on,63,0,0
2,note_on,62,59,180
2,note_on,50,50,0
2,note_on,50,0,60
2,note_on,62,0,0
2,note_on,60,59,180
2,note_on,48,50,0
2,note_on,48,0,60
2,note_on,60,0,0
2,note_on,46,50,180
2,note_on,58,59,0
2,note_on,58,0,60
2,note_on,46,0,0
2,note_on,43,50,180
2,note_on,55,59,0
2,note_on,55,0,60
2,note_on,43,0,0
2,note_on,53,59,180
2,note_on,41,50,0
2,note_on,41,0,60
2,note_on,53,0,0
2,note_on,51,56,180
2,note_on,39,47,0
2,note_on,39,0,60
2,note_on,51,0,0
2,note_on,38,47,180
2,note_on,50,56,0
2,note_on,50,0,60
2,note_on,38,0,0
2,note_on,36,45,180
2,note_on,48,53,0
2,note_on,48,0,60
2,note_on,36,0,0
2,note_on,46,53,180
2,note_on,34,45,0
2,note_on,34,0,60
2,note_on,46,0,0
2,note_on,31,45,180
2,note_on,43,53,0
2,note_on,43,0,60
2,note_on,31,0,0
2,note_on,41,53,180
2,note_on,29,45,0
2,note_on,29,0,60
2,note_on,41,0,0
2,note_on,33,42,180
2,note_on,33,0,120
2,note_on,29,28,120
2,note_on,29,0,120
2,note_on,36,39,120
2,note_on,36,0,120
2,note_on,29,27,120
2,note_on,29,0,120
2,note_on,41,37,120
2,note_on,41,0,120
2,note_on,29,26,120
2,note_on,29,0,120
2,note_on,45,34,120
2,note_on,45,0,120
2,note_on,29,24,120
2,note_on,29,0,120
2,note_on,48,32,120
2,note_on,48,0,120
2,note_on,29,23,120
2,note_on,29,0,120
2,note_on,53,29,120
2,note_on,53,0,120
2,note_on,29,24,120
2,note_on,29,0,120
2,note_on,53,28,120
2,note_on,53,0,120
2,note_on,29,21,120
2,note_on,29,0,120
2,note_on,53,21,120
2,note_on,53,0,120
2,note_on,34,84,120
2,note_on,34,0,120
2,note_on,53,68,0
2,note_on,58,68,0
2,note_on,62,81,0
2,note_on,62,0,360
2,note_on,58,0,0
2,note_on,53,0,0
2,note_on,53,61,0
2,note_on,58,61,0
2,note_on,62,73,0
2,note_on,62,0,120
2,note_on,58,0,0
2,note_on,53,0,0
2,note_on,62,81,0
2,note_on,58,68,0
2,note_on,53,68,0
2,note_on,53,0,240
2,note_on,58,0,0
2,note_on,62,0,0
2,note_on,62,77,0
2,note_on,58,66,0
2,note_on,53,66,0
2,note_on,53,0,45
2,note_on,58,0,0
2,note_on,62,0,0
2,note_on,53,68,75
2,note_on,62,81,0
2,note_on,58,68,0
2,note_on,58,0,45
2,note_on,62,0,0
2,note_on,53,0,0
2,note_on,58,68,75
2,note_on,62,81,0
2,note_on,53,68,0
2,note_on,53,0,120
2,note_on,62,0,0
2,note_on,58,0,0
2,note_on,50,68,120
2,note_on,53,68,0
2,note_on,58,81,0
2,note_on,58,0,120
2,note_on,53,0,0
2,note_on,50,0,0
2,note_on,34,84,480
2,note_on,34,0,120
2,note_on,53,68,0
2,note_on,50,68,0
2,note_on,58,68,0
2,note_on,62,81,0
2,note_on,62,0,360
2,note_on,53,0,0
2,note_on,50,0,0
2,note_on,58,0,0
2,note_on,53,61,0
2,note_on,62,73,0
2,note_on,50,61,0
2,note_on,58,61,0
2,note_on,58,0,120
2,note_on,53,0,0
2,note_on,62,0,0
2,note_on,50,0,0
2,note_on,50,81,0
2,note_on,62,97,0
2,note_on,62,0,240
2,note_on,50,0,0
2,note_on,50,66,0
2,note_on,62,77,0
2,note_on,54,66,0
2,note_on,57,66,0
2,note_on,57,0,45
2,note_on,50,0,0
2,note_on,62,0,0
2,note_on,54,0,0
2,note_on,50,68,75
2,note_on,57,68,0
2,note_on,54,68,0
2,note_on,62,81,0
2,note_on,62,0,45
2,note_on,50,0,0
2,note_on,57,0,0
2,note_on,54,0,0
2,note_on,54,68,75
2,note_on,57,68,0
2,note_on,50,68,0
2,note_on,62,81,0
2,note_on,62,0,120
2,note_on,54,0,0
2,note_on,57,0,0
2,note_on,50,0,0
2,note_on,50,68,120
2,note_on,62,81,0
2,note_on,54,68,0
2,note_on,57,68,0
2,note_on,57,0,120
2,note_on,50,0,0
2,note_on,62,0,0
2,note_on,54,0,0
2,note_on,50,39,480
2,note_on,50,0,120
2,note_on,62,45,0
2,note_on,62,0,360
2,note_on,50,40,0
2,note_on,50,0,120
2,note_on,62,47,0
2,note_on,62,0,360
2,note_on,50,42,0
2,note_on,50,0,120
2,note_on,62,49,0
2,note_on,62,0,360
2,note_on,50,41,0
2,note_on,50,0,120
2,note_on,62,52,0
2,note_on,62,0,360
2,note_on,50,44,0
2,note_on,50,0,120
2,note_on,60,55,0
2,note_on,57,55,0
2,note_on,57,0,360
2,note_on,60,0,0
2,note_on,50,46,0
2,note_on,50,0,120
2,note_on,60,58,0
2,note_on,57,58,0
2,note_on,57,0,360
2,note_on,60,0,0
2,note_on,50,50,0
2,note_on,50,0,120
2,note_on,57,60,0
2,note_on,54,60,0
2,note_on,54,0,360
2,note_on,57,0,0
2,note_on,50,52,0
2,note_on,50,0,120
2,note_on,45,63,0
2,note_on,45,0,360
2,note_on,50,52,0
2,note_on,50,0,120
2,note_on,45,65,0
2,note_on,45,0,360
2,note_on,50,57,0
2,note_on,50,0,120
2,note_on,43,68,0
2,note_on,43,0,360
2,note_on,50,57,0
2,note_on,50,0,120
2,note_on,42,71,0
2,note_on,42,0,360
2,note_on,50,59,0
2,note_on,50,0,120
2,note_on,39,73,0
2,note_on,39,0,360
2,note_on,50,67,0
2,note_on,50,0,120
2,note_on,50,73,0
2,note_on,38,67,0
2,note_on,38,0,240
2,note_on,50,0,0
2,note_on,75,48,0
2,note_on,75,0,120
2,note_on,74,48,0
2,note_on,74,0,120
2,note_on,75,54,0
2,note_on,75,0,240
2,note_on,74,44,0
2,note_on,74,0,120
2,note_on,73,44,0
2,note_on,73,0,120
2,note_on,74,44,0
2,note_on,74,0,240
2,note_on,63,43,0
2,note_on,63,0,120
2,note_on,62,43,0
2,note_on,62,0,120
2,note_on,63,51,0
2,note_on,63,0,240
2,note_on,62,43,0
2,note_on,62,0,120
2,note_on,61,43,0
2,note_on,61,0,120
2,note_on,62,51,0
2,note_on,62,0,240
2,note_on,50,42,120
2,note_on,50,0,120
2,note_on,54,51,0
2,note_on,54,0,240
2,note_on,57,40,120
2,note_on,57,0,120
2,note_on,60,51,0
2,note_on,60,0,240
2,note_on,66,43,120
2,note_on,66,0,120
2,note_on,69,51,0
2,note_on,69,0,240
2,note_on,72,45,0
2,note_on,72,0,120
2,note_on,69,45,0
2,note_on,69,0,120
2,note_on,81,40,0
2,note_on,81,0,120
2,note_on,83,40,0
2,note_on,83,0,120
2,note_on,84,44,0
2,note_on,84,0,120
2,note_on,81,40,0
2,note_on,81,0,120
2,note_on,72,40,0
2,note_on,72,0,120
2,note_on,74,40,0
2,note_on,74,0,120
2,note_on,76,45,0
2,note_on,76,0,120
2,note_on,72,40,0
2,note_on,72,0,120
2,note_on,69,40,0
2,note_on,69,0,120
2,note_on,71,40,0
2,note_on,71,0,120
2,note_on,72,45,0
2,note_on,72,0,120
2,note_on,69,40,0
2,note_on,69,0,118
2,note_on,66,40,2
2,note_on,66,0,120
2,note_on,67,40,0
2,note_on,67,0,120
2,note_on,69,45,0
2,note_on,69,0,120
2,note_on,66,40,0
2,note_on,66,0,120
2,note_on,67,48,0
2,note_on,71,51,0
2,note_on,62,48,0
2,note_on,62,0,240
2,note_on,71,0,0
2,note_on,67,0,0
2,note_on,50,42,120
2,note_on,50,0,120
2,note_on,55,51,0
2,note_on,55,0,240
2,note_on,59,40,120
2,note_on,59,0,120
2,note_on,62,51,0
2,note_on,62,0,240
2,note_on,67,43,120
2,note_on,67,0,120
2,note_on,71,51,0
2,note_on,71,0,240
2,note_on,74,45,120
2,note_on,74,0,120
2,note_on,79,40,0
2,note_on,79,0,120
2,note_on,81,40,0
2,note_on,81,0,120
2,note_on,83,44,0
2,note_on,83,0,120
2,note_on,79,40,0
2,note_on,79,0,118
2,note_on,71,40,2
2,note_on,71,0,120
2,note_on,72,40,0
2,note_on,72,0,120
2,note_on,74,45,0
2,note_on,74,0,120
2,note_on,71,40,0
2,note_on,71,0,120
2,note_on,67,40,0
2,note_on,67,0,120
2,note_on,69,40,0
2,note_on,69,0,120
2,note_on,71,45,0
2,note_on,71,0,118
2,note_on,67,40,2
2,note_on,67,0,118
2,note_on,71,40,2
2,note_on,71,0,120
2,note_on,72,40,0
2,note_on,72,0,120
2,note_on,74,45,0
2,note_on,74,0,120
2,note_on,71,40,0
2,note_on,71,0,120
2,note_on,72,40,0
2,note_on,72,0,120
2,note_on,74,40,0
2,note_on,74,0,120
2,note_on,72,45,0
2,note_on,72,0,120
2,note_on,71,40,0
2,note_on,71,0,120
2,note_on,72,40,0
2,note_on,72,0,120
2,note_on,74,40,0
2,note_on,74,0,120
2,note_on,76,45,0
2,note_on,76,0,120
2,note_on,72,40,0
2,note_on,72,0,120
2,note_on,69,46,0
2,note_on,69,0,120
2,note_on,71,38,0
2,note_on,71,0,120
2,note_on,72,45,0
2,note_on,72,0,120
2,note_on,69,40,0
2,note_on,69,0,120
2,note_on,66,45,0
2,note_on,66,0,120
2,note_on,67,36,0
2,note_on,67,0,120
2,note_on,69,41,0
2,note_on,69,0,120
2,note_on,66,36,0
2,note_on,66,0,120
2,note_on,60,46,0
2,note_on,60,0,120
2,note_on,62,38,0
2,note_on,62,0,120
2,note_on,64,45,0
2,note_on,64,0,120
2,note_on,60,40,0
2,note_on,60,0,120
2,note_on,57,45,0
2,note_on,57,0,120
2,note_on,59,36,0
2,note_on,59,0,120
2,note_on,60,41,0
2,note_on,60,0,120
2,note_on,57,36,0
2,note_on,57,0,120
2,note_on,54,46,0
2,note_on,54,0,120
2,note_on,55,38,0
2,note_on,55,0,120
2,note_on,57,45,0
2,note_on,57,0,120
2,note_on,54,40,0
2,note_on,54,0,120
2,note_on,69,45,0
2,note_on,69,0,120
2,note_on,67,36,0
2,note_on,67,0,120
2,note_on,66,41,0
2,note_on,66,0,120
2,note_on,69,36,0
2,note_on,69,0,120
2,note_on,71,40,0
2,note_on,71,0,120
2,note_on,72,40,0
2,note_on,72,0,120
2,note_on,71,45,0
2,note_on,71,0,120
2,note_on,69,40,0
2,note_on,69,0,120
2,note_on,71,40,0
2,note_on,71,0,120
2,note_on,72,40,0
2,note_on,72,0,120
2,note_on,74,45,0
2,note_on,74,0,120
2,note_on,71,40,0
2,note_on,71,0,120
2,note_on,67,46,0
2,note_on,67,0,120
2,note_on,69,38,0
2,note_on,69,0,120
2,note_on,71,45,0
2,note_on,71,0,120
2,note_on,67,40,0
2,note_on,67,0,120
2,note_on,62,45,0
2,note_on,62,0,120
2,note_on,66,36,0
2,note_on,66,0,120
2,note_on,67,41,0
2,note_on,67,0,120
2,note_on,62,36,0
2,note_on,62,0,120
2,note_on,59,46,0
2,note_on,59,0,120
2,note_on,60,38,0
2,note_on,60,0,120
2,note_on,62,45,0
2,note_on,62,0,120
2,note_on,59,40,0
2,note_on,59,0,120
2,note_on,55,45,0
2,note_on,55,0,120
2,note_on,57,36,0
2,note_on,57,0,120
2,note_on,59,41,0
2,note_on,59,0,120
2,note_on,55,36,0
2,note_on,55,0,120
2,note_on,50,46,0
2,note_on,50,0,120
2,note_on,54,38,0
2,note_on,54,0,120
2,note_on,55,45,0
2,note_on,55,0,120
2,note_on,50,40,0
2,note_on,50,0,120
2,note_on,48,45,0
2,note_on,48,0,120
2,note_on,55,36,0
2,note_on,55,0,120
2,note_on,50,41,0
2,note_on,50,0,120
2,note_on,48,36,0
2,note_on,48,0,120
2,note_on,47,36,0
2,note_on,47,0,240
2,note_on,43,34,0
2,note_on,55,40,0
2,note_on,55,0,240
2,note_on,43,0,0
2,note_on,52,36,0
2,note_on,48,30,0
2,note_on,48,0,120
2,note_on,52,0,0
2,note_on,60,40,120
2,note_on,60,0,120
2,note_on,57,36,0
2,note_on,57,0,120
2,note_on,54,36,0
2,note_on,54,0,240
2,note_on,50,31,0
2,note_on,62,36,0
2,note_on,62,0,240
2,note_on,50,0,0
2,note_on,55,30,0
2,note_on,59,36,0
2,note_on,59,0,120
2,note_on,55,0,0
2,note_on,64,36,120
2,note_on,55,30,0
2,note_on,55,0,480
2,note_on,64,0,0
2,note_on,55,30,0
2,note_on,64,36,0
2,note_on,64,0,240
2,note_on,55,0,0
2,note_on,66,40,0
2,note_on,57,34,0
2,note_on,57,0,240
2,note_on,66,0,0
2,note_on,67,30,0
2,note_on,57,25,0
2,note_on,67,0,120
2,note_on,69,36,0
2,note_on,69,0,120
2,note_on,57,0,0
2,note_on,62,30,0
2,note_on,69,36,0
2,note_on,69,0,240
2,note_on,71,36,0
2,note_on,71,0,180
2,note_on,73,31,0
2,note_on,73,0,60
2,note_on,74,36,0
2,note_on,74,0,240
2,note_on,62,0,0
2,note_on,76,37,0
2,note_on,76,0,120
2,note_on,78,36,0
2,note_on,78,0,120
2,note_on,79,36,0
2,note_on,79,0,240
2,note_on,71,30,0
2,note_on,74,36,0
2,note_on,74,0,240
2,note_on,71,0,0
2,note_on,76,36,0
2,note_on,72,30,0
2,note_on,72,0,120
2,note_on,76,0,0
2,note_on,69,36,120
2,note_on,69,0,120
2,note_on,72,32,0
2,note_on,72,0,120
2,note_on,74,36,0
2,note_on,74,0,240
2,note_on,69,36,0
2,note_on,66,30,0
2,note_on,66,0,240
2,note_on,69,0,0
2,note_on,67,33,0
2,note_on,71,36,0
2,note_on,71,0,120
2,note_on,67,0,0
2,note_on,64,30,360
2,note_on,67,30,0
2,note_on,71,36,0
2,note_on,71,0,240
2,note_on,67,0,0
2,note_on,64,0,0
2,note_on,64,30,0
2,note_on,72,36,0
2,note_on,67,30,0
2,note_on,67,0,240
2,note_on,72,0,0
2,note_on,64,0,0
2,note_on,67,36,0
2,note_on,64,30,0
2,note_on,72,36,0
2,note_on,67,0,120
2,note_on,69,30,0
2,note_on,69,0,120
2,note_on,72,0,0
2,note_on,64,0,0
2,note_on,63,30,0
2,note_on,66,30,0
2,note_on,71,36,0
2,note_on,71,0,240
2,note_on,66,0,0
2,note_on,63,0,0
2,note_on,66,30,0
2,note_on,71,36,0
2,note_on,63,30,0
2,note_on,63,0,240
2,note_on,71,0,0
2,note_on,66,0,0
2,note_on,63,31,0
2,note_on,59,26,0
2,note_on,59,0,240
2,note_on,63,0,0
2,note_on,67,36,0
2,note_on,64,30,0
2,note_on,64,0,240
2,note_on,67,0,0
2,note_on,65,40,0
2,note_on,62,34,0
2,note_on,62,0,120
2,note_on,65,0,0
2,note_on,64,36,0
2,note_on,61,30,0
2,note_on,61,0,119
2,note_on,64,0,0
2,note_on,64,36,1
2,note_on,61,30,0
2,note_on,61,0,240
2,note_on,64,0,0
2,note_on,61,31,0
2,note_on,57,26,0
2,note_on,57,0,240
2,note_on,61,0,0
2,note_on,65,36,0
2,note_on,62,30,0
2,note_on,62,0,240
2,note_on,65,0,0
2,note_on,63,40,0
2,note_on,60,34,0
2,note_on,60,0,120
2,note_on,63,0,0
2,note_on,62,36,0
2,note_on,59,30,0
2,note_on,59,0,120
2,note_on,62,0,0
2,note_on,59,30,0
2,note_on,62,36,0
2,note_on,62,0,240
2,note_on,59,0,0
2,note_on,55,26,0
2,note_on,59,31,0
2,note_on,59,0,240
2,note_on,55,0,0
2,note_on,60,30,0
2,note_on,64,36,0
2,note_on,64,0,240
2,note_on,60,0,0
2,note_on,59,34,0
2,note_on,63,40,0
2,note_on,63,0,120
2,note_on,59,0,0
2,note_on,58,30,0
2,note_on,61,36,0
2,note_on,61,0,119
2,note_on,58,0,0
2,note_on,58,30,1
2,note_on,61,36,0
2,note_on,61,0,240
2,note_on,58,0,0
2,note_on,54,26,0
2,note_on,58,31,0
2,note_on,58,0,240
2,note_on,54,0,0
2,note_on,59,30,0
2,note_on,62,36,0
2,note_on,62,0,240
2,note_on,59,0,0
2,note_on,57,34,0
2,note_on,61,40,0
2,note_on,61,0,120
2,note_on,57,0,0
2,note_on,59,36,0
2,note_on,56,30,0
2,note_on,56,0,119
2,note_on,59,0,0
2,note_on,59,36,1
2,note_on,56,30,0
2,note_on,56,0,240
2,note_on,59,0,0
2,note_on,57,36,0
2,note_on,64,30,0
2,note_on,57,0,120
2,note_on,55,30,0
2,note_on,55,0,120
2,note_on,64,0,0
2,note_on,57,36,0
2,note_on,54,30,0
2,note_on,54,0,240
2,note_on,57,0,0
2,note_on,55,36,0
2,note_on,59,30,0
2,note_on,55,0,120
2,note_on,47,32,0
2,note_on,47,0,120
2,note_on,59,0,0
2,note_on,45,25,0
2,note_on,50,25,0
2,note_on,60,30,0
2,note_on,60,0,1440
2,note_on,50,0,0
2,note_on,45,0,0
2,note_on,59,30,0
2,note_on,47,25,0
2,note_on,50,25,0
2,note_on,50,0,480
2,note_on,47,0,0
2,note_on,59,0,0
2,note_on,45,25,0
2,note_on,60,30,0
2,note_on,50,25,0
2,note_on,50,0,1440
2,note_on,60,0,0
2,note_on,45,0,0
2,note_on,47,25,0
2,note_on,59,30,0
2,note_on,50,25,0
2,note_on,50,0,480
2,note_on,59,0,0
2,note_on,47,0,0
2,note_on,35,25,0
2,note_on,47,30,0
2,note_on,47,0,480
2,note_on,35,0,0
2,note_on,52,28,0
2,note_on,40,23,0
2,note_on,40,0,480
2,note_on,52,0,0
2,note_on,37,25,0
2,note_on,49,30,0
2,note_on,49,0,480
2,note_on,37,0,0
2,note_on,50,29,0
2,note_on,38,24,0
2,note_on,38,0,240
2,note_on,50,0,0
2,note_on,62,25,240
2,note_on,72,30,0
2,note_on,57,25,0
2,note_on,57,0,1440
2,note_on,72,0,0
2,note_on,62,0,0
2,note_on,71,30,0
2,note_on,59,25,0
2,note_on,62,25,0
2,note_on,62,0,480
2,note_on,59,0,0
2,note_on,71,0,0
2,note_on,45,25,0
2,note_on,50,25,0
2,note_on,60,30,0
2,note_on,60,0,1440
2,note_on,50,0,0
2,note_on,45,0,0
2,note_on,50,25,0
2,note_on,47,25,0
2,note_on,59,30,0
2,note_on,59,0,240
2,note_on,47,0,0
2,note_on,50,0,0
2,note_on,59,30,0
2,note_on,59,0,238
2,note_on,59,30,2
2,note_on,59,0,480
2,note_on,64,28,0
2,note_on,64,0,480
2,note_on,61,30,0
2,note_on,61,0,480
2,note_on,62,29,0
2,note_on,62,0,240
2,note_on,63,29,0
2,note_on,63,0,240
2,note_on,64,31,0
2,note_on,64,0,480
2,note_on,69,30,0
2,note_on,69,0,480
2,note_on,66,33,0
2,note_on,66,0,480
2,note_on,67,34,0
2,note_on,67,0,240
2,note_on,68,34,0
2,note_on,68,0,240
2,note_on,69,36,0
2,note_on,69,0,480
2,note_on,73,35,0
2,note_on,73,0,480
2,note_on,71,39,0
2,note_on,71,0,480
2,note_on,60,39,0
2,note_on,72,39,0
2,note_on,72,0,720
2,note_on,60,0,0
2,note_on,48,66,0
2,note_on,36,56,0
2,note_on,36,0,240
2,note_on,48,0,0
2,note_on,60,69,720
2,note_on,64,82,0
2,note_on,64,0,120
2,note_on,60,0,0
2,note_on,59,67,120
2,note_on,62,79,0
2,note_on,62,0,240
2,note_on,59,0,0
2,note_on,60,68,0
2,note_on,64,81,0
2,note_on,64,0,120
2,note_on,60,0,0
2,note_on,62,71,0
2,note_on,65,84,0
2,note_on,65,0,120
2,note_on,62,0,0
2,note_on,64,74,0
2,note_on,67,88,0
2,note_on,67,0,120
2,note_on,64,0,0
2,note_on,36,56,120
2,note_on,48,66,0
2,note_on,48,0,240
2,note_on,36,0,0
2,note_on,37,62,720
2,note_on,49,74,0
2,note_on,49,0,240
2,note_on,37,0,0
2,note_on,45,79,240
2,note_on,33,67,0
2,note_on,33,0,240
2,note_on,45,0,0
2,note_on,38,62,240
2,note_on,50,74,0
2,note_on,50,0,240
2,note_on,38,0,0
2,note_on,40,67,240
2,note_on,52,79,0
2,note_on,52,0,240
2,note_on,40,0,0
2,note_on,38,50,0
2,note_on,38,0,120
2,note_on,42,50,0
2,note_on,42,0,120
2,note_on,43,50,0
2,note_on,43,0,120
2,note_on,47,50,0
2,note_on,47,0,120
2,note_on,50,50,0
2,note_on,50,0,120
2,note_on,54,50,0
2,note_on,54,0,120
2,note_on,55,50,0
2,note_on,55,0,120
2,note_on,59,50,0
2,note_on,59,0,120
2,note_on,62,50,0
2,note_on,62,0,120
2,note_on,66,50,0
2,note_on,66,0,120
2,note_on,67,50,0
2,note_on,67,0,120
2,note_on,71,50,0
2,note_on,71,0,120
2,note_on,67,43,240
2,note_on,67,0,120
2,note_on,71,44,0
2,note_on,71,0,120
2,note_on,73,45,0
2,note_on,73,0,120
2,note_on,74,46,0
2,note_on,74,0,120
2,note_on,76,47,0
2,note_on,76,0,120
2,note_on,74,48,0
2,note_on,74,0,120
2,note_on,78,50,0
2,note_on,78,0,120
2,note_on,79,51,0
2,note_on,79,0,120
2,note_on,81,52,0
2,note_on,81,0,120
2,note_on,79,53,0
2,note_on,79,0,120
2,note_on,82,54,0
2,note_on,82,0,120
2,note_on,83,55,0
2,note_on,83,0,120
2,note_on,84,56,0
2,note_on,84,0,120
2,note_on,83,58,0
2,note_on,83,0,120
2,note_on,86,59,0
2,note_on,86,0,240
2,note_on,62,60,0
2,note_on,62,0,80
2,note_on,64,63,0
2,note_on,64,0,80
2,note_on,66,66,0
2,note_on,66,0,80
2,note_on,55,40,0
2,note_on,55,0,160
2,note_on,71,32,0
2,note_on,71,0,160
2,note_on,67,32,0
2,note_on,67,0,160
2,note_on,66,40,0
2,note_on,66,0,160
2,note_on,71,33,0
2,note_on,71,0,160
2,note_on,67,33,0
2,note_on,67,0,160
2,note_on,63,40,0
2,note_on,63,0,160
2,note_on,72,31,0
2,note_on,72,0,160
2,note_on,67,31,0
2,note_on,67,0,160
2,note_on,60,40,0
2,note_on,60,0,160
2,note_on,72,33,0
2,note_on,72,0,160
2,note_on,67,33,0
2,note_on,67,0,160
2,note_on,59,40,0
2,note_on,59,0,160
2,note_on,71,31,0
2,note_on,71,0,160
2,note_on,67,31,0
2,note_on,67,0,160
2,note_on,55,40,0
2,note_on,55,0,160
2,note_on,71,32,0
2,note_on,71,0,160
2,note_on,67,32,0
2,note_on,67,0,160
2,note_on,60,40,0
2,note_on,60,0,160
2,note_on,72,33,0
2,note_on,72,0,160
2,note_on,67,33,0
2,note_on,67,0,160
2,note_on,63,40,0
2,note_on,63,0,160
2,note_on,72,32,0
2,note_on,72,0,160
2,note_on,67,32,0
2,note_on,67,0,160
2,note_on,62,40,0
2,note_on,62,0,160
2,note_on,70,32,0
2,note_on,70,0,160
2,note_on,67,32,0
2,note_on,67,0,160
2,note_on,62,40,0
2,note_on,62,0,160
2,note_on,71,36,0
2,note_on,71,0,160
2,note_on,67,36,0
2,note_on,67,0,160
2,note_on,62,40,0
2,note_on,62,0,160
2,note_on,72,33,0
2,note_on,72,0,160
2,note_on,69,33,0
2,note_on,69,0,160
2,note_on,50,40,0
2,note_on,50,0,160
2,note_on,62,34,0
2,note_on,62,0,160
2,note_on,60,34,0
2,note_on,60,0,160
2,note_on,43,40,0
2,note_on,43,0,120
2,note_on,55,33,0
2,note_on,55,0,120
2,note_on,59,33,0
2,note_on,59,0,120
2,note_on,55,33,0
2,note_on,55,0,120
2,note_on,54,41,0
2,note_on,54,0,120
2,note_on,55,35,0
2,note_on,55,0,120
2,note_on,67,35,0
2,note_on,67,0,120
2,note_on,55,35,0
2,note_on,55,0,120
2,note_on,52,42,0
2,note_on,52,0,120
2,note_on,55,36,0
2,note_on,55,0,120
2,note_on,67,36,0
2,note_on,67,0,120
2,note_on,55,37,0
2,note_on,55,0,120
2,note_on,48,44,0
2,note_on,48,0,120
2,note_on,55,37,0
2,note_on,55,0,120
2,note_on,64,37,0
2,note_on,64,0,120
2,note_on,55,38,0
2,note_on,55,0,120
2,note_on,47,45,0
2,note_on,47,0,120
2,note_on,55,37,0
2,note_on,55,0,120
2,note_on,62,37,0
2,note_on,62,0,120
2,note_on,55,37,0
2,note_on,55,0,120
2,note_on,43,46,0
2,note_on,43,0,120
2,note_on,55,39,0
2,note_on,55,0,120
2,note_on,59,40,0
2,note_on,59,0,120
2,note_on,55,40,0
2,note_on,55,0,120
2,note_on,48,48,0
2,note_on,48,0,120
2,note_on,55,42,0
2,note_on,55,0,120
2,note_on,64,42,0
2,note_on,64,0,120
2,note_on,55,42,0
2,note_on,55,0,120
2,note_on,52,51,0
2,note_on,52,0,120
2,note_on,55,43,0
2,note_on,55,0,120
2,note_on,67,43,0
2,note_on,67,0,120
2,note_on,55,43,0
2,note_on,55,0,120
2,note_on,50,50,0
2,note_on,50,0,120
2,note_on,52,44,0
2,note_on,52,0,120
2,note_on,54,48,0
2,note_on,54,0,120
2,note_on,55,51,0
2,note_on,55,0,120
2,note_on,57,54,0
2,note_on,57,0,120
2,note_on,59,55,0
2,note_on,59,0,120
2,note_on,57,55,0
2,note_on,57,0,120
2,note_on,55,54,0
2,note_on,55,0,120
2,note_on,54,54,0
2,note_on,54,0,120
2,note_on,55,49,0
2,note_on,55,0,120
2,note_on,54,49,0
2,note_on,54,0,120
2,note_on,52,49,0
2,note_on,52,0,120
2,note_on,50,54,0
2,note_on,50,0,120
2,note_on,48,50,0
2,note_on,48,0,120
2,note_on,47,59,0
2,note_on,47,0,120
2,note_on,45,66,0
2,note_on,45,0,120
2,note_on,31,66,0
2,note_on,31,0,120
2,note_on,43,56,0
2,note_on,43,0,120
2,note_on,31,66,0
2,note_on,31,0,120
2,note_on,43,56,0
2,note_on,43,0,120
2,note_on,31,66,0
2,note_on,31,0,120
2,note_on,43,57,0
2,note_on,43,0,120
2,note_on,31,66,0
2,note_on,31,0,120
2,note_on,43,57,0
2,note_on,43,0,120
2,note_on,31,66,0
2,note_on,31,0,120
2,note_on,43,57,0
2,note_on,43,0,120
2,note_on,31,66,0
2,note_on,31,0,120
2,note_on,43,58,0
2,note_on,43,0,120
2,note_on,31,66,0
2,note_on,31,0,120
2,note_on,43,59,0
2,note_on,43,0,120
2,note_on,32,45,0
2,note_on,32,0,120
2,note_on,44,34,0
2,note_on,44,0,120
2,note_on,33,43,0
2,note_on,33,0,120
2,note_on,45,33,0
2,note_on,45,0,120
2,note_on,32,43,0
2,note_on,32,0,120
2,note_on,44,33,0
2,note_on,44,0,120
2,note_on,33,43,0
2,note_on,33,0,120
2,note_on,45,34,0
2,note_on,45,0,120
2,note_on,36,43,0
2,note_on,36,0,120
2,note_on,48,35,0
2,note_on,48,0,120
2,note_on,37,43,0
2,note_on,37,0,120
2,note_on,49,33,0
2,note_on,49,0,120
2,note_on,40,43,0
2,note_on,40,0,120
2,note_on,52,33,0
2,note_on,52,0,120
2,note_on,38,43,0
2,note_on,38,0,120
2,note_on,50,34,0
2,note_on,50,0,120
2,note_on,38,43,0
2,note_on,38,0,120
2,note_on,50,35,0
2,note_on,50,0,120
2,note_on,38,47,0
2,note_on,38,0,120
2,note_on,50,36,0
2,note_on,50,0,120
2,note_on,43,48,0
2,note_on,43,0,120
2,note_on,55,37,0
2,note_on,55,0,120
2,note_on,38,50,0
2,note_on,38,0,120
2,note_on,50,40,0
2,note_on,50,0,120
2,note_on,50,53,0
2,note_on,50,0,120
2,note_on,62,44,0
2,note_on,62,0,120
2,note_on,38,54,0
2,note_on,38,0,120
2,note_on,50,42,0
2,note_on,50,0,120
2,note_on,43,57,0
2,note_on,43,0,120
2,note_on,55,44,0
2,note_on,55,0,120
2,note_on,38,58,0
2,note_on,38,0,120
2,note_on,50,47,0
2,note_on,50,0,120
2,note_on,50,61,0
2,note_on,50,0,120
2,note_on,62,51,0
2,note_on,62,0,120
2,note_on,43,59,0
2,note_on,43,0,120
2,note_on,55,50,0
2,note_on,55,0,120
2,note_on,38,61,0
2,note_on,38,0,120
2,note_on,50,51,0
2,note_on,50,0,120
2,note_on,42,64,0
2,note_on,42,0,120
2,note_on,54,55,0
2,note_on,54,0,120
2,note_on,45,67,0
2,note_on,45,0,120
2,note_on,57,58,0
2,note_on,57,0,120
2,note_on,43,68,0
2,note_on,43,0,120
2,note_on,55,63,0
2,note_on,55,0,120
2,note_on,38,71,0
2,note_on,38,0,120
2,note_on,50,63,0
2,note_on,50,0,120
2,note_on,30,74,0
2,note_on,30,0,120
2,note_on,42,64,0
2,note_on,42,0,120
2,note_on,33,76,0
2,note_on,33,0,120
2,note_on,45,67,0
2,note_on,45,0,120
2,note_on,43,81,0
2,note_on,31,69,0
2,note_on,31,0,180
2,note_on,43,0,0
2,note_on,33,69,300
2,note_on,45,81,0
2,note_on,45,0,180
2,note_on,33,0,0
2,note_on,35,72,300
2,note_on,47,86,0
2,note_on,47,0,960
2,note_on,35,0,0
2,note_on,47,81,0
2,note_on,35,69,0
2,note_on,35,0,180
2,note_on,47,0,0
2,note_on,48,81,300
2,note_on,36,69,0
2,note_on,36,0,180
2,note_on,48,0,0
2,note_on,50,86,300
2,note_on,38,72,0
2,note_on,38,0,960
2,note_on,50,0,0
2,note_on,71,39,0
2,note_on,71,0,120
2,note_on,67,33,0
2,note_on,67,0,120
2,note_on,71,39,0
2,note_on,71,0,120
2,note_on,67,33,0
2,note_on,67,0,120
2,note_on,71,39,0
2,note_on,71,0,120
2,note_on,67,34,0
2,note_on,67,0,120
2,note_on,72,39,0
2,note_on,72,0,120
2,note_on,67,34,0
2,note_on,67,0,120
2,note_on,74,39,0
2,note_on,74,0,120
2,note_on,67,34,0
2,note_on,67,0,120
2,note_on,72,39,0
2,note_on,72,0,120
2,note_on,67,34,0
2,note_on,67,0,120
2,note_on,71,39,0
2,note_on,71,0,120
2,note_on,67,35,0
2,note_on,67,0,120
2,note_on,74,27,0
2,note_on,74,0,120
2,note_on,67,20,0
2,note_on,67,0,120
2,note_on,72,39,0
2,note_on,72,0,120
2,note_on,67,33,0
2,note_on,67,0,120
2,note_on,72,39,0
2,note_on,72,0,120
2,note_on,67,33,0
2,note_on,67,0,120
2,note_on,72,39,0
2,note_on,72,0,120
2,note_on,67,34,0
2,note_on,67,0,120
2,note_on,71,39,0
2,note_on,71,0,120
2,note_on,67,34,0
2,note_on,67,0,120
2,note_on,72,39,0
2,note_on,72,0,120
2,note_on,67,34,0
2,note_on,67,0,120
2,note_on,71,39,0
2,note_on,71,0,120
2,note_on,67,34,0
2,note_on,67,0,120
2,note_on,72,39,0
2,note_on,72,0,120
2,note_on,67,35,0
2,note_on,67,0,120
2,note_on,72,27,0
2,note_on,72,0,120
2,note_on,60,20,0
2,note_on,60,0,120
2,note_on,70,42,0
2,note_on,70,0,120
2,note_on,58,36,0
2,note_on,58,0,120
2,note_on,62,44,0
2,note_on,70,44,0
2,note_on,70,0,120
2,note_on,62,0,0
2,note_on,58,38,0
2,note_on,58,0,120
2,note_on,70,46,0
2,note_on,62,46,0
2,note_on,62,0,120
2,note_on,70,0,0
2,note_on,58,41,0
2,note_on,58,0,120
2,note_on,70,48,0
2,note_on,63,48,0
2,note_on,63,0,120
2,note_on,70,0,0
2,note_on,58,43,0
2,note_on,58,0,120
2,note_on,65,50,0
2,note_on,70,50,0
2,note_on,70,0,120
2,note_on,65,0,0
2,note_on,58,44,0
2,note_on,58,0,120
2,note_on,70,52,0
2,note_on,63,52,0
2,note_on,63,0,120
2,note_on,70,0,0
2,note_on,58,46,0
2,note_on,58,0,120
2,note_on,70,54,0
2,note_on,62,54,0
2,note_on,62,0,120
2,note_on,70,0,0
2,note_on,58,49,0
2,note_on,58,0,120
2,note_on,44,44,0
2,note_on,44,0,120
2,note_on,56,33,0
2,note_on,56,0,120
2,note_on,43,77,0
2,note_on,43,0,120
2,note_on,55,70,0
2,note_on,55,0,114
2,note_on,55,70,6
2,note_on,55,0,120
2,note_on,67,70,0
2,note_on,67,0,120
2,note_on,41,77,0
2,note_on,41,0,120
2,note_on,53,69,0
2,note_on,53,0,114
2,note_on,53,69,6
2,note_on,53,0,120
2,note_on,65,69,0
2,note_on,65,0,120
2,note_on,39,85,0
2,note_on,39,0,120
2,note_on,51,67,0
2,note_on,51,0,114
2,note_on,63,82,6
2,note_on,51,69,0
2,note_on,51,0,720
2,note_on,63,0,0
2,note_on,55,40,240
2,note_on,55,0,120
2,note_on,58,35,0
2,note_on,58,0,120
2,note_on,53,40,240
2,note_on,53,0,120
2,note_on,56,34,0
2,note_on,56,0,120
2,note_on,55,40,240
2,note_on,55,0,600
2,note_on,51,93,0
2,note_on,51,0,120
2,note_on,63,90,0
2,note_on,63,0,357
2,note_on,63,61,3
2,note_on,63,0,117
2,note_on,63,66,3
2,note_on,63,0,240
2,note_on,55,91,1080
2,note_on,55,0,120
2,note_on,67,80,0
2,note_on,67,0,357
2,note_on,67,63,3
2,note_on,67,0,117
2,note_on,67,69,3
2,note_on,67,0,240
2,note_on,39,40,2040
2,note_on,39,0,120
2,note_on,44,44,0
2,note_on,44,0,358
2,note_on,44,40,2
2,note_on,44,0,118
2,note_on,44,43,2
2,note_on,44,0,240
2,note_on,46,44,0
2,note_on,46,0,90
2,note_on,44,40,30
2,note_on,44,0,90
2,note_on,44,44,30
2,note_on,44,0,68
2,note_on,41,39,172
2,note_on,41,0,90
2,note_on,41,39,150
2,note_on,41,0,480
2,note_on,46,44,0
2,note_on,46,0,90
2,note_on,46,44,150
2,note_on,46,0,90
2,note_on,44,44,30
2,note_on,44,0,90
2,note_on,43,44,30
2,note_on,43,0,120
2,note_on,43,44,120
2,note_on,43,0,90
2,note_on,41,44,30
2,note_on,41,0,90
2,note_on,40,44,30
2,note_on,40,0,240
2,note_on,40,39,240
2,note_on,40,0,480
2,note_on,48,44,0
2,note_on,48,0,90
2,note_on,48,44,150
2,note_on,48,0,90
2,note_on,46,44,30
2,note_on,46,0,90
2,note_on,44,44,30
2,note_on,44,0,120
2,note_on,44,44,120
2,note_on,44,0,90
2,note_on,43,44,30
2,note_on,43,0,90
2,note_on,41,44,30
2,note_on,41,0,240
2,note_on,48,37,120
2,note_on,48,0,90
2,note_on,53,37,30
2,note_on,53,0,120
2,note_on,53,38,120
2,note_on,53,0,90
2,note_on,51,38,30
2,note_on,51,0,90
2,note_on,50,46,30
2,note_on,50,0,90
2,note_on,50,39,150
2,note_on,50,0,90
2,note_on,48,39,30
2,note_on,48,0,90
2,note_on,46,39,30
2,note_on,46,0,120
2,note_on,48,40,120
2,note_on,48,0,90
2,note_on,50,40,30
2,note_on,50,0,90
2,note_on,51,48,30
2,note_on,51,0,120
2,note_on,43,41,120
2,note_on,43,0,240
2,note_on,45,42,0
2,note_on,45,0,240
2,note_on,48,42,0
2,note_on,53,47,0
2,note_on,53,0,120
2,note_on,51,47,0
2,note_on,51,0,120
2,note_on,48,0,0
2,note_on,46,51,0
2,note_on,50,43,0
2,note_on,46,0,90
2,note_on,50,0,150
2,note_on,46,43,0
2,note_on,46,0,90
2,note_on,48,44,30
2,note_on,48,0,90
2,note_on,50,44,30
2,note_on,50,0,120
2,note_on,51,44,120
2,note_on,51,0,90
2,note_on,58,48,30
2,note_on,53,45,0
2,note_on,53,0,90
2,note_on,58,0,30
2,note_on,51,54,0
2,note_on,63,54,0
2,note_on,51,0,120
2,note_on,63,0,238
2,note_on,63,50,2
2,note_on,63,0,118
2,note_on,63,54,2
2,note_on,63,0,240
2,note_on,65,55,0
2,note_on,65,0,90
2,note_on,63,51,30
2,note_on,63,0,90
2,note_on,48,56,30
2,note_on,63,56,0
2,note_on,63,0,68
2,note_on,48,0,22
2,note_on,60,50,150
2,note_on,48,48,0
2,note_on,48,0,90
2,note_on,60,0,0
2,note_on,50,48,30
2,note_on,50,0,90
2,note_on,52,48,30
2,note_on,60,51,0
2,note_on,52,0,120
2,note_on,53,49,120
2,note_on,53,0,90
2,note_on,55,49,30
2,note_on,55,0,90
2,note_on,60,0,30
2,note_on,65,59,0
2,note_on,53,59,0
2,note_on,65,0,90
2,note_on,53,0,30
2,note_on,65,59,120
2,note_on,65,0,90
2,note_on,63,60,30
2,note_on,63,0,90
2,note_on,53,50,30
2,note_on,62,60,0
2,note_on,62,0,120
2,note_on,53,0,0
2,note_on,53,51,120
2,note_on,62,61,0
2,note_on,62,0,90
2,note_on,53,0,0
2,note_on,51,51,30
2,note_on,60,61,0
2,note_on,60,0,90
2,note_on,51,0,0
2,note_on,50,61,30
2,note_on,59,61,0
2,note_on,50,0,90
2,note_on,59,0,150
2,note_on,50,52,0
2,note_on,50,0,90
2,note_on,51,52,30
2,note_on,51,0,90
2,note_on,59,55,30
2,note_on,53,52,0
2,note_on,53,0,120
2,note_on,55,53,120
2,note_on,55,0,90
2,note_on,56,53,30
2,note_on,56,0,90
2,note_on,59,0,30
2,note_on,67,64,0
2,note_on,55,64,0
2,note_on,67,0,90
2,note_on,55,0,30
2,note_on,67,65,120
2,note_on,67,0,90
2,note_on,65,65,30
2,note_on,65,0,90
2,note_on,63,65,30
2,note_on,55,55,0
2,note_on,55,0,120
2,note_on,63,0,0
2,note_on,63,66,120
2,note_on,55,55,0
2,note_on,55,0,90
2,note_on,63,0,0
2,note_on,62,66,30
2,note_on,53,55,0
2,note_on,53,0,90
2,note_on,62,0,0
2,note_on,51,66,30
2,note_on,60,66,0
2,note_on,60,0,90
2,note_on,51,0,0
2,note_on,51,56,150
2,note_on,60,59,0
2,note_on,51,0,90
2,note_on,53,56,30
2,note_on,53,0,90
2,note_on,55,57,30
2,note_on,55,0,120
2,note_on,60,0,120
2,note_on,57,57,0
2,note_on,67,57,0
2,note_on,67,0,90
2,note_on,57,0,0
2,note_on,65,58,30
2,note_on,59,58,0
2,note_on,59,0,90
2,note_on,65,0,0
2,note_on,60,69,30
2,note_on,63,69,0
2,note_on,63,0,90
2,note_on,60,0,0
2,note_on,65,58,150
2,note_on,50,58,0
2,note_on,50,0,90
2,note_on,65,0,0
2,note_on,67,59,30
2,note_on,52,59,0
2,note_on,52,0,90
2,note_on,67,0,0
2,note_on,53,59,30
2,note_on,60,59,0
2,note_on,60,0,120
2,note_on,53,0,0
2,note_on,60,59,120
2,note_on,41,59,0
2,note_on,41,0,90
2,note_on,60,0,0
2,note_on,43,55,30
2,note_on,58,60,0
2,note_on,58,0,90
2,note_on,43,0,0
2,note_on,60,72,30
2,note_on,44,72,0
2,note_on,44,0,120
2,note_on,60,0,0
2,note_on,46,51,120
2,note_on,62,61,0
2,note_on,62,0,240
2,note_on,46,0,0
2,note_on,47,51,0
2,note_on,63,61,0
2,note_on,63,0,240
2,note_on,47,0,0
2,note_on,62,62,0
2,note_on,46,62,0
2,note_on,46,0,90
2,note_on,62,0,0
2,note_on,62,62,30
2,note_on,34,62,0
2,note_on,65,62,0
2,note_on,65,0,90
2,note_on,34,0,0
2,note_on,62,0,0
2,note_on,39,61,30
2,note_on,39,0,358
2,note_on,39,54,2
2,note_on,39,0,90
2,note_on,39,54,30
2,note_on,39,0,240
2,note_on,41,61,0
2,note_on,41,0,90
2,note_on,39,54,30
2,note_on,39,0,90
2,note_on,48,61,30
2,note_on,39,51,0
2,note_on,39,0,240
2,note_on,36,43,0
2,note_on,48,0,118
2,note_on,48,54,2
2,note_on,48,0,90
2,note_on,36,0,30
2,note_on,48,62,0
2,note_on,36,52,0
2,note_on,48,0,240
2,note_on,50,61,0
2,note_on,50,0,90
2,note_on,48,54,30
2,note_on,48,0,90
2,note_on,36,0,30
2,note_on,48,61,0
2,note_on,44,51,0
2,note_on,44,0,90
2,note_on,48,0,30
2,note_on,44,62,120
2,note_on,43,57,120
2,note_on,43,0,90
2,note_on,44,0,0
2,note_on,41,53,30
2,note_on,44,63,0
2,note_on,41,0,90
2,note_on,41,54,150
2,note_on,41,0,90
2,note_on,39,54,30
2,note_on,39,0,90
2,note_on,44,0,30
2,note_on,38,51,0
2,note_on,53,56,0
2,note_on,53,0,90
2,note_on,38,0,150
2,note_on,53,56,0
2,note_on,53,0,90
2,note_on,51,59,30
2,note_on,51,0,90
2,note_on,50,59,30
2,note_on,38,52,0
2,note_on,50,0,120
2,note_on,50,56,120
2,note_on,50,0,90
2,note_on,48,52,30
2,note_on,48,0,90
2,note_on,38,0,30
2,note_on,46,61,0
2,note_on,46,0,120
2,note_on,46,62,120
2,note_on,46,0,90
2,note_on,44,57,30
2,note_on,44,0,90
2,note_on,46,63,30
2,note_on,43,53,0
2,note_on,43,0,90
2,note_on,43,54,150
2,note_on,43,0,90
2,note_on,41,54,30
2,note_on,41,0,90
2,note_on,46,0,30
2,note_on,40,51,0
2,note_on,55,56,0
2,note_on,55,0,90
2,note_on,40,0,150
2,note_on,55,56,0
2,note_on,55,0,90
2,note_on,53,59,30
2,note_on,53,0,90
2,note_on,40,52,30
2,note_on,52,59,0
2,note_on,52,0,120
2,note_on,52,56,120
2,note_on,52,0,90
2,note_on,50,52,30
2,note_on,50,0,90
2,note_on,40,0,30
2,note_on,48,61,0
2,note_on,48,0,120
2,note_on,55,51,120
2,note_on,48,43,0
2,note_on,48,0,90
2,note_on,55,0,0
2,note_on,61,41,30
2,note_on,46,34,0
2,note_on,46,0,90
2,note_on,61,0,0
2,note_on,48,51,30
2,note_on,60,51,0
2,note_on,44,43,0
2,note_on,44,0,90
2,note_on,60,0,0
2,note_on,48,0,0
2,note_on,43,45,150
2,note_on,52,54,0
2,note_on,52,0,90
2,note_on,43,0,0
2,note_on,41,50,150
2,note_on,53,50,0
2,note_on,53,0,240
2,note_on,48,42,0
2,note_on,48,0,240
2,note_on,53,52,0
2,note_on,53,0,240
2,note_on,41,0,0
2,note_on,51,42,0
2,note_on,42,42,0
2,note_on,42,0,240
2,note_on,51,0,0
2,note_on,50,56,0
2,note_on,43,51,0
2,note_on,50,0,90
2,note_on,50,54,150
2,note_on,50,0,240
2,note_on,55,59,0
2,note_on,55,0,240
2,note_on,43,0,0
2,note_on,43,47,0
2,note_on,53,56,0
2,note_on,53,0,240
2,note_on,43,0,0
2,note_on,44,46,0
2,note_on,51,55,0
2,note_on,51,0,240
2,note_on,56,58,0
2,note_on,56,0,120
2,note_on,55,50,0
2,note_on,55,0,120
2,note_on,53,59,0
2,note_on,53,0,120
2,note_on,44,0,120
2,note_on,53,61,0
2,note_on,45,41,0
2,note_on,53,0,120
2,note_on,51,53,0
2,note_on,51,0,120
2,note_on,45,0,0
2,note_on,50,67,0
2,note_on,46,51,0
2,note_on,46,0,90
2,note_on,50,0,0
2,note_on,47,53,150
2,note_on,58,52,0
2,note_on,58,0,90
2,note_on,56,47,30
2,note_on,56,0,90
2,note_on,47,0,30
2,note_on,55,60,0
2,note_on,48,59,0
2,note_on,48,0,120
2,note_on,55,0,0
2,note_on,53,66,120
2,note_on,50,56,0
2,note_on,50,0,240
2,note_on,53,0,0
2,note_on,51,66,0
2,note_on,48,47,0
2,note_on,48,0,240
2,note_on,51,0,0
2,note_on,51,61,600
2,note_on,48,51,0
2,note_on,48,0,90
2,note_on,51,0,30
2,note_on,56,67,0
2,note_on,53,56,0
2,note_on,53,0,357
2,note_on,56,0,0
2,note_on,53,51,3
2,note_on,56,61,0
2,note_on,56,0,119
2,note_on,53,0,0
2,note_on,53,54,1
2,note_on,56,64,0
2,note_on,56,0,240
2,note_on,53,0,0
2,note_on,55,56,0
2,note_on,58,67,0
2,note_on,58,0,90
2,note_on,55,0,0
2,note_on,53,48,30
2,note_on,56,57,0
2,note_on,56,0,90
2,note_on,53,0,0
2,note_on,56,67,30
2,note_on,53,56,0
2,note_on,53,0,90
2,note_on,56,0,0
2,note_on,53,58,150
2,note_on,49,49,0
2,note_on,49,0,90
2,note_on,53,0,0
2,note_on,49,49,150
2,note_on,53,58,0
2,note_on,53,0,480
2,note_on,49,0,0
2,note_on,61,67,0
2,note_on,58,56,0
2,note_on,58,0,90
2,note_on,61,0,0
2,note_on,61,67,150
2,note_on,58,56,0
2,note_on,58,0,90
2,note_on,61,0,0
2,note_on,60,63,30
2,note_on,56,53,0
2,note_on,56,0,90
2,note_on,60,0,0
2,note_on,55,56,30
2,note_on,58,67,0
2,note_on,58,0,120
2,note_on,55,0,0
2,note_on,58,67,120
2,note_on,55,56,0
2,note_on,55,0,90
2,note_on,58,0,0
2,note_on,56,63,30
2,note_on,53,53,0
2,note_on,53,0,90
2,note_on,56,0,0
2,note_on,55,67,30
2,note_on,52,56,0
2,note_on,52,0,240
2,note_on,55,0,0
2,note_on,55,58,240
2,note_on,52,49,0
2,note_on,52,0,480
2,note_on,55,0,0
2,note_on,60,56,0
2,note_on,64,67,0
2,note_on,64,0,90
2,note_on,60,0,0
2,note_on,60,56,150
2,note_on,63,67,0
2,note_on,63,0,90
2,note_on,60,0,0
2,note_on,61,63,30
2,note_on,58,53,0
2,note_on,58,0,90
2,note_on,61,0,0
2,note_on,60,67,30
2,note_on,56,56,0
2,note_on,56,0,120
2,note_on,60,0,0
2,note_on,56,56,120
2,note_on,60,67,0
2,note_on,60,0,90
2,note_on,56,0,0
2,note_on,55,53,30
2,note_on,58,63,0
2,note_on,58,0,90
2,note_on,55,0,0
2,note_on,56,67,30
2,note_on,53,56,0
2,note_on,53,0,90
2,note_on,56,0,0
2,note_on,50,56,150
2,note_on,53,67,0
2,note_on,53,0,90
2,note_on,50,0,0
2,note_on,51,53,30
2,note_on,55,63,0
2,note_on,55,0,90
2,note_on,51,0,0
2,note_on,56,67,30
2,note_on,53,56,0
2,note_on,53,0,120
2,note_on,56,0,0
2,note_on,48,56,120
2,note_on,51,67,0
2,note_on,51,0,90
2,note_on,48,0,0
2,note_on,50,53,30
2,note_on,53,63,0
2,note_on,53,0,90
2,note_on,50,0,0
2,note_on,55,67,30
2,note_on,51,56,0
2,note_on,51,0,90
2,note_on,55,0,0
2,note_on,47,56,150
2,note_on,50,67,0
2,note_on,50,0,90
2,note_on,47,0,0
2,note_on,51,63,30
2,note_on,48,53,0
2,note_on,48,0,90
2,note_on,51,0,0
2,note_on,50,56,30
2,note_on,53,67,0
2,note_on,53,0,120
2,note_on,50,0,0
2,note_on,48,67,120
2,note_on,45,56,0
2,note_on,45,0,90
2,note_on,48,0,0
2,note_on,47,53,30
2,note_on,50,63,0
2,note_on,50,0,90
2,note_on,47,0,0
2,note_on,51,67,30
2,note_on,48,56,0
2,note_on,48,0,90
2,note_on,51,0,0
2,note_on,61,56,150
2,note_on,65,67,0
2,note_on,65,0,90
2,note_on,61,0,0
2,note_on,63,63,30
2,note_on,60,53,0
2,note_on,60,0,90
2,note_on,63,0,0
2,note_on,61,68,30
2,note_on,58,57,0
2,note_on,58,0,120
2,note_on,61,0,0
2,note_on,60,57,120
2,note_on,63,69,0
2,note_on,63,0,90
2,note_on,60,0,0
2,note_on,61,65,30
2,note_on,58,55,0
2,note_on,58,0,90
2,note_on,61,0,0
2,note_on,60,70,30
2,note_on,56,58,0
2,note_on,56,0,90
2,note_on,60,0,0
2,note_on,56,59,150
2,note_on,60,71,0
2,note_on,60,0,90
2,note_on,56,0,0
2,note_on,55,59,150
2,note_on,62,71,0
2,note_on,62,0,240
2,note_on,55,0,0
2,note_on,67,64,600
2,note_on,71,76,0
2,note_on,71,0,119
2,note_on,67,0,0
2,note_on,67,71,1
2,note_on,71,84,0
2,note_on,71,0,360
2,note_on,67,0,0
2,note_on,59,68,0
2,note_on,55,57,0
2,note_on,55,0,119
2,note_on,59,0,0
2,note_on,55,63,1
2,note_on,59,75,0
2,note_on,59,0,360
2,note_on,55,0,0
2,note_on,43,51,0
2,note_on,47,60,0
2,note_on,47,0,119
2,note_on,43,0,0
2,note_on,43,56,1
2,note_on,47,67,0
2,note_on,47,0,240
2,note_on,43,0,0
2,note_on,87,53,480
2,note_on,87,0,120
2,note_on,86,47,0
2,note_on,86,0,120
2,note_on,75,53,240
2,note_on,75,0,120
2,note_on,74,47,0
2,note_on,74,0,120
2,note_on,63,53,240
2,note_on,63,0,120
2,note_on,62,47,0
2,note_on,62,0,120
2,note_on,75,53,240
2,note_on,75,0,120
2,note_on,74,47,0
2,note_on,74,0,120
2,note_on,60,75,0
2,note_on,60,0,360
2,note_on,75,76,0
2,note_on,72,64,0
2,note_on,72,0,119
2,note_on,75,0,0
2,note_on,72,71,1
2,note_on,75,84,0
2,note_on,75,0,360
2,note_on,72,0,0
2,note_on,60,57,0
2,note_on,63,68,0
2,note_on,63,0,119
2,note_on,60,0,0
2,note_on,60,63,1
2,note_on,63,75,0
2,note_on,63,0,360
2,note_on,60,0,0
2,note_on,48,51,0
2,note_on,51,60,0
2,note_on,51,0,119
2,note_on,48,0,0
2,note_on,51,67,1
2,note_on,48,56,0
2,note_on,48,0,240
2,note_on,51,0,0
2,note_on,89,53,480
2,note_on,89,0,120
2,note_on,87,47,0
2,note_on,87,0,120
2,note_on,77,53,240
2,note_on,77,0,120
2,note_on,75,47,0
2,note_on,75,0,120
2,note_on,65,53,240
2,note_on,65,0,120
2,note_on,63,47,0
2,note_on,63,0,120
2,note_on,77,53,240
2,note_on,77,0,120
2,note_on,75,47,0
2,note_on,75,0,120
2,note_on,58,75,0
2,note_on,58,0,360
2,note_on,74,76,0
2,note_on,70,64,0
2,note_on,70,0,119
2,note_on,74,0,0
2,note_on,74,84,1
2,note_on,70,71,0
2,note_on,70,0,360
2,note_on,74,0,0
2,note_on,62,68,0
2,note_on,58,57,0
2,note_on,58,0,119
2,note_on,62,0,0
2,note_on,58,63,1
2,note_on,62,75,0
2,note_on,62,0,360
2,note_on,58,0,0
2,note_on,46,51,0
2,note_on,50,60,0
2,note_on,50,0,119
2,note_on,46,0,0
2,note_on,46,56,1
2,note_on,50,67,0
2,note_on,50,0,240
2,note_on,46,0,0
2,note_on,91,60,480
2,note_on,91,0,120
2,note_on,89,54,0
2,note_on,89,0,120
2,note_on,79,66,240
2,note_on,79,0,120
2,note_on,77,59,0
2,note_on,77,0,120
2,note_on,67,71,240
2,note_on,67,0,120
2,note_on,65,64,0
2,note_on,65,0,120
2,note_on,79,76,240
2,note_on,79,0,120
2,note_on,77,69,0
2,note_on,77,0,120
2,note_on,63,75,0
2,note_on,75,75,0
2,note_on,75,0,360
2,note_on,63,0,0
2,note_on,79,76,0
2,note_on,75,64,0
2,note_on,75,0,119
2,note_on,79,0,0
2,note_on,75,71,1
2,note_on,79,84,0
2,note_on,79,0,360
2,note_on,75,0,0
2,note_on,67,68,0
2,note_on,63,57,0
2,note_on,63,0,119
2,note_on,67,0,0
2,note_on,63,63,1
2,note_on,67,75,0
2,note_on,67,0,360
2,note_on,63,0,0
2,note_on,51,58,0
2,note_on,63,69,0
2,note_on,63,0,119
2,note_on,51,0,0
2,note_on,63,77,1
2,note_on,51,64,0
2,note_on,51,0,240
2,note_on,63,0,0
2,note_on,74,79,600
2,note_on,62,67,0
2,note_on,62,0,119
2,note_on,74,0,0
2,note_on,74,88,1
2,note_on,62,74,0
2,note_on,62,0,360
2,note_on,74,0,0
2,note_on,50,59,0
2,note_on,62,71,0
2,note_on,62,0,119
2,note_on,50,0,0
2,note_on,62,78,1
2,note_on,50,66,0
2,note_on,50,0,360
2,note_on,62,0,0
2,note_on,50,72,0
2,note_on,38,60,0
2,note_on,38,0,119
2,note_on,50,0,0
2,note_on,50,80,1
2,note_on,38,67,0
2,note_on,38,0,240
2,note_on,50,0,0
2,note_on,62,59,600
2,note_on,65,59,0
2,note_on,68,59,0
2,note_on,74,71,0
2,note_on,71,59,0
2,note_on,71,0,119
2,note_on,68,0,0
2,note_on,62,0,0
2,note_on,65,0,0
2,note_on,74,0,0
2,note_on,68,66,1
2,note_on,71,66,0
2,note_on,62,66,0
2,note_on,74,78,0
2,note_on,65,66,0
2,note_on,65,0,360
2,note_on,62,0,0
2,note_on,68,0,0
2,note_on,71,0,0
2,note_on,74,0,0
2,note_on,56,53,0
2,note_on,53,53,0
2,note_on,50,53,0
2,note_on,59,53,0
2,note_on,62,64,0
2,note_on,62,0,119
2,note_on,50,0,0
2,note_on,56,0,0
2,note_on,53,0,0
2,note_on,59,0,0
2,note_on,62,78,1
2,note_on,50,66,0
2,note_on,59,66,0
2,note_on,56,66,0
2,note_on,53,66,0
2,note_on,53,0,360
2,note_on,59,0,0
2,note_on,62,0,0
2,note_on,50,0,0
2,note_on,56,0,0
2,note_on,44,53,0
2,note_on,38,53,0
2,note_on,41,53,0
2,note_on,47,53,0
2,note_on,50,64,0
2,note_on,50,0,119
2,note_on,41,0,0
2,note_on,44,0,0
2,note_on,38,0,0
2,note_on,47,0,0
2,note_on,47,66,1
2,note_on,50,78,0
2,note_on,38,66,0
2,note_on,41,66,0
2,note_on,44,66,0
2,note_on,44,0,360
2,note_on,38,0,0
2,note_on,47,0,0
2,note_on,50,0,0
2,note_on,41,0,0
2,note_on,67,59,480
2,note_on,62,59,0
2,note_on,70,59,0
2,note_on,76,71,0
2,note_on,76,0,119
2,note_on,67,0,0
2,note_on,62,0,0
2,note_on,70,0,0
2,note_on,76,78,1
2,note_on,62,66,0
2,note_on,70,66,0
2,note_on,67,66,0
2,note_on,67,0,360
2,note_on,76,0,0
2,note_on,62,0,0
2,note_on,70,0,0
2,note_on,58,53,0
2,note_on,50,53,0
2,note_on,64,64,0
2,note_on,55,53,0
2,note_on,55,0,119
2,note_on,58,0,0
2,note_on,50,0,0
2,note_on,64,0,0
2,note_on,58,66,1
2,note_on,50,66,0
2,note_on,64,78,0
2,note_on,55,66,0
2,note_on,55,0,360
2,note_on,58,0,0
2,note_on,50,0,0
2,note_on,64,0,0
2,note_on,46,53,0
2,note_on,43,53,0
2,note_on,52,64,0
2,note_on,38,53,0
2,note_on,38,0,119
2,note_on,46,0,0
2,note_on,43,0,0
2,note_on,52,0,0
2,note_on,43,66,1
2,note_on,38,66,0
2,note_on,52,78,0
2,note_on,46,66,0
2,note_on,46,0,360
2,note_on,43,0,0
2,note_on,38,0,0
2,note_on,52,0,0
2,note_on,74,67,480
2,note_on,62,56,0
2,note_on,66,56,0
2,note_on,69,56,0
2,note_on,69,0,119
2,note_on,74,0,0
2,note_on,62,0,0
2,note_on,66,0,0
2,note_on,74,81,1
2,note_on,69,68,0
2,note_on,66,68,0
2,note_on,62,68,0
2,note_on,62,0,357
2,note_on,74,0,0
2,note_on,69,0,0
2,note_on,66,0,0
2,note_on,50,52,3
2,note_on,62,62,0
2,note_on,62,0,119
2,note_on,50,0,0
2,note_on,62,69,1
2,note_on,50,58,0
2,note_on,50,0,360
2,note_on,62,0,0
2,note_on,50,57,0
2,note_on,38,47,0
2,note_on,38,0,119
2,note_on,50,0,0
2,note_on,38,54,1
2,note_on,50,64,0
2,note_on,50,0,360
2,note_on,38,0,0
2,note_on,50,52,0
2,note_on,50,0,120
2,note_on,38,59,0
2,note_on,38,0,360
2,note_on,62,47,0
2,note_on,62,0,120
2,note_on,50,53,0
2,note_on,50,0,360
2,note_on,62,42,0
2,note_on,62,0,120
2,note_on,50,46,0
2,note_on,50,0,360
2,note_on,62,37,0
2,note_on,62,0,120
2,note_on,50,42,0
2,note_on,50,0,360
2,note_on,71,32,0
2,note_on,71,0,120
2,note_on,59,40,0
2,note_on,59,0,160
2,note_on,71,32,0
2,note_on,71,0,160
2,note_on,70,32,0
2,note_on,70,0,160
2,note_on,71,40,0
2,note_on,71,0,160
2,note_on,66,33,0
2,note_on,66,0,160
2,note_on,71,33,0
2,note_on,71,0,160
2,note_on,67,40,0
2,note_on,67,0,160
2,note_on,71,31,0
2,note_on,71,0,160
2,note_on,67,31,0
2,note_on,67,0,160
2,note_on,71,40,0
2,note_on,71,0,160
2,note_on,64,33,0
2,note_on,64,0,160
2,note_on,71,33,0
2,note_on,71,0,160
2,note_on,63,40,0
2,note_on,63,0,160
2,note_on,71,31,0
2,note_on,71,0,160
2,note_on,63,31,0
2,note_on,63,0,160
2,note_on,71,40,0
2,note_on,71,0,160
2,note_on,59,32,0
2,note_on,59,0,160
2,note_on,71,32,0
2,note_on,71,0,160
2,note_on,59,40,0
2,note_on,59,0,160
2,note_on,64,33,0
2,note_on,64,0,160
2,note_on,59,33,0
2,note_on,59,0,160
2,note_on,67,40,0
2,note_on,67,0,160
2,note_on,64,32,0
2,note_on,64,0,160
2,note_on,67,32,0
2,note_on,67,0,160
2,note_on,66,40,0
2,note_on,66,0,160
2,note_on,71,32,0
2,note_on,71,0,160
2,note_on,66,32,0
2,note_on,66,0,160
2,note_on,71,40,0
2,note_on,71,0,160
2,note_on,66,36,0
2,note_on,66,0,160
2,note_on,71,36,0
2,note_on,71,0,160
2,note_on,66,40,0
2,note_on,66,0,160
2,note_on,70,33,0
2,note_on,70,0,160
2,note_on,66,33,0
2,note_on,66,0,160
2,note_on,70,40,0
2,note_on,70,0,160
2,note_on,66,34,0
2,note_on,66,0,160
2,note_on,70,34,0
2,note_on,70,0,160
2,note_on,66,40,0
2,note_on,66,0,160
2,note_on,71,32,0
2,note_on,71,0,160
2,note_on,66,32,0
2,note_on,66,0,160
2,note_on,71,40,0
2,note_on,71,0,160
2,note_on,66,36,0
2,note_on,66,0,160
2,note_on,71,36,0
2,note_on,71,0,160
2,note_on,70,40,0
2,note_on,70,0,160
2,note_on,73,33,0
2,note_on,73,0,160
2,note_on,70,33,0
2,note_on,70,0,160
2,note_on,73,40,0
2,note_on,73,0,160
2,note_on,70,34,0
2,note_on,70,0,160
2,note_on,73,34,0
2,note_on,73,0,160
2,note_on,66,40,0
2,note_on,66,0,160
2,note_on,71,32,0
2,note_on,71,0,160
2,note_on,66,32,0
2,note_on,66,0,160
2,note_on,71,40,0
2,note_on,71,0,160
2,note_on,66,36,0
2,note_on,66,0,160
2,note_on,71,36,0
2,note_on,71,0,160
2,note_on,66,40,0
2,note_on,66,0,160
2,note_on,70,33,0
2,note_on,70,0,160
2,note_on,66,33,0
2,note_on,66,0,160
2,note_on,70,40,0
2,note_on,70,0,160
2,note_on,66,34,0
2,note_on,66,0,160
2,note_on,70,34,0
2,note_on,70,0,160
2,note_on,66,40,0
2,note_on,66,0,160
2,note_on,71,32,0
2,note_on,71,0,160
2,note_on,66,32,0
2,note_on,66,0,160
2,note_on,71,40,0
2,note_on,71,0,160
2,note_on,66,36,0
2,note_on,66,0,160
2,note_on,71,36,0
2,note_on,71,0,160
2,note_on,70,40,0
2,note_on,70,0,160
2,note_on,73,33,0
2,note_on,73,0,160
2,note_on,70,33,0
2,note_on,70,0,160
2,note_on,73,40,0
2,note_on,73,0,160
2,note_on,30,70,200
2,note_on,30,0,120
2,note_on,34,68,0
2,note_on,34,0,358
2,note_on,34,61,2
2,note_on,34,0,118
2,note_on,34,68,2
2,note_on,34,0,180
2,note_on,35,64,60
2,note_on,35,0,90
2,note_on,54,63,30
2,note_on,34,61,0
2,note_on,34,0,90
2,note_on,54,0,0
2,note_on,34,61,30
2,note_on,58,61,0
2,note_on,34,0,180
2,note_on,30,61,60
2,note_on,58,0,118
2,note_on,58,54,2
2,note_on,30,0,60
2,note_on,58,0,58
2,note_on,58,61,2
2,note_on,58,0,180
2,note_on,59,48,60
2,note_on,59,0,45
2,note_on,58,51,75
2,note_on,58,0,90
2,note_on,58,51,30
2,note_on,58,0,120
2,note_on,54,51,120
2,note_on,54,0,120
2,note_on,30,63,1440
2,note_on,30,0,120
2,note_on,40,61,0
2,note_on,40,0,358
2,note_on,42,63,2
2,note_on,40,54,0
2,note_on,40,0,118
2,note_on,42,0,2
2,note_on,52,61,0
2,note_on,40,61,0
2,note_on,40,0,180
2,note_on,52,0,180
2,note_on,52,54,0
2,note_on,52,0,120
2,note_on,52,61,0
2,note_on,52,0,180
2,note_on,37,63,660
2,note_on,37,0,120
2,note_on,46,61,0
2,note_on,46,0,358
2,note_on,49,63,2
2,note_on,46,54,0
2,note_on,46,0,118
2,note_on,49,0,2
2,note_on,58,61,0
2,note_on,46,61,0
2,note_on,46,0,180
2,note_on,58,0,180
2,note_on,58,54,0
2,note_on,58,0,118
2,note_on,58,61,2
2,note_on,58,0,180
2,note_on,40,63,660
2,note_on,40,0,90
2,note_on,49,72,30
2,note_on,49,0,840
2,note_on,43,66,0
2,note_on,43,0,90
2,note_on,52,75,30
2,note_on,52,0,840
2,note_on,43,69,0
2,note_on,43,0,90
2,note_on,52,77,30
2,note_on,52,0,360
2,note_on,67,71,0
2,note_on,67,0,90
2,note_on,76,77,30
2,note_on,76,0,360
2,note_on,44,73,0
2,note_on,44,0,90
2,note_on,52,71,30
2,note_on,52,0,360
2,note_on,68,74,0
2,note_on,68,0,90
2,note_on,76,79,30
2,note_on,76,0,360
2,note_on,45,76,0
2,note_on,45,0,90
2,note_on,52,75,30
2,note_on,52,0,360
2,note_on,69,78,0
2,note_on,69,0,90
2,note_on,76,86,30
2,note_on,76,0,360
2,note_on,45,83,0
2,note_on,45,0,90
2,note_on,53,93,30
2,note_on,53,0,360
2,note_on,69,86,0
2,note_on,69,0,90
2,note_on,77,97,30
2,note_on,77,0,360
2,note_on,46,100,0
2,note_on,34,88,0
2,note_on,34,0,120
2,note_on,46,0,0
2,note_on,46,110,0
2,note_on,58,110,0
2,note_on,58,0,240
2,note_on,46,0,0
2,note_on,60,97,0
2,note_on,60,0,120
2,note_on,58,88,0
2,note_on,58,0,120
2,note_on,53,97,0
2,note_on,53,0,240
2,note_on,55,97,0
2,note_on,55,0,120
2,note_on,53,90,0
2,note_on,53,0,120
2,note_on,50,97,0
2,note_on,50,0,240
2,note_on,51,97,0
2,note_on,51,0,120
2,note_on,50,91,0
2,note_on,50,0,120
2,note_on,46,97,0
2,note_on,46,0,240
2,note_on,48,97,0
2,note_on,48,0,120
2,note_on,46,97,0
2,note_on,46,0,60
2,note_on,38,88,0
2,note_on,38,0,30
2,note_on,50,89,0
2,note_on,50,0,30
2,note_on,62,110,0
2,note_on,62,0,240
2,note_on,63,97,0
2,note_on,63,0,120
2,note_on,62,88,0
2,note_on,62,0,120
2,note_on,58,97,0
2,note_on,58,0,240
2,note_on,62,97,0
2,note_on,62,0,120
2,note_on,58,90,0
2,note_on,58,0,120
2,note_on,53,97,0
2,note_on,53,0,240
2,note_on,58,93,0
2,note_on,58,0,120
2,note_on,53,88,0
2,note_on,53,0,120
2,note_on,50,78,0
2,note_on,50,0,120
2,note_on,46,73,0
2,note_on,46,0,120
2,note_on,51,40,0
2,note_on,51,0,120
2,note_on,48,35,0
2,note_on,48,0,120
2,note_on,46,29,0
2,note_on,46,0,240
2,note_on,48,34,0
2,note_on,48,0,120
2,note_on,46,31,0
2,note_on,46,0,120
2,note_on,41,30,0
2,note_on,53,36,0
2,note_on,53,0,240
2,note_on,41,0,0
2,note_on,51,33,0
2,note_on,51,0,120
2,note_on,50,30,0
2,note_on,50,0,120
2,note_on,48,35,0
2,note_on,48,0,240
2,note_on,50,33,0
2,note_on,50,0,120
2,note_on,48,29,0
2,note_on,48,0,120
2,note_on,43,28,0
2,note_on,55,34,0
2,note_on,55,0,240
2,note_on,43,0,0
2,note_on,53,28,0
2,note_on,56,33,0
2,note_on,56,0,120
2,note_on,53,0,0
2,note_on,51,28,0
2,note_on,55,33,0
2,note_on,55,0,120
2,note_on,51,0,0
2,note_on,50,31,0
2,note_on,53,37,0
2,note_on,53,0,240
2,note_on,50,0,0
2,note_on,49,27,0
2,note_on,52,32,0
2,note_on,52,0,240
2,note_on,49,0,0
2,note_on,48,32,0
2,note_on,51,38,0
2,note_on,51,0,240
2,note_on,48,0,0
2,note_on,41,25,0
2,note_on,48,30,0
2,note_on,48,0,240
2,note_on,41,0,0
2,note_on,43,28,0
2,note_on,46,33,0
2,note_on,46,0,240
2,note_on,43,0,0
2,note_on,38,28,0
2,note_on,47,33,0
2,note_on,47,0,120
2,note_on,38,0,0
2,note_on,39,24,0
2,note_on,48,29,0
2,note_on,48,0,120
2,note_on,39,0,0
2,note_on,41,24,0
2,note_on,48,29,0
2,note_on,48,0,240
2,note_on,41,0,0
2,note_on,53,28,0
2,note_on,58,33,0
2,note_on,58,0,120
2,note_on,60,33,0
2,note_on,60,0,120
2,note_on,53,0,0
2,note_on,53,31,0
2,note_on,62,37,0
2,note_on,62,0,360
2,note_on,63,32,0
2,note_on,63,0,120
2,note_on,60,38,0
2,note_on,60,0,360
2,note_on,62,30,0
2,note_on,62,0,120
2,note_on,60,36,0
2,note_on,60,0,120
2,note_on,58,30,0
2,note_on,58,0,120
2,note_on,62,35,0
2,note_on,62,0,120
2,note_on,60,30,0
2,note_on,60,0,120
2,note_on,57,36,0
2,note_on,57,0,240
2,note_on,53,0,0
2,note_on,58,28,0
2,note_on,60,33,0
2,note_on,60,0,120
2,note_on,62,33,0
2,note_on,62,0,120
2,note_on,58,0,0
2,note_on,58,31,0
2,note_on,63,37,0
2,note_on,63,0,360
2,note_on,65,32,0
2,note_on,65,0,120
2,note_on,62,38,0
2,note_on,62,0,360
2,note_on,63,30,0
2,note_on,63,0,120
2,note_on,62,36,0
2,note_on,62,0,120
2,note_on,60,30,0
2,note_on,60,0,120
2,note_on,58,0,0
2,note_on,58,31,0
2,note_on,63,35,0
2,note_on,63,0,120
2,note_on,62,30,0
2,note_on,62,0,120
2,note_on,58,0,240
2,note_on,58,28,0
2,note_on,62,33,0
2,note_on,62,0,120
2,note_on,63,33,0
2,note_on,63,0,120
2,note_on,58,0,0
2,note_on,58,31,0
2,note_on,65,37,0
2,note_on,65,0,360
2,note_on,66,32,0
2,note_on,66,0,120
2,note_on,58,0,0
2,note_on,63,38,0
2,note_on,63,0,240
2,note_on,61,28,0
2,note_on,63,33,0
2,note_on,63,0,120
2,note_on,65,33,0
2,note_on,65,0,120
2,note_on,61,0,0
2,note_on,61,31,0
2,note_on,66,37,0
2,note_on,66,0,360
2,note_on,68,32,0
2,note_on,68,0,120
2,note_on,65,38,0
2,note_on,65,0,120
2,note_on,71,38,0
2,note_on,71,0,120
2,note_on,70,40,0
2,note_on,70,0,120
2,note_on,68,40,0
2,note_on,68,0,120
2,note_on,61,0,0
2,note_on,61,31,0
2,note_on,66,40,0
2,note_on,66,0,240
2,note_on,70,35,0
2,note_on,70,0,480
2,note_on,68,41,0
2,note_on,61,0,240
2,note_on,61,45,0
2,note_on,68,0,240
2,note_on,66,39,0
2,note_on,66,0,240
2,note_on,73,46,0
2,note_on,73,0,240
2,note_on,71,43,0
2,note_on,71,0,240
2,note_on,61,0,0
2,note_on,61,47,0
2,note_on,71,55,0
2,note_on,71,0,120
2,note_on,70,49,0
2,note_on,70,0,120
2,note_on,71,54,0
2,note_on,71,0,120
2,note_on,70,50,0
2,note_on,70,0,120
2,note_on,70,55,0
2,note_on,70,0,120
2,note_on,68,47,0
2,note_on,68,0,120
2,note_on,70,56,0
2,note_on,70,0,120
2,note_on,68,49,0
2,note_on,68,0,120
2,note_on,61,0,0
2,note_on,61,49,0
2,note_on,68,56,0
2,note_on,68,0,120
2,note_on,67,49,0
2,note_on,67,0,120
2,note_on,75,57,0
2,note_on,75,0,120
2,note_on,73,50,0
2,note_on,73,0,120
2,note_on,73,57,0
2,note_on,73,0,240
2,note_on,71,51,0
2,note_on,71,0,240
2,note_on,61,0,0
2,note_on,61,51,0
2,note_on,69,58,0
2,note_on,69,0,120
2,note_on,70,54,0
2,note_on,70,0,120
2,note_on,71,54,0
2,note_on,71,0,120
2,note_on,70,54,0
2,note_on,70,0,120
2,note_on,61,0,0
2,note_on,61,52,0
2,note_on,67,59,0
2,note_on,67,0,120
2,note_on,68,52,0
2,note_on,68,0,120
2,note_on,70,52,0
2,note_on,70,0,120
2,note_on,68,53,0
2,note_on,68,0,120
2,note_on,61,0,0
2,note_on,61,53,0
2,note_on,65,60,0
2,note_on,65,0,120
2,note_on,66,57,0
2,note_on,66,0,120
2,note_on,68,56,0
2,note_on,68,0,120
2,note_on,66,56,0
2,note_on,66,0,120
2,note_on,61,0,0
2,note_on,61,54,0
2,note_on,66,62,0
2,note_on,66,0,120
2,note_on,65,57,0
2,note_on,65,0,120
2,note_on,61,0,0
2,note_on,59,55,0
2,note_on,66,57,0
2,note_on,66,0,120
2,note_on,68,57,0
2,note_on,68,0,120
2,note_on,59,0,0
2,note_on,58,46,0
2,note_on,70,59,0
2,note_on,70,0,240
2,note_on,58,0,0
2,note_on,56,44,0
2,note_on,68,55,0
2,note_on,68,0,240
2,note_on,56,0,0
2,note_on,63,61,0
2,note_on,51,48,0
2,note_on,51,0,240
2,note_on,63,0,0
2,note_on,62,56,0
2,note_on,50,45,0
2,note_on,50,0,240
2,note_on,62,0,0
2,note_on,49,49,0
2,note_on,61,62,0
2,note_on,61,0,240
2,note_on,49,0,0
2,note_on,37,48,0
2,note_on,49,61,0
2,note_on,49,0,360
2,note_on,47,71,0
2,note_on,47,0,120
2,note_on,37,0,0
2,note_on,46,73,0
2,note_on,37,58,0
2,note_on,46,0,120
2,note_on,44,78,0
2,note_on,44,0,120
2,note_on,37,0,0
2,note_on,42,78,0
2,note_on,30,64,0
2,note_on,30,0,120
2,note_on,42,0,0
2,note_on,49,51,0
2,note_on,54,51,0
2,note_on,58,61,0
2,note_on,58,0,119
2,note_on,54,0,0
2,note_on,49,0,0
2,note_on,58,61,1
2,note_on,54,51,0
2,note_on,49,51,0
2,note_on,49,0,119
2,note_on,54,0,0
2,note_on,58,0,0
2,note_on,49,51,1
2,note_on,58,61,0
2,note_on,54,51,0
2,note_on,58,0,118
2,note_on,54,0,2
2,note_on,49,0,0
2,note_on,54,53,120
2,note_on,46,45,0
2,note_on,49,45,0
2,note_on,49,0,119
2,note_on,46,0,0
2,note_on,54,0,0
2,note_on,49,45,1
2,note_on,46,45,0
2,note_on,54,54,0
2,note_on,54,0,119
2,note_on,46,0,0
2,note_on,49,0,0
2,note_on,49,45,1
2,note_on,46,45,0
2,note_on,54,54,0
2,note_on,54,0,120
2,note_on,46,0,0
2,note_on,49,0,0
2,note_on,49,37,120
2,note_on,54,37,0
2,note_on,58,44,0
2,note_on,58,0,60
2,note_on,54,0,0
2,note_on,49,0,0
2,note_on,49,37,180
2,note_on,54,44,0
2,note_on,46,37,0
2,note_on,46,0,60
2,note_on,54,0,0
2,note_on,49,0,0
2,note_on,49,37,180
2,note_on,54,37,0
2,note_on,58,44,0
2,note_on,58,0,60
2,note_on,54,0,0
2,note_on,49,0,0
2,note_on,50,37,180
2,note_on,56,44,0
2,note_on,47,37,0
2,note_on,53,37,0
2,note_on,53,0,60
2,note_on,50,0,0
2,note_on,56,0,0
2,note_on,47,0,0
2,note_on,42,71,60
2,note_on,30,59,0
2,note_on,30,0,120
2,note_on,42,0,0
2,note_on,56,51,0
2,note_on,53,51,0
2,note_on,59,61,0
2,note_on,50,51,0
2,note_on,50,0,119
2,note_on,56,0,0
2,note_on,53,0,0
2,note_on,59,0,0
2,note_on,56,51,1
2,note_on,59,61,0
2,note_on,50,51,0
2,note_on,53,51,0
2,note_on,53,0,119
2,note_on,56,0,0
2,note_on,59,0,0
2,note_on,50,0,0
2,note_on,56,51,1
2,note_on,59,61,0
2,note_on,53,51,0
2,note_on,50,51,0
2,note_on,50,0,120
2,note_on,56,0,0
2,note_on,59,0,0
2,note_on,53,0,0
2,note_on,50,45,120
2,note_on,53,45,0
2,note_on,56,53,0
2,note_on,47,45,0
2,note_on,47,0,119
2,note_on,50,0,0
2,note_on,53,0,0
2,note_on,56,0,0
2,note_on,50,45,1
2,note_on,53,45,0
2,note_on,56,54,0
2,note_on,47,45,0
2,note_on,47,0,119
2,note_on,50,0,0
2,note_on,53,0,0
2,note_on,56,0,0
2,note_on,50,45,1
2,note_on,56,54,0
2,note_on,53,45,0
2,note_on,47,45,0
2,note_on,47,0,120
2,note_on,50,0,0
2,note_on,56,0,0
2,note_on,53,0,0
2,note_on,56,37,120
2,note_on,53,37,0
2,note_on,59,44,0
2,note_on,50,37,0
2,note_on,50,0,60
2,note_on,56,0,0
2,note_on,53,0,0
2,note_on,59,0,0
2,note_on,50,37,180
2,note_on,47,37,0
2,note_on,53,37,0
2,note_on,56,44,0
2,note_on,56,0,60
2,note_on,50,0,0
2,note_on,47,0,0
2,note_on,53,0,0
2,note_on,56,37,180
2,note_on,50,37,0
2,note_on,59,44,0
2,note_on,53,37,0
2,note_on,53,0,60
2,note_on,56,0,0
2,note_on,50,0,0
2,note_on,59,0,0
2,note_on,55,37,180
2,note_on,58,44,0
2,note_on,49,37,0
2,note_on,52,37,0
2,note_on,52,0,60
2,note_on,55,0,0
2,note_on,58,0,0
2,note_on,49,0,0
2,note_on,42,71,60
2,note_on,30,59,0
2,note_on,30,0,120
2,note_on,42,0,0
2,note_on,58,51,0
2,note_on,52,51,0
2,note_on,61,61,0
2,note_on,61,0,119
2,note_on,52,0,0
2,note_on,58,0,0
2,note_on,61,61,1
2,note_on,52,51,0
2,note_on,58,51,0
2,note_on,58,0,119
2,note_on,52,0,0
2,note_on,61,0,0
2,note_on,61,61,1
2,note_on,52,51,0
2,note_on,58,51,0
2,note_on,58,0,120
2,note_on,52,0,0
2,note_on,61,0,0
2,note_on,55,45,120
2,note_on,52,45,0
2,note_on,49,45,0
2,note_on,58,53,0
2,note_on,58,0,119
2,note_on,55,0,0
2,note_on,52,0,0
2,note_on,49,0,0
2,note_on,55,45,1
2,note_on,58,54,0
2,note_on,52,45,0
2,note_on,49,45,0
2,note_on,49,0,119
2,note_on,55,0,0
2,note_on,58,0,0
2,note_on,52,0,0
2,note_on,55,45,1
2,note_on,52,45,0
2,note_on,58,54,0
2,note_on,49,45,0
2,note_on,49,0,120
2,note_on,55,0,0
2,note_on,52,0,0
2,note_on,58,0,0
2,note_on,58,37,120
2,note_on,55,37,0
2,note_on,61,44,0
2,note_on,52,37,0
2,note_on,52,0,60
2,note_on,58,0,0
2,note_on,55,0,0
2,note_on,61,0,0
2,note_on,55,37,180
2,note_on,52,37,0
2,note_on,49,37,0
2,note_on,58,44,0
2,note_on,58,0,60
2,note_on,55,0,0
2,note_on,52,0,0
2,note_on,49,0,0
2,note_on,58,37,180
2,note_on,52,37,0
2,note_on,61,44,0
2,note_on,55,37,0
2,note_on,55,0,60
2,note_on,58,0,0
2,note_on,52,0,0
2,note_on,61,0,0
2,note_on,54,37,180
2,note_on,59,44,0
2,note_on,50,37,0
2,note_on,50,0,60
2,note_on,59,0,0
2,note_on,54,0,0
2,note_on,42,71,60
2,note_on,30,59,0
2,note_on,30,0,120
2,note_on,42,0,0
2,note_on,59,51,0
2,note_on,62,61,0
2,note_on,54,51,0
2,note_on,54,0,119
2,note_on,62,0,0
2,note_on,59,0,0
2,note_on,62,61,1
2,note_on,54,51,0
2,note_on,59,51,0
2,note_on,59,0,119
2,note_on,54,0,0
2,note_on,62,0,0
2,note_on,62,61,1
2,note_on,54,51,0
2,note_on,59,51,0
2,note_on,59,0,120
2,note_on,54,0,0
2,note_on,62,0,0
2,note_on,54,45,120
2,note_on,59,53,0
2,note_on,50,45,0
2,note_on,50,0,119
2,note_on,59,0,0
2,note_on,54,0,0
2,note_on,59,54,1
2,note_on,54,45,0
2,note_on,50,45,0
2,note_on,50,0,119
2,note_on,54,0,0
2,note_on,59,0,0
2,note_on,54,45,1
2,note_on,59,54,0
2,note_on,50,45,0
2,note_on,50,0,120
2,note_on,59,0,0
2,note_on,54,0,0
2,note_on,56,37,120
2,note_on,53,37,0
2,note_on,62,44,0
2,note_on,59,37,0
2,note_on,59,0,60
2,note_on,56,0,0
2,note_on,53,0,0
2,note_on,62,0,0
2,note_on,56,37,180
2,note_on,59,44,0
2,note_on,50,37,0
2,note_on,53,37,0
2,note_on,53,0,60
2,note_on,56,0,0
2,note_on,59,0,0
2,note_on,50,0,0
2,note_on,53,41,180
2,note_on,59,41,0
2,note_on,56,41,0
2,note_on,62,49,0
2,note_on,62,0,60
2,note_on,53,0,0
2,note_on,59,0,0
2,note_on,56,0,0
2,note_on,55,42,180
2,note_on,58,42,0
2,note_on,52,42,0
2,note_on,61,51,0
2,note_on,61,0,60
2,note_on,55,0,0
2,note_on,58,0,0
2,note_on,52,0,0
2,note_on,58,44,180
2,note_on,55,44,0
2,note_on,61,44,0
2,note_on,64,52,0
2,note_on,64,0,60
2,note_on,58,0,0
2,note_on,55,0,0
2,note_on,61,0,0
2,note_on,55,45,180
2,note_on,52,45,0
2,note_on,61,54,0
2,note_on,58,45,0
2,note_on,58,0,60
2,note_on,55,0,0
2,note_on,52,0,0
2,note_on,61,0,0
2,note_on,58,48,180
2,note_on,64,57,0
2,note_on,61,48,0
2,note_on,54,48,0
2,note_on,54,0,60
2,note_on,58,0,0
2,note_on,64,0,0
2,note_on,61,0,0
2,note_on,54,49,180
2,note_on,62,60,0
2,note_on,59,49,0
2,note_on,59,0,60
2,note_on,62,0,0
2,note_on,54,0,0
2,note_on,54,52,180
2,note_on,62,61,0
2,note_on,59,52,0
2,note_on,59,0,60
2,note_on,62,0,0
2,note_on,54,0,0
2,note_on,62,65,180
2,note_on,54,54,0
2,note_on,59,54,0
2,note_on,59,0,60
2,note_on,54,0,0
2,note_on,62,0,0
2,note_on,62,68,180
2,note_on,54,57,0
2,note_on,59,57,0
2,note_on,59,0,60
2,note_on,54,0,0
2,note_on,62,0,0
2,note_on,59,58,180
2,note_on,61,58,0
2,note_on,56,58,0
2,note_on,65,70,0
2,note_on,65,0,60
2,note_on,59,0,0
2,note_on,61,0,0
2,note_on,56,0,0
2,note_on,68,72,180
2,note_on,56,61,0
2,note_on,56,0,60
2,note_on,68,0,0
2,note_on,66,72,180
2,note_on,54,61,0
2,note_on,54,0,60
2,note_on,66,0,0
2,note_on,51,61,180
2,note_on,63,72,0
2,note_on,63,0,60
2,note_on,51,0,0
2,note_on,61,72,180
2,note_on,49,61,0
2,note_on,49,0,60
2,note_on,61,0,0
2,note_on,47,55,180
2,note_on,59,64,0
2,note_on,59,0,60
2,note_on,47,0,0
2,note_on,58,64,180
2,note_on,46,55,0
2,note_on,46,0,60
2,note_on,58,0,0
2,note_on,44,55,180
2,note_on,56,64,0
2,note_on,56,0,60
2,note_on,44,0,0
2,note_on,54,64,180
2,note_on,42,55,0
2,note_on,42,0,60
2,note_on,54,0,0
2,note_on,51,64,180
2,note_on,39,55,0
2,note_on,39,0,60
2,note_on,51,0,0
2,note_on,37,55,180
2,note_on,49,64,0
2,note_on,49,0,60
2,note_on,37,0,0
2,note_on,35,51,180
2,note_on,47,61,0
2,note_on,47,0,60
2,note_on,35,0,0
2,note_on,46,61,180
2,note_on,34,51,0
2,note_on,34,0,60
2,note_on,46,0,0
2,note_on,44,57,180
2,note_on,32,49,0
2,note_on,32,0,60
2,note_on,44,0,0
2,note_on,30,48,180
2,note_on,42,56,0
2,note_on,42,0,60
2,note_on,30,0,0
2,note_on,39,55,180
2,note_on,39,0,60
2,note_on,37,54,180
2,note_on,37,0,60
2,note_on,41,42,180
2,note_on,41,0,120
2,note_on,37,28,120
2,note_on,37,0,120
2,note_on,44,39,120
2,note_on,44,0,120
2,note_on,37,27,120
2,note_on,37,0,120
2,note_on,49,37,120
2,note_on,49,0,120
2,note_on,37,26,120
2,note_on,37,0,120
2,note_on,53,34,120
2,note_on,53,0,120
2,note_on,37,24,120
2,note_on,37,0,120
2,note_on,56,32,120
2,note_on,56,0,120
2,note_on,37,23,120
2,note_on,37,0,120
2,note_on,61,29,120
2,note_on,61,0,118
2,note_on,37,24,122
2,note_on,37,0,120
2,note_on,61,28,120
2,note_on,61,0,118
2,note_on,37,21,122
2,note_on,37,0,120
2,note_on,54,21,120
2,note_on,61,21,0
2,note_on,61,0,120
2,note_on,54,0,0
2,note_on,35,101,120
2,note_on,35,0,120
2,note_on,62,97,0
2,note_on,54,81,0
2,note_on,59,81,0
2,note_on,59,0,357
2,note_on,54,0,0
2,note_on,62,0,0
2,note_on,62,88,3
2,note_on,59,73,0
2,note_on,54,73,0
2,note_on,54,0,119
2,note_on,59,0,0
2,note_on,62,0,0
2,note_on,54,81,1
2,note_on,59,81,0
2,note_on,62,97,0
2,note_on,62,0,240
2,note_on,59,0,0
2,note_on,54,0,0
2,note_on,54,79,0
2,note_on,62,91,0
2,note_on,59,79,0
2,note_on,59,0,45
2,note_on,62,0,0
2,note_on,54,0,0
2,note_on,54,81,75
2,note_on,62,97,0
2,note_on,59,81,0
2,note_on,59,0,45
2,note_on,62,0,0
2,note_on,54,0,0
2,note_on,54,81,75
2,note_on,62,97,0
2,note_on,59,81,0
2,note_on,59,0,120
2,note_on,62,0,0
2,note_on,54,0,0
2,note_on,50,81,120
2,note_on,59,97,0
2,note_on,54,81,0
2,note_on,54,0,120
2,note_on,59,0,0
2,note_on,50,0,0
2,note_on,47,39,480
2,note_on,47,0,120
2,note_on,62,45,0
2,note_on,62,0,360
2,note_on,47,42,0
2,note_on,47,0,120
2,note_on,62,49,0
2,note_on,62,0,360
2,note_on,47,45,0
2,note_on,47,0,120
2,note_on,62,53,0
2,note_on,62,0,360
2,note_on,43,45,0
2,note_on,43,0,120
2,note_on,59,58,0
2,note_on,59,0,360
2,note_on,43,51,0
2,note_on,43,0,120
2,note_on,59,57,0
2,note_on,59,0,360
2,note_on,43,49,0
2,note_on,43,0,120
2,note_on,59,62,0
2,note_on,59,0,360
2,note_on,43,54,0
2,note_on,43,0,120
2,note_on,59,61,0
2,note_on,59,0,360
2,note_on,36,52,0
2,note_on,36,0,120
2,note_on,51,67,0
2,note_on,51,0,360
2,note_on,36,58,0
2,note_on,36,0,120
2,note_on,51,65,0
2,note_on,51,0,360
2,note_on,36,55,0
2,note_on,36,0,120
2,note_on,51,71,0
2,note_on,51,0,360
2,note_on,36,61,0
2,note_on,36,0,120
2,note_on,51,69,0
2,note_on,51,0,360
2,note_on,29,58,0
2,note_on,29,0,120
2,note_on,45,74,0
2,note_on,45,0,360
2,note_on,29,64,0
2,note_on,29,0,120
2,note_on,45,72,0
2,note_on,45,0,360
2,note_on,41,61,0
2,note_on,41,0,120
2,note_on,36,79,0
2,note_on,36,0,360
2,note_on,41,68,0
2,note_on,41,0,120
2,note_on,33,76,0
2,note_on,33,0,360
2,note_on,41,65,0
2,note_on,41,0,120
2,note_on,30,83,0
2,note_on,30,0,360
2,note_on,41,71,0
2,note_on,41,0,120
2,note_on,29,78,0
2,note_on,41,85,0
2,note_on,41,0,240
2,note_on,29,0,0
2,note_on,78,48,0
2,note_on,78,0,120
2,note_on,77,48,0
2,note_on,77,0,120
2,note_on,78,54,0
2,note_on,78,0,240
2,note_on,77,44,0
2,note_on,77,0,120
2,note_on,76,44,0
2,note_on,76,0,120
2,note_on,77,44,0
2,note_on,77,0,240
2,note_on,66,43,0
2,note_on,66,0,120
2,note_on,65,43,0
2,note_on,65,0,120
2,note_on,66,51,0
2,note_on,66,0,240
2,note_on,65,43,0
2,note_on,65,0,120
2,note_on,64,43,0
2,note_on,64,0,120
2,note_on,53,40,0
2,note_on,57,40,0
2,note_on,60,40,0
2,note_on,63,51,0
2,note_on,63,0,240
2,note_on,53,0,0
2,note_on,57,0,0
2,note_on,60,0,0
2,note_on,53,42,120
2,note_on,53,0,120
2,note_on,57,51,0
2,note_on,57,0,240
2,note_on,60,40,120
2,note_on,60,0,120
2,note_on,65,51,0
2,note_on,65,0,240
2,note_on,69,43,120
2,note_on,69,0,120
2,note_on,72,51,0
2,note_on,72,0,240
2,note_on,75,45,0
2,note_on,75,0,120
2,note_on,72,45,0
2,note_on,72,0,120
2,note_on,67,40,0
2,note_on,67,0,120
2,note_on,69,40,0
2,note_on,69,0,120
2,note_on,70,44,0
2,note_on,70,0,120
2,note_on,67,40,0
2,note_on,67,0,120
2,note_on,63,40,0
2,note_on,63,0,120
2,note_on,65,40,0
2,note_on,65,0,120
2,note_on,67,45,0
2,note_on,67,0,120
2,note_on,63,40,0
2,note_on,63,0,120
2,note_on,60,40,0
2,note_on,60,0,120
2,note_on,62,40,0
2,note_on,62,0,120
2,note_on,63,45,0
2,note_on,63,0,120
2,note_on,60,40,0
2,note_on,60,0,120
2,note_on,57,40,0
2,note_on,57,0,120
2,note_on,58,40,0
2,note_on,58,0,120
2,note_on,60,45,0
2,note_on,60,0,120
2,note_on,57,40,0
2,note_on,57,0,120
2,note_on,62,51,0
2,note_on,53,48,0
2,note_on,58,48,0
2,note_on,58,0,240
2,note_on,53,0,0
2,note_on,62,0,0
2,note_on,53,42,120
2,note_on,53,0,120
2,note_on,58,51,0
2,note_on,58,0,240
2,note_on,62,40,120
2,note_on,62,0,120
2,note_on,65,51,0
2,note_on,65,0,240
2,note_on,70,43,120
2,note_on,70,0,120
2,note_on,74,51,0
2,note_on,74,0,240
2,note_on,62,45,0
2,note_on,62,0,120
2,note_on,58,45,0
2,note_on,58,0,120
2,note_on,70,40,0
2,note_on,70,0,120
2,note_on,72,40,0
2,note_on,72,0,120
2,note_on,74,44,0
2,note_on,74,0,120
2,note_on,70,40,0
2,note_on,70,0,120
2,note_on,62,40,0
2,note_on,62,0,120
2,note_on,63,40,0
2,note_on,63,0,120
2,note_on,65,45,0
2,note_on,65,0,120
2,note_on,62,40,0
2,note_on,62,0,120
2,note_on,58,40,0
2,note_on,58,0,120
2,note_on,60,40,0
2,note_on,60,0,120
2,note_on,62,45,0
2,note_on,62,0,120
2,note_on,58,40,0
2,note_on,58,0,118
2,note_on,74,40,2
2,note_on,74,0,120
2,note_on,75,40,0
2,note_on,75,0,120
2,note_on,77,45,0
2,note_on,77,0,120
2,note_on,74,40,0
2,note_on,74,0,120
2,note_on,75,40,0
2,note_on,75,0,120
2,note_on,77,40,0
2,note_on,77,0,120
2,note_on,75,45,0
2,note_on,75,0,120
2,note_on,74,40,0
2,note_on,74,0,120
2,note_on,75,40,0
2,note_on,75,0,120
2,note_on,77,40,0
2,note_on,77,0,120
2,note_on,79,45,0
2,note_on,79,0,120
2,note_on,75,40,0
2,note_on,75,0,120
2,note_on,72,46,0
2,note_on,72,0,120
2,note_on,74,38,0
2,note_on,74,0,120
2,note_on,75,45,0
2,note_on,75,0,120
2,note_on,72,40,0
2,note_on,72,0,120
2,note_on,69,45,0
2,note_on,69,0,120
2,note_on,70,36,0
2,note_on,70,0,120
2,note_on,72,41,0
2,note_on,72,0,120
2,note_on,69,36,0
2,note_on,69,0,120
2,note_on,63,46,0
2,note_on,63,0,120
2,note_on,65,38,0
2,note_on,65,0,120
2,note_on,66,45,0
2,note_on,66,0,120
2,note_on,63,40,0
2,note_on,63,0,120
2,note_on,60,45,0
2,note_on,60,0,120
2,note_on,62,36,0
2,note_on,62,0,120
2,note_on,63,41,0
2,note_on,63,0,120
2,note_on,60,36,0
2,note_on,60,0,120
2,note_on,57,46,0
2,note_on,57,0,120
2,note_on,58,38,0
2,note_on,58,0,120
2,note_on,60,45,0
2,note_on,60,0,120
2,note_on,57,40,0
2,note_on,57,0,120
2,note_on,72,45,0
2,note_on,72,0,120
2,note_on,70,36,0
2,note_on,70,0,120
2,note_on,69,41,0
2,note_on,69,0,120
2,note_on,72,36,0
2,note_on,72,0,120
2,note_on,74,40,0
2,note_on,74,0,120
2,note_on,75,40,0
2,note_on,75,0,120
2,note_on,74,45,0
2,note_on,74,0,120
2,note_on,72,40,0
2,note_on,72,0,120
2,note_on,74,40,0
2,note_on,74,0,120
2,note_on,75,40,0
2,note_on,75,0,120
2,note_on,77,45,0
2,note_on,77,0,120
2,note_on,74,40,0
2,note_on,74,0,120
2,note_on,70,46,0
2,note_on,70,0,120
2,note_on,72,38,0
2,note_on,72,0,120
2,note_on,74,45,0
2,note_on,74,0,120
2,note_on,70,40,0
2,note_on,70,0,120
2,note_on,65,45,0
2,note_on,65,0,120
2,note_on,69,36,0
2,note_on,69,0,120
2,note_on,70,41,0
2,note_on,70,0,120
2,note_on,65,36,0
2,note_on,65,0,120
2,note_on,62,46,0
2,note_on,62,0,120
2,note_on,63,38,0
2,note_on,63,0,120
2,note_on,65,45,0
2,note_on,65,0,120
2,note_on,62,40,0
2,note_on,62,0,120
2,note_on,58,45,0
2,note_on,58,0,120
2,note_on,60,36,0
2,note_on,60,0,120
2,note_on,62,41,0
2,note_on,62,0,120
2,note_on,58,36,0
2,note_on,58,0,120
2,note_on,53,46,0
2,note_on,53,0,120
2,note_on,57,38,0
2,note_on,57,0,120
2,note_on,58,45,0
2,note_on,58,0,120
2,note_on,53,40,0
2,note_on,53,0,120
2,note_on,51,45,0
2,note_on,51,0,120
2,note_on,58,36,0
2,note_on,58,0,120
2,note_on,53,41,0
2,note_on,53,0,120
2,note_on,51,36,0
2,note_on,51,0,120
2,note_on,50,36,0
2,note_on,50,0,240
2,note_on,46,34,0
2,note_on,58,40,0
2,note_on,58,0,240
2,note_on,46,0,0
2,note_on,55,36,0
2,note_on,51,30,0
2,note_on,51,0,120
2,note_on,55,0,0
2,note_on,63,40,120
2,note_on,63,0,120
2,note_on,60,36,0
2,note_on,60,0,120
2,note_on,57,36,0
2,note_on,57,0,240
2,note_on,53,34,0
2,note_on,65,36,0
2,note_on,65,0,240
2,note_on,53,0,0
2,note_on,62,36,0
2,note_on,58,30,0
2,note_on,58,0,120
2,note_on,62,0,0
2,note_on,64,30,600
2,note_on,61,26,0
2,note_on,58,26,0
2,note_on,67,36,0
2,note_on,67,0,240
2,note_on,64,0,0
2,note_on,61,0,0
2,note_on,58,0,0
2,note_on,65,34,0
2,note_on,69,40,0
2,note_on,60,34,0
2,note_on,60,0,240
2,note_on,69,0,0
2,note_on,65,0,0
2,note_on,67,27,0
2,note_on,60,25,0
2,note_on,70,30,0
2,note_on,70,0,120
2,note_on,67,0,0
2,note_on,72,36,0
2,note_on,72,0,120
2,note_on,60,0,0
2,note_on,72,36,0
2,note_on,65,30,0
2,note_on,65,0,240
2,note_on,72,0,0
2,note_on,65,30,0
2,note_on,74,36,0
2,note_on,74,0,180
2,note_on,76,31,0
2,note_on,76,0,60
2,note_on,65,0,0
2,note_on,65,30,0
2,note_on,77,36,0
2,note_on,77,0,240
2,note_on,65,0,0
2,note_on,67,37,0
2,note_on,67,0,120
2,note_on,69,36,0
2,note_on,69,0,120
2,note_on,70,36,0
2,note_on,70,0,238
2,note_on,65,36,2
2,note_on,62,30,0
2,note_on,62,0,240
2,note_on,65,0,0
2,note_on,63,30,0
2,note_on,67,36,0
2,note_on,67,0,120
2,note_on,63,0,0
2,note_on,72,36,120
2,note_on,72,0,120
2,note_on,75,32,0
2,note_on,75,0,120
2,note_on,77,36,0
2,note_on,77,0,238
2,note_on,69,30,2
2,note_on,72,36,0
2,note_on,72,0,240
2,note_on,69,0,0
2,note_on,70,30,0
2,note_on,74,36,0
2,note_on,74,0,120
2,note_on,70,0,0
2,note_on,67,41,120
2,note_on,67,0,120
2,note_on,66,36,0
2,note_on,66,0,120
2,note_on,67,36,0
2,note_on,67,0,240
2,note_on,75,36,0
2,note_on,70,30,0
2,note_on,67,30,0
2,note_on,67,0,240
2,note_on,70,0,0
2,note_on,75,0,0
2,note_on,67,30,0
2,note_on,72,36,0
2,note_on,72,0,240
2,note_on,67,0,0
2,note_on,69,30,0
2,note_on,66,30,0
2,note_on,66,0,238
2,note_on,69,0,0
2,note_on,69,30,2
2,note_on,66,30,0
2,note_on,66,0,240
2,note_on,69,0,0
2,note_on,66,31,0
2,note_on,62,26,0
2,note_on,62,0,240
2,note_on,66,0,0
2,note_on,67,30,0
2,note_on,70,36,0
2,note_on,70,0,240
2,note_on,67,0,0
2,note_on,65,34,0
2,note_on,68,40,0
2,note_on,68,0,120
2,note_on,65,0,0
2,note_on,67,36,0
2,note_on,64,30,0
2,note_on,64,0,119
2,note_on,67,0,0
2,note_on,64,30,1
2,note_on,67,36,0
2,note_on,67,0,240
2,note_on,64,0,0
2,note_on,60,26,0
2,note_on,64,31,0
2,note_on,64,0,240
2,note_on,60,0,0
2,note_on,65,30,0
2,note_on,68,36,0
2,note_on,68,0,240
2,note_on,65,0,0
2,note_on,66,40,0
2,note_on,63,34,0
2,note_on,63,0,120
2,note_on,66,0,0
2,note_on,65,36,0
2,note_on,62,30,0
2,note_on,62,0,119
2,note_on,65,0,0
2,note_on,62,30,1
2,note_on,65,36,0
2,note_on,65,0,240
2,note_on,62,0,0
2,note_on,62,31,0
2,note_on,58,26,0
2,note_on,58,0,240
2,note_on,62,0,0
2,note_on,63,30,0
2,note_on,67,36,0
2,note_on,67,0,240
2,note_on,63,0,0
2,note_on,65,40,0
2,note_on,62,34,0
2,note_on,62,0,120
2,note_on,65,0,0
2,note_on,61,30,0
2,note_on,64,36,0
2,note_on,64,0,119
2,note_on,61,0,0
2,note_on,61,30,1
2,note_on,64,36,0
2,note_on,64,0,240
2,note_on,61,0,0
2,note_on,61,31,0
2,note_on,57,26,0
2,note_on,57,0,240
2,note_on,61,0,0
2,note_on,65,36,0
2,note_on,62,30,0
2,note_on,62,0,240
2,note_on,65,0,0
2,note_on,63,40,0
2,note_on,60,34,0
2,note_on,60,0,120
2,note_on,63,0,0
2,note_on,62,36,0
2,note_on,59,30,0
2,note_on,59,0,119
2,note_on,62,0,0
2,note_on,62,36,1
2,note_on,59,30,0
2,note_on,59,0,240
2,note_on,62,0,0
2,note_on,60,36,0
2,note_on,63,30,0
2,note_on,60,0,120
2,note_on,58,30,0
2,note_on,58,0,120
2,note_on,63,0,0
2,note_on,57,30,0
2,note_on,60,36,0
2,note_on,60,0,240
2,note_on,57,0,0
2,note_on,58,36,0
2,note_on,62,30,0
2,note_on,58,0,120
2,note_on,50,32,0
2,note_on,50,0,120
2,note_on,62,0,0
2,note_on,53,25,0
2,note_on,63,30,0
2,note_on,48,25,0
2,note_on,48,0,1440
2,note_on,63,0,0
2,note_on,53,0,0
2,note_on,62,30,0
2,note_on,50,25,0
2,note_on,53,25,0
2,note_on,53,0,480
2,note_on,50,0,0
2,note_on,62,0,0
2,note_on,36,25,0
2,note_on,51,30,0
2,note_on,41,25,0
2,note_on,41,0,1440
2,note_on,51,0,0
2,note_on,36,0,0
2,note_on,38,25,0
2,note_on,41,25,0
2,note_on,50,30,0
2,note_on,50,0,480
2,note_on,41,0,0
2,note_on,38,0,0
2,note_on,50,30,0
2,note_on,38,25,0
2,note_on,38,0,480
2,note_on,50,0,0
2,note_on,43,23,0
2,note_on,55,28,0
2,note_on,55,0,480
2,note_on,43,0,0
2,note_on,52,30,0
2,note_on,40,25,0
2,note_on,40,0,480
2,note_on,52,0,0
2,note_on,53,29,0
2,note_on,41,24,0
2,note_on,41,0,240
2,note_on,53,0,0
2,note_on,60,25,240
2,note_on,75,30,0
2,note_on,65,25,0
2,note_on,65,0,1440
2,note_on,75,0,0
2,note_on,60,0,0
2,note_on,74,30,0
2,note_on,62,25,0
2,note_on,65,25,0
2,note_on,65,0,480
2,note_on,62,0,0
2,note_on,74,0,0
2,note_on,63,30,0
2,note_on,48,25,0
2,note_on,53,25,0
2,note_on,53,0,1440
2,note_on,48,0,0
2,note_on,63,0,0
2,note_on,50,25,0
2,note_on,62,30,0
2,note_on,53,25,0
2,note_on,53,0,480
2,note_on,62,0,0
2,note_on,50,0,0
2,note_on,50,25,0
2,note_on,62,30,0
2,note_on,62,0,480
2,note_on,50,0,0
2,note_on,55,23,0
2,note_on,67,28,0
2,note_on,67,0,480
2,note_on,55,0,0
2,note_on,52,25,0
2,note_on,64,30,0
2,note_on,64,0,480
2,note_on,52,0,0
2,note_on,53,24,0
2,note_on,65,29,0
2,note_on,65,0,240
2,note_on,53,0,0
2,note_on,54,24,0
2,note_on,66,29,0
2,note_on,66,0,240
2,note_on,54,0,0
2,note_on,55,26,0
2,note_on,67,31,0
2,note_on,67,0,480
2,note_on,55,0,0
2,note_on,60,25,0
2,note_on,72,30,0
2,note_on,72,0,480
2,note_on,60,0,0
2,note_on,57,28,0
2,note_on,69,33,0
2,note_on,69,0,480
2,note_on,57,0,0
2,note_on,58,28,0
2,note_on,70,34,0
2,note_on,70,0,240
2,note_on,58,0,0
2,note_on,59,28,0
2,note_on,71,34,0
2,note_on,71,0,240
2,note_on,59,0,0
2,note_on,60,30,0
2,note_on,72,36,0
2,note_on,72,0,480
2,note_on,60,0,0
2,note_on,64,29,0
2,note_on,76,35,0
2,note_on,76,0,480
2,note_on,64,0,0
2,note_on,62,34,0
2,note_on,74,39,0
2,note_on,74,0,480
2,note_on,62,0,0
2,note_on,63,39,0
2,note_on,75,39,0
2,note_on,75,0,720
2,note_on,63,0,0
2,note_on,39,56,0
2,note_on,51,66,0
2,note_on,51,0,240
2,note_on,39,0,0
2,note_on,67,82,720
2,note_on,63,69,0
2,note_on,63,0,120
2,note_on,67,0,0
2,note_on,62,67,120
2,note_on,65,79,0
2,note_on,65,0,240
2,note_on,62,0,0
2,note_on,63,68,0
2,note_on,67,81,0
2,note_on,67,0,120
2,note_on,63,0,0
2,note_on,68,84,0
2,note_on,65,71,0
2,note_on,65,0,120
2,note_on,68,0,0
2,note_on,70,88,0
2,note_on,67,74,0
2,note_on,67,0,120
2,note_on,70,0,0
2,note_on,51,66,120
2,note_on,39,56,0
2,note_on,39,0,240
2,note_on,51,0,0
2,note_on,40,62,720
2,note_on,52,74,0
2,note_on,52,0,240
2,note_on,40,0,0
2,note_on,48,79,240
2,note_on,36,67,0
2,note_on,36,0,240
2,note_on,48,0,0
2,note_on,53,74,240
2,note_on,41,62,0
2,note_on,41,0,240
2,note_on,53,0,0
2,note_on,55,72,240
2,note_on,43,61,0
2,note_on,43,0,240
2,note_on,55,0,0
2,note_on,41,50,0
2,note_on,41,0,120
2,note_on,45,50,0
2,note_on,45,0,120
2,note_on,46,50,0
2,note_on,46,0,120
2,note_on,50,50,0
2,note_on,50,0,120
2,note_on,53,50,0
2,note_on,53,0,120
2,note_on,57,50,0
2,note_on,57,0,120
2,note_on,58,50,0
2,note_on,58,0,120
2,note_on,62,50,0
2,note_on,62,0,120
2,note_on,65,50,0
2,note_on,65,0,120
2,note_on,69,50,0
2,note_on,69,0,120
2,note_on,70,50,0
2,note_on,70,0,120
2,note_on,74,50,0
2,note_on,74,0,120
2,note_on,70,43,240
2,note_on,70,0,120
2,note_on,74,44,0
2,note_on,74,0,120
2,note_on,76,45,0
2,note_on,76,0,120
2,note_on,77,46,0
2,note_on,77,0,120
2,note_on,79,47,0
2,note_on,79,0,120
2,note_on,77,48,0
2,note_on,77,0,120
2,note_on,81,50,0
2,note_on,81,0,120
2,note_on,82,51,0
2,note_on,82,0,120
2,note_on,84,52,0
2,note_on,84,0,120
2,note_on,82,53,0
2,note_on,82,0,120
2,note_on,85,54,0
2,note_on,85,0,120
2,note_on,86,55,0
2,note_on,86,0,120
2,note_on,87,56,0
2,note_on,87,0,120
2,note_on,86,58,0
2,note_on,86,0,120
2,note_on,89,59,0
2,note_on,89,0,240
2,note_on,65,60,0
2,note_on,65,0,80
2,note_on,67,63,0
2,note_on,67,0,80
2,note_on,69,66,0
2,note_on,69,0,80
2,note_on,58,40,0
2,note_on,58,0,160
2,note_on,70,32,0
2,note_on,70,0,160
2,note_on,69,32,0
2,note_on,69,0,160
2,note_on,70,40,0
2,note_on,70,0,160
2,note_on,69,33,0
2,note_on,69,0,160
2,note_on,70,33,0
2,note_on,70,0,160
2,note_on,66,40,0
2,note_on,66,0,160
2,note_on,70,31,0
2,note_on,70,0,160
2,note_on,66,31,0
2,note_on,66,0,160
2,note_on,70,40,0
2,note_on,70,0,160
2,note_on,63,33,0
2,note_on,63,0,160
2,note_on,70,33,0
2,note_on,70,0,160
2,note_on,62,40,0
2,note_on,62,0,160
2,note_on,70,31,0
2,note_on,70,0,160
2,note_on,65,31,0
2,note_on,65,0,160
2,note_on,58,40,0
2,note_on,58,0,160
2,note_on,70,32,0
2,note_on,70,0,160
2,note_on,65,32,0
2,note_on,65,0,160
2,note_on,63,40,0
2,note_on,63,0,160
2,note_on,70,33,0
2,note_on,70,0,160
2,note_on,63,33,0
2,note_on,63,0,160
2,note_on,66,40,0
2,note_on,66,0,160
2,note_on,70,32,0
2,note_on,70,0,160
2,note_on,66,32,0
2,note_on,66,0,160
2,note_on,65,40,0
2,note_on,65,0,160
2,note_on,70,32,0
2,note_on,70,0,160
2,note_on,65,32,0
2,note_on,65,0,160
2,note_on,71,40,0
2,note_on,71,0,160
2,note_on,65,36,0
2,note_on,65,0,160
2,note_on,71,36,0
2,note_on,71,0,160
2,note_on,65,40,0
2,note_on,65,0,160
2,note_on,72,33,0
2,note_on,72,0,160
2,note_on,69,33,0
2,note_on,69,0,160
2,note_on,53,40,0
2,note_on,53,0,160
2,note_on,60,34,0
2,note_on,60,0,160
2,note_on,57,34,0
2,note_on,57,0,160
2,note_on,46,40,0
2,note_on,46,0,120
2,note_on,58,33,0
2,note_on,58,0,120
2,note_on,62,33,0
2,note_on,62,0,120
2,note_on,58,33,0
2,note_on,58,0,120
2,note_on,53,41,0
2,note_on,53,0,120
2,note_on,58,35,0
2,note_on,58,0,120
2,note_on,68,35,0
2,note_on,68,0,120
2,note_on,58,35,0
2,note_on,58,0,120
2,note_on,55,42,0
2,note_on,55,0,120
2,note_on,58,36,0
2,note_on,58,0,120
2,note_on,70,36,0
2,note_on,70,0,120
2,note_on,58,37,0
2,note_on,58,0,120
2,note_on,51,44,0
2,note_on,51,0,120
2,note_on,58,37,0
2,note_on,58,0,120
2,note_on,67,37,0
2,note_on,67,0,120
2,note_on,58,38,0
2,note_on,58,0,120
2,note_on,50,45,0
2,note_on,50,0,120
2,note_on,58,37,0
2,note_on,58,0,120
2,note_on,65,37,0
2,note_on,65,0,120
2,note_on,58,37,0
2,note_on,58,0,120
2,note_on,46,46,0
2,note_on,46,0,120
2,note_on,58,39,0
2,note_on,58,0,120
2,note_on,62,40,0
2,note_on,62,0,120
2,note_on,58,40,0
2,note_on,58,0,120
2,note_on,51,48,0
2,note_on,51,0,120
2,note_on,58,42,0
2,note_on,58,0,120
2,note_on,67,42,0
2,note_on,67,0,120
2,note_on,58,42,0
2,note_on,58,0,120
2,note_on,55,51,0
2,note_on,55,0,120
2,note_on,58,43,0
2,note_on,58,0,120
2,note_on,70,43,0
2,note_on,70,0,120
2,note_on,58,43,0
2,note_on,58,0,120
2,note_on,53,50,0
2,note_on,53,0,120
2,note_on,58,44,0
2,note_on,58,0,120
2,note_on,57,48,0
2,note_on,57,0,120
2,note_on,58,51,0
2,note_on,58,0,120
2,note_on,53,54,0
2,note_on,53,0,120
2,note_on,50,55,0
2,note_on,50,0,120
2,note_on,48,55,0
2,note_on,48,0,120
2,note_on,46,54,0
2,note_on,46,0,120
2,note_on,41,54,0
2,note_on,41,0,120
2,note_on,43,49,0
2,note_on,43,0,120
2,note_on,45,49,0
2,note_on,45,0,120
2,note_on,46,49,0
2,note_on,46,0,120
2,note_on,48,54,0
2,note_on,48,0,120
2,note_on,50,50,0
2,note_on,50,0,120
2,note_on,51,59,0
2,note_on,51,0,120
2,note_on,53,66,0
2,note_on,53,0,120
2,note_on,34,66,0
2,note_on,34,0,120
2,note_on,46,56,0
2,note_on,46,0,120
2,note_on,34,66,0
2,note_on,34,0,120
2,note_on,46,56,0
2,note_on,46,0,120
2,note_on,34,66,0
2,note_on,34,0,120
2,note_on,46,57,0
2,note_on,46,0,120
2,note_on,34,66,0
2,note_on,34,0,120
2,note_on,46,57,0
2,note_on,46,0,120
2,note_on,34,66,0
2,note_on,34,0,120
2,note_on,46,57,0
2,note_on,46,0,120
2,note_on,34,66,0
2,note_on,34,0,120
2,note_on,46,58,0
2,note_on,46,0,120
2,note_on,34,66,0
2,note_on,34,0,120
2,note_on,46,59,0
2,note_on,46,0,120
2,note_on,35,45,0
2,note_on,35,0,120
2,note_on,47,34,0
2,note_on,47,0,120
2,note_on,36,43,0
2,note_on,36,0,120
2,note_on,48,33,0
2,note_on,48,0,120
2,note_on,35,43,0
2,note_on,35,0,120
2,note_on,47,33,0
2,note_on,47,0,120
2,note_on,36,43,0
2,note_on,36,0,120
2,note_on,48,34,0
2,note_on,48,0,120
2,note_on,39,43,0
2,note_on,39,0,120
2,note_on,51,35,0
2,note_on,51,0,120
2,note_on,40,43,0
2,note_on,40,0,120
2,note_on,52,33,0
2,note_on,52,0,120
2,note_on,43,43,0
2,note_on,43,0,120
2,note_on,55,33,0
2,note_on,55,0,120
2,note_on,41,43,0
2,note_on,41,0,120
2,note_on,53,34,0
2,note_on,53,0,120
2,note_on,41,43,0
2,note_on,41,0,120
2,note_on,53,35,0
2,note_on,53,0,120
2,note_on,41,47,0
2,note_on,41,0,120
2,note_on,53,36,0
2,note_on,53,0,120
2,note_on,46,48,0
2,note_on,46,0,120
2,note_on,58,37,0
2,note_on,58,0,120
2,note_on,41,50,0
2,note_on,41,0,120
2,note_on,53,40,0
2,note_on,53,0,118
2,note_on,53,53,2
2,note_on,53,0,120
2,note_on,65,44,0
2,note_on,65,0,120
2,note_on,41,54,0
2,note_on,41,0,120
2,note_on,53,42,0
2,note_on,53,0,120
2,note_on,46,57,0
2,note_on,46,0,120
2,note_on,58,44,0
2,note_on,58,0,120
2,note_on,41,58,0
2,note_on,41,0,120
2,note_on,53,47,0
2,note_on,53,0,118
2,note_on,53,61,2
2,note_on,53,0,120
2,note_on,65,51,0
2,note_on,65,0,120
2,note_on,46,59,0
2,note_on,46,0,120
2,note_on,58,50,0
2,note_on,58,0,120
2,note_on,41,61,0
2,note_on,41,0,120
2,note_on,53,51,0
2,note_on,53,0,120
2,note_on,45,64,0
2,note_on,45,0,120
2,note_on,57,55,0
2,note_on,57,0,120
2,note_on,48,67,0
2,note_on,48,0,120
2,note_on,60,58,0
2,note_on,60,0,120
2,note_on,46,68,0
2,note_on,46,0,120
2,note_on,58,63,0
2,note_on,58,0,120
2,note_on,41,71,0
2,note_on,41,0,120
2,note_on,53,63,0
2,note_on,53,0,120
2,note_on,33,71,0
2,note_on,33,0,120
2,note_on,45,60,0
2,note_on,45,0,120
2,note_on,36,71,0
2,note_on,36,0,120
2,note_on,48,63,0
2,note_on,48,0,120
2,note_on,34,68,0
2,note_on,34,0,120
2,note_on,46,63,0
2,note_on,46,0,120
2,note_on,29,71,0
2,note_on,29,0,120
2,note_on,41,63,0
2,note_on,41,0,120
2,note_on,35,71,0
2,note_on,35,0,120
2,note_on,47,60,0
2,note_on,47,0,120
2,note_on,38,71,0
2,note_on,38,0,120
2,note_on,50,63,0
2,note_on,50,0,120
2,note_on,36,68,0
2,note_on,36,0,120
2,note_on,48,63,0
2,note_on,48,0,120
2,note_on,31,71,0
2,note_on,31,0,120
2,note_on,43,63,0
2,note_on,43,0,120
2,note_on,35,71,0
2,note_on,35,0,120
2,note_on,47,60,0
2,note_on,47,0,120
2,note_on,38,71,0
2,note_on,38,0,120
2,note_on,50,63,0
2,note_on,50,0,120
2,note_on,36,68,0
2,note_on,36,0,120
2,note_on,48,63,0
2,note_on,48,0,120
2,note_on,31,71,0
2,note_on,31,0,120
2,note_on,43,63,0
2,note_on,43,0,120
2,note_on,36,71,0
2,note_on,36,0,120
2,note_on,48,60,0
2,note_on,48,0,120
2,note_on,39,71,0
2,note_on,39,0,120
2,note_on,51,63,0
2,note_on,51,0,120
2,note_on,38,68,0
2,note_on,38,0,120
2,note_on,50,63,0
2,note_on,50,0,120
2,note_on,33,71,0
2,note_on,33,0,120
2,note_on,45,62,0
2,note_on,45,0,120
2,note_on,37,70,0
2,note_on,37,0,120
2,note_on,49,59,0
2,note_on,49,0,120
2,note_on,40,69,0
2,note_on,40,0,120
2,note_on,52,61,0
2,note_on,52,0,120
2,note_on,38,66,0
2,note_on,38,0,120
2,note_on,50,61,0
2,note_on,50,0,120
2,note_on,33,68,0
2,note_on,33,0,120
2,note_on,45,61,0
2,note_on,45,0,120
2,note_on,38,68,0
2,note_on,38,0,120
2,note_on,50,57,0
2,note_on,50,0,120
2,note_on,41,67,0
2,note_on,41,0,120
2,note_on,53,59,0
2,note_on,53,0,120
2,note_on,39,64,0
2,note_on,39,0,120
2,note_on,51,59,0
2,note_on,51,0,120
2,note_on,34,66,0
2,note_on,34,0,120
2,note_on,46,59,0
2,note_on,46,0,120
2,note_on,38,66,0
2,note_on,38,0,120
2,note_on,50,55,0
2,note_on,50,0,120
2,note_on,41,66,0
2,note_on,41,0,120
2,note_on,53,57,0
2,note_on,53,0,120
2,note_on,39,62,0
2,note_on,39,0,120
2,note_on,51,57,0
2,note_on,51,0,120
2,note_on,34,64,0
2,note_on,34,0,120
2,note_on,46,57,0
2,note_on,46,0,120
2,note_on,39,63,0
2,note_on,39,0,120
2,note_on,51,54,0
2,note_on,51,0,120
2,note_on,42,63,0
2,note_on,42,0,120
2,note_on,54,56,0
2,note_on,54,0,120
2,note_on,41,60,0
2,note_on,41,0,120
2,note_on,53,56,0
2,note_on,53,0,120
2,note_on,36,62,0
2,note_on,36,0,120
2,note_on,48,55,0
2,note_on,48,0,120
2,note_on,39,62,0
2,note_on,39,0,120
2,note_on,51,52,0
2,note_on,51,0,120
2,note_on,42,61,0
2,note_on,42,0,120
2,note_on,54,54,0
2,note_on,54,0,120
2,note_on,37,58,0
2,note_on,37,0,120
2,note_on,49,54,0
2,note_on,49,0,120
2,note_on,33,60,0
2,note_on,33,0,120
2,note_on,45,53,0
2,note_on,45,0,120
2,note_on,36,60,0
2,note_on,36,0,120
2,note_on,48,50,0
2,note_on,48,0,120
2,note_on,39,59,0
2,note_on,39,0,120
2,note_on,51,52,0
2,note_on,51,0,120
2,note_on,30,56,0
2,note_on,30,0,120
2,note_on,42,52,0
2,note_on,42,0,120
2,note_on,29,58,0
2,note_on,29,0,120
2,note_on,41,51,0
2,note_on,41,0,120
2,note_on,33,58,0
2,note_on,33,0,120
2,note_on,45,49,0
2,note_on,45,0,120
2,note_on,39,57,0
2,note_on,39,0,120
2,note_on,51,51,0
2,note_on,51,0,120
2,note_on,34,37,0
2,note_on,46,44,0
2,note_on,46,0,480
2,note_on,34,0,0
2,note_on,44,32,0
2,note_on,56,38,0
2,note_on,56,0,480
2,note_on,44,0,0
2,note_on,42,33,0
2,note_on,54,39,0
2,note_on,54,0,480
2,note_on,42,0,0
2,note_on,39,24,0
2,note_on,51,29,0
2,note_on,51,0,480
2,note_on,39,0,0
2,note_on,38,34,0
2,note_on,50,40,0
2,note_on,50,0,480
2,note_on,38,0,0
2,note_on,34,26,0
2,note_on,46,31,0
2,note_on,46,0,480
2,note_on,34,0,0
2,note_on,39,34,0
2,note_on,51,40,0
2,note_on,51,0,480
2,note_on,39,0,0
2,note_on,54,30,0
2,note_on,58,37,0
2,note_on,58,0,240
2,note_on,54,0,0
2,note_on,55,30,0
2,note_on,58,39,0
2,note_on,58,0,120
2,note_on,60,39,0
2,note_on,60,0,120
2,note_on,55,0,0
2,note_on,53,46,0
2,note_on,58,31,0
2,note_on,58,0,81
2,note_on,60,26,0
2,note_on,60,0,80
2,note_on,58,31,0
2,note_on,53,0,79
2,note_on,55,40,0
2,note_on,60,27,1
2,note_on,58,0,1
2,note_on,60,0,80
2,note_on,58,31,0
2,note_on,58,0,80
2,note_on,60,27,0
2,note_on,55,0,78
2,note_on,56,46,0
2,note_on,58,32,0
2,note_on,60,0,3
2,note_on,58,0,78
2,note_on,60,27,0
2,note_on,60,0,80
2,note_on,58,32,0
2,note_on,56,0,79
2,note_on,53,40,0
2,note_on,60,28,1
2,note_on,58,0,1
2,note_on,60,0,80
2,note_on,58,32,0
2,note_on,58,0,80
2,note_on,60,28,0
2,note_on,53,0,78
2,note_on,58,32,0
2,note_on,55,46,0
2,note_on,60,0,3
2,note_on,58,0,78
2,note_on,60,27,0
2,note_on,60,0,80
2,note_on,58,32,0
2,note_on,55,0,79
2,note_on,56,40,0
2,note_on,60,29,1
2,note_on,58,0,1
2,note_on,60,0,80
2,note_on,58,32,0
2,note_on,58,0,80
2,note_on,60,29,0
2,note_on,56,0,78
2,note_on,55,46,0
2,note_on,58,33,0
2,note_on,60,0,3
2,note_on,58,0,78
2,note_on,60,29,0
2,note_on,60,0,80
2,note_on,58,34,0
2,note_on,55,0,79
2,note_on,51,40,0
2,note_on,60,30,1
2,note_on,58,0,1
2,note_on,60,0,80
2,note_on,58,34,0
2,note_on,58,0,80
2,note_on,60,30,0
2,note_on,51,0,78
2,note_on,58,35,0
2,note_on,50,46,0
2,note_on,60,0,3
2,note_on,58,0,78
2,note_on,60,29,0
2,note_on,60,0,80
2,note_on,58,35,0
2,note_on,50,0,79
2,note_on,51,40,0
2,note_on,60,32,1
2,note_on,58,0,1
2,note_on,60,0,80
2,note_on,58,35,0
2,note_on,58,0,80
2,note_on,60,32,0
2,note_on,51,0,78
2,note_on,53,46,0
2,note_on,58,35,0
2,note_on,60,0,3
2,note_on,58,0,78
2,note_on,60,32,0
2,note_on,60,0,80
2,note_on,58,36,0
2,note_on,53,0,79
2,note_on,50,40,0
2,note_on,60,32,1
2,note_on,58,0,1
2,note_on,60,0,80
2,note_on,58,36,0
2,note_on,58,0,80
2,note_on,60,32,0
2,note_on,50,0,78
2,note_on,51,46,0
2,note_on,58,36,0
2,note_on,60,0,3
2,note_on,58,0,78
2,note_on,60,32,0
2,note_on,60,0,80
2,note_on,58,37,0
2,note_on,51,0,79
2,note_on,53,40,0
2,note_on,60,33,1
2,note_on,58,0,1
2,note_on,60,0,80
2,note_on,58,37,0
2,note_on,58,0,80
2,note_on,60,33,0
2,note_on,53,0,78
2,note_on,55,46,0
2,note_on,58,38,0
2,note_on,60,0,3
2,note_on,58,0,78
2,note_on,60,32,0
2,note_on,60,0,80
2,note_on,58,38,0
2,note_on,55,0,79
2,note_on,56,40,0
2,note_on,60,35,1
2,note_on,58,0,1
2,note_on,60,0,80
2,note_on,58,38,0
2,note_on,58,0,80
2,note_on,60,34,0
2,note_on,56,0,78
2,note_on,55,40,0
2,note_on,58,34,0
2,note_on,60,0,3
2,note_on,58,0,78
2,note_on,60,29,0
2,note_on,60,0,80
2,note_on,58,34,0
2,note_on,60,30,80
2,note_on,58,0,1
2,note_on,60,0,80
2,note_on,58,33,0
2,note_on,58,0,80
2,note_on,60,29,0
2,note_on,58,34,78
2,note_on,60,0,3
2,note_on,58,0,78
2,note_on,60,29,0
2,note_on,60,0,80
2,note_on,58,33,0
2,note_on,55,0,79
2,note_on,56,31,0
2,note_on,60,29,1
2,note_on,58,0,1
2,note_on,60,0,80
2,note_on,58,32,0
2,note_on,58,0,80
2,note_on,60,27,0
2,note_on,56,0,78
2,note_on,55,37,0
2,note_on,58,30,0
2,note_on,60,0,3
2,note_on,58,0,78
2,note_on,60,26,0
2,note_on,60,0,80
2,note_on,58,30,0
2,note_on,60,27,80
2,note_on,58,0,1
2,note_on,60,0,80
2,note_on,58,29,0
2,note_on,58,0,80
2,note_on,60,26,0
2,note_on,58,30,78
2,note_on,60,0,3
2,note_on,58,0,78
2,note_on,60,26,0
2,note_on,60,0,80
2,note_on,58,29,0
2,note_on,55,0,79
2,note_on,53,27,0
2,note_on,60,25,1
2,note_on,58,0,1
2,note_on,60,0,80
2,note_on,58,28,0
2,note_on,58,0,80
2,note_on,60,24,0
2,note_on,53,0,78
2,note_on,53,30,0
2,note_on,62,36,0
2,note_on,60,0,3
2,note_on,58,30,4
2,note_on,62,0,953
2,note_on,53,0,0
2,note_on,58,0,7
2,note_on,70,36,233
2,note_on,69,33,120
2,note_on,70,0,12
2,note_on,67,37,108
2,note_on,69,0,12
2,note_on,65,33,108
2,note_on,67,0,12
2,note_on,67,36,108
2,note_on,65,0,12
2,note_on,69,33,108
2,note_on,67,0,12
2,note_on,70,36,108
2,note_on,69,0,12
2,note_on,72,37,108
2,note_on,70,0,12
2,note_on,74,38,108
2,note_on,72,0,12
2,note_on,75,39,108
2,note_on,74,0,12
2,note_on,77,40,108
2,note_on,75,0,12
2,note_on,79,41,108
2,note_on,77,0,12
2,note_on,81,42,108
2,note_on,79,0,12
2,note_on,82,43,108
2,note_on,81,0,12
2,note_on,82,0,120
2,note_on,41,33,108
2,note_on,43,33,120
2,note_on,41,0,12
2,note_on,45,32,108
2,note_on,43,0,12
2,note_on,46,32,108
2,note_on,45,0,12
2,note_on,48,31,108
2,note_on,46,0,12
2,note_on,50,31,108
2,note_on,48,0,12
2,note_on,51,30,108
2,note_on,50,0,12
2,note_on,53,30,108
2,note_on,51,0,12
2,note_on,55,30,108
2,note_on,53,0,12
2,note_on,57,29,108
2,note_on,55,0,12
2,note_on,58,29,108
2,note_on,57,0,12
2,note_on,60,28,108
2,note_on,58,0,12
2,note_on,62,28,108
2,note_on,60,0,12
2,note_on,63,27,108
2,note_on,62,0,12
2,note_on,62,27,108
2,note_on,63,0,12
2,note_on,62,0,108
2,note_on,62,32,0
2,note_on,58,27,0
2,note_on,58,0,357
2,note_on,62,0,0
2,note_on,62,26,3
2,note_on,58,22,0
2,note_on,58,0,119
2,note_on,62,0,0
2,note_on,62,32,1
2,note_on,58,27,0
2,note_on,58,0,240
2,note_on,62,0,0
2,note_on,35,62,120
2,note_on,47,74,0
2,note_on,47,0,120
2,note_on,35,0,0
2,note_on,48,92,0
2,note_on,36,77,0
2,note_on,36,0,357
2,note_on,48,0,0
2,note_on,48,62,3
2,note_on,36,52,0
2,note_on,36,0,119
2,note_on,48,0,0
2,note_on,48,78,1
2,note_on,36,63,0
2,note_on,36,0,240
2,note_on,48,0,0
2,note_on,59,22,120
2,note_on,62,26,0
2,note_on,62,0,120
2,note_on,59,0,0
2,note_on,63,32,0
2,note_on,60,27,0
2,note_on,60,0,357
2,note_on,63,0,0
2,note_on,63,26,3
2,note_on,60,22,0
2,note_on,60,0,119
2,note_on,63,0,0
2,note_on,63,32,1
2,note_on,60,27,0
2,note_on,60,0,240
2,note_on,63,0,0
2,note_on,37,62,120
2,note_on,49,74,0
2,note_on,49,0,120
2,note_on,37,0,0
2,note_on,50,92,0
2,note_on,38,77,0
2,note_on,38,0,357
2,note_on,50,0,0
2,note_on,50,62,3
2,note_on,38,52,0
2,note_on,38,0,119
2,note_on,50,0,0
2,note_on,50,78,1
2,note_on,38,63,0
2,note_on,38,0,240
2,note_on,50,0,0
2,note_on,61,22,120
2,note_on,64,26,0
2,note_on,64,0,120
2,note_on,61,0,0
2,note_on,65,32,0
2,note_on,62,27,0
2,note_on,62,0,357
2,note_on,65,0,0
2,note_on,65,26,3
2,note_on,62,22,0
2,note_on,62,0,119
2,note_on,65,0,0
2,note_on,65,32,1
2,note_on,62,27,0
2,note_on,62,0,240
2,note_on,65,0,0
2,note_on,38,57,120
2,note_on,50,68,0
2,note_on,50,0,120
2,note_on,38,0,0
2,note_on,51,84,0
2,note_on,39,70,0
2,note_on,39,0,357
2,note_on,51,0,0
2,note_on,51,57,3
2,note_on,39,48,0
2,note_on,39,0,119
2,note_on,51,0,0
2,note_on,51,71,1
2,note_on,39,58,0
2,note_on,39,0,240
2,note_on,51,0,0
2,note_on,39,66,1080
2,note_on,51,77,0
2,note_on,51,0,120
2,note_on,39,0,0
2,note_on,41,96,0
2,note_on,29,80,0
2,note_on,29,0,357
2,note_on,41,0,0
2,note_on,41,72,3
2,note_on,29,59,0
2,note_on,29,0,119
2,note_on,41,0,0
2,note_on,41,89,1
2,note_on,29,73,0
2,note_on,29,0,240
2,note_on,41,0,0
2,note_on,30,33,960
2,note_on,29,29,120
2,note_on,30,0,12
2,note_on,30,33,108
2,note_on,29,0,12
2,note_on,29,29,108
2,note_on,30,0,12
2,note_on,30,33,108
2,note_on,29,0,12
2,note_on,29,29,108
2,note_on,30,0,12
2,note_on,33,33,108
2,note_on,29,0,12
2,note_on,34,28,108
2,note_on,33,0,12
2,note_on,33,35,108
2,note_on,34,0,12
2,note_on,34,30,108
2,note_on,33,0,12
2,note_on,30,36,108
2,note_on,34,0,12
2,note_on,29,32,108
2,note_on,30,0,12
2,note_on,30,38,108
2,note_on,29,0,12
2,note_on,29,43,108
2,note_on,30,0,12
2,note_on,34,63,108
2,note_on,42,63,0
2,note_on,29,0,12
2,note_on,42,0,108
2,note_on,41,53,0
2,note_on,41,0,120
2,note_on,42,61,0
2,note_on,42,0,120
2,note_on,41,55,0
2,note_on,41,0,120
2,note_on,34,0,0
2,note_on,30,42,0
2,note_on,29,29,120
2,note_on,30,0,12
2,note_on,30,33,108
2,note_on,29,0,12
2,note_on,29,29,108
2,note_on,30,0,12
2,note_on,33,33,108
2,note_on,29,0,12
2,note_on,34,28,108
2,note_on,33,0,12
2,note_on,33,35,108
2,note_on,34,0,12
2,note_on,34,30,108
2,note_on,33,0,12
2,note_on,30,36,108
2,note_on,34,0,12
2,note_on,29,32,108
2,note_on,30,0,12
2,note_on,30,38,108
2,note_on,29,0,12
2,note_on,29,34,108
2,note_on,30,0,12
2,note_on,34,63,108
2,note_on,42,63,0
2,note_on,29,0,12
2,note_on,42,0,108
2,note_on,41,53,0
2,note_on,41,0,120
2,note_on,42,61,0
2,note_on,42,0,120
2,note_on,41,55,0
2,note_on,41,0,120
2,note_on,34,0,0
2,note_on,30,36,0
2,note_on,29,32,120
2,note_on,30,0,12
2,note_on,30,38,108
2,note_on,29,0,12
2,note_on,29,34,108
2,note_on,30,0,12
2,note_on,34,50,108
2,note_on,42,50,0
2,note_on,29,0,12
2,note_on,42,0,108
2,note_on,41,53,0
2,note_on,41,0,120
2,note_on,42,61,0
2,note_on,42,0,120
2,note_on,41,55,0
2,note_on,41,0,120
2,note_on,34,0,0
2,note_on,30,36,0
2,note_on,29,32,120
2,note_on,30,0,12
2,note_on,30,38,108
2,note_on,29,0,12
2,note_on,29,34,108
2,note_on,30,0,12
2,note_on,34,63,108
2,note_on,42,63,0
2,note_on,29,0,12
2,note_on,42,0,108
2,note_on,41,53,0
2,note_on,41,0,120
2,note_on,42,61,0
2,note_on,42,0,120
2,note_on,41,55,0
2,note_on,41,0,120
2,note_on,34,0,0
2,note_on,30,46,0
2,note_on,29,32,120
2,note_on,30,0,12
2,note_on,30,38,108
2,note_on,29,0,12
2,note_on,29,34,108
2,note_on,30,0,12
2,note_on,34,63,108
2,note_on,42,63,0
2,note_on,29,0,12
2,note_on,42,0,108
2,note_on,41,53,0
2,note_on,41,0,120
2,note_on,42,61,0
2,note_on,42,0,120
2,note_on,41,55,0
2,note_on,41,0,120
2,note_on,34,0,0
2,note_on,46,35,0
2,note_on,54,39,0
2,note_on,53,34,120
2,note_on,54,0,12
2,note_on,54,40,108
2,note_on,53,0,12
2,note_on,53,36,108
2,note_on,54,0,12
2,note_on,46,0,108
2,note_on,54,39,0
2,note_on,53,0,12
2,note_on,53,34,108
2,note_on,54,0,12
2,note_on,54,40,108
2,note_on,53,0,12
2,note_on,53,36,108
2,note_on,54,0,12
2,note_on,53,0,120
2,note_on,30,48,228
2,note_on,30,0,120
2,note_on,29,43,0
2,note_on,29,0,120
2,note_on,34,60,0
2,note_on,42,60,0
2,note_on,42,0,120
2,note_on,41,51,0
2,note_on,41,0,120
2,note_on,42,59,0
2,note_on,42,0,120
2,note_on,41,53,0
2,note_on,41,0,120
2,note_on,34,0,0
2,note_on,30,46,0
2,note_on,29,41,120
2,note_on,30,0,12
2,note_on,30,48,108
2,note_on,29,0,12
2,note_on,29,43,108
2,note_on,30,0,12
2,note_on,34,60,108
2,note_on,42,60,0
2,note_on,29,0,12
2,note_on,42,0,108
2,note_on,41,51,0
2,note_on,41,0,120
2,note_on,42,59,0
2,note_on,42,0,120
2,note_on,41,53,0
2,note_on,41,0,120
2,note_on,34,0,0
2,note_on,30,46,0
2,note_on,29,41,120
2,note_on,30,0,12
2,note_on,30,48,108
2,note_on,29,0,12
2,note_on,29,43,108
2,note_on,30,0,12
2,note_on,34,60,108
2,note_on,42,60,0
2,note_on,29,0,12
2,note_on,42,0,108
2,note_on,41,51,0
2,note_on,41,0,120
2,note_on,42,59,0
2,note_on,42,0,120
2,note_on,41,53,0
2,note_on,41,0,120
2,note_on,34,0,0
2,note_on,34,35,0
2,note_on,42,39,0
2,note_on,41,34,120
2,note_on,42,0,12
2,note_on,42,40,108
2,note_on,41,0,12
2,note_on,41,36,108
2,note_on,42,0,12
2,note_on,42,39,108
2,note_on,41,0,12
2,note_on,41,34,108
2,note_on,42,0,12
2,note_on,42,40,108
2,note_on,41,0,12
2,note_on,41,36,108
2,note_on,42,0,12
2,note_on,41,0,108
2,note_on,34,0,0
2,note_on,45,39,0
2,note_on,46,34,120
2,note_on,45,0,12
2,note_on,45,40,108
2,note_on,46,0,12
2,note_on,46,36,108
2,note_on,45,0,12
2,note_on,45,39,108
2,note_on,46,0,12
2,note_on,46,34,108
2,note_on,45,0,12
2,note_on,45,40,108
2,note_on,46,0,12
2,note_on,46,36,108
2,note_on,45,0,12
2,note_on,46,0,108
2,note_on,34,35,0
2,note_on,42,39,0
2,note_on,41,34,120
2,note_on,42,0,12
2,note_on,42,39,108
2,note_on,41,0,12
2,note_on,41,35,108
2,note_on,42,0,12
2,note_on,42,37,108
2,note_on,41,0,12
2,note_on,41,32,108
2,note_on,42,0,12
2,note_on,42,38,108
2,note_on,41,0,12
2,note_on,41,34,108
2,note_on,42,0,12
2,note_on,41,0,108
2,note_on,34,0,0
2,note_on,33,36,0
2,note_on,34,31,120
2,note_on,33,0,12
2,note_on,33,36,108
2,note_on,34,0,12
2,note_on,34,32,108
2,note_on,33,0,12
2,note_on,33,35,108
2,note_on,34,0,12
2,note_on,34,30,108
2,note_on,33,0,12
2,note_on,33,35,108
2,note_on,34,0,12
2,note_on,34,31,108
2,note_on,33,0,12
2,note_on,34,0,108
2,note_on,30,33,0
2,note_on,29,29,120
2,note_on,30,0,12
2,note_on,30,34,108
2,note_on,29,0,12
2,note_on,29,30,108
2,note_on,30,0,12
2,note_on,30,32,108
2,note_on,29,0,12
2,note_on,29,28,108
2,note_on,30,0,12
2,note_on,41,32,108
2,note_on,34,32,0
2,note_on,29,0,12
2,note_on,29,29,108
2,note_on,34,0,12
2,note_on,41,0,0
2,note_on,29,0,108
2,note_on,41,32,0
2,note_on,34,31,0
2,note_on,29,27,120
2,note_on,34,0,12
2,note_on,41,0,0
2,note_on,41,32,108
2,note_on,34,32,0
2,note_on,29,0,12
2,note_on,29,28,108
2,note_on,34,0,12
2,note_on,41,0,0
2,note_on,41,32,108
2,note_on,34,31,0
2,note_on,29,0,12
2,note_on,29,27,108
2,note_on,34,0,12
2,note_on,41,0,0
2,note_on,41,32,108
2,note_on,34,32,0
2,note_on,29,0,12
2,note_on,29,28,108
2,note_on,34,0,12
2,note_on,41,0,0
2,note_on,29,0,108
2,note_on,41,27,0
2,note_on,41,0,120
2,note_on,34,23,0
2,note_on,34,0,120
2,note_on,41,27,0
2,note_on,41,0,120
2,note_on,34,24,0
2,note_on,34,0,120
2,note_on,41,44,0
2,note_on,41,0,120
2,note_on,34,49,0
2,note_on,34,0,120
2,note_on,46,55,0
2,note_on,41,55,0
2,note_on,41,0,120
2,note_on,46,0,0
2,note_on,34,60,0
2,note_on,34,0,120
2,note_on,41,66,0
2,note_on,46,66,0
2,note_on,46,0,120
2,note_on,41,0,0
2,note_on,34,70,0
2,note_on,34,0,120
2,note_on,41,75,0
2,note_on,46,75,0
2,note_on,46,0,120
2,note_on,41,0,0
2,note_on,34,81,0
2,note_on,34,0,120
2,note_on,46,81,0
2,note_on,50,81,0
2,note_on,53,81,0
2,note_on,58,97,0
2,note_on,58,0,240
2,note_on,46,0,0
2,note_on,50,0,0
2,note_on,53,0,0
2,note_on,34,76,240
2,note_on,46,92,0
2,note_on,46,0,960
2,note_on,34,0,0
