Track,Message Type,Note,Velocity,Time
1,note_on,67,78,960
1,note_on,64,66,0
1,note_on,59,66,0
1,note_on,55,66,0
1,note_on,55,0,120
1,note_on,67,0,0
1,note_on,64,0,0
1,note_on,59,0,0
1,note_on,55,70,360
1,note_on,59,70,0
1,note_on,64,70,0
1,note_on,67,84,0
1,note_on,67,0,720
1,note_on,66,77,0
1,note_on,66,0,240
1,note_on,64,0,0
1,note_on,59,0,0
1,note_on,55,0,0
1,note_on,64,68,0
1,note_on,55,57,0
1,note_on,55,0,120
1,note_on,64,0,0
1,note_on,57,70,360
1,note_on,66,70,0
1,note_on,69,84,0
1,note_on,69,0,240
1,note_on,66,0,0
1,note_on,57,0,0
1,note_on,69,37,720
1,note_on,66,31,0
1,note_on,66,0,480
1,note_on,69,0,0
1,note_on,66,37,0
1,note_on,69,45,0
1,note_on,69,0,720
1,note_on,66,0,0
1,note_on,67,40,0
1,note_on,67,0,240
1,note_on,69,41,0
1,note_on,66,35,0
1,note_on,66,0,360
1,note_on,69,0,0
1,note_on,71,43,120
1,note_on,67,36,0
1,note_on,67,0,360
1,note_on,71,0,0
1,note_on,71,78,600
1,note_on,67,66,0
1,note_on,62,66,0
1,note_on,59,66,0
1,note_on,59,0,120
1,note_on,71,0,0
1,note_on,67,0,0
1,note_on,62,0,0
1,note_on,62,70,360
1,note_on,59,70,0
1,note_on,67,70,0
1,note_on,71,84,0
1,note_on,71,0,720
1,note_on,69,77,0
1,note_on,69,0,240
1,note_on,67,0,0
1,note_on,59,0,0
1,note_on,62,0,0
1,note_on,67,68,0
1,note_on,59,57,0
1,note_on,59,0,120
1,note_on,67,0,0
1,note_on,61,70,360
1,note_on,70,70,0
1,note_on,73,84,0
1,note_on,73,0,240
1,note_on,70,0,0
1,note_on,61,0,0
1,note_on,73,37,720
1,note_on,70,31,0
1,note_on,70,0,480
1,note_on,73,0,0
1,note_on,70,37,0
1,note_on,73,45,0
1,note_on,73,0,720
1,note_on,70,0,0
1,note_on,71,40,0
1,note_on,71,0,240
1,note_on,73,41,0
1,note_on,70,35,0
1,note_on,70,0,360
1,note_on,73,0,0
1,note_on,74,43,120
1,note_on,71,36,0
1,note_on,71,0,360
1,note_on,74,0,0
1,note_on,74,70,600
1,note_on,74,0,960
1,note_on,79,70,0
1,note_on,79,0,480
1,note_on,76,62,0
1,note_on,76,0,480
1,note_on,74,66,0
1,note_on,74,0,480
1,note_on,72,56,0
1,note_on,72,0,456
1,note_on,72,61,24
1,note_on,72,0,960
1,note_on,81,61,0
1,note_on,81,0,480
1,note_on,72,52,0
1,note_on,72,0,960
1,note_on,71,61,0
1,note_on,71,0,456
1,note_on,71,55,24
1,note_on,71,0,960
1,note_on,67,50,0
1,note_on,67,0,456
1,note_on,67,44,24
1,note_on,67,0,960
1,note_on,64,43,0
1,note_on,64,0,456
1,note_on,64,41,24
1,note_on,64,0,960
1,note_on,55,36,0
1,note_on,55,0,480
1,note_on,52,24,0
1,note_on,52,0,480
1,note_on,51,24,0
1,note_on,59,28,0
1,note_on,59,0,864
1,note_on,51,0,0
1,note_on,76,51,96
1,note_on,88,61,0
1,note_on,88,0,1200
1,note_on,76,0,0
1,note_on,75,45,0
1,note_on,87,53,0
1,note_on,87,0,240
1,note_on,75,0,0
1,note_on,76,48,0
1,note_on,88,57,0
1,note_on,88,0,480
1,note_on,76,0,0
1,note_on,60,51,0
1,note_on,64,51,0
1,note_on,66,61,0
1,note_on,66,0,960
1,note_on,64,0,0
1,note_on,60,0,0
1,note_on,66,66,0
1,note_on,64,56,0
1,note_on,61,56,0
1,note_on,61,0,480
1,note_on,64,0,0
1,note_on,66,0,0
1,note_on,57,60,0
1,note_on,63,60,0
1,note_on,66,71,0
1,note_on,66,0,720
1,note_on,67,51,0
1,note_on,67,0,240
1,note_on,69,56,0
1,note_on,69,0,240
1,note_on,67,43,0
1,note_on,67,0,240
1,note_on,63,0,0
1,note_on,57,0,0
1,note_on,66,47,0
1,note_on,66,0,480
1,note_on,64,39,0
1,note_on,64,0,480
1,note_on,76,51,0
1,note_on,88,61,0
1,note_on,88,0,1200
1,note_on,76,0,0
1,note_on,75,52,0
1,note_on,87,61,0
1,note_on,87,0,240
1,note_on,75,0,0
1,note_on,76,56,0
1,note_on,88,66,0
1,note_on,88,0,480
1,note_on,76,0,0
1,note_on,60,51,0
1,note_on,64,51,0
1,note_on,66,61,0
1,note_on,66,0,960
1,note_on,64,0,0
1,note_on,60,0,0
1,note_on,66,52,0
1,note_on,64,44,0
1,note_on,61,44,0
1,note_on,61,0,480
1,note_on,64,0,0
1,note_on,66,0,0
1,note_on,57,46,0
1,note_on,63,46,0
1,note_on,66,55,0
1,note_on,66,0,720
1,note_on,69,38,0
1,note_on,69,0,240
1,note_on,67,41,0
1,note_on,67,0,240
1,note_on,66,32,0
1,note_on,66,0,240
1,note_on,63,0,0
1,note_on,57,0,0
1,note_on,55,30,0
1,note_on,64,36,0
1,note_on,64,0,480
1,note_on,55,0,0
1,note_on,59,30,480
1,note_on,71,36,0
1,note_on,71,0,120
1,note_on,59,0,0
1,note_on,71,41,360
1,note_on,59,34,0
1,note_on,59,0,960
1,note_on,71,0,0
1,note_on,64,30,0
1,note_on,76,36,0
1,note_on,76,0,120
1,note_on,64,0,0
1,note_on,76,42,360
1,note_on,64,35,0
1,note_on,64,0,960
1,note_on,76,0,0
1,note_on,71,30,0
1,note_on,83,36,0
1,note_on,83,0,120
1,note_on,71,0,0
1,note_on,83,40,360
1,note_on,71,34,0
1,note_on,71,0,960
1,note_on,83,0,0
1,note_on,88,36,0
1,note_on,76,30,0
1,note_on,76,0,120
1,note_on,88,0,0
1,note_on,76,34,360
1,note_on,88,41,0
1,note_on,88,0,960
1,note_on,76,0,0
1,note_on,77,70,0
1,note_on,83,70,0
1,note_on,86,70,0
1,note_on,89,82,0
1,note_on,89,0,120
1,note_on,77,0,0
1,note_on,83,0,0
1,note_on,86,0,0
1,note_on,77,76,360
1,note_on,83,76,0
1,note_on,86,76,0
1,note_on,89,90,0
1,note_on,89,0,720
1,note_on,77,0,0
1,note_on,83,0,0
1,note_on,86,0,0
1,note_on,88,70,0
1,note_on,86,69,120
1,note_on,88,0,12
1,note_on,84,68,108
1,note_on,86,0,12
1,note_on,83,68,108
1,note_on,84,0,12
1,note_on,81,68,108
1,note_on,83,0,12
1,note_on,79,66,108
1,note_on,81,0,12
1,note_on,77,64,108
1,note_on,79,0,12
1,note_on,76,64,108
1,note_on,77,0,12
1,note_on,74,64,108
1,note_on,76,0,12
1,note_on,72,64,108
1,note_on,74,0,12
1,note_on,71,63,108
1,note_on,72,0,12
1,note_on,69,63,68
1,note_on,71,0,8
1,note_on,67,63,72
1,note_on,69,0,8
1,note_on,65,63,72
1,note_on,67,0,8
1,note_on,64,63,72
1,note_on,65,0,8
1,note_on,62,63,72
1,note_on,64,0,8
1,note_on,60,63,72
1,note_on,62,0,8
1,note_on,59,63,88
1,note_on,60,0,10
1,note_on,57,63,86
1,note_on,59,0,10
1,note_on,55,62,86
1,note_on,57,0,10
1,note_on,54,62,86
1,note_on,55,0,10
1,note_on,55,89,86
1,note_on,54,0,10
1,note_on,55,0,230
1,note_on,65,40,720
1,note_on,62,34,0
1,note_on,55,34,0
1,note_on,55,0,120
1,note_on,62,0,0
1,note_on,65,0,0
1,note_on,64,45,360
1,note_on,60,38,0
1,note_on,55,38,0
1,note_on,55,0,240
1,note_on,60,0,0
1,note_on,64,0,0
1,note_on,74,76,720
1,note_on,80,76,0
1,note_on,83,76,0
1,note_on,86,90,0
1,note_on,86,0,120
1,note_on,74,0,0
1,note_on,80,0,0
1,note_on,83,0,0
1,note_on,74,84,360
1,note_on,80,84,0
1,note_on,83,84,0
1,note_on,86,98,0
1,note_on,86,0,720
1,note_on,74,0,0
1,note_on,80,0,0
1,note_on,83,0,0
1,note_on,84,70,0
1,note_on,83,69,120
1,note_on,84,0,12
1,note_on,81,68,108
1,note_on,83,0,12
1,note_on,80,68,108
1,note_on,81,0,12
1,note_on,78,68,108
1,note_on,80,0,12
1,note_on,76,66,108
1,note_on,78,0,12
1,note_on,74,64,108
1,note_on,76,0,12
1,note_on,72,64,108
1,note_on,74,0,12
1,note_on,71,64,108
1,note_on,72,0,12
1,note_on,69,64,108
1,note_on,71,0,12
1,note_on,68,63,108
1,note_on,69,0,12
1,note_on,66,63,68
1,note_on,68,0,8
1,note_on,64,63,72
1,note_on,66,0,8
1,note_on,62,63,72
1,note_on,64,0,8
1,note_on,60,63,72
1,note_on,62,0,8
1,note_on,59,63,72
1,note_on,60,0,8
1,note_on,57,63,72
1,note_on,59,0,8
1,note_on,56,63,88
1,note_on,57,0,10
1,note_on,54,63,86
1,note_on,56,0,10
1,note_on,52,62,86
1,note_on,54,0,10
1,note_on,51,62,86
1,note_on,52,0,10
1,note_on,52,89,86
1,note_on,51,0,10
1,note_on,52,0,470
1,note_on,62,40,480
1,note_on,59,34,0
1,note_on,52,34,0
1,note_on,52,0,120
1,note_on,59,0,0
1,note_on,62,0,0
1,note_on,60,45,360
1,note_on,57,38,0
1,note_on,52,38,0
1,note_on,52,0,240
1,note_on,57,0,0
1,note_on,60,0,0
1,note_on,82,57,720
1,note_on,82,0,450
1,note_on,82,60,30
1,note_on,82,0,720
1,note_on,81,53,0
1,note_on,79,53,120
1,note_on,81,0,12
1,note_on,77,51,108
1,note_on,79,0,12
1,note_on,75,51,108
1,note_on,77,0,12
1,note_on,74,51,108
1,note_on,75,0,12
1,note_on,72,51,108
1,note_on,74,0,12
1,note_on,70,51,108
1,note_on,72,0,12
1,note_on,69,50,108
1,note_on,70,0,12
1,note_on,67,49,108
1,note_on,69,0,12
1,note_on,65,49,108
1,note_on,67,0,12
1,note_on,63,53,108
1,note_on,65,0,12
1,note_on,62,49,148
1,note_on,63,0,16
1,note_on,60,44,144
1,note_on,62,0,16
1,note_on,58,53,144
1,note_on,60,0,16
1,note_on,58,0,454
1,note_on,58,53,10
1,note_on,58,0,2400
1,note_on,67,53,0
1,note_on,67,0,432
1,note_on,67,59,48
1,note_on,67,0,960
1,note_on,67,53,0
1,note_on,73,63,0
1,note_on,73,0,432
1,note_on,67,0,0
1,note_on,73,68,48
1,note_on,67,57,0
1,note_on,67,0,960
1,note_on,73,0,0
1,note_on,73,58,0
1,note_on,76,58,0
1,note_on,79,69,0
1,note_on,79,0,432
1,note_on,76,0,0
1,note_on,73,0,0
1,note_on,73,66,48
1,note_on,76,66,0
1,note_on,79,78,0
1,note_on,79,0,960
1,note_on,78,80,0
1,note_on,78,0,480
1,note_on,77,84,0
1,note_on,77,0,960
1,note_on,76,0,0
1,note_on,73,0,0
1,note_on,78,82,0
1,note_on,76,69,0
1,note_on,73,69,0
1,note_on,73,0,432
1,note_on,76,0,0
1,note_on,78,0,0
1,note_on,71,80,48
1,note_on,74,80,0
1,note_on,78,95,0
1,note_on,78,0,1440
1,note_on,74,0,0
1,note_on,71,0,0
1,note_on,71,80,0
1,note_on,78,80,0
1,note_on,83,94,0
1,note_on,83,0,1440
1,note_on,78,0,0
1,note_on,71,0,0
1,note_on,66,41,0
1,note_on,71,49,0
1,note_on,71,0,120
1,note_on,66,0,0
1,note_on,72,59,360
1,note_on,60,49,0
1,note_on,60,0,120
1,note_on,72,0,0
1,note_on,72,56,840
1,note_on,67,47,0
1,note_on,67,0,120
1,note_on,72,0,0
1,note_on,75,59,360
1,note_on,63,49,0
1,note_on,63,0,120
1,note_on,75,0,0
1,note_on,75,57,840
1,note_on,69,48,0
1,note_on,69,0,120
1,note_on,75,0,0
1,note_on,76,63,360
1,note_on,64,53,0
1,note_on,64,0,120
1,note_on,76,0,0
1,note_on,76,60,840
1,note_on,71,50,0
1,note_on,71,0,120
1,note_on,76,0,0
1,note_on,77,64,360
1,note_on,65,55,0
1,note_on,65,0,120
1,note_on,77,0,0
1,note_on,68,39,840
1,note_on,71,39,0
1,note_on,76,46,0
1,note_on,76,0,120
1,note_on,71,0,0
1,note_on,68,0,0
1,note_on,77,38,120
1,note_on,71,32,0
1,note_on,68,32,0
1,note_on,68,0,120
1,note_on,71,0,0
1,note_on,77,0,0
1,note_on,77,38,120
1,note_on,71,32,0
1,note_on,68,32,0
1,note_on,68,0,120
1,note_on,71,0,0
1,note_on,77,0,0
1,note_on,77,38,120
1,note_on,71,32,0
1,note_on,68,32,0
1,note_on,68,0,120
1,note_on,71,0,0
1,note_on,77,0,0
1,note_on,77,38,120
1,note_on,71,32,0
1,note_on,68,32,0
1,note_on,68,0,120
1,note_on,71,0,0
1,note_on,77,0,0
1,note_on,77,38,120
1,note_on,71,32,0
1,note_on,68,32,0
1,note_on,68,0,120
1,note_on,71,0,0
1,note_on,77,0,0
1,note_on,68,39,120
1,note_on,71,39,0
1,note_on,77,46,0
1,note_on,77,0,120
1,note_on,71,0,0
1,note_on,68,0,0
1,note_on,77,52,120
1,note_on,71,44,0
1,note_on,68,44,0
1,note_on,68,0,120
1,note_on,71,0,0
1,note_on,77,0,0
1,note_on,77,58,120
1,note_on,71,48,0
1,note_on,68,48,0
1,note_on,68,0,120
1,note_on,71,0,0
1,note_on,77,0,0
1,note_on,77,63,120
1,note_on,71,53,0
1,note_on,68,53,0
1,note_on,68,0,120
1,note_on,71,0,0
1,note_on,77,0,0
1,note_on,77,69,120
1,note_on,71,59,0
1,note_on,68,59,0
1,note_on,68,0,120
1,note_on,71,0,0
1,note_on,77,0,0
1,note_on,77,75,120
1,note_on,71,63,0
1,note_on,68,63,0
1,note_on,68,0,120
1,note_on,71,0,0
1,note_on,77,0,0
1,note_on,78,77,120
1,note_on,82,77,0
1,note_on,85,77,0
1,note_on,88,91,0
1,note_on,90,91,0
1,note_on,90,0,120
1,note_on,85,0,0
1,note_on,78,0,0
1,note_on,82,0,0
1,note_on,88,0,0
1,note_on,79,70,120
1,note_on,82,70,0
1,note_on,85,70,0
1,note_on,88,83,0
1,note_on,91,83,0
1,note_on,91,0,120
1,note_on,85,0,0
1,note_on,79,0,0
1,note_on,82,0,0
1,note_on,88,0,0
1,note_on,79,70,120
1,note_on,82,70,0
1,note_on,85,70,0
1,note_on,88,83,0
1,note_on,91,83,0
1,note_on,91,0,120
1,note_on,85,0,0
1,note_on,79,0,0
1,note_on,82,0,0
1,note_on,88,0,0
1,note_on,79,70,120
1,note_on,82,70,0
1,note_on,85,70,0
1,note_on,88,83,0
1,note_on,91,83,0
1,note_on,91,0,120
1,note_on,85,0,0
1,note_on,79,0,0
1,note_on,82,0,0
1,note_on,88,0,0
1,note_on,79,70,120
1,note_on,82,70,0
1,note_on,85,70,0
1,note_on,88,83,0
1,note_on,91,83,0
1,note_on,91,0,120
1,note_on,85,0,0
1,note_on,79,0,0
1,note_on,82,0,0
1,note_on,88,0,0
1,note_on,79,70,120
1,note_on,82,70,0
1,note_on,85,70,0
1,note_on,88,83,0
1,note_on,91,83,0
1,note_on,91,0,120
1,note_on,85,0,0
1,note_on,79,0,0
1,note_on,82,0,0
1,note_on,88,0,0
1,note_on,79,71,120
1,note_on,82,71,0
1,note_on,85,71,0
1,note_on,88,85,0
1,note_on,91,85,0
1,note_on,91,0,120
1,note_on,85,0,0
1,note_on,79,0,0
1,note_on,82,0,0
1,note_on,88,0,0
1,note_on,79,65,120
1,note_on,82,65,0
1,note_on,85,65,0
1,note_on,88,77,0
1,note_on,91,77,0
1,note_on,91,0,120
1,note_on,85,0,0
1,note_on,79,0,0
1,note_on,82,0,0
1,note_on,88,0,0
1,note_on,79,63,120
1,note_on,82,63,0
1,note_on,85,63,0
1,note_on,88,74,0
1,note_on,91,74,0
1,note_on,91,0,120
1,note_on,85,0,0
1,note_on,79,0,0
1,note_on,82,0,0
1,note_on,88,0,0
1,note_on,79,57,120
1,note_on,82,57,0
1,note_on,85,57,0
1,note_on,88,67,0
1,note_on,91,67,0
1,note_on,91,0,120
1,note_on,85,0,0
1,note_on,79,0,0
1,note_on,82,0,0
1,note_on,88,0,0
1,note_on,79,51,120
1,note_on,82,51,0
1,note_on,85,51,0
1,note_on,88,60,0
1,note_on,91,60,0
1,note_on,91,0,120
1,note_on,85,0,0
1,note_on,79,0,0
1,note_on,82,0,0
1,note_on,88,0,0
1,note_on,79,47,120
1,note_on,82,47,0
1,note_on,85,47,0
1,note_on,88,56,0
1,note_on,91,56,0
1,note_on,91,0,120
1,note_on,85,0,0
1,note_on,79,0,0
1,note_on,82,0,0
1,note_on,88,0,0
1,note_on,91,56,120
1,note_on,79,56,0
1,note_on,79,0,480
1,note_on,91,0,0
1,note_on,90,56,0
1,note_on,78,56,0
1,note_on,78,0,1440
1,note_on,90,0,0
1,note_on,71,56,0
1,note_on,83,56,0
1,note_on,83,0,1440
1,note_on,71,0,0
1,note_on,66,56,0
1,note_on,78,56,0
1,note_on,78,0,1440
1,note_on,66,0,0
1,note_on,59,56,0
1,note_on,71,56,0
1,note_on,59,0,960
1,note_on,71,0,480
1,note_on,67,63,0
1,note_on,67,0,480
1,note_on,66,57,0
1,note_on,66,0,470
1,note_on,66,65,10
1,note_on,66,0,960
1,note_on,70,58,0
1,note_on,70,0,480
1,note_on,71,56,0
1,note_on,71,0,240
1,note_on,79,68,0
1,note_on,79,0,240
1,note_on,91,74,0
1,note_on,91,0,720
1,note_on,90,56,0
1,note_on,90,0,240
1,note_on,90,69,240
1,note_on,90,0,240
1,note_on,85,66,0
1,note_on,85,0,720
1,note_on,83,51,0
1,note_on,83,0,240
1,note_on,83,73,240
1,note_on,83,0,240
1,note_on,79,70,0
1,note_on,79,0,720
1,note_on,78,53,0
1,note_on,78,0,240
1,note_on,78,70,240
1,note_on,78,0,240
1,note_on,73,65,0
1,note_on,73,0,720
1,note_on,71,56,0
1,note_on,71,0,230
1,note_on,71,63,10
1,note_on,71,0,480
1,note_on,67,63,0
1,note_on,67,0,480
1,note_on,66,65,0
1,note_on,66,0,470
1,note_on,66,71,10
1,note_on,66,0,240
1,note_on,62,65,0
1,note_on,62,0,240
1,note_on,59,71,0
1,note_on,59,0,240
1,note_on,55,65,0
1,note_on,55,0,240
1,note_on,54,70,0
1,note_on,54,0,240
1,note_on,58,76,0
1,note_on,58,0,240
1,note_on,59,80,0
1,note_on,59,0,480
1,note_on,59,79,960
1,note_on,55,67,0
1,note_on,55,0,1440
1,note_on,59,0,0
1,note_on,60,34,0
1,note_on,55,28,0
1,note_on,60,0,960
1,note_on,67,39,0
1,note_on,55,0,480
1,note_on,64,27,0
1,note_on,58,27,0
1,note_on,61,27,0
1,note_on,67,0,960
1,note_on,66,33,0
1,note_on,66,0,470
1,note_on,61,0,10
1,note_on,58,0,0
1,note_on,64,0,0
1,note_on,66,40,0
1,note_on,62,34,0
1,note_on,59,34,0
1,note_on,59,0,480
1,note_on,62,0,0
1,note_on,66,0,0
1,note_on,59,79,960
1,note_on,55,67,0
1,note_on,55,0,1440
1,note_on,59,0,0
1,note_on,60,34,0
1,note_on,55,28,0
1,note_on,60,0,960
1,note_on,67,39,0
1,note_on,55,0,480
1,note_on,64,27,0
1,note_on,58,27,0
1,note_on,61,27,0
1,note_on,67,0,960
1,note_on,66,33,0
1,note_on,66,0,470
1,note_on,61,0,10
1,note_on,58,0,0
1,note_on,64,0,0
1,note_on,67,39,987
1,note_on,59,24,453
1,note_on,62,24,0
1,note_on,67,0,987
1,note_on,66,33,0
1,note_on,62,0,453
1,note_on,59,0,0
1,note_on,66,0,27
1,note_on,67,39,960
1,note_on,61,24,453
1,note_on,64,24,0
1,note_on,70,33,960
1,note_on,67,0,27
1,note_on,61,0,453
1,note_on,64,0,0
1,note_on,70,0,0
1,note_on,59,28,0
1,note_on,62,28,0
1,note_on,71,33,0
1,note_on,71,0,480
1,note_on,62,0,0
1,note_on,59,0,0
1,note_on,59,28,960
1,note_on,62,28,0
1,note_on,71,33,0
1,note_on,71,0,480
1,note_on,62,0,0
1,note_on,59,0,0
1,note_on,59,28,960
1,note_on,62,28,0
1,note_on,71,33,0
1,note_on,71,0,480
1,note_on,62,0,0
1,note_on,59,0,0
1,note_on,71,33,960
1,note_on,71,0,1430
1,note_on,71,33,10
1,note_on,71,0,1430
1,note_on,71,33,10
1,note_on,71,0,950
1,note_on,81,42,10
1,note_on,71,34,0
1,note_on,71,0,120
1,note_on,81,0,0
1,note_on,71,33,120
1,note_on,71,0,120
1,note_on,71,34,120
1,note_on,81,46,0
1,note_on,71,0,120
1,note_on,71,30,120
1,note_on,71,0,120
1,note_on,71,30,120
1,note_on,71,0,120
1,note_on,81,0,120
1,note_on,71,30,0
1,note_on,79,42,0
1,note_on,71,0,120
1,note_on,79,0,120
1,note_on,71,30,0
1,note_on,78,37,0
1,note_on,78,0,120
1,note_on,71,0,0
1,note_on,71,30,120
1,note_on,71,0,120
1,note_on,71,34,120
1,note_on,83,46,0
1,note_on,79,46,0
1,note_on,71,0,120
1,note_on,79,0,120
1,note_on,83,0,0
1,note_on,71,30,0
1,note_on,71,0,120
1,note_on,71,30,120
1,note_on,71,0,120
1,note_on,71,30,120
1,note_on,71,0,120
1,note_on,71,30,120
1,note_on,83,40,0
1,note_on,79,22,0
1,note_on,71,0,120
1,note_on,71,30,120
1,note_on,71,0,120
1,note_on,79,0,120
1,note_on,83,0,0
1,note_on,71,34,0
1,note_on,83,46,0
1,note_on,80,27,0
1,note_on,71,0,120
1,note_on,71,30,120
1,note_on,71,0,120
1,note_on,71,30,120
1,note_on,71,0,120
1,note_on,80,0,120
1,note_on,83,0,0
1,note_on,71,30,0
1,note_on,81,40,0
1,note_on,71,0,120
1,note_on,81,0,120
1,note_on,71,30,0
1,note_on,83,37,0
1,note_on,80,24,0
1,note_on,71,0,120
1,note_on,80,0,120
1,note_on,83,0,0
1,note_on,71,30,0
1,note_on,71,0,120
1,note_on,72,34,120
1,note_on,81,46,0
1,note_on,84,25,0
1,note_on,84,0,480
1,note_on,81,0,0
1,note_on,72,0,0
1,note_on,72,48,480
1,note_on,84,48,0
1,note_on,84,0,120
1,note_on,72,0,0
1,note_on,72,54,360
1,note_on,84,54,0
1,note_on,84,0,720
1,note_on,72,0,0
1,note_on,71,54,0
1,note_on,83,54,0
1,note_on,83,0,240
1,note_on,71,0,0
1,note_on,69,48,0
1,note_on,81,48,0
1,note_on,81,0,120
1,note_on,69,0,0
1,note_on,86,64,360
1,note_on,74,64,0
1,note_on,74,0,240
1,note_on,86,0,0
1,note_on,74,64,720
1,note_on,86,64,0
1,note_on,86,0,120
1,note_on,74,0,0
1,note_on,74,73,360
1,note_on,86,73,0
1,note_on,86,0,720
1,note_on,74,0,0
1,note_on,72,69,0
1,note_on,84,69,0
1,note_on,84,0,240
1,note_on,72,0,0
1,note_on,74,64,0
1,note_on,86,64,0
1,note_on,86,0,120
1,note_on,74,0,0
1,note_on,75,81,360
1,note_on,87,97,0
1,note_on,87,0,720
1,note_on,75,0,0
1,note_on,74,62,0
1,note_on,86,74,0
1,note_on,86,0,240
1,note_on,74,0,0
1,note_on,87,84,0
1,note_on,75,71,0
1,note_on,75,0,240
1,note_on,87,0,0
1,note_on,63,89,240
1,note_on,63,0,720
1,note_on,62,62,0
1,note_on,62,0,240
1,note_on,63,71,0
1,note_on,63,0,240
1,note_on,63,75,240
1,note_on,66,90,6
1,note_on,63,0,714
1,note_on,65,63,0
1,note_on,62,53,0
1,note_on,66,0,6
1,note_on,62,0,234
1,note_on,65,0,0
1,note_on,66,73,0
1,note_on,63,62,0
1,note_on,63,0,240
1,note_on,66,0,0
1,note_on,78,92,240
1,note_on,75,78,0
1,note_on,75,0,720
1,note_on,78,0,0
1,note_on,77,65,0
1,note_on,74,55,0
1,note_on,74,0,240
1,note_on,77,0,0
1,note_on,78,75,0
1,note_on,75,63,0
1,note_on,75,0,240
1,note_on,78,0,0
1,note_on,84,94,240
1,note_on,72,79,0
1,note_on,72,0,720
1,note_on,84,0,0
1,note_on,83,66,0
1,note_on,71,56,0
1,note_on,71,0,240
1,note_on,83,0,0
1,note_on,84,77,0
1,note_on,72,65,0
1,note_on,72,0,240
1,note_on,84,0,0
1,note_on,57,97,240
1,note_on,57,0,720
1,note_on,56,68,0
1,note_on,56,0,240
1,note_on,57,78,0
1,note_on,57,0,240
1,note_on,90,99,240
1,note_on,78,82,0
1,note_on,78,0,720
1,note_on,90,0,0
1,note_on,89,70,0
1,note_on,77,58,0
1,note_on,77,0,240
1,note_on,89,0,0
1,note_on,90,80,0
1,note_on,78,68,0
1,note_on,78,0,240
1,note_on,90,0,0
1,note_on,66,71,240
1,note_on,72,85,0
1,note_on,69,71,0
1,note_on,69,0,720
1,note_on,72,0,0
1,note_on,66,0,0
1,note_on,66,59,0
1,note_on,71,71,0
1,note_on,69,59,0
1,note_on,69,0,240
1,note_on,71,0,0
1,note_on,66,0,0
1,note_on,66,69,0
1,note_on,72,81,0
1,note_on,69,69,0
1,note_on,69,0,240
1,note_on,72,0,0
1,note_on,66,0,0
1,note_on,71,93,240
1,note_on,68,80,0
1,note_on,65,80,0
1,note_on,65,0,480
1,note_on,68,0,0
1,note_on,71,0,0
1,note_on,69,32,240
1,note_on,71,32,0
1,note_on,77,45,0
1,note_on,77,0,120
1,note_on,71,0,0
1,note_on,69,0,0
1,note_on,67,32,120
1,note_on,72,32,0
1,note_on,76,45,0
1,note_on,76,0,120
1,note_on,72,0,0
1,note_on,67,0,0
1,note_on,75,52,360
1,note_on,69,37,0
1,note_on,66,37,0
1,note_on,66,0,480
1,note_on,69,0,0
1,note_on,75,0,0
1,note_on,66,32,240
1,note_on,69,32,0
1,note_on,75,45,0
1,note_on,75,0,120
1,note_on,69,0,0
1,note_on,66,0,0
1,note_on,65,32,120
1,note_on,71,32,0
1,note_on,74,45,0
1,note_on,74,0,120
1,note_on,71,0,0
1,note_on,65,0,0
1,note_on,73,50,360
1,note_on,67,35,0
1,note_on,64,35,0
1,note_on,64,0,480
1,note_on,67,0,0
1,note_on,73,0,0
1,note_on,63,32,240
1,note_on,67,32,0
1,note_on,72,45,0
1,note_on,72,0,120
1,note_on,67,0,0
1,note_on,63,0,0
1,note_on,62,32,120
1,note_on,67,32,0
1,note_on,71,45,0
1,note_on,71,0,120
1,note_on,67,0,0
1,note_on,62,0,0
1,note_on,61,42,360
1,note_on,64,42,0
1,note_on,70,50,0
1,note_on,70,0,120
1,note_on,64,0,0
1,note_on,61,0,0
1,note_on,60,42,360
1,note_on,64,42,0
1,note_on,69,50,0
1,note_on,69,0,120
1,note_on,64,0,0
1,note_on,60,0,0
1,note_on,60,42,360
1,note_on,63,42,0
1,note_on,68,50,0
1,note_on,68,0,120
1,note_on,63,0,0
1,note_on,60,0,0
1,note_on,67,54,360
1,note_on,67,0,120
1,note_on,66,55,360
1,note_on,66,0,120
1,note_on,65,58,360
1,note_on,65,0,120
1,note_on,64,60,360
1,note_on,64,0,120
1,note_on,63,60,360
1,note_on,63,0,120
1,note_on,62,60,360
1,note_on,62,0,120
1,note_on,61,60,360
1,note_on,61,0,120
1,note_on,60,64,360
1,note_on,60,0,120
1,note_on,59,68,360
1,note_on,59,0,120
1,note_on,58,63,360
1,note_on,58,0,120
1,note_on,57,50,360
1,note_on,57,0,120
1,note_on,56,46,360
1,note_on,56,0,120
1,note_on,56,42,360
1,note_on,56,0,240
1,note_on,55,33,0
1,note_on,55,0,240
1,note_on,67,43,0
1,note_on,67,0,1910
1,note_on,67,43,10
1,note_on,67,0,960
1,note_on,72,48,0
1,note_on,72,0,480
1,note_on,69,43,0
1,note_on,69,0,480
1,note_on,67,47,0
1,note_on,67,0,480
1,note_on,65,43,0
1,note_on,65,0,470
1,note_on,65,45,10
1,note_on,65,0,960
1,note_on,74,52,0
1,note_on,74,0,480
1,note_on,65,46,0
1,note_on,65,0,960
1,note_on,64,43,0
1,note_on,64,0,450
1,note_on,64,36,30
1,note_on,64,0,120
1,note_on,67,31,0
1,note_on,67,0,120
1,note_on,72,32,0
1,note_on,72,0,120
1,note_on,76,31,0
1,note_on,76,0,120
1,note_on,77,39,0
1,note_on,77,0,120
1,note_on,72,38,0
1,note_on,72,0,120
1,note_on,69,41,0
1,note_on,69,0,120
1,note_on,65,47,0
1,note_on,65,0,120
1,note_on,69,52,0
1,note_on,69,0,120
1,note_on,72,41,0
1,note_on,72,0,120
1,note_on,77,37,0
1,note_on,77,0,120
1,note_on,81,35,0
1,note_on,81,0,110
1,note_on,81,38,10
1,note_on,81,0,120
1,note_on,74,32,0
1,note_on,74,0,120
1,note_on,81,35,0
1,note_on,81,0,120
1,note_on,86,35,0
1,note_on,86,0,120
1,note_on,81,39,0
1,note_on,81,0,120
1,note_on,74,34,0
1,note_on,74,0,120
1,note_on,81,41,0
1,note_on,81,0,120
1,note_on,82,48,0
1,note_on,82,0,120
1,note_on,79,52,0
1,note_on,79,0,120
1,note_on,74,41,0
1,note_on,74,0,120
1,note_on,79,37,0
1,note_on,79,0,120
1,note_on,82,34,0
1,note_on,82,0,120
1,note_on,79,38,0
1,note_on,79,0,120
1,note_on,73,32,0
1,note_on,73,0,120
1,note_on,79,35,0
1,note_on,79,0,120
1,note_on,82,35,0
1,note_on,82,0,120
1,note_on,79,39,0
1,note_on,79,0,120
1,note_on,72,38,0
1,note_on,72,0,120
1,note_on,79,40,0
1,note_on,79,0,120
1,note_on,82,47,0
1,note_on,82,0,120
1,note_on,76,54,0
1,note_on,76,0,120
1,note_on,72,47,0
1,note_on,72,0,120
1,note_on,76,45,0
1,note_on,76,0,120
1,note_on,79,39,0
1,note_on,79,0,110
1,note_on,79,38,10
1,note_on,79,0,120
1,note_on,76,32,0
1,note_on,76,0,120
1,note_on,79,35,0
1,note_on,79,0,120
1,note_on,84,35,0
1,note_on,84,0,120
1,note_on,79,39,0
1,note_on,79,0,120
1,note_on,76,35,0
1,note_on,76,0,120
1,note_on,79,36,0
1,note_on,79,0,120
1,note_on,84,41,0
1,note_on,84,0,120
1,note_on,81,46,0
1,note_on,81,0,120
1,note_on,77,32,0
1,note_on,77,0,120
1,note_on,81,32,0
1,note_on,81,0,120
1,note_on,84,32,0
1,note_on,84,0,120
1,note_on,81,38,0
1,note_on,81,0,120
1,note_on,77,32,0
1,note_on,77,0,120
1,note_on,81,35,0
1,note_on,81,0,120
1,note_on,84,35,0
1,note_on,84,0,120
1,note_on,81,46,0
1,note_on,81,0,120
1,note_on,77,37,0
1,note_on,77,0,120
1,note_on,81,38,0
1,note_on,81,0,120
1,note_on,86,37,0
1,note_on,86,0,120
1,note_on,81,45,0
1,note_on,81,0,120
1,note_on,77,38,0
1,note_on,77,0,120
1,note_on,81,38,0
1,note_on,81,0,120
1,note_on,86,38,0
1,note_on,86,0,120
1,note_on,82,45,0
1,note_on,82,0,120
1,note_on,77,39,0
1,note_on,77,0,120
1,note_on,82,43,0
1,note_on,82,0,120
1,note_on,86,43,0
1,note_on,86,0,120
1,note_on,83,47,0
1,note_on,83,0,120
1,note_on,77,38,0
1,note_on,77,0,120
1,note_on,83,39,0
1,note_on,83,0,120
1,note_on,86,38,0
1,note_on,86,0,120
1,note_on,83,47,0
1,note_on,83,0,120
1,note_on,76,39,0
1,note_on,76,0,120
1,note_on,83,40,0
1,note_on,83,0,120
1,note_on,86,40,0
1,note_on,86,0,120
1,note_on,83,47,0
1,note_on,83,0,120
1,note_on,76,40,0
1,note_on,76,0,120
1,note_on,83,45,0
1,note_on,83,0,120
1,note_on,86,45,0
1,note_on,86,0,120
1,note_on,83,50,0
1,note_on,83,0,120
1,note_on,76,40,0
1,note_on,76,0,120
1,note_on,83,42,0
1,note_on,83,0,120
1,note_on,86,41,0
1,note_on,86,0,120
1,note_on,83,50,0
1,note_on,83,0,120
1,note_on,76,42,0
1,note_on,76,0,120
1,note_on,83,42,0
1,note_on,83,0,120
1,note_on,86,42,0
1,note_on,86,0,120
1,note_on,83,50,0
1,note_on,83,0,120
1,note_on,76,43,0
1,note_on,76,0,120
1,note_on,83,47,0
1,note_on,83,0,120
1,note_on,86,48,0
1,note_on,86,0,120
1,note_on,83,53,0
1,note_on,83,0,120
1,note_on,76,44,0
1,note_on,76,0,120
1,note_on,83,51,0
1,note_on,83,0,120
1,note_on,84,55,0
1,note_on,84,0,120
1,note_on,81,52,0
1,note_on,81,0,120
1,note_on,76,50,0
1,note_on,76,0,120
1,note_on,81,48,0
1,note_on,81,0,120
1,note_on,84,47,0
1,note_on,84,0,120
1,note_on,81,54,0
1,note_on,81,0,120
1,note_on,76,45,0
1,note_on,76,0,120
1,note_on,81,50,0
1,note_on,81,0,120
1,note_on,84,48,0
1,note_on,84,0,120
1,note_on,81,56,0
1,note_on,81,0,120
1,note_on,74,48,0
1,note_on,74,0,120
1,note_on,81,55,0
1,note_on,81,0,120
1,note_on,83,56,0
1,note_on,83,0,120
1,note_on,80,59,0
1,note_on,80,0,120
1,note_on,74,52,0
1,note_on,74,0,120
1,note_on,80,51,0
1,note_on,80,0,120
1,note_on,83,48,0
1,note_on,83,0,120
1,note_on,80,56,0
1,note_on,80,0,120
1,note_on,74,48,0
1,note_on,74,0,120
1,note_on,80,54,0
1,note_on,80,0,120
1,note_on,83,51,0
1,note_on,83,0,120
1,note_on,80,59,0
1,note_on,80,0,120
1,note_on,72,56,0
1,note_on,72,0,120
1,note_on,80,58,0
1,note_on,80,0,120
1,note_on,83,60,0
1,note_on,83,0,120
1,note_on,80,61,0
1,note_on,80,0,120
1,note_on,81,54,0
1,note_on,81,0,120
1,note_on,72,50,0
1,note_on,72,0,120
1,note_on,81,50,0
1,note_on,81,0,120
1,note_on,80,59,0
1,note_on,80,0,120
1,note_on,81,50,0
1,note_on,81,0,120
1,note_on,72,56,0
1,note_on,72,0,120
1,note_on,81,53,0
1,note_on,81,0,110
1,note_on,81,62,10
1,note_on,81,0,120
1,note_on,71,52,0
1,note_on,71,0,120
1,note_on,81,53,0
1,note_on,81,0,120
1,note_on,83,55,0
1,note_on,83,0,120
1,note_on,81,60,0
1,note_on,81,0,120
1,note_on,71,56,0
1,note_on,71,0,120
1,note_on,81,49,0
1,note_on,81,0,120
1,note_on,83,49,0
1,note_on,83,0,120
1,note_on,81,63,0
1,note_on,81,0,120
1,note_on,71,53,0
1,note_on,71,0,120
1,note_on,81,58,0
1,note_on,81,0,120
1,note_on,83,58,0
1,note_on,83,0,120
1,note_on,81,65,0
1,note_on,81,0,120
1,note_on,71,54,0
1,note_on,71,0,120
1,note_on,81,58,0
1,note_on,81,0,120
1,note_on,83,60,0
1,note_on,83,0,120
1,note_on,81,62,0
1,note_on,81,0,120
1,note_on,71,60,0
1,note_on,71,0,120
1,note_on,81,56,0
1,note_on,81,0,120
1,note_on,83,54,0
1,note_on,83,0,120
1,note_on,81,64,0
1,note_on,81,0,120
1,note_on,71,56,0
1,note_on,71,0,120
1,note_on,81,62,0
1,note_on,81,0,120
1,note_on,83,58,0
1,note_on,83,0,120
1,note_on,81,68,0
1,note_on,81,0,120
1,note_on,71,59,0
1,note_on,71,0,120
1,note_on,81,62,0
1,note_on,81,0,120
1,note_on,83,64,0
1,note_on,83,0,120
1,note_on,81,67,0
1,note_on,81,0,120
1,note_on,71,64,0
1,note_on,71,0,120
1,note_on,81,62,0
1,note_on,81,0,120
1,note_on,83,62,0
1,note_on,83,0,120
1,note_on,81,69,0
1,note_on,81,0,120
1,note_on,71,58,0
1,note_on,71,0,120
1,note_on,81,64,0
1,note_on,81,0,120
1,note_on,83,61,0
1,note_on,83,0,120
1,note_on,79,72,0
1,note_on,79,0,120
1,note_on,71,62,0
1,note_on,71,0,120
1,note_on,79,64,0
1,note_on,79,0,120
1,note_on,83,65,0
1,note_on,83,0,120
1,note_on,79,70,0
1,note_on,79,0,120
1,note_on,71,67,0
1,note_on,71,0,120
1,note_on,79,65,0
1,note_on,79,0,120
1,note_on,83,63,0
1,note_on,83,0,110
1,note_on,83,73,10
1,note_on,83,0,120
1,note_on,76,61,0
1,note_on,76,0,120
1,note_on,83,67,0
1,note_on,83,0,120
1,note_on,88,64,0
1,note_on,88,0,120
1,note_on,84,64,0
1,note_on,84,0,120
1,note_on,76,66,0
1,note_on,76,0,120
1,note_on,84,69,0
1,note_on,84,0,120
1,note_on,88,72,0
1,note_on,88,0,120
1,note_on,84,78,0
1,note_on,84,0,120
1,note_on,76,74,0
1,note_on,76,0,120
1,note_on,84,67,0
1,note_on,84,0,120
1,note_on,88,67,0
1,note_on,88,0,120
1,note_on,84,74,0
1,note_on,84,0,120
1,note_on,76,63,0
1,note_on,76,0,120
1,note_on,84,70,0
1,note_on,84,0,120
1,note_on,88,67,0
1,note_on,88,0,120
1,note_on,85,77,0
1,note_on,85,0,120
1,note_on,79,67,0
1,note_on,79,0,120
1,note_on,85,71,0
1,note_on,85,0,120
1,note_on,88,75,0
1,note_on,88,0,120
1,note_on,85,77,0
1,note_on,85,0,120
1,note_on,79,72,0
1,note_on,79,0,120
1,note_on,85,72,0
1,note_on,85,0,120
1,note_on,88,67,0
1,note_on,88,0,120
1,note_on,85,78,0
1,note_on,85,0,120
1,note_on,79,66,0
1,note_on,79,0,120
1,note_on,85,73,0
1,note_on,85,0,120
1,note_on,88,66,0
1,note_on,88,0,120
1,note_on,83,87,0
1,note_on,83,0,120
1,note_on,79,74,0
1,note_on,79,0,120
1,note_on,83,79,0
1,note_on,83,0,120
1,note_on,88,74,0
1,note_on,88,0,120
1,note_on,91,85,0
1,note_on,91,0,120
1,note_on,90,75,0
1,note_on,90,0,120
1,note_on,88,79,0
1,note_on,88,0,120
1,note_on,87,75,0
1,note_on,87,0,120
1,note_on,88,86,0
1,note_on,88,0,120
1,note_on,87,75,0
1,note_on,87,0,120
1,note_on,88,79,0
1,note_on,88,0,120
1,note_on,90,76,0
1,note_on,90,0,120
1,note_on,91,85,0
1,note_on,91,0,120
1,note_on,90,79,0
1,note_on,90,0,120
1,note_on,88,79,0
1,note_on,88,0,120
1,note_on,87,75,0
1,note_on,87,0,120
1,note_on,91,85,0
1,note_on,91,0,120
1,note_on,90,79,0
1,note_on,90,0,120
1,note_on,88,79,0
1,note_on,88,0,120
1,note_on,87,75,0
1,note_on,87,0,120
1,note_on,91,85,0
1,note_on,91,0,120
1,note_on,90,79,0
1,note_on,90,0,120
1,note_on,88,79,0
1,note_on,88,0,120
1,note_on,87,76,0
1,note_on,87,0,120
1,note_on,91,85,0
1,note_on,91,0,120
1,note_on,90,79,0
1,note_on,90,0,120
1,note_on,88,79,0
1,note_on,88,0,120
1,note_on,87,76,0
1,note_on,87,0,120
1,note_on,88,88,0
1,note_on,88,0,240
1,note_on,91,50,720
1,note_on,91,0,240
1,note_on,90,42,0
1,note_on,90,0,240
1,note_on,88,46,0
1,note_on,88,0,240
1,note_on,87,46,0
1,note_on,87,0,240
1,note_on,88,50,0
1,note_on,88,0,480
1,note_on,91,50,0
1,note_on,91,0,480
1,note_on,90,47,0
1,note_on,90,0,480
1,note_on,88,50,0
1,note_on,88,0,480
1,note_on,87,54,0
1,note_on,87,0,480
1,note_on,88,49,0
1,note_on,88,0,480
1,note_on,91,50,480
1,note_on,91,0,960
1,note_on,90,50,0
1,note_on,90,0,960
1,note_on,88,50,0
1,note_on,88,0,480
1,note_on,67,50,480
1,note_on,67,0,960
1,note_on,66,56,0
1,note_on,66,0,240
1,note_on,64,40,0
1,note_on,64,0,230
1,note_on,64,50,10
1,note_on,64,0,480
1,note_on,67,50,1440
1,note_on,67,0,470
1,note_on,66,46,10
1,note_on,66,0,240
1,note_on,64,46,0
1,note_on,64,0,230
1,note_on,64,50,10
1,note_on,64,0,230
1,note_on,67,53,490
1,note_on,67,0,240
1,note_on,66,56,0
1,note_on,66,0,240
1,note_on,64,57,0
1,note_on,64,0,240
1,note_on,91,61,240
1,note_on,91,0,240
1,note_on,90,66,0
1,note_on,90,0,240
1,note_on,88,63,0
1,note_on,88,0,240
1,note_on,67,63,240
1,note_on,67,0,240
1,note_on,66,74,0
1,note_on,66,0,240
1,note_on,64,64,0
1,note_on,64,0,240
1,note_on,67,78,480
1,note_on,64,66,0
1,note_on,59,66,0
1,note_on,55,66,0
1,note_on,55,0,120
1,note_on,67,0,0
1,note_on,64,0,0
1,note_on,59,0,0
1,note_on,55,70,360
1,note_on,59,70,0
1,note_on,64,70,0
1,note_on,67,84,0
1,note_on,67,0,720
1,note_on,66,77,0
1,note_on,66,0,240
1,note_on,64,0,0
1,note_on,59,0,0
1,note_on,55,0,0
1,note_on,64,68,0
1,note_on,55,57,0
1,note_on,55,0,120
1,note_on,64,0,0
1,note_on,57,70,360
1,note_on,66,70,0
1,note_on,69,84,0
1,note_on,69,0,240
1,note_on,66,0,0
1,note_on,57,0,0
1,note_on,69,37,720
1,note_on,66,31,0
1,note_on,66,0,480
1,note_on,69,0,0
1,note_on,66,37,0
1,note_on,69,45,0
1,note_on,69,0,720
1,note_on,66,0,0
1,note_on,67,40,0
1,note_on,67,0,240
1,note_on,69,41,0
1,note_on,66,35,0
1,note_on,66,0,360
1,note_on,69,0,0
1,note_on,71,43,120
1,note_on,67,36,0
1,note_on,67,0,360
1,note_on,71,0,0
1,note_on,71,78,600
1,note_on,67,66,0
1,note_on,62,66,0
1,note_on,59,66,0
1,note_on,59,0,120
1,note_on,71,0,0
1,note_on,67,0,0
1,note_on,62,0,0
1,note_on,62,70,360
1,note_on,59,70,0
1,note_on,67,70,0
1,note_on,71,84,0
1,note_on,71,0,720
1,note_on,69,77,0
1,note_on,69,0,240
1,note_on,67,0,0
1,note_on,59,0,0
1,note_on,62,0,0
1,note_on,67,68,0
1,note_on,59,57,0
1,note_on,59,0,120
1,note_on,67,0,0
1,note_on,61,70,360
1,note_on,70,70,0
1,note_on,73,84,0
1,note_on,73,0,240
1,note_on,70,0,0
1,note_on,61,0,0
1,note_on,73,37,720
1,note_on,70,31,0
1,note_on,70,0,480
1,note_on,73,0,0
1,note_on,70,37,0
1,note_on,73,45,0
1,note_on,73,0,720
1,note_on,70,0,0
1,note_on,71,40,0
1,note_on,71,0,240
1,note_on,73,41,0
1,note_on,70,35,0
1,note_on,70,0,360
1,note_on,73,0,0
1,note_on,74,43,120
1,note_on,71,36,0
1,note_on,71,0,360
1,note_on,74,0,0
1,note_on,74,70,600
1,note_on,74,0,960
1,note_on,79,70,0
1,note_on,79,0,480
1,note_on,76,62,0
1,note_on,76,0,480
1,note_on,74,66,0
1,note_on,74,0,480
1,note_on,72,56,0
1,note_on,72,0,456
1,note_on,72,61,24
1,note_on,72,0,960
1,note_on,81,61,0
1,note_on,81,0,480
1,note_on,72,52,0
1,note_on,72,0,960
1,note_on,71,61,0
1,note_on,71,0,456
1,note_on,71,55,24
1,note_on,71,0,960
1,note_on,67,50,0
1,note_on,67,0,456
1,note_on,67,44,24
1,note_on,67,0,960
1,note_on,64,43,0
1,note_on,64,0,456
1,note_on,64,40,24
1,note_on,64,0,960
1,note_on,55,36,0
1,note_on,55,0,480
1,note_on,52,24,0
1,note_on,52,0,480
1,note_on,51,24,0
1,note_on,59,28,0
1,note_on,59,0,864
1,note_on,51,0,0
1,note_on,76,51,96
1,note_on,88,61,0
1,note_on,88,0,1200
1,note_on,76,0,0
1,note_on,75,45,0
1,note_on,87,53,0
1,note_on,87,0,240
1,note_on,75,0,0
1,note_on,76,48,0
1,note_on,88,57,0
1,note_on,88,0,480
1,note_on,76,0,0
1,note_on,60,51,0
1,note_on,64,51,0
1,note_on,66,61,0
1,note_on,66,0,960
1,note_on,64,0,0
1,note_on,60,0,0
1,note_on,66,66,0
1,note_on,64,56,0
1,note_on,61,56,0
1,note_on,61,0,480
1,note_on,64,0,0
1,note_on,66,0,0
1,note_on,57,60,0
1,note_on,63,60,0
1,note_on,66,71,0
1,note_on,66,0,720
1,note_on,67,51,0
1,note_on,67,0,240
1,note_on,69,56,0
1,note_on,69,0,240
1,note_on,67,43,0
1,note_on,67,0,240
1,note_on,63,0,0
1,note_on,57,0,0
1,note_on,66,47,0
1,note_on,66,0,480
1,note_on,64,39,0
1,note_on,64,0,480
1,note_on,76,51,0
1,note_on,88,61,0
1,note_on,88,0,1200
1,note_on,76,0,0
1,note_on,75,52,0
1,note_on,87,61,0
1,note_on,87,0,240
1,note_on,75,0,0
1,note_on,76,56,0
1,note_on,88,66,0
1,note_on,88,0,480
1,note_on,76,0,0
1,note_on,60,51,0
1,note_on,64,51,0
1,note_on,66,61,0
1,note_on,66,0,960
1,note_on,64,0,0
1,note_on,60,0,0
1,note_on,66,52,0
1,note_on,64,44,0
1,note_on,61,44,0
1,note_on,61,0,480
1,note_on,64,0,0
1,note_on,66,0,0
1,note_on,57,46,0
1,note_on,63,46,0
1,note_on,66,55,0
1,note_on,66,0,720
1,note_on,69,38,0
1,note_on,69,0,240
1,note_on,67,41,0
1,note_on,67,0,240
1,note_on,66,32,0
1,note_on,66,0,240
1,note_on,63,0,0
1,note_on,57,0,0
1,note_on,55,30,0
1,note_on,64,36,0
1,note_on,64,0,480
1,note_on,55,0,0
1,note_on,55,30,480
1,note_on,67,36,0
1,note_on,67,0,120
1,note_on,55,0,0
1,note_on,67,41,360
1,note_on,55,34,0
1,note_on,55,0,960
1,note_on,67,0,0
1,note_on,60,30,0
1,note_on,72,36,0
1,note_on,72,0,120
1,note_on,60,0,0
1,note_on,72,42,360
1,note_on,60,35,0
1,note_on,60,0,960
1,note_on,72,0,0
1,note_on,67,30,0
1,note_on,79,36,0
1,note_on,79,0,120
1,note_on,67,0,0
1,note_on,79,40,360
1,note_on,67,34,0
1,note_on,67,0,960
1,note_on,79,0,0
1,note_on,84,36,0
1,note_on,72,30,0
1,note_on,72,0,120
1,note_on,84,0,0
1,note_on,72,34,360
1,note_on,84,41,0
1,note_on,84,0,960
1,note_on,72,0,0
1,note_on,77,70,0
1,note_on,86,70,0
1,note_on,89,82,0
1,note_on,89,0,120
1,note_on,86,0,0
1,note_on,77,0,0
1,note_on,77,76,360
1,note_on,86,76,0
1,note_on,89,90,0
1,note_on,89,0,720
1,note_on,86,0,0
1,note_on,77,0,0
1,note_on,88,70,0
1,note_on,86,69,120
1,note_on,88,0,12
1,note_on,84,68,108
1,note_on,86,0,12
1,note_on,83,68,108
1,note_on,84,0,12
1,note_on,81,68,108
1,note_on,83,0,12
1,note_on,79,66,108
1,note_on,81,0,12
1,note_on,77,64,108
1,note_on,79,0,12
1,note_on,76,64,108
1,note_on,77,0,12
1,note_on,74,64,108
1,note_on,76,0,12
1,note_on,72,64,108
1,note_on,74,0,12
1,note_on,71,63,108
1,note_on,72,0,12
1,note_on,69,63,68
1,note_on,71,0,8
1,note_on,67,63,72
1,note_on,69,0,8
1,note_on,65,63,72
1,note_on,67,0,8
1,note_on,64,63,72
1,note_on,65,0,8
1,note_on,62,63,72
1,note_on,64,0,8
1,note_on,60,63,72
1,note_on,62,0,8
1,note_on,59,63,88
1,note_on,60,0,10
1,note_on,57,63,86
1,note_on,59,0,10
1,note_on,55,62,86
1,note_on,57,0,10
1,note_on,54,62,86
1,note_on,55,0,10
1,note_on,55,89,86
1,note_on,54,0,10
1,note_on,55,0,230
1,note_on,65,40,720
1,note_on,62,34,0
1,note_on,55,34,0
1,note_on,55,0,120
1,note_on,62,0,0
1,note_on,65,0,0
1,note_on,64,45,360
1,note_on,60,38,0
1,note_on,55,38,0
1,note_on,55,0,240
1,note_on,60,0,0
1,note_on,64,0,0
1,note_on,74,76,720
1,note_on,80,76,0
1,note_on,83,76,0
1,note_on,86,90,0
1,note_on,86,0,120
1,note_on,74,0,0
1,note_on,80,0,0
1,note_on,83,0,0
1,note_on,74,84,360
1,note_on,80,84,0
1,note_on,83,84,0
1,note_on,86,98,0
1,note_on,86,0,720
1,note_on,74,0,0
1,note_on,80,0,0
1,note_on,83,0,0
1,note_on,84,70,0
1,note_on,83,69,120
1,note_on,84,0,12
1,note_on,81,68,108
1,note_on,83,0,12
1,note_on,80,68,108
1,note_on,81,0,12
1,note_on,78,68,108
1,note_on,80,0,12
1,note_on,76,66,108
1,note_on,78,0,12
1,note_on,74,64,108
1,note_on,76,0,12
1,note_on,72,64,108
1,note_on,74,0,12
1,note_on,71,64,108
1,note_on,72,0,12
1,note_on,69,64,108
1,note_on,71,0,12
1,note_on,68,63,108
1,note_on,69,0,12
1,note_on,66,63,68
1,note_on,68,0,8
1,note_on,64,63,72
1,note_on,66,0,8
1,note_on,62,63,72
1,note_on,64,0,8
1,note_on,60,63,72
1,note_on,62,0,8
1,note_on,59,63,72
1,note_on,60,0,8
1,note_on,57,63,72
1,note_on,59,0,8
1,note_on,56,63,88
1,note_on,57,0,10
1,note_on,54,63,86
1,note_on,56,0,10
1,note_on,52,62,86
1,note_on,54,0,10
1,note_on,51,62,86
1,note_on,52,0,10
1,note_on,52,89,86
1,note_on,51,0,10
1,note_on,52,0,470
1,note_on,62,40,480
1,note_on,59,34,0
1,note_on,52,34,0
1,note_on,52,0,120
1,note_on,59,0,0
1,note_on,62,0,0
1,note_on,60,45,360
1,note_on,57,38,0
1,note_on,52,38,0
1,note_on,52,0,240
1,note_on,57,0,0
1,note_on,60,0,0
1,note_on,84,43,720
1,note_on,84,0,240
1,note_on,84,45,240
1,note_on,84,0,720
1,note_on,82,42,0
1,note_on,82,0,120
1,note_on,81,42,0
1,note_on,81,0,120
1,note_on,79,40,0
1,note_on,79,0,120
1,note_on,77,40,0
1,note_on,77,0,120
1,note_on,76,40,0
1,note_on,76,0,120
1,note_on,74,40,0
1,note_on,74,0,120
1,note_on,72,40,0
1,note_on,72,0,120
1,note_on,70,40,0
1,note_on,70,0,120
1,note_on,69,39,0
1,note_on,69,0,120
1,note_on,67,39,0
1,note_on,67,0,120
1,note_on,66,37,0
1,note_on,66,0,96
1,note_on,64,36,0
1,note_on,64,0,96
1,note_on,62,35,0
1,note_on,62,0,96
1,note_on,60,35,0
1,note_on,60,0,96
1,note_on,58,40,0
1,note_on,58,0,96
1,note_on,57,42,0
1,note_on,57,0,470
1,note_on,57,42,10
1,note_on,57,0,960
1,note_on,57,45,0
1,note_on,63,53,0
1,note_on,63,0,432
1,note_on,57,0,0
1,note_on,57,45,48
1,note_on,63,53,0
1,note_on,63,0,960
1,note_on,57,0,0
1,note_on,63,53,0
1,note_on,69,53,0
1,note_on,69,0,432
1,note_on,63,0,0
1,note_on,63,59,48
1,note_on,69,59,0
1,note_on,69,0,960
1,note_on,63,0,0
1,note_on,63,53,0
1,note_on,69,53,0
1,note_on,75,63,0
1,note_on,75,0,432
1,note_on,69,0,0
1,note_on,63,0,0
1,note_on,63,57,48
1,note_on,75,68,0
1,note_on,69,57,0
1,note_on,69,0,960
1,note_on,75,0,0
1,note_on,63,0,0
1,note_on,75,58,0
1,note_on,72,58,0
1,note_on,81,58,0
1,note_on,84,69,0
1,note_on,84,0,432
1,note_on,75,0,0
1,note_on,72,0,0
1,note_on,81,0,0
1,note_on,72,66,48
1,note_on,75,66,0
1,note_on,81,66,0
1,note_on,84,78,0
1,note_on,84,0,960
1,note_on,72,0,0
1,note_on,75,0,0
1,note_on,81,0,0
1,note_on,71,68,0
1,note_on,75,68,0
1,note_on,81,68,0
1,note_on,83,80,0
1,note_on,83,0,480
1,note_on,71,0,0
1,note_on,75,0,0
1,note_on,81,0,0
1,note_on,70,71,0
1,note_on,75,71,0
1,note_on,82,84,0
1,note_on,82,0,960
1,note_on,75,0,0
1,note_on,70,0,0
1,note_on,71,69,0
1,note_on,83,82,0
1,note_on,81,69,0
1,note_on,75,69,0
1,note_on,75,0,432
1,note_on,71,0,0
1,note_on,83,0,0
1,note_on,81,0,0
1,note_on,71,80,48
1,note_on,76,80,0
1,note_on,83,95,0
1,note_on,83,0,1440
1,note_on,76,0,0
1,note_on,71,0,0
1,note_on,76,80,0
1,note_on,88,94,0
1,note_on,88,0,1440
1,note_on,76,0,0
1,note_on,71,41,0
1,note_on,74,41,0
1,note_on,76,49,0
1,note_on,76,0,120
1,note_on,74,0,0
1,note_on,71,0,0
1,note_on,72,49,360
1,note_on,77,59,0
1,note_on,65,49,0
1,note_on,65,0,120
1,note_on,77,0,0
1,note_on,72,0,0
1,note_on,76,47,840
1,note_on,77,56,0
1,note_on,72,47,0
1,note_on,72,0,120
1,note_on,77,0,0
1,note_on,76,0,0
1,note_on,74,49,360
1,note_on,80,59,0
1,note_on,68,49,0
1,note_on,68,0,120
1,note_on,80,0,0
1,note_on,74,0,0
1,note_on,76,48,840
1,note_on,74,48,0
1,note_on,80,57,0
1,note_on,68,48,0
1,note_on,68,0,120
1,note_on,76,0,0
1,note_on,74,0,0
1,note_on,80,0,0
1,note_on,76,53,360
1,note_on,81,63,0
1,note_on,69,53,0
1,note_on,69,0,120
1,note_on,81,0,0
1,note_on,76,0,0
1,note_on,81,60,840
1,note_on,76,50,0
1,note_on,76,0,120
1,note_on,81,0,0
1,note_on,79,55,360
1,note_on,76,55,0
1,note_on,82,64,0
1,note_on,70,55,0
1,note_on,70,0,120
1,note_on,79,0,0
1,note_on,76,0,0
1,note_on,82,0,0
1,note_on,73,39,840
1,note_on,76,39,0
1,note_on,81,46,0
1,note_on,81,0,120
1,note_on,76,0,0
1,note_on,73,0,0
1,note_on,82,38,120
1,note_on,76,32,0
1,note_on,73,32,0
1,note_on,73,0,120
1,note_on,76,0,0
1,note_on,82,0,0
1,note_on,82,38,120
1,note_on,76,32,0
1,note_on,73,32,0
1,note_on,73,0,120
1,note_on,76,0,0
1,note_on,82,0,0
1,note_on,82,38,120
1,note_on,76,32,0
1,note_on,73,32,0
1,note_on,73,0,120
1,note_on,76,0,0
1,note_on,82,0,0
1,note_on,82,38,120
1,note_on,76,32,0
1,note_on,73,32,0
1,note_on,73,0,120
1,note_on,76,0,0
1,note_on,82,0,0
1,note_on,82,38,120
1,note_on,76,32,0
1,note_on,73,32,0
1,note_on,73,0,120
1,note_on,76,0,0
1,note_on,82,0,0
1,note_on,73,39,120
1,note_on,76,39,0
1,note_on,82,46,0
1,note_on,82,0,120
1,note_on,76,0,0
1,note_on,73,0,0
1,note_on,82,52,120
1,note_on,76,44,0
1,note_on,73,44,0
1,note_on,73,0,120
1,note_on,76,0,0
1,note_on,82,0,0
1,note_on,82,58,120
1,note_on,76,48,0
1,note_on,73,48,0
1,note_on,73,0,120
1,note_on,76,0,0
1,note_on,82,0,0
1,note_on,82,63,120
1,note_on,76,53,0
1,note_on,73,53,0
1,note_on,73,0,120
1,note_on,76,0,0
1,note_on,82,0,0
1,note_on,82,69,120
1,note_on,76,59,0
1,note_on,73,59,0
1,note_on,73,0,120
1,note_on,76,0,0
1,note_on,82,0,0
1,note_on,82,75,120
1,note_on,76,63,0
1,note_on,73,63,0
1,note_on,73,0,120
1,note_on,76,0,0
1,note_on,82,0,0
1,note_on,83,91,120
1,note_on,83,0,120
1,note_on,84,70,120
1,note_on,96,83,0
1,note_on,96,0,120
1,note_on,84,0,0
1,note_on,84,70,120
1,note_on,96,83,0
1,note_on,96,0,120
1,note_on,84,0,0
1,note_on,84,70,120
1,note_on,96,83,0
1,note_on,96,0,120
1,note_on,84,0,0
1,note_on,84,70,120
1,note_on,96,83,0
1,note_on,96,0,120
1,note_on,84,0,0
1,note_on,84,70,120
1,note_on,96,83,0
1,note_on,96,0,120
1,note_on,84,0,0
1,note_on,84,71,120
1,note_on,96,85,0
1,note_on,96,0,120
1,note_on,84,0,0
1,note_on,84,65,120
1,note_on,96,77,0
1,note_on,96,0,120
1,note_on,84,0,0
1,note_on,84,63,120
1,note_on,96,74,0
1,note_on,96,0,120
1,note_on,84,0,0
1,note_on,84,57,120
1,note_on,96,67,0
1,note_on,96,0,120
1,note_on,84,0,0
1,note_on,84,51,120
1,note_on,96,60,0
1,note_on,96,0,120
1,note_on,84,0,0
1,note_on,84,47,120
1,note_on,96,56,0
1,note_on,96,0,120
1,note_on,84,0,0
1,note_on,96,56,120
1,note_on,84,56,0
1,note_on,84,0,480
1,note_on,96,0,0
1,note_on,95,56,0
1,note_on,83,56,0
1,note_on,83,0,1440
1,note_on,95,0,0
1,note_on,76,56,0
1,note_on,88,56,0
1,note_on,88,0,1440
1,note_on,76,0,0
1,note_on,71,56,0
1,note_on,83,56,0
1,note_on,83,0,1440
1,note_on,71,0,0
1,note_on,64,56,0
1,note_on,76,56,0
1,note_on,64,0,960
1,note_on,76,0,480
1,note_on,72,63,0
1,note_on,72,0,480
1,note_on,71,57,0
1,note_on,71,0,470
1,note_on,71,65,10
1,note_on,71,0,960
1,note_on,75,58,0
1,note_on,75,0,480
1,note_on,76,56,0
1,note_on,76,0,240
1,note_on,72,69,0
1,note_on,72,0,240
1,note_on,84,73,0
1,note_on,84,0,720
1,note_on,83,56,0
1,note_on,83,0,240
1,note_on,83,71,240
1,note_on,83,0,240
1,note_on,78,68,0
1,note_on,78,0,720
1,note_on,76,51,0
1,note_on,76,0,240
1,note_on,76,71,240
1,note_on,76,0,240
1,note_on,72,69,0
1,note_on,72,0,720
1,note_on,71,53,0
1,note_on,71,0,240
1,note_on,71,69,240
1,note_on,71,0,240
1,note_on,66,63,0
1,note_on,66,0,720
1,note_on,64,56,0
1,note_on,64,0,230
1,note_on,64,63,10
1,note_on,64,0,480
1,note_on,60,63,0
1,note_on,60,0,480
1,note_on,59,65,0
1,note_on,59,0,470
1,note_on,59,71,10
1,note_on,59,0,240
1,note_on,55,65,0
1,note_on,55,0,240
1,note_on,52,71,0
1,note_on,52,0,240
1,note_on,48,65,0
1,note_on,48,0,240
1,note_on,47,70,0
1,note_on,47,0,240
1,note_on,51,76,0
1,note_on,51,0,240
1,note_on,52,80,0
1,note_on,52,0,480
1,note_on,64,79,960
1,note_on,60,67,0
1,note_on,60,0,1440
1,note_on,64,0,0
1,note_on,65,34,0
1,note_on,60,28,0
1,note_on,65,0,960
1,note_on,72,39,0
1,note_on,60,0,480
1,note_on,69,27,0
1,note_on,63,27,0
1,note_on,66,27,0
1,note_on,72,0,960
1,note_on,71,33,0
1,note_on,71,0,470
1,note_on,66,0,10
1,note_on,63,0,0
1,note_on,69,0,0
1,note_on,71,40,0
1,note_on,67,34,0
1,note_on,64,34,0
1,note_on,64,0,480
1,note_on,67,0,0
1,note_on,71,0,0
1,note_on,52,79,960
1,note_on,48,67,0
1,note_on,48,0,1440
1,note_on,52,0,0
1,note_on,53,34,0
1,note_on,48,28,0
1,note_on,53,0,960
1,note_on,60,39,0
1,note_on,48,0,480
1,note_on,57,27,0
1,note_on,51,27,0
1,note_on,54,27,0
1,note_on,60,0,960
1,note_on,59,33,0
1,note_on,59,0,470
1,note_on,54,0,10
1,note_on,51,0,0
1,note_on,57,0,0
1,note_on,60,39,987
1,note_on,52,24,453
1,note_on,55,24,0
1,note_on,60,0,987
1,note_on,59,33,0
1,note_on,55,0,453
1,note_on,52,0,0
1,note_on,59,0,27
1,note_on,60,39,960
1,note_on,54,24,453
1,note_on,57,24,0
1,note_on,63,33,960
1,note_on,60,0,27
1,note_on,54,0,453
1,note_on,57,0,0
1,note_on,63,0,0
1,note_on,55,28,0
1,note_on,64,33,0
1,note_on,64,0,480
1,note_on,55,0,0
1,note_on,72,35,507
1,note_on,63,21,453
1,note_on,66,21,0
1,note_on,69,21,0
1,note_on,72,0,987
1,note_on,71,29,0
1,note_on,63,0,453
1,note_on,69,0,0
1,note_on,66,0,0
1,note_on,71,0,27
1,note_on,72,35,933
1,note_on,67,21,480
1,note_on,64,21,0
1,note_on,72,0,960
1,note_on,71,29,0
1,note_on,71,0,480
1,note_on,64,0,0
1,note_on,67,0,0
1,note_on,72,35,987
1,note_on,66,21,453
1,note_on,69,21,0
1,note_on,75,29,960
1,note_on,72,0,27
1,note_on,66,0,453
1,note_on,69,0,0
1,note_on,75,0,0
1,note_on,67,25,0
1,note_on,76,29,0
1,note_on,76,0,480
1,note_on,67,0,0
1,note_on,84,35,507
1,note_on,75,21,453
1,note_on,78,21,0
1,note_on,81,21,0
1,note_on,84,0,987
1,note_on,83,29,0
1,note_on,75,0,453
1,note_on,81,0,0
1,note_on,78,0,0
1,note_on,83,0,27
1,note_on,78,31,2373
1,note_on,75,26,0
1,note_on,75,0,480
1,note_on,78,0,0
1,note_on,76,31,0
1,note_on,79,38,0
1,note_on,79,0,720
1,note_on,76,0,0
1,note_on,75,27,0
1,note_on,78,34,0
1,note_on,78,0,240
1,note_on,75,0,0
1,note_on,76,34,0
1,note_on,76,0,360
1,note_on,81,36,120
1,note_on,78,30,0
1,note_on,78,0,360
1,note_on,81,0,0
1,note_on,81,31,600
1,note_on,78,26,0
1,note_on,78,0,456
1,note_on,81,0,0
1,note_on,78,31,24
1,note_on,81,38,0
1,note_on,81,0,720
1,note_on,78,0,0
1,note_on,79,34,0
1,note_on,79,0,240
1,note_on,78,31,0
1,note_on,81,34,0
1,note_on,81,0,360
1,note_on,78,0,0
1,note_on,83,36,120
1,note_on,79,30,0
1,note_on,79,0,360
1,note_on,83,0,0
1,note_on,83,27,600
1,note_on,83,0,456
1,note_on,83,34,24
1,note_on,83,0,720
1,note_on,81,30,0
1,note_on,81,0,240
1,note_on,79,27,0
1,note_on,83,30,0
1,note_on,83,0,360
1,note_on,79,0,0
1,note_on,84,32,120
1,note_on,81,27,0
1,note_on,81,0,360
1,note_on,84,0,0
1,note_on,76,51,600
1,note_on,88,61,0
1,note_on,88,0,1200
1,note_on,76,0,0
1,note_on,75,51,0
1,note_on,87,60,0
1,note_on,87,0,240
1,note_on,75,0,0
1,note_on,76,55,0
1,note_on,88,65,0
1,note_on,88,0,480
1,note_on,76,0,0
1,note_on,60,45,0
1,note_on,64,45,0
1,note_on,66,54,0
1,note_on,66,0,960
1,note_on,64,0,0
1,note_on,60,0,0
1,note_on,66,66,0
1,note_on,64,56,0
1,note_on,61,56,0
1,note_on,61,0,480
1,note_on,64,0,0
1,note_on,66,0,0
1,note_on,57,60,0
1,note_on,63,60,0
1,note_on,66,71,0
1,note_on,66,0,720
1,note_on,67,51,0
1,note_on,67,0,240
1,note_on,69,56,0
1,note_on,69,0,240
1,note_on,67,43,0
1,note_on,67,0,240
1,note_on,63,0,0
1,note_on,57,0,0
1,note_on,66,47,0
1,note_on,66,0,480
1,note_on,64,39,0
1,note_on,64,0,480
1,note_on,76,53,0
1,note_on,88,64,0
1,note_on,88,0,1200
1,note_on,76,0,0
1,note_on,75,54,0
1,note_on,87,64,0
1,note_on,87,0,240
1,note_on,75,0,0
1,note_on,76,56,0
1,note_on,88,66,0
1,note_on,88,0,480
1,note_on,76,0,0
1,note_on,60,40,0
1,note_on,64,40,0
1,note_on,66,48,0
1,note_on,66,0,960
1,note_on,64,0,0
1,note_on,60,0,0
1,note_on,66,41,0
1,note_on,64,34,0
1,note_on,61,34,0
1,note_on,61,0,480
1,note_on,64,0,0
1,note_on,66,0,0
1,note_on,57,34,0
1,note_on,63,34,0
1,note_on,66,41,0
1,note_on,66,0,720
1,note_on,69,26,0
1,note_on,69,0,240
1,note_on,67,28,0
1,note_on,67,0,240
1,note_on,66,21,0
1,note_on,66,0,240
1,note_on,63,0,0
1,note_on,57,0,0
1,note_on,55,20,0
1,note_on,64,24,0
1,note_on,64,0,480
1,note_on,55,0,0
2,note_on,52,63,960
2,note_on,40,53,0
2,note_on,40,0,120
2,note_on,52,0,0
2,note_on,40,61,360
2,note_on,52,72,0
2,note_on,52,0,960
2,note_on,40,0,0
2,note_on,52,63,0
2,note_on,40,53,0
2,note_on,40,0,120
2,note_on,52,0,0
2,note_on,38,61,360
2,note_on,50,72,0
2,note_on,50,0,240
2,note_on,38,0,0
2,note_on,62,29,720
2,note_on,62,0,480
2,note_on,60,30,0
2,note_on,62,36,0
2,note_on,62,0,720
2,note_on,60,0,0
2,note_on,62,31,0
2,note_on,59,26,0
2,note_on,59,0,240
2,note_on,62,0,0
2,note_on,57,24,0
2,note_on,60,28,0
2,note_on,60,0,360
2,note_on,57,0,0
2,note_on,55,30,120
2,note_on,59,36,0
2,note_on,59,0,360
2,note_on,55,0,0
2,note_on,55,63,600
2,note_on,43,53,0
2,note_on,43,0,120
2,note_on,55,0,0
2,note_on,43,61,360
2,note_on,55,72,0
2,note_on,55,0,960
2,note_on,43,0,0
2,note_on,43,63,0
2,note_on,31,53,0
2,note_on,31,0,120
2,note_on,43,0,0
2,note_on,30,61,360
2,note_on,42,72,0
2,note_on,42,0,240
2,note_on,30,0,0
2,note_on,66,29,720
2,note_on,66,0,480
2,note_on,64,30,0
2,note_on,66,36,0
2,note_on,66,0,720
2,note_on,64,0,0
2,note_on,66,31,0
2,note_on,62,26,0
2,note_on,62,0,240
2,note_on,66,0,0
2,note_on,61,24,0
2,note_on,64,28,0
2,note_on,64,0,360
2,note_on,61,0,0
2,note_on,59,30,120
2,note_on,62,36,0
2,note_on,62,0,360
2,note_on,59,0,0
2,note_on,62,38,1080
2,note_on,59,38,0
2,note_on,67,45,0
2,note_on,62,0,960
2,note_on,64,50,0
2,note_on,59,0,480
2,note_on,57,39,0
2,note_on,57,0,960
2,note_on,64,0,0
2,note_on,67,0,0
2,note_on,66,38,0
2,note_on,63,32,0
2,note_on,63,0,480
2,note_on,62,34,0
2,note_on,62,0,960
2,note_on,66,0,0
2,note_on,66,46,0
2,note_on,66,0,480
2,note_on,67,46,0
2,note_on,67,0,960
2,note_on,55,45,0
2,note_on,55,0,480
2,note_on,52,49,0
2,note_on,52,0,960
2,note_on,64,41,0
2,note_on,64,0,480
2,note_on,60,40,0
2,note_on,60,0,960
2,note_on,48,28,0
2,note_on,36,28,480
2,note_on,36,0,1440
2,note_on,48,0,0
2,note_on,47,28,0
2,note_on,35,24,0
2,note_on,35,0,864
2,note_on,47,0,0
2,note_on,59,34,576
2,note_on,43,28,0
2,note_on,52,28,0
2,note_on,43,0,1440
2,note_on,59,0,0
2,note_on,45,39,0
2,note_on,45,0,960
2,note_on,46,43,0
2,note_on,46,0,480
2,note_on,52,0,0
2,note_on,47,49,0
2,note_on,47,0,1440
2,note_on,55,29,0
2,note_on,48,24,0
2,note_on,48,0,960
2,note_on,55,0,0
2,note_on,47,32,0
2,note_on,47,0,240
2,note_on,45,35,0
2,note_on,45,0,240
2,note_on,52,39,0
2,note_on,43,39,0
2,note_on,59,39,0
2,note_on,43,0,960
2,note_on,44,37,0
2,note_on,44,0,480
2,note_on,59,0,0
2,note_on,45,39,0
2,note_on,45,0,960
2,note_on,46,34,0
2,note_on,46,0,480
2,note_on,52,0,0
2,note_on,35,29,0
2,note_on,47,38,0
2,note_on,47,0,1440
2,note_on,35,0,0
2,note_on,52,22,0
2,note_on,40,18,0
2,note_on,40,0,480
2,note_on,52,0,0
2,note_on,35,25,480
2,note_on,47,30,0
2,note_on,47,0,120
2,note_on,35,0,0
2,note_on,35,28,360
2,note_on,47,34,0
2,note_on,47,0,960
2,note_on,35,0,0
2,note_on,40,25,0
2,note_on,52,30,0
2,note_on,52,0,120
2,note_on,40,0,0
2,note_on,40,28,360
2,note_on,52,34,0
2,note_on,52,0,960
2,note_on,40,0,0
2,note_on,47,25,0
2,note_on,59,30,0
2,note_on,59,0,120
2,note_on,47,0,0
2,note_on,47,28,360
2,note_on,59,34,0
2,note_on,59,0,960
2,note_on,47,0,0
2,note_on,52,25,0
2,note_on,64,30,0
2,note_on,64,0,120
2,note_on,52,0,0
2,note_on,52,28,360
2,note_on,64,34,0
2,note_on,64,0,960
2,note_on,52,0,0
2,note_on,55,54,0
2,note_on,59,54,0
2,note_on,62,54,0
2,note_on,65,65,0
2,note_on,65,0,120
2,note_on,55,0,0
2,note_on,59,0,0
2,note_on,62,0,0
2,note_on,55,59,360
2,note_on,59,59,0
2,note_on,62,59,0
2,note_on,65,71,0
2,note_on,65,0,720
2,note_on,55,0,0
2,note_on,59,0,0
2,note_on,62,0,0
2,note_on,47,29,3120
2,note_on,35,24,0
2,note_on,35,0,120
2,note_on,47,0,0
2,note_on,36,29,360
2,note_on,48,35,0
2,note_on,48,0,240
2,note_on,36,0,0
2,note_on,52,59,720
2,note_on,56,59,0
2,note_on,59,59,0
2,note_on,62,71,0
2,note_on,62,0,120
2,note_on,52,0,0
2,note_on,56,0,0
2,note_on,59,0,0
2,note_on,52,65,360
2,note_on,56,65,0
2,note_on,59,65,0
2,note_on,62,77,0
2,note_on,62,0,720
2,note_on,52,0,0
2,note_on,56,0,0
2,note_on,59,0,0
2,note_on,44,29,3120
2,note_on,32,24,0
2,note_on,32,0,120
2,note_on,44,0,0
2,note_on,33,29,360
2,note_on,45,35,0
2,note_on,45,0,240
2,note_on,33,0,0
2,note_on,58,50,720
2,note_on,58,0,450
2,note_on,58,50,30
2,note_on,58,0,1920
2,note_on,64,53,1920
2,note_on,64,0,432
2,note_on,64,62,48
2,note_on,64,0,960
2,note_on,58,45,0
2,note_on,64,53,0
2,note_on,64,0,432
2,note_on,58,0,0
2,note_on,64,59,48
2,note_on,58,50,0
2,note_on,58,0,960
2,note_on,64,0,0
2,note_on,58,45,0
2,note_on,64,53,0
2,note_on,64,0,432
2,note_on,58,0,0
2,note_on,64,64,48
2,note_on,58,54,0
2,note_on,58,0,960
2,note_on,64,0,0
2,note_on,58,49,0
2,note_on,61,49,0
2,note_on,64,49,0
2,note_on,67,59,0
2,note_on,67,0,432
2,note_on,58,0,0
2,note_on,61,0,0
2,note_on,64,0,0
2,note_on,58,58,48
2,note_on,61,58,0
2,note_on,64,58,0
2,note_on,67,69,0
2,note_on,67,0,960
2,note_on,66,63,0
2,note_on,66,0,480
2,note_on,65,77,0
2,note_on,65,0,960
2,note_on,58,0,0
2,note_on,61,0,0
2,note_on,64,0,0
2,note_on,66,75,0
2,note_on,64,63,0
2,note_on,61,63,0
2,note_on,58,63,0
2,note_on,58,0,432
2,note_on,66,0,0
2,note_on,64,0,0
2,note_on,61,0,0
2,note_on,66,48,48
2,note_on,62,40,0
2,note_on,59,40,0
2,note_on,59,0,120
2,note_on,62,0,0
2,note_on,66,0,0
2,note_on,59,33,120
2,note_on,62,33,0
2,note_on,66,40,0
2,note_on,66,0,120
2,note_on,62,0,0
2,note_on,59,0,0
2,note_on,59,33,120
2,note_on,62,33,0
2,note_on,66,40,0
2,note_on,66,0,120
2,note_on,62,0,0
2,note_on,59,0,0
2,note_on,59,33,120
2,note_on,62,33,0
2,note_on,66,40,0
2,note_on,66,0,120
2,note_on,62,0,0
2,note_on,59,0,0
2,note_on,59,33,120
2,note_on,62,33,0
2,note_on,66,40,0
2,note_on,66,0,120
2,note_on,62,0,0
2,note_on,59,0,0
2,note_on,59,33,120
2,note_on,62,33,0
2,note_on,66,40,0
2,note_on,66,0,120
2,note_on,62,0,0
2,note_on,59,0,0
2,note_on,59,48,120
2,note_on,54,40,0
2,note_on,50,40,0
2,note_on,50,0,120
2,note_on,54,0,0
2,note_on,59,0,0
2,note_on,50,34,120
2,note_on,54,34,0
2,note_on,59,41,0
2,note_on,59,0,120
2,note_on,54,0,0
2,note_on,50,0,0
2,note_on,50,34,120
2,note_on,54,34,0
2,note_on,59,41,0
2,note_on,59,0,120
2,note_on,54,0,0
2,note_on,50,0,0
2,note_on,50,34,120
2,note_on,54,34,0
2,note_on,59,41,0
2,note_on,59,0,120
2,note_on,54,0,0
2,note_on,50,0,0
2,note_on,50,34,120
2,note_on,54,34,0
2,note_on,59,41,0
2,note_on,59,0,120
2,note_on,54,0,0
2,note_on,50,0,0
2,note_on,50,34,120
2,note_on,54,34,0
2,note_on,59,41,0
2,note_on,59,0,120
2,note_on,54,0,0
2,note_on,50,0,0
2,note_on,57,44,120
2,note_on,54,37,0
2,note_on,51,37,0
2,note_on,51,0,120
2,note_on,54,0,0
2,note_on,57,0,0
2,note_on,51,28,120
2,note_on,54,28,0
2,note_on,57,34,0
2,note_on,57,0,120
2,note_on,54,0,0
2,note_on,51,0,0
2,note_on,55,44,120
2,note_on,52,37,0
2,note_on,52,0,120
2,note_on,55,0,0
2,note_on,55,37,120
2,note_on,52,30,0
2,note_on,52,0,120
2,note_on,55,0,0
2,note_on,55,37,120
2,note_on,52,30,0
2,note_on,52,0,120
2,note_on,55,0,0
2,note_on,55,37,120
2,note_on,52,30,0
2,note_on,52,0,120
2,note_on,55,0,0
2,note_on,59,45,120
2,note_on,55,37,0
2,note_on,52,37,0
2,note_on,52,0,120
2,note_on,55,0,0
2,note_on,59,0,0
2,note_on,59,37,120
2,note_on,55,30,0
2,note_on,52,30,0
2,note_on,52,0,120
2,note_on,55,0,0
2,note_on,59,0,0
2,note_on,57,44,120
2,note_on,54,37,0
2,note_on,54,0,120
2,note_on,57,0,0
2,note_on,54,31,120
2,note_on,57,38,0
2,note_on,57,0,120
2,note_on,54,0,0
2,note_on,54,31,120
2,note_on,57,38,0
2,note_on,57,0,120
2,note_on,54,0,0
2,note_on,54,31,120
2,note_on,57,38,0
2,note_on,57,0,120
2,note_on,54,0,0
2,note_on,60,44,120
2,note_on,57,37,0
2,note_on,54,37,0
2,note_on,54,0,120
2,note_on,57,0,0
2,note_on,60,0,0
2,note_on,54,30,120
2,note_on,57,30,0
2,note_on,60,37,0
2,note_on,60,0,120
2,note_on,57,0,0
2,note_on,54,0,0
2,note_on,59,44,120
2,note_on,55,37,0
2,note_on,55,0,120
2,note_on,59,0,0
2,note_on,55,33,120
2,note_on,59,39,0
2,note_on,59,0,120
2,note_on,55,0,0
2,note_on,55,33,120
2,note_on,59,39,0
2,note_on,59,0,120
2,note_on,55,0,0
2,note_on,55,33,120
2,note_on,59,39,0
2,note_on,59,0,120
2,note_on,55,0,0
2,note_on,56,41,120
2,note_on,59,49,0
2,note_on,59,0,120
2,note_on,56,0,0
2,note_on,56,37,120
2,note_on,59,37,0
2,note_on,62,44,0
2,note_on,62,0,120
2,note_on,59,0,0
2,note_on,56,0,0
2,note_on,56,39,120
2,note_on,59,39,0
2,note_on,61,47,0
2,note_on,61,0,120
2,note_on,59,0,0
2,note_on,56,0,0
2,note_on,56,35,120
2,note_on,59,35,0
2,note_on,61,41,0
2,note_on,61,0,120
2,note_on,59,0,0
2,note_on,56,0,0
2,note_on,56,36,120
2,note_on,59,36,0
2,note_on,61,42,0
2,note_on,61,0,120
2,note_on,59,0,0
2,note_on,56,0,0
2,note_on,56,36,120
2,note_on,59,36,0
2,note_on,61,42,0
2,note_on,61,0,120
2,note_on,59,0,0
2,note_on,56,0,0
2,note_on,61,34,120
2,note_on,61,0,120
2,note_on,61,32,120
2,note_on,61,0,120
2,note_on,61,32,120
2,note_on,61,0,120
2,note_on,61,32,120
2,note_on,61,0,120
2,note_on,61,32,120
2,note_on,61,0,120
2,note_on,61,32,120
2,note_on,61,0,120
2,note_on,61,40,120
2,note_on,61,0,120
2,note_on,61,45,120
2,note_on,61,0,120
2,note_on,61,49,120
2,note_on,61,0,120
2,note_on,61,52,120
2,note_on,61,0,120
2,note_on,61,56,120
2,note_on,61,0,120
2,note_on,61,58,120
2,note_on,61,0,120
2,note_on,54,60,120
2,note_on,58,60,0
2,note_on,61,60,0
2,note_on,64,71,0
2,note_on,64,0,120
2,note_on,54,0,0
2,note_on,58,0,0
2,note_on,61,0,0
2,note_on,64,59,120
2,note_on,61,49,0
2,note_on,58,49,0
2,note_on,54,49,0
2,note_on,54,0,120
2,note_on,64,0,0
2,note_on,61,0,0
2,note_on,58,0,0
2,note_on,64,59,120
2,note_on,61,49,0
2,note_on,58,49,0
2,note_on,54,49,0
2,note_on,54,0,120
2,note_on,64,0,0
2,note_on,61,0,0
2,note_on,58,0,0
2,note_on,64,59,120
2,note_on,61,49,0
2,note_on,58,49,0
2,note_on,54,49,0
2,note_on,54,0,120
2,note_on,64,0,0
2,note_on,61,0,0
2,note_on,58,0,0
2,note_on,64,59,120
2,note_on,61,49,0
2,note_on,58,49,0
2,note_on,54,49,0
2,note_on,54,0,120
2,note_on,64,0,0
2,note_on,61,0,0
2,note_on,58,0,0
2,note_on,64,59,120
2,note_on,61,49,0
2,note_on,58,49,0
2,note_on,54,49,0
2,note_on,54,0,120
2,note_on,64,0,0
2,note_on,61,0,0
2,note_on,58,0,0
2,note_on,64,64,120
2,note_on,61,53,0
2,note_on,58,53,0
2,note_on,54,53,0
2,note_on,54,0,120
2,note_on,64,0,0
2,note_on,61,0,0
2,note_on,58,0,0
2,note_on,54,51,120
2,note_on,58,51,0
2,note_on,61,51,0
2,note_on,64,60,0
2,note_on,64,0,120
2,note_on,54,0,0
2,note_on,58,0,0
2,note_on,61,0,0
2,note_on,54,47,120
2,note_on,58,47,0
2,note_on,61,47,0
2,note_on,64,57,0
2,note_on,64,0,120
2,note_on,54,0,0
2,note_on,58,0,0
2,note_on,61,0,0
2,note_on,54,44,120
2,note_on,58,44,0
2,note_on,61,44,0
2,note_on,64,52,0
2,note_on,64,0,120
2,note_on,54,0,0
2,note_on,58,0,0
2,note_on,61,0,0
2,note_on,54,39,120
2,note_on,58,39,0
2,note_on,61,39,0
2,note_on,64,47,0
2,note_on,64,0,120
2,note_on,54,0,0
2,note_on,58,0,0
2,note_on,61,0,0
2,note_on,54,39,120
2,note_on,58,39,0
2,note_on,61,39,0
2,note_on,64,46,0
2,note_on,64,0,120
2,note_on,54,0,0
2,note_on,58,0,0
2,note_on,61,0,0
2,note_on,47,40,120
2,note_on,47,0,120
2,note_on,62,34,0
2,note_on,62,0,120
2,note_on,54,37,0
2,note_on,54,0,120
2,note_on,62,34,0
2,note_on,62,0,120
2,note_on,49,40,0
2,note_on,49,0,120
2,note_on,64,34,0
2,note_on,64,0,120
2,note_on,54,37,0
2,note_on,54,0,120
2,note_on,64,34,0
2,note_on,64,0,120
2,note_on,50,40,0
2,note_on,50,0,120
2,note_on,66,35,0
2,note_on,66,0,120
2,note_on,54,38,0
2,note_on,54,0,120
2,note_on,66,35,0
2,note_on,66,0,120
2,note_on,47,40,0
2,note_on,47,0,120
2,note_on,62,34,0
2,note_on,62,0,120
2,note_on,54,37,0
2,note_on,54,0,120
2,note_on,62,34,0
2,note_on,62,0,120
2,note_on,49,40,0
2,note_on,49,0,120
2,note_on,64,34,0
2,note_on,64,0,120
2,note_on,54,37,0
2,note_on,54,0,120
2,note_on,64,34,0
2,note_on,64,0,120
2,note_on,50,40,0
2,note_on,50,0,120
2,note_on,66,35,0
2,note_on,66,0,120
2,note_on,54,38,0
2,note_on,54,0,120
2,note_on,66,35,0
2,note_on,66,0,120
2,note_on,47,40,0
2,note_on,47,0,120
2,note_on,62,34,0
2,note_on,62,0,120
2,note_on,54,37,0
2,note_on,54,0,120
2,note_on,62,34,0
2,note_on,62,0,120
2,note_on,49,40,0
2,note_on,49,0,120
2,note_on,64,34,0
2,note_on,64,0,120
2,note_on,54,37,0
2,note_on,54,0,120
2,note_on,64,34,0
2,note_on,64,0,120
2,note_on,50,40,0
2,note_on,50,0,120
2,note_on,66,35,0
2,note_on,66,0,120
2,note_on,54,38,0
2,note_on,54,0,120
2,note_on,66,35,0
2,note_on,66,0,120
2,note_on,47,40,0
2,note_on,47,0,120
2,note_on,62,34,0
2,note_on,62,0,120
2,note_on,54,37,0
2,note_on,54,0,120
2,note_on,62,34,0
2,note_on,62,0,120
2,note_on,49,40,0
2,note_on,49,0,120
2,note_on,64,34,0
2,note_on,64,0,120
2,note_on,54,37,0
2,note_on,54,0,120
2,note_on,64,34,0
2,note_on,64,0,120
2,note_on,50,40,0
2,note_on,50,0,120
2,note_on,66,35,0
2,note_on,66,0,120
2,note_on,54,38,0
2,note_on,54,0,120
2,note_on,66,35,0
2,note_on,66,0,120
2,note_on,52,40,0
2,note_on,52,0,120
2,note_on,62,34,0
2,note_on,62,0,120
2,note_on,59,37,0
2,note_on,59,0,120
2,note_on,62,34,0
2,note_on,62,0,120
2,note_on,53,49,0
2,note_on,53,0,120
2,note_on,62,34,0
2,note_on,62,0,120
2,note_on,59,42,0
2,note_on,59,0,120
2,note_on,62,34,0
2,note_on,62,0,120
2,note_on,54,48,0
2,note_on,54,0,120
2,note_on,62,35,0
2,note_on,62,0,120
2,note_on,59,38,0
2,note_on,59,0,120
2,note_on,62,38,0
2,note_on,62,0,120
2,note_on,54,51,0
2,note_on,54,0,120
2,note_on,62,39,0
2,note_on,62,0,120
2,note_on,59,42,0
2,note_on,59,0,120
2,note_on,62,39,0
2,note_on,62,0,120
2,note_on,54,48,0
2,note_on,54,0,120
2,note_on,62,38,0
2,note_on,62,0,120
2,note_on,59,39,0
2,note_on,59,0,120
2,note_on,62,38,0
2,note_on,62,0,120
2,note_on,54,45,0
2,note_on,54,0,120
2,note_on,64,41,0
2,note_on,64,0,120
2,note_on,61,45,0
2,note_on,61,0,120
2,note_on,64,40,0
2,note_on,64,0,120
2,note_on,47,40,0
2,note_on,47,0,120
2,note_on,62,36,0
2,note_on,62,0,120
2,note_on,54,41,0
2,note_on,54,0,120
2,note_on,62,40,0
2,note_on,62,0,120
2,note_on,49,50,0
2,note_on,49,0,120
2,note_on,64,41,0
2,note_on,64,0,120
2,note_on,54,44,0
2,note_on,54,0,120
2,note_on,64,39,0
2,note_on,64,0,120
2,note_on,50,45,0
2,note_on,50,0,120
2,note_on,66,38,0
2,note_on,66,0,120
2,note_on,54,40,0
2,note_on,54,0,120
2,note_on,66,36,0
2,note_on,66,0,120
2,note_on,47,40,0
2,note_on,47,0,120
2,note_on,62,36,0
2,note_on,62,0,120
2,note_on,54,41,0
2,note_on,54,0,120
2,note_on,62,40,0
2,note_on,62,0,120
2,note_on,49,50,0
2,note_on,49,0,120
2,note_on,64,41,0
2,note_on,64,0,120
2,note_on,54,44,0
2,note_on,54,0,120
2,note_on,64,39,0
2,note_on,64,0,120
2,note_on,50,45,0
2,note_on,50,0,120
2,note_on,66,38,0
2,note_on,66,0,120
2,note_on,54,40,0
2,note_on,54,0,120
2,note_on,66,36,0
2,note_on,66,0,120
2,note_on,47,40,0
2,note_on,47,0,120
2,note_on,62,36,0
2,note_on,62,0,120
2,note_on,54,41,0
2,note_on,54,0,120
2,note_on,62,40,0
2,note_on,62,0,120
2,note_on,49,50,0
2,note_on,49,0,120
2,note_on,64,41,0
2,note_on,64,0,120
2,note_on,54,44,0
2,note_on,54,0,120
2,note_on,64,39,0
2,note_on,64,0,120
2,note_on,50,45,0
2,note_on,50,0,120
2,note_on,66,38,0
2,note_on,66,0,120
2,note_on,54,40,0
2,note_on,54,0,120
2,note_on,66,36,0
2,note_on,66,0,120
2,note_on,47,40,0
2,note_on,47,0,120
2,note_on,62,36,0
2,note_on,62,0,120
2,note_on,54,41,0
2,note_on,54,0,120
2,note_on,62,40,0
2,note_on,62,0,120
2,note_on,49,50,0
2,note_on,49,0,120
2,note_on,64,41,0
2,note_on,64,0,120
2,note_on,54,44,0
2,note_on,54,0,120
2,note_on,64,39,0
2,note_on,64,0,120
2,note_on,50,45,0
2,note_on,50,0,120
2,note_on,66,38,0
2,note_on,66,0,120
2,note_on,54,40,0
2,note_on,54,0,120
2,note_on,66,36,0
2,note_on,66,0,120
2,note_on,52,40,0
2,note_on,52,0,120
2,note_on,62,34,0
2,note_on,62,0,120
2,note_on,59,37,0
2,note_on,59,0,120
2,note_on,62,34,0
2,note_on,62,0,120
2,note_on,53,49,0
2,note_on,53,0,120
2,note_on,62,34,0
2,note_on,62,0,120
2,note_on,59,42,0
2,note_on,59,0,120
2,note_on,62,34,0
2,note_on,62,0,120
2,note_on,54,48,0
2,note_on,54,0,120
2,note_on,62,35,0
2,note_on,62,0,120
2,note_on,59,38,0
2,note_on,59,0,120
2,note_on,62,38,0
2,note_on,62,0,120
2,note_on,54,53,0
2,note_on,54,0,950
2,note_on,42,57,10
2,note_on,30,48,0
2,note_on,30,0,480
2,note_on,42,0,0
2,note_on,47,93,0
2,note_on,35,79,0
2,note_on,35,0,120
2,note_on,47,0,0
2,note_on,49,81,120
2,note_on,37,69,0
2,note_on,37,0,120
2,note_on,49,0,0
2,note_on,50,81,120
2,note_on,38,69,0
2,note_on,38,0,120
2,note_on,50,0,0
2,note_on,52,88,120
2,note_on,40,72,0
2,note_on,40,0,120
2,note_on,52,0,0
2,note_on,54,94,120
2,note_on,42,80,0
2,note_on,42,0,1920
2,note_on,54,0,0
2,note_on,40,37,0
2,note_on,52,44,0
2,note_on,52,0,1440
2,note_on,40,0,0
2,note_on,54,43,0
2,note_on,42,36,0
2,note_on,42,0,1440
2,note_on,54,0,0
2,note_on,47,93,0
2,note_on,35,79,0
2,note_on,35,0,120
2,note_on,47,0,0
2,note_on,49,81,120
2,note_on,37,69,0
2,note_on,37,0,120
2,note_on,49,0,0
2,note_on,50,81,120
2,note_on,38,69,0
2,note_on,38,0,120
2,note_on,50,0,0
2,note_on,52,88,120
2,note_on,40,72,0
2,note_on,40,0,120
2,note_on,52,0,0
2,note_on,54,94,120
2,note_on,42,80,0
2,note_on,42,0,1920
2,note_on,54,0,0
2,note_on,40,37,0
2,note_on,52,44,0
2,note_on,52,0,1440
2,note_on,40,0,0
2,note_on,42,24,0
2,note_on,54,29,0
2,note_on,54,0,1440
2,note_on,42,0,0
2,note_on,47,23,1440
2,note_on,35,19,0
2,note_on,35,0,1440
2,note_on,47,0,0
2,note_on,42,23,1440
2,note_on,30,19,0
2,note_on,30,0,1440
2,note_on,42,0,0
2,note_on,35,19,0
2,note_on,47,23,0
2,note_on,47,0,480
2,note_on,35,0,0
2,note_on,35,19,960
2,note_on,47,23,0
2,note_on,47,0,480
2,note_on,35,0,0
2,note_on,35,19,960
2,note_on,47,23,0
2,note_on,47,0,480
2,note_on,35,0,0
2,note_on,69,30,4800
2,note_on,66,25,0
2,note_on,66,0,120
2,note_on,69,0,0
2,note_on,66,28,360
2,note_on,69,34,0
2,note_on,69,0,480
2,note_on,66,0,0
2,note_on,69,31,480
2,note_on,66,26,0
2,note_on,66,0,120
2,note_on,69,0,0
2,note_on,64,28,360
2,note_on,67,34,0
2,note_on,67,0,480
2,note_on,64,0,0
2,note_on,67,31,480
2,note_on,64,26,0
2,note_on,64,0,480
2,note_on,67,0,0
2,note_on,62,28,0
2,note_on,65,34,0
2,note_on,65,0,480
2,note_on,62,0,0
2,note_on,65,30,480
2,note_on,62,25,0
2,note_on,62,0,240
2,note_on,65,0,0
2,note_on,60,28,240
2,note_on,64,34,0
2,note_on,64,0,240
2,note_on,60,0,0
2,note_on,64,30,0
2,note_on,64,0,120
2,note_on,64,30,120
2,note_on,64,0,120
2,note_on,64,30,120
2,note_on,64,0,120
2,note_on,64,39,120
2,note_on,64,0,120
2,note_on,64,37,120
2,note_on,64,0,120
2,note_on,64,40,120
2,note_on,57,33,0
2,note_on,60,40,0
2,note_on,64,0,120
2,note_on,64,36,120
2,note_on,64,0,120
2,note_on,60,0,120
2,note_on,57,0,0
2,note_on,64,37,0
2,note_on,64,0,120
2,note_on,64,38,120
2,note_on,64,0,120
2,note_on,64,39,120
2,note_on,60,41,0
2,note_on,57,34,0
2,note_on,57,0,120
2,note_on,60,0,0
2,note_on,64,0,0
2,note_on,64,40,120
2,note_on,64,0,120
2,note_on,65,47,120
2,note_on,56,38,0
2,note_on,59,47,0
2,note_on,65,0,120
2,note_on,65,42,120
2,note_on,65,0,120
2,note_on,59,0,120
2,note_on,56,0,0
2,note_on,65,43,0
2,note_on,65,0,120
2,note_on,65,45,120
2,note_on,65,0,120
2,note_on,56,47,120
2,note_on,59,47,0
2,note_on,65,52,0
2,note_on,65,0,120
2,note_on,59,0,0
2,note_on,56,0,0
2,note_on,65,50,120
2,note_on,65,0,120
2,note_on,65,53,120
2,note_on,56,45,0
2,note_on,58,53,0
2,note_on,65,0,120
2,note_on,65,49,120
2,note_on,65,0,120
2,note_on,58,0,120
2,note_on,56,0,0
2,note_on,65,49,0
2,note_on,65,0,120
2,note_on,65,50,120
2,note_on,65,0,120
2,note_on,65,51,120
2,note_on,58,53,0
2,note_on,56,44,0
2,note_on,56,0,120
2,note_on,58,0,0
2,note_on,65,0,0
2,note_on,65,52,120
2,note_on,65,0,120
2,note_on,55,56,120
2,note_on,58,56,0
2,note_on,63,67,0
2,note_on,63,0,120
2,note_on,58,0,0
2,note_on,55,0,0
2,note_on,63,61,120
2,note_on,58,51,0
2,note_on,55,51,0
2,note_on,55,0,120
2,note_on,58,0,0
2,note_on,63,0,0
2,note_on,63,61,120
2,note_on,58,51,0
2,note_on,55,51,0
2,note_on,55,0,120
2,note_on,58,0,0
2,note_on,63,0,0
2,note_on,63,61,120
2,note_on,58,51,0
2,note_on,55,51,0
2,note_on,55,0,120
2,note_on,58,0,0
2,note_on,63,0,0
2,note_on,63,61,120
2,note_on,58,51,0
2,note_on,55,51,0
2,note_on,55,0,120
2,note_on,58,0,0
2,note_on,63,0,0
2,note_on,63,61,120
2,note_on,58,51,0
2,note_on,55,51,0
2,note_on,55,0,120
2,note_on,58,0,0
2,note_on,63,0,0
2,note_on,54,56,120
2,note_on,58,56,0
2,note_on,58,0,120
2,note_on,54,0,0
2,note_on,58,51,120
2,note_on,54,51,0
2,note_on,54,0,120
2,note_on,58,0,0
2,note_on,58,51,120
2,note_on,54,51,0
2,note_on,54,0,120
2,note_on,58,0,0
2,note_on,58,51,120
2,note_on,54,51,0
2,note_on,54,0,120
2,note_on,58,0,0
2,note_on,58,51,120
2,note_on,54,51,0
2,note_on,54,0,120
2,note_on,58,0,0
2,note_on,58,52,120
2,note_on,54,52,0
2,note_on,54,0,120
2,note_on,58,0,0
2,note_on,51,47,120
2,note_on,54,57,0
2,note_on,54,0,120
2,note_on,51,0,0
2,note_on,54,52,120
2,note_on,51,43,0
2,note_on,51,0,120
2,note_on,54,0,0
2,note_on,54,52,120
2,note_on,51,44,0
2,note_on,51,0,120
2,note_on,54,0,0
2,note_on,54,52,120
2,note_on,51,44,0
2,note_on,51,0,120
2,note_on,54,0,0
2,note_on,54,53,120
2,note_on,51,44,0
2,note_on,51,0,120
2,note_on,54,0,0
2,note_on,54,53,120
2,note_on,51,44,0
2,note_on,51,0,120
2,note_on,54,0,0
2,note_on,51,58,120
2,note_on,48,49,6
2,note_on,51,0,114
2,note_on,48,0,6
2,note_on,51,53,114
2,note_on,48,45,0
2,note_on,48,0,120
2,note_on,51,0,0
2,note_on,51,53,120
2,note_on,48,45,0
2,note_on,48,0,120
2,note_on,51,0,0
2,note_on,51,54,120
2,note_on,48,45,0
2,note_on,48,0,120
2,note_on,51,0,0
2,note_on,51,54,120
2,note_on,48,45,0
2,note_on,48,0,120
2,note_on,51,0,0
2,note_on,51,54,120
2,note_on,48,46,0
2,note_on,48,0,120
2,note_on,51,0,0
2,note_on,45,50,120
2,note_on,48,59,0
2,note_on,48,0,120
2,note_on,45,0,0
2,note_on,48,54,120
2,note_on,45,46,0
2,note_on,45,0,120
2,note_on,48,0,0
2,note_on,48,55,120
2,note_on,45,46,0
2,note_on,45,0,120
2,note_on,48,0,0
2,note_on,48,55,120
2,note_on,45,46,0
2,note_on,45,0,120
2,note_on,48,0,0
2,note_on,48,55,120
2,note_on,45,46,0
2,note_on,45,0,120
2,note_on,48,0,0
2,note_on,48,55,120
2,note_on,45,46,0
2,note_on,45,0,120
2,note_on,48,0,0
2,note_on,42,61,120
2,note_on,45,61,0
2,note_on,48,61,0
2,note_on,48,0,120
2,note_on,45,0,0
2,note_on,42,0,0
2,note_on,42,56,120
2,note_on,48,56,0
2,note_on,45,56,0
2,note_on,45,0,120
2,note_on,48,0,0
2,note_on,42,0,0
2,note_on,42,56,120
2,note_on,48,56,0
2,note_on,45,56,0
2,note_on,45,0,120
2,note_on,48,0,0
2,note_on,42,0,0
2,note_on,42,56,120
2,note_on,48,56,0
2,note_on,45,56,0
2,note_on,45,0,120
2,note_on,48,0,0
2,note_on,42,0,0
2,note_on,42,56,120
2,note_on,48,56,0
2,note_on,45,56,0
2,note_on,45,0,120
2,note_on,48,0,0
2,note_on,42,0,0
2,note_on,42,57,120
2,note_on,48,57,0
2,note_on,45,57,0
2,note_on,45,0,120
2,note_on,48,0,0
2,note_on,42,0,0
2,note_on,39,52,120
2,note_on,42,52,0
2,note_on,45,52,0
2,note_on,48,62,0
2,note_on,48,0,120
2,note_on,39,0,0
2,note_on,42,0,0
2,note_on,45,0,0
2,note_on,39,48,120
2,note_on,42,48,0
2,note_on,48,57,0
2,note_on,45,48,0
2,note_on,45,0,120
2,note_on,39,0,0
2,note_on,42,0,0
2,note_on,48,0,0
2,note_on,39,48,120
2,note_on,42,48,0
2,note_on,48,57,0
2,note_on,45,48,0
2,note_on,45,0,120
2,note_on,39,0,0
2,note_on,42,0,0
2,note_on,48,0,0
2,note_on,39,48,120
2,note_on,42,48,0
2,note_on,48,57,0
2,note_on,45,48,0
2,note_on,45,0,120
2,note_on,39,0,0
2,note_on,42,0,0
2,note_on,48,0,0
2,note_on,39,49,120
2,note_on,42,49,0
2,note_on,48,58,0
2,note_on,45,49,0
2,note_on,45,0,120
2,note_on,39,0,0
2,note_on,42,0,0
2,note_on,48,0,0
2,note_on,39,49,120
2,note_on,42,49,0
2,note_on,48,58,0
2,note_on,45,49,0
2,note_on,45,0,120
2,note_on,39,0,0
2,note_on,42,0,0
2,note_on,48,0,0
2,note_on,38,54,120
2,note_on,42,54,0
2,note_on,45,54,0
2,note_on,48,64,0
2,note_on,48,0,120
2,note_on,38,0,0
2,note_on,42,0,0
2,note_on,45,0,0
2,note_on,38,49,120
2,note_on,42,49,0
2,note_on,48,58,0
2,note_on,45,49,0
2,note_on,45,0,120
2,note_on,38,0,0
2,note_on,42,0,0
2,note_on,48,0,0
2,note_on,38,49,120
2,note_on,42,49,0
2,note_on,48,58,0
2,note_on,45,49,0
2,note_on,45,0,120
2,note_on,38,0,0
2,note_on,42,0,0
2,note_on,48,0,0
2,note_on,38,49,120
2,note_on,42,49,0
2,note_on,48,58,0
2,note_on,45,49,0
2,note_on,45,0,120
2,note_on,38,0,0
2,note_on,42,0,0
2,note_on,48,0,0
2,note_on,38,49,120
2,note_on,42,49,0
2,note_on,48,58,0
2,note_on,45,49,0
2,note_on,45,0,120
2,note_on,38,0,0
2,note_on,42,0,0
2,note_on,48,0,0
2,note_on,38,49,120
2,note_on,42,49,0
2,note_on,48,58,0
2,note_on,45,49,0
2,note_on,45,0,120
2,note_on,38,0,0
2,note_on,42,0,0
2,note_on,48,0,0
2,note_on,43,73,120
2,note_on,31,57,0
2,note_on,31,0,120
2,note_on,43,0,0
2,note_on,31,54,120
2,note_on,43,64,0
2,note_on,43,0,120
2,note_on,31,0,0
2,note_on,43,69,120
2,note_on,31,54,0
2,note_on,31,0,120
2,note_on,43,0,0
2,note_on,43,31,1080
2,note_on,31,22,0
2,note_on,31,0,120
2,note_on,43,0,0
2,note_on,31,24,120
2,note_on,43,35,0
2,note_on,43,0,120
2,note_on,31,0,0
2,note_on,43,31,1080
2,note_on,31,22,0
2,note_on,31,0,120
2,note_on,43,0,0
2,note_on,31,24,120
2,note_on,43,35,0
2,note_on,43,0,120
2,note_on,31,0,0
2,note_on,31,26,1080
2,note_on,43,31,0
2,note_on,43,0,120
2,note_on,31,0,0
2,note_on,31,26,360
2,note_on,43,31,0
2,note_on,43,0,120
2,note_on,31,0,0
2,note_on,31,26,360
2,note_on,43,31,0
2,note_on,43,0,120
2,note_on,31,0,0
2,note_on,43,34,360
2,note_on,31,28,0
2,note_on,31,0,120
2,note_on,43,0,0
2,note_on,45,38,360
2,note_on,33,32,0
2,note_on,33,0,120
2,note_on,45,0,0
2,note_on,47,39,360
2,note_on,35,33,0
2,note_on,35,0,120
2,note_on,47,0,0
2,note_on,48,39,360
2,note_on,36,33,0
2,note_on,36,0,120
2,note_on,48,0,0
2,note_on,37,34,360
2,note_on,49,40,0
2,note_on,49,0,120
2,note_on,37,0,0
2,note_on,38,34,360
2,note_on,50,41,0
2,note_on,50,0,120
2,note_on,38,0,0
2,note_on,39,35,360
2,note_on,51,42,0
2,note_on,51,0,120
2,note_on,39,0,0
2,note_on,40,39,360
2,note_on,52,46,0
2,note_on,52,0,120
2,note_on,40,0,0
2,note_on,41,40,360
2,note_on,53,48,0
2,note_on,53,0,120
2,note_on,41,0,0
2,note_on,54,35,360
2,note_on,42,29,0
2,note_on,42,0,120
2,note_on,54,0,0
2,note_on,55,30,360
2,note_on,43,25,0
2,note_on,43,0,120
2,note_on,55,0,0
2,note_on,55,26,360
2,note_on,43,22,0
2,note_on,43,0,120
2,note_on,55,0,0
2,note_on,65,26,1560
2,note_on,65,0,950
2,note_on,59,26,10
2,note_on,65,26,0
2,note_on,65,0,480
2,note_on,59,0,0
2,note_on,60,33,0
2,note_on,64,33,0
2,note_on,64,0,480
2,note_on,60,0,0
2,note_on,60,26,0
2,note_on,60,0,480
2,note_on,61,26,0
2,note_on,61,0,480
2,note_on,62,33,0
2,note_on,62,0,480
2,note_on,57,26,0
2,note_on,57,0,480
2,note_on,58,26,0
2,note_on,58,0,470
2,note_on,59,32,10
2,note_on,59,0,480
2,note_on,55,26,0
2,note_on,55,0,480
2,note_on,62,26,0
2,note_on,62,0,480
2,note_on,61,31,0
2,note_on,61,0,480
2,note_on,60,26,0
2,note_on,60,0,450
2,note_on,58,26,30
2,note_on,60,26,0
2,note_on,58,0,480
2,note_on,57,43,0
2,note_on,57,0,480
2,note_on,60,0,0
2,note_on,65,48,0
2,note_on,53,48,0
2,note_on,53,0,480
2,note_on,65,0,0
2,note_on,62,42,0
2,note_on,54,42,0
2,note_on,54,0,480
2,note_on,62,0,0
2,note_on,60,47,0
2,note_on,55,47,0
2,note_on,55,0,480
2,note_on,60,0,0
2,note_on,58,47,0
2,note_on,50,47,0
2,note_on,50,0,470
2,note_on,58,0,0
2,note_on,53,43,10
2,note_on,58,43,0
2,note_on,53,0,480
2,note_on,52,41,0
2,note_on,52,0,480
2,note_on,58,0,0
2,note_on,67,51,0
2,note_on,67,0,480
2,note_on,48,44,0
2,note_on,58,44,0
2,note_on,48,0,480
2,note_on,53,49,0
2,note_on,53,0,480
2,note_on,58,0,0
2,note_on,53,44,0
2,note_on,57,44,0
2,note_on,57,0,480
2,note_on,53,0,0
2,note_on,45,50,0
2,note_on,45,0,960
2,note_on,50,56,0
2,note_on,50,0,480
2,note_on,46,48,0
2,note_on,46,0,480
2,note_on,45,58,0
2,note_on,45,0,480
2,note_on,44,50,0
2,note_on,44,0,470
2,note_on,44,58,10
2,note_on,44,0,960
2,note_on,52,57,0
2,note_on,44,50,480
2,note_on,44,0,480
2,note_on,52,0,0
2,note_on,45,55,0
2,note_on,45,0,480
2,note_on,52,59,0
2,note_on,45,51,480
2,note_on,45,0,480
2,note_on,52,0,0
2,note_on,47,56,0
2,note_on,47,0,480
2,note_on,52,62,0
2,note_on,47,57,480
2,note_on,47,0,480
2,note_on,52,0,0
2,note_on,48,61,0
2,note_on,48,0,480
2,note_on,52,68,0
2,note_on,48,59,480
2,note_on,48,0,480
2,note_on,52,0,0
2,note_on,51,64,0
2,note_on,51,0,480
2,note_on,59,68,0
2,note_on,51,63,480
2,note_on,51,0,480
2,note_on,59,0,0
2,note_on,52,67,0
2,note_on,52,0,480
2,note_on,60,73,0
2,note_on,52,63,480
2,note_on,52,0,480
2,note_on,60,0,0
2,note_on,54,68,0
2,note_on,54,0,480
2,note_on,63,76,0
2,note_on,54,70,480
2,note_on,54,0,480
2,note_on,63,0,0
2,note_on,55,74,0
2,note_on,55,0,480
2,note_on,64,78,0
2,note_on,55,75,480
2,note_on,55,0,480
2,note_on,64,0,0
2,note_on,57,77,0
2,note_on,57,0,480
2,note_on,66,85,0
2,note_on,57,81,480
2,note_on,57,0,480
2,note_on,66,0,0
2,note_on,58,83,0
2,note_on,58,0,480
2,note_on,67,90,0
2,note_on,58,88,480
2,note_on,58,0,480
2,note_on,67,0,0
2,note_on,59,99,0
2,note_on,64,85,480
2,note_on,64,0,480
2,note_on,67,85,0
2,note_on,67,0,480
2,note_on,59,0,0
2,note_on,71,96,0
2,note_on,71,0,480
2,note_on,76,85,0
2,note_on,76,0,480
2,note_on,79,85,0
2,note_on,79,0,480
2,note_on,79,86,480
2,note_on,79,0,120
2,note_on,78,79,0
2,note_on,78,0,120
2,note_on,76,79,0
2,note_on,76,0,120
2,note_on,75,74,0
2,note_on,75,0,120
2,note_on,76,85,0
2,note_on,76,0,240
2,note_on,79,50,720
2,note_on,79,0,240
2,note_on,78,41,0
2,note_on,78,0,240
2,note_on,76,45,0
2,note_on,76,0,240
2,note_on,75,42,0
2,note_on,75,0,240
2,note_on,76,50,0
2,note_on,76,0,480
2,note_on,79,41,480
2,note_on,79,0,480
2,note_on,78,46,0
2,note_on,78,0,480
2,note_on,76,39,0
2,note_on,76,0,480
2,note_on,75,39,0
2,note_on,75,0,480
2,note_on,76,45,0
2,note_on,76,0,480
2,note_on,79,40,960
2,note_on,79,0,960
2,note_on,78,37,0
2,note_on,78,0,960
2,note_on,76,41,0
2,note_on,76,0,480
2,note_on,67,51,480
2,note_on,67,0,960
2,note_on,66,59,0
2,note_on,66,0,240
2,note_on,64,42,0
2,note_on,64,0,230
2,note_on,64,50,10
2,note_on,64,0,480
2,note_on,67,39,480
2,note_on,67,0,480
2,note_on,66,39,0
2,note_on,66,0,240
2,note_on,64,39,0
2,note_on,64,0,230
2,note_on,64,39,10
2,note_on,64,0,240
2,note_on,79,55,480
2,note_on,79,0,240
2,note_on,78,61,0
2,note_on,78,0,240
2,note_on,76,56,0
2,note_on,76,0,240
2,note_on,79,58,240
2,note_on,79,0,240
2,note_on,78,65,0
2,note_on,78,0,240
2,note_on,76,61,0
2,note_on,76,0,240
2,note_on,55,71,240
2,note_on,55,0,240
2,note_on,54,77,0
2,note_on,54,0,240
2,note_on,52,74,0
2,note_on,52,0,120
2,note_on,40,70,120
2,note_on,52,70,0
2,note_on,52,0,120
2,note_on,40,0,0
2,note_on,40,61,360
2,note_on,52,72,0
2,note_on,52,0,960
2,note_on,40,0,0
2,note_on,52,63,0
2,note_on,40,53,0
2,note_on,40,0,120
2,note_on,52,0,0
2,note_on,38,61,360
2,note_on,50,72,0
2,note_on,50,0,240
2,note_on,38,0,0
2,note_on,62,29,720
2,note_on,62,0,480
2,note_on,60,30,0
2,note_on,62,36,0
2,note_on,62,0,720
2,note_on,60,0,0
2,note_on,62,31,0
2,note_on,59,26,0
2,note_on,59,0,240
2,note_on,62,0,0
2,note_on,57,24,0
2,note_on,60,28,0
2,note_on,60,0,360
2,note_on,57,0,0
2,note_on,55,30,120
2,note_on,59,36,0
2,note_on,59,0,360
2,note_on,55,0,0
2,note_on,55,63,600
2,note_on,43,53,0
2,note_on,43,0,120
2,note_on,55,0,0
2,note_on,43,61,360
2,note_on,55,72,0
2,note_on,55,0,960
2,note_on,43,0,0
2,note_on,43,63,0
2,note_on,31,53,0
2,note_on,31,0,120
2,note_on,43,0,0
2,note_on,30,61,360
2,note_on,42,72,0
2,note_on,42,0,240
2,note_on,30,0,0
2,note_on,66,29,720
2,note_on,66,0,480
2,note_on,64,30,0
2,note_on,66,36,0
2,note_on,66,0,720
2,note_on,64,0,0
2,note_on,66,31,0
2,note_on,62,26,0
2,note_on,62,0,240
2,note_on,66,0,0
2,note_on,61,24,0
2,note_on,64,28,0
2,note_on,64,0,360
2,note_on,61,0,0
2,note_on,59,30,120
2,note_on,62,36,0
2,note_on,62,0,360
2,note_on,59,0,0
2,note_on,62,38,1080
2,note_on,59,38,0
2,note_on,67,45,0
2,note_on,62,0,960
2,note_on,64,50,0
2,note_on,59,0,480
2,note_on,57,39,0
2,note_on,57,0,960
2,note_on,64,0,0
2,note_on,67,0,0
2,note_on,66,38,0
2,note_on,63,32,0
2,note_on,63,0,480
2,note_on,62,34,0
2,note_on,62,0,960
2,note_on,66,0,0
2,note_on,66,46,0
2,note_on,66,0,480
2,note_on,67,46,0
2,note_on,67,0,960
2,note_on,55,45,0
2,note_on,55,0,480
2,note_on,52,49,0
2,note_on,52,0,960
2,note_on,64,41,0
2,note_on,64,0,480
2,note_on,60,40,0
2,note_on,60,0,960
2,note_on,48,28,0
2,note_on,36,28,480
2,note_on,36,0,1440
2,note_on,48,0,0
2,note_on,47,28,0
2,note_on,35,24,0
2,note_on,35,0,864
2,note_on,47,0,0
2,note_on,59,34,576
2,note_on,43,28,0
2,note_on,52,28,0
2,note_on,43,0,1440
2,note_on,59,0,0
2,note_on,45,39,0
2,note_on,45,0,960
2,note_on,46,43,0
2,note_on,46,0,480
2,note_on,52,0,0
2,note_on,47,49,0
2,note_on,47,0,1440
2,note_on,55,29,0
2,note_on,48,24,0
2,note_on,48,0,960
2,note_on,55,0,0
2,note_on,47,32,0
2,note_on,47,0,240
2,note_on,45,35,0
2,note_on,45,0,240
2,note_on,52,39,0
2,note_on,43,39,0
2,note_on,59,39,0
2,note_on,43,0,960
2,note_on,44,37,0
2,note_on,44,0,480
2,note_on,59,0,0
2,note_on,45,39,0
2,note_on,45,0,960
2,note_on,46,34,0
2,note_on,46,0,480
2,note_on,52,0,0
2,note_on,35,29,0
2,note_on,47,38,0
2,note_on,47,0,1440
2,note_on,35,0,0
2,note_on,52,22,0
2,note_on,40,18,0
2,note_on,40,0,480
2,note_on,52,0,0
2,note_on,31,25,480
2,note_on,43,30,0
2,note_on,43,0,120
2,note_on,31,0,0
2,note_on,31,28,360
2,note_on,43,34,0
2,note_on,43,0,960
2,note_on,31,0,0
2,note_on,36,25,0
2,note_on,48,30,0
2,note_on,48,0,120
2,note_on,36,0,0
2,note_on,36,28,360
2,note_on,48,34,0
2,note_on,48,0,960
2,note_on,36,0,0
2,note_on,43,25,0
2,note_on,55,30,0
2,note_on,55,0,120
2,note_on,43,0,0
2,note_on,43,28,360
2,note_on,55,34,0
2,note_on,55,0,960
2,note_on,43,0,0
2,note_on,48,25,0
2,note_on,60,30,0
2,note_on,60,0,120
2,note_on,48,0,0
2,note_on,48,28,360
2,note_on,60,34,0
2,note_on,60,0,960
2,note_on,48,0,0
2,note_on,59,54,0
2,note_on,62,54,0
2,note_on,65,54,0
2,note_on,67,65,0
2,note_on,67,0,120
2,note_on,59,0,0
2,note_on,62,0,0
2,note_on,65,0,0
2,note_on,59,59,360
2,note_on,62,59,0
2,note_on,65,59,0
2,note_on,67,71,0
2,note_on,67,0,720
2,note_on,59,0,0
2,note_on,62,0,0
2,note_on,65,0,0
2,note_on,47,29,3120
2,note_on,35,24,0
2,note_on,35,0,120
2,note_on,47,0,0
2,note_on,36,29,360
2,note_on,48,35,0
2,note_on,48,0,240
2,note_on,36,0,0
2,note_on,52,59,720
2,note_on,56,59,0
2,note_on,59,59,0
2,note_on,62,71,0
2,note_on,62,0,120
2,note_on,52,0,0
2,note_on,56,0,0
2,note_on,59,0,0
2,note_on,52,65,360
2,note_on,56,65,0
2,note_on,59,65,0
2,note_on,62,77,0
2,note_on,62,0,720
2,note_on,52,0,0
2,note_on,56,0,0
2,note_on,59,0,0
2,note_on,44,29,3120
2,note_on,32,24,0
2,note_on,32,0,120
2,note_on,44,0,0
2,note_on,33,29,360
2,note_on,45,35,0
2,note_on,45,0,240
2,note_on,33,0,0
2,note_on,41,31,720
2,note_on,48,31,0
2,note_on,57,37,0
2,note_on,57,0,240
2,note_on,48,0,0
2,note_on,41,0,0
2,note_on,41,31,240
2,note_on,48,31,0
2,note_on,57,37,0
2,note_on,57,0,2390
2,note_on,48,0,0
2,note_on,41,0,0
2,note_on,41,31,10
2,note_on,48,36,0
2,note_on,48,0,480
2,note_on,41,0,0
2,note_on,41,31,0
2,note_on,48,36,0
2,note_on,48,0,960
2,note_on,41,0,0
2,note_on,48,40,0
2,note_on,41,34,0
2,note_on,41,0,432
2,note_on,48,0,0
2,note_on,41,39,48
2,note_on,48,46,0
2,note_on,48,0,960
2,note_on,41,0,0
2,note_on,42,45,0
2,note_on,48,45,0
2,note_on,57,53,0
2,note_on,57,0,432
2,note_on,48,0,0
2,note_on,42,0,0
2,note_on,42,50,48
2,note_on,57,59,0
2,note_on,48,50,0
2,note_on,48,0,960
2,note_on,57,0,0
2,note_on,42,0,0
2,note_on,42,45,0
2,note_on,48,45,0
2,note_on,57,53,0
2,note_on,57,0,432
2,note_on,48,0,0
2,note_on,42,0,0
2,note_on,42,54,48
2,note_on,57,64,0
2,note_on,48,54,0
2,note_on,48,0,960
2,note_on,57,0,0
2,note_on,42,0,0
2,note_on,42,49,0
2,note_on,48,49,0
2,note_on,57,59,0
2,note_on,57,0,432
2,note_on,48,0,0
2,note_on,42,0,0
2,note_on,42,58,48
2,note_on,47,58,0
2,note_on,57,58,0
2,note_on,57,0,2400
2,note_on,47,0,0
2,note_on,42,0,0
2,note_on,57,75,0
2,note_on,47,63,0
2,note_on,42,63,0
2,note_on,42,0,432
2,note_on,47,0,0
2,note_on,57,0,0
2,note_on,55,48,48
2,note_on,47,40,0
2,note_on,43,40,0
2,note_on,43,0,120
2,note_on,47,0,0
2,note_on,55,0,0
2,note_on,55,33,120
2,note_on,59,40,0
2,note_on,59,0,120
2,note_on,55,0,0
2,note_on,55,33,120
2,note_on,59,40,0
2,note_on,59,0,120
2,note_on,55,0,0
2,note_on,55,33,120
2,note_on,59,40,0
2,note_on,59,0,120
2,note_on,55,0,0
2,note_on,55,33,120
2,note_on,59,40,0
2,note_on,59,0,120
2,note_on,55,0,0
2,note_on,55,33,120
2,note_on,59,40,0
2,note_on,59,0,120
2,note_on,55,0,0
2,note_on,59,48,120
2,note_on,56,40,0
2,note_on,56,0,120
2,note_on,59,0,0
2,note_on,56,34,120
2,note_on,59,41,0
2,note_on,59,0,120
2,note_on,56,0,0
2,note_on,56,34,120
2,note_on,59,41,0
2,note_on,59,0,120
2,note_on,56,0,0
2,note_on,56,34,120
2,note_on,59,41,0
2,note_on,59,0,120
2,note_on,56,0,0
2,note_on,56,34,120
2,note_on,59,41,0
2,note_on,59,0,120
2,note_on,56,0,0
2,note_on,56,34,120
2,note_on,59,41,0
2,note_on,59,0,120
2,note_on,56,0,0
2,note_on,62,44,120
2,note_on,59,37,0
2,note_on,56,37,0
2,note_on,56,0,120
2,note_on,59,0,0
2,note_on,62,0,0
2,note_on,62,34,115
2,note_on,56,28,5
2,note_on,59,28,0
2,note_on,62,0,115
2,note_on,59,0,5
2,note_on,56,0,0
2,note_on,60,44,120
2,note_on,57,37,0
2,note_on,57,0,120
2,note_on,60,0,0
2,note_on,60,37,120
2,note_on,57,30,0
2,note_on,57,0,120
2,note_on,60,0,0
2,note_on,60,37,120
2,note_on,57,30,0
2,note_on,57,0,120
2,note_on,60,0,0
2,note_on,60,37,120
2,note_on,57,30,0
2,note_on,57,0,120
2,note_on,60,0,0
2,note_on,64,45,120
2,note_on,60,37,0
2,note_on,57,37,0
2,note_on,57,0,120
2,note_on,60,0,0
2,note_on,64,0,0
2,note_on,64,37,120
2,note_on,60,30,0
2,note_on,57,30,0
2,note_on,57,0,120
2,note_on,60,0,0
2,note_on,64,0,0
2,note_on,62,44,120
2,note_on,59,37,0
2,note_on,59,0,120
2,note_on,62,0,0
2,note_on,59,31,120
2,note_on,62,38,0
2,note_on,62,0,120
2,note_on,59,0,0
2,note_on,59,31,120
2,note_on,62,38,0
2,note_on,62,0,120
2,note_on,59,0,0
2,note_on,59,31,120
2,note_on,62,38,0
2,note_on,62,0,120
2,note_on,59,0,0
2,note_on,64,44,120
2,note_on,62,37,0
2,note_on,59,37,0
2,note_on,59,0,120
2,note_on,62,0,0
2,note_on,64,0,0
2,note_on,59,30,120
2,note_on,62,30,0
2,note_on,64,37,0
2,note_on,64,0,120
2,note_on,62,0,0
2,note_on,59,0,0
2,note_on,64,44,120
2,note_on,60,37,0
2,note_on,60,0,120
2,note_on,64,0,0
2,note_on,60,33,120
2,note_on,64,39,0
2,note_on,64,0,120
2,note_on,60,0,0
2,note_on,60,33,120
2,note_on,64,39,0
2,note_on,64,0,120
2,note_on,60,0,0
2,note_on,60,33,120
2,note_on,64,39,0
2,note_on,64,0,120
2,note_on,60,0,0
2,note_on,60,41,120
2,note_on,64,49,0
2,note_on,64,0,120
2,note_on,60,0,0
2,note_on,61,37,120
2,note_on,64,44,0
2,note_on,64,0,120
2,note_on,61,0,0
2,note_on,61,39,120
2,note_on,64,47,0
2,note_on,64,0,120
2,note_on,61,0,0
2,note_on,61,35,120
2,note_on,64,41,0
2,note_on,64,0,120
2,note_on,61,0,0
2,note_on,61,36,120
2,note_on,64,42,0
2,note_on,64,0,120
2,note_on,61,0,0
2,note_on,61,36,120
2,note_on,64,42,0
2,note_on,64,0,120
2,note_on,61,0,0
2,note_on,66,34,120
2,note_on,66,0,120
2,note_on,66,32,120
2,note_on,66,0,120
2,note_on,66,32,120
2,note_on,66,0,120
2,note_on,66,32,120
2,note_on,66,0,120
2,note_on,66,32,120
2,note_on,66,0,120
2,note_on,66,32,120
2,note_on,66,0,120
2,note_on,66,40,120
2,note_on,66,0,120
2,note_on,66,45,120
2,note_on,66,0,120
2,note_on,66,49,120
2,note_on,66,0,120
2,note_on,66,52,120
2,note_on,66,0,120
2,note_on,66,56,120
2,note_on,66,0,120
2,note_on,66,58,120
2,note_on,66,0,120
2,note_on,59,60,120
2,note_on,63,60,0
2,note_on,66,60,0
2,note_on,69,71,0
2,note_on,69,0,120
2,note_on,59,0,0
2,note_on,63,0,0
2,note_on,66,0,0
2,note_on,69,59,120
2,note_on,66,49,0
2,note_on,63,49,0
2,note_on,59,49,0
2,note_on,59,0,120
2,note_on,69,0,0
2,note_on,66,0,0
2,note_on,63,0,0
2,note_on,69,59,120
2,note_on,66,49,0
2,note_on,63,49,0
2,note_on,59,49,0
2,note_on,59,0,120
2,note_on,69,0,0
2,note_on,66,0,0
2,note_on,63,0,0
2,note_on,69,59,120
2,note_on,66,49,0
2,note_on,63,49,0
2,note_on,59,49,0
2,note_on,59,0,120
2,note_on,69,0,0
2,note_on,66,0,0
2,note_on,63,0,0
2,note_on,69,59,120
2,note_on,66,49,0
2,note_on,63,49,0
2,note_on,59,49,0
2,note_on,59,0,120
2,note_on,69,0,0
2,note_on,66,0,0
2,note_on,63,0,0
2,note_on,69,59,120
2,note_on,66,49,0
2,note_on,63,49,0
2,note_on,59,49,0
2,note_on,59,0,120
2,note_on,69,0,0
2,note_on,66,0,0
2,note_on,63,0,0
2,note_on,69,64,120
2,note_on,66,53,0
2,note_on,63,53,0
2,note_on,59,53,0
2,note_on,59,0,120
2,note_on,69,0,0
2,note_on,66,0,0
2,note_on,63,0,0
2,note_on,59,51,120
2,note_on,63,51,0
2,note_on,66,51,0
2,note_on,69,60,0
2,note_on,69,0,120
2,note_on,59,0,0
2,note_on,63,0,0
2,note_on,66,0,0
2,note_on,59,47,120
2,note_on,63,47,0
2,note_on,66,47,0
2,note_on,69,57,0
2,note_on,69,0,120
2,note_on,59,0,0
2,note_on,63,0,0
2,note_on,66,0,0
2,note_on,59,44,120
2,note_on,63,44,0
2,note_on,66,44,0
2,note_on,69,52,0
2,note_on,69,0,120
2,note_on,59,0,0
2,note_on,63,0,0
2,note_on,66,0,0
2,note_on,59,39,120
2,note_on,63,39,0
2,note_on,66,39,0
2,note_on,69,47,0
2,note_on,69,0,120
2,note_on,59,0,0
2,note_on,63,0,0
2,note_on,66,0,0
2,note_on,59,39,120
2,note_on,63,39,0
2,note_on,66,39,0
2,note_on,69,46,0
2,note_on,69,0,120
2,note_on,59,0,0
2,note_on,63,0,0
2,note_on,66,0,0
2,note_on,52,40,120
2,note_on,52,0,120
2,note_on,67,34,0
2,note_on,67,0,120
2,note_on,59,37,0
2,note_on,59,0,120
2,note_on,67,34,0
2,note_on,67,0,120
2,note_on,54,40,0
2,note_on,54,0,120
2,note_on,69,34,0
2,note_on,69,0,120
2,note_on,59,37,0
2,note_on,59,0,120
2,note_on,69,34,0
2,note_on,69,0,120
2,note_on,55,40,0
2,note_on,55,0,120
2,note_on,71,35,0
2,note_on,71,0,120
2,note_on,59,38,0
2,note_on,59,0,120
2,note_on,71,35,0
2,note_on,71,0,120
2,note_on,52,40,0
2,note_on,52,0,120
2,note_on,67,34,0
2,note_on,67,0,120
2,note_on,59,37,0
2,note_on,59,0,120
2,note_on,67,34,0
2,note_on,67,0,120
2,note_on,54,40,0
2,note_on,54,0,120
2,note_on,69,34,0
2,note_on,69,0,120
2,note_on,59,37,0
2,note_on,59,0,120
2,note_on,69,34,0
2,note_on,69,0,120
2,note_on,55,40,0
2,note_on,55,0,120
2,note_on,71,35,0
2,note_on,71,0,120
2,note_on,59,38,0
2,note_on,59,0,120
2,note_on,71,35,0
2,note_on,71,0,120
2,note_on,52,40,0
2,note_on,52,0,120
2,note_on,67,34,0
2,note_on,67,0,120
2,note_on,59,37,0
2,note_on,59,0,120
2,note_on,67,34,0
2,note_on,67,0,120
2,note_on,54,40,0
2,note_on,54,0,120
2,note_on,69,34,0
2,note_on,69,0,120
2,note_on,59,37,0
2,note_on,59,0,120
2,note_on,69,34,0
2,note_on,69,0,120
2,note_on,55,40,0
2,note_on,55,0,120
2,note_on,71,35,0
2,note_on,71,0,120
2,note_on,59,38,0
2,note_on,59,0,120
2,note_on,71,35,0
2,note_on,71,0,120
2,note_on,52,40,0
2,note_on,52,0,120
2,note_on,67,34,0
2,note_on,67,0,120
2,note_on,59,37,0
2,note_on,59,0,120
2,note_on,67,34,0
2,note_on,67,0,120
2,note_on,54,40,0
2,note_on,54,0,120
2,note_on,69,34,0
2,note_on,69,0,120
2,note_on,59,37,0
2,note_on,59,0,120
2,note_on,69,34,0
2,note_on,69,0,120
2,note_on,55,40,0
2,note_on,55,0,120
2,note_on,71,35,0
2,note_on,71,0,120
2,note_on,59,38,0
2,note_on,59,0,120
2,note_on,71,35,0
2,note_on,71,0,120
2,note_on,57,40,0
2,note_on,57,0,120
2,note_on,67,34,0
2,note_on,67,0,120
2,note_on,64,37,0
2,note_on,64,0,120
2,note_on,67,34,0
2,note_on,67,0,120
2,note_on,58,49,0
2,note_on,58,0,120
2,note_on,67,34,0
2,note_on,67,0,120
2,note_on,64,42,0
2,note_on,64,0,120
2,note_on,67,34,0
2,note_on,67,0,120
2,note_on,59,48,0
2,note_on,59,0,120
2,note_on,67,35,0
2,note_on,67,0,120
2,note_on,64,38,0
2,note_on,64,0,120
2,note_on,67,38,0
2,note_on,67,0,120
2,note_on,59,51,0
2,note_on,59,0,120
2,note_on,67,39,0
2,note_on,67,0,120
2,note_on,64,42,0
2,note_on,64,0,120
2,note_on,67,39,0
2,note_on,67,0,120
2,note_on,59,48,0
2,note_on,59,0,120
2,note_on,67,38,0
2,note_on,67,0,120
2,note_on,64,39,0
2,note_on,64,0,120
2,note_on,67,38,0
2,note_on,67,0,120
2,note_on,59,45,0
2,note_on,59,0,120
2,note_on,69,41,0
2,note_on,69,0,120
2,note_on,66,45,0
2,note_on,66,0,120
2,note_on,69,36,0
2,note_on,69,0,120
2,note_on,40,36,0
2,note_on,40,0,120
2,note_on,55,31,0
2,note_on,55,0,120
2,note_on,47,36,0
2,note_on,47,0,120
2,note_on,55,35,0
2,note_on,55,0,120
2,note_on,42,45,0
2,note_on,42,0,120
2,note_on,57,36,0
2,note_on,57,0,120
2,note_on,47,39,0
2,note_on,47,0,120
2,note_on,57,34,0
2,note_on,57,0,120
2,note_on,43,40,0
2,note_on,43,0,120
2,note_on,59,34,0
2,note_on,59,0,120
2,note_on,47,36,0
2,note_on,47,0,120
2,note_on,59,32,0
2,note_on,59,0,120
2,note_on,40,36,0
2,note_on,40,0,120
2,note_on,55,31,0
2,note_on,55,0,120
2,note_on,47,36,0
2,note_on,47,0,120
2,note_on,55,35,0
2,note_on,55,0,120
2,note_on,42,45,0
2,note_on,42,0,120
2,note_on,57,36,0
2,note_on,57,0,120
2,note_on,47,39,0
2,note_on,47,0,120
2,note_on,57,34,0
2,note_on,57,0,120
2,note_on,43,40,0
2,note_on,43,0,120
2,note_on,59,34,0
2,note_on,59,0,120
2,note_on,47,36,0
2,note_on,47,0,120
2,note_on,59,32,0
2,note_on,59,0,120
2,note_on,40,36,0
2,note_on,40,0,120
2,note_on,55,31,0
2,note_on,55,0,120
2,note_on,47,36,0
2,note_on,47,0,120
2,note_on,55,35,0
2,note_on,55,0,120
2,note_on,42,45,0
2,note_on,42,0,120
2,note_on,57,36,0
2,note_on,57,0,120
2,note_on,47,39,0
2,note_on,47,0,120
2,note_on,57,34,0
2,note_on,57,0,120
2,note_on,43,40,0
2,note_on,43,0,120
2,note_on,59,34,0
2,note_on,59,0,120
2,note_on,47,36,0
2,note_on,47,0,120
2,note_on,59,32,0
2,note_on,59,0,120
2,note_on,40,36,0
2,note_on,40,0,120
2,note_on,55,30,0
2,note_on,55,0,120
2,note_on,47,33,0
2,note_on,47,0,120
2,note_on,55,30,0
2,note_on,55,0,120
2,note_on,42,36,0
2,note_on,42,0,120
2,note_on,57,30,0
2,note_on,57,0,120
2,note_on,47,33,0
2,note_on,47,0,120
2,note_on,57,30,0
2,note_on,57,0,120
2,note_on,43,36,0
2,note_on,43,0,120
2,note_on,59,31,0
2,note_on,59,0,120
2,note_on,47,34,0
2,note_on,47,0,120
2,note_on,59,31,0
2,note_on,59,0,120
2,note_on,45,40,0
2,note_on,45,0,120
2,note_on,55,34,0
2,note_on,55,0,120
2,note_on,52,37,0
2,note_on,52,0,120
2,note_on,55,34,0
2,note_on,55,0,120
2,note_on,46,49,0
2,note_on,46,0,120
2,note_on,55,34,0
2,note_on,55,0,120
2,note_on,52,42,0
2,note_on,52,0,120
2,note_on,55,34,0
2,note_on,55,0,120
2,note_on,47,48,0
2,note_on,47,0,120
2,note_on,55,35,0
2,note_on,55,0,120
2,note_on,52,38,0
2,note_on,52,0,120
2,note_on,55,38,0
2,note_on,55,0,120
2,note_on,47,53,0
2,note_on,47,0,950
2,note_on,35,57,10
2,note_on,35,0,480
2,note_on,40,79,0
2,note_on,40,0,120
2,note_on,54,81,120
2,note_on,42,69,0
2,note_on,42,0,120
2,note_on,54,0,0
2,note_on,55,81,120
2,note_on,43,69,0
2,note_on,43,0,120
2,note_on,55,0,0
2,note_on,57,88,120
2,note_on,45,72,0
2,note_on,45,0,120
2,note_on,57,0,0
2,note_on,59,94,120
2,note_on,47,80,0
2,note_on,47,0,1920
2,note_on,59,0,0
2,note_on,45,37,0
2,note_on,57,44,0
2,note_on,57,0,1440
2,note_on,45,0,0
2,note_on,59,43,0
2,note_on,47,36,0
2,note_on,47,0,1440
2,note_on,59,0,0
2,note_on,40,93,0
2,note_on,28,79,0
2,note_on,28,0,120
2,note_on,40,0,0
2,note_on,42,81,120
2,note_on,30,69,0
2,note_on,30,0,120
2,note_on,42,0,0
2,note_on,43,81,120
2,note_on,31,69,0
2,note_on,31,0,120
2,note_on,43,0,0
2,note_on,45,88,120
2,note_on,33,72,0
2,note_on,33,0,120
2,note_on,45,0,0
2,note_on,47,94,120
2,note_on,35,80,0
2,note_on,35,0,1920
2,note_on,47,0,0
2,note_on,33,37,0
2,note_on,45,44,0
2,note_on,45,0,1440
2,note_on,33,0,0
2,note_on,35,24,0
2,note_on,47,29,0
2,note_on,47,0,1440
2,note_on,35,0,0
2,note_on,47,23,1440
2,note_on,40,19,0
2,note_on,40,0,1440
2,note_on,47,0,0
2,note_on,47,23,1440
2,note_on,35,19,0
2,note_on,35,0,1440
2,note_on,47,0,0
2,note_on,40,23,0
2,note_on,40,0,480
2,note_on,59,20,960
2,note_on,47,17,0
2,note_on,47,0,1440
2,note_on,59,0,0
2,note_on,59,20,1440
2,note_on,52,17,0
2,note_on,52,0,1440
2,note_on,59,0,0
2,note_on,59,20,1440
2,note_on,47,17,0
2,note_on,47,0,1440
2,note_on,59,0,0
2,note_on,52,20,0
2,note_on,52,0,480
2,note_on,71,20,960
2,note_on,71,0,1440
2,note_on,72,29,960
2,note_on,72,0,960
2,note_on,71,38,0
2,note_on,71,0,480
2,note_on,69,24,0
2,note_on,66,19,0
2,note_on,66,0,480
2,note_on,69,0,0
2,note_on,64,25,0
2,note_on,67,30,0
2,note_on,67,0,720
2,note_on,64,0,0
2,note_on,69,26,0
2,note_on,66,22,0
2,note_on,66,0,240
2,note_on,69,0,0
2,note_on,67,23,0
2,note_on,67,0,360
2,note_on,62,25,120
2,note_on,66,25,0
2,note_on,69,30,0
2,note_on,69,0,360
2,note_on,66,0,0
2,note_on,62,0,0
2,note_on,74,24,600
2,note_on,74,0,456
2,note_on,72,25,24
2,note_on,74,30,0
2,note_on,74,0,720
2,note_on,72,0,0
2,note_on,74,26,0
2,note_on,71,22,0
2,note_on,71,0,240
2,note_on,74,0,0
2,note_on,69,20,0
2,note_on,72,23,0
2,note_on,72,0,360
2,note_on,69,0,0
2,note_on,67,25,120
2,note_on,71,30,0
2,note_on,71,0,360
2,note_on,67,0,0
2,note_on,79,21,600
2,note_on,79,0,456
2,note_on,79,27,24
2,note_on,79,0,720
2,note_on,78,23,0
2,note_on,78,0,240
2,note_on,76,20,0
2,note_on,76,0,360
2,note_on,75,27,120
2,note_on,75,0,360
2,note_on,59,34,1080
2,note_on,43,28,0
2,note_on,52,28,0
2,note_on,52,0,1440
2,note_on,43,0,0
2,note_on,59,0,0
2,note_on,45,35,0
2,note_on,45,0,960
2,note_on,46,43,0
2,note_on,46,0,480
2,note_on,47,49,0
2,note_on,47,0,1440
2,note_on,55,29,0
2,note_on,48,24,0
2,note_on,48,0,960
2,note_on,55,0,0
2,note_on,35,31,0
2,note_on,47,36,0
2,note_on,47,0,240
2,note_on,35,0,0
2,note_on,33,33,0
2,note_on,45,40,0
2,note_on,45,0,240
2,note_on,33,0,0
2,note_on,31,37,0
2,note_on,43,44,0
2,note_on,43,0,960
2,note_on,31,0,0
2,note_on,32,31,0
2,note_on,44,37,0
2,note_on,44,0,480
2,note_on,32,0,0
2,note_on,33,26,0
2,note_on,45,31,0
2,note_on,45,0,960
2,note_on,33,0,0
2,note_on,34,22,0
2,note_on,46,26,0
2,note_on,46,0,480
2,note_on,34,0,0
2,note_on,35,22,0
2,note_on,47,28,0
2,note_on,47,0,1440
2,note_on,35,0,0
2,note_on,40,14,0
2,note_on,40,0,480
