Track,Message Type,Note,Velocity,Time
1,note_on,62,50,960
1,note_on,62,0,360
1,note_on,63,46,0
1,note_on,63,0,120
1,note_on,65,50,0
1,note_on,65,0,930
1,note_on,69,46,0
1,note_on,69,0,30
1,note_on,67,50,0
1,note_on,67,0,120
1,note_on,65,45,0
1,note_on,65,0,120
1,note_on,67,50,0
1,note_on,67,0,120
1,note_on,69,43,0
1,note_on,69,0,120
1,note_on,70,50,0
1,note_on,70,0,480
1,note_on,65,41,0
1,note_on,65,0,420
1,note_on,69,43,30
1,note_on,69,0,30
1,note_on,67,50,0
1,note_on,67,0,120
1,note_on,65,46,0
1,note_on,65,0,120
1,note_on,67,50,0
1,note_on,67,0,120
1,note_on,69,50,0
1,note_on,69,0,120
1,note_on,70,50,0
1,note_on,70,0,60
1,note_on,69,46,300
1,note_on,69,0,60
1,note_on,70,56,60
1,note_on,70,0,60
1,note_on,72,48,300
1,note_on,72,0,60
1,note_on,74,55,60
1,note_on,74,0,60
1,note_on,76,59,300
1,note_on,76,0,60
1,note_on,70,53,60
1,note_on,76,63,0
1,note_on,76,0,480
1,note_on,70,0,0
1,note_on,69,48,0
1,note_on,77,57,0
1,note_on,77,0,240
1,note_on,69,0,0
1,note_on,77,43,210
1,note_on,77,0,30
1,note_on,75,50,0
1,note_on,75,0,120
1,note_on,74,46,0
1,note_on,74,0,120
1,note_on,75,54,0
1,note_on,75,0,120
1,note_on,77,51,0
1,note_on,77,0,120
1,note_on,79,59,0
1,note_on,79,0,480
1,note_on,72,50,0
1,note_on,72,0,420
1,note_on,74,43,30
1,note_on,74,0,30
1,note_on,72,50,0
1,note_on,72,0,120
1,note_on,71,46,0
1,note_on,71,0,120
1,note_on,72,54,0
1,note_on,72,0,120
1,note_on,74,51,0
1,note_on,74,0,120
1,note_on,75,59,0
1,note_on,75,0,480
1,note_on,69,50,0
1,note_on,69,0,420
1,note_on,70,43,30
1,note_on,70,0,30
1,note_on,69,50,0
1,note_on,69,0,120
1,note_on,67,46,0
1,note_on,67,0,120
1,note_on,69,52,0
1,note_on,69,0,120
1,note_on,70,48,0
1,note_on,70,0,80
1,note_on,74,43,10
1,note_on,74,0,30
1,note_on,72,53,0
1,note_on,72,0,120
1,note_on,71,50,0
1,note_on,71,0,120
1,note_on,72,54,0
1,note_on,72,0,120
1,note_on,74,51,0
1,note_on,74,0,80
1,note_on,77,43,10
1,note_on,77,0,30
1,note_on,75,57,0
1,note_on,75,0,120
1,note_on,74,52,0
1,note_on,74,0,120
1,note_on,75,58,0
1,note_on,75,0,120
1,note_on,77,55,0
1,note_on,77,0,120
1,note_on,79,64,0
1,note_on,79,0,60
1,note_on,69,42,300
1,note_on,69,0,120
1,note_on,72,50,0
1,note_on,72,0,480
1,note_on,70,44,0
1,note_on,70,0,240
1,note_on,62,50,240
1,note_on,62,0,360
1,note_on,63,46,0
1,note_on,63,0,120
1,note_on,65,50,0
1,note_on,65,0,930
1,note_on,69,46,0
1,note_on,69,0,30
1,note_on,67,50,0
1,note_on,67,0,120
1,note_on,65,45,0
1,note_on,65,0,120
1,note_on,67,50,0
1,note_on,67,0,120
1,note_on,69,43,0
1,note_on,69,0,120
1,note_on,70,50,0
1,note_on,70,0,480
1,note_on,65,41,0
1,note_on,65,0,420
1,note_on,69,43,30
1,note_on,69,0,30
1,note_on,67,50,0
1,note_on,67,0,120
1,note_on,65,46,0
1,note_on,65,0,120
1,note_on,67,50,0
1,note_on,67,0,120
1,note_on,69,50,0
1,note_on,69,0,120
1,note_on,70,50,0
1,note_on,70,0,60
1,note_on,69,46,300
1,note_on,69,0,60
1,note_on,70,56,60
1,note_on,70,0,60
1,note_on,72,48,300
1,note_on,72,0,60
1,note_on,74,55,60
1,note_on,74,0,60
1,note_on,76,59,300
1,note_on,76,0,60
1,note_on,70,53,60
1,note_on,76,63,0
1,note_on,76,0,480
1,note_on,70,0,0
1,note_on,69,48,0
1,note_on,77,57,0
1,note_on,77,0,240
1,note_on,69,0,0
1,note_on,77,43,210
1,note_on,77,0,30
1,note_on,75,50,0
1,note_on,75,0,120
1,note_on,74,46,0
1,note_on,74,0,120
1,note_on,75,54,0
1,note_on,75,0,120
1,note_on,77,51,0
1,note_on,77,0,120
1,note_on,79,59,0
1,note_on,79,0,480
1,note_on,72,50,0
1,note_on,72,0,420
1,note_on,74,43,30
1,note_on,74,0,30
1,note_on,72,50,0
1,note_on,72,0,120
1,note_on,71,46,0
1,note_on,71,0,120
1,note_on,72,54,0
1,note_on,72,0,120
1,note_on,74,51,0
1,note_on,74,0,120
1,note_on,75,59,0
1,note_on,75,0,480
1,note_on,69,50,0
1,note_on,69,0,420
1,note_on,70,43,30
1,note_on,70,0,30
1,note_on,69,50,0
1,note_on,69,0,120
1,note_on,67,46,0
1,note_on,67,0,120
1,note_on,69,52,0
1,note_on,69,0,120
1,note_on,70,48,0
1,note_on,70,0,80
1,note_on,74,43,10
1,note_on,74,0,30
1,note_on,72,53,0
1,note_on,72,0,120
1,note_on,71,50,0
1,note_on,71,0,120
1,note_on,72,54,0
1,note_on,72,0,120
1,note_on,74,51,0
1,note_on,74,0,80
1,note_on,77,43,10
1,note_on,77,0,30
1,note_on,75,57,0
1,note_on,75,0,120
1,note_on,74,52,0
1,note_on,74,0,120
1,note_on,75,58,0
1,note_on,75,0,120
1,note_on,77,55,0
1,note_on,77,0,120
1,note_on,79,64,0
1,note_on,79,0,60
1,note_on,69,42,300
1,note_on,69,0,120
1,note_on,72,50,0
1,note_on,72,0,480
1,note_on,70,44,0
1,note_on,70,0,240
1,note_on,69,38,240
1,note_on,74,46,0
1,note_on,74,0,120
1,note_on,69,0,0
1,note_on,70,34,0
1,note_on,73,41,0
1,note_on,73,0,120
1,note_on,70,0,0
1,note_on,69,42,0
1,note_on,74,50,0
1,note_on,74,0,120
1,note_on,69,0,0
1,note_on,70,34,0
1,note_on,73,40,0
1,note_on,73,0,120
1,note_on,70,0,0
1,note_on,69,45,0
1,note_on,74,54,0
1,note_on,74,0,120
1,note_on,69,0,0
1,note_on,70,40,0
1,note_on,73,49,0
1,note_on,73,0,120
1,note_on,70,0,0
1,note_on,69,49,0
1,note_on,74,57,0
1,note_on,74,0,120
1,note_on,69,0,0
1,note_on,70,39,0
1,note_on,73,47,0
1,note_on,73,0,120
1,note_on,70,0,0
1,note_on,69,52,0
1,note_on,74,62,0
1,note_on,74,0,120
1,note_on,69,0,0
1,note_on,70,47,0
1,note_on,73,56,0
1,note_on,73,0,120
1,note_on,70,0,0
1,note_on,69,55,0
1,note_on,74,66,0
1,note_on,74,0,120
1,note_on,69,0,0
1,note_on,70,46,0
1,note_on,73,54,0
1,note_on,73,0,120
1,note_on,70,0,0
1,note_on,69,59,0
1,note_on,74,71,0
1,note_on,74,0,120
1,note_on,69,0,0
1,note_on,70,53,0
1,note_on,73,64,0
1,note_on,73,0,120
1,note_on,70,0,0
1,note_on,69,63,0
1,note_on,74,75,0
1,note_on,74,0,120
1,note_on,69,0,0
1,note_on,70,52,0
1,note_on,73,62,0
1,note_on,73,0,120
1,note_on,70,0,0
1,note_on,69,83,0
1,note_on,74,83,0
1,note_on,74,0,240
1,note_on,69,0,0
1,note_on,86,100,240
1,note_on,78,84,0
1,note_on,78,0,720
1,note_on,86,0,0
1,note_on,84,75,0
1,note_on,78,63,0
1,note_on,78,0,120
1,note_on,84,0,0
1,note_on,82,91,120
1,note_on,79,77,0
1,note_on,79,0,240
1,note_on,82,0,0
1,note_on,81,73,120
1,note_on,75,61,0
1,note_on,75,0,60
1,note_on,81,0,0
1,note_on,70,72,60
1,note_on,79,85,0
1,note_on,79,0,240
1,note_on,70,0,0
1,note_on,72,69,240
1,note_on,78,81,0
1,note_on,78,0,240
1,note_on,72,0,0
1,note_on,72,69,240
1,note_on,81,82,0
1,note_on,81,0,480
1,note_on,72,0,0
1,note_on,70,61,0
1,note_on,79,72,0
1,note_on,79,0,240
1,note_on,70,0,0
1,note_on,56,25,240
1,note_on,58,30,0
1,note_on,59,27,120
1,note_on,58,0,1
1,note_on,56,0,0
1,note_on,56,27,119
1,note_on,58,33,0
1,note_on,59,0,1
1,note_on,59,26,119
1,note_on,58,0,1
1,note_on,56,0,0
1,note_on,56,28,119
1,note_on,58,34,0
1,note_on,59,0,1
1,note_on,59,30,119
1,note_on,58,0,1
1,note_on,56,0,0
1,note_on,56,30,119
1,note_on,58,36,0
1,note_on,59,0,1
1,note_on,59,29,119
1,note_on,58,0,1
1,note_on,56,0,0
1,note_on,56,33,119
1,note_on,58,39,0
1,note_on,59,0,1
1,note_on,59,36,119
1,note_on,58,0,1
1,note_on,56,0,0
1,note_on,56,36,119
1,note_on,58,42,0
1,note_on,59,0,1
1,note_on,59,34,119
1,note_on,58,0,1
1,note_on,56,0,0
1,note_on,56,38,119
1,note_on,58,45,0
1,note_on,59,0,1
1,note_on,59,41,119
1,note_on,58,0,1
1,note_on,56,0,0
1,note_on,56,40,119
1,note_on,58,49,0
1,note_on,59,0,1
1,note_on,59,40,119
1,note_on,58,0,1
1,note_on,56,0,0
1,note_on,56,65,119
1,note_on,58,65,0
1,note_on,59,0,1
1,note_on,58,0,239
1,note_on,56,0,0
1,note_on,80,85,240
1,note_on,71,72,0
1,note_on,71,0,720
1,note_on,80,0,0
1,note_on,79,59,0
1,note_on,72,49,0
1,note_on,72,0,240
1,note_on,79,0,0
1,note_on,77,70,0
1,note_on,68,58,0
1,note_on,68,0,360
1,note_on,77,0,0
1,note_on,75,53,0
1,note_on,67,45,0
1,note_on,67,0,120
1,note_on,75,0,0
1,note_on,65,52,0
1,note_on,74,61,0
1,note_on,74,0,480
1,note_on,65,0,0
1,note_on,63,46,0
1,note_on,72,54,0
1,note_on,72,0,480
1,note_on,63,0,0
1,note_on,62,40,0
1,note_on,70,48,0
1,note_on,70,0,480
1,note_on,62,0,0
1,note_on,60,36,0
1,note_on,69,42,0
1,note_on,69,0,240
1,note_on,60,0,0
1,note_on,62,50,240
1,note_on,62,0,360
1,note_on,63,46,0
1,note_on,63,0,120
1,note_on,65,50,0
1,note_on,65,0,930
1,note_on,69,46,0
1,note_on,69,0,30
1,note_on,67,50,0
1,note_on,67,0,120
1,note_on,65,45,0
1,note_on,65,0,120
1,note_on,67,50,0
1,note_on,67,0,120
1,note_on,69,43,0
1,note_on,69,0,120
1,note_on,70,50,0
1,note_on,70,0,480
1,note_on,65,41,0
1,note_on,65,0,420
1,note_on,69,43,30
1,note_on,69,0,30
1,note_on,67,50,0
1,note_on,67,0,120
1,note_on,65,46,0
1,note_on,65,0,120
1,note_on,67,50,0
1,note_on,67,0,120
1,note_on,69,50,0
1,note_on,69,0,120
1,note_on,70,50,0
1,note_on,70,0,60
1,note_on,69,46,300
1,note_on,69,0,60
1,note_on,70,56,60
1,note_on,70,0,60
1,note_on,72,48,300
1,note_on,72,0,60
1,note_on,74,55,60
1,note_on,74,0,60
1,note_on,76,59,300
1,note_on,76,0,60
1,note_on,70,53,60
1,note_on,76,63,0
1,note_on,76,0,480
1,note_on,70,0,0
1,note_on,69,48,0
1,note_on,77,57,0
1,note_on,77,0,240
1,note_on,69,0,0
1,note_on,77,43,210
1,note_on,77,0,30
1,note_on,75,50,0
1,note_on,75,0,120
1,note_on,74,46,0
1,note_on,74,0,120
1,note_on,75,54,0
1,note_on,75,0,120
1,note_on,77,51,0
1,note_on,77,0,120
1,note_on,79,59,0
1,note_on,79,0,480
1,note_on,72,50,0
1,note_on,72,0,420
1,note_on,74,43,30
1,note_on,74,0,30
1,note_on,72,50,0
1,note_on,72,0,120
1,note_on,71,46,0
1,note_on,71,0,120
1,note_on,72,54,0
1,note_on,72,0,120
1,note_on,74,51,0
1,note_on,74,0,120
1,note_on,75,59,0
1,note_on,75,0,480
1,note_on,69,50,0
1,note_on,69,0,420
1,note_on,70,43,30
1,note_on,70,0,30
1,note_on,69,50,0
1,note_on,69,0,120
1,note_on,67,46,0
1,note_on,67,0,120
1,note_on,69,52,0
1,note_on,69,0,120
1,note_on,70,48,0
1,note_on,70,0,80
1,note_on,74,43,10
1,note_on,74,0,30
1,note_on,72,53,0
1,note_on,72,0,120
1,note_on,71,50,0
1,note_on,71,0,120
1,note_on,72,54,0
1,note_on,72,0,120
1,note_on,74,51,0
1,note_on,74,0,80
1,note_on,77,43,10
1,note_on,77,0,30
1,note_on,75,57,0
1,note_on,75,0,120
1,note_on,74,52,0
1,note_on,74,0,120
1,note_on,75,58,0
1,note_on,75,0,120
1,note_on,77,55,0
1,note_on,77,0,120
1,note_on,79,61,0
1,note_on,79,0,120
1,note_on,75,59,0
1,note_on,75,0,120
1,note_on,72,52,0
1,note_on,72,0,120
1,note_on,69,42,0
1,note_on,69,0,120
1,note_on,70,50,0
1,note_on,70,0,480
1,note_on,81,46,450
1,note_on,81,0,30
1,note_on,79,50,0
1,note_on,79,0,120
1,note_on,78,45,0
1,note_on,78,0,120
1,note_on,79,50,0
1,note_on,79,0,120
1,note_on,81,43,0
1,note_on,81,0,120
1,note_on,82,50,0
1,note_on,82,0,480
1,note_on,77,41,0
1,note_on,77,0,420
1,note_on,69,43,30
1,note_on,69,0,30
1,note_on,75,41,0
1,note_on,67,50,0
1,note_on,67,0,120
1,note_on,65,46,0
1,note_on,65,0,120
1,note_on,67,50,0
1,note_on,67,0,120
1,note_on,69,46,0
1,note_on,69,0,120
1,note_on,75,0,0
1,note_on,74,44,0
1,note_on,70,50,0
1,note_on,70,0,480
1,note_on,74,0,0
1,note_on,65,41,0
1,note_on,65,0,240
1,note_on,69,43,210
1,note_on,69,0,30
1,note_on,67,50,0
1,note_on,67,0,120
1,note_on,66,46,0
1,note_on,66,0,120
1,note_on,67,50,0
1,note_on,67,0,120
1,note_on,69,46,0
1,note_on,69,0,120
1,note_on,70,50,0
1,note_on,70,0,480
1,note_on,65,41,0
1,note_on,65,0,420
1,note_on,57,36,30
1,note_on,57,0,30
1,note_on,63,34,0
1,note_on,55,42,0
1,note_on,55,0,120
1,note_on,53,39,0
1,note_on,53,0,120
1,note_on,55,42,0
1,note_on,55,0,120
1,note_on,57,39,0
1,note_on,57,0,120
1,note_on,63,0,0
1,note_on,62,34,0
1,note_on,58,42,0
1,note_on,58,0,240
1,note_on,53,33,0
1,note_on,53,0,200
1,note_on,57,37,10
1,note_on,57,0,30
1,note_on,62,0,0
1,note_on,63,39,0
1,note_on,55,43,0
1,note_on,55,0,120
1,note_on,53,40,0
1,note_on,53,0,120
1,note_on,55,44,0
1,note_on,55,0,120
1,note_on,57,40,0
1,note_on,57,0,120
1,note_on,63,0,0
1,note_on,62,36,0
1,note_on,58,44,0
1,note_on,58,0,240
1,note_on,53,34,0
1,note_on,53,0,180
1,note_on,57,39,30
1,note_on,57,0,30
1,note_on,62,0,0
1,note_on,63,44,0
1,note_on,55,46,0
1,note_on,55,0,120
1,note_on,53,43,0
1,note_on,53,0,120
1,note_on,55,47,0
1,note_on,55,0,120
1,note_on,57,44,0
1,note_on,57,0,120
1,note_on,63,0,0
1,note_on,62,42,0
1,note_on,58,48,0
1,note_on,58,0,120
1,note_on,53,41,0
1,note_on,53,0,120
1,note_on,62,0,0
1,note_on,63,40,0
1,note_on,57,50,0
1,note_on,57,0,120
1,note_on,53,43,0
1,note_on,53,0,120
1,note_on,63,0,0
1,note_on,62,49,0
1,note_on,58,51,0
1,note_on,58,0,120
1,note_on,53,46,0
1,note_on,53,0,120
1,note_on,62,0,0
1,note_on,63,42,0
1,note_on,57,52,0
1,note_on,57,0,120
1,note_on,53,47,0
1,note_on,53,0,120
1,note_on,63,0,0
1,note_on,58,34,0
1,note_on,62,40,0
1,note_on,62,0,120
1,note_on,58,0,0
1,note_on,62,34,360
1,note_on,70,40,0
1,note_on,70,0,120
1,note_on,62,0,0
1,note_on,69,38,360
1,note_on,74,46,0
1,note_on,74,0,120
1,note_on,69,0,0
1,note_on,70,34,0
1,note_on,73,41,0
1,note_on,73,0,120
1,note_on,70,0,0
1,note_on,69,42,0
1,note_on,74,50,0
1,note_on,74,0,120
1,note_on,69,0,0
1,note_on,70,34,0
1,note_on,73,40,0
1,note_on,73,0,120
1,note_on,70,0,0
1,note_on,69,45,0
1,note_on,74,53,0
1,note_on,74,0,120
1,note_on,69,0,0
1,note_on,70,40,0
1,note_on,73,49,0
1,note_on,73,0,120
1,note_on,70,0,0
1,note_on,69,48,0
1,note_on,74,57,0
1,note_on,74,0,120
1,note_on,69,0,0
1,note_on,70,39,0
1,note_on,73,47,0
1,note_on,73,0,120
1,note_on,70,0,0
1,note_on,69,52,0
1,note_on,74,62,0
1,note_on,74,0,120
1,note_on,69,0,0
1,note_on,70,47,0
1,note_on,73,56,0
1,note_on,73,0,120
1,note_on,70,0,0
1,note_on,69,55,0
1,note_on,74,66,0
1,note_on,74,0,120
1,note_on,69,0,0
1,note_on,70,46,0
1,note_on,73,54,0
1,note_on,73,0,120
1,note_on,70,0,0
1,note_on,69,59,0
1,note_on,74,71,0
1,note_on,74,0,120
1,note_on,69,0,0
1,note_on,70,53,0
1,note_on,73,63,0
1,note_on,73,0,120
1,note_on,70,0,0
1,note_on,69,63,0
1,note_on,74,75,0
1,note_on,74,0,120
1,note_on,69,0,0
1,note_on,70,52,0
1,note_on,73,61,0
1,note_on,73,0,120
1,note_on,70,0,0
1,note_on,69,83,0
1,note_on,74,83,0
1,note_on,74,0,240
1,note_on,69,0,0
1,note_on,86,100,240
1,note_on,78,84,0
1,note_on,78,0,720
1,note_on,86,0,0
1,note_on,84,75,0
1,note_on,78,63,0
1,note_on,78,0,120
1,note_on,84,0,0
1,note_on,82,91,120
1,note_on,79,77,0
1,note_on,79,0,240
1,note_on,82,0,0
1,note_on,81,73,120
1,note_on,75,61,0
1,note_on,75,0,60
1,note_on,81,0,0
1,note_on,70,72,60
1,note_on,79,85,0
1,note_on,79,0,240
1,note_on,70,0,0
1,note_on,72,69,240
1,note_on,78,81,0
1,note_on,78,0,240
1,note_on,72,0,0
1,note_on,72,69,240
1,note_on,81,82,0
1,note_on,81,0,480
1,note_on,72,0,0
1,note_on,70,61,0
1,note_on,79,72,0
1,note_on,79,0,240
1,note_on,70,0,0
1,note_on,56,25,240
1,note_on,58,30,0
1,note_on,59,27,120
1,note_on,58,0,1
1,note_on,56,0,0
1,note_on,56,27,119
1,note_on,58,33,0
1,note_on,59,0,1
1,note_on,59,27,119
1,note_on,58,0,1
1,note_on,56,0,0
1,note_on,56,29,119
1,note_on,58,35,0
1,note_on,59,0,1
1,note_on,59,32,119
1,note_on,58,0,1
1,note_on,56,0,0
1,note_on,56,32,119
1,note_on,58,37,0
1,note_on,59,0,1
1,note_on,59,30,119
1,note_on,58,0,1
1,note_on,56,0,0
1,note_on,56,34,119
1,note_on,58,41,0
1,note_on,59,0,1
1,note_on,59,38,119
1,note_on,58,0,1
1,note_on,56,0,0
1,note_on,56,37,119
1,note_on,58,44,0
1,note_on,59,0,1
1,note_on,59,35,119
1,note_on,58,0,1
1,note_on,56,0,0
1,note_on,56,39,119
1,note_on,58,46,0
1,note_on,59,0,1
1,note_on,59,42,119
1,note_on,58,0,1
1,note_on,56,0,0
1,note_on,56,42,119
1,note_on,58,50,0
1,note_on,59,0,1
1,note_on,59,41,119
1,note_on,58,0,1
1,note_on,56,0,0
1,note_on,56,65,119
1,note_on,58,65,0
1,note_on,59,0,1
1,note_on,58,0,239
1,note_on,56,0,0
1,note_on,80,85,240
1,note_on,71,72,0
1,note_on,71,0,720
1,note_on,80,0,0
1,note_on,79,59,0
1,note_on,72,49,0
1,note_on,72,0,240
1,note_on,79,0,0
1,note_on,77,70,0
1,note_on,68,58,0
1,note_on,68,0,360
1,note_on,77,0,0
1,note_on,75,53,0
1,note_on,67,45,0
1,note_on,67,0,120
1,note_on,75,0,0
1,note_on,65,52,0
1,note_on,74,61,0
1,note_on,74,0,480
1,note_on,65,0,0
1,note_on,63,46,0
1,note_on,72,54,0
1,note_on,72,0,480
1,note_on,63,0,0
1,note_on,62,40,0
1,note_on,70,48,0
1,note_on,70,0,480
1,note_on,62,0,0
1,note_on,60,36,0
1,note_on,69,42,0
1,note_on,69,0,240
1,note_on,60,0,0
1,note_on,62,50,240
1,note_on,62,0,360
1,note_on,63,46,0
1,note_on,63,0,120
1,note_on,65,50,0
1,note_on,65,0,930
1,note_on,69,46,0
1,note_on,69,0,30
1,note_on,67,50,0
1,note_on,67,0,120
1,note_on,65,45,0
1,note_on,65,0,120
1,note_on,67,50,0
1,note_on,67,0,120
1,note_on,69,43,0
1,note_on,69,0,120
1,note_on,70,50,0
1,note_on,70,0,480
1,note_on,65,41,0
1,note_on,65,0,420
1,note_on,69,43,30
1,note_on,69,0,30
1,note_on,67,50,0
1,note_on,67,0,120
1,note_on,65,46,0
1,note_on,65,0,120
1,note_on,67,50,0
1,note_on,67,0,120
1,note_on,69,50,0
1,note_on,69,0,120
1,note_on,70,50,0
1,note_on,70,0,60
1,note_on,69,46,300
1,note_on,69,0,60
1,note_on,70,56,60
1,note_on,70,0,60
1,note_on,72,48,300
1,note_on,72,0,60
1,note_on,74,55,60
1,note_on,74,0,60
1,note_on,76,59,300
1,note_on,76,0,60
1,note_on,70,53,60
1,note_on,76,63,0
1,note_on,76,0,480
1,note_on,70,0,0
1,note_on,69,48,0
1,note_on,77,57,0
1,note_on,77,0,240
1,note_on,69,0,0
1,note_on,77,43,210
1,note_on,77,0,30
1,note_on,75,50,0
1,note_on,75,0,120
1,note_on,74,46,0
1,note_on,74,0,120
1,note_on,75,54,0
1,note_on,75,0,120
1,note_on,77,51,0
1,note_on,77,0,120
1,note_on,79,59,0
1,note_on,79,0,480
1,note_on,72,50,0
1,note_on,72,0,420
1,note_on,74,43,30
1,note_on,74,0,30
1,note_on,72,50,0
1,note_on,72,0,120
1,note_on,71,46,0
1,note_on,71,0,120
1,note_on,72,54,0
1,note_on,72,0,120
1,note_on,74,51,0
1,note_on,74,0,120
1,note_on,75,59,0
1,note_on,75,0,480
1,note_on,69,50,0
1,note_on,69,0,420
1,note_on,70,43,30
1,note_on,70,0,30
1,note_on,69,50,0
1,note_on,69,0,120
1,note_on,67,46,0
1,note_on,67,0,120
1,note_on,69,52,0
1,note_on,69,0,120
1,note_on,70,48,0
1,note_on,70,0,80
1,note_on,74,43,10
1,note_on,74,0,30
1,note_on,72,53,0
1,note_on,72,0,120
1,note_on,71,50,0
1,note_on,71,0,120
1,note_on,72,54,0
1,note_on,72,0,120
1,note_on,74,51,0
1,note_on,74,0,80
1,note_on,77,43,10
1,note_on,77,0,30
1,note_on,75,57,0
1,note_on,75,0,120
1,note_on,74,52,0
1,note_on,74,0,120
1,note_on,75,58,0
1,note_on,75,0,120
1,note_on,77,55,0
1,note_on,77,0,120
1,note_on,79,61,0
1,note_on,79,0,120
1,note_on,75,59,0
1,note_on,75,0,120
1,note_on,72,52,0
1,note_on,72,0,120
1,note_on,69,42,0
1,note_on,69,0,120
1,note_on,70,50,0
1,note_on,70,0,480
1,note_on,81,46,450
1,note_on,81,0,30
1,note_on,79,50,0
1,note_on,79,0,120
1,note_on,78,45,0
1,note_on,78,0,120
1,note_on,79,50,0
1,note_on,79,0,120
1,note_on,81,43,0
1,note_on,81,0,120
1,note_on,82,50,0
1,note_on,82,0,480
1,note_on,77,41,0
1,note_on,77,0,420
1,note_on,69,43,30
1,note_on,69,0,30
1,note_on,75,41,0
1,note_on,67,50,0
1,note_on,67,0,120
1,note_on,65,46,0
1,note_on,65,0,120
1,note_on,67,50,0
1,note_on,67,0,120
1,note_on,69,46,0
1,note_on,69,0,120
1,note_on,75,0,0
1,note_on,74,44,0
1,note_on,70,50,0
1,note_on,70,0,480
1,note_on,74,0,0
1,note_on,65,41,0
1,note_on,65,0,240
1,note_on,69,43,210
1,note_on,69,0,30
1,note_on,67,50,0
1,note_on,67,0,120
1,note_on,66,46,0
1,note_on,66,0,120
1,note_on,67,50,0
1,note_on,67,0,120
1,note_on,69,46,0
1,note_on,69,0,120
1,note_on,70,50,0
1,note_on,70,0,480
1,note_on,65,41,0
1,note_on,65,0,420
1,note_on,57,36,30
1,note_on,57,0,30
1,note_on,63,34,0
1,note_on,55,42,0
1,note_on,55,0,120
1,note_on,53,39,0
1,note_on,53,0,120
1,note_on,55,42,0
1,note_on,55,0,120
1,note_on,57,39,0
1,note_on,57,0,120
1,note_on,63,0,0
1,note_on,62,34,0
1,note_on,58,42,0
1,note_on,58,0,240
1,note_on,53,33,0
1,note_on,53,0,200
1,note_on,57,37,10
1,note_on,57,0,30
1,note_on,62,0,0
1,note_on,63,39,0
1,note_on,55,43,0
1,note_on,55,0,120
1,note_on,53,40,0
1,note_on,53,0,120
1,note_on,55,44,0
1,note_on,55,0,120
1,note_on,57,40,0
1,note_on,57,0,120
1,note_on,63,0,0
1,note_on,62,36,0
1,note_on,58,44,0
1,note_on,58,0,240
1,note_on,53,34,0
1,note_on,53,0,180
1,note_on,57,39,30
1,note_on,57,0,30
1,note_on,62,0,0
1,note_on,63,44,0
1,note_on,55,46,0
1,note_on,55,0,120
1,note_on,53,43,0
1,note_on,53,0,120
1,note_on,55,47,0
1,note_on,55,0,120
1,note_on,57,44,0
1,note_on,57,0,120
1,note_on,63,0,0
1,note_on,62,42,0
1,note_on,58,48,0
1,note_on,58,0,120
1,note_on,53,41,0
1,note_on,53,0,120
1,note_on,62,0,0
1,note_on,63,40,0
1,note_on,57,50,0
1,note_on,57,0,120
1,note_on,53,43,0
1,note_on,53,0,120
1,note_on,63,0,0
1,note_on,62,49,0
1,note_on,58,51,0
1,note_on,58,0,120
1,note_on,53,46,0
1,note_on,53,0,120
1,note_on,62,0,0
1,note_on,63,42,0
1,note_on,57,52,0
1,note_on,57,0,120
1,note_on,53,47,0
1,note_on,53,0,120
1,note_on,63,0,0
1,note_on,58,34,0
1,note_on,62,40,0
1,note_on,62,0,120
1,note_on,58,0,0
1,note_on,62,34,360
1,note_on,70,40,0
1,note_on,70,0,120
1,note_on,62,0,0
1,note_on,62,61,1320
1,note_on,67,61,0
1,note_on,70,61,0
1,note_on,74,79,0
1,note_on,70,0,950
1,note_on,67,0,0
1,note_on,69,62,10
1,note_on,72,62,0
1,note_on,72,0,120
1,note_on,69,0,0
1,note_on,62,0,350
1,note_on,74,0,0
1,note_on,62,59,10
1,note_on,74,81,0
1,note_on,69,59,0
1,note_on,66,59,0
1,note_on,66,0,950
1,note_on,69,0,0
1,note_on,70,62,10
1,note_on,67,62,0
1,note_on,67,0,120
1,note_on,70,0,0
1,note_on,74,0,350
1,note_on,62,0,0
1,note_on,67,68,10
1,note_on,70,68,0
1,note_on,79,89,0
1,note_on,79,0,960
1,note_on,70,0,0
1,note_on,67,0,0
1,note_on,66,63,0
1,note_on,69,63,0
1,note_on,78,75,0
1,note_on,78,0,480
1,note_on,69,0,0
1,note_on,66,0,0
1,note_on,67,61,1440
1,note_on,70,61,0
1,note_on,74,61,0
1,note_on,79,79,0
1,note_on,74,0,480
1,note_on,73,74,0
1,note_on,73,0,480
1,note_on,76,80,0
1,note_on,76,0,120
1,note_on,79,0,350
1,note_on,67,0,0
1,note_on,70,0,10
1,note_on,85,86,0
1,note_on,76,59,0
1,note_on,73,66,0
1,note_on,76,0,480
1,note_on,79,80,0
1,note_on,79,0,480
1,note_on,73,0,0
1,note_on,85,0,0
1,note_on,74,74,0
1,note_on,86,88,0
1,note_on,77,74,0
1,note_on,77,0,120
1,note_on,86,0,0
1,note_on,74,0,0
1,note_on,74,74,360
1,note_on,76,74,0
1,note_on,86,88,0
1,note_on,86,0,240
1,note_on,76,0,0
1,note_on,74,0,0
1,note_on,73,70,240
1,note_on,76,70,0
1,note_on,85,83,0
1,note_on,85,0,240
1,note_on,76,0,0
1,note_on,73,0,0
1,note_on,74,74,240
1,note_on,77,74,0
1,note_on,86,88,0
1,note_on,86,0,480
1,note_on,77,0,0
1,note_on,74,0,0
1,note_on,62,61,1440
1,note_on,67,61,0
1,note_on,70,61,0
1,note_on,74,79,0
1,note_on,70,0,950
1,note_on,67,0,0
1,note_on,69,62,10
1,note_on,72,62,0
1,note_on,72,0,120
1,note_on,69,0,0
1,note_on,62,0,350
1,note_on,74,0,0
1,note_on,62,59,10
1,note_on,74,81,0
1,note_on,69,59,0
1,note_on,66,59,0
1,note_on,66,0,950
1,note_on,69,0,0
1,note_on,70,62,10
1,note_on,67,62,0
1,note_on,67,0,120
1,note_on,70,0,0
1,note_on,74,0,350
1,note_on,62,0,0
1,note_on,67,68,10
1,note_on,70,68,0
1,note_on,79,89,0
1,note_on,79,0,960
1,note_on,70,0,0
1,note_on,67,0,0
1,note_on,66,63,0
1,note_on,69,63,0
1,note_on,78,75,0
1,note_on,78,0,480
1,note_on,69,0,0
1,note_on,66,0,0
1,note_on,67,61,1440
1,note_on,70,61,0
1,note_on,74,61,0
1,note_on,79,79,0
1,note_on,74,0,480
1,note_on,73,74,0
1,note_on,73,0,480
1,note_on,76,80,0
1,note_on,76,0,120
1,note_on,79,0,350
1,note_on,67,0,0
1,note_on,70,0,10
1,note_on,85,86,0
1,note_on,76,59,0
1,note_on,73,66,0
1,note_on,76,0,480
1,note_on,79,80,0
1,note_on,79,0,480
1,note_on,73,0,0
1,note_on,85,0,0
1,note_on,74,74,0
1,note_on,86,88,0
1,note_on,77,74,0
1,note_on,77,0,120
1,note_on,86,0,0
1,note_on,74,0,0
1,note_on,74,74,360
1,note_on,76,74,0
1,note_on,86,88,0
1,note_on,86,0,240
1,note_on,76,0,0
1,note_on,74,0,0
1,note_on,73,70,240
1,note_on,76,70,0
1,note_on,85,83,0
1,note_on,85,0,240
1,note_on,76,0,0
1,note_on,73,0,0
1,note_on,74,74,240
1,note_on,77,74,0
1,note_on,86,88,0
1,note_on,86,0,480
1,note_on,77,0,0
1,note_on,74,0,0
1,note_on,80,74,480
1,note_on,80,0,120
1,note_on,82,48,0
1,note_on,82,0,120
1,note_on,80,48,0
1,note_on,80,0,120
1,note_on,79,48,0
1,note_on,79,0,120
1,note_on,77,68,0
1,note_on,77,0,120
1,note_on,79,48,0
1,note_on,79,0,120
1,note_on,77,47,0
1,note_on,77,0,120
1,note_on,75,47,0
1,note_on,75,0,120
1,note_on,74,63,0
1,note_on,74,0,120
1,note_on,75,46,0
1,note_on,75,0,120
1,note_on,74,46,0
1,note_on,74,0,120
1,note_on,72,46,0
1,note_on,72,0,120
1,note_on,79,74,0
1,note_on,71,84,0
1,note_on,79,0,120
1,note_on,80,48,0
1,note_on,80,0,120
1,note_on,79,48,0
1,note_on,79,0,120
1,note_on,77,48,0
1,note_on,77,0,120
1,note_on,71,0,0
1,note_on,72,66,0
1,note_on,75,68,0
1,note_on,75,0,120
1,note_on,77,48,0
1,note_on,77,0,120
1,note_on,72,0,0
1,note_on,75,47,0
1,note_on,75,0,120
1,note_on,74,47,0
1,note_on,74,0,120
1,note_on,72,63,0
1,note_on,71,46,120
1,note_on,71,0,120
1,note_on,72,0,0
1,note_on,72,46,0
1,note_on,72,0,120
1,note_on,74,46,0
1,note_on,74,0,120
1,note_on,75,74,0
1,note_on,75,0,120
1,note_on,77,48,0
1,note_on,77,0,120
1,note_on,75,48,0
1,note_on,75,0,120
1,note_on,74,48,0
1,note_on,74,0,120
1,note_on,72,68,0
1,note_on,72,0,120
1,note_on,74,48,0
1,note_on,74,0,120
1,note_on,72,47,0
1,note_on,72,0,120
1,note_on,70,47,0
1,note_on,70,0,120
1,note_on,69,63,0
1,note_on,69,0,120
1,note_on,70,46,0
1,note_on,70,0,120
1,note_on,69,46,0
1,note_on,69,0,120
1,note_on,67,46,0
1,note_on,67,0,120
1,note_on,74,74,0
1,note_on,66,79,0
1,note_on,74,0,120
1,note_on,75,48,0
1,note_on,75,0,120
1,note_on,74,48,0
1,note_on,74,0,120
1,note_on,72,48,0
1,note_on,72,0,120
1,note_on,66,0,0
1,note_on,67,66,0
1,note_on,70,68,0
1,note_on,70,0,120
1,note_on,72,48,0
1,note_on,72,0,120
1,note_on,67,0,0
1,note_on,70,47,0
1,note_on,70,0,120
1,note_on,69,47,0
1,note_on,69,0,120
1,note_on,67,63,0
1,note_on,67,0,120
1,note_on,66,46,0
1,note_on,66,0,120
1,note_on,67,46,0
1,note_on,67,0,120
1,note_on,69,46,0
1,note_on,69,0,120
1,note_on,67,59,0
1,note_on,70,59,0
1,note_on,74,77,0
1,note_on,74,0,960
1,note_on,70,0,0
1,note_on,67,0,0
1,note_on,67,61,0
1,note_on,70,61,0
1,note_on,74,61,0
1,note_on,79,86,0
1,note_on,74,0,960
1,note_on,72,71,0
1,note_on,75,80,0
1,note_on,75,0,120
1,note_on,72,0,0
1,note_on,79,0,350
1,note_on,67,0,0
1,note_on,70,0,10
1,note_on,84,86,0
1,note_on,75,59,0
1,note_on,72,66,0
1,note_on,75,0,480
1,note_on,81,69,0
1,note_on,81,0,470
1,note_on,78,74,10
1,note_on,81,66,0
1,note_on,81,0,120
1,note_on,84,0,0
1,note_on,72,0,0
1,note_on,78,0,0
1,note_on,79,74,360
1,note_on,70,67,0
1,note_on,74,67,0
1,note_on,82,88,0
1,note_on,82,0,240
1,note_on,79,0,0
1,note_on,70,0,0
1,note_on,74,0,0
1,note_on,69,62,240
1,note_on,66,62,0
1,note_on,74,70,0
1,note_on,78,83,0
1,note_on,78,0,240
1,note_on,69,0,0
1,note_on,66,0,0
1,note_on,74,0,0
1,note_on,70,67,240
1,note_on,67,67,0
1,note_on,74,74,0
1,note_on,79,88,0
1,note_on,79,0,480
1,note_on,70,0,0
1,note_on,67,0,0
1,note_on,74,0,0
1,note_on,80,74,480
1,note_on,80,0,120
1,note_on,82,48,0
1,note_on,82,0,120
1,note_on,80,48,0
1,note_on,80,0,120
1,note_on,79,48,0
1,note_on,79,0,120
1,note_on,77,68,0
1,note_on,77,0,120
1,note_on,79,48,0
1,note_on,79,0,120
1,note_on,77,47,0
1,note_on,77,0,120
1,note_on,75,47,0
1,note_on,75,0,120
1,note_on,74,63,0
1,note_on,74,0,120
1,note_on,75,46,0
1,note_on,75,0,120
1,note_on,74,46,0
1,note_on,74,0,120
1,note_on,72,46,0
1,note_on,72,0,120
1,note_on,79,74,0
1,note_on,71,84,0
1,note_on,79,0,120
1,note_on,80,48,0
1,note_on,80,0,120
1,note_on,79,48,0
1,note_on,79,0,120
1,note_on,77,48,0
1,note_on,77,0,120
1,note_on,71,0,0
1,note_on,72,66,0
1,note_on,75,68,0
1,note_on,75,0,120
1,note_on,77,48,0
1,note_on,77,0,120
1,note_on,72,0,0
1,note_on,75,47,0
1,note_on,75,0,120
1,note_on,74,47,0
1,note_on,74,0,120
1,note_on,72,63,0
1,note_on,71,46,120
1,note_on,71,0,120
1,note_on,72,0,0
1,note_on,72,46,0
1,note_on,72,0,120
1,note_on,74,46,0
1,note_on,74,0,120
1,note_on,75,74,0
1,note_on,75,0,120
1,note_on,77,48,0
1,note_on,77,0,120
1,note_on,75,48,0
1,note_on,75,0,120
1,note_on,74,48,0
1,note_on,74,0,120
1,note_on,72,68,0
1,note_on,72,0,120
1,note_on,74,48,0
1,note_on,74,0,120
1,note_on,72,47,0
1,note_on,72,0,120
1,note_on,70,47,0
1,note_on,70,0,120
1,note_on,69,63,0
1,note_on,69,0,120
1,note_on,70,46,0
1,note_on,70,0,120
1,note_on,69,46,0
1,note_on,69,0,120
1,note_on,67,46,0
1,note_on,67,0,120
1,note_on,74,74,0
1,note_on,66,79,0
1,note_on,74,0,120
1,note_on,75,48,0
1,note_on,75,0,120
1,note_on,74,48,0
1,note_on,74,0,120
1,note_on,72,48,0
1,note_on,72,0,120
1,note_on,66,0,0
1,note_on,67,66,0
1,note_on,70,68,0
1,note_on,70,0,120
1,note_on,72,48,0
1,note_on,72,0,120
1,note_on,67,0,0
1,note_on,70,47,0
1,note_on,70,0,120
1,note_on,69,47,0
1,note_on,69,0,120
1,note_on,67,63,0
1,note_on,67,0,120
1,note_on,66,46,0
1,note_on,66,0,120
1,note_on,67,46,0
1,note_on,67,0,120
1,note_on,69,46,0
1,note_on,69,0,120
1,note_on,67,59,0
1,note_on,70,59,0
1,note_on,74,77,0
1,note_on,74,0,960
1,note_on,70,0,0
1,note_on,67,0,0
1,note_on,67,61,0
1,note_on,70,61,0
1,note_on,74,61,0
1,note_on,79,86,0
1,note_on,74,0,960
1,note_on,72,71,0
1,note_on,75,80,0
1,note_on,75,0,120
1,note_on,72,0,0
1,note_on,79,0,350
1,note_on,67,0,0
1,note_on,70,0,10
1,note_on,84,86,0
1,note_on,75,59,0
1,note_on,72,66,0
1,note_on,75,0,480
1,note_on,81,69,0
1,note_on,81,0,470
1,note_on,78,74,10
1,note_on,81,66,0
1,note_on,81,0,120
1,note_on,84,0,0
1,note_on,72,0,0
1,note_on,78,0,0
1,note_on,79,74,360
1,note_on,70,67,0
1,note_on,74,67,0
1,note_on,82,88,0
1,note_on,82,0,240
1,note_on,79,0,0
1,note_on,70,0,0
1,note_on,74,0,0
1,note_on,69,62,240
1,note_on,66,62,0
1,note_on,74,70,0
1,note_on,78,83,0
1,note_on,78,0,240
1,note_on,69,0,0
1,note_on,66,0,0
1,note_on,74,0,0
1,note_on,70,67,240
1,note_on,67,67,0
1,note_on,74,74,0
1,note_on,79,88,0
1,note_on,79,0,480
1,note_on,70,0,0
1,note_on,67,0,0
1,note_on,74,0,0
1,note_on,62,50,480
1,note_on,62,0,360
1,note_on,63,46,0
1,note_on,63,0,120
1,note_on,65,50,0
1,note_on,65,0,930
1,note_on,69,46,0
1,note_on,69,0,30
1,note_on,67,50,0
1,note_on,67,0,120
1,note_on,65,45,0
1,note_on,65,0,120
1,note_on,67,50,0
1,note_on,67,0,120
1,note_on,69,43,0
1,note_on,69,0,120
1,note_on,70,50,0
1,note_on,70,0,480
1,note_on,65,41,0
1,note_on,65,0,420
1,note_on,69,43,30
1,note_on,69,0,30
1,note_on,67,50,0
1,note_on,67,0,120
1,note_on,65,46,0
1,note_on,65,0,120
1,note_on,67,50,0
1,note_on,67,0,120
1,note_on,69,50,0
1,note_on,69,0,120
1,note_on,70,50,0
1,note_on,70,0,60
1,note_on,69,46,300
1,note_on,69,0,60
1,note_on,70,56,60
1,note_on,70,0,60
1,note_on,72,48,300
1,note_on,72,0,60
1,note_on,74,55,60
1,note_on,74,0,60
1,note_on,76,59,300
1,note_on,76,0,60
1,note_on,70,53,60
1,note_on,76,63,0
1,note_on,76,0,480
1,note_on,70,0,0
1,note_on,69,48,0
1,note_on,77,57,0
1,note_on,77,0,240
1,note_on,69,0,0
1,note_on,77,43,210
1,note_on,77,0,30
1,note_on,75,50,0
1,note_on,75,0,120
1,note_on,74,46,0
1,note_on,74,0,120
1,note_on,75,54,0
1,note_on,75,0,120
1,note_on,77,51,0
1,note_on,77,0,120
1,note_on,79,59,0
1,note_on,79,0,480
1,note_on,72,50,0
1,note_on,72,0,420
1,note_on,74,43,30
1,note_on,74,0,30
1,note_on,72,50,0
1,note_on,72,0,120
1,note_on,71,46,0
1,note_on,71,0,120
1,note_on,72,54,0
1,note_on,72,0,120
1,note_on,74,51,0
1,note_on,74,0,120
1,note_on,75,59,0
1,note_on,75,0,480
1,note_on,69,50,0
1,note_on,69,0,420
1,note_on,70,43,30
1,note_on,70,0,30
1,note_on,69,50,0
1,note_on,69,0,120
1,note_on,67,46,0
1,note_on,67,0,120
1,note_on,69,52,0
1,note_on,69,0,120
1,note_on,70,48,0
1,note_on,70,0,80
1,note_on,74,43,10
1,note_on,74,0,30
1,note_on,72,53,0
1,note_on,72,0,120
1,note_on,71,50,0
1,note_on,71,0,120
1,note_on,72,54,0
1,note_on,72,0,120
1,note_on,74,51,0
1,note_on,74,0,80
1,note_on,77,43,10
1,note_on,77,0,30
1,note_on,75,57,0
1,note_on,75,0,120
1,note_on,74,52,0
1,note_on,74,0,120
1,note_on,75,58,0
1,note_on,75,0,120
1,note_on,77,55,0
1,note_on,77,0,120
1,note_on,79,64,0
1,note_on,79,0,60
1,note_on,69,42,300
1,note_on,69,0,120
1,note_on,72,50,0
1,note_on,72,0,480
1,note_on,70,44,0
1,note_on,70,0,240
1,note_on,69,38,240
1,note_on,74,46,0
1,note_on,74,0,120
1,note_on,69,0,0
1,note_on,70,34,0
1,note_on,73,41,0
1,note_on,73,0,120
1,note_on,70,0,0
1,note_on,69,41,0
1,note_on,74,49,0
1,note_on,74,0,120
1,note_on,69,0,0
1,note_on,70,34,0
1,note_on,73,40,0
1,note_on,73,0,120
1,note_on,70,0,0
1,note_on,69,45,0
1,note_on,74,53,0
1,note_on,74,0,120
1,note_on,69,0,0
1,note_on,70,40,0
1,note_on,73,49,0
1,note_on,73,0,120
1,note_on,70,0,0
1,note_on,69,48,0
1,note_on,74,57,0
1,note_on,74,0,120
1,note_on,69,0,0
1,note_on,70,39,0
1,note_on,73,46,0
1,note_on,73,0,120
1,note_on,70,0,0
1,note_on,69,52,0
1,note_on,74,62,0
1,note_on,74,0,120
1,note_on,69,0,0
1,note_on,70,47,0
1,note_on,73,56,0
1,note_on,73,0,120
1,note_on,70,0,0
1,note_on,69,55,0
1,note_on,74,66,0
1,note_on,74,0,120
1,note_on,69,0,0
1,note_on,70,46,0
1,note_on,73,54,0
1,note_on,73,0,120
1,note_on,70,0,0
1,note_on,69,59,0
1,note_on,74,70,0
1,note_on,74,0,120
1,note_on,69,0,0
1,note_on,70,53,0
1,note_on,73,63,0
1,note_on,73,0,120
1,note_on,70,0,0
1,note_on,69,63,0
1,note_on,74,74,0
1,note_on,74,0,120
1,note_on,69,0,0
1,note_on,70,52,0
1,note_on,73,61,0
1,note_on,73,0,120
1,note_on,70,0,0
1,note_on,69,82,0
1,note_on,74,82,0
1,note_on,74,0,240
1,note_on,69,0,0
1,note_on,86,100,240
1,note_on,78,84,0
1,note_on,78,0,720
1,note_on,86,0,0
1,note_on,84,75,0
1,note_on,78,63,0
1,note_on,78,0,120
1,note_on,84,0,0
1,note_on,82,91,120
1,note_on,79,77,0
1,note_on,79,0,240
1,note_on,82,0,0
1,note_on,81,73,120
1,note_on,75,61,0
1,note_on,75,0,60
1,note_on,81,0,0
1,note_on,70,72,60
1,note_on,79,85,0
1,note_on,79,0,240
1,note_on,70,0,0
1,note_on,72,69,240
1,note_on,78,81,0
1,note_on,78,0,240
1,note_on,72,0,0
1,note_on,72,69,240
1,note_on,81,82,0
1,note_on,81,0,480
1,note_on,72,0,0
1,note_on,70,61,0
1,note_on,79,72,0
1,note_on,79,0,240
1,note_on,70,0,0
1,note_on,56,25,240
1,note_on,58,30,0
1,note_on,59,27,120
1,note_on,58,0,1
1,note_on,56,0,0
1,note_on,56,27,119
1,note_on,58,33,0
1,note_on,59,0,1
1,note_on,59,27,119
1,note_on,58,0,1
1,note_on,56,0,0
1,note_on,56,29,119
1,note_on,58,35,0
1,note_on,59,0,1
1,note_on,59,32,119
1,note_on,58,0,1
1,note_on,56,0,0
1,note_on,56,32,119
1,note_on,58,37,0
1,note_on,59,0,1
1,note_on,59,30,119
1,note_on,58,0,1
1,note_on,56,0,0
1,note_on,56,34,119
1,note_on,58,41,0
1,note_on,59,0,1
1,note_on,59,38,119
1,note_on,58,0,1
1,note_on,56,0,0
1,note_on,56,37,119
1,note_on,58,44,0
1,note_on,59,0,1
1,note_on,59,35,119
1,note_on,58,0,1
1,note_on,56,0,0
1,note_on,56,39,119
1,note_on,58,46,0
1,note_on,59,0,1
1,note_on,59,42,119
1,note_on,58,0,1
1,note_on,56,0,0
1,note_on,56,41,119
1,note_on,58,49,0
1,note_on,59,0,1
1,note_on,59,41,119
1,note_on,58,0,1
1,note_on,56,0,0
1,note_on,56,65,119
1,note_on,58,65,0
1,note_on,59,0,1
1,note_on,58,0,239
1,note_on,56,0,0
1,note_on,80,85,240
1,note_on,71,72,0
1,note_on,71,0,720
1,note_on,80,0,0
1,note_on,79,59,0
1,note_on,72,49,0
1,note_on,72,0,240
1,note_on,79,0,0
1,note_on,77,70,0
1,note_on,68,58,0
1,note_on,68,0,360
1,note_on,77,0,0
1,note_on,75,53,0
1,note_on,67,45,0
1,note_on,67,0,120
1,note_on,75,0,0
1,note_on,65,52,0
1,note_on,74,61,0
1,note_on,74,0,480
1,note_on,65,0,0
1,note_on,63,46,0
1,note_on,72,54,0
1,note_on,72,0,480
1,note_on,63,0,0
1,note_on,62,40,0
1,note_on,70,48,0
1,note_on,70,0,480
1,note_on,62,0,0
1,note_on,60,36,0
1,note_on,69,42,0
1,note_on,69,0,240
1,note_on,60,0,0
1,note_on,62,50,240
1,note_on,62,0,360
1,note_on,63,46,0
1,note_on,63,0,120
1,note_on,65,50,0
1,note_on,65,0,930
1,note_on,69,46,0
1,note_on,69,0,30
1,note_on,67,50,0
1,note_on,67,0,120
1,note_on,65,45,0
1,note_on,65,0,120
1,note_on,67,50,0
1,note_on,67,0,120
1,note_on,69,43,0
1,note_on,69,0,120
1,note_on,70,50,0
1,note_on,70,0,480
1,note_on,65,41,0
1,note_on,65,0,420
1,note_on,69,43,30
1,note_on,69,0,30
1,note_on,67,50,0
1,note_on,67,0,120
1,note_on,65,46,0
1,note_on,65,0,120
1,note_on,67,50,0
1,note_on,67,0,120
1,note_on,69,50,0
1,note_on,69,0,120
1,note_on,70,50,0
1,note_on,70,0,60
1,note_on,69,46,300
1,note_on,69,0,60
1,note_on,70,56,60
1,note_on,70,0,60
1,note_on,72,48,300
1,note_on,72,0,60
1,note_on,74,55,60
1,note_on,74,0,60
1,note_on,76,59,300
1,note_on,76,0,60
1,note_on,70,53,60
1,note_on,76,63,0
1,note_on,76,0,480
1,note_on,70,0,0
1,note_on,69,48,0
1,note_on,77,57,0
1,note_on,77,0,240
1,note_on,69,0,0
1,note_on,77,43,210
1,note_on,77,0,30
1,note_on,75,50,0
1,note_on,75,0,120
1,note_on,74,46,0
1,note_on,74,0,120
1,note_on,75,54,0
1,note_on,75,0,120
1,note_on,77,51,0
1,note_on,77,0,120
1,note_on,79,59,0
1,note_on,79,0,480
1,note_on,72,50,0
1,note_on,72,0,420
1,note_on,74,43,30
1,note_on,74,0,30
1,note_on,72,50,0
1,note_on,72,0,120
1,note_on,71,46,0
1,note_on,71,0,120
1,note_on,72,54,0
1,note_on,72,0,120
1,note_on,74,51,0
1,note_on,74,0,120
1,note_on,75,59,0
1,note_on,75,0,480
1,note_on,69,50,0
1,note_on,69,0,420
1,note_on,70,43,30
1,note_on,70,0,30
1,note_on,69,50,0
1,note_on,69,0,120
1,note_on,67,46,0
1,note_on,67,0,120
1,note_on,69,52,0
1,note_on,69,0,120
1,note_on,70,48,0
1,note_on,70,0,80
1,note_on,74,43,10
1,note_on,74,0,30
1,note_on,72,53,0
1,note_on,72,0,120
1,note_on,71,50,0
1,note_on,71,0,120
1,note_on,72,54,0
1,note_on,72,0,120
1,note_on,74,51,0
1,note_on,74,0,80
1,note_on,77,43,10
1,note_on,77,0,30
1,note_on,75,57,0
1,note_on,75,0,120
1,note_on,74,52,0
1,note_on,74,0,120
1,note_on,75,58,0
1,note_on,75,0,120
1,note_on,77,55,0
1,note_on,77,0,120
1,note_on,79,61,0
1,note_on,79,0,120
1,note_on,75,59,0
1,note_on,75,0,120
1,note_on,72,52,0
1,note_on,72,0,120
1,note_on,69,42,0
1,note_on,69,0,120
1,note_on,70,50,0
1,note_on,70,0,480
1,note_on,81,46,450
1,note_on,81,0,30
1,note_on,79,50,0
1,note_on,79,0,120
1,note_on,78,45,0
1,note_on,78,0,120
1,note_on,79,50,0
1,note_on,79,0,120
1,note_on,81,43,0
1,note_on,81,0,120
1,note_on,82,50,0
1,note_on,82,0,480
1,note_on,77,41,0
1,note_on,77,0,420
1,note_on,69,43,30
1,note_on,69,0,30
1,note_on,75,41,0
1,note_on,67,50,0
1,note_on,67,0,120
1,note_on,65,46,0
1,note_on,65,0,120
1,note_on,67,50,0
1,note_on,67,0,120
1,note_on,69,46,0
1,note_on,69,0,120
1,note_on,75,0,0
1,note_on,74,44,0
1,note_on,70,50,0
1,note_on,70,0,480
1,note_on,74,0,0
1,note_on,65,41,0
1,note_on,65,0,240
1,note_on,69,43,210
1,note_on,69,0,30
1,note_on,67,50,0
1,note_on,67,0,120
1,note_on,66,46,0
1,note_on,66,0,120
1,note_on,67,50,0
1,note_on,67,0,120
1,note_on,69,46,0
1,note_on,69,0,120
1,note_on,70,50,0
1,note_on,70,0,480
1,note_on,65,41,0
1,note_on,65,0,420
1,note_on,57,36,30
1,note_on,57,0,30
1,note_on,63,34,0
1,note_on,55,42,0
1,note_on,55,0,120
1,note_on,53,39,0
1,note_on,53,0,120
1,note_on,55,42,0
1,note_on,55,0,120
1,note_on,57,39,0
1,note_on,57,0,120
1,note_on,63,0,0
1,note_on,62,34,0
1,note_on,58,42,0
1,note_on,58,0,240
1,note_on,53,33,0
1,note_on,53,0,200
1,note_on,57,37,10
1,note_on,57,0,30
1,note_on,62,0,0
1,note_on,63,39,0
1,note_on,55,43,0
1,note_on,55,0,120
1,note_on,53,40,0
1,note_on,53,0,120
1,note_on,55,44,0
1,note_on,55,0,120
1,note_on,57,40,0
1,note_on,57,0,120
1,note_on,63,0,0
1,note_on,62,36,0
1,note_on,58,44,0
1,note_on,58,0,240
1,note_on,53,34,0
1,note_on,53,0,180
1,note_on,57,39,30
1,note_on,57,0,30
1,note_on,62,0,0
1,note_on,63,44,0
1,note_on,55,46,0
1,note_on,55,0,120
1,note_on,53,43,0
1,note_on,53,0,120
1,note_on,55,47,0
1,note_on,55,0,120
1,note_on,57,44,0
1,note_on,57,0,120
1,note_on,63,0,0
1,note_on,62,42,0
1,note_on,58,48,0
1,note_on,58,0,120
1,note_on,53,41,0
1,note_on,53,0,120
1,note_on,62,0,0
1,note_on,63,40,0
1,note_on,57,50,0
1,note_on,57,0,120
1,note_on,53,43,0
1,note_on,53,0,120
1,note_on,63,0,0
1,note_on,62,49,0
1,note_on,58,51,0
1,note_on,58,0,120
1,note_on,53,46,0
1,note_on,53,0,120
1,note_on,62,0,0
1,note_on,63,42,0
1,note_on,57,52,0
1,note_on,57,0,120
1,note_on,53,47,0
1,note_on,53,0,120
1,note_on,63,0,0
1,note_on,58,34,0
1,note_on,62,40,0
1,note_on,62,0,120
1,note_on,58,0,0
1,note_on,62,34,360
1,note_on,70,40,0
1,note_on,70,0,120
1,note_on,62,0,0
2,note_on,46,40,1440
2,note_on,46,0,120
2,note_on,58,29,120
2,note_on,58,0,240
2,note_on,62,34,0
2,note_on,62,0,240
2,note_on,58,29,0
2,note_on,58,0,240
2,note_on,63,34,0
2,note_on,63,0,240
2,note_on,60,31,0
2,note_on,60,0,240
2,note_on,62,40,0
2,note_on,62,0,240
2,note_on,61,30,0
2,note_on,61,0,240
2,note_on,62,34,0
2,note_on,62,0,240
2,note_on,58,30,0
2,note_on,58,0,240
2,note_on,63,34,0
2,note_on,63,0,240
2,note_on,60,29,0
2,note_on,60,0,240
2,note_on,62,40,0
2,note_on,62,0,240
2,note_on,61,30,0
2,note_on,61,0,240
2,note_on,62,34,0
2,note_on,62,0,240
2,note_on,57,30,0
2,note_on,57,0,240
2,note_on,58,34,0
2,note_on,58,0,240
2,note_on,55,30,0
2,note_on,55,0,230
2,note_on,53,40,10
2,note_on,65,35,480
2,note_on,65,0,240
2,note_on,53,0,0
2,note_on,53,36,960
2,note_on,57,40,240
2,note_on,57,0,240
2,note_on,60,37,0
2,note_on,60,0,240
2,note_on,63,40,0
2,note_on,63,0,720
2,note_on,53,0,0
2,note_on,53,42,0
2,note_on,60,48,240
2,note_on,60,0,240
2,note_on,63,41,0
2,note_on,63,0,240
2,note_on,66,55,0
2,note_on,66,0,960
2,note_on,53,0,0
2,note_on,65,38,0
2,note_on,53,38,0
2,note_on,53,0,480
2,note_on,65,0,0
2,note_on,53,32,0
2,note_on,63,32,0
2,note_on,63,0,480
2,note_on,53,0,0
2,note_on,58,30,0
2,note_on,63,36,0
2,note_on,63,0,480
2,note_on,62,32,0
2,note_on,62,0,240
2,note_on,58,0,0
2,note_on,46,40,720
2,note_on,46,0,120
2,note_on,58,29,120
2,note_on,58,0,240
2,note_on,62,34,0
2,note_on,62,0,240
2,note_on,58,29,0
2,note_on,58,0,240
2,note_on,63,34,0
2,note_on,63,0,240
2,note_on,60,31,0
2,note_on,60,0,240
2,note_on,62,40,0
2,note_on,62,0,240
2,note_on,61,30,0
2,note_on,61,0,240
2,note_on,62,34,0
2,note_on,62,0,240
2,note_on,58,30,0
2,note_on,58,0,240
2,note_on,63,34,0
2,note_on,63,0,240
2,note_on,60,29,0
2,note_on,60,0,240
2,note_on,62,40,0
2,note_on,62,0,240
2,note_on,61,30,0
2,note_on,61,0,240
2,note_on,62,34,0
2,note_on,62,0,240
2,note_on,57,30,0
2,note_on,57,0,240
2,note_on,58,34,0
2,note_on,58,0,240
2,note_on,55,30,0
2,note_on,55,0,230
2,note_on,53,40,10
2,note_on,65,35,480
2,note_on,65,0,240
2,note_on,53,0,0
2,note_on,53,36,960
2,note_on,57,40,240
2,note_on,57,0,240
2,note_on,60,37,0
2,note_on,60,0,240
2,note_on,63,40,0
2,note_on,63,0,720
2,note_on,53,0,0
2,note_on,53,42,0
2,note_on,60,48,240
2,note_on,60,0,240
2,note_on,63,41,0
2,note_on,63,0,240
2,note_on,66,55,0
2,note_on,66,0,960
2,note_on,53,0,0
2,note_on,65,38,0
2,note_on,53,38,0
2,note_on,53,0,480
2,note_on,65,0,0
2,note_on,53,32,0
2,note_on,63,32,0
2,note_on,63,0,480
2,note_on,53,0,0
2,note_on,58,30,0
2,note_on,63,36,0
2,note_on,63,0,480
2,note_on,62,32,0
2,note_on,62,0,240
2,note_on,58,0,0
2,note_on,66,38,240
2,note_on,66,0,120
2,note_on,67,33,0
2,note_on,67,0,120
2,note_on,66,42,0
2,note_on,66,0,120
2,note_on,67,38,0
2,note_on,67,0,120
2,note_on,66,45,0
2,note_on,66,0,120
2,note_on,67,39,0
2,note_on,67,0,120
2,note_on,66,49,0
2,note_on,66,0,120
2,note_on,67,45,0
2,note_on,67,0,120
2,note_on,66,52,0
2,note_on,66,0,120
2,note_on,67,45,0
2,note_on,67,0,120
2,note_on,66,55,0
2,note_on,66,0,120
2,note_on,67,52,0
2,note_on,67,0,120
2,note_on,66,59,0
2,note_on,66,0,120
2,note_on,67,52,0
2,note_on,67,0,120
2,note_on,66,63,0
2,note_on,66,0,120
2,note_on,67,58,0
2,note_on,67,0,120
2,note_on,66,70,0
2,note_on,66,0,240
2,note_on,50,62,240
2,note_on,62,74,0
2,note_on,62,0,720
2,note_on,50,0,0
2,note_on,50,46,0
2,note_on,62,56,0
2,note_on,62,0,120
2,note_on,50,0,0
2,note_on,51,57,120
2,note_on,63,68,0
2,note_on,63,0,240
2,note_on,51,0,0
2,note_on,48,45,120
2,note_on,60,53,0
2,note_on,60,0,60
2,note_on,48,0,0
2,note_on,50,53,60
2,note_on,62,63,0
2,note_on,62,0,240
2,note_on,50,0,0
2,note_on,38,51,240
2,note_on,50,61,0
2,note_on,50,0,240
2,note_on,38,0,0
2,note_on,43,51,240
2,note_on,55,61,0
2,note_on,55,0,720
2,note_on,43,0,0
2,note_on,50,25,240
2,note_on,51,22,120
2,note_on,50,0,1
2,note_on,50,27,119
2,note_on,51,0,1
2,note_on,51,24,119
2,note_on,50,0,1
2,note_on,50,28,119
2,note_on,51,0,1
2,note_on,51,24,119
2,note_on,50,0,1
2,note_on,50,30,119
2,note_on,51,0,1
2,note_on,51,28,119
2,note_on,50,0,1
2,note_on,50,33,119
2,note_on,51,0,1
2,note_on,51,29,119
2,note_on,50,0,1
2,note_on,50,36,119
2,note_on,51,0,1
2,note_on,51,33,119
2,note_on,50,0,1
2,note_on,50,38,119
2,note_on,51,0,1
2,note_on,51,33,119
2,note_on,50,0,1
2,note_on,50,40,119
2,note_on,51,0,1
2,note_on,51,38,119
2,note_on,50,0,1
2,note_on,50,54,119
2,note_on,51,0,1
2,note_on,50,0,239
2,note_on,50,53,240
2,note_on,53,64,0
2,note_on,53,0,720
2,note_on,50,0,0
2,note_on,51,36,0
2,note_on,55,43,0
2,note_on,55,0,240
2,note_on,51,0,0
2,note_on,47,43,0
2,note_on,50,51,0
2,note_on,50,0,360
2,note_on,47,0,0
2,note_on,48,32,0
2,note_on,51,39,0
2,note_on,51,0,120
2,note_on,48,0,0
2,note_on,50,38,0
2,note_on,53,45,0
2,note_on,53,0,480
2,note_on,50,0,0
2,note_on,51,34,0
2,note_on,55,41,0
2,note_on,55,0,480
2,note_on,51,0,0
2,note_on,53,36,0
2,note_on,53,0,480
2,note_on,41,30,0
2,note_on,41,0,240
2,note_on,46,40,720
2,note_on,46,0,120
2,note_on,58,29,120
2,note_on,58,0,240
2,note_on,62,34,0
2,note_on,62,0,240
2,note_on,58,29,0
2,note_on,58,0,240
2,note_on,63,34,0
2,note_on,63,0,240
2,note_on,60,31,0
2,note_on,60,0,240
2,note_on,62,40,0
2,note_on,62,0,240
2,note_on,61,30,0
2,note_on,61,0,240
2,note_on,62,34,0
2,note_on,62,0,240
2,note_on,58,30,0
2,note_on,58,0,240
2,note_on,63,34,0
2,note_on,63,0,240
2,note_on,60,29,0
2,note_on,60,0,240
2,note_on,62,40,0
2,note_on,62,0,240
2,note_on,61,30,0
2,note_on,61,0,240
2,note_on,62,34,0
2,note_on,62,0,240
2,note_on,57,30,0
2,note_on,57,0,240
2,note_on,58,34,0
2,note_on,58,0,240
2,note_on,55,30,0
2,note_on,55,0,230
2,note_on,53,40,10
2,note_on,65,35,480
2,note_on,65,0,240
2,note_on,53,0,0
2,note_on,41,37,840
2,note_on,41,0,120
2,note_on,45,38,0
2,note_on,45,0,120
2,note_on,48,39,0
2,note_on,48,0,120
2,note_on,53,40,0
2,note_on,53,0,120
2,note_on,57,41,0
2,note_on,57,0,120
2,note_on,60,42,0
2,note_on,60,0,120
2,note_on,62,43,0
2,note_on,62,0,120
2,note_on,63,48,0
2,note_on,63,0,600
2,note_on,41,37,0
2,note_on,41,0,120
2,note_on,45,41,0
2,note_on,45,0,120
2,note_on,48,43,0
2,note_on,48,0,120
2,note_on,53,44,0
2,note_on,53,0,120
2,note_on,57,46,0
2,note_on,57,0,120
2,note_on,60,48,0
2,note_on,60,0,120
2,note_on,63,49,0
2,note_on,63,0,120
2,note_on,66,55,0
2,note_on,66,0,960
2,note_on,65,38,0
2,note_on,53,38,0
2,note_on,53,0,480
2,note_on,65,0,0
2,note_on,53,32,0
2,note_on,63,32,0
2,note_on,63,0,480
2,note_on,53,0,0
2,note_on,46,40,0
2,note_on,46,0,120
2,note_on,58,29,120
2,note_on,58,0,240
2,note_on,62,34,0
2,note_on,62,0,240
2,note_on,58,29,0
2,note_on,58,0,240
2,note_on,63,34,0
2,note_on,63,0,240
2,note_on,58,31,0
2,note_on,58,0,240
2,note_on,62,40,0
2,note_on,62,0,240
2,note_on,61,30,0
2,note_on,61,0,240
2,note_on,62,34,0
2,note_on,62,0,240
2,note_on,58,30,0
2,note_on,58,0,240
2,note_on,60,34,0
2,note_on,60,0,240
2,note_on,53,29,0
2,note_on,53,0,240
2,note_on,58,40,0
2,note_on,58,0,240
2,note_on,46,30,0
2,note_on,46,0,240
2,note_on,50,34,0
2,note_on,50,0,240
2,note_on,46,30,0
2,note_on,46,0,240
2,note_on,51,34,0
2,note_on,51,0,240
2,note_on,46,29,0
2,note_on,46,0,240
2,note_on,50,40,0
2,note_on,50,0,240
2,note_on,49,30,0
2,note_on,49,0,240
2,note_on,50,34,0
2,note_on,50,0,240
2,note_on,46,30,0
2,note_on,46,0,240
2,note_on,48,34,0
2,note_on,48,0,240
2,note_on,41,29,0
2,note_on,41,0,240
2,note_on,46,40,0
2,note_on,46,0,240
2,note_on,50,30,0
2,note_on,50,0,240
2,note_on,48,35,0
2,note_on,48,0,240
2,note_on,41,31,0
2,note_on,41,0,240
2,note_on,46,36,0
2,note_on,46,0,240
2,note_on,50,31,0
2,note_on,50,0,240
2,note_on,48,44,0
2,note_on,48,0,240
2,note_on,41,33,0
2,note_on,41,0,240
2,note_on,46,45,0
2,note_on,46,0,120
2,note_on,50,37,0
2,note_on,50,0,120
2,note_on,41,46,0
2,note_on,41,0,120
2,note_on,48,39,0
2,note_on,48,0,120
2,note_on,46,47,0
2,note_on,46,0,120
2,note_on,50,41,0
2,note_on,50,0,120
2,note_on,41,49,0
2,note_on,41,0,120
2,note_on,48,43,0
2,note_on,48,0,120
2,note_on,46,24,0
2,note_on,50,30,0
2,note_on,50,0,120
2,note_on,46,0,0
2,note_on,34,24,360
2,note_on,46,30,0
2,note_on,46,0,120
2,note_on,34,0,0
2,note_on,66,38,360
2,note_on,66,0,120
2,note_on,67,33,0
2,note_on,67,0,120
2,note_on,66,42,0
2,note_on,66,0,120
2,note_on,67,38,0
2,note_on,67,0,120
2,note_on,66,45,0
2,note_on,66,0,120
2,note_on,67,39,0
2,note_on,67,0,120
2,note_on,66,48,0
2,note_on,66,0,120
2,note_on,67,45,0
2,note_on,67,0,120
2,note_on,66,52,0
2,note_on,66,0,120
2,note_on,67,45,0
2,note_on,67,0,120
2,note_on,66,55,0
2,note_on,66,0,120
2,note_on,67,52,0
2,note_on,67,0,120
2,note_on,66,59,0
2,note_on,66,0,120
2,note_on,67,51,0
2,note_on,67,0,120
2,note_on,66,63,0
2,note_on,66,0,120
2,note_on,67,58,0
2,note_on,67,0,120
2,note_on,66,70,0
2,note_on,66,0,240
2,note_on,50,62,240
2,note_on,62,74,0
2,note_on,62,0,720
2,note_on,50,0,0
2,note_on,50,46,0
2,note_on,62,56,0
2,note_on,62,0,120
2,note_on,50,0,0
2,note_on,51,57,120
2,note_on,63,68,0
2,note_on,63,0,240
2,note_on,51,0,0
2,note_on,48,45,120
2,note_on,60,53,0
2,note_on,60,0,60
2,note_on,48,0,0
2,note_on,50,53,60
2,note_on,62,63,0
2,note_on,62,0,240
2,note_on,50,0,0
2,note_on,38,51,240
2,note_on,50,61,0
2,note_on,50,0,240
2,note_on,38,0,0
2,note_on,43,51,240
2,note_on,55,61,0
2,note_on,55,0,720
2,note_on,43,0,0
2,note_on,50,25,240
2,note_on,51,22,120
2,note_on,50,0,1
2,note_on,50,27,119
2,note_on,51,0,1
2,note_on,51,24,119
2,note_on,50,0,1
2,note_on,50,29,119
2,note_on,51,0,1
2,note_on,51,25,119
2,note_on,50,0,1
2,note_on,50,32,119
2,note_on,51,0,1
2,note_on,51,29,119
2,note_on,50,0,1
2,note_on,50,34,119
2,note_on,51,0,1
2,note_on,51,30,119
2,note_on,50,0,1
2,note_on,50,37,119
2,note_on,51,0,1
2,note_on,51,34,119
2,note_on,50,0,1
2,note_on,50,39,119
2,note_on,51,0,1
2,note_on,51,34,119
2,note_on,50,0,1
2,note_on,50,42,119
2,note_on,51,0,1
2,note_on,51,38,119
2,note_on,50,0,1
2,note_on,50,54,119
2,note_on,51,0,1
2,note_on,50,0,239
2,note_on,50,53,240
2,note_on,53,64,0
2,note_on,53,0,720
2,note_on,50,0,0
2,note_on,51,36,0
2,note_on,55,43,0
2,note_on,55,0,240
2,note_on,51,0,0
2,note_on,47,43,0
2,note_on,50,51,0
2,note_on,50,0,360
2,note_on,47,0,0
2,note_on,48,32,0
2,note_on,51,39,0
2,note_on,51,0,120
2,note_on,48,0,0
2,note_on,50,38,0
2,note_on,53,45,0
2,note_on,53,0,480
2,note_on,50,0,0
2,note_on,51,34,0
2,note_on,55,41,0
2,note_on,55,0,480
2,note_on,51,0,0
2,note_on,53,36,0
2,note_on,53,0,480
2,note_on,41,30,0
2,note_on,41,0,240
2,note_on,46,40,720
2,note_on,46,0,120
2,note_on,58,29,120
2,note_on,58,0,240
2,note_on,62,34,0
2,note_on,62,0,240
2,note_on,58,29,0
2,note_on,58,0,240
2,note_on,63,34,0
2,note_on,63,0,240
2,note_on,60,31,0
2,note_on,60,0,240
2,note_on,62,40,0
2,note_on,62,0,240
2,note_on,61,30,0
2,note_on,61,0,240
2,note_on,62,34,0
2,note_on,62,0,240
2,note_on,58,30,0
2,note_on,58,0,240
2,note_on,63,34,0
2,note_on,63,0,240
2,note_on,60,29,0
2,note_on,60,0,240
2,note_on,62,40,0
2,note_on,62,0,240
2,note_on,61,30,0
2,note_on,61,0,240
2,note_on,62,34,0
2,note_on,62,0,240
2,note_on,57,30,0
2,note_on,57,0,240
2,note_on,58,34,0
2,note_on,58,0,240
2,note_on,55,30,0
2,note_on,55,0,230
2,note_on,53,40,10
2,note_on,65,35,480
2,note_on,65,0,240
2,note_on,53,0,0
2,note_on,41,37,840
2,note_on,41,0,120
2,note_on,45,38,0
2,note_on,45,0,120
2,note_on,48,39,0
2,note_on,48,0,120
2,note_on,53,40,0
2,note_on,53,0,120
2,note_on,57,41,0
2,note_on,57,0,120
2,note_on,60,42,0
2,note_on,60,0,120
2,note_on,62,43,0
2,note_on,62,0,120
2,note_on,63,48,0
2,note_on,63,0,600
2,note_on,41,37,0
2,note_on,41,0,120
2,note_on,45,41,0
2,note_on,45,0,120
2,note_on,48,43,0
2,note_on,48,0,120
2,note_on,53,44,0
2,note_on,53,0,120
2,note_on,57,46,0
2,note_on,57,0,120
2,note_on,60,48,0
2,note_on,60,0,120
2,note_on,63,49,0
2,note_on,63,0,120
2,note_on,66,55,0
2,note_on,66,0,960
2,note_on,65,38,0
2,note_on,53,38,0
2,note_on,53,0,480
2,note_on,65,0,0
2,note_on,53,32,0
2,note_on,63,32,0
2,note_on,63,0,480
2,note_on,53,0,0
2,note_on,46,40,0
2,note_on,46,0,120
2,note_on,58,29,120
2,note_on,58,0,240
2,note_on,62,34,0
2,note_on,62,0,240
2,note_on,58,29,0
2,note_on,58,0,240
2,note_on,63,34,0
2,note_on,63,0,240
2,note_on,58,31,0
2,note_on,58,0,240
2,note_on,62,40,0
2,note_on,62,0,240
2,note_on,61,30,0
2,note_on,61,0,240
2,note_on,62,34,0
2,note_on,62,0,240
2,note_on,58,30,0
2,note_on,58,0,240
2,note_on,60,34,0
2,note_on,60,0,240
2,note_on,53,29,0
2,note_on,53,0,240
2,note_on,58,40,0
2,note_on,58,0,240
2,note_on,46,30,0
2,note_on,46,0,240
2,note_on,50,34,0
2,note_on,50,0,240
2,note_on,46,30,0
2,note_on,46,0,240
2,note_on,51,34,0
2,note_on,51,0,240
2,note_on,46,29,0
2,note_on,46,0,240
2,note_on,50,40,0
2,note_on,50,0,240
2,note_on,49,30,0
2,note_on,49,0,240
2,note_on,50,34,0
2,note_on,50,0,240
2,note_on,46,30,0
2,note_on,46,0,240
2,note_on,48,34,0
2,note_on,48,0,240
2,note_on,41,29,0
2,note_on,41,0,240
2,note_on,46,40,0
2,note_on,46,0,240
2,note_on,50,30,0
2,note_on,50,0,240
2,note_on,48,35,0
2,note_on,48,0,240
2,note_on,41,31,0
2,note_on,41,0,240
2,note_on,46,36,0
2,note_on,46,0,240
2,note_on,50,31,0
2,note_on,50,0,240
2,note_on,48,44,0
2,note_on,48,0,240
2,note_on,41,33,0
2,note_on,41,0,240
2,note_on,46,45,0
2,note_on,46,0,120
2,note_on,50,37,0
2,note_on,50,0,120
2,note_on,41,46,0
2,note_on,41,0,120
2,note_on,48,39,0
2,note_on,48,0,120
2,note_on,46,47,0
2,note_on,46,0,120
2,note_on,50,41,0
2,note_on,50,0,120
2,note_on,41,49,0
2,note_on,41,0,120
2,note_on,48,43,0
2,note_on,48,0,120
2,note_on,46,24,0
2,note_on,50,30,0
2,note_on,50,0,120
2,note_on,46,0,0
2,note_on,34,24,360
2,note_on,46,30,0
2,note_on,46,0,120
2,note_on,34,0,0
2,note_on,62,62,360
2,note_on,62,0,120
2,note_on,63,48,0
2,note_on,63,0,120
2,note_on,62,48,0
2,note_on,62,0,120
2,note_on,60,48,0
2,note_on,60,0,120
2,note_on,58,62,0
2,note_on,58,0,120
2,note_on,60,48,0
2,note_on,60,0,120
2,note_on,58,47,0
2,note_on,58,0,120
2,note_on,57,47,0
2,note_on,57,0,120
2,note_on,55,63,0
2,note_on,55,0,120
2,note_on,57,46,0
2,note_on,57,0,120
2,note_on,58,46,0
2,note_on,58,0,120
2,note_on,57,46,0
2,note_on,57,0,120
2,note_on,55,58,0
2,note_on,55,0,120
2,note_on,58,46,0
2,note_on,58,0,120
2,note_on,57,46,0
2,note_on,57,0,120
2,note_on,55,45,0
2,note_on,55,0,120
2,note_on,54,59,0
2,note_on,54,0,120
2,note_on,55,45,0
2,note_on,55,0,120
2,note_on,54,45,0
2,note_on,54,0,120
2,note_on,51,44,0
2,note_on,51,0,120
2,note_on,50,57,0
2,note_on,50,0,120
2,note_on,51,44,0
2,note_on,51,0,120
2,note_on,50,42,0
2,note_on,50,0,120
2,note_on,48,42,0
2,note_on,48,0,120
2,note_on,46,55,0
2,note_on,46,0,120
2,note_on,48,41,0
2,note_on,48,0,120
2,note_on,46,41,0
2,note_on,46,0,120
2,note_on,45,41,0
2,note_on,45,0,120
2,note_on,43,56,0
2,note_on,43,0,120
2,note_on,42,42,0
2,note_on,42,0,120
2,note_on,43,42,0
2,note_on,43,0,120
2,note_on,45,42,0
2,note_on,45,0,120
2,note_on,46,55,0
2,note_on,46,0,120
2,note_on,45,42,0
2,note_on,45,0,120
2,note_on,46,41,0
2,note_on,46,0,120
2,note_on,47,41,0
2,note_on,47,0,120
2,note_on,48,59,0
2,note_on,48,0,120
2,note_on,47,47,0
2,note_on,47,0,120
2,note_on,48,48,0
2,note_on,49,48,114
2,note_on,48,0,6
2,note_on,49,0,114
2,note_on,50,60,6
2,note_on,50,0,120
2,note_on,38,46,0
2,note_on,38,0,120
2,note_on,42,46,0
2,note_on,42,0,120
2,note_on,45,42,0
2,note_on,45,0,120
2,note_on,50,57,0
2,note_on,50,0,120
2,note_on,54,53,0
2,note_on,54,0,120
2,note_on,57,56,6
2,note_on,61,58,114
2,note_on,57,0,6
2,note_on,61,0,114
2,note_on,62,66,0
2,note_on,62,0,120
2,note_on,63,59,0
2,note_on,63,0,120
2,note_on,62,57,0
2,note_on,62,0,120
2,note_on,60,56,0
2,note_on,60,0,120
2,note_on,58,62,0
2,note_on,58,0,120
2,note_on,60,48,0
2,note_on,60,0,120
2,note_on,58,47,0
2,note_on,58,0,120
2,note_on,57,47,0
2,note_on,57,0,120
2,note_on,55,63,0
2,note_on,55,0,120
2,note_on,57,46,0
2,note_on,57,0,120
2,note_on,55,46,0
2,note_on,55,0,120
2,note_on,53,46,0
2,note_on,53,0,120
2,note_on,52,58,0
2,note_on,52,0,120
2,note_on,53,46,0
2,note_on,53,0,120
2,note_on,52,46,0
2,note_on,52,0,120
2,note_on,50,45,0
2,note_on,50,0,120
2,note_on,49,59,0
2,note_on,49,0,120
2,note_on,50,45,0
2,note_on,50,0,120
2,note_on,49,45,0
2,note_on,49,0,120
2,note_on,46,44,0
2,note_on,46,0,120
2,note_on,45,57,0
2,note_on,45,0,120
2,note_on,46,44,0
2,note_on,46,0,120
2,note_on,45,42,0
2,note_on,45,0,120
2,note_on,43,42,0
2,note_on,43,0,120
2,note_on,41,55,0
2,note_on,41,0,120
2,note_on,43,41,0
2,note_on,43,0,120
2,note_on,41,41,0
2,note_on,41,0,120
2,note_on,40,41,0
2,note_on,40,0,120
2,note_on,38,56,0
2,note_on,38,0,120
2,note_on,40,42,0
2,note_on,40,0,120
2,note_on,41,42,0
2,note_on,41,0,120
2,note_on,38,42,0
2,note_on,38,0,120
2,note_on,43,55,0
2,note_on,43,0,120
2,note_on,45,42,0
2,note_on,45,0,120
2,note_on,46,41,0
2,note_on,46,0,120
2,note_on,43,41,0
2,note_on,43,0,120
2,note_on,45,57,0
2,note_on,45,0,120
2,note_on,44,45,0
2,note_on,44,0,120
2,note_on,45,45,0
2,note_on,45,0,120
2,note_on,33,45,0
2,note_on,33,0,120
2,note_on,38,60,0
2,note_on,38,0,120
2,note_on,41,46,0
2,note_on,41,0,120
2,note_on,45,46,0
2,note_on,45,0,120
2,note_on,50,42,0
2,note_on,50,0,120
2,note_on,38,57,0
2,note_on,38,0,450
2,note_on,62,62,30
2,note_on,62,0,120
2,note_on,63,48,0
2,note_on,63,0,120
2,note_on,62,48,0
2,note_on,62,0,120
2,note_on,60,48,0
2,note_on,60,0,120
2,note_on,58,62,0
2,note_on,58,0,120
2,note_on,60,48,0
2,note_on,60,0,120
2,note_on,58,47,0
2,note_on,58,0,120
2,note_on,57,47,0
2,note_on,57,0,120
2,note_on,55,63,0
2,note_on,55,0,120
2,note_on,57,46,0
2,note_on,57,0,120
2,note_on,58,46,0
2,note_on,58,0,120
2,note_on,57,46,0
2,note_on,57,0,120
2,note_on,55,58,0
2,note_on,55,0,120
2,note_on,58,46,0
2,note_on,58,0,120
2,note_on,57,46,0
2,note_on,57,0,120
2,note_on,55,45,0
2,note_on,55,0,120
2,note_on,54,59,0
2,note_on,54,0,120
2,note_on,55,45,0
2,note_on,55,0,120
2,note_on,54,45,0
2,note_on,54,0,120
2,note_on,51,44,0
2,note_on,51,0,120
2,note_on,50,57,0
2,note_on,50,0,120
2,note_on,51,44,0
2,note_on,51,0,120
2,note_on,50,42,0
2,note_on,50,0,120
2,note_on,48,42,0
2,note_on,48,0,120
2,note_on,46,55,0
2,note_on,46,0,120
2,note_on,48,41,0
2,note_on,48,0,120
2,note_on,46,41,0
2,note_on,46,0,120
2,note_on,45,41,0
2,note_on,45,0,120
2,note_on,43,56,0
2,note_on,43,0,120
2,note_on,42,42,0
2,note_on,42,0,120
2,note_on,43,42,0
2,note_on,43,0,120
2,note_on,45,42,0
2,note_on,45,0,120
2,note_on,46,55,0
2,note_on,46,0,120
2,note_on,45,42,0
2,note_on,45,0,120
2,note_on,46,41,0
2,note_on,46,0,120
2,note_on,47,41,0
2,note_on,47,0,120
2,note_on,48,59,0
2,note_on,48,0,120
2,note_on,47,47,0
2,note_on,47,0,120
2,note_on,48,48,0
2,note_on,48,0,120
2,note_on,49,48,0
2,note_on,49,0,120
2,note_on,50,60,0
2,note_on,50,0,120
2,note_on,38,46,0
2,note_on,38,0,120
2,note_on,42,47,0
2,note_on,42,0,120
2,note_on,45,48,0
2,note_on,45,0,120
2,note_on,50,57,0
2,note_on,50,0,120
2,note_on,54,49,0
2,note_on,54,0,120
2,note_on,57,53,6
2,note_on,61,57,114
2,note_on,57,0,6
2,note_on,61,0,114
2,note_on,62,62,0
2,note_on,62,0,120
2,note_on,63,57,0
2,note_on,63,0,120
2,note_on,62,52,0
2,note_on,62,0,120
2,note_on,60,49,0
2,note_on,60,0,120
2,note_on,58,62,0
2,note_on,58,0,120
2,note_on,60,48,0
2,note_on,60,0,120
2,note_on,58,47,0
2,note_on,58,0,120
2,note_on,57,47,0
2,note_on,57,0,120
2,note_on,55,63,0
2,note_on,55,0,120
2,note_on,57,46,0
2,note_on,57,0,120
2,note_on,55,46,0
2,note_on,55,0,120
2,note_on,53,46,0
2,note_on,53,0,120
2,note_on,52,58,0
2,note_on,52,0,120
2,note_on,53,46,0
2,note_on,53,0,120
2,note_on,52,46,0
2,note_on,52,0,120
2,note_on,50,45,0
2,note_on,50,0,120
2,note_on,49,59,0
2,note_on,49,0,120
2,note_on,50,45,0
2,note_on,50,0,120
2,note_on,49,45,0
2,note_on,49,0,120
2,note_on,46,44,0
2,note_on,46,0,120
2,note_on,45,57,0
2,note_on,45,0,120
2,note_on,46,44,0
2,note_on,46,0,120
2,note_on,45,42,0
2,note_on,45,0,120
2,note_on,43,42,0
2,note_on,43,0,120
2,note_on,41,55,0
2,note_on,41,0,120
2,note_on,43,41,0
2,note_on,43,0,120
2,note_on,41,41,0
2,note_on,41,0,120
2,note_on,40,41,0
2,note_on,40,0,120
2,note_on,38,56,0
2,note_on,38,0,120
2,note_on,40,42,0
2,note_on,40,0,120
2,note_on,41,42,0
2,note_on,41,0,120
2,note_on,38,42,0
2,note_on,38,0,120
2,note_on,43,55,0
2,note_on,43,0,120
2,note_on,45,42,0
2,note_on,45,0,120
2,note_on,46,41,0
2,note_on,46,0,120
2,note_on,43,41,0
2,note_on,43,0,120
2,note_on,45,57,0
2,note_on,45,0,120
2,note_on,44,45,0
2,note_on,44,0,120
2,note_on,45,45,0
2,note_on,45,0,120
2,note_on,33,45,0
2,note_on,33,0,120
2,note_on,38,60,0
2,note_on,38,0,120
2,note_on,41,46,0
2,note_on,41,0,120
2,note_on,45,46,0
2,note_on,45,0,120
2,note_on,50,42,0
2,note_on,50,0,120
2,note_on,38,57,0
2,note_on,38,0,450
2,note_on,68,67,510
2,note_on,68,0,120
2,note_on,70,46,0
2,note_on,70,0,120
2,note_on,68,46,0
2,note_on,68,0,120
2,note_on,67,46,0
2,note_on,67,0,120
2,note_on,65,59,0
2,note_on,65,0,120
2,note_on,67,46,0
2,note_on,67,0,120
2,note_on,65,46,0
2,note_on,65,0,120
2,note_on,63,46,0
2,note_on,63,0,120
2,note_on,55,56,0
2,note_on,62,67,0
2,note_on,62,0,480
2,note_on,55,0,0
2,note_on,60,56,0
2,note_on,63,67,0
2,note_on,63,0,240
2,note_on,60,0,0
2,note_on,63,67,1200
2,note_on,63,0,120
2,note_on,65,46,0
2,note_on,65,0,120
2,note_on,63,46,0
2,note_on,63,0,120
2,note_on,62,46,0
2,note_on,62,0,120
2,note_on,60,59,0
2,note_on,60,0,120
2,note_on,62,46,0
2,note_on,62,0,120
2,note_on,60,46,0
2,note_on,60,0,120
2,note_on,58,46,0
2,note_on,58,0,120
2,note_on,50,56,0
2,note_on,57,67,0
2,note_on,57,0,480
2,note_on,50,0,0
2,note_on,55,56,0
2,note_on,58,67,0
2,note_on,58,0,240
2,note_on,55,0,0
2,note_on,62,62,720
2,note_on,62,0,120
2,note_on,63,48,0
2,note_on,63,0,120
2,note_on,62,48,0
2,note_on,62,0,120
2,note_on,60,48,0
2,note_on,60,0,120
2,note_on,58,62,0
2,note_on,58,0,120
2,note_on,60,48,0
2,note_on,60,0,120
2,note_on,58,47,0
2,note_on,58,0,120
2,note_on,57,47,0
2,note_on,57,0,120
2,note_on,55,63,0
2,note_on,55,0,120
2,note_on,57,46,0
2,note_on,57,0,120
2,note_on,55,46,0
2,note_on,55,0,120
2,note_on,53,46,0
2,note_on,53,0,120
2,note_on,51,58,0
2,note_on,51,0,120
2,note_on,53,46,0
2,note_on,53,0,120
2,note_on,51,46,0
2,note_on,51,0,120
2,note_on,50,45,0
2,note_on,50,0,120
2,note_on,48,59,0
2,note_on,48,0,120
2,note_on,50,45,0
2,note_on,50,0,120
2,note_on,48,45,0
2,note_on,48,0,120
2,note_on,46,44,0
2,note_on,46,0,120
2,note_on,44,57,0
2,note_on,44,0,120
2,note_on,46,44,0
2,note_on,46,0,120
2,note_on,44,42,0
2,note_on,44,0,120
2,note_on,43,42,0
2,note_on,43,0,120
2,note_on,42,55,0
2,note_on,42,0,120
2,note_on,43,41,0
2,note_on,43,0,120
2,note_on,42,41,0
2,note_on,42,0,120
2,note_on,40,41,0
2,note_on,40,0,120
2,note_on,38,56,0
2,note_on,38,0,120
2,note_on,40,42,0
2,note_on,40,0,120
2,note_on,42,42,0
2,note_on,42,0,120
2,note_on,38,42,0
2,note_on,38,0,120
2,note_on,43,55,0
2,note_on,43,0,120
2,note_on,45,42,0
2,note_on,45,0,120
2,note_on,46,41,0
2,note_on,46,0,120
2,note_on,43,41,0
2,note_on,43,0,120
2,note_on,50,57,0
2,note_on,50,0,120
2,note_on,48,45,0
2,note_on,48,0,120
2,note_on,46,45,0
2,note_on,46,0,120
2,note_on,45,45,0
2,note_on,45,0,120
2,note_on,43,60,0
2,note_on,43,0,120
2,note_on,46,46,0
2,note_on,46,0,120
2,note_on,50,46,0
2,note_on,50,0,120
2,note_on,55,42,0
2,note_on,55,0,120
2,note_on,43,57,0
2,note_on,43,0,450
2,note_on,68,67,510
2,note_on,68,0,120
2,note_on,70,46,0
2,note_on,70,0,120
2,note_on,68,46,0
2,note_on,68,0,120
2,note_on,67,46,0
2,note_on,67,0,120
2,note_on,65,59,0
2,note_on,65,0,120
2,note_on,67,46,0
2,note_on,67,0,120
2,note_on,65,46,0
2,note_on,65,0,120
2,note_on,63,46,0
2,note_on,63,0,120
2,note_on,55,56,0
2,note_on,62,67,0
2,note_on,62,0,480
2,note_on,55,0,0
2,note_on,60,56,0
2,note_on,63,67,0
2,note_on,63,0,240
2,note_on,60,0,0
2,note_on,63,67,1200
2,note_on,63,0,120
2,note_on,65,46,0
2,note_on,65,0,120
2,note_on,63,46,0
2,note_on,63,0,120
2,note_on,62,46,0
2,note_on,62,0,120
2,note_on,60,59,0
2,note_on,60,0,120
2,note_on,62,46,0
2,note_on,62,0,120
2,note_on,60,46,0
2,note_on,60,0,120
2,note_on,58,46,0
2,note_on,58,0,120
2,note_on,50,56,0
2,note_on,57,67,0
2,note_on,57,0,480
2,note_on,50,0,0
2,note_on,55,56,0
2,note_on,58,67,0
2,note_on,58,0,240
2,note_on,55,0,0
2,note_on,62,62,720
2,note_on,62,0,120
2,note_on,63,48,0
2,note_on,63,0,120
2,note_on,62,48,0
2,note_on,62,0,120
2,note_on,60,48,0
2,note_on,60,0,120
2,note_on,58,62,0
2,note_on,58,0,120
2,note_on,60,48,0
2,note_on,60,0,120
2,note_on,58,47,0
2,note_on,58,0,120
2,note_on,57,47,0
2,note_on,57,0,120
2,note_on,55,63,0
2,note_on,55,0,120
2,note_on,57,46,0
2,note_on,57,0,120
2,note_on,55,46,0
2,note_on,55,0,120
2,note_on,53,46,0
2,note_on,53,0,120
2,note_on,51,58,0
2,note_on,51,0,120
2,note_on,53,46,0
2,note_on,53,0,120
2,note_on,51,46,0
2,note_on,51,0,120
2,note_on,50,45,0
2,note_on,50,0,120
2,note_on,48,59,0
2,note_on,48,0,120
2,note_on,50,45,0
2,note_on,50,0,120
2,note_on,48,45,0
2,note_on,48,0,120
2,note_on,46,44,0
2,note_on,46,0,120
2,note_on,44,57,0
2,note_on,44,0,120
2,note_on,46,44,0
2,note_on,46,0,120
2,note_on,44,42,0
2,note_on,44,0,120
2,note_on,43,42,0
2,note_on,43,0,120
2,note_on,42,55,0
2,note_on,42,0,120
2,note_on,43,41,0
2,note_on,43,0,120
2,note_on,42,41,0
2,note_on,42,0,120
2,note_on,40,41,0
2,note_on,40,0,120
2,note_on,38,56,0
2,note_on,38,0,120
2,note_on,40,42,0
2,note_on,40,0,120
2,note_on,42,42,0
2,note_on,42,0,120
2,note_on,38,42,0
2,note_on,38,0,120
2,note_on,43,55,0
2,note_on,43,0,120
2,note_on,45,42,0
2,note_on,45,0,120
2,note_on,46,41,0
2,note_on,46,0,120
2,note_on,43,41,0
2,note_on,43,0,120
2,note_on,50,57,0
2,note_on,50,0,120
2,note_on,48,45,0
2,note_on,48,0,120
2,note_on,46,45,0
2,note_on,46,0,120
2,note_on,45,45,0
2,note_on,45,0,120
2,note_on,43,60,0
2,note_on,43,0,120
2,note_on,46,46,0
2,note_on,46,0,120
2,note_on,50,46,0
2,note_on,50,0,120
2,note_on,55,42,0
2,note_on,55,0,120
2,note_on,43,57,0
2,note_on,43,0,450
2,note_on,46,40,510
2,note_on,46,0,120
2,note_on,58,29,120
2,note_on,58,0,240
2,note_on,62,34,0
2,note_on,62,0,240
2,note_on,58,29,0
2,note_on,58,0,240
2,note_on,63,34,0
2,note_on,63,0,240
2,note_on,60,31,0
2,note_on,60,0,240
2,note_on,62,40,0
2,note_on,62,0,240
2,note_on,61,30,0
2,note_on,61,0,240
2,note_on,62,34,0
2,note_on,62,0,240
2,note_on,58,30,0
2,note_on,58,0,240
2,note_on,63,34,0
2,note_on,63,0,240
2,note_on,60,29,0
2,note_on,60,0,240
2,note_on,62,40,0
2,note_on,62,0,240
2,note_on,61,30,0
2,note_on,61,0,240
2,note_on,62,34,0
2,note_on,62,0,240
2,note_on,57,30,0
2,note_on,57,0,240
2,note_on,58,34,0
2,note_on,58,0,240
2,note_on,55,30,0
2,note_on,55,0,230
2,note_on,53,40,10
2,note_on,65,35,480
2,note_on,65,0,240
2,note_on,53,0,0
2,note_on,53,36,960
2,note_on,57,40,240
2,note_on,57,0,240
2,note_on,60,37,0
2,note_on,60,0,240
2,note_on,63,40,0
2,note_on,63,0,720
2,note_on,53,0,0
2,note_on,53,42,0
2,note_on,60,48,240
2,note_on,60,0,240
2,note_on,63,41,0
2,note_on,63,0,240
2,note_on,66,55,0
2,note_on,66,0,960
2,note_on,53,0,0
2,note_on,65,38,0
2,note_on,53,38,0
2,note_on,53,0,480
2,note_on,65,0,0
2,note_on,53,32,0
2,note_on,63,32,0
2,note_on,63,0,480
2,note_on,53,0,0
2,note_on,58,30,0
2,note_on,63,36,0
2,note_on,63,0,480
2,note_on,62,32,0
2,note_on,62,0,240
2,note_on,58,0,0
2,note_on,66,38,240
2,note_on,66,0,120
2,note_on,67,33,0
2,note_on,67,0,120
2,note_on,66,41,0
2,note_on,66,0,120
2,note_on,67,38,0
2,note_on,67,0,120
2,note_on,66,45,0
2,note_on,66,0,120
2,note_on,67,39,0
2,note_on,67,0,120
2,note_on,66,48,0
2,note_on,66,0,120
2,note_on,67,44,0
2,note_on,67,0,120
2,note_on,66,52,0
2,note_on,66,0,120
2,note_on,67,44,0
2,note_on,67,0,120
2,note_on,66,55,0
2,note_on,66,0,120
2,note_on,67,51,0
2,note_on,67,0,120
2,note_on,66,59,0
2,note_on,66,0,120
2,note_on,67,51,0
2,note_on,67,0,120
2,note_on,66,63,0
2,note_on,66,0,120
2,note_on,67,58,0
2,note_on,67,0,120
2,note_on,66,69,0
2,note_on,66,0,240
2,note_on,50,62,240
2,note_on,62,74,0
2,note_on,62,0,720
2,note_on,50,0,0
2,note_on,50,46,0
2,note_on,62,56,0
2,note_on,62,0,120
2,note_on,50,0,0
2,note_on,51,57,120
2,note_on,63,68,0
2,note_on,63,0,240
2,note_on,51,0,0
2,note_on,48,45,120
2,note_on,60,53,0
2,note_on,60,0,60
2,note_on,48,0,0
2,note_on,50,53,60
2,note_on,62,63,0
2,note_on,62,0,240
2,note_on,50,0,0
2,note_on,38,51,240
2,note_on,50,61,0
2,note_on,50,0,240
2,note_on,38,0,0
2,note_on,43,51,240
2,note_on,55,61,0
2,note_on,55,0,720
2,note_on,43,0,0
2,note_on,50,25,240
2,note_on,51,22,120
2,note_on,50,0,1
2,note_on,50,27,119
2,note_on,51,0,1
2,note_on,51,24,119
2,note_on,50,0,1
2,note_on,50,29,119
2,note_on,51,0,1
2,note_on,51,25,119
2,note_on,50,0,1
2,note_on,50,32,119
2,note_on,51,0,1
2,note_on,51,29,119
2,note_on,50,0,1
2,note_on,50,34,119
2,note_on,51,0,1
2,note_on,51,30,119
2,note_on,50,0,1
2,note_on,50,37,119
2,note_on,51,0,1
2,note_on,51,34,119
2,note_on,50,0,1
2,note_on,50,39,119
2,note_on,51,0,1
2,note_on,51,34,119
2,note_on,50,0,1
2,note_on,50,41,119
2,note_on,51,0,1
2,note_on,51,38,119
2,note_on,50,0,1
2,note_on,50,54,119
2,note_on,51,0,1
2,note_on,50,0,239
2,note_on,50,53,240
2,note_on,53,64,0
2,note_on,53,0,720
2,note_on,50,0,0
2,note_on,51,36,0
2,note_on,55,43,0
2,note_on,55,0,240
2,note_on,51,0,0
2,note_on,47,43,0
2,note_on,50,51,0
2,note_on,50,0,360
2,note_on,47,0,0
2,note_on,48,32,0
2,note_on,51,39,0
2,note_on,51,0,120
2,note_on,48,0,0
2,note_on,50,38,0
2,note_on,53,45,0
2,note_on,53,0,480
2,note_on,50,0,0
2,note_on,51,34,0
2,note_on,55,41,0
2,note_on,55,0,480
2,note_on,51,0,0
2,note_on,53,36,0
2,note_on,53,0,480
2,note_on,41,30,0
2,note_on,41,0,240
2,note_on,46,40,720
2,note_on,46,0,120
2,note_on,58,29,120
2,note_on,58,0,240
2,note_on,62,34,0
2,note_on,62,0,240
2,note_on,58,29,0
2,note_on,58,0,240
2,note_on,63,34,0
2,note_on,63,0,240
2,note_on,60,31,0
2,note_on,60,0,240
2,note_on,62,40,0
2,note_on,62,0,240
2,note_on,61,30,0
2,note_on,61,0,240
2,note_on,62,34,0
2,note_on,62,0,240
2,note_on,58,30,0
2,note_on,58,0,240
2,note_on,63,34,0
2,note_on,63,0,240
2,note_on,60,29,0
2,note_on,60,0,240
2,note_on,62,40,0
2,note_on,62,0,240
2,note_on,61,30,0
2,note_on,61,0,240
2,note_on,62,34,0
2,note_on,62,0,240
2,note_on,57,30,0
2,note_on,57,0,240
2,note_on,58,34,0
2,note_on,58,0,240
2,note_on,55,30,0
2,note_on,55,0,230
2,note_on,53,40,10
2,note_on,65,35,480
2,note_on,65,0,240
2,note_on,53,0,0
2,note_on,41,37,840
2,note_on,41,0,120
2,note_on,45,38,0
2,note_on,45,0,120
2,note_on,48,39,0
2,note_on,48,0,120
2,note_on,53,40,0
2,note_on,53,0,120
2,note_on,57,41,0
2,note_on,57,0,120
2,note_on,60,42,0
2,note_on,60,0,120
2,note_on,62,43,0
2,note_on,62,0,120
2,note_on,63,48,0
2,note_on,63,0,600
2,note_on,41,37,0
2,note_on,41,0,120
2,note_on,45,41,0
2,note_on,45,0,120
2,note_on,48,43,0
2,note_on,48,0,120
2,note_on,53,44,0
2,note_on,53,0,120
2,note_on,57,46,0
2,note_on,57,0,120
2,note_on,60,48,0
2,note_on,60,0,120
2,note_on,63,49,0
2,note_on,63,0,120
2,note_on,66,55,0
2,note_on,66,0,960
2,note_on,65,38,0
2,note_on,53,38,0
2,note_on,53,0,480
2,note_on,65,0,0
2,note_on,53,32,0
2,note_on,63,32,0
2,note_on,63,0,480
2,note_on,53,0,0
2,note_on,46,40,0
2,note_on,46,0,120
2,note_on,58,29,120
2,note_on,58,0,240
2,note_on,62,34,0
2,note_on,62,0,240
2,note_on,58,29,0
2,note_on,58,0,240
2,note_on,63,34,0
2,note_on,63,0,240
2,note_on,58,31,0
2,note_on,58,0,240
2,note_on,62,40,0
2,note_on,62,0,240
2,note_on,61,30,0
2,note_on,61,0,240
2,note_on,62,34,0
2,note_on,62,0,240
2,note_on,58,30,0
2,note_on,58,0,240
2,note_on,60,34,0
2,note_on,60,0,240
2,note_on,53,29,0
2,note_on,53,0,240
2,note_on,58,40,0
2,note_on,58,0,240
2,note_on,46,30,0
2,note_on,46,0,240
2,note_on,50,34,0
2,note_on,50,0,240
2,note_on,46,30,0
2,note_on,46,0,240
2,note_on,51,34,0
2,note_on,51,0,240
2,note_on,46,29,0
2,note_on,46,0,240
2,note_on,50,40,0
2,note_on,50,0,240
2,note_on,49,30,0
2,note_on,49,0,240
2,note_on,50,34,0
2,note_on,50,0,240
2,note_on,46,30,0
2,note_on,46,0,240
2,note_on,48,34,0
2,note_on,48,0,240
2,note_on,41,29,0
2,note_on,41,0,240
2,note_on,46,40,0
2,note_on,46,0,240
2,note_on,50,30,0
2,note_on,50,0,240
2,note_on,48,35,0
2,note_on,48,0,240
2,note_on,41,31,0
2,note_on,41,0,240
2,note_on,46,36,0
2,note_on,46,0,240
2,note_on,50,31,0
2,note_on,50,0,240
2,note_on,48,44,0
2,note_on,48,0,240
2,note_on,41,33,0
2,note_on,41,0,240
2,note_on,46,45,0
2,note_on,46,0,120
2,note_on,50,37,0
2,note_on,50,0,120
2,note_on,41,46,0
2,note_on,41,0,120
2,note_on,48,39,0
2,note_on,48,0,120
2,note_on,46,47,0
2,note_on,46,0,120
2,note_on,50,41,0
2,note_on,50,0,120
2,note_on,41,49,0
2,note_on,41,0,120
2,note_on,48,43,0
2,note_on,48,0,120
2,note_on,46,24,0
2,note_on,50,30,0
2,note_on,50,0,120
2,note_on,46,0,0
2,note_on,34,24,360
2,note_on,46,30,0
2,note_on,46,0,120
2,note_on,34,0,0
