Track,Message Type,Note,Velocity,Time
1,note_on,51,79,0
1,note_on,55,79,0
1,note_on,60,93,0
1,note_on,60,0,1320
1,note_on,55,0,0
1,note_on,51,0,0
1,note_on,55,40,0
1,note_on,60,47,0
1,note_on,60,0,120
1,note_on,55,0,0
1,note_on,55,42,0
1,note_on,59,42,0
1,note_on,62,50,0
1,note_on,62,0,360
1,note_on,59,0,0
1,note_on,55,0,0
1,note_on,55,39,0
1,note_on,60,46,0
1,note_on,63,46,0
1,note_on,63,0,108
1,note_on,60,0,0
1,note_on,55,0,0
1,note_on,57,42,12
1,note_on,60,50,0
1,note_on,63,50,0
1,note_on,63,0,960
1,note_on,60,0,0
1,note_on,57,0,0
1,note_on,59,29,0
1,note_on,62,36,0
1,note_on,62,0,480
1,note_on,59,0,0
1,note_on,59,91,480
1,note_on,62,91,0
1,note_on,65,104,0
1,note_on,65,0,1320
1,note_on,62,0,0
1,note_on,59,0,0
1,note_on,62,42,0
1,note_on,59,42,0
1,note_on,65,50,0
1,note_on,65,0,108
1,note_on,59,0,0
1,note_on,62,0,0
1,note_on,59,44,12
1,note_on,62,44,0
1,note_on,67,53,0
1,note_on,67,0,360
1,note_on,62,0,0
1,note_on,59,0,0
1,note_on,62,49,0
1,note_on,68,49,0
1,note_on,59,41,0
1,note_on,59,0,108
1,note_on,68,0,0
1,note_on,62,0,0
1,note_on,68,53,12
1,note_on,59,44,0
1,note_on,62,53,0
1,note_on,62,0,960
1,note_on,59,0,0
1,note_on,68,0,0
1,note_on,60,31,0
1,note_on,67,38,0
1,note_on,63,31,0
1,note_on,63,0,480
1,note_on,67,0,0
1,note_on,60,0,0
1,note_on,66,88,480
1,note_on,69,88,0
1,note_on,72,102,0
1,note_on,72,0,1320
1,note_on,69,0,0
1,note_on,66,0,0
1,note_on,69,49,0
1,note_on,66,49,0
1,note_on,72,58,0
1,note_on,72,0,108
1,note_on,66,0,0
1,note_on,69,0,0
1,note_on,66,54,12
1,note_on,69,54,0
1,note_on,74,64,0
1,note_on,74,0,360
1,note_on,69,0,0
1,note_on,66,0,0
1,note_on,69,67,0
1,note_on,75,67,0
1,note_on,66,57,0
1,note_on,66,0,108
1,note_on,75,0,0
1,note_on,69,0,0
1,note_on,75,74,12
1,note_on,66,62,0
1,note_on,69,62,0
1,note_on,69,0,960
1,note_on,66,0,0
1,note_on,75,0,0
1,note_on,62,35,0
1,note_on,74,42,0
1,note_on,67,35,0
1,note_on,67,0,120
1,note_on,74,0,0
1,note_on,62,0,0
1,note_on,69,51,240
1,note_on,66,51,0
1,note_on,72,60,0
1,note_on,72,0,108
1,note_on,66,0,0
1,note_on,69,0,0
1,note_on,66,56,12
1,note_on,69,56,0
1,note_on,74,67,0
1,note_on,74,0,360
1,note_on,69,0,0
1,note_on,66,0,0
1,note_on,69,70,0
1,note_on,75,70,0
1,note_on,66,59,0
1,note_on,66,0,108
1,note_on,75,0,0
1,note_on,69,0,0
1,note_on,75,77,12
1,note_on,66,65,0
1,note_on,69,65,0
1,note_on,69,0,960
1,note_on,66,0,0
1,note_on,75,0,0
1,note_on,67,47,0
1,note_on,74,55,0
1,note_on,74,0,480
1,note_on,67,0,0
1,note_on,67,53,0
1,note_on,72,53,0
1,note_on,76,63,0
1,note_on,76,0,480
1,note_on,72,0,0
1,note_on,67,0,0
1,note_on,68,58,0
1,note_on,72,58,0
1,note_on,77,70,0
1,note_on,77,0,240
1,note_on,72,0,0
1,note_on,68,0,0
1,note_on,80,84,240
1,note_on,80,0,600
1,note_on,79,61,0
1,note_on,79,0,60
1,note_on,80,63,0
1,note_on,80,0,60
1,note_on,82,65,0
1,note_on,82,0,60
1,note_on,80,67,0
1,note_on,80,0,60
1,note_on,79,67,0
1,note_on,79,0,60
1,note_on,77,67,0
1,note_on,77,0,60
1,note_on,75,67,0
1,note_on,75,0,60
1,note_on,74,67,0
1,note_on,74,0,60
1,note_on,72,67,0
1,note_on,72,0,60
1,note_on,70,67,0
1,note_on,70,0,60
1,note_on,68,63,0
1,note_on,68,0,27
1,note_on,67,62,0
1,note_on,67,0,27
1,note_on,65,60,0
1,note_on,65,0,27
1,note_on,63,59,0
1,note_on,63,0,27
1,note_on,62,58,0
1,note_on,62,0,27
1,note_on,65,57,0
1,note_on,65,0,27
1,note_on,68,55,0
1,note_on,68,0,27
1,note_on,65,54,0
1,note_on,65,0,27
1,note_on,62,53,0
1,note_on,62,0,24
1,note_on,63,50,0
1,note_on,63,0,240
1,note_on,63,46,240
1,note_on,75,55,0
1,note_on,75,0,840
1,note_on,63,0,0
1,note_on,63,46,0
1,note_on,75,55,0
1,note_on,75,0,120
1,note_on,63,0,0
1,note_on,65,48,0
1,note_on,77,57,0
1,note_on,77,0,360
1,note_on,65,0,0
1,note_on,67,49,0
1,note_on,79,59,0
1,note_on,79,0,114
1,note_on,67,0,0
1,note_on,67,49,6
1,note_on,79,59,0
1,note_on,79,0,480
1,note_on,67,0,0
1,note_on,65,42,0
1,note_on,77,50,0
1,note_on,77,0,240
1,note_on,65,0,0
1,note_on,65,90,120
1,note_on,65,0,120
1,note_on,53,81,0
1,note_on,56,81,0
1,note_on,59,81,0
1,note_on,65,96,0
1,note_on,65,0,360
1,note_on,53,0,0
1,note_on,56,0,0
1,note_on,59,0,0
1,note_on,53,74,0
1,note_on,56,74,0
1,note_on,59,74,0
1,note_on,65,89,0
1,note_on,65,0,114
1,note_on,53,0,0
1,note_on,56,0,0
1,note_on,59,0,0
1,note_on,53,79,6
1,note_on,56,79,0
1,note_on,60,79,0
1,note_on,65,93,0
1,note_on,65,0,360
1,note_on,53,0,0
1,note_on,56,0,0
1,note_on,60,0,0
1,note_on,53,79,0
1,note_on,56,79,0
1,note_on,60,79,0
1,note_on,65,93,0
1,note_on,65,0,114
1,note_on,53,0,0
1,note_on,56,0,0
1,note_on,60,0,0
1,note_on,53,79,6
1,note_on,56,79,0
1,note_on,62,79,0
1,note_on,65,93,0
1,note_on,65,0,480
1,note_on,53,0,0
1,note_on,56,0,0
1,note_on,62,0,0
1,note_on,65,46,0
1,note_on,77,55,0
1,note_on,77,0,840
1,note_on,65,0,0
1,note_on,65,46,0
1,note_on,77,55,0
1,note_on,77,0,120
1,note_on,65,0,0
1,note_on,67,48,0
1,note_on,79,57,0
1,note_on,79,0,360
1,note_on,67,0,0
1,note_on,68,49,0
1,note_on,80,59,0
1,note_on,80,0,114
1,note_on,68,0,0
1,note_on,68,49,6
1,note_on,80,59,0
1,note_on,80,0,480
1,note_on,68,0,0
1,note_on,67,46,0
1,note_on,79,55,0
1,note_on,79,0,240
1,note_on,67,0,0
1,note_on,55,75,120
1,note_on,61,75,0
1,note_on,64,75,0
1,note_on,67,90,0
1,note_on,67,0,120
1,note_on,55,0,0
1,note_on,61,0,0
1,note_on,64,0,0
1,note_on,57,81,0
1,note_on,61,81,0
1,note_on,63,81,0
1,note_on,69,96,0
1,note_on,69,0,360
1,note_on,57,0,0
1,note_on,61,0,0
1,note_on,63,0,0
1,note_on,57,74,0
1,note_on,61,74,0
1,note_on,63,74,0
1,note_on,69,89,0
1,note_on,69,0,114
1,note_on,57,0,0
1,note_on,61,0,0
1,note_on,63,0,0
1,note_on,58,79,6
1,note_on,61,79,0
1,note_on,63,79,0
1,note_on,70,93,0
1,note_on,70,0,360
1,note_on,58,0,0
1,note_on,61,0,0
1,note_on,63,0,0
1,note_on,58,79,0
1,note_on,61,79,0
1,note_on,63,79,0
1,note_on,70,93,0
1,note_on,70,0,114
1,note_on,58,0,0
1,note_on,61,0,0
1,note_on,63,0,0
1,note_on,57,79,6
1,note_on,62,79,0
1,note_on,66,79,0
1,note_on,69,93,0
1,note_on,69,0,480
1,note_on,57,0,0
1,note_on,62,0,0
1,note_on,66,0,0
1,note_on,69,46,0
1,note_on,81,55,0
1,note_on,81,0,840
1,note_on,69,0,0
1,note_on,69,46,0
1,note_on,81,55,0
1,note_on,81,0,120
1,note_on,69,0,0
1,note_on,71,48,0
1,note_on,83,57,0
1,note_on,83,0,360
1,note_on,71,0,0
1,note_on,72,49,0
1,note_on,84,59,0
1,note_on,84,0,114
1,note_on,72,0,0
1,note_on,72,49,6
1,note_on,84,59,0
1,note_on,84,0,480
1,note_on,72,0,0
1,note_on,71,46,0
1,note_on,83,55,0
1,note_on,83,0,240
1,note_on,71,0,0
1,note_on,71,71,720
1,note_on,83,71,0
1,note_on,83,0,360
1,note_on,71,0,0
1,note_on,72,62,0
1,note_on,84,74,0
1,note_on,84,0,120
1,note_on,72,0,0
1,note_on,73,80,0
1,note_on,85,80,0
1,note_on,85,0,480
1,note_on,73,0,0
1,note_on,74,85,0
1,note_on,86,85,0
1,note_on,86,0,480
1,note_on,74,0,0
1,note_on,74,90,480
1,note_on,86,91,0
1,note_on,86,0,360
1,note_on,74,0,0
1,note_on,75,80,0
1,note_on,87,82,0
1,note_on,87,0,120
1,note_on,75,0,0
1,note_on,76,88,0
1,note_on,88,88,0
1,note_on,88,0,480
1,note_on,76,0,0
1,note_on,77,88,0
1,note_on,89,90,0
1,note_on,89,0,950
1,note_on,77,0,0
1,note_on,77,96,10
1,note_on,89,96,0
1,note_on,89,0,470
1,note_on,77,0,0
1,note_on,77,96,10
1,note_on,89,96,0
1,note_on,89,0,600
1,note_on,77,0,0
1,note_on,87,62,0
1,note_on,87,0,60
1,note_on,86,62,0
1,note_on,86,0,60
1,note_on,89,62,0
1,note_on,89,0,60
1,note_on,87,62,0
1,note_on,87,0,60
1,note_on,86,62,0
1,note_on,86,0,60
1,note_on,84,62,0
1,note_on,84,0,60
1,note_on,83,62,0
1,note_on,83,0,120
1,note_on,83,52,120
1,note_on,83,0,120
1,note_on,77,39,120
1,note_on,83,47,0
1,note_on,83,0,120
1,note_on,77,0,0
1,note_on,77,40,120
1,note_on,83,48,0
1,note_on,83,0,120
1,note_on,77,0,0
1,note_on,75,40,120
1,note_on,84,48,0
1,note_on,84,0,480
1,note_on,75,0,0
1,note_on,84,65,1440
1,note_on,84,0,600
1,note_on,83,61,0
1,note_on,83,0,60
1,note_on,84,63,0
1,note_on,84,0,60
1,note_on,86,66,0
1,note_on,86,0,40
1,note_on,84,65,0
1,note_on,84,0,40
1,note_on,82,64,0
1,note_on,82,0,40
1,note_on,80,63,0
1,note_on,80,0,40
1,note_on,79,61,0
1,note_on,79,0,40
1,note_on,82,60,0
1,note_on,82,0,40
1,note_on,80,62,0
1,note_on,80,0,120
1,note_on,80,49,120
1,note_on,80,0,120
1,note_on,80,47,120
1,note_on,80,0,120
1,note_on,80,48,120
1,note_on,80,0,120
1,note_on,79,50,120
1,note_on,79,0,240
1,note_on,87,65,0
1,note_on,87,0,280
1,note_on,86,52,0
1,note_on,86,0,40
1,note_on,85,52,0
1,note_on,85,0,40
1,note_on,84,52,0
1,note_on,84,0,40
1,note_on,83,52,0
1,note_on,83,0,40
1,note_on,82,53,0
1,note_on,82,0,40
1,note_on,81,53,0
1,note_on,81,0,34
1,note_on,80,53,0
1,note_on,80,0,34
1,note_on,79,53,0
1,note_on,79,0,34
1,note_on,78,54,0
1,note_on,78,0,34
1,note_on,77,54,0
1,note_on,77,0,34
1,note_on,76,54,0
1,note_on,76,0,34
1,note_on,75,54,0
1,note_on,75,0,36
1,note_on,74,54,0
1,note_on,74,0,60
1,note_on,73,55,0
1,note_on,73,0,60
1,note_on,72,55,0
1,note_on,72,0,60
1,note_on,71,56,0
1,note_on,71,0,60
1,note_on,70,56,0
1,note_on,70,0,60
1,note_on,69,56,0
1,note_on,69,0,60
1,note_on,68,57,0
1,note_on,68,0,60
1,note_on,67,57,0
1,note_on,67,0,60
1,note_on,66,57,0
1,note_on,66,0,60
1,note_on,65,58,0
1,note_on,65,0,60
1,note_on,64,57,0
1,note_on,64,0,60
1,note_on,63,57,0
1,note_on,63,0,60
1,note_on,62,58,0
1,note_on,62,0,60
1,note_on,61,63,0
1,note_on,61,0,60
1,note_on,60,68,0
1,note_on,60,0,60
1,note_on,59,73,0
1,note_on,59,0,60
1,note_on,68,82,0
1,note_on,68,0,360
1,note_on,59,68,0
1,note_on,59,0,120
1,note_on,60,50,0
1,note_on,60,0,720
1,note_on,58,52,0
1,note_on,64,52,0
1,note_on,64,0,90
1,note_on,58,0,0
1,note_on,56,54,150
1,note_on,65,54,0
1,note_on,65,0,90
1,note_on,56,0,0
1,note_on,64,56,150
1,note_on,67,56,0
1,note_on,67,0,90
1,note_on,64,0,0
1,note_on,65,57,150
1,note_on,68,57,0
1,note_on,68,0,90
1,note_on,65,0,0
1,note_on,62,59,150
1,note_on,71,59,0
1,note_on,71,0,90
1,note_on,62,0,0
1,note_on,63,61,150
1,note_on,72,61,0
1,note_on,72,0,90
1,note_on,63,0,0
1,note_on,64,55,150
1,note_on,72,55,0
1,note_on,72,0,480
1,note_on,64,0,0
1,note_on,70,51,0
1,note_on,76,51,0
1,note_on,76,0,90
1,note_on,70,0,0
1,note_on,68,53,150
1,note_on,77,53,0
1,note_on,77,0,90
1,note_on,68,0,0
1,note_on,76,55,150
1,note_on,79,55,0
1,note_on,79,0,90
1,note_on,76,0,0
1,note_on,77,57,150
1,note_on,80,57,0
1,note_on,80,0,90
1,note_on,77,0,0
1,note_on,74,59,150
1,note_on,83,59,0
1,note_on,83,0,90
1,note_on,74,0,0
1,note_on,72,51,150
1,note_on,79,61,0
1,note_on,75,51,0
1,note_on,84,61,0
1,note_on,84,0,480
1,note_on,72,0,0
1,note_on,79,0,0
1,note_on,75,0,0
1,note_on,67,53,0
1,note_on,71,53,0
1,note_on,77,63,0
1,note_on,79,63,0
1,note_on,79,0,480
1,note_on,67,0,0
1,note_on,71,0,0
1,note_on,77,0,0
1,note_on,67,56,0
1,note_on,72,56,0
1,note_on,75,67,0
1,note_on,75,0,480
1,note_on,72,0,0
1,note_on,67,0,0
1,note_on,65,60,0
1,note_on,68,60,0
1,note_on,74,71,0
1,note_on,74,0,480
1,note_on,68,0,0
1,note_on,65,0,0
1,note_on,63,62,0
1,note_on,67,74,0
1,note_on,72,74,0
1,note_on,67,0,480
1,note_on,66,74,0
1,note_on,66,0,480
1,note_on,69,77,0
1,note_on,69,0,480
1,note_on,72,0,0
1,note_on,63,0,0
1,note_on,62,62,0
1,note_on,65,62,0
1,note_on,71,74,0
1,note_on,71,0,480
1,note_on,65,0,0
1,note_on,62,0,0
1,note_on,60,67,0
1,note_on,63,67,0
1,note_on,72,79,0
1,note_on,72,0,90
1,note_on,63,0,0
1,note_on,60,0,0
1,note_on,60,67,150
1,note_on,60,0,480
1,note_on,58,52,0
1,note_on,64,52,0
1,note_on,64,0,90
1,note_on,58,0,0
1,note_on,56,54,150
1,note_on,65,54,0
1,note_on,65,0,90
1,note_on,56,0,0
1,note_on,64,55,150
1,note_on,67,55,0
1,note_on,67,0,90
1,note_on,64,0,0
1,note_on,65,57,150
1,note_on,68,57,0
1,note_on,68,0,90
1,note_on,65,0,0
1,note_on,62,59,150
1,note_on,71,59,0
1,note_on,71,0,90
1,note_on,62,0,0
1,note_on,63,61,150
1,note_on,72,61,0
1,note_on,72,0,90
1,note_on,63,0,0
1,note_on,64,55,150
1,note_on,72,55,0
1,note_on,72,0,480
1,note_on,64,0,0
1,note_on,70,51,0
1,note_on,76,51,0
1,note_on,76,0,90
1,note_on,70,0,0
1,note_on,68,53,150
1,note_on,77,53,0
1,note_on,77,0,90
1,note_on,68,0,0
1,note_on,76,55,150
1,note_on,79,55,0
1,note_on,79,0,90
1,note_on,76,0,0
1,note_on,77,57,150
1,note_on,80,57,0
1,note_on,80,0,90
1,note_on,77,0,0
1,note_on,74,59,150
1,note_on,83,59,0
1,note_on,83,0,90
1,note_on,74,0,0
1,note_on,72,51,150
1,note_on,79,61,0
1,note_on,75,51,0
1,note_on,84,61,0
1,note_on,84,0,480
1,note_on,72,0,0
1,note_on,79,0,0
1,note_on,75,0,0
1,note_on,67,53,0
1,note_on,71,53,0
1,note_on,77,63,0
1,note_on,79,63,0
1,note_on,79,0,480
1,note_on,67,0,0
1,note_on,71,0,0
1,note_on,77,0,0
1,note_on,67,56,0
1,note_on,72,56,0
1,note_on,75,67,0
1,note_on,75,0,480
1,note_on,72,0,0
1,note_on,67,0,0
1,note_on,65,60,0
1,note_on,68,60,0
1,note_on,74,71,0
1,note_on,74,0,480
1,note_on,68,0,0
1,note_on,65,0,0
1,note_on,63,62,0
1,note_on,67,74,0
1,note_on,72,74,0
1,note_on,67,0,480
1,note_on,66,74,0
1,note_on,66,0,480
1,note_on,69,77,0
1,note_on,69,0,960
1,note_on,72,0,0
1,note_on,63,0,0
1,note_on,62,55,0
1,note_on,67,55,0
1,note_on,71,55,0
1,note_on,71,0,240
1,note_on,67,0,0
1,note_on,62,0,0
1,note_on,67,80,240
1,note_on,79,80,0
1,note_on,79,0,720
1,note_on,67,0,0
1,note_on,67,80,240
1,note_on,79,80,0
1,note_on,79,0,600
1,note_on,67,0,0
1,note_on,77,70,0
1,note_on,77,0,120
1,note_on,74,69,0
1,note_on,74,0,120
1,note_on,71,69,0
1,note_on,71,0,120
1,note_on,67,68,0
1,note_on,67,0,120
1,note_on,65,67,0
1,note_on,65,0,120
1,note_on,62,66,0
1,note_on,62,0,120
1,note_on,59,65,0
1,note_on,59,0,120
1,note_on,60,65,0
1,note_on,60,0,120
1,note_on,63,64,0
1,note_on,63,0,120
1,note_on,60,65,0
1,note_on,60,0,120
1,note_on,55,65,0
1,note_on,55,0,120
1,note_on,54,64,0
1,note_on,54,0,120
1,note_on,60,64,0
1,note_on,60,0,120
1,note_on,56,63,0
1,note_on,56,0,120
1,note_on,54,65,0
1,note_on,54,0,120
1,note_on,55,67,0
1,note_on,55,0,240
1,note_on,67,80,240
1,note_on,79,80,0
1,note_on,79,0,720
1,note_on,67,0,0
1,note_on,67,80,240
1,note_on,79,80,0
1,note_on,79,0,600
1,note_on,67,0,0
1,note_on,77,72,0
1,note_on,77,0,120
1,note_on,74,71,0
1,note_on,74,0,120
1,note_on,71,70,0
1,note_on,71,0,120
1,note_on,67,69,0
1,note_on,67,0,120
1,note_on,65,68,0
1,note_on,65,0,120
1,note_on,62,67,0
1,note_on,62,0,120
1,note_on,59,66,0
1,note_on,59,0,120
1,note_on,60,65,0
1,note_on,60,0,120
1,note_on,63,64,0
1,note_on,63,0,120
1,note_on,60,64,0
1,note_on,60,0,120
1,note_on,55,67,0
1,note_on,55,0,120
1,note_on,54,66,0
1,note_on,54,0,120
1,note_on,60,64,0
1,note_on,60,0,120
1,note_on,56,62,0
1,note_on,56,0,120
1,note_on,54,60,0
1,note_on,54,0,120
1,note_on,55,67,0
1,note_on,55,0,240
1,note_on,66,67,0
1,note_on,66,0,90
1,note_on,67,69,150
1,note_on,67,0,90
1,note_on,66,71,150
1,note_on,72,71,0
1,note_on,72,0,90
1,note_on,66,0,0
1,note_on,67,73,150
1,note_on,71,73,0
1,note_on,71,0,90
1,note_on,67,0,0
1,note_on,72,75,150
1,note_on,78,75,0
1,note_on,78,0,90
1,note_on,72,0,0
1,note_on,71,77,150
1,note_on,79,77,0
1,note_on,79,0,90
1,note_on,71,0,0
1,note_on,84,79,150
1,note_on,78,79,0
1,note_on,78,0,90
1,note_on,84,0,0
1,note_on,83,81,150
1,note_on,79,81,0
1,note_on,79,0,120
1,note_on,83,0,0
1,note_on,58,81,840
1,note_on,61,81,0
1,note_on,63,84,0
1,note_on,61,0,960
1,note_on,58,0,0
1,note_on,60,67,0
1,note_on,60,0,240
1,note_on,63,0,0
1,note_on,73,67,0
1,note_on,73,0,90
1,note_on,72,69,150
1,note_on,72,0,90
1,note_on,73,71,150
1,note_on,79,71,0
1,note_on,79,0,90
1,note_on,73,0,0
1,note_on,72,73,150
1,note_on,80,73,0
1,note_on,80,0,90
1,note_on,72,0,0
1,note_on,79,75,150
1,note_on,85,75,0
1,note_on,85,0,90
1,note_on,79,0,0
1,note_on,80,77,150
1,note_on,84,77,0
1,note_on,84,0,90
1,note_on,80,0,0
1,note_on,85,79,150
1,note_on,79,79,0
1,note_on,79,0,90
1,note_on,85,0,0
1,note_on,84,81,150
1,note_on,80,81,0
1,note_on,80,0,120
1,note_on,84,0,0
1,note_on,60,81,840
1,note_on,63,81,0
1,note_on,66,84,0
1,note_on,66,0,960
1,note_on,63,0,0
1,note_on,60,0,0
1,note_on,62,67,0
1,note_on,65,67,0
1,note_on,65,0,240
1,note_on,62,0,0
1,note_on,69,62,0
1,note_on,75,67,0
1,note_on,75,0,90
1,note_on,69,0,0
1,note_on,70,65,150
1,note_on,74,69,0
1,note_on,74,0,90
1,note_on,70,0,0
1,note_on,75,71,150
1,note_on,81,71,0
1,note_on,81,0,90
1,note_on,75,0,0
1,note_on,74,73,150
1,note_on,82,73,0
1,note_on,82,0,90
1,note_on,74,0,0
1,note_on,81,75,150
1,note_on,87,75,0
1,note_on,87,0,90
1,note_on,81,0,0
1,note_on,82,77,150
1,note_on,86,77,0
1,note_on,86,0,90
1,note_on,82,0,0
1,note_on,87,79,150
1,note_on,81,79,0
1,note_on,81,0,90
1,note_on,87,0,0
1,note_on,86,81,150
1,note_on,82,81,0
1,note_on,82,0,120
1,note_on,86,0,0
1,note_on,75,81,360
1,note_on,81,81,0
1,note_on,81,0,480
1,note_on,75,0,0
1,note_on,74,81,0
1,note_on,82,81,0
1,note_on,82,0,240
1,note_on,74,0,0
1,note_on,69,81,240
1,note_on,75,81,0
1,note_on,75,0,480
1,note_on,69,0,0
1,note_on,70,81,0
1,note_on,74,81,0
1,note_on,74,0,240
1,note_on,70,0,0
1,note_on,63,81,240
1,note_on,69,81,0
1,note_on,69,0,480
1,note_on,63,0,0
1,note_on,62,81,0
1,note_on,70,81,0
1,note_on,70,0,240
1,note_on,62,0,0
1,note_on,57,81,240
1,note_on,63,81,0
1,note_on,63,0,480
1,note_on,57,0,0
1,note_on,58,81,0
1,note_on,62,81,0
1,note_on,62,0,240
1,note_on,58,0,0
1,note_on,57,50,0
1,note_on,57,0,240
1,note_on,58,59,0
1,note_on,58,0,240
1,note_on,57,56,0
1,note_on,57,0,240
1,note_on,58,57,0
1,note_on,58,0,240
1,note_on,57,49,0
1,note_on,57,0,240
1,note_on,58,57,0
1,note_on,58,0,240
1,note_on,57,51,0
1,note_on,57,0,240
1,note_on,46,55,240
1,note_on,46,0,120
1,note_on,51,58,120
1,note_on,51,0,120
1,note_on,53,61,120
1,note_on,53,0,120
1,note_on,54,64,120
1,note_on,54,0,120
1,note_on,70,62,120
1,note_on,70,0,120
1,note_on,75,64,120
1,note_on,75,0,120
1,note_on,77,66,120
1,note_on,77,0,120
1,note_on,70,65,60
1,note_on,70,0,60
1,note_on,78,75,0
1,note_on,78,0,720
1,note_on,75,63,0
1,note_on,70,60,180
1,note_on,70,0,60
1,note_on,75,0,0
1,note_on,78,71,0
1,note_on,78,0,720
1,note_on,75,58,0
1,note_on,75,0,240
1,note_on,74,60,0
1,note_on,74,0,240
1,note_on,46,57,0
1,note_on,46,0,120
1,note_on,53,60,120
1,note_on,53,0,120
1,note_on,54,63,120
1,note_on,54,0,120
1,note_on,56,66,120
1,note_on,56,0,120
1,note_on,70,59,120
1,note_on,70,0,240
1,note_on,80,62,0
1,note_on,80,0,240
1,note_on,78,65,0
1,note_on,78,0,240
1,note_on,78,60,0
1,note_on,78,0,60
1,note_on,80,60,0
1,note_on,80,0,60
1,note_on,78,67,0
1,note_on,78,0,120
1,note_on,77,60,0
1,note_on,77,0,240
1,note_on,77,60,0
1,note_on,77,0,60
1,note_on,78,60,0
1,note_on,78,0,60
1,note_on,77,67,0
1,note_on,77,0,120
1,note_on,75,60,0
1,note_on,75,0,240
1,note_on,75,60,0
1,note_on,75,0,60
1,note_on,77,60,0
1,note_on,77,0,60
1,note_on,75,66,0
1,note_on,75,0,120
1,note_on,74,60,0
1,note_on,74,0,240
1,note_on,72,60,0
1,note_on,72,0,120
1,note_on,74,60,120
1,note_on,74,0,120
1,note_on,75,60,120
1,note_on,75,0,240
1,note_on,46,55,0
1,note_on,46,0,120
1,note_on,51,58,120
1,note_on,51,0,120
1,note_on,53,61,120
1,note_on,53,0,120
1,note_on,54,64,120
1,note_on,54,0,120
1,note_on,70,62,120
1,note_on,70,0,120
1,note_on,75,64,120
1,note_on,75,0,120
1,note_on,77,66,120
1,note_on,77,0,120
1,note_on,70,65,60
1,note_on,70,0,60
1,note_on,78,75,0
1,note_on,78,0,720
1,note_on,75,63,0
1,note_on,70,60,180
1,note_on,70,0,60
1,note_on,75,0,0
1,note_on,78,71,0
1,note_on,78,0,720
1,note_on,75,58,0
1,note_on,75,0,240
1,note_on,72,60,0
1,note_on,72,0,240
1,note_on,44,57,0
1,note_on,44,0,120
1,note_on,51,60,120
1,note_on,51,0,120
1,note_on,53,63,120
1,note_on,53,0,120
1,note_on,54,66,120
1,note_on,54,0,120
1,note_on,68,59,120
1,note_on,68,0,240
1,note_on,78,62,0
1,note_on,78,0,240
1,note_on,77,65,0
1,note_on,77,0,240
1,note_on,77,60,0
1,note_on,77,0,60
1,note_on,78,60,0
1,note_on,78,0,60
1,note_on,77,67,0
1,note_on,77,0,120
1,note_on,75,60,0
1,note_on,75,0,240
1,note_on,75,60,0
1,note_on,75,0,60
1,note_on,77,60,0
1,note_on,77,0,60
1,note_on,75,67,0
1,note_on,75,0,120
1,note_on,73,60,0
1,note_on,73,0,240
1,note_on,73,60,0
1,note_on,73,0,60
1,note_on,75,60,0
1,note_on,75,0,60
1,note_on,73,66,0
1,note_on,73,0,120
1,note_on,72,60,0
1,note_on,72,0,240
1,note_on,70,60,0
1,note_on,70,0,120
1,note_on,72,60,120
1,note_on,72,0,120
1,note_on,73,60,120
1,note_on,73,0,240
1,note_on,44,55,0
1,note_on,44,0,120
1,note_on,49,58,120
1,note_on,49,0,120
1,note_on,51,61,120
1,note_on,51,0,120
1,note_on,53,64,120
1,note_on,53,0,120
1,note_on,68,62,120
1,note_on,68,0,120
1,note_on,73,64,120
1,note_on,73,0,120
1,note_on,75,66,120
1,note_on,75,0,120
1,note_on,68,65,60
1,note_on,68,0,60
1,note_on,77,75,0
1,note_on,77,0,720
1,note_on,73,63,0
1,note_on,68,60,180
1,note_on,68,0,60
1,note_on,73,0,0
1,note_on,77,71,0
1,note_on,77,0,720
1,note_on,73,58,0
1,note_on,73,0,240
1,note_on,72,60,0
1,note_on,72,0,240
1,note_on,44,57,0
1,note_on,44,0,120
1,note_on,51,60,120
1,note_on,51,0,120
1,note_on,53,63,120
1,note_on,53,0,120
1,note_on,54,66,120
1,note_on,54,0,120
1,note_on,68,59,120
1,note_on,68,0,240
1,note_on,78,62,0
1,note_on,78,0,240
1,note_on,77,65,0
1,note_on,77,0,240
1,note_on,77,60,0
1,note_on,77,0,60
1,note_on,78,60,0
1,note_on,78,0,60
1,note_on,77,67,0
1,note_on,77,0,120
1,note_on,75,60,0
1,note_on,75,0,240
1,note_on,75,60,0
1,note_on,75,0,60
1,note_on,77,60,0
1,note_on,77,0,60
1,note_on,75,67,0
1,note_on,75,0,120
1,note_on,73,60,0
1,note_on,73,0,240
1,note_on,73,60,0
1,note_on,73,0,60
1,note_on,75,60,0
1,note_on,75,0,60
1,note_on,73,66,0
1,note_on,73,0,120
1,note_on,72,60,0
1,note_on,72,0,240
1,note_on,70,60,0
1,note_on,70,0,120
1,note_on,72,57,120
1,note_on,72,0,120
1,note_on,73,60,120
1,note_on,73,0,240
1,note_on,49,73,0
1,note_on,49,0,240
1,note_on,56,77,0
1,note_on,56,0,240
1,note_on,47,73,0
1,note_on,47,0,120
1,note_on,46,77,120
1,note_on,46,0,120
1,note_on,70,59,120
1,note_on,70,0,240
1,note_on,80,62,0
1,note_on,80,0,240
1,note_on,78,65,0
1,note_on,78,0,240
1,note_on,78,60,0
1,note_on,78,0,60
1,note_on,80,60,0
1,note_on,80,0,60
1,note_on,78,67,0
1,note_on,78,0,120
1,note_on,77,60,0
1,note_on,77,0,240
1,note_on,77,60,0
1,note_on,77,0,60
1,note_on,78,60,0
1,note_on,78,0,60
1,note_on,77,67,0
1,note_on,77,0,120
1,note_on,75,60,0
1,note_on,75,0,240
1,note_on,75,60,0
1,note_on,75,0,60
1,note_on,77,60,0
1,note_on,77,0,60
1,note_on,75,66,0
1,note_on,75,0,120
1,note_on,74,60,0
1,note_on,74,0,240
1,note_on,72,60,0
1,note_on,72,0,120
1,note_on,74,57,120
1,note_on,74,0,120
1,note_on,75,60,120
1,note_on,75,0,240
1,note_on,51,73,0
1,note_on,51,0,240
1,note_on,58,77,0
1,note_on,58,0,240
1,note_on,49,73,0
1,note_on,49,0,120
1,note_on,48,77,120
1,note_on,48,0,120
1,note_on,72,59,120
1,note_on,72,0,240
1,note_on,82,62,0
1,note_on,82,0,240
1,note_on,80,65,0
1,note_on,80,0,240
1,note_on,80,60,0
1,note_on,80,0,60
1,note_on,82,60,0
1,note_on,82,0,60
1,note_on,80,67,0
1,note_on,80,0,120
1,note_on,79,60,0
1,note_on,79,0,240
1,note_on,79,60,0
1,note_on,79,0,60
1,note_on,80,60,0
1,note_on,80,0,60
1,note_on,79,67,0
1,note_on,79,0,120
1,note_on,77,60,0
1,note_on,77,0,240
1,note_on,77,60,0
1,note_on,77,0,60
1,note_on,79,60,0
1,note_on,79,0,60
1,note_on,77,66,0
1,note_on,77,0,120
1,note_on,76,60,0
1,note_on,76,0,240
1,note_on,74,60,0
1,note_on,74,0,240
1,note_on,76,57,0
1,note_on,76,0,240
1,note_on,79,60,0
1,note_on,79,0,60
1,note_on,80,60,0
1,note_on,80,0,60
1,note_on,79,67,0
1,note_on,79,0,120
1,note_on,77,60,0
1,note_on,77,0,240
1,note_on,77,60,0
1,note_on,77,0,60
1,note_on,79,60,0
1,note_on,79,0,60
1,note_on,77,67,0
1,note_on,77,0,120
1,note_on,75,60,0
1,note_on,75,0,240
1,note_on,75,60,0
1,note_on,75,0,60
1,note_on,77,60,0
1,note_on,77,0,60
1,note_on,75,66,0
1,note_on,75,0,120
1,note_on,74,60,0
1,note_on,74,0,240
1,note_on,72,60,0
1,note_on,72,0,240
1,note_on,74,57,0
1,note_on,74,0,240
1,note_on,77,60,0
1,note_on,77,0,60
1,note_on,79,60,0
1,note_on,79,0,60
1,note_on,77,67,0
1,note_on,77,0,120
1,note_on,75,59,0
1,note_on,75,0,240
1,note_on,75,58,0
1,note_on,75,0,60
1,note_on,77,58,0
1,note_on,77,0,60
1,note_on,75,64,0
1,note_on,75,0,120
1,note_on,74,57,0
1,note_on,74,0,240
1,note_on,74,56,0
1,note_on,74,0,60
1,note_on,75,55,0
1,note_on,75,0,60
1,note_on,74,61,0
1,note_on,74,0,120
1,note_on,72,55,0
1,note_on,72,0,240
1,note_on,72,54,0
1,note_on,72,0,60
1,note_on,74,54,0
1,note_on,74,0,60
1,note_on,72,59,0
1,note_on,72,0,120
1,note_on,71,53,0
1,note_on,71,0,240
1,note_on,72,52,0
1,note_on,72,0,60
1,note_on,74,52,0
1,note_on,74,0,60
1,note_on,72,56,0
1,note_on,72,0,120
1,note_on,70,51,0
1,note_on,70,0,240
1,note_on,70,50,0
1,note_on,70,0,90
1,note_on,70,46,150
1,note_on,70,0,90
1,note_on,72,37,150
1,note_on,72,0,60
1,note_on,74,37,0
1,note_on,74,0,60
1,note_on,72,41,0
1,note_on,72,0,120
1,note_on,70,37,0
1,note_on,70,0,240
1,note_on,70,37,0
1,note_on,70,0,90
1,note_on,70,35,150
1,note_on,70,0,90
1,note_on,63,25,270
1,note_on,63,0,120
1,note_on,67,29,0
1,note_on,67,0,120
1,note_on,63,29,0
1,note_on,63,0,120
1,note_on,75,45,0
1,note_on,63,28,120
1,note_on,63,0,120
1,note_on,67,30,0
1,note_on,67,0,120
1,note_on,63,28,0
1,note_on,63,0,120
1,note_on,67,31,0
1,note_on,67,0,120
1,note_on,63,30,0
1,note_on,63,0,120
1,note_on,67,32,0
1,note_on,67,0,120
1,note_on,63,29,0
1,note_on,63,0,120
1,note_on,75,0,0
1,note_on,75,50,0
1,note_on,63,30,120
1,note_on,63,0,120
1,note_on,67,33,0
1,note_on,67,0,120
1,note_on,63,32,0
1,note_on,63,0,120
1,note_on,75,0,0
1,note_on,63,32,120
1,note_on,63,0,120
1,note_on,67,36,0
1,note_on,67,0,120
1,note_on,63,35,0
1,note_on,63,0,120
1,note_on,75,54,0
1,note_on,63,33,120
1,note_on,63,0,120
1,note_on,67,35,0
1,note_on,67,0,120
1,note_on,63,32,0
1,note_on,63,0,120
1,note_on,67,35,0
1,note_on,67,0,120
1,note_on,63,33,0
1,note_on,63,0,120
1,note_on,67,35,0
1,note_on,67,0,120
1,note_on,63,32,0
1,note_on,63,0,120
1,note_on,75,0,0
1,note_on,75,53,0
1,note_on,63,32,120
1,note_on,63,0,120
1,note_on,67,35,0
1,note_on,67,0,120
1,note_on,63,33,0
1,note_on,63,0,120
1,note_on,75,0,0
1,note_on,75,66,0
1,note_on,75,0,90
1,note_on,63,41,30
1,note_on,63,0,120
1,note_on,68,45,0
1,note_on,68,0,120
1,note_on,63,42,0
1,note_on,63,0,120
1,note_on,76,67,0
1,note_on,76,0,90
1,note_on,64,43,30
1,note_on,64,0,120
1,note_on,72,47,0
1,note_on,72,0,120
1,note_on,64,43,0
1,note_on,64,0,120
1,note_on,77,71,0
1,note_on,77,0,90
1,note_on,65,45,30
1,note_on,65,0,120
1,note_on,72,50,0
1,note_on,72,0,120
1,note_on,65,45,0
1,note_on,65,0,120
1,note_on,79,72,0
1,note_on,79,0,90
1,note_on,67,47,30
1,note_on,67,0,120
1,note_on,72,50,0
1,note_on,72,0,120
1,note_on,67,47,0
1,note_on,67,0,120
1,note_on,80,74,0
1,note_on,80,0,90
1,note_on,68,49,30
1,note_on,68,0,120
1,note_on,72,54,0
1,note_on,72,0,120
1,note_on,68,49,0
1,note_on,68,0,120
1,note_on,81,80,0
1,note_on,81,0,90
1,note_on,69,50,30
1,note_on,69,0,120
1,note_on,72,55,0
1,note_on,72,0,120
1,note_on,69,51,0
1,note_on,69,0,120
1,note_on,82,84,0
1,note_on,82,0,90
1,note_on,70,51,30
1,note_on,70,0,120
1,note_on,77,58,0
1,note_on,77,0,120
1,note_on,70,53,0
1,note_on,70,0,120
1,note_on,84,85,0
1,note_on,84,0,90
1,note_on,72,53,30
1,note_on,72,0,120
1,note_on,77,58,0
1,note_on,77,0,120
1,note_on,72,54,0
1,note_on,72,0,120
1,note_on,85,85,0
1,note_on,85,0,90
1,note_on,73,55,30
1,note_on,73,0,120
1,note_on,77,63,0
1,note_on,77,0,120
1,note_on,73,55,0
1,note_on,73,0,120
1,note_on,86,90,0
1,note_on,86,0,90
1,note_on,74,57,30
1,note_on,74,0,120
1,note_on,77,62,0
1,note_on,77,0,120
1,note_on,74,57,0
1,note_on,74,0,120
1,note_on,87,89,0
1,note_on,87,0,90
1,note_on,75,59,30
1,note_on,75,0,120
1,note_on,82,64,0
1,note_on,82,0,120
1,note_on,75,59,0
1,note_on,75,0,120
1,note_on,83,91,0
1,note_on,83,0,90
1,note_on,71,61,30
1,note_on,71,0,120
1,note_on,75,67,0
1,note_on,75,0,120
1,note_on,71,61,0
1,note_on,71,0,120
1,note_on,72,78,120
1,note_on,72,0,120
1,note_on,75,84,0
1,note_on,75,0,120
1,note_on,72,78,0
1,note_on,72,0,120
1,note_on,84,88,0
1,note_on,84,0,90
1,note_on,72,78,30
1,note_on,72,0,120
1,note_on,75,84,0
1,note_on,75,0,120
1,note_on,72,76,0
1,note_on,72,0,120
1,note_on,65,78,120
1,note_on,65,0,120
1,note_on,68,84,0
1,note_on,68,0,120
1,note_on,65,78,0
1,note_on,65,0,120
1,note_on,74,88,0
1,note_on,74,0,90
1,note_on,65,78,30
1,note_on,65,0,120
1,note_on,68,84,0
1,note_on,68,0,120
1,note_on,65,76,0
1,note_on,65,0,120
1,note_on,63,32,120
1,note_on,63,0,120
1,note_on,67,36,0
1,note_on,67,0,120
1,note_on,63,35,0
1,note_on,63,0,120
1,note_on,75,54,0
1,note_on,63,33,120
1,note_on,63,0,120
1,note_on,67,35,0
1,note_on,67,0,120
1,note_on,63,32,0
1,note_on,63,0,120
1,note_on,67,35,0
1,note_on,67,0,120
1,note_on,63,33,0
1,note_on,63,0,120
1,note_on,67,35,0
1,note_on,67,0,120
1,note_on,63,32,0
1,note_on,63,0,120
1,note_on,75,0,0
1,note_on,75,53,0
1,note_on,63,32,120
1,note_on,63,0,120
1,note_on,67,35,0
1,note_on,67,0,120
1,note_on,63,33,0
1,note_on,63,0,120
1,note_on,75,0,0
1,note_on,63,32,120
1,note_on,63,0,120
1,note_on,67,36,0
1,note_on,67,0,120
1,note_on,63,35,0
1,note_on,63,0,120
1,note_on,75,54,0
1,note_on,63,33,120
1,note_on,63,0,120
1,note_on,67,35,0
1,note_on,67,0,120
1,note_on,63,32,0
1,note_on,63,0,120
1,note_on,67,35,0
1,note_on,67,0,120
1,note_on,63,33,0
1,note_on,63,0,120
1,note_on,67,35,0
1,note_on,67,0,120
1,note_on,63,32,0
1,note_on,63,0,120
1,note_on,75,0,0
1,note_on,75,53,0
1,note_on,63,32,120
1,note_on,63,0,120
1,note_on,67,35,0
1,note_on,67,0,120
1,note_on,63,33,0
1,note_on,63,0,120
1,note_on,75,0,0
1,note_on,75,66,0
1,note_on,75,0,90
1,note_on,63,41,30
1,note_on,63,0,120
1,note_on,68,45,0
1,note_on,68,0,120
1,note_on,63,42,0
1,note_on,63,0,120
1,note_on,76,67,0
1,note_on,76,0,90
1,note_on,64,43,30
1,note_on,64,0,120
1,note_on,72,47,0
1,note_on,72,0,120
1,note_on,64,43,0
1,note_on,64,0,120
1,note_on,77,71,0
1,note_on,77,0,90
1,note_on,65,45,30
1,note_on,65,0,120
1,note_on,72,50,0
1,note_on,72,0,120
1,note_on,65,45,0
1,note_on,65,0,120
1,note_on,79,72,0
1,note_on,79,0,90
1,note_on,67,47,30
1,note_on,67,0,120
1,note_on,72,50,0
1,note_on,72,0,120
1,note_on,67,47,0
1,note_on,67,0,120
1,note_on,80,74,0
1,note_on,80,0,90
1,note_on,68,49,30
1,note_on,68,0,120
1,note_on,72,54,0
1,note_on,72,0,120
1,note_on,68,49,0
1,note_on,68,0,120
1,note_on,81,80,0
1,note_on,81,0,90
1,note_on,69,50,30
1,note_on,69,0,120
1,note_on,72,55,0
1,note_on,72,0,120
1,note_on,69,51,0
1,note_on,69,0,120
1,note_on,82,84,0
1,note_on,82,0,90
1,note_on,70,51,30
1,note_on,70,0,120
1,note_on,77,58,0
1,note_on,77,0,120
1,note_on,70,53,0
1,note_on,70,0,120
1,note_on,84,85,0
1,note_on,84,0,90
1,note_on,72,53,30
1,note_on,72,0,120
1,note_on,77,58,0
1,note_on,77,0,120
1,note_on,72,54,0
1,note_on,72,0,120
1,note_on,85,85,0
1,note_on,85,0,90
1,note_on,73,55,30
1,note_on,73,0,120
1,note_on,77,63,0
1,note_on,77,0,120
1,note_on,73,55,0
1,note_on,73,0,120
1,note_on,86,90,0
1,note_on,86,0,90
1,note_on,74,57,30
1,note_on,74,0,120
1,note_on,77,62,0
1,note_on,77,0,120
1,note_on,74,57,0
1,note_on,74,0,120
1,note_on,87,89,0
1,note_on,87,0,90
1,note_on,75,59,30
1,note_on,75,0,120
1,note_on,82,64,0
1,note_on,82,0,120
1,note_on,75,59,0
1,note_on,75,0,120
1,note_on,88,91,0
1,note_on,88,0,90
1,note_on,76,61,30
1,note_on,76,0,120
1,note_on,82,67,0
1,note_on,82,0,120
1,note_on,76,61,0
1,note_on,76,0,120
1,note_on,80,78,120
1,note_on,80,0,120
1,note_on,84,84,0
1,note_on,84,0,120
1,note_on,80,78,0
1,note_on,80,0,120
1,note_on,89,88,0
1,note_on,89,0,90
1,note_on,80,78,30
1,note_on,80,0,120
1,note_on,84,84,0
1,note_on,84,0,120
1,note_on,80,76,0
1,note_on,80,0,120
1,note_on,77,78,120
1,note_on,77,0,120
1,note_on,80,84,0
1,note_on,80,0,120
1,note_on,77,78,0
1,note_on,77,0,120
1,note_on,86,88,0
1,note_on,86,0,90
1,note_on,77,78,30
1,note_on,77,0,120
1,note_on,80,84,0
1,note_on,80,0,120
1,note_on,77,76,0
1,note_on,77,0,120
1,note_on,79,81,0
1,note_on,79,0,90
1,note_on,87,62,150
1,note_on,87,0,480
1,note_on,86,46,0
1,note_on,86,0,120
1,note_on,87,48,0
1,note_on,87,0,120
1,note_on,89,49,0
1,note_on,89,0,120
1,note_on,87,49,0
1,note_on,87,0,120
1,note_on,86,48,0
1,note_on,86,0,120
1,note_on,84,47,0
1,note_on,84,0,120
1,note_on,83,45,0
1,note_on,83,0,120
1,note_on,84,46,0
1,note_on,84,0,120
1,note_on,86,49,0
1,note_on,86,0,120
1,note_on,84,47,0
1,note_on,84,0,120
1,note_on,82,49,0
1,note_on,82,0,120
1,note_on,80,47,0
1,note_on,80,0,120
1,note_on,79,46,0
1,note_on,79,0,120
1,note_on,77,45,0
1,note_on,77,0,120
1,note_on,76,45,0
1,note_on,76,0,120
1,note_on,77,45,0
1,note_on,77,0,120
1,note_on,79,47,0
1,note_on,79,0,120
1,note_on,77,45,0
1,note_on,77,0,120
1,note_on,75,46,0
1,note_on,75,0,120
1,note_on,74,46,0
1,note_on,74,0,120
1,note_on,72,45,0
1,note_on,72,0,120
1,note_on,70,45,0
1,note_on,70,0,120
1,note_on,69,45,0
1,note_on,69,0,120
1,note_on,70,42,0
1,note_on,70,0,120
1,note_on,72,46,0
1,note_on,72,0,120
1,note_on,68,42,0
1,note_on,68,0,120
1,note_on,67,66,0
1,note_on,67,0,90
1,note_on,75,68,150
1,note_on,87,68,0
1,note_on,87,0,480
1,note_on,75,0,0
1,note_on,86,61,0
1,note_on,86,0,120
1,note_on,87,64,0
1,note_on,87,0,120
1,note_on,89,66,0
1,note_on,89,0,120
1,note_on,87,66,0
1,note_on,87,0,120
1,note_on,86,65,0
1,note_on,86,0,120
1,note_on,84,64,0
1,note_on,84,0,120
1,note_on,83,62,0
1,note_on,83,0,120
1,note_on,84,64,0
1,note_on,84,0,120
1,note_on,86,68,0
1,note_on,86,0,120
1,note_on,84,66,0
1,note_on,84,0,120
1,note_on,82,69,0
1,note_on,82,0,120
1,note_on,80,67,0
1,note_on,80,0,120
1,note_on,79,66,0
1,note_on,79,0,120
1,note_on,77,65,0
1,note_on,77,0,120
1,note_on,76,65,0
1,note_on,76,0,120
1,note_on,77,64,0
1,note_on,77,0,120
1,note_on,79,68,0
1,note_on,79,0,120
1,note_on,77,66,0
1,note_on,77,0,120
1,note_on,75,68,0
1,note_on,75,0,120
1,note_on,74,68,0
1,note_on,74,0,120
1,note_on,72,68,0
1,note_on,72,0,120
1,note_on,70,68,0
1,note_on,70,0,120
1,note_on,69,67,0
1,note_on,69,0,120
1,note_on,70,64,0
1,note_on,70,0,120
1,note_on,72,70,0
1,note_on,72,0,120
1,note_on,70,64,0
1,note_on,70,0,120
1,note_on,75,83,0
1,note_on,75,0,120
1,note_on,63,82,120
1,note_on,63,0,480
1,note_on,61,80,0
1,note_on,67,80,0
1,note_on,67,0,120
1,note_on,61,0,0
1,note_on,60,81,120
1,note_on,68,81,0
1,note_on,68,0,120
1,note_on,60,0,0
1,note_on,67,82,120
1,note_on,70,82,0
1,note_on,70,0,120
1,note_on,67,0,0
1,note_on,68,83,120
1,note_on,72,83,0
1,note_on,72,0,120
1,note_on,68,0,0
1,note_on,68,85,120
1,note_on,74,85,0
1,note_on,74,0,120
1,note_on,68,0,0
1,note_on,67,83,120
1,note_on,75,83,0
1,note_on,75,0,120
1,note_on,67,0,0
1,note_on,75,82,120
1,note_on,75,0,480
1,note_on,73,80,0
1,note_on,79,80,0
1,note_on,79,0,120
1,note_on,73,0,0
1,note_on,72,81,120
1,note_on,80,81,0
1,note_on,80,0,120
1,note_on,72,0,0
1,note_on,79,82,120
1,note_on,82,82,0
1,note_on,82,0,120
1,note_on,79,0,0
1,note_on,80,83,120
1,note_on,84,83,0
1,note_on,84,0,120
1,note_on,80,0,0
1,note_on,80,85,120
1,note_on,86,85,0
1,note_on,86,0,120
1,note_on,80,0,0
1,note_on,87,94,120
1,note_on,79,94,0
1,note_on,79,0,960
1,note_on,87,0,0
1,note_on,67,88,0
1,note_on,75,88,0
1,note_on,75,0,960
1,note_on,67,0,0
1,note_on,87,99,0
1,note_on,79,99,0
1,note_on,79,0,960
1,note_on,87,0,0
1,note_on,67,92,0
1,note_on,75,92,0
1,note_on,75,0,960
1,note_on,67,0,0
1,note_on,87,102,0
1,note_on,84,102,0
1,note_on,84,0,960
1,note_on,87,0,0
1,note_on,72,96,0
1,note_on,75,96,0
1,note_on,75,0,960
1,note_on,72,0,0
1,note_on,84,93,0
1,note_on,81,93,0
1,note_on,86,93,0
1,note_on,86,0,960
1,note_on,81,0,0
1,note_on,84,0,0
1,note_on,53,86,0
1,note_on,59,102,0
1,note_on,62,102,0
1,note_on,62,0,960
1,note_on,59,0,0
1,note_on,53,0,0
1,note_on,60,50,0
1,note_on,60,0,720
1,note_on,58,52,0
1,note_on,64,52,0
1,note_on,64,0,90
1,note_on,58,0,0
1,note_on,56,54,150
1,note_on,65,54,0
1,note_on,65,0,90
1,note_on,56,0,0
1,note_on,64,56,150
1,note_on,67,56,0
1,note_on,67,0,90
1,note_on,64,0,0
1,note_on,65,57,150
1,note_on,68,57,0
1,note_on,68,0,90
1,note_on,65,0,0
1,note_on,62,59,150
1,note_on,71,59,0
1,note_on,71,0,90
1,note_on,62,0,0
1,note_on,63,61,150
1,note_on,72,61,0
1,note_on,72,0,90
1,note_on,63,0,0
1,note_on,64,55,150
1,note_on,72,55,0
1,note_on,72,0,480
1,note_on,64,0,0
1,note_on,70,51,0
1,note_on,76,51,0
1,note_on,76,0,90
1,note_on,70,0,0
1,note_on,68,53,150
1,note_on,77,53,0
1,note_on,77,0,90
1,note_on,68,0,0
1,note_on,76,55,150
1,note_on,79,55,0
1,note_on,79,0,90
1,note_on,76,0,0
1,note_on,77,57,150
1,note_on,80,57,0
1,note_on,80,0,90
1,note_on,77,0,0
1,note_on,74,59,150
1,note_on,83,59,0
1,note_on,83,0,90
1,note_on,74,0,0
1,note_on,72,51,150
1,note_on,79,61,0
1,note_on,75,51,0
1,note_on,84,61,0
1,note_on,84,0,480
1,note_on,72,0,0
1,note_on,79,0,0
1,note_on,75,0,0
1,note_on,67,53,0
1,note_on,71,53,0
1,note_on,77,63,0
1,note_on,79,63,0
1,note_on,79,0,480
1,note_on,67,0,0
1,note_on,71,0,0
1,note_on,77,0,0
1,note_on,67,56,0
1,note_on,72,56,0
1,note_on,75,67,0
1,note_on,75,0,480
1,note_on,72,0,0
1,note_on,67,0,0
1,note_on,65,60,0
1,note_on,68,60,0
1,note_on,74,71,0
1,note_on,74,0,480
1,note_on,68,0,0
1,note_on,65,0,0
1,note_on,63,62,0
1,note_on,67,74,0
1,note_on,72,74,0
1,note_on,67,0,480
1,note_on,66,74,0
1,note_on,66,0,480
1,note_on,69,77,0
1,note_on,69,0,480
1,note_on,72,0,0
1,note_on,63,0,0
1,note_on,62,62,0
1,note_on,65,62,0
1,note_on,71,74,0
1,note_on,71,0,480
1,note_on,65,0,0
1,note_on,62,0,0
1,note_on,60,67,0
1,note_on,63,67,0
1,note_on,72,79,0
1,note_on,72,0,90
1,note_on,63,0,0
1,note_on,60,0,0
1,note_on,60,67,150
1,note_on,60,0,480
1,note_on,58,52,0
1,note_on,64,52,0
1,note_on,64,0,90
1,note_on,58,0,0
1,note_on,56,54,150
1,note_on,65,54,0
1,note_on,65,0,90
1,note_on,56,0,0
1,note_on,64,55,150
1,note_on,67,55,0
1,note_on,67,0,90
1,note_on,64,0,0
1,note_on,65,57,150
1,note_on,68,57,0
1,note_on,68,0,90
1,note_on,65,0,0
1,note_on,62,59,150
1,note_on,71,59,0
1,note_on,71,0,90
1,note_on,62,0,0
1,note_on,63,61,150
1,note_on,72,61,0
1,note_on,72,0,90
1,note_on,63,0,0
1,note_on,64,55,150
1,note_on,72,55,0
1,note_on,72,0,480
1,note_on,64,0,0
1,note_on,70,51,0
1,note_on,76,51,0
1,note_on,76,0,90
1,note_on,70,0,0
1,note_on,68,53,150
1,note_on,77,53,0
1,note_on,77,0,90
1,note_on,68,0,0
1,note_on,76,55,150
1,note_on,79,55,0
1,note_on,79,0,90
1,note_on,76,0,0
1,note_on,77,57,150
1,note_on,80,57,0
1,note_on,80,0,90
1,note_on,77,0,0
1,note_on,74,59,150
1,note_on,83,59,0
1,note_on,83,0,90
1,note_on,74,0,0
1,note_on,72,51,150
1,note_on,79,61,0
1,note_on,75,51,0
1,note_on,84,61,0
1,note_on,84,0,480
1,note_on,72,0,0
1,note_on,79,0,0
1,note_on,75,0,0
1,note_on,67,53,0
1,note_on,71,53,0
1,note_on,77,63,0
1,note_on,79,63,0
1,note_on,79,0,480
1,note_on,67,0,0
1,note_on,71,0,0
1,note_on,77,0,0
1,note_on,67,56,0
1,note_on,72,56,0
1,note_on,75,67,0
1,note_on,75,0,480
1,note_on,72,0,0
1,note_on,67,0,0
1,note_on,65,60,0
1,note_on,68,60,0
1,note_on,74,71,0
1,note_on,74,0,480
1,note_on,68,0,0
1,note_on,65,0,0
1,note_on,63,62,0
1,note_on,67,74,0
1,note_on,72,74,0
1,note_on,67,0,480
1,note_on,66,74,0
1,note_on,66,0,480
1,note_on,69,77,0
1,note_on,69,0,960
1,note_on,72,0,0
1,note_on,63,0,0
1,note_on,62,55,0
1,note_on,67,55,0
1,note_on,71,55,0
1,note_on,71,0,240
1,note_on,67,0,0
1,note_on,62,0,0
1,note_on,67,80,240
1,note_on,79,80,0
1,note_on,79,0,720
1,note_on,67,0,0
1,note_on,67,80,240
1,note_on,79,80,0
1,note_on,79,0,600
1,note_on,67,0,0
1,note_on,77,70,0
1,note_on,77,0,120
1,note_on,74,69,0
1,note_on,74,0,120
1,note_on,71,69,0
1,note_on,71,0,120
1,note_on,67,68,0
1,note_on,67,0,120
1,note_on,65,67,0
1,note_on,65,0,120
1,note_on,62,66,0
1,note_on,62,0,120
1,note_on,59,65,0
1,note_on,59,0,120
1,note_on,60,65,0
1,note_on,60,0,120
1,note_on,63,64,0
1,note_on,63,0,120
1,note_on,60,65,0
1,note_on,60,0,120
1,note_on,55,65,0
1,note_on,55,0,120
1,note_on,54,64,0
1,note_on,54,0,120
1,note_on,60,64,0
1,note_on,60,0,120
1,note_on,56,63,0
1,note_on,56,0,120
1,note_on,54,65,0
1,note_on,54,0,120
1,note_on,55,67,0
1,note_on,55,0,240
1,note_on,67,80,240
1,note_on,79,80,0
1,note_on,79,0,720
1,note_on,67,0,0
1,note_on,67,80,240
1,note_on,79,80,0
1,note_on,79,0,600
1,note_on,67,0,0
1,note_on,77,72,0
1,note_on,77,0,120
1,note_on,74,71,0
1,note_on,74,0,120
1,note_on,71,70,0
1,note_on,71,0,120
1,note_on,67,69,0
1,note_on,67,0,120
1,note_on,65,68,0
1,note_on,65,0,120
1,note_on,62,67,0
1,note_on,62,0,120
1,note_on,59,66,0
1,note_on,59,0,120
1,note_on,60,65,0
1,note_on,60,0,120
1,note_on,63,64,0
1,note_on,63,0,120
1,note_on,60,64,0
1,note_on,60,0,120
1,note_on,55,67,0
1,note_on,55,0,120
1,note_on,54,66,0
1,note_on,54,0,120
1,note_on,60,64,0
1,note_on,60,0,120
1,note_on,56,62,0
1,note_on,56,0,120
1,note_on,54,60,0
1,note_on,54,0,120
1,note_on,55,67,0
1,note_on,55,0,240
1,note_on,66,67,0
1,note_on,66,0,90
1,note_on,67,69,150
1,note_on,67,0,90
1,note_on,66,71,150
1,note_on,72,71,0
1,note_on,72,0,90
1,note_on,66,0,0
1,note_on,67,73,150
1,note_on,71,73,0
1,note_on,71,0,90
1,note_on,67,0,0
1,note_on,72,75,150
1,note_on,78,75,0
1,note_on,78,0,90
1,note_on,72,0,0
1,note_on,71,77,150
1,note_on,79,77,0
1,note_on,79,0,90
1,note_on,71,0,0
1,note_on,84,79,150
1,note_on,78,79,0
1,note_on,78,0,90
1,note_on,84,0,0
1,note_on,83,81,150
1,note_on,79,81,0
1,note_on,79,0,120
1,note_on,83,0,0
1,note_on,58,81,840
1,note_on,61,81,0
1,note_on,63,84,0
1,note_on,61,0,960
1,note_on,58,0,0
1,note_on,60,67,0
1,note_on,60,0,240
1,note_on,63,0,0
1,note_on,73,67,0
1,note_on,73,0,90
1,note_on,72,69,150
1,note_on,72,0,90
1,note_on,73,71,150
1,note_on,79,71,0
1,note_on,79,0,90
1,note_on,73,0,0
1,note_on,72,73,150
1,note_on,80,73,0
1,note_on,80,0,90
1,note_on,72,0,0
1,note_on,79,75,150
1,note_on,85,75,0
1,note_on,85,0,90
1,note_on,79,0,0
1,note_on,80,77,150
1,note_on,84,77,0
1,note_on,84,0,90
1,note_on,80,0,0
1,note_on,85,79,150
1,note_on,79,79,0
1,note_on,79,0,90
1,note_on,85,0,0
1,note_on,84,81,150
1,note_on,80,81,0
1,note_on,80,0,120
1,note_on,84,0,0
1,note_on,60,81,840
1,note_on,63,81,0
1,note_on,66,84,0
1,note_on,66,0,960
1,note_on,63,0,0
1,note_on,60,0,0
1,note_on,62,67,0
1,note_on,65,67,0
1,note_on,65,0,240
1,note_on,62,0,0
1,note_on,69,62,0
1,note_on,75,67,0
1,note_on,75,0,90
1,note_on,69,0,0
1,note_on,70,65,150
1,note_on,74,69,0
1,note_on,74,0,90
1,note_on,70,0,0
1,note_on,75,71,150
1,note_on,81,71,0
1,note_on,81,0,90
1,note_on,75,0,0
1,note_on,74,73,150
1,note_on,82,73,0
1,note_on,82,0,90
1,note_on,74,0,0
1,note_on,81,75,150
1,note_on,87,75,0
1,note_on,87,0,90
1,note_on,81,0,0
1,note_on,82,77,150
1,note_on,86,77,0
1,note_on,86,0,90
1,note_on,82,0,0
1,note_on,87,79,150
1,note_on,81,79,0
1,note_on,81,0,90
1,note_on,87,0,0
1,note_on,86,81,150
1,note_on,82,81,0
1,note_on,82,0,120
1,note_on,86,0,0
1,note_on,75,81,360
1,note_on,81,81,0
1,note_on,81,0,480
1,note_on,75,0,0
1,note_on,74,81,0
1,note_on,82,81,0
1,note_on,82,0,240
1,note_on,74,0,0
1,note_on,69,81,240
1,note_on,75,81,0
1,note_on,75,0,480
1,note_on,69,0,0
1,note_on,70,81,0
1,note_on,74,81,0
1,note_on,74,0,240
1,note_on,70,0,0
1,note_on,63,81,240
1,note_on,69,81,0
1,note_on,69,0,480
1,note_on,63,0,0
1,note_on,62,81,0
1,note_on,70,81,0
1,note_on,70,0,240
1,note_on,62,0,0
1,note_on,57,81,240
1,note_on,63,81,0
1,note_on,63,0,480
1,note_on,57,0,0
1,note_on,58,81,0
1,note_on,62,81,0
1,note_on,62,0,240
1,note_on,58,0,0
1,note_on,57,50,0
1,note_on,57,0,240
1,note_on,58,59,0
1,note_on,58,0,240
1,note_on,57,56,0
1,note_on,57,0,240
1,note_on,58,57,0
1,note_on,58,0,240
1,note_on,57,49,0
1,note_on,57,0,240
1,note_on,58,57,0
1,note_on,58,0,240
1,note_on,57,51,0
1,note_on,57,0,240
1,note_on,46,55,240
1,note_on,46,0,120
1,note_on,51,58,120
1,note_on,51,0,120
1,note_on,53,61,120
1,note_on,53,0,120
1,note_on,54,64,120
1,note_on,54,0,120
1,note_on,70,62,120
1,note_on,70,0,120
1,note_on,75,64,120
1,note_on,75,0,120
1,note_on,77,66,120
1,note_on,77,0,120
1,note_on,70,65,60
1,note_on,70,0,60
1,note_on,78,75,0
1,note_on,78,0,720
1,note_on,75,63,0
1,note_on,70,60,180
1,note_on,70,0,60
1,note_on,75,0,0
1,note_on,78,71,0
1,note_on,78,0,720
1,note_on,75,58,0
1,note_on,75,0,240
1,note_on,74,60,0
1,note_on,74,0,240
1,note_on,46,57,0
1,note_on,46,0,120
1,note_on,53,60,120
1,note_on,53,0,120
1,note_on,54,63,120
1,note_on,54,0,120
1,note_on,56,66,120
1,note_on,56,0,120
1,note_on,70,59,120
1,note_on,70,0,240
1,note_on,80,62,0
1,note_on,80,0,240
1,note_on,78,65,0
1,note_on,78,0,240
1,note_on,78,60,0
1,note_on,78,0,60
1,note_on,80,60,0
1,note_on,80,0,60
1,note_on,78,67,0
1,note_on,78,0,120
1,note_on,77,60,0
1,note_on,77,0,240
1,note_on,77,60,0
1,note_on,77,0,60
1,note_on,78,60,0
1,note_on,78,0,60
1,note_on,77,67,0
1,note_on,77,0,120
1,note_on,75,60,0
1,note_on,75,0,240
1,note_on,75,60,0
1,note_on,75,0,60
1,note_on,77,60,0
1,note_on,77,0,60
1,note_on,75,66,0
1,note_on,75,0,120
1,note_on,74,60,0
1,note_on,74,0,240
1,note_on,72,60,0
1,note_on,72,0,120
1,note_on,74,60,120
1,note_on,74,0,120
1,note_on,75,60,120
1,note_on,75,0,240
1,note_on,46,55,0
1,note_on,46,0,120
1,note_on,51,58,120
1,note_on,51,0,120
1,note_on,53,61,120
1,note_on,53,0,120
1,note_on,54,64,120
1,note_on,54,0,120
1,note_on,70,62,120
1,note_on,70,0,120
1,note_on,75,64,120
1,note_on,75,0,120
1,note_on,77,66,120
1,note_on,77,0,120
1,note_on,70,65,60
1,note_on,70,0,60
1,note_on,78,75,0
1,note_on,78,0,720
1,note_on,75,63,0
1,note_on,70,60,180
1,note_on,70,0,60
1,note_on,75,0,0
1,note_on,78,71,0
1,note_on,78,0,720
1,note_on,75,58,0
1,note_on,75,0,240
1,note_on,72,60,0
1,note_on,72,0,240
1,note_on,44,57,0
1,note_on,44,0,120
1,note_on,51,60,120
1,note_on,51,0,120
1,note_on,53,63,120
1,note_on,53,0,120
1,note_on,54,66,120
1,note_on,54,0,120
1,note_on,68,59,120
1,note_on,68,0,240
1,note_on,78,62,0
1,note_on,78,0,240
1,note_on,77,65,0
1,note_on,77,0,240
1,note_on,77,60,0
1,note_on,77,0,60
1,note_on,78,60,0
1,note_on,78,0,60
1,note_on,77,67,0
1,note_on,77,0,120
1,note_on,75,60,0
1,note_on,75,0,240
1,note_on,75,60,0
1,note_on,75,0,60
1,note_on,77,60,0
1,note_on,77,0,60
1,note_on,75,67,0
1,note_on,75,0,120
1,note_on,73,60,0
1,note_on,73,0,240
1,note_on,73,60,0
1,note_on,73,0,60
1,note_on,75,60,0
1,note_on,75,0,60
1,note_on,73,66,0
1,note_on,73,0,120
1,note_on,72,60,0
1,note_on,72,0,240
1,note_on,70,60,0
1,note_on,70,0,120
1,note_on,72,60,120
1,note_on,72,0,120
1,note_on,73,60,120
1,note_on,73,0,240
1,note_on,44,55,0
1,note_on,44,0,120
1,note_on,49,58,120
1,note_on,49,0,120
1,note_on,51,61,120
1,note_on,51,0,120
1,note_on,53,64,120
1,note_on,53,0,120
1,note_on,68,62,120
1,note_on,68,0,120
1,note_on,73,64,120
1,note_on,73,0,120
1,note_on,75,66,120
1,note_on,75,0,120
1,note_on,68,65,60
1,note_on,68,0,60
1,note_on,77,75,0
1,note_on,77,0,720
1,note_on,73,63,0
1,note_on,68,60,180
1,note_on,68,0,60
1,note_on,73,0,0
1,note_on,77,71,0
1,note_on,77,0,720
1,note_on,73,58,0
1,note_on,73,0,240
1,note_on,72,60,0
1,note_on,72,0,240
1,note_on,44,57,0
1,note_on,44,0,120
1,note_on,51,60,120
1,note_on,51,0,120
1,note_on,53,63,120
1,note_on,53,0,120
1,note_on,54,66,120
1,note_on,54,0,120
1,note_on,68,59,120
1,note_on,68,0,240
1,note_on,78,62,0
1,note_on,78,0,240
1,note_on,77,65,0
1,note_on,77,0,240
1,note_on,77,60,0
1,note_on,77,0,60
1,note_on,78,60,0
1,note_on,78,0,60
1,note_on,77,67,0
1,note_on,77,0,120
1,note_on,75,60,0
1,note_on,75,0,240
1,note_on,75,60,0
1,note_on,75,0,60
1,note_on,77,60,0
1,note_on,77,0,60
1,note_on,75,67,0
1,note_on,75,0,120
1,note_on,73,60,0
1,note_on,73,0,240
1,note_on,73,60,0
1,note_on,73,0,60
1,note_on,75,60,0
1,note_on,75,0,60
1,note_on,73,66,0
1,note_on,73,0,120
1,note_on,72,60,0
1,note_on,72,0,240
1,note_on,70,60,0
1,note_on,70,0,120
1,note_on,72,57,120
1,note_on,72,0,120
1,note_on,73,60,120
1,note_on,73,0,240
1,note_on,49,73,0
1,note_on,49,0,240
1,note_on,56,77,0
1,note_on,56,0,240
1,note_on,47,73,0
1,note_on,47,0,120
1,note_on,46,77,120
1,note_on,46,0,120
1,note_on,70,59,120
1,note_on,70,0,240
1,note_on,80,62,0
1,note_on,80,0,240
1,note_on,78,65,0
1,note_on,78,0,240
1,note_on,78,60,0
1,note_on,78,0,60
1,note_on,80,60,0
1,note_on,80,0,60
1,note_on,78,67,0
1,note_on,78,0,120
1,note_on,77,60,0
1,note_on,77,0,240
1,note_on,77,60,0
1,note_on,77,0,60
1,note_on,78,60,0
1,note_on,78,0,60
1,note_on,77,67,0
1,note_on,77,0,120
1,note_on,75,60,0
1,note_on,75,0,240
1,note_on,75,60,0
1,note_on,75,0,60
1,note_on,77,60,0
1,note_on,77,0,60
1,note_on,75,66,0
1,note_on,75,0,120
1,note_on,74,60,0
1,note_on,74,0,240
1,note_on,72,60,0
1,note_on,72,0,120
1,note_on,74,57,120
1,note_on,74,0,120
1,note_on,75,60,120
1,note_on,75,0,240
1,note_on,51,73,0
1,note_on,51,0,240
1,note_on,58,77,0
1,note_on,58,0,240
1,note_on,49,73,0
1,note_on,49,0,120
1,note_on,48,77,120
1,note_on,48,0,120
1,note_on,72,59,120
1,note_on,72,0,240
1,note_on,82,62,0
1,note_on,82,0,240
1,note_on,80,65,0
1,note_on,80,0,240
1,note_on,80,60,0
1,note_on,80,0,60
1,note_on,82,60,0
1,note_on,82,0,60
1,note_on,80,67,0
1,note_on,80,0,120
1,note_on,79,60,0
1,note_on,79,0,240
1,note_on,79,60,0
1,note_on,79,0,60
1,note_on,80,60,0
1,note_on,80,0,60
1,note_on,79,67,0
1,note_on,79,0,120
1,note_on,77,60,0
1,note_on,77,0,240
1,note_on,77,60,0
1,note_on,77,0,60
1,note_on,79,60,0
1,note_on,79,0,60
1,note_on,77,66,0
1,note_on,77,0,120
1,note_on,76,60,0
1,note_on,76,0,240
1,note_on,74,60,0
1,note_on,74,0,240
1,note_on,76,57,0
1,note_on,76,0,240
1,note_on,79,60,0
1,note_on,79,0,60
1,note_on,80,60,0
1,note_on,80,0,60
1,note_on,79,67,0
1,note_on,79,0,120
1,note_on,77,60,0
1,note_on,77,0,240
1,note_on,77,60,0
1,note_on,77,0,60
1,note_on,79,60,0
1,note_on,79,0,60
1,note_on,77,67,0
1,note_on,77,0,120
1,note_on,75,60,0
1,note_on,75,0,240
1,note_on,75,60,0
1,note_on,75,0,60
1,note_on,77,60,0
1,note_on,77,0,60
1,note_on,75,66,0
1,note_on,75,0,120
1,note_on,74,60,0
1,note_on,74,0,240
1,note_on,72,60,0
1,note_on,72,0,240
1,note_on,74,57,0
1,note_on,74,0,240
1,note_on,77,60,0
1,note_on,77,0,60
1,note_on,79,60,0
1,note_on,79,0,60
1,note_on,77,67,0
1,note_on,77,0,120
1,note_on,75,59,0
1,note_on,75,0,240
1,note_on,75,58,0
1,note_on,75,0,60
1,note_on,77,58,0
1,note_on,77,0,60
1,note_on,75,64,0
1,note_on,75,0,120
1,note_on,74,57,0
1,note_on,74,0,240
1,note_on,74,56,0
1,note_on,74,0,60
1,note_on,75,55,0
1,note_on,75,0,60
1,note_on,74,61,0
1,note_on,74,0,120
1,note_on,72,55,0
1,note_on,72,0,240
1,note_on,72,54,0
1,note_on,72,0,60
1,note_on,74,54,0
1,note_on,74,0,60
1,note_on,72,59,0
1,note_on,72,0,120
1,note_on,71,53,0
1,note_on,71,0,240
1,note_on,72,52,0
1,note_on,72,0,60
1,note_on,74,52,0
1,note_on,74,0,60
1,note_on,72,56,0
1,note_on,72,0,120
1,note_on,70,51,0
1,note_on,70,0,240
1,note_on,70,50,0
1,note_on,70,0,90
1,note_on,70,46,150
1,note_on,70,0,90
1,note_on,72,37,150
1,note_on,72,0,60
1,note_on,74,37,0
1,note_on,74,0,60
1,note_on,72,41,0
1,note_on,72,0,120
1,note_on,70,37,0
1,note_on,70,0,240
1,note_on,70,37,0
1,note_on,70,0,90
1,note_on,70,35,150
1,note_on,70,0,90
1,note_on,63,25,270
1,note_on,63,0,120
1,note_on,67,29,0
1,note_on,67,0,120
1,note_on,63,29,0
1,note_on,63,0,120
1,note_on,75,45,0
1,note_on,63,28,120
1,note_on,63,0,120
1,note_on,67,30,0
1,note_on,67,0,120
1,note_on,63,28,0
1,note_on,63,0,120
1,note_on,67,31,0
1,note_on,67,0,120
1,note_on,63,30,0
1,note_on,63,0,120
1,note_on,67,32,0
1,note_on,67,0,120
1,note_on,63,29,0
1,note_on,63,0,120
1,note_on,75,0,0
1,note_on,75,50,0
1,note_on,63,30,120
1,note_on,63,0,120
1,note_on,67,33,0
1,note_on,67,0,120
1,note_on,63,32,0
1,note_on,63,0,120
1,note_on,75,0,0
1,note_on,63,32,120
1,note_on,63,0,120
1,note_on,67,36,0
1,note_on,67,0,120
1,note_on,63,35,0
1,note_on,63,0,120
1,note_on,75,54,0
1,note_on,63,33,120
1,note_on,63,0,120
1,note_on,67,35,0
1,note_on,67,0,120
1,note_on,63,32,0
1,note_on,63,0,120
1,note_on,67,35,0
1,note_on,67,0,120
1,note_on,63,33,0
1,note_on,63,0,120
1,note_on,67,35,0
1,note_on,67,0,120
1,note_on,63,32,0
1,note_on,63,0,120
1,note_on,75,0,0
1,note_on,75,53,0
1,note_on,63,32,120
1,note_on,63,0,120
1,note_on,67,35,0
1,note_on,67,0,120
1,note_on,63,33,0
1,note_on,63,0,120
1,note_on,75,0,0
1,note_on,75,66,0
1,note_on,75,0,90
1,note_on,63,41,30
1,note_on,63,0,120
1,note_on,68,45,0
1,note_on,68,0,120
1,note_on,63,42,0
1,note_on,63,0,120
1,note_on,76,67,0
1,note_on,76,0,90
1,note_on,64,43,30
1,note_on,64,0,120
1,note_on,72,47,0
1,note_on,72,0,120
1,note_on,64,43,0
1,note_on,64,0,120
1,note_on,77,71,0
1,note_on,77,0,90
1,note_on,65,45,30
1,note_on,65,0,120
1,note_on,72,50,0
1,note_on,72,0,120
1,note_on,65,45,0
1,note_on,65,0,120
1,note_on,79,72,0
1,note_on,79,0,90
1,note_on,67,47,30
1,note_on,67,0,120
1,note_on,72,50,0
1,note_on,72,0,120
1,note_on,67,47,0
1,note_on,67,0,120
1,note_on,80,74,0
1,note_on,80,0,90
1,note_on,68,49,30
1,note_on,68,0,120
1,note_on,72,54,0
1,note_on,72,0,120
1,note_on,68,49,0
1,note_on,68,0,120
1,note_on,81,80,0
1,note_on,81,0,90
1,note_on,69,50,30
1,note_on,69,0,120
1,note_on,72,55,0
1,note_on,72,0,120
1,note_on,69,51,0
1,note_on,69,0,120
1,note_on,82,84,0
1,note_on,82,0,90
1,note_on,70,51,30
1,note_on,70,0,120
1,note_on,77,58,0
1,note_on,77,0,120
1,note_on,70,53,0
1,note_on,70,0,120
1,note_on,84,85,0
1,note_on,84,0,90
1,note_on,72,53,30
1,note_on,72,0,120
1,note_on,77,58,0
1,note_on,77,0,120
1,note_on,72,54,0
1,note_on,72,0,120
1,note_on,85,85,0
1,note_on,85,0,90
1,note_on,73,55,30
1,note_on,73,0,120
1,note_on,77,63,0
1,note_on,77,0,120
1,note_on,73,55,0
1,note_on,73,0,120
1,note_on,86,90,0
1,note_on,86,0,90
1,note_on,74,57,30
1,note_on,74,0,120
1,note_on,77,62,0
1,note_on,77,0,120
1,note_on,74,57,0
1,note_on,74,0,120
1,note_on,87,89,0
1,note_on,87,0,90
1,note_on,75,59,30
1,note_on,75,0,120
1,note_on,82,64,0
1,note_on,82,0,120
1,note_on,75,59,0
1,note_on,75,0,120
1,note_on,83,91,0
1,note_on,83,0,90
1,note_on,71,61,30
1,note_on,71,0,120
1,note_on,75,67,0
1,note_on,75,0,120
1,note_on,71,61,0
1,note_on,71,0,120
1,note_on,72,78,120
1,note_on,72,0,120
1,note_on,75,84,0
1,note_on,75,0,120
1,note_on,72,78,0
1,note_on,72,0,120
1,note_on,84,88,0
1,note_on,84,0,90
1,note_on,72,78,30
1,note_on,72,0,120
1,note_on,75,84,0
1,note_on,75,0,120
1,note_on,72,76,0
1,note_on,72,0,120
1,note_on,65,78,120
1,note_on,65,0,120
1,note_on,68,84,0
1,note_on,68,0,120
1,note_on,65,78,0
1,note_on,65,0,120
1,note_on,74,88,0
1,note_on,74,0,90
1,note_on,65,78,30
1,note_on,65,0,120
1,note_on,68,84,0
1,note_on,68,0,120
1,note_on,65,76,0
1,note_on,65,0,120
1,note_on,63,32,120
1,note_on,63,0,120
1,note_on,67,36,0
1,note_on,67,0,120
1,note_on,63,35,0
1,note_on,63,0,120
1,note_on,75,54,0
1,note_on,63,33,120
1,note_on,63,0,120
1,note_on,67,35,0
1,note_on,67,0,120
1,note_on,63,32,0
1,note_on,63,0,120
1,note_on,67,35,0
1,note_on,67,0,120
1,note_on,63,33,0
1,note_on,63,0,120
1,note_on,67,35,0
1,note_on,67,0,120
1,note_on,63,32,0
1,note_on,63,0,120
1,note_on,75,0,0
1,note_on,75,53,0
1,note_on,63,32,120
1,note_on,63,0,120
1,note_on,67,35,0
1,note_on,67,0,120
1,note_on,63,33,0
1,note_on,63,0,120
1,note_on,75,0,0
1,note_on,63,32,120
1,note_on,63,0,120
1,note_on,67,36,0
1,note_on,67,0,120
1,note_on,63,35,0
1,note_on,63,0,120
1,note_on,75,54,0
1,note_on,63,33,120
1,note_on,63,0,120
1,note_on,67,35,0
1,note_on,67,0,120
1,note_on,63,32,0
1,note_on,63,0,120
1,note_on,67,35,0
1,note_on,67,0,120
1,note_on,63,33,0
1,note_on,63,0,120
1,note_on,67,35,0
1,note_on,67,0,120
1,note_on,63,32,0
1,note_on,63,0,120
1,note_on,75,0,0
1,note_on,75,53,0
1,note_on,63,32,120
1,note_on,63,0,120
1,note_on,67,35,0
1,note_on,67,0,120
1,note_on,63,33,0
1,note_on,63,0,120
1,note_on,75,0,0
1,note_on,75,66,0
1,note_on,75,0,90
1,note_on,63,41,30
1,note_on,63,0,120
1,note_on,68,45,0
1,note_on,68,0,120
1,note_on,63,42,0
1,note_on,63,0,120
1,note_on,76,67,0
1,note_on,76,0,90
1,note_on,64,43,30
1,note_on,64,0,120
1,note_on,72,47,0
1,note_on,72,0,120
1,note_on,64,43,0
1,note_on,64,0,120
1,note_on,77,71,0
1,note_on,77,0,90
1,note_on,65,45,30
1,note_on,65,0,120
1,note_on,72,50,0
1,note_on,72,0,120
1,note_on,65,45,0
1,note_on,65,0,120
1,note_on,79,72,0
1,note_on,79,0,90
1,note_on,67,47,30
1,note_on,67,0,120
1,note_on,72,50,0
1,note_on,72,0,120
1,note_on,67,47,0
1,note_on,67,0,120
1,note_on,80,74,0
1,note_on,80,0,90
1,note_on,68,49,30
1,note_on,68,0,120
1,note_on,72,54,0
1,note_on,72,0,120
1,note_on,68,49,0
1,note_on,68,0,120
1,note_on,81,80,0
1,note_on,81,0,90
1,note_on,69,50,30
1,note_on,69,0,120
1,note_on,72,55,0
1,note_on,72,0,120
1,note_on,69,51,0
1,note_on,69,0,120
1,note_on,82,84,0
1,note_on,82,0,90
1,note_on,70,51,30
1,note_on,70,0,120
1,note_on,77,58,0
1,note_on,77,0,120
1,note_on,70,53,0
1,note_on,70,0,120
1,note_on,84,85,0
1,note_on,84,0,90
1,note_on,72,53,30
1,note_on,72,0,120
1,note_on,77,58,0
1,note_on,77,0,120
1,note_on,72,54,0
1,note_on,72,0,120
1,note_on,85,85,0
1,note_on,85,0,90
1,note_on,73,55,30
1,note_on,73,0,120
1,note_on,77,63,0
1,note_on,77,0,120
1,note_on,73,55,0
1,note_on,73,0,120
1,note_on,86,90,0
1,note_on,86,0,90
1,note_on,74,57,30
1,note_on,74,0,120
1,note_on,77,62,0
1,note_on,77,0,120
1,note_on,74,57,0
1,note_on,74,0,120
1,note_on,87,89,0
1,note_on,87,0,90
1,note_on,75,59,30
1,note_on,75,0,120
1,note_on,82,64,0
1,note_on,82,0,120
1,note_on,75,59,0
1,note_on,75,0,120
1,note_on,88,91,0
1,note_on,88,0,90
1,note_on,76,61,30
1,note_on,76,0,120
1,note_on,82,67,0
1,note_on,82,0,120
1,note_on,76,61,0
1,note_on,76,0,120
1,note_on,80,78,120
1,note_on,80,0,120
1,note_on,84,84,0
1,note_on,84,0,120
1,note_on,80,78,0
1,note_on,80,0,120
1,note_on,89,88,0
1,note_on,89,0,90
1,note_on,80,78,30
1,note_on,80,0,120
1,note_on,84,84,0
1,note_on,84,0,120
1,note_on,80,76,0
1,note_on,80,0,120
1,note_on,77,78,120
1,note_on,77,0,120
1,note_on,80,84,0
1,note_on,80,0,120
1,note_on,77,78,0
1,note_on,77,0,120
1,note_on,86,88,0
1,note_on,86,0,90
1,note_on,77,78,30
1,note_on,77,0,120
1,note_on,80,84,0
1,note_on,80,0,120
1,note_on,77,76,0
1,note_on,77,0,120
1,note_on,79,81,0
1,note_on,79,0,90
1,note_on,87,64,150
1,note_on,87,0,480
1,note_on,86,46,0
1,note_on,86,0,120
1,note_on,87,48,0
1,note_on,87,0,120
1,note_on,89,49,0
1,note_on,89,0,120
1,note_on,87,49,0
1,note_on,87,0,120
1,note_on,86,48,0
1,note_on,86,0,120
1,note_on,84,47,0
1,note_on,84,0,120
1,note_on,83,45,0
1,note_on,83,0,120
1,note_on,84,46,0
1,note_on,84,0,120
1,note_on,86,49,0
1,note_on,86,0,120
1,note_on,84,47,0
1,note_on,84,0,120
1,note_on,82,49,0
1,note_on,82,0,120
1,note_on,80,47,0
1,note_on,80,0,120
1,note_on,79,46,0
1,note_on,79,0,120
1,note_on,77,45,0
1,note_on,77,0,120
1,note_on,76,45,0
1,note_on,76,0,120
1,note_on,77,45,0
1,note_on,77,0,120
1,note_on,79,47,0
1,note_on,79,0,120
1,note_on,77,45,0
1,note_on,77,0,120
1,note_on,75,46,0
1,note_on,75,0,120
1,note_on,74,46,0
1,note_on,74,0,120
1,note_on,72,45,0
1,note_on,72,0,120
1,note_on,70,45,0
1,note_on,70,0,120
1,note_on,69,45,0
1,note_on,69,0,120
1,note_on,70,42,0
1,note_on,70,0,120
1,note_on,72,46,0
1,note_on,72,0,120
1,note_on,68,42,0
1,note_on,68,0,120
1,note_on,67,66,0
1,note_on,67,0,90
1,note_on,75,68,150
1,note_on,87,68,0
1,note_on,87,0,480
1,note_on,75,0,0
1,note_on,86,61,0
1,note_on,86,0,120
1,note_on,87,64,0
1,note_on,87,0,120
1,note_on,89,66,0
1,note_on,89,0,120
1,note_on,87,66,0
1,note_on,87,0,120
1,note_on,86,65,0
1,note_on,86,0,120
1,note_on,84,64,0
1,note_on,84,0,120
1,note_on,83,62,0
1,note_on,83,0,120
1,note_on,84,64,0
1,note_on,84,0,120
1,note_on,86,68,0
1,note_on,86,0,120
1,note_on,84,66,0
1,note_on,84,0,120
1,note_on,82,69,0
1,note_on,82,0,120
1,note_on,80,67,0
1,note_on,80,0,120
1,note_on,79,66,0
1,note_on,79,0,120
1,note_on,77,65,0
1,note_on,77,0,120
1,note_on,76,65,0
1,note_on,76,0,120
1,note_on,77,64,0
1,note_on,77,0,120
1,note_on,79,68,0
1,note_on,79,0,120
1,note_on,77,66,0
1,note_on,77,0,120
1,note_on,75,68,0
1,note_on,75,0,120
1,note_on,74,68,0
1,note_on,74,0,120
1,note_on,72,68,0
1,note_on,72,0,120
1,note_on,70,68,0
1,note_on,70,0,120
1,note_on,69,67,0
1,note_on,69,0,120
1,note_on,70,64,0
1,note_on,70,0,120
1,note_on,72,70,0
1,note_on,72,0,120
1,note_on,70,64,0
1,note_on,70,0,120
1,note_on,75,83,0
1,note_on,75,0,120
1,note_on,63,82,120
1,note_on,63,0,480
1,note_on,61,80,0
1,note_on,67,80,0
1,note_on,67,0,120
1,note_on,61,0,0
1,note_on,60,81,120
1,note_on,68,81,0
1,note_on,68,0,120
1,note_on,60,0,0
1,note_on,67,82,120
1,note_on,70,82,0
1,note_on,70,0,120
1,note_on,67,0,0
1,note_on,68,83,120
1,note_on,72,83,0
1,note_on,72,0,120
1,note_on,68,0,0
1,note_on,68,85,120
1,note_on,74,85,0
1,note_on,74,0,120
1,note_on,68,0,0
1,note_on,67,83,120
1,note_on,75,83,0
1,note_on,75,0,120
1,note_on,67,0,0
1,note_on,75,82,120
1,note_on,75,0,480
1,note_on,73,80,0
1,note_on,79,80,0
1,note_on,79,0,120
1,note_on,73,0,0
1,note_on,72,81,120
1,note_on,80,81,0
1,note_on,80,0,120
1,note_on,72,0,0
1,note_on,79,82,120
1,note_on,82,82,0
1,note_on,82,0,120
1,note_on,79,0,0
1,note_on,80,83,120
1,note_on,84,83,0
1,note_on,84,0,120
1,note_on,80,0,0
1,note_on,80,85,120
1,note_on,86,85,0
1,note_on,86,0,120
1,note_on,80,0,0
1,note_on,87,94,120
1,note_on,79,94,0
1,note_on,79,0,960
1,note_on,87,0,0
1,note_on,67,88,0
1,note_on,75,88,0
1,note_on,75,0,960
1,note_on,67,0,0
1,note_on,87,99,0
1,note_on,79,99,0
1,note_on,79,0,960
1,note_on,87,0,0
1,note_on,67,92,0
1,note_on,75,92,0
1,note_on,75,0,960
1,note_on,67,0,0
1,note_on,87,102,0
1,note_on,84,102,0
1,note_on,84,0,960
1,note_on,87,0,0
1,note_on,72,96,0
1,note_on,75,96,0
1,note_on,75,0,960
1,note_on,72,0,0
1,note_on,84,93,0
1,note_on,81,93,0
1,note_on,86,93,0
1,note_on,86,0,960
1,note_on,81,0,0
1,note_on,84,0,0
1,note_on,57,86,0
1,note_on,60,102,0
1,note_on,62,102,0
1,note_on,62,0,960
1,note_on,60,0,0
1,note_on,57,0,0
1,note_on,55,87,0
1,note_on,58,87,0
1,note_on,62,87,0
1,note_on,67,102,0
1,note_on,67,0,1320
1,note_on,55,0,0
1,note_on,58,0,0
1,note_on,62,0,0
1,note_on,62,44,0
1,note_on,67,51,0
1,note_on,67,0,114
1,note_on,62,0,0
1,note_on,62,46,6
1,note_on,66,46,0
1,note_on,69,55,0
1,note_on,69,0,360
1,note_on,66,0,0
1,note_on,62,0,0
1,note_on,62,42,0
1,note_on,67,50,0
1,note_on,70,50,0
1,note_on,70,0,114
1,note_on,67,0,0
1,note_on,62,0,0
1,note_on,64,46,6
1,note_on,67,55,0
1,note_on,70,55,0
1,note_on,70,0,960
1,note_on,67,0,0
1,note_on,64,0,0
1,note_on,66,31,0
1,note_on,69,39,0
1,note_on,69,0,480
1,note_on,66,0,0
1,note_on,66,87,480
1,note_on,69,87,0
1,note_on,72,100,0
1,note_on,72,0,1320
1,note_on,69,0,0
1,note_on,66,0,0
1,note_on,69,44,0
1,note_on,66,44,0
1,note_on,72,52,0
1,note_on,72,0,114
1,note_on,66,0,0
1,note_on,69,0,0
1,note_on,66,46,6
1,note_on,69,46,0
1,note_on,74,55,0
1,note_on,74,0,360
1,note_on,69,0,0
1,note_on,66,0,0
1,note_on,69,51,0
1,note_on,75,51,0
1,note_on,66,43,0
1,note_on,66,0,114
1,note_on,75,0,0
1,note_on,69,0,0
1,note_on,75,55,6
1,note_on,66,46,0
1,note_on,69,55,0
1,note_on,69,0,960
1,note_on,66,0,0
1,note_on,75,0,0
1,note_on,67,32,0
1,note_on,74,39,0
1,note_on,70,32,0
1,note_on,70,0,480
1,note_on,74,0,0
1,note_on,67,0,0
1,note_on,66,84,480
1,note_on,69,84,0
1,note_on,72,96,0
1,note_on,72,0,1320
1,note_on,69,0,0
1,note_on,66,0,0
1,note_on,69,46,0
1,note_on,66,46,0
1,note_on,72,55,0
1,note_on,72,0,114
1,note_on,66,0,0
1,note_on,69,0,0
1,note_on,66,51,6
1,note_on,69,51,0
1,note_on,74,60,0
1,note_on,74,0,360
1,note_on,69,0,0
1,note_on,66,0,0
1,note_on,69,63,0
1,note_on,75,63,0
1,note_on,66,54,0
1,note_on,66,0,114
1,note_on,75,0,0
1,note_on,69,0,0
1,note_on,75,59,6
1,note_on,66,50,0
1,note_on,69,50,0
1,note_on,69,0,960
1,note_on,66,0,0
1,note_on,75,0,0
1,note_on,64,44,0
1,note_on,67,44,0
1,note_on,76,52,0
1,note_on,76,0,960
1,note_on,67,0,0
1,note_on,64,0,0
1,note_on,63,39,0
1,note_on,66,39,0
1,note_on,69,47,0
1,note_on,69,0,960
1,note_on,66,0,0
1,note_on,63,0,0
1,note_on,59,35,0
1,note_on,64,35,0
1,note_on,67,43,0
1,note_on,67,0,960
1,note_on,64,0,0
1,note_on,59,0,0
1,note_on,57,33,0
1,note_on,60,33,0
1,note_on,63,39,0
1,note_on,66,39,0
1,note_on,66,0,960
1,note_on,57,0,0
1,note_on,60,0,0
1,note_on,63,0,0
1,note_on,54,28,0
1,note_on,57,28,0
1,note_on,63,34,0
1,note_on,63,0,960
1,note_on,57,0,0
1,note_on,54,0,0
1,note_on,64,61,0
1,note_on,64,0,90
1,note_on,69,55,150
1,note_on,69,0,90
1,note_on,67,58,150
1,note_on,67,0,90
1,note_on,69,47,150
1,note_on,75,56,0
1,note_on,75,0,90
1,note_on,69,0,0
1,note_on,67,51,150
1,note_on,76,61,0
1,note_on,76,0,90
1,note_on,67,0,0
1,note_on,75,56,150
1,note_on,81,66,0
1,note_on,81,0,90
1,note_on,75,0,0
1,note_on,76,60,150
1,note_on,79,71,0
1,note_on,79,0,90
1,note_on,76,0,0
1,note_on,81,62,150
1,note_on,87,73,0
1,note_on,87,0,90
1,note_on,81,0,0
1,note_on,79,68,150
1,note_on,88,80,0
1,note_on,88,0,240
1,note_on,79,0,0
1,note_on,64,68,240
1,note_on,76,80,0
1,note_on,76,0,240
1,note_on,64,0,0
1,note_on,64,52,480
1,note_on,76,62,0
1,note_on,76,0,90
1,note_on,64,0,0
1,note_on,66,56,150
1,note_on,78,67,0
1,note_on,78,0,90
1,note_on,66,0,0
1,note_on,67,52,150
1,note_on,79,62,0
1,note_on,79,0,90
1,note_on,67,0,0
1,note_on,67,56,150
1,note_on,79,66,0
1,note_on,79,0,480
1,note_on,67,0,0
1,note_on,66,52,0
1,note_on,78,62,0
1,note_on,78,0,240
1,note_on,66,0,0
1,note_on,66,52,480
1,note_on,78,62,0
1,note_on,78,0,90
1,note_on,66,0,0
1,note_on,67,56,150
1,note_on,79,67,0
1,note_on,79,0,90
1,note_on,67,0,0
1,note_on,69,52,150
1,note_on,81,62,0
1,note_on,81,0,90
1,note_on,69,0,0
1,note_on,69,52,150
1,note_on,81,62,0
1,note_on,81,0,90
1,note_on,69,0,0
1,note_on,67,55,150
1,note_on,67,0,90
1,note_on,66,58,150
1,note_on,66,0,90
1,note_on,67,47,150
1,note_on,73,56,0
1,note_on,73,0,90
1,note_on,67,0,0
1,note_on,66,51,150
1,note_on,74,61,0
1,note_on,74,0,90
1,note_on,66,0,0
1,note_on,73,56,150
1,note_on,79,66,0
1,note_on,79,0,90
1,note_on,73,0,0
1,note_on,74,60,150
1,note_on,78,71,0
1,note_on,78,0,90
1,note_on,74,0,0
1,note_on,79,62,150
1,note_on,85,73,0
1,note_on,85,0,90
1,note_on,79,0,0
1,note_on,78,68,150
1,note_on,86,80,0
1,note_on,86,0,240
1,note_on,78,0,0
1,note_on,66,68,240
1,note_on,78,80,0
1,note_on,78,0,240
1,note_on,66,0,0
1,note_on,66,52,480
1,note_on,78,62,0
1,note_on,78,0,90
1,note_on,66,0,0
1,note_on,67,56,150
1,note_on,79,67,0
1,note_on,79,0,90
1,note_on,67,0,0
1,note_on,69,52,150
1,note_on,81,62,0
1,note_on,81,0,90
1,note_on,69,0,0
1,note_on,69,56,150
1,note_on,81,66,0
1,note_on,81,0,480
1,note_on,69,0,0
1,note_on,67,52,0
1,note_on,79,62,0
1,note_on,79,0,240
1,note_on,67,0,0
1,note_on,67,52,480
1,note_on,79,62,0
1,note_on,79,0,90
1,note_on,67,0,0
1,note_on,69,56,150
1,note_on,81,67,0
1,note_on,81,0,90
1,note_on,69,0,0
1,note_on,70,52,150
1,note_on,82,62,0
1,note_on,82,0,90
1,note_on,70,0,0
1,note_on,70,58,150
1,note_on,82,52,120
1,note_on,70,0,108
1,note_on,82,0,12
1,note_on,70,58,0
1,note_on,82,53,120
1,note_on,70,0,108
1,note_on,82,0,12
1,note_on,70,58,0
1,note_on,82,52,120
1,note_on,70,0,108
1,note_on,82,0,12
1,note_on,70,58,0
1,note_on,82,52,120
1,note_on,70,0,108
1,note_on,82,0,12
1,note_on,70,58,0
1,note_on,82,52,120
1,note_on,70,0,108
1,note_on,82,0,12
1,note_on,70,58,0
1,note_on,82,53,120
1,note_on,70,0,108
1,note_on,82,0,12
1,note_on,70,58,0
1,note_on,82,52,120
1,note_on,70,0,108
1,note_on,82,0,12
1,note_on,70,58,0
1,note_on,82,52,120
1,note_on,70,0,108
1,note_on,82,0,12
1,note_on,70,58,0
1,note_on,82,52,120
1,note_on,70,0,108
1,note_on,82,0,12
1,note_on,70,58,0
1,note_on,82,53,120
1,note_on,70,0,108
1,note_on,82,0,12
1,note_on,70,58,0
1,note_on,82,52,120
1,note_on,70,0,108
1,note_on,82,0,12
1,note_on,70,58,0
1,note_on,82,52,120
1,note_on,70,0,108
1,note_on,82,0,12
1,note_on,70,58,0
1,note_on,82,52,120
1,note_on,70,0,108
1,note_on,82,0,12
1,note_on,70,58,0
1,note_on,82,53,120
1,note_on,70,0,108
1,note_on,82,0,12
1,note_on,70,58,0
1,note_on,82,52,120
1,note_on,70,0,108
1,note_on,82,0,12
1,note_on,70,58,0
1,note_on,82,52,120
1,note_on,70,0,108
1,note_on,82,0,12
1,note_on,69,58,0
1,note_on,81,52,120
1,note_on,69,0,108
1,note_on,81,0,12
1,note_on,69,58,0
1,note_on,81,53,120
1,note_on,69,0,108
1,note_on,81,0,12
1,note_on,69,58,0
1,note_on,81,52,120
1,note_on,69,0,108
1,note_on,81,0,12
1,note_on,69,58,0
1,note_on,81,52,120
1,note_on,69,0,108
1,note_on,81,0,12
1,note_on,69,58,0
1,note_on,81,52,120
1,note_on,69,0,108
1,note_on,81,0,12
1,note_on,69,58,0
1,note_on,81,53,120
1,note_on,69,0,108
1,note_on,81,0,12
1,note_on,69,58,0
1,note_on,81,52,120
1,note_on,69,0,108
1,note_on,81,0,12
1,note_on,69,58,0
1,note_on,81,52,120
1,note_on,69,0,108
1,note_on,81,0,12
1,note_on,69,58,0
1,note_on,81,52,120
1,note_on,69,0,108
1,note_on,81,0,12
1,note_on,69,58,0
1,note_on,81,53,120
1,note_on,69,0,108
1,note_on,81,0,12
1,note_on,69,58,0
1,note_on,81,52,120
1,note_on,69,0,108
1,note_on,81,0,12
1,note_on,69,58,0
1,note_on,81,52,120
1,note_on,69,0,108
1,note_on,81,0,12
1,note_on,69,58,0
1,note_on,81,52,120
1,note_on,69,0,108
1,note_on,81,0,12
1,note_on,69,58,0
1,note_on,81,53,120
1,note_on,69,0,108
1,note_on,81,0,12
1,note_on,69,58,0
1,note_on,81,52,120
1,note_on,69,0,108
1,note_on,81,0,12
1,note_on,69,58,0
1,note_on,81,52,120
1,note_on,69,0,108
1,note_on,81,0,12
1,note_on,68,58,0
1,note_on,80,52,120
1,note_on,68,0,108
1,note_on,80,0,12
1,note_on,68,58,0
1,note_on,80,53,120
1,note_on,68,0,108
1,note_on,80,0,12
1,note_on,68,58,0
1,note_on,80,52,120
1,note_on,68,0,108
1,note_on,80,0,12
1,note_on,68,58,0
1,note_on,80,52,120
1,note_on,68,0,108
1,note_on,80,0,12
1,note_on,68,58,0
1,note_on,80,52,120
1,note_on,68,0,108
1,note_on,80,0,12
1,note_on,68,58,0
1,note_on,80,53,120
1,note_on,68,0,108
1,note_on,80,0,12
1,note_on,68,58,0
1,note_on,80,52,120
1,note_on,68,0,108
1,note_on,80,0,12
1,note_on,68,58,0
1,note_on,80,52,120
1,note_on,68,0,108
1,note_on,80,0,12
1,note_on,68,58,0
1,note_on,80,52,120
1,note_on,68,0,108
1,note_on,80,0,12
1,note_on,68,58,0
1,note_on,80,53,120
1,note_on,68,0,108
1,note_on,80,0,12
1,note_on,68,58,0
1,note_on,80,52,120
1,note_on,68,0,108
1,note_on,80,0,12
1,note_on,68,58,0
1,note_on,80,52,120
1,note_on,68,0,108
1,note_on,80,0,12
1,note_on,68,58,0
1,note_on,80,54,120
1,note_on,68,0,108
1,note_on,80,0,12
1,note_on,67,58,0
1,note_on,79,54,120
1,note_on,67,0,108
1,note_on,79,0,12
1,note_on,67,58,0
1,note_on,79,54,120
1,note_on,67,0,108
1,note_on,79,0,12
1,note_on,65,58,0
1,note_on,77,54,120
1,note_on,65,0,108
1,note_on,77,0,12
1,note_on,65,56,0
1,note_on,77,56,120
1,note_on,65,0,108
1,note_on,77,0,12
1,note_on,64,56,0
1,note_on,76,56,120
1,note_on,64,0,108
1,note_on,76,0,12
1,note_on,64,55,0
1,note_on,76,55,120
1,note_on,64,0,108
1,note_on,76,0,12
1,note_on,61,55,0
1,note_on,73,55,120
1,note_on,61,0,108
1,note_on,73,0,12
1,note_on,61,54,0
1,note_on,73,51,120
1,note_on,61,0,108
1,note_on,73,0,12
1,note_on,60,54,0
1,note_on,72,51,120
1,note_on,60,0,108
1,note_on,72,0,12
1,note_on,60,53,0
1,note_on,72,50,120
1,note_on,60,0,108
1,note_on,72,0,12
1,note_on,58,53,0
1,note_on,70,49,120
1,note_on,58,0,108
1,note_on,70,0,12
1,note_on,58,53,0
1,note_on,70,51,120
1,note_on,58,0,108
1,note_on,70,0,12
1,note_on,56,53,0
1,note_on,68,50,120
1,note_on,56,0,108
1,note_on,68,0,12
1,note_on,56,53,0
1,note_on,68,50,120
1,note_on,56,0,108
1,note_on,68,0,12
1,note_on,55,53,0
1,note_on,67,49,120
1,note_on,55,0,108
1,note_on,67,0,12
1,note_on,55,53,0
1,note_on,67,53,120
1,note_on,55,0,108
1,note_on,67,0,12
1,note_on,53,53,0
1,note_on,65,48,120
1,note_on,53,0,108
1,note_on,65,0,12
1,note_on,53,53,0
1,note_on,65,49,120
1,note_on,53,0,108
1,note_on,65,0,12
1,note_on,51,53,0
1,note_on,63,49,120
1,note_on,51,0,108
1,note_on,63,0,12
1,note_on,51,53,0
1,note_on,63,49,120
1,note_on,51,0,108
1,note_on,63,0,12
1,note_on,50,53,0
1,note_on,62,49,120
1,note_on,50,0,108
1,note_on,62,0,12
1,note_on,50,53,0
1,note_on,62,49,120
1,note_on,50,0,108
1,note_on,62,0,12
1,note_on,51,53,0
1,note_on,63,48,120
1,note_on,51,0,108
1,note_on,63,0,12
1,note_on,51,53,0
1,note_on,63,49,120
1,note_on,51,0,108
1,note_on,63,0,12
1,note_on,50,53,0
1,note_on,62,49,120
1,note_on,50,0,108
1,note_on,62,0,12
1,note_on,50,53,0
1,note_on,62,49,120
1,note_on,50,0,108
1,note_on,62,0,12
1,note_on,48,53,0
1,note_on,60,49,120
1,note_on,48,0,108
1,note_on,60,0,12
1,note_on,47,53,0
1,note_on,59,53,0
1,note_on,59,0,240
1,note_on,47,0,0
1,note_on,49,40,240
1,note_on,49,0,120
1,note_on,56,34,0
1,note_on,56,0,120
1,note_on,52,34,0
1,note_on,52,0,120
1,note_on,49,34,0
1,note_on,49,0,120
1,note_on,50,41,0
1,note_on,50,0,120
1,note_on,56,34,0
1,note_on,56,0,120
1,note_on,53,34,0
1,note_on,53,0,120
1,note_on,50,34,0
1,note_on,50,0,120
1,note_on,48,41,0
1,note_on,48,0,120
1,note_on,56,34,0
1,note_on,56,0,120
1,note_on,51,34,0
1,note_on,51,0,120
1,note_on,48,34,0
1,note_on,48,0,120
1,note_on,47,40,0
1,note_on,47,0,120
1,note_on,55,34,0
1,note_on,55,0,120
1,note_on,50,34,0
1,note_on,50,0,120
1,note_on,47,34,0
1,note_on,47,0,120
1,note_on,49,40,0
1,note_on,49,0,120
1,note_on,56,34,0
1,note_on,56,0,120
1,note_on,52,34,0
1,note_on,52,0,120
1,note_on,49,34,0
1,note_on,49,0,120
1,note_on,50,40,0
1,note_on,50,0,120
1,note_on,56,34,0
1,note_on,56,0,120
1,note_on,53,34,0
1,note_on,53,0,120
1,note_on,50,34,0
1,note_on,50,0,120
1,note_on,48,39,0
1,note_on,48,0,120
1,note_on,56,34,0
1,note_on,56,0,120
1,note_on,51,34,0
1,note_on,51,0,120
1,note_on,48,34,0
1,note_on,48,0,120
1,note_on,47,34,0
1,note_on,50,34,0
1,note_on,55,34,0
1,note_on,55,0,240
1,note_on,50,0,0
1,note_on,47,0,0
1,note_on,64,55,0
1,note_on,64,0,90
1,note_on,65,58,150
1,note_on,65,0,90
1,note_on,64,47,150
1,note_on,73,56,0
1,note_on,73,0,90
1,note_on,64,0,0
1,note_on,65,51,150
1,note_on,74,61,0
1,note_on,74,0,90
1,note_on,65,0,0
1,note_on,73,56,150
1,note_on,76,66,0
1,note_on,76,0,90
1,note_on,73,0,0
1,note_on,74,60,150
1,note_on,77,71,0
1,note_on,77,0,90
1,note_on,74,0,0
1,note_on,76,62,150
1,note_on,85,73,0
1,note_on,85,0,90
1,note_on,76,0,0
1,note_on,77,62,150
1,note_on,86,73,0
1,note_on,86,0,90
1,note_on,77,0,0
1,note_on,85,77,150
1,note_on,88,77,0
1,note_on,88,0,90
1,note_on,85,0,0
1,note_on,86,82,150
1,note_on,89,82,0
1,note_on,89,0,960
1,note_on,86,0,0
1,note_on,84,58,0
1,note_on,87,58,0
1,note_on,87,0,60
1,note_on,89,54,0
1,note_on,89,0,60
1,note_on,87,54,0
1,note_on,87,0,60
1,note_on,89,54,0
1,note_on,89,0,60
1,note_on,87,59,0
1,note_on,87,0,60
1,note_on,89,54,0
1,note_on,89,0,60
1,note_on,87,54,0
1,note_on,87,0,60
1,note_on,89,54,0
1,note_on,89,0,60
1,note_on,84,0,0
1,note_on,83,59,0
1,note_on,86,59,0
1,note_on,86,0,240
1,note_on,83,0,0
1,note_on,49,40,240
1,note_on,49,0,120
1,note_on,56,34,0
1,note_on,56,0,120
1,note_on,52,34,0
1,note_on,52,0,120
1,note_on,49,34,0
1,note_on,49,0,120
1,note_on,50,41,0
1,note_on,50,0,120
1,note_on,56,34,0
1,note_on,56,0,120
1,note_on,53,34,0
1,note_on,53,0,120
1,note_on,50,34,0
1,note_on,50,0,120
1,note_on,48,41,0
1,note_on,48,0,120
1,note_on,56,34,0
1,note_on,56,0,120
1,note_on,51,34,0
1,note_on,51,0,120
1,note_on,48,34,0
1,note_on,48,0,120
1,note_on,47,40,0
1,note_on,47,0,120
1,note_on,55,34,0
1,note_on,55,0,120
1,note_on,50,34,0
1,note_on,50,0,120
1,note_on,47,34,0
1,note_on,47,0,120
1,note_on,49,40,0
1,note_on,49,0,120
1,note_on,56,34,0
1,note_on,56,0,120
1,note_on,52,34,0
1,note_on,52,0,120
1,note_on,49,34,0
1,note_on,49,0,120
1,note_on,50,40,0
1,note_on,50,0,120
1,note_on,56,34,0
1,note_on,56,0,120
1,note_on,53,34,0
1,note_on,53,0,120
1,note_on,50,34,0
1,note_on,50,0,120
1,note_on,48,39,0
1,note_on,48,0,120
1,note_on,56,34,0
1,note_on,56,0,120
1,note_on,51,34,0
1,note_on,51,0,120
1,note_on,48,34,0
1,note_on,48,0,120
1,note_on,47,34,0
1,note_on,50,34,0
1,note_on,55,34,0
1,note_on,55,0,240
1,note_on,50,0,0
1,note_on,47,0,0
1,note_on,64,55,0
1,note_on,64,0,90
1,note_on,65,58,150
1,note_on,65,0,90
1,note_on,64,47,150
1,note_on,73,56,0
1,note_on,73,0,90
1,note_on,64,0,0
1,note_on,65,51,150
1,note_on,74,61,0
1,note_on,74,0,90
1,note_on,65,0,0
1,note_on,73,56,150
1,note_on,76,66,0
1,note_on,76,0,90
1,note_on,73,0,0
1,note_on,74,60,150
1,note_on,77,71,0
1,note_on,77,0,90
1,note_on,74,0,0
1,note_on,76,62,150
1,note_on,85,73,0
1,note_on,85,0,90
1,note_on,76,0,0
1,note_on,77,62,150
1,note_on,86,73,0
1,note_on,86,0,90
1,note_on,77,0,0
1,note_on,85,77,150
1,note_on,88,77,0
1,note_on,88,0,90
1,note_on,85,0,0
1,note_on,86,82,150
1,note_on,89,82,0
1,note_on,89,0,960
1,note_on,86,0,0
1,note_on,84,58,0
1,note_on,87,58,0
1,note_on,87,0,60
1,note_on,89,54,0
1,note_on,89,0,60
1,note_on,87,54,0
1,note_on,87,0,60
1,note_on,89,54,0
1,note_on,89,0,60
1,note_on,87,59,0
1,note_on,87,0,40
1,note_on,89,54,0
1,note_on,89,0,40
1,note_on,87,54,0
1,note_on,87,0,40
1,note_on,86,54,0
1,note_on,86,0,60
1,note_on,87,54,0
1,note_on,87,0,60
1,note_on,84,0,0
1,note_on,83,62,0
1,note_on,86,73,0
1,note_on,86,0,90
1,note_on,83,0,0
1,note_on,85,77,150
1,note_on,88,77,0
1,note_on,88,0,90
1,note_on,85,0,0
1,note_on,86,82,150
1,note_on,89,82,0
1,note_on,89,0,960
1,note_on,86,0,0
1,note_on,84,58,0
1,note_on,87,58,0
1,note_on,87,0,60
1,note_on,89,54,0
1,note_on,89,0,60
1,note_on,87,54,0
1,note_on,87,0,60
1,note_on,89,54,0
1,note_on,89,0,60
1,note_on,87,59,0
1,note_on,87,0,40
1,note_on,89,54,0
1,note_on,89,0,40
1,note_on,87,54,0
1,note_on,87,0,40
1,note_on,86,54,0
1,note_on,86,0,60
1,note_on,87,54,0
1,note_on,87,0,60
1,note_on,84,0,0
1,note_on,83,62,0
1,note_on,86,73,0
1,note_on,86,0,90
1,note_on,83,0,0
1,note_on,85,77,150
1,note_on,88,77,0
1,note_on,88,0,90
1,note_on,85,0,0
1,note_on,86,82,150
1,note_on,89,82,0
1,note_on,89,0,960
1,note_on,86,0,0
1,note_on,84,58,0
1,note_on,87,58,0
1,note_on,87,0,60
1,note_on,89,54,0
1,note_on,89,0,60
1,note_on,87,54,0
1,note_on,87,0,60
1,note_on,89,54,0
1,note_on,89,0,60
1,note_on,87,59,0
1,note_on,87,0,40
1,note_on,89,54,0
1,note_on,89,0,40
1,note_on,87,54,0
1,note_on,87,0,40
1,note_on,86,54,0
1,note_on,86,0,60
1,note_on,87,54,0
1,note_on,87,0,60
1,note_on,84,0,0
1,note_on,83,58,0
1,note_on,86,58,0
1,note_on,86,0,120
1,note_on,83,0,0
1,note_on,89,53,0
1,note_on,89,0,120
1,note_on,86,54,0
1,note_on,86,0,120
1,note_on,84,54,0
1,note_on,84,0,120
1,note_on,83,58,0
1,note_on,83,0,120
1,note_on,89,53,0
1,note_on,89,0,120
1,note_on,86,53,0
1,note_on,86,0,120
1,note_on,84,53,0
1,note_on,84,0,120
1,note_on,83,58,0
1,note_on,83,0,120
1,note_on,89,55,0
1,note_on,89,0,120
1,note_on,86,55,0
1,note_on,86,0,120
1,note_on,84,55,0
1,note_on,84,0,120
1,note_on,83,58,0
1,note_on,83,0,120
1,note_on,86,55,0
1,note_on,86,0,120
1,note_on,83,55,0
1,note_on,83,0,120
1,note_on,79,55,0
1,note_on,79,0,120
1,note_on,80,58,0
1,note_on,80,0,120
1,note_on,82,55,0
1,note_on,82,0,120
1,note_on,80,55,0
1,note_on,80,0,120
1,note_on,79,55,0
1,note_on,79,0,120
1,note_on,77,58,0
1,note_on,77,0,120
1,note_on,80,55,0
1,note_on,80,0,120
1,note_on,77,55,0
1,note_on,77,0,120
1,note_on,75,55,0
1,note_on,75,0,120
1,note_on,74,58,0
1,note_on,74,0,120
1,note_on,77,54,0
1,note_on,77,0,120
1,note_on,74,54,0
1,note_on,74,0,120
1,note_on,72,54,0
1,note_on,72,0,120
1,note_on,71,58,0
1,note_on,71,0,120
1,note_on,74,54,0
1,note_on,74,0,120
1,note_on,71,54,0
1,note_on,71,0,120
1,note_on,67,54,0
1,note_on,67,0,120
1,note_on,68,58,0
1,note_on,68,0,120
1,note_on,70,55,0
1,note_on,70,0,120
1,note_on,68,55,0
1,note_on,68,0,120
1,note_on,67,55,0
1,note_on,67,0,120
1,note_on,65,58,0
1,note_on,65,0,120
1,note_on,68,58,0
1,note_on,68,0,120
1,note_on,65,55,0
1,note_on,65,0,120
1,note_on,63,55,0
1,note_on,63,0,120
1,note_on,62,58,0
1,note_on,62,0,120
1,note_on,65,55,0
1,note_on,65,0,120
1,note_on,62,55,0
1,note_on,62,0,120
1,note_on,60,55,0
1,note_on,60,0,120
1,note_on,59,58,0
1,note_on,59,0,120
1,note_on,62,55,0
1,note_on,62,0,120
1,note_on,59,55,0
1,note_on,59,0,120
1,note_on,55,55,0
1,note_on,55,0,120
1,note_on,56,58,0
1,note_on,56,0,120
1,note_on,58,54,0
1,note_on,58,0,120
1,note_on,56,54,0
1,note_on,56,0,120
1,note_on,55,54,0
1,note_on,55,0,120
1,note_on,53,58,0
1,note_on,53,0,120
1,note_on,51,53,0
1,note_on,51,0,120
1,note_on,50,53,0
1,note_on,50,0,120
1,note_on,48,53,0
1,note_on,48,0,120
1,note_on,47,58,0
1,note_on,47,0,120
1,note_on,48,55,0
1,note_on,48,0,120
1,note_on,47,55,0
1,note_on,47,0,120
1,note_on,44,56,0
1,note_on,44,0,120
1,note_on,43,58,0
1,note_on,43,0,120
1,note_on,41,55,0
1,note_on,41,0,120
1,note_on,39,55,0
1,note_on,39,0,120
1,note_on,38,55,0
1,note_on,38,0,120
1,note_on,60,50,0
1,note_on,60,0,720
1,note_on,58,52,0
1,note_on,64,52,0
1,note_on,64,0,90
1,note_on,58,0,0
1,note_on,56,54,150
1,note_on,65,54,0
1,note_on,65,0,90
1,note_on,56,0,0
1,note_on,64,56,150
1,note_on,67,56,0
1,note_on,67,0,90
1,note_on,64,0,0
1,note_on,65,57,150
1,note_on,68,57,0
1,note_on,68,0,90
1,note_on,65,0,0
1,note_on,62,59,150
1,note_on,71,59,0
1,note_on,71,0,90
1,note_on,62,0,0
1,note_on,63,61,150
1,note_on,72,61,0
1,note_on,72,0,90
1,note_on,63,0,0
1,note_on,64,55,150
1,note_on,72,55,0
1,note_on,72,0,480
1,note_on,64,0,0
1,note_on,70,51,0
1,note_on,76,51,0
1,note_on,76,0,90
1,note_on,70,0,0
1,note_on,68,53,150
1,note_on,77,53,0
1,note_on,77,0,90
1,note_on,68,0,0
1,note_on,76,55,150
1,note_on,79,55,0
1,note_on,79,0,90
1,note_on,76,0,0
1,note_on,77,57,150
1,note_on,80,57,0
1,note_on,80,0,90
1,note_on,77,0,0
1,note_on,74,59,150
1,note_on,83,59,0
1,note_on,83,0,90
1,note_on,74,0,0
1,note_on,72,51,150
1,note_on,79,61,0
1,note_on,75,51,0
1,note_on,84,61,0
1,note_on,84,0,480
1,note_on,72,0,0
1,note_on,79,0,0
1,note_on,75,0,0
1,note_on,67,53,0
1,note_on,71,53,0
1,note_on,77,63,0
1,note_on,79,63,0
1,note_on,79,0,480
1,note_on,67,0,0
1,note_on,71,0,0
1,note_on,77,0,0
1,note_on,67,56,0
1,note_on,72,56,0
1,note_on,75,67,0
1,note_on,75,0,480
1,note_on,72,0,0
1,note_on,67,0,0
1,note_on,65,60,0
1,note_on,68,60,0
1,note_on,74,71,0
1,note_on,74,0,480
1,note_on,68,0,0
1,note_on,65,0,0
1,note_on,63,62,0
1,note_on,67,74,0
1,note_on,72,74,0
1,note_on,67,0,480
1,note_on,66,74,0
1,note_on,66,0,480
1,note_on,69,77,0
1,note_on,69,0,480
1,note_on,72,0,0
1,note_on,63,0,0
1,note_on,62,62,0
1,note_on,65,62,0
1,note_on,71,74,0
1,note_on,71,0,480
1,note_on,65,0,0
1,note_on,62,0,0
1,note_on,60,67,0
1,note_on,63,67,0
1,note_on,72,79,0
1,note_on,72,0,90
1,note_on,63,0,0
1,note_on,60,0,0
1,note_on,60,67,150
1,note_on,60,0,480
1,note_on,58,52,0
1,note_on,64,52,0
1,note_on,64,0,90
1,note_on,58,0,0
1,note_on,56,54,150
1,note_on,65,54,0
1,note_on,65,0,90
1,note_on,56,0,0
1,note_on,64,55,150
1,note_on,67,55,0
1,note_on,67,0,90
1,note_on,64,0,0
1,note_on,65,57,150
1,note_on,68,57,0
1,note_on,68,0,90
1,note_on,65,0,0
1,note_on,62,59,150
1,note_on,71,59,0
1,note_on,71,0,90
1,note_on,62,0,0
1,note_on,63,61,150
1,note_on,72,61,0
1,note_on,72,0,90
1,note_on,63,0,0
1,note_on,64,55,150
1,note_on,72,55,0
1,note_on,72,0,480
1,note_on,64,0,0
1,note_on,70,51,0
1,note_on,76,51,0
1,note_on,76,0,90
1,note_on,70,0,0
1,note_on,68,53,150
1,note_on,77,53,0
1,note_on,77,0,90
1,note_on,68,0,0
1,note_on,76,55,150
1,note_on,79,55,0
1,note_on,79,0,90
1,note_on,76,0,0
1,note_on,77,57,150
1,note_on,80,57,0
1,note_on,80,0,90
1,note_on,77,0,0
1,note_on,74,59,150
1,note_on,83,59,0
1,note_on,83,0,90
1,note_on,74,0,0
1,note_on,72,51,150
1,note_on,79,61,0
1,note_on,75,51,0
1,note_on,84,61,0
1,note_on,84,0,480
1,note_on,72,0,0
1,note_on,79,0,0
1,note_on,75,0,0
1,note_on,68,53,0
1,note_on,75,63,0
1,note_on,80,63,0
1,note_on,80,0,480
1,note_on,75,0,0
1,note_on,68,0,0
1,note_on,68,56,0
1,note_on,73,56,0
1,note_on,77,67,0
1,note_on,77,0,480
1,note_on,73,0,0
1,note_on,68,0,0
1,note_on,66,60,0
1,note_on,72,60,0
1,note_on,75,71,0
1,note_on,75,0,480
1,note_on,72,0,0
1,note_on,66,0,0
1,note_on,65,62,0
1,note_on,68,74,0
1,note_on,73,74,0
1,note_on,73,0,480
1,note_on,68,0,0
1,note_on,65,0,0
1,note_on,70,74,0
1,note_on,66,74,0
1,note_on,61,74,0
1,note_on,61,0,480
1,note_on,66,0,0
1,note_on,70,0,0
1,note_on,61,74,0
1,note_on,65,74,0
1,note_on,68,77,0
1,note_on,65,0,480
1,note_on,61,0,0
1,note_on,60,74,0
1,note_on,63,74,0
1,note_on,63,0,480
1,note_on,60,0,0
1,note_on,68,0,0
1,note_on,62,51,0
1,note_on,65,51,0
1,note_on,70,61,0
1,note_on,70,0,480
1,note_on,65,0,0
1,note_on,62,0,0
1,note_on,70,53,0
1,note_on,77,63,0
1,note_on,82,63,0
1,note_on,82,0,480
1,note_on,77,0,0
1,note_on,70,0,0
1,note_on,70,56,0
1,note_on,75,56,0
1,note_on,78,67,0
1,note_on,78,0,480
1,note_on,75,0,0
1,note_on,70,0,0
1,note_on,68,60,0
1,note_on,74,60,0
1,note_on,77,71,0
1,note_on,77,0,480
1,note_on,74,0,0
1,note_on,68,0,0
1,note_on,66,62,0
1,note_on,70,74,0
1,note_on,75,74,0
1,note_on,75,0,480
1,note_on,70,0,0
1,note_on,66,0,0
1,note_on,63,74,0
1,note_on,71,74,0
1,note_on,68,74,0
1,note_on,68,0,480
1,note_on,71,0,0
1,note_on,63,0,0
1,note_on,63,74,0
1,note_on,66,74,0
1,note_on,70,77,0
1,note_on,66,0,480
1,note_on,63,0,0
1,note_on,62,74,0
1,note_on,65,74,0
1,note_on,65,0,480
1,note_on,62,0,0
1,note_on,70,0,0
1,note_on,64,51,0
1,note_on,67,51,0
1,note_on,72,61,0
1,note_on,72,0,480
1,note_on,67,0,0
1,note_on,64,0,0
1,note_on,72,53,0
1,note_on,79,63,0
1,note_on,84,63,0
1,note_on,84,0,480
1,note_on,79,0,0
1,note_on,72,0,0
1,note_on,72,56,0
1,note_on,77,56,0
1,note_on,80,67,0
1,note_on,80,0,480
1,note_on,77,0,0
1,note_on,72,0,0
1,note_on,70,60,0
1,note_on,76,60,0
1,note_on,79,71,0
1,note_on,79,0,480
1,note_on,76,0,0
1,note_on,70,0,0
1,note_on,68,62,0
1,note_on,72,74,0
1,note_on,77,74,0
1,note_on,77,0,480
1,note_on,72,0,0
1,note_on,68,0,0
1,note_on,73,74,0
1,note_on,65,74,0
1,note_on,65,0,480
1,note_on,73,0,0
1,note_on,65,74,0
1,note_on,72,77,0
1,note_on,72,0,480
1,note_on,65,0,0
1,note_on,65,74,0
1,note_on,71,74,0
1,note_on,71,0,480
1,note_on,65,0,0
1,note_on,64,65,0
1,note_on,72,73,0
1,note_on,72,0,240
1,note_on,64,0,0
1,note_on,59,50,0
1,note_on,59,0,240
1,note_on,60,59,0
1,note_on,60,0,240
1,note_on,59,56,0
1,note_on,59,0,240
1,note_on,60,57,0
1,note_on,60,0,240
1,note_on,59,49,0
1,note_on,59,0,240
1,note_on,60,57,0
1,note_on,60,0,240
1,note_on,59,51,0
1,note_on,59,0,240
1,note_on,48,55,240
1,note_on,48,0,120
1,note_on,53,58,120
1,note_on,53,0,120
1,note_on,55,61,120
1,note_on,55,0,120
1,note_on,56,64,120
1,note_on,56,0,120
1,note_on,72,62,120
1,note_on,72,0,120
1,note_on,77,64,120
1,note_on,77,0,120
1,note_on,79,66,120
1,note_on,79,0,120
1,note_on,72,65,60
1,note_on,72,0,60
1,note_on,80,75,0
1,note_on,80,0,720
1,note_on,77,63,0
1,note_on,72,60,180
1,note_on,72,0,60
1,note_on,77,0,0
1,note_on,80,71,0
1,note_on,80,0,720
1,note_on,77,58,0
1,note_on,77,0,240
1,note_on,76,60,0
1,note_on,76,0,240
1,note_on,48,57,0
1,note_on,48,0,120
1,note_on,55,60,120
1,note_on,55,0,120
1,note_on,56,63,120
1,note_on,56,0,120
1,note_on,58,66,120
1,note_on,58,0,120
1,note_on,72,59,120
1,note_on,72,0,240
1,note_on,82,62,0
1,note_on,82,0,240
1,note_on,80,65,0
1,note_on,80,0,240
1,note_on,80,60,0
1,note_on,80,0,60
1,note_on,82,60,0
1,note_on,82,0,60
1,note_on,80,67,0
1,note_on,80,0,120
1,note_on,79,60,0
1,note_on,79,0,240
1,note_on,79,60,0
1,note_on,79,0,60
1,note_on,80,60,0
1,note_on,80,0,60
1,note_on,79,67,0
1,note_on,79,0,120
1,note_on,77,60,0
1,note_on,77,0,240
1,note_on,77,60,0
1,note_on,77,0,60
1,note_on,79,60,0
1,note_on,79,0,60
1,note_on,77,66,0
1,note_on,77,0,120
1,note_on,76,60,0
1,note_on,76,0,240
1,note_on,74,60,0
1,note_on,74,0,120
1,note_on,76,60,120
1,note_on,76,0,120
1,note_on,77,60,120
1,note_on,77,0,240
1,note_on,48,55,0
1,note_on,48,0,120
1,note_on,53,58,120
1,note_on,53,0,120
1,note_on,55,61,120
1,note_on,55,0,120
1,note_on,56,64,120
1,note_on,56,0,120
1,note_on,72,62,120
1,note_on,72,0,120
1,note_on,77,64,120
1,note_on,77,0,120
1,note_on,80,66,120
1,note_on,80,0,120
1,note_on,72,65,60
1,note_on,72,0,60
1,note_on,84,75,0
1,note_on,84,0,720
1,note_on,77,63,0
1,note_on,77,0,160
1,note_on,77,60,20
1,note_on,77,0,60
1,note_on,89,71,0
1,note_on,89,0,720
1,note_on,84,58,0
1,note_on,84,0,240
1,note_on,83,60,0
1,note_on,83,0,240
1,note_on,43,57,0
1,note_on,43,0,120
1,note_on,50,60,120
1,note_on,50,0,120
1,note_on,51,63,120
1,note_on,51,0,120
1,note_on,53,66,120
1,note_on,53,0,120
1,note_on,67,59,120
1,note_on,67,0,240
1,note_on,77,62,0
1,note_on,77,0,240
1,note_on,75,65,0
1,note_on,75,0,240
1,note_on,75,60,0
1,note_on,75,0,60
1,note_on,77,60,0
1,note_on,77,0,60
1,note_on,75,67,0
1,note_on,75,0,120
1,note_on,74,60,0
1,note_on,74,0,240
1,note_on,74,60,0
1,note_on,74,0,60
1,note_on,75,60,0
1,note_on,75,0,60
1,note_on,74,67,0
1,note_on,74,0,120
1,note_on,72,60,0
1,note_on,72,0,240
1,note_on,72,60,0
1,note_on,72,0,60
1,note_on,74,60,0
1,note_on,74,0,60
1,note_on,72,66,0
1,note_on,72,0,120
1,note_on,71,60,0
1,note_on,71,0,240
1,note_on,69,60,0
1,note_on,69,0,120
1,note_on,71,60,120
1,note_on,71,0,120
1,note_on,72,60,120
1,note_on,72,0,240
1,note_on,43,55,0
1,note_on,43,0,120
1,note_on,48,58,120
1,note_on,48,0,120
1,note_on,50,61,120
1,note_on,50,0,120
1,note_on,51,64,120
1,note_on,51,0,120
1,note_on,79,62,120
1,note_on,79,0,120
1,note_on,84,64,120
1,note_on,84,0,120
1,note_on,86,66,120
1,note_on,86,0,120
1,note_on,79,65,60
1,note_on,79,0,60
1,note_on,87,75,0
1,note_on,87,0,720
1,note_on,84,63,0
1,note_on,79,60,180
1,note_on,79,0,60
1,note_on,84,0,0
1,note_on,87,71,0
1,note_on,87,0,720
1,note_on,84,58,0
1,note_on,84,0,240
1,note_on,83,60,0
1,note_on,83,0,240
1,note_on,43,57,0
1,note_on,43,0,120
1,note_on,50,60,120
1,note_on,50,0,120
1,note_on,51,63,120
1,note_on,51,0,120
1,note_on,53,66,120
1,note_on,53,0,120
1,note_on,79,59,120
1,note_on,79,0,240
1,note_on,89,62,0
1,note_on,89,0,240
1,note_on,87,65,0
1,note_on,87,0,240
1,note_on,87,60,0
1,note_on,87,0,60
1,note_on,89,60,0
1,note_on,89,0,60
1,note_on,87,67,0
1,note_on,87,0,120
1,note_on,86,60,0
1,note_on,86,0,240
1,note_on,86,60,0
1,note_on,86,0,60
1,note_on,87,60,0
1,note_on,87,0,60
1,note_on,86,67,0
1,note_on,86,0,120
1,note_on,84,60,0
1,note_on,84,0,240
1,note_on,84,60,0
1,note_on,84,0,60
1,note_on,86,60,0
1,note_on,86,0,60
1,note_on,84,66,0
1,note_on,84,0,120
1,note_on,83,60,0
1,note_on,83,0,240
1,note_on,81,60,0
1,note_on,81,0,120
1,note_on,83,60,120
1,note_on,83,0,120
1,note_on,86,60,120
1,note_on,86,0,60
1,note_on,87,60,0
1,note_on,87,0,60
1,note_on,86,67,0
1,note_on,86,0,120
1,note_on,84,59,0
1,note_on,84,0,240
1,note_on,84,58,0
1,note_on,84,0,60
1,note_on,86,58,0
1,note_on,86,0,60
1,note_on,84,65,0
1,note_on,84,0,120
1,note_on,82,58,0
1,note_on,82,0,240
1,note_on,82,57,0
1,note_on,82,0,60
1,note_on,84,57,0
1,note_on,84,0,60
1,note_on,82,63,0
1,note_on,82,0,120
1,note_on,81,57,0
1,note_on,81,0,240
1,note_on,79,56,0
1,note_on,79,0,120
1,note_on,81,55,120
1,note_on,81,0,120
1,note_on,84,55,120
1,note_on,84,0,60
1,note_on,85,55,0
1,note_on,85,0,60
1,note_on,84,61,0
1,note_on,84,0,120
1,note_on,82,54,0
1,note_on,82,0,240
1,note_on,82,54,0
1,note_on,82,0,60
1,note_on,84,54,0
1,note_on,84,0,60
1,note_on,82,60,0
1,note_on,82,0,120
1,note_on,80,53,0
1,note_on,80,0,240
1,note_on,80,52,0
1,note_on,80,0,60
1,note_on,82,52,0
1,note_on,82,0,60
1,note_on,80,57,0
1,note_on,80,0,120
1,note_on,79,52,0
1,note_on,79,0,240
1,note_on,77,51,0
1,note_on,77,0,120
1,note_on,79,51,120
1,note_on,79,0,120
1,note_on,82,50,120
1,note_on,82,0,60
1,note_on,84,50,0
1,note_on,84,0,60
1,note_on,82,55,0
1,note_on,82,0,120
1,note_on,80,49,0
1,note_on,80,0,240
1,note_on,80,49,0
1,note_on,80,0,60
1,note_on,82,48,0
1,note_on,82,0,60
1,note_on,80,54,0
1,note_on,80,0,120
1,note_on,79,48,0
1,note_on,79,0,240
1,note_on,79,48,0
1,note_on,79,0,60
1,note_on,80,47,0
1,note_on,80,0,60
1,note_on,79,52,0
1,note_on,79,0,120
1,note_on,78,47,0
1,note_on,78,0,240
1,note_on,78,46,0
1,note_on,78,0,120
1,note_on,78,46,120
1,note_on,78,0,120
1,note_on,80,42,120
1,note_on,80,0,60
1,note_on,82,42,0
1,note_on,82,0,60
1,note_on,80,46,0
1,note_on,80,0,120
1,note_on,79,42,0
1,note_on,79,0,240
1,note_on,79,42,0
1,note_on,79,0,120
1,note_on,79,42,120
1,note_on,79,0,120
1,note_on,80,42,120
1,note_on,80,0,60
1,note_on,82,42,0
1,note_on,82,0,60
1,note_on,80,46,0
1,note_on,80,0,120
1,note_on,79,42,0
1,note_on,79,0,240
1,note_on,79,42,0
1,note_on,79,0,120
1,note_on,79,42,120
1,note_on,79,0,120
1,note_on,60,25,240
1,note_on,60,0,120
1,note_on,63,29,0
1,note_on,63,0,120
1,note_on,60,29,0
1,note_on,60,0,120
1,note_on,72,45,0
1,note_on,60,28,120
1,note_on,60,0,120
1,note_on,63,30,0
1,note_on,63,0,120
1,note_on,60,28,0
1,note_on,60,0,120
1,note_on,63,31,0
1,note_on,63,0,120
1,note_on,60,30,0
1,note_on,60,0,120
1,note_on,63,32,0
1,note_on,63,0,120
1,note_on,60,29,0
1,note_on,60,0,120
1,note_on,72,0,0
1,note_on,72,50,0
1,note_on,60,30,120
1,note_on,60,0,120
1,note_on,63,33,0
1,note_on,63,0,120
1,note_on,60,32,0
1,note_on,60,0,120
1,note_on,72,0,0
1,note_on,61,32,120
1,note_on,61,0,120
1,note_on,64,36,0
1,note_on,64,0,120
1,note_on,61,35,0
1,note_on,61,0,120
1,note_on,73,54,0
1,note_on,61,33,120
1,note_on,61,0,120
1,note_on,64,35,0
1,note_on,64,0,120
1,note_on,61,32,0
1,note_on,61,0,120
1,note_on,64,35,0
1,note_on,64,0,120
1,note_on,61,33,0
1,note_on,61,0,120
1,note_on,64,35,0
1,note_on,64,0,120
1,note_on,61,32,0
1,note_on,61,0,120
1,note_on,73,0,0
1,note_on,73,53,0
1,note_on,61,32,120
1,note_on,61,0,120
1,note_on,64,35,0
1,note_on,64,0,120
1,note_on,61,33,0
1,note_on,61,0,120
1,note_on,73,0,0
1,note_on,72,66,0
1,note_on,72,0,90
1,note_on,60,41,30
1,note_on,60,0,120
1,note_on,65,45,0
1,note_on,65,0,120
1,note_on,60,42,0
1,note_on,60,0,120
1,note_on,76,67,0
1,note_on,76,0,90
1,note_on,64,43,30
1,note_on,64,0,120
1,note_on,72,47,0
1,note_on,72,0,120
1,note_on,64,43,0
1,note_on,64,0,120
1,note_on,77,71,0
1,note_on,77,0,90
1,note_on,65,45,30
1,note_on,65,0,120
1,note_on,72,50,0
1,note_on,72,0,120
1,note_on,65,45,0
1,note_on,65,0,120
1,note_on,79,72,0
1,note_on,79,0,90
1,note_on,67,47,30
1,note_on,67,0,120
1,note_on,72,50,0
1,note_on,72,0,120
1,note_on,67,47,0
1,note_on,67,0,120
1,note_on,80,74,0
1,note_on,80,0,90
1,note_on,68,49,30
1,note_on,68,0,120
1,note_on,72,54,0
1,note_on,72,0,120
1,note_on,68,49,0
1,note_on,68,0,120
1,note_on,81,80,0
1,note_on,81,0,90
1,note_on,69,50,30
1,note_on,69,0,120
1,note_on,72,55,0
1,note_on,72,0,120
1,note_on,69,51,0
1,note_on,69,0,120
1,note_on,83,84,0
1,note_on,83,0,90
1,note_on,71,51,30
1,note_on,71,0,120
1,note_on,77,58,0
1,note_on,77,0,120
1,note_on,71,53,0
1,note_on,71,0,120
1,note_on,84,85,0
1,note_on,84,0,90
1,note_on,72,53,30
1,note_on,72,0,120
1,note_on,77,58,0
1,note_on,77,0,120
1,note_on,72,54,0
1,note_on,72,0,120
1,note_on,86,85,0
1,note_on,86,0,90
1,note_on,74,55,30
1,note_on,74,0,120
1,note_on,77,63,0
1,note_on,77,0,120
1,note_on,74,55,0
1,note_on,74,0,120
1,note_on,88,90,0
1,note_on,88,0,90
1,note_on,76,57,30
1,note_on,76,0,120
1,note_on,79,62,0
1,note_on,79,0,120
1,note_on,76,57,0
1,note_on,76,0,120
1,note_on,89,89,0
1,note_on,89,0,90
1,note_on,77,59,30
1,note_on,77,0,120
1,note_on,80,64,0
1,note_on,80,0,120
1,note_on,77,59,0
1,note_on,77,0,120
1,note_on,86,91,0
1,note_on,86,0,90
1,note_on,77,61,30
1,note_on,77,0,120
1,note_on,80,67,0
1,note_on,80,0,120
1,note_on,77,61,0
1,note_on,77,0,120
1,note_on,75,78,120
1,note_on,75,0,120
1,note_on,79,84,0
1,note_on,79,0,120
1,note_on,75,78,0
1,note_on,75,0,120
1,note_on,84,88,0
1,note_on,84,0,90
1,note_on,75,78,30
1,note_on,75,0,120
1,note_on,79,84,0
1,note_on,79,0,120
1,note_on,75,76,0
1,note_on,75,0,120
1,note_on,74,78,120
1,note_on,74,0,120
1,note_on,77,84,0
1,note_on,77,0,120
1,note_on,74,78,0
1,note_on,74,0,120
1,note_on,83,88,0
1,note_on,83,0,90
1,note_on,74,78,30
1,note_on,74,0,120
1,note_on,77,84,0
1,note_on,77,0,120
1,note_on,74,76,0
1,note_on,74,0,120
1,note_on,60,32,120
1,note_on,60,0,120
1,note_on,63,36,0
1,note_on,63,0,120
1,note_on,60,35,0
1,note_on,60,0,120
1,note_on,72,54,0
1,note_on,60,33,120
1,note_on,60,0,120
1,note_on,63,35,0
1,note_on,63,0,120
1,note_on,60,32,0
1,note_on,60,0,120
1,note_on,63,35,0
1,note_on,63,0,120
1,note_on,60,33,0
1,note_on,60,0,120
1,note_on,63,35,0
1,note_on,63,0,120
1,note_on,60,32,0
1,note_on,60,0,120
1,note_on,72,0,0
1,note_on,72,53,0
1,note_on,60,32,120
1,note_on,60,0,120
1,note_on,63,35,0
1,note_on,63,0,120
1,note_on,60,33,0
1,note_on,60,0,120
1,note_on,72,0,0
1,note_on,61,32,120
1,note_on,61,0,120
1,note_on,64,36,0
1,note_on,64,0,120
1,note_on,61,35,0
1,note_on,61,0,120
1,note_on,73,54,0
1,note_on,61,33,120
1,note_on,61,0,120
1,note_on,64,35,0
1,note_on,64,0,120
1,note_on,61,32,0
1,note_on,61,0,120
1,note_on,64,35,0
1,note_on,64,0,120
1,note_on,61,33,0
1,note_on,61,0,120
1,note_on,64,35,0
1,note_on,64,0,120
1,note_on,61,32,0
1,note_on,61,0,120
1,note_on,73,0,0
1,note_on,73,53,0
1,note_on,61,32,120
1,note_on,61,0,120
1,note_on,64,35,0
1,note_on,64,0,120
1,note_on,61,33,0
1,note_on,61,0,120
1,note_on,73,0,0
1,note_on,72,66,0
1,note_on,72,0,90
1,note_on,60,41,30
1,note_on,60,0,120
1,note_on,65,45,0
1,note_on,65,0,120
1,note_on,60,42,0
1,note_on,60,0,120
1,note_on,76,67,0
1,note_on,76,0,90
1,note_on,64,43,30
1,note_on,64,0,120
1,note_on,72,47,0
1,note_on,72,0,120
1,note_on,64,43,0
1,note_on,64,0,120
1,note_on,77,71,0
1,note_on,77,0,90
1,note_on,65,45,30
1,note_on,65,0,120
1,note_on,72,50,0
1,note_on,72,0,120
1,note_on,65,45,0
1,note_on,65,0,120
1,note_on,79,72,0
1,note_on,79,0,90
1,note_on,67,47,30
1,note_on,67,0,120
1,note_on,72,50,0
1,note_on,72,0,120
1,note_on,67,47,0
1,note_on,67,0,120
1,note_on,80,74,0
1,note_on,80,0,90
1,note_on,68,49,30
1,note_on,68,0,120
1,note_on,72,54,0
1,note_on,72,0,120
1,note_on,68,49,0
1,note_on,68,0,120
1,note_on,81,80,0
1,note_on,81,0,90
1,note_on,69,50,30
1,note_on,69,0,120
1,note_on,72,55,0
1,note_on,72,0,120
1,note_on,69,51,0
1,note_on,69,0,120
1,note_on,83,84,0
1,note_on,83,0,90
1,note_on,71,51,30
1,note_on,71,0,120
1,note_on,77,58,0
1,note_on,77,0,120
1,note_on,71,53,0
1,note_on,71,0,120
1,note_on,84,85,0
1,note_on,84,0,90
1,note_on,72,53,30
1,note_on,72,0,120
1,note_on,77,58,0
1,note_on,77,0,120
1,note_on,72,54,0
1,note_on,72,0,120
1,note_on,86,85,0
1,note_on,86,0,90
1,note_on,74,55,30
1,note_on,74,0,120
1,note_on,77,63,0
1,note_on,77,0,120
1,note_on,74,55,0
1,note_on,74,0,120
1,note_on,88,90,0
1,note_on,88,0,90
1,note_on,76,57,30
1,note_on,76,0,120
1,note_on,79,62,0
1,note_on,79,0,120
1,note_on,76,57,0
1,note_on,76,0,120
1,note_on,89,89,0
1,note_on,89,0,90
1,note_on,77,59,30
1,note_on,77,0,120
1,note_on,80,64,0
1,note_on,80,0,120
1,note_on,77,59,0
1,note_on,77,0,120
1,note_on,86,91,0
1,note_on,86,0,90
1,note_on,77,61,30
1,note_on,77,0,120
1,note_on,80,67,0
1,note_on,80,0,120
1,note_on,77,61,0
1,note_on,77,0,120
1,note_on,75,78,120
1,note_on,75,0,120
1,note_on,79,84,0
1,note_on,79,0,120
1,note_on,75,78,0
1,note_on,75,0,120
1,note_on,84,88,0
1,note_on,84,0,90
1,note_on,75,78,30
1,note_on,75,0,120
1,note_on,79,84,0
1,note_on,79,0,120
1,note_on,75,76,0
1,note_on,75,0,120
1,note_on,74,78,120
1,note_on,74,0,120
1,note_on,77,84,0
1,note_on,77,0,120
1,note_on,74,78,0
1,note_on,74,0,120
1,note_on,83,88,0
1,note_on,83,0,90
1,note_on,74,78,30
1,note_on,74,0,120
1,note_on,77,84,0
1,note_on,77,0,120
1,note_on,74,76,0
1,note_on,74,0,120
1,note_on,72,81,0
1,note_on,72,0,90
1,note_on,84,58,150
1,note_on,84,0,480
1,note_on,83,46,0
1,note_on,83,0,120
1,note_on,84,48,0
1,note_on,84,0,120
1,note_on,86,49,0
1,note_on,86,0,120
1,note_on,84,49,0
1,note_on,84,0,120
1,note_on,82,48,0
1,note_on,82,0,120
1,note_on,80,47,0
1,note_on,80,0,120
1,note_on,79,45,0
1,note_on,79,0,120
1,note_on,80,46,0
1,note_on,80,0,120
1,note_on,82,49,0
1,note_on,82,0,120
1,note_on,80,47,0
1,note_on,80,0,120
1,note_on,79,49,0
1,note_on,79,0,120
1,note_on,77,47,0
1,note_on,77,0,120
1,note_on,75,46,0
1,note_on,75,0,120
1,note_on,74,45,0
1,note_on,74,0,120
1,note_on,73,45,0
1,note_on,73,0,120
1,note_on,74,45,0
1,note_on,74,0,120
1,note_on,75,47,0
1,note_on,75,0,120
1,note_on,74,45,0
1,note_on,74,0,120
1,note_on,72,46,0
1,note_on,72,0,120
1,note_on,71,46,0
1,note_on,71,0,120
1,note_on,68,45,0
1,note_on,68,0,120
1,note_on,67,45,0
1,note_on,67,0,120
1,note_on,66,45,0
1,note_on,66,0,120
1,note_on,67,42,0
1,note_on,67,0,120
1,note_on,68,46,0
1,note_on,68,0,120
1,note_on,65,42,0
1,note_on,65,0,120
1,note_on,63,66,0
1,note_on,63,0,90
1,note_on,72,68,150
1,note_on,84,68,0
1,note_on,84,0,480
1,note_on,72,0,0
1,note_on,83,61,0
1,note_on,83,0,120
1,note_on,84,64,0
1,note_on,84,0,120
1,note_on,86,66,0
1,note_on,86,0,120
1,note_on,84,66,0
1,note_on,84,0,120
1,note_on,82,65,0
1,note_on,82,0,120
1,note_on,80,64,0
1,note_on,80,0,120
1,note_on,79,62,0
1,note_on,79,0,120
1,note_on,80,64,0
1,note_on,80,0,120
1,note_on,82,68,0
1,note_on,82,0,120
1,note_on,80,66,0
1,note_on,80,0,120
1,note_on,79,69,0
1,note_on,79,0,120
1,note_on,77,67,0
1,note_on,77,0,120
1,note_on,75,66,0
1,note_on,75,0,120
1,note_on,74,65,0
1,note_on,74,0,120
1,note_on,73,65,0
1,note_on,73,0,120
1,note_on,74,64,0
1,note_on,74,0,120
1,note_on,75,68,0
1,note_on,75,0,120
1,note_on,74,66,0
1,note_on,74,0,120
1,note_on,72,68,0
1,note_on,72,0,120
1,note_on,71,68,0
1,note_on,71,0,120
1,note_on,68,68,0
1,note_on,68,0,120
1,note_on,67,68,0
1,note_on,67,0,120
1,note_on,66,67,0
1,note_on,66,0,120
1,note_on,67,64,0
1,note_on,67,0,120
1,note_on,68,70,0
1,note_on,68,0,120
1,note_on,67,64,0
1,note_on,67,0,120
1,note_on,72,83,0
1,note_on,72,0,120
1,note_on,60,82,120
1,note_on,60,0,480
1,note_on,58,80,0
1,note_on,64,80,0
1,note_on,64,0,120
1,note_on,58,0,0
1,note_on,56,81,120
1,note_on,65,81,0
1,note_on,65,0,120
1,note_on,56,0,0
1,note_on,64,82,120
1,note_on,67,82,0
1,note_on,67,0,120
1,note_on,64,0,0
1,note_on,65,83,120
1,note_on,68,83,0
1,note_on,68,0,120
1,note_on,65,0,0
1,note_on,62,85,120
1,note_on,71,85,0
1,note_on,71,0,120
1,note_on,62,0,0
1,note_on,63,83,120
1,note_on,72,83,0
1,note_on,72,0,120
1,note_on,63,0,0
1,note_on,64,83,120
1,note_on,72,82,0
1,note_on,72,0,480
1,note_on,64,0,0
1,note_on,70,80,0
1,note_on,76,80,0
1,note_on,76,0,120
1,note_on,70,0,0
1,note_on,68,81,120
1,note_on,77,81,0
1,note_on,77,0,120
1,note_on,68,0,0
1,note_on,76,82,120
1,note_on,79,82,0
1,note_on,79,0,120
1,note_on,76,0,0
1,note_on,77,83,120
1,note_on,80,83,0
1,note_on,80,0,120
1,note_on,77,0,0
1,note_on,74,85,120
1,note_on,83,85,0
1,note_on,83,0,120
1,note_on,74,0,0
1,note_on,72,94,120
1,note_on,84,94,0
1,note_on,75,94,0
1,note_on,75,0,960
1,note_on,84,0,0
1,note_on,72,0,0
1,note_on,60,88,0
1,note_on,63,88,0
1,note_on,72,88,0
1,note_on,72,0,960
1,note_on,63,0,0
1,note_on,60,0,0
1,note_on,72,99,0
1,note_on,84,99,0
1,note_on,75,99,0
1,note_on,75,0,960
1,note_on,84,0,0
1,note_on,72,0,0
1,note_on,60,92,0
1,note_on,63,92,0
1,note_on,72,92,0
1,note_on,72,0,960
1,note_on,63,0,0
1,note_on,60,0,0
1,note_on,81,102,0
1,note_on,84,102,0
1,note_on,75,102,0
1,note_on,87,102,0
1,note_on,87,0,960
1,note_on,81,0,0
1,note_on,84,0,0
1,note_on,75,0,0
1,note_on,60,102,0
1,note_on,54,86,0
1,note_on,57,102,0
1,note_on,63,102,0
1,note_on,63,0,960
1,note_on,60,0,0
1,note_on,54,0,0
1,note_on,57,0,0
1,note_on,66,44,1320
1,note_on,69,44,0
1,note_on,72,51,0
1,note_on,72,0,114
1,note_on,69,0,0
1,note_on,66,0,0
1,note_on,66,46,6
1,note_on,69,46,0
1,note_on,74,55,0
1,note_on,74,0,360
1,note_on,69,0,0
1,note_on,66,0,0
1,note_on,66,42,0
1,note_on,69,50,0
1,note_on,75,50,0
1,note_on,75,0,114
1,note_on,69,0,0
1,note_on,66,0,0
1,note_on,66,46,6
1,note_on,69,55,0
1,note_on,75,55,0
1,note_on,75,0,960
1,note_on,69,0,0
1,note_on,66,0,0
1,note_on,67,31,0
1,note_on,71,31,0
1,note_on,74,39,0
1,note_on,74,0,480
1,note_on,71,0,0
1,note_on,67,0,0
1,note_on,74,44,1320
1,note_on,71,44,0
1,note_on,77,52,0
1,note_on,77,0,120
1,note_on,71,0,0
1,note_on,74,0,0
1,note_on,71,46,0
1,note_on,74,46,0
1,note_on,79,55,0
1,note_on,79,0,360
1,note_on,74,0,0
1,note_on,71,0,0
1,note_on,74,51,0
1,note_on,80,51,0
1,note_on,71,43,0
1,note_on,71,0,114
1,note_on,80,0,0
1,note_on,74,0,0
1,note_on,80,55,6
1,note_on,71,46,0
1,note_on,74,55,0
1,note_on,74,0,960
1,note_on,71,0,0
1,note_on,80,0,0
1,note_on,72,32,0
1,note_on,79,39,0
1,note_on,75,32,0
1,note_on,75,0,480
1,note_on,79,0,0
1,note_on,72,0,0
1,note_on,70,55,1320
1,note_on,79,55,0
1,note_on,76,55,0
1,note_on,82,66,0
1,note_on,82,0,120
1,note_on,70,0,0
1,note_on,79,0,0
1,note_on,76,0,0
1,note_on,72,61,0
1,note_on,76,61,0
1,note_on,79,61,0
1,note_on,84,72,0
1,note_on,84,0,360
1,note_on,72,0,0
1,note_on,76,0,0
1,note_on,79,0,0
1,note_on,73,64,0
1,note_on,79,75,0
1,note_on,85,75,0
1,note_on,76,64,0
1,note_on,76,0,114
1,note_on,73,0,0
1,note_on,79,0,0
1,note_on,85,0,0
1,note_on,73,72,6
1,note_on,85,84,0
1,note_on,76,72,0
1,note_on,79,72,0
1,note_on,79,0,960
1,note_on,73,0,0
1,note_on,85,0,0
1,note_on,76,0,0
1,note_on,72,52,0
1,note_on,84,62,0
1,note_on,84,0,480
1,note_on,72,0,0
1,note_on,70,60,0
1,note_on,82,60,0
1,note_on,82,0,480
1,note_on,70,0,0
1,note_on,68,41,0
1,note_on,80,49,0
1,note_on,80,0,480
1,note_on,68,0,0
1,note_on,67,40,0
1,note_on,79,48,0
1,note_on,79,0,480
1,note_on,67,0,0
1,note_on,65,39,0
1,note_on,77,46,0
1,note_on,77,0,480
1,note_on,65,0,0
1,note_on,63,37,0
1,note_on,75,44,0
1,note_on,75,0,480
1,note_on,63,0,0
1,note_on,65,32,480
1,note_on,68,32,0
1,note_on,74,38,0
1,note_on,74,0,480
1,note_on,68,0,0
1,note_on,65,0,0
1,note_on,60,50,960
1,note_on,60,0,720
1,note_on,58,52,0
1,note_on,64,52,0
1,note_on,64,0,90
1,note_on,58,0,0
1,note_on,56,54,150
1,note_on,65,54,0
1,note_on,65,0,90
1,note_on,56,0,0
1,note_on,64,56,150
1,note_on,67,56,0
1,note_on,67,0,90
1,note_on,64,0,0
1,note_on,65,57,150
1,note_on,68,57,0
1,note_on,68,0,90
1,note_on,65,0,0
1,note_on,62,59,150
1,note_on,71,59,0
1,note_on,71,0,90
1,note_on,62,0,0
1,note_on,63,61,150
1,note_on,72,61,0
1,note_on,72,0,90
1,note_on,63,0,0
1,note_on,64,55,150
1,note_on,72,55,0
1,note_on,72,0,480
1,note_on,64,0,0
1,note_on,70,51,0
1,note_on,76,51,0
1,note_on,76,0,90
1,note_on,70,0,0
1,note_on,68,50,150
1,note_on,77,50,0
1,note_on,77,0,90
1,note_on,68,0,0
1,note_on,76,53,150
1,note_on,79,53,0
1,note_on,79,0,90
1,note_on,76,0,0
1,note_on,77,57,150
1,note_on,80,57,0
1,note_on,80,0,90
1,note_on,77,0,0
1,note_on,74,60,150
1,note_on,83,60,0
1,note_on,83,0,90
1,note_on,74,0,0
1,note_on,75,58,150
1,note_on,84,70,0
1,note_on,84,0,480
1,note_on,75,0,0
1,note_on,72,64,0
1,note_on,75,75,0
1,note_on,84,75,0
1,note_on,84,0,480
1,note_on,75,0,0
1,note_on,72,0,0
1,note_on,72,72,0
1,note_on,75,72,0
1,note_on,84,86,0
1,note_on,84,0,480
1,note_on,75,0,0
1,note_on,72,0,0
1,note_on,72,81,0
1,note_on,75,81,0
1,note_on,84,97,0
1,note_on,84,0,480
1,note_on,75,0,0
1,note_on,72,0,0
1,note_on,75,99,0
1,note_on,81,99,0
1,note_on,84,99,0
1,note_on,87,103,0
1,note_on,87,0,240
1,note_on,75,0,0
1,note_on,81,0,0
1,note_on,84,0,0
1,note_on,66,79,720
1,note_on,69,79,0
1,note_on,72,94,0
1,note_on,75,94,0
1,note_on,75,0,240
1,note_on,66,0,0
1,note_on,69,0,0
1,note_on,72,0,0
1,note_on,75,94,720
1,note_on,67,79,0
1,note_on,72,79,0
1,note_on,79,94,0
1,note_on,79,0,240
1,note_on,75,0,0
1,note_on,67,0,0
1,note_on,72,0,0
1,note_on,50,86,720
1,note_on,55,103,0
1,note_on,59,103,0
1,note_on,53,86,0
1,note_on,53,0,240
1,note_on,50,0,0
1,note_on,55,0,0
1,note_on,59,0,0
1,note_on,55,103,720
1,note_on,60,103,0
1,note_on,51,86,0
1,note_on,51,0,240
1,note_on,60,0,0
1,note_on,55,0,0
2,note_on,36,70,0
2,note_on,39,70,0
2,note_on,43,70,0
2,note_on,48,81,0
2,note_on,48,0,1320
2,note_on,36,0,0
2,note_on,39,0,0
2,note_on,43,0,0
2,note_on,51,36,0
2,note_on,51,0,120
2,note_on,50,41,0
2,note_on,50,0,360
2,note_on,48,36,0
2,note_on,48,0,108
2,note_on,54,39,12
2,note_on,54,0,960
2,note_on,55,25,0
2,note_on,55,0,480
2,note_on,44,89,360
2,note_on,44,0,120
2,note_on,56,93,0
2,note_on,56,0,1320
2,note_on,56,38,0
2,note_on,56,0,108
2,note_on,55,43,12
2,note_on,55,0,360
2,note_on,53,38,0
2,note_on,53,0,108
2,note_on,51,37,12
2,note_on,51,0,1440
2,note_on,51,86,360
2,note_on,51,0,120
2,note_on,63,91,0
2,note_on,63,0,1320
2,note_on,63,45,0
2,note_on,63,0,108
2,note_on,62,52,12
2,note_on,62,0,360
2,note_on,60,52,0
2,note_on,60,0,108
2,note_on,60,65,12
2,note_on,60,0,960
2,note_on,59,35,0
2,note_on,59,0,120
2,note_on,63,47,240
2,note_on,63,0,108
2,note_on,62,54,12
2,note_on,62,0,360
2,note_on,60,54,0
2,note_on,60,0,108
2,note_on,60,71,12
2,note_on,60,0,960
2,note_on,59,43,0
2,note_on,62,51,0
2,note_on,62,0,480
2,note_on,59,0,0
2,note_on,64,57,0
2,note_on,58,48,0
2,note_on,60,48,0
2,note_on,60,0,480
2,note_on,58,0,0
2,note_on,64,0,0
2,note_on,65,64,0
2,note_on,60,53,0
2,note_on,56,53,0
2,note_on,56,0,240
2,note_on,60,0,0
2,note_on,65,0,0
2,note_on,34,84,720
2,note_on,46,84,0
2,note_on,46,0,960
2,note_on,34,0,0
2,note_on,39,45,0
2,note_on,51,50,0
2,note_on,51,0,228
2,note_on,39,0,0
2,note_on,51,22,12
2,note_on,55,27,0
2,note_on,58,32,0
2,note_on,58,0,228
2,note_on,55,0,0
2,note_on,51,0,0
2,note_on,51,22,12
2,note_on,55,27,0
2,note_on,58,32,0
2,note_on,58,0,228
2,note_on,55,0,0
2,note_on,51,0,0
2,note_on,51,22,12
2,note_on,55,27,0
2,note_on,58,32,0
2,note_on,58,0,228
2,note_on,55,0,0
2,note_on,51,0,0
2,note_on,51,22,12
2,note_on,55,27,0
2,note_on,58,32,0
2,note_on,58,0,228
2,note_on,55,0,0
2,note_on,51,0,0
2,note_on,51,22,12
2,note_on,55,27,0
2,note_on,58,32,0
2,note_on,58,0,228
2,note_on,55,0,0
2,note_on,51,0,0
2,note_on,51,22,12
2,note_on,55,27,0
2,note_on,58,32,0
2,note_on,58,0,228
2,note_on,55,0,0
2,note_on,51,0,0
2,note_on,51,22,12
2,note_on,55,27,0
2,note_on,58,32,0
2,note_on,58,0,228
2,note_on,55,0,0
2,note_on,51,0,0
2,note_on,51,23,12
2,note_on,56,27,0
2,note_on,60,33,0
2,note_on,60,0,228
2,note_on,56,0,0
2,note_on,51,0,0
2,note_on,51,24,12
2,note_on,56,28,0
2,note_on,60,34,0
2,note_on,60,0,228
2,note_on,56,0,0
2,note_on,51,0,0
2,note_on,51,24,12
2,note_on,56,28,0
2,note_on,60,34,0
2,note_on,60,0,228
2,note_on,56,0,0
2,note_on,51,0,0
2,note_on,51,24,12
2,note_on,56,28,0
2,note_on,60,34,0
2,note_on,60,0,228
2,note_on,56,0,0
2,note_on,51,0,0
2,note_on,38,68,12
2,note_on,50,81,0
2,note_on,50,0,228
2,note_on,38,0,0
2,note_on,38,68,12
2,note_on,50,81,0
2,note_on,50,0,228
2,note_on,38,0,0
2,note_on,36,68,12
2,note_on,48,81,0
2,note_on,48,0,228
2,note_on,36,0,0
2,note_on,36,68,12
2,note_on,48,81,0
2,note_on,48,0,228
2,note_on,36,0,0
2,note_on,35,68,12
2,note_on,47,81,0
2,note_on,47,0,228
2,note_on,35,0,0
2,note_on,47,18,12
2,note_on,50,18,0
2,note_on,53,23,0
2,note_on,56,28,0
2,note_on,56,0,228
2,note_on,47,0,0
2,note_on,50,0,0
2,note_on,53,0,0
2,note_on,47,18,12
2,note_on,50,18,0
2,note_on,53,23,0
2,note_on,56,28,0
2,note_on,56,0,228
2,note_on,47,0,0
2,note_on,50,0,0
2,note_on,53,0,0
2,note_on,47,18,12
2,note_on,50,18,0
2,note_on,53,23,0
2,note_on,56,28,0
2,note_on,56,0,228
2,note_on,47,0,0
2,note_on,50,0,0
2,note_on,53,0,0
2,note_on,46,18,12
2,note_on,50,18,0
2,note_on,53,23,0
2,note_on,56,28,0
2,note_on,56,0,228
2,note_on,46,0,0
2,note_on,50,0,0
2,note_on,53,0,0
2,note_on,46,18,12
2,note_on,50,18,0
2,note_on,53,23,0
2,note_on,56,28,0
2,note_on,56,0,228
2,note_on,46,0,0
2,note_on,50,0,0
2,note_on,53,0,0
2,note_on,46,18,12
2,note_on,50,18,0
2,note_on,53,23,0
2,note_on,56,28,0
2,note_on,56,0,228
2,note_on,46,0,0
2,note_on,50,0,0
2,note_on,53,0,0
2,note_on,46,18,12
2,note_on,50,18,0
2,note_on,53,23,0
2,note_on,56,28,0
2,note_on,56,0,228
2,note_on,46,0,0
2,note_on,50,0,0
2,note_on,53,0,0
2,note_on,46,19,12
2,note_on,49,19,0
2,note_on,52,24,0
2,note_on,55,28,0
2,note_on,55,0,228
2,note_on,46,0,0
2,note_on,49,0,0
2,note_on,52,0,0
2,note_on,46,19,12
2,note_on,49,19,0
2,note_on,52,25,0
2,note_on,55,29,0
2,note_on,55,0,228
2,note_on,46,0,0
2,note_on,49,0,0
2,note_on,52,0,0
2,note_on,46,19,12
2,note_on,49,19,0
2,note_on,52,25,0
2,note_on,55,29,0
2,note_on,55,0,228
2,note_on,46,0,0
2,note_on,49,0,0
2,note_on,52,0,0
2,note_on,46,19,12
2,note_on,49,19,0
2,note_on,52,25,0
2,note_on,55,29,0
2,note_on,55,0,228
2,note_on,46,0,0
2,note_on,49,0,0
2,note_on,52,0,0
2,note_on,33,68,12
2,note_on,45,81,0
2,note_on,45,0,228
2,note_on,33,0,0
2,note_on,33,68,12
2,note_on,45,81,0
2,note_on,45,0,228
2,note_on,33,0,0
2,note_on,31,68,12
2,note_on,43,81,0
2,note_on,43,0,228
2,note_on,31,0,0
2,note_on,31,68,12
2,note_on,43,81,0
2,note_on,43,0,228
2,note_on,31,0,0
2,note_on,30,68,12
2,note_on,42,81,0
2,note_on,42,0,228
2,note_on,30,0,0
2,note_on,54,24,12
2,note_on,57,28,0
2,note_on,62,34,0
2,note_on,62,0,228
2,note_on,57,0,0
2,note_on,54,0,0
2,note_on,54,24,12
2,note_on,57,28,0
2,note_on,62,34,0
2,note_on,62,0,228
2,note_on,57,0,0
2,note_on,54,0,0
2,note_on,54,24,12
2,note_on,57,28,0
2,note_on,62,34,0
2,note_on,62,0,228
2,note_on,57,0,0
2,note_on,54,0,0
2,note_on,54,24,12
2,note_on,57,28,0
2,note_on,62,34,0
2,note_on,62,0,228
2,note_on,57,0,0
2,note_on,54,0,0
2,note_on,54,24,12
2,note_on,57,28,0
2,note_on,62,34,0
2,note_on,62,0,228
2,note_on,57,0,0
2,note_on,54,0,0
2,note_on,54,24,12
2,note_on,57,28,0
2,note_on,62,34,0
2,note_on,62,0,228
2,note_on,57,0,0
2,note_on,54,0,0
2,note_on,54,24,12
2,note_on,57,28,0
2,note_on,62,34,0
2,note_on,62,0,228
2,note_on,57,0,0
2,note_on,54,0,0
2,note_on,53,25,12
2,note_on,56,29,0
2,note_on,62,35,0
2,note_on,62,0,228
2,note_on,56,0,0
2,note_on,53,0,0
2,note_on,53,25,12
2,note_on,56,30,0
2,note_on,62,36,0
2,note_on,62,0,228
2,note_on,56,0,0
2,note_on,53,0,0
2,note_on,53,25,12
2,note_on,56,30,0
2,note_on,62,36,0
2,note_on,62,0,228
2,note_on,56,0,0
2,note_on,53,0,0
2,note_on,53,25,12
2,note_on,56,30,0
2,note_on,62,36,0
2,note_on,62,0,228
2,note_on,56,0,0
2,note_on,53,0,0
2,note_on,50,35,12
2,note_on,53,42,0
2,note_on,59,50,0
2,note_on,59,0,228
2,note_on,53,0,0
2,note_on,50,0,0
2,note_on,50,35,12
2,note_on,53,42,0
2,note_on,59,50,0
2,note_on,59,0,228
2,note_on,53,0,0
2,note_on,50,0,0
2,note_on,50,35,12
2,note_on,53,42,0
2,note_on,59,50,0
2,note_on,59,0,228
2,note_on,53,0,0
2,note_on,50,0,0
2,note_on,50,35,12
2,note_on,53,42,0
2,note_on,59,50,0
2,note_on,59,0,228
2,note_on,53,0,0
2,note_on,50,0,0
2,note_on,47,47,12
2,note_on,50,47,0
2,note_on,56,56,0
2,note_on,56,0,228
2,note_on,50,0,0
2,note_on,47,0,0
2,note_on,47,49,12
2,note_on,50,49,0
2,note_on,56,58,0
2,note_on,56,0,228
2,note_on,50,0,0
2,note_on,47,0,0
2,note_on,47,44,12
2,note_on,50,44,0
2,note_on,56,52,0
2,note_on,56,0,228
2,note_on,50,0,0
2,note_on,47,0,0
2,note_on,47,44,12
2,note_on,50,44,0
2,note_on,56,52,0
2,note_on,56,0,228
2,note_on,50,0,0
2,note_on,47,0,0
2,note_on,44,45,12
2,note_on,47,53,0
2,note_on,53,63,0
2,note_on,53,0,228
2,note_on,47,0,0
2,note_on,44,0,0
2,note_on,44,45,12
2,note_on,47,53,0
2,note_on,53,63,0
2,note_on,53,0,228
2,note_on,47,0,0
2,note_on,44,0,0
2,note_on,44,45,12
2,note_on,47,53,0
2,note_on,53,63,0
2,note_on,53,0,228
2,note_on,47,0,0
2,note_on,44,0,0
2,note_on,44,45,12
2,note_on,47,53,0
2,note_on,53,63,0
2,note_on,53,0,228
2,note_on,47,0,0
2,note_on,44,0,0
2,note_on,43,45,12
2,note_on,47,53,0
2,note_on,53,64,0
2,note_on,53,0,228
2,note_on,47,0,0
2,note_on,43,0,0
2,note_on,43,45,12
2,note_on,47,53,0
2,note_on,53,64,0
2,note_on,53,0,228
2,note_on,47,0,0
2,note_on,43,0,0
2,note_on,43,45,12
2,note_on,47,53,0
2,note_on,53,64,0
2,note_on,53,0,228
2,note_on,47,0,0
2,note_on,43,0,0
2,note_on,43,45,12
2,note_on,47,53,0
2,note_on,53,64,0
2,note_on,53,0,228
2,note_on,47,0,0
2,note_on,43,0,0
2,note_on,44,46,12
2,note_on,48,55,0
2,note_on,53,66,0
2,note_on,53,0,228
2,note_on,48,0,0
2,note_on,44,0,0
2,note_on,44,48,12
2,note_on,48,57,0
2,note_on,53,68,0
2,note_on,53,0,228
2,note_on,48,0,0
2,note_on,44,0,0
2,note_on,44,50,12
2,note_on,48,60,0
2,note_on,53,70,0
2,note_on,53,0,228
2,note_on,48,0,0
2,note_on,44,0,0
2,note_on,44,51,12
2,note_on,48,61,0
2,note_on,53,73,0
2,note_on,53,0,228
2,note_on,48,0,0
2,note_on,44,0,0
2,note_on,43,75,12
2,note_on,47,75,0
2,note_on,53,75,0
2,note_on,53,0,480
2,note_on,47,0,0
2,note_on,43,0,0
2,note_on,67,35,960
2,note_on,74,42,0
2,note_on,74,0,120
2,note_on,67,0,0
2,note_on,67,35,120
2,note_on,74,42,0
2,note_on,74,0,120
2,note_on,67,0,0
2,note_on,68,35,120
2,note_on,72,42,0
2,note_on,72,0,480
2,note_on,68,0,0
2,note_on,60,28,2880
2,note_on,53,28,0
2,note_on,62,34,0
2,note_on,62,0,120
2,note_on,53,0,0
2,note_on,60,0,0
2,note_on,60,28,120
2,note_on,53,28,0
2,note_on,62,34,0
2,note_on,62,0,120
2,note_on,53,0,0
2,note_on,60,0,0
2,note_on,60,28,120
2,note_on,55,28,0
2,note_on,63,34,0
2,note_on,63,0,480
2,note_on,55,0,0
2,note_on,60,0,0
2,note_on,43,33,480
2,note_on,50,33,0
2,note_on,53,40,0
2,note_on,53,0,480
2,note_on,50,0,0
2,note_on,43,0,0
2,note_on,36,44,960
2,note_on,48,41,120
2,note_on,36,0,108
2,note_on,48,0,12
2,note_on,36,44,0
2,note_on,48,41,120
2,note_on,36,0,108
2,note_on,48,0,12
2,note_on,36,44,0
2,note_on,48,41,120
2,note_on,36,0,108
2,note_on,48,0,12
2,note_on,36,45,0
2,note_on,48,41,120
2,note_on,36,0,108
2,note_on,48,0,12
2,note_on,36,45,0
2,note_on,48,46,120
2,note_on,36,0,108
2,note_on,48,0,12
2,note_on,36,47,0
2,note_on,48,47,120
2,note_on,36,0,108
2,note_on,48,0,12
2,note_on,36,49,0
2,note_on,48,50,120
2,note_on,36,0,108
2,note_on,48,0,12
2,note_on,36,51,0
2,note_on,48,53,120
2,note_on,36,0,108
2,note_on,48,0,12
2,note_on,36,55,0
2,note_on,48,50,120
2,note_on,36,0,108
2,note_on,48,0,12
2,note_on,36,53,0
2,note_on,48,47,120
2,note_on,36,0,108
2,note_on,48,0,12
2,note_on,36,53,0
2,note_on,48,47,120
2,note_on,36,0,108
2,note_on,48,0,12
2,note_on,36,44,0
2,note_on,48,40,120
2,note_on,36,0,108
2,note_on,48,0,12
2,note_on,36,43,0
2,note_on,48,45,120
2,note_on,36,0,108
2,note_on,48,0,12
2,note_on,36,46,0
2,note_on,48,47,120
2,note_on,36,0,108
2,note_on,48,0,12
2,note_on,36,48,0
2,note_on,48,50,120
2,note_on,36,0,108
2,note_on,48,0,12
2,note_on,36,51,0
2,note_on,48,53,120
2,note_on,36,0,108
2,note_on,48,0,12
2,note_on,36,55,0
2,note_on,48,50,120
2,note_on,36,0,108
2,note_on,48,0,12
2,note_on,36,53,0
2,note_on,48,47,120
2,note_on,36,0,108
2,note_on,48,0,12
2,note_on,38,55,0
2,note_on,50,50,120
2,note_on,38,0,108
2,note_on,50,0,12
2,note_on,38,55,0
2,note_on,50,51,120
2,note_on,38,0,108
2,note_on,50,0,12
2,note_on,39,55,0
2,note_on,51,55,120
2,note_on,39,0,108
2,note_on,51,0,12
2,note_on,39,55,0
2,note_on,51,55,120
2,note_on,39,0,108
2,note_on,51,0,12
2,note_on,41,55,0
2,note_on,53,53,120
2,note_on,41,0,108
2,note_on,53,0,12
2,note_on,41,55,0
2,note_on,53,55,120
2,note_on,41,0,108
2,note_on,53,0,12
2,note_on,43,56,0
2,note_on,55,56,120
2,note_on,43,0,108
2,note_on,55,0,12
2,note_on,43,57,0
2,note_on,55,57,120
2,note_on,43,0,108
2,note_on,55,0,12
2,note_on,44,58,0
2,note_on,56,59,120
2,note_on,44,0,108
2,note_on,56,0,12
2,note_on,44,59,0
2,note_on,56,60,120
2,note_on,44,0,108
2,note_on,56,0,12
2,note_on,42,60,0
2,note_on,54,55,120
2,note_on,42,0,108
2,note_on,54,0,12
2,note_on,42,61,0
2,note_on,54,55,120
2,note_on,42,0,108
2,note_on,54,0,12
2,note_on,43,58,0
2,note_on,55,55,120
2,note_on,43,0,108
2,note_on,55,0,12
2,note_on,43,58,0
2,note_on,55,55,120
2,note_on,43,0,108
2,note_on,55,0,12
2,note_on,36,48,0
2,note_on,48,45,120
2,note_on,36,0,108
2,note_on,48,0,12
2,note_on,36,44,0
2,note_on,48,41,120
2,note_on,36,0,108
2,note_on,48,0,12
2,note_on,36,44,0
2,note_on,48,40,120
2,note_on,36,0,108
2,note_on,48,0,12
2,note_on,36,44,0
2,note_on,48,41,120
2,note_on,36,0,108
2,note_on,48,0,12
2,note_on,36,44,0
2,note_on,48,46,120
2,note_on,36,0,108
2,note_on,48,0,12
2,note_on,36,47,0
2,note_on,48,47,120
2,note_on,36,0,108
2,note_on,48,0,12
2,note_on,36,49,0
2,note_on,48,50,120
2,note_on,36,0,108
2,note_on,48,0,12
2,note_on,36,51,0
2,note_on,48,53,120
2,note_on,36,0,108
2,note_on,48,0,12
2,note_on,36,55,0
2,note_on,48,50,120
2,note_on,36,0,108
2,note_on,48,0,12
2,note_on,36,53,0
2,note_on,48,47,120
2,note_on,36,0,108
2,note_on,48,0,12
2,note_on,36,53,0
2,note_on,48,47,120
2,note_on,36,0,108
2,note_on,48,0,12
2,note_on,36,44,0
2,note_on,48,40,120
2,note_on,36,0,108
2,note_on,48,0,12
2,note_on,36,43,0
2,note_on,48,45,120
2,note_on,36,0,108
2,note_on,48,0,12
2,note_on,36,46,0
2,note_on,48,47,120
2,note_on,36,0,108
2,note_on,48,0,12
2,note_on,36,48,0
2,note_on,48,50,120
2,note_on,36,0,108
2,note_on,48,0,12
2,note_on,36,51,0
2,note_on,48,53,120
2,note_on,36,0,108
2,note_on,48,0,12
2,note_on,36,55,0
2,note_on,48,50,120
2,note_on,36,0,108
2,note_on,48,0,12
2,note_on,36,53,0
2,note_on,48,47,120
2,note_on,36,0,108
2,note_on,48,0,12
2,note_on,38,55,0
2,note_on,50,50,120
2,note_on,38,0,108
2,note_on,50,0,12
2,note_on,38,55,0
2,note_on,50,51,120
2,note_on,38,0,108
2,note_on,50,0,12
2,note_on,39,55,0
2,note_on,51,55,120
2,note_on,39,0,108
2,note_on,51,0,12
2,note_on,39,55,0
2,note_on,51,55,120
2,note_on,39,0,108
2,note_on,51,0,12
2,note_on,41,55,0
2,note_on,53,53,120
2,note_on,41,0,108
2,note_on,53,0,12
2,note_on,41,55,0
2,note_on,53,55,120
2,note_on,41,0,108
2,note_on,53,0,12
2,note_on,43,56,0
2,note_on,55,56,120
2,note_on,43,0,108
2,note_on,55,0,12
2,note_on,43,57,0
2,note_on,55,57,120
2,note_on,43,0,108
2,note_on,55,0,12
2,note_on,44,58,0
2,note_on,56,59,120
2,note_on,44,0,108
2,note_on,56,0,12
2,note_on,44,59,0
2,note_on,56,60,120
2,note_on,44,0,108
2,note_on,56,0,12
2,note_on,42,60,0
2,note_on,54,55,120
2,note_on,42,0,108
2,note_on,54,0,12
2,note_on,42,61,0
2,note_on,54,55,120
2,note_on,42,0,108
2,note_on,54,0,12
2,note_on,42,58,0
2,note_on,54,55,120
2,note_on,42,0,108
2,note_on,54,0,12
2,note_on,42,58,0
2,note_on,54,55,120
2,note_on,42,0,108
2,note_on,54,0,12
2,note_on,43,55,0
2,note_on,55,55,0
2,note_on,55,0,240
2,note_on,43,0,0
2,note_on,62,50,0
2,note_on,59,50,0
2,note_on,59,0,228
2,note_on,62,0,0
2,note_on,62,50,12
2,note_on,59,50,0
2,note_on,59,0,228
2,note_on,62,0,0
2,note_on,59,50,12
2,note_on,62,50,0
2,note_on,62,0,228
2,note_on,59,0,0
2,note_on,55,50,12
2,note_on,55,0,240
2,note_on,63,50,0
2,note_on,60,50,0
2,note_on,60,0,228
2,note_on,63,0,0
2,note_on,63,50,12
2,note_on,60,50,0
2,note_on,60,0,228
2,note_on,63,0,0
2,note_on,63,50,12
2,note_on,60,50,0
2,note_on,60,0,228
2,note_on,63,0,0
2,note_on,65,50,12
2,note_on,62,50,0
2,note_on,62,0,240
2,note_on,65,0,0
2,note_on,32,55,1200
2,note_on,32,0,120
2,note_on,44,55,0
2,note_on,44,0,120
2,note_on,32,55,0
2,note_on,32,0,120
2,note_on,44,55,0
2,note_on,44,0,120
2,note_on,31,50,0
2,note_on,43,50,0
2,note_on,43,0,240
2,note_on,31,0,0
2,note_on,62,50,0
2,note_on,59,50,0
2,note_on,59,0,228
2,note_on,62,0,0
2,note_on,62,50,12
2,note_on,59,50,0
2,note_on,59,0,228
2,note_on,62,0,0
2,note_on,59,50,12
2,note_on,62,50,0
2,note_on,62,0,228
2,note_on,59,0,0
2,note_on,55,50,12
2,note_on,55,0,240
2,note_on,63,50,0
2,note_on,60,50,0
2,note_on,60,0,228
2,note_on,63,0,0
2,note_on,63,50,12
2,note_on,60,50,0
2,note_on,60,0,228
2,note_on,63,0,0
2,note_on,63,50,12
2,note_on,60,50,0
2,note_on,60,0,228
2,note_on,63,0,0
2,note_on,65,50,12
2,note_on,62,50,0
2,note_on,62,0,240
2,note_on,65,0,0
2,note_on,32,55,1200
2,note_on,44,55,120
2,note_on,32,0,108
2,note_on,44,0,12
2,note_on,32,55,0
2,note_on,44,49,120
2,note_on,32,0,108
2,note_on,44,0,12
2,note_on,31,50,0
2,note_on,43,51,120
2,note_on,31,0,108
2,note_on,43,0,12
2,note_on,31,51,0
2,note_on,43,52,120
2,note_on,31,0,108
2,note_on,43,0,12
2,note_on,31,53,0
2,note_on,43,54,120
2,note_on,31,0,108
2,note_on,43,0,12
2,note_on,31,55,0
2,note_on,43,56,120
2,note_on,31,0,108
2,note_on,43,0,12
2,note_on,31,57,0
2,note_on,43,58,120
2,note_on,31,0,108
2,note_on,43,0,12
2,note_on,31,59,0
2,note_on,43,60,120
2,note_on,31,0,108
2,note_on,43,0,12
2,note_on,31,61,0
2,note_on,43,61,120
2,note_on,31,0,108
2,note_on,43,0,12
2,note_on,31,62,0
2,note_on,43,63,120
2,note_on,31,0,108
2,note_on,43,0,12
2,note_on,31,64,0
2,note_on,43,55,120
2,note_on,31,0,108
2,note_on,43,0,12
2,note_on,31,61,0
2,note_on,43,55,120
2,note_on,31,0,108
2,note_on,43,0,12
2,note_on,31,61,0
2,note_on,43,55,120
2,note_on,31,0,108
2,note_on,43,0,12
2,note_on,31,60,0
2,note_on,43,55,120
2,note_on,31,0,108
2,note_on,43,0,12
2,note_on,31,64,0
2,note_on,43,55,120
2,note_on,31,0,108
2,note_on,43,0,12
2,note_on,31,61,0
2,note_on,43,55,120
2,note_on,31,0,108
2,note_on,43,0,12
2,note_on,31,61,0
2,note_on,43,55,120
2,note_on,31,0,108
2,note_on,43,0,12
2,note_on,31,60,0
2,note_on,43,55,120
2,note_on,31,0,108
2,note_on,43,0,12
2,note_on,32,50,0
2,note_on,44,51,120
2,note_on,32,0,108
2,note_on,44,0,12
2,note_on,32,51,0
2,note_on,44,52,120
2,note_on,32,0,108
2,note_on,44,0,12
2,note_on,32,53,0
2,note_on,44,54,120
2,note_on,32,0,108
2,note_on,44,0,12
2,note_on,32,55,0
2,note_on,44,56,120
2,note_on,32,0,108
2,note_on,44,0,12
2,note_on,32,57,0
2,note_on,44,58,120
2,note_on,32,0,108
2,note_on,44,0,12
2,note_on,32,59,0
2,note_on,44,60,120
2,note_on,32,0,108
2,note_on,44,0,12
2,note_on,32,61,0
2,note_on,44,61,120
2,note_on,32,0,108
2,note_on,44,0,12
2,note_on,32,62,0
2,note_on,44,63,120
2,note_on,32,0,108
2,note_on,44,0,12
2,note_on,32,64,0
2,note_on,44,55,120
2,note_on,32,0,108
2,note_on,44,0,12
2,note_on,32,61,0
2,note_on,44,55,120
2,note_on,32,0,108
2,note_on,44,0,12
2,note_on,32,61,0
2,note_on,44,55,120
2,note_on,32,0,108
2,note_on,44,0,12
2,note_on,32,60,0
2,note_on,44,55,120
2,note_on,32,0,108
2,note_on,44,0,12
2,note_on,33,64,0
2,note_on,45,55,120
2,note_on,33,0,108
2,note_on,45,0,12
2,note_on,33,61,0
2,note_on,45,55,120
2,note_on,33,0,108
2,note_on,45,0,12
2,note_on,33,61,0
2,note_on,45,55,120
2,note_on,33,0,108
2,note_on,45,0,12
2,note_on,33,60,0
2,note_on,45,55,120
2,note_on,33,0,108
2,note_on,45,0,12
2,note_on,34,50,0
2,note_on,46,51,120
2,note_on,34,0,108
2,note_on,46,0,12
2,note_on,34,51,0
2,note_on,46,52,120
2,note_on,34,0,108
2,note_on,46,0,12
2,note_on,34,53,0
2,note_on,46,54,120
2,note_on,34,0,108
2,note_on,46,0,12
2,note_on,34,55,0
2,note_on,46,56,120
2,note_on,34,0,108
2,note_on,46,0,12
2,note_on,34,57,0
2,note_on,46,58,120
2,note_on,34,0,108
2,note_on,46,0,12
2,note_on,34,59,0
2,note_on,46,60,120
2,note_on,34,0,108
2,note_on,46,0,12
2,note_on,34,61,0
2,note_on,46,61,120
2,note_on,34,0,108
2,note_on,46,0,12
2,note_on,34,62,0
2,note_on,46,63,120
2,note_on,34,0,108
2,note_on,46,0,12
2,note_on,34,64,0
2,note_on,46,55,120
2,note_on,34,0,108
2,note_on,46,0,12
2,note_on,34,61,0
2,note_on,46,55,120
2,note_on,34,0,108
2,note_on,46,0,12
2,note_on,34,61,0
2,note_on,46,55,120
2,note_on,34,0,108
2,note_on,46,0,12
2,note_on,34,60,0
2,note_on,46,55,120
2,note_on,34,0,108
2,note_on,46,0,12
2,note_on,34,64,0
2,note_on,46,55,120
2,note_on,34,0,108
2,note_on,46,0,12
2,note_on,34,61,0
2,note_on,46,55,120
2,note_on,34,0,108
2,note_on,46,0,12
2,note_on,34,61,0
2,note_on,46,55,120
2,note_on,34,0,108
2,note_on,46,0,12
2,note_on,34,60,0
2,note_on,46,55,120
2,note_on,34,0,108
2,note_on,46,0,12
2,note_on,34,64,0
2,note_on,46,55,120
2,note_on,34,0,108
2,note_on,46,0,12
2,note_on,34,61,0
2,note_on,46,55,120
2,note_on,34,0,108
2,note_on,46,0,12
2,note_on,34,61,0
2,note_on,46,55,120
2,note_on,34,0,108
2,note_on,46,0,12
2,note_on,34,60,0
2,note_on,46,55,120
2,note_on,34,0,108
2,note_on,46,0,12
2,note_on,34,64,0
2,note_on,46,55,120
2,note_on,34,0,108
2,note_on,46,0,12
2,note_on,34,61,0
2,note_on,46,55,120
2,note_on,34,0,108
2,note_on,46,0,12
2,note_on,34,61,0
2,note_on,46,55,120
2,note_on,34,0,108
2,note_on,46,0,12
2,note_on,34,60,0
2,note_on,46,55,120
2,note_on,34,0,108
2,note_on,46,0,12
2,note_on,46,55,0
2,note_on,34,64,0
2,note_on,34,0,240
2,note_on,46,0,0
2,note_on,58,44,1680
2,note_on,63,38,240
2,note_on,66,38,0
2,note_on,66,0,228
2,note_on,63,0,0
2,note_on,63,38,12
2,note_on,66,38,0
2,note_on,66,0,228
2,note_on,63,0,0
2,note_on,63,38,12
2,note_on,66,38,0
2,note_on,66,0,228
2,note_on,63,0,0
2,note_on,58,0,12
2,note_on,58,44,0
2,note_on,63,38,240
2,note_on,66,38,0
2,note_on,66,0,228
2,note_on,63,0,0
2,note_on,63,38,12
2,note_on,66,38,0
2,note_on,66,0,228
2,note_on,63,0,0
2,note_on,63,38,12
2,note_on,66,38,0
2,note_on,66,0,228
2,note_on,63,0,0
2,note_on,58,0,12
2,note_on,58,44,0
2,note_on,63,38,240
2,note_on,66,38,0
2,note_on,66,0,228
2,note_on,63,0,0
2,note_on,63,38,12
2,note_on,66,38,0
2,note_on,66,0,228
2,note_on,63,0,0
2,note_on,63,38,12
2,note_on,66,38,0
2,note_on,66,0,228
2,note_on,63,0,0
2,note_on,58,0,12
2,note_on,58,44,0
2,note_on,63,38,240
2,note_on,66,38,0
2,note_on,66,0,228
2,note_on,63,0,0
2,note_on,63,38,12
2,note_on,66,38,0
2,note_on,66,0,228
2,note_on,63,0,0
2,note_on,63,38,12
2,note_on,66,38,0
2,note_on,66,0,240
2,note_on,63,0,0
2,note_on,58,0,0
2,note_on,58,44,0
2,note_on,65,38,240
2,note_on,68,38,0
2,note_on,68,0,228
2,note_on,65,0,0
2,note_on,65,38,12
2,note_on,68,38,0
2,note_on,68,0,228
2,note_on,65,0,0
2,note_on,65,38,12
2,note_on,68,38,0
2,note_on,68,0,228
2,note_on,65,0,0
2,note_on,58,0,12
2,note_on,58,44,0
2,note_on,65,38,240
2,note_on,68,38,0
2,note_on,68,0,228
2,note_on,65,0,0
2,note_on,65,38,12
2,note_on,68,38,0
2,note_on,68,0,228
2,note_on,65,0,0
2,note_on,65,38,12
2,note_on,68,38,0
2,note_on,68,0,228
2,note_on,65,0,0
2,note_on,58,0,12
2,note_on,58,44,0
2,note_on,65,38,240
2,note_on,68,38,0
2,note_on,68,0,228
2,note_on,65,0,0
2,note_on,65,38,12
2,note_on,68,38,0
2,note_on,68,0,228
2,note_on,65,0,0
2,note_on,65,38,12
2,note_on,68,38,0
2,note_on,68,0,228
2,note_on,65,0,0
2,note_on,58,0,12
2,note_on,58,44,0
2,note_on,65,38,240
2,note_on,68,38,0
2,note_on,68,0,228
2,note_on,65,0,0
2,note_on,65,38,12
2,note_on,68,38,0
2,note_on,68,0,228
2,note_on,65,0,0
2,note_on,65,38,12
2,note_on,68,38,0
2,note_on,68,0,228
2,note_on,65,0,0
2,note_on,58,0,12
2,note_on,58,44,0
2,note_on,63,38,240
2,note_on,66,38,0
2,note_on,66,0,228
2,note_on,63,0,0
2,note_on,63,38,12
2,note_on,66,38,0
2,note_on,66,0,228
2,note_on,63,0,0
2,note_on,63,38,12
2,note_on,66,38,0
2,note_on,66,0,228
2,note_on,63,0,0
2,note_on,58,0,12
2,note_on,58,44,0
2,note_on,63,38,240
2,note_on,66,38,0
2,note_on,66,0,228
2,note_on,63,0,0
2,note_on,63,38,12
2,note_on,66,38,0
2,note_on,66,0,228
2,note_on,63,0,0
2,note_on,63,38,12
2,note_on,66,38,0
2,note_on,66,0,228
2,note_on,63,0,0
2,note_on,58,0,12
2,note_on,58,44,0
2,note_on,63,38,240
2,note_on,66,38,0
2,note_on,66,0,228
2,note_on,63,0,0
2,note_on,63,38,12
2,note_on,66,38,0
2,note_on,66,0,228
2,note_on,63,0,0
2,note_on,63,38,12
2,note_on,66,38,0
2,note_on,66,0,228
2,note_on,63,0,0
2,note_on,58,0,12
2,note_on,58,44,0
2,note_on,63,38,240
2,note_on,66,38,0
2,note_on,66,0,228
2,note_on,63,0,0
2,note_on,63,38,12
2,note_on,66,38,0
2,note_on,66,0,228
2,note_on,63,0,0
2,note_on,63,38,12
2,note_on,66,38,0
2,note_on,66,0,228
2,note_on,63,0,0
2,note_on,58,0,12
2,note_on,56,44,0
2,note_on,63,38,240
2,note_on,66,38,0
2,note_on,66,0,228
2,note_on,63,0,0
2,note_on,63,38,12
2,note_on,66,38,0
2,note_on,66,0,228
2,note_on,63,0,0
2,note_on,63,38,12
2,note_on,66,38,0
2,note_on,66,0,228
2,note_on,63,0,0
2,note_on,56,0,12
2,note_on,56,44,0
2,note_on,63,38,240
2,note_on,66,38,0
2,note_on,66,0,228
2,note_on,63,0,0
2,note_on,63,38,12
2,note_on,66,38,0
2,note_on,66,0,228
2,note_on,63,0,0
2,note_on,63,38,12
2,note_on,66,38,0
2,note_on,66,0,228
2,note_on,63,0,0
2,note_on,56,0,12
2,note_on,56,44,0
2,note_on,63,38,240
2,note_on,66,38,0
2,note_on,66,0,228
2,note_on,63,0,0
2,note_on,63,38,12
2,note_on,66,38,0
2,note_on,66,0,228
2,note_on,63,0,0
2,note_on,63,38,12
2,note_on,66,38,0
2,note_on,66,0,228
2,note_on,63,0,0
2,note_on,56,0,12
2,note_on,56,44,0
2,note_on,63,38,240
2,note_on,66,38,0
2,note_on,66,0,228
2,note_on,63,0,0
2,note_on,63,38,12
2,note_on,66,38,0
2,note_on,66,0,228
2,note_on,63,0,0
2,note_on,63,38,12
2,note_on,66,38,0
2,note_on,66,0,228
2,note_on,63,0,0
2,note_on,56,0,12
2,note_on,56,44,0
2,note_on,61,38,240
2,note_on,65,38,0
2,note_on,65,0,228
2,note_on,61,0,0
2,note_on,61,38,12
2,note_on,65,38,0
2,note_on,65,0,228
2,note_on,61,0,0
2,note_on,61,38,12
2,note_on,65,38,0
2,note_on,65,0,228
2,note_on,61,0,0
2,note_on,56,0,12
2,note_on,56,44,0
2,note_on,61,38,240
2,note_on,65,38,0
2,note_on,65,0,228
2,note_on,61,0,0
2,note_on,61,38,12
2,note_on,65,38,0
2,note_on,65,0,228
2,note_on,61,0,0
2,note_on,61,38,12
2,note_on,65,38,0
2,note_on,65,0,228
2,note_on,61,0,0
2,note_on,56,0,12
2,note_on,56,44,0
2,note_on,61,38,240
2,note_on,65,38,0
2,note_on,65,0,228
2,note_on,61,0,0
2,note_on,61,38,12
2,note_on,65,38,0
2,note_on,65,0,228
2,note_on,61,0,0
2,note_on,61,38,12
2,note_on,65,38,0
2,note_on,65,0,228
2,note_on,61,0,0
2,note_on,56,0,12
2,note_on,56,44,0
2,note_on,61,38,240
2,note_on,65,38,0
2,note_on,65,0,228
2,note_on,61,0,0
2,note_on,61,38,12
2,note_on,65,38,0
2,note_on,65,0,228
2,note_on,61,0,0
2,note_on,61,38,12
2,note_on,65,38,0
2,note_on,65,0,228
2,note_on,61,0,0
2,note_on,56,0,12
2,note_on,56,44,0
2,note_on,63,38,240
2,note_on,66,38,0
2,note_on,66,0,228
2,note_on,63,0,0
2,note_on,63,38,12
2,note_on,66,38,0
2,note_on,66,0,228
2,note_on,63,0,0
2,note_on,63,38,12
2,note_on,66,38,0
2,note_on,66,0,228
2,note_on,63,0,0
2,note_on,56,0,12
2,note_on,56,44,0
2,note_on,63,38,240
2,note_on,66,38,0
2,note_on,66,0,228
2,note_on,63,0,0
2,note_on,63,38,12
2,note_on,66,38,0
2,note_on,66,0,228
2,note_on,63,0,0
2,note_on,63,38,12
2,note_on,66,38,0
2,note_on,66,0,228
2,note_on,63,0,0
2,note_on,56,0,12
2,note_on,56,44,0
2,note_on,63,38,240
2,note_on,66,38,0
2,note_on,66,0,228
2,note_on,63,0,0
2,note_on,63,38,12
2,note_on,66,38,0
2,note_on,66,0,228
2,note_on,63,0,0
2,note_on,63,38,12
2,note_on,66,38,0
2,note_on,66,0,228
2,note_on,63,0,0
2,note_on,56,0,12
2,note_on,56,44,0
2,note_on,63,38,240
2,note_on,66,38,0
2,note_on,66,0,228
2,note_on,63,0,0
2,note_on,63,38,12
2,note_on,66,38,0
2,note_on,66,0,228
2,note_on,63,0,0
2,note_on,63,38,12
2,note_on,66,38,0
2,note_on,66,0,228
2,note_on,63,0,0
2,note_on,56,0,12
2,note_on,61,54,0
2,note_on,65,53,240
2,note_on,68,53,0
2,note_on,68,0,240
2,note_on,65,0,0
2,note_on,61,0,0
2,note_on,59,60,0
2,note_on,65,53,240
2,note_on,68,53,0
2,note_on,68,0,240
2,note_on,65,0,0
2,note_on,59,0,0
2,note_on,58,53,0
2,note_on,65,38,240
2,note_on,68,38,0
2,note_on,68,0,228
2,note_on,65,0,0
2,note_on,65,38,12
2,note_on,68,38,0
2,note_on,68,0,228
2,note_on,65,0,0
2,note_on,65,38,12
2,note_on,68,38,0
2,note_on,68,0,228
2,note_on,65,0,0
2,note_on,58,0,12
2,note_on,58,44,0
2,note_on,65,38,240
2,note_on,68,38,0
2,note_on,68,0,228
2,note_on,65,0,0
2,note_on,65,38,12
2,note_on,68,38,0
2,note_on,68,0,228
2,note_on,65,0,0
2,note_on,65,38,12
2,note_on,68,38,0
2,note_on,68,0,228
2,note_on,65,0,0
2,note_on,58,0,12
2,note_on,58,44,0
2,note_on,65,38,240
2,note_on,68,38,0
2,note_on,68,0,228
2,note_on,65,0,0
2,note_on,65,38,12
2,note_on,68,38,0
2,note_on,68,0,228
2,note_on,65,0,0
2,note_on,65,38,12
2,note_on,68,38,0
2,note_on,68,0,228
2,note_on,65,0,0
2,note_on,58,0,12
2,note_on,63,54,0
2,note_on,66,53,240
2,note_on,70,53,0
2,note_on,70,0,240
2,note_on,66,0,0
2,note_on,63,0,0
2,note_on,61,60,0
2,note_on,65,53,240
2,note_on,70,53,0
2,note_on,70,0,240
2,note_on,65,0,0
2,note_on,61,0,0
2,note_on,60,53,0
2,note_on,67,38,240
2,note_on,70,38,0
2,note_on,70,0,228
2,note_on,67,0,0
2,note_on,67,38,12
2,note_on,70,38,0
2,note_on,70,0,228
2,note_on,67,0,0
2,note_on,67,38,12
2,note_on,70,38,0
2,note_on,70,0,228
2,note_on,67,0,0
2,note_on,60,0,12
2,note_on,60,44,0
2,note_on,67,38,240
2,note_on,70,38,0
2,note_on,70,0,228
2,note_on,67,0,0
2,note_on,67,38,12
2,note_on,70,38,0
2,note_on,70,0,228
2,note_on,67,0,0
2,note_on,67,38,12
2,note_on,70,38,0
2,note_on,70,0,228
2,note_on,67,0,0
2,note_on,60,0,12
2,note_on,60,44,0
2,note_on,67,38,240
2,note_on,70,38,0
2,note_on,70,0,228
2,note_on,67,0,0
2,note_on,67,38,12
2,note_on,70,38,0
2,note_on,70,0,228
2,note_on,67,0,0
2,note_on,67,38,12
2,note_on,70,38,0
2,note_on,70,0,228
2,note_on,67,0,0
2,note_on,60,0,12
2,note_on,65,44,0
2,note_on,68,38,240
2,note_on,72,38,0
2,note_on,72,0,228
2,note_on,68,0,0
2,note_on,68,38,12
2,note_on,72,38,0
2,note_on,72,0,228
2,note_on,68,0,0
2,note_on,68,38,12
2,note_on,72,38,0
2,note_on,72,0,228
2,note_on,68,0,0
2,note_on,65,0,12
2,note_on,58,44,0
2,note_on,65,38,240
2,note_on,68,38,0
2,note_on,68,0,228
2,note_on,65,0,0
2,note_on,58,0,12
2,note_on,59,44,0
2,note_on,65,38,0
2,note_on,68,38,0
2,note_on,68,0,228
2,note_on,65,0,0
2,note_on,65,38,12
2,note_on,68,38,0
2,note_on,68,0,228
2,note_on,65,0,0
2,note_on,59,0,12
2,note_on,60,44,0
2,note_on,63,37,240
2,note_on,67,37,0
2,note_on,67,0,228
2,note_on,63,0,0
2,note_on,63,36,12
2,note_on,67,36,0
2,note_on,67,0,228
2,note_on,63,0,0
2,note_on,63,36,12
2,note_on,67,36,0
2,note_on,67,0,228
2,note_on,63,0,0
2,note_on,60,0,12
2,note_on,56,41,0
2,note_on,63,34,240
2,note_on,65,34,0
2,note_on,65,0,228
2,note_on,63,0,0
2,note_on,63,34,12
2,note_on,65,34,0
2,note_on,65,0,228
2,note_on,63,0,0
2,note_on,63,33,12
2,note_on,65,33,0
2,note_on,65,0,228
2,note_on,63,0,0
2,note_on,56,0,12
2,note_on,58,38,0
2,note_on,63,32,240
2,note_on,67,32,0
2,note_on,67,0,228
2,note_on,63,0,0
2,note_on,63,31,12
2,note_on,67,31,0
2,note_on,67,0,228
2,note_on,63,0,0
2,note_on,63,31,12
2,note_on,67,31,0
2,note_on,67,0,228
2,note_on,63,0,0
2,note_on,58,0,12
2,note_on,58,27,0
2,note_on,62,23,240
2,note_on,65,23,0
2,note_on,65,0,228
2,note_on,62,0,0
2,note_on,62,23,12
2,note_on,65,23,0
2,note_on,65,0,228
2,note_on,62,0,0
2,note_on,62,23,12
2,note_on,65,23,0
2,note_on,65,0,228
2,note_on,62,0,0
2,note_on,58,0,12
2,note_on,51,36,0
2,note_on,58,24,120
2,note_on,58,0,120
2,note_on,55,26,0
2,note_on,55,0,120
2,note_on,58,24,0
2,note_on,58,0,120
2,note_on,55,32,0
2,note_on,55,0,120
2,note_on,58,25,0
2,note_on,58,0,120
2,note_on,55,28,0
2,note_on,55,0,120
2,note_on,58,26,0
2,note_on,58,0,120
2,note_on,55,34,0
2,note_on,55,0,120
2,note_on,58,26,0
2,note_on,58,0,120
2,note_on,55,29,0
2,note_on,55,0,120
2,note_on,58,26,0
2,note_on,58,0,120
2,note_on,51,0,0
2,note_on,51,36,0
2,note_on,58,28,120
2,note_on,58,0,120
2,note_on,55,32,0
2,note_on,55,0,120
2,note_on,58,28,0
2,note_on,58,0,120
2,note_on,51,0,0
2,note_on,49,45,0
2,note_on,58,30,120
2,note_on,58,0,120
2,note_on,55,32,0
2,note_on,55,0,120
2,note_on,58,29,0
2,note_on,58,0,120
2,note_on,55,38,0
2,note_on,55,0,120
2,note_on,58,30,0
2,note_on,58,0,120
2,note_on,55,33,0
2,note_on,55,0,120
2,note_on,58,30,0
2,note_on,58,0,120
2,note_on,55,38,0
2,note_on,55,0,120
2,note_on,58,29,0
2,note_on,58,0,120
2,note_on,55,32,0
2,note_on,55,0,120
2,note_on,58,29,0
2,note_on,58,0,120
2,note_on,49,0,0
2,note_on,49,38,0
2,note_on,58,30,120
2,note_on,58,0,120
2,note_on,55,33,0
2,note_on,55,0,120
2,note_on,58,29,0
2,note_on,58,0,120
2,note_on,49,0,0
2,note_on,48,55,0
2,note_on,48,0,90
2,note_on,56,36,30
2,note_on,56,0,120
2,note_on,51,39,0
2,note_on,51,0,120
2,note_on,56,35,0
2,note_on,56,0,120
2,note_on,46,56,0
2,note_on,46,0,90
2,note_on,55,36,30
2,note_on,55,0,120
2,note_on,48,43,0
2,note_on,48,0,120
2,note_on,55,41,0
2,note_on,55,0,120
2,note_on,44,58,0
2,note_on,44,0,90
2,note_on,56,38,30
2,note_on,56,0,120
2,note_on,48,43,0
2,note_on,48,0,120
2,note_on,56,38,0
2,note_on,56,0,120
2,note_on,43,60,0
2,note_on,43,0,90
2,note_on,55,40,30
2,note_on,55,0,120
2,note_on,48,43,0
2,note_on,48,0,120
2,note_on,55,38,0
2,note_on,55,0,120
2,note_on,41,63,0
2,note_on,41,0,90
2,note_on,53,42,30
2,note_on,53,0,120
2,note_on,48,45,0
2,note_on,48,0,120
2,note_on,53,42,0
2,note_on,53,0,120
2,note_on,39,66,0
2,note_on,39,0,90
2,note_on,51,41,30
2,note_on,51,0,120
2,note_on,41,47,0
2,note_on,41,0,120
2,note_on,51,41,0
2,note_on,51,0,120
2,note_on,38,68,0
2,note_on,38,0,90
2,note_on,50,45,30
2,note_on,50,0,120
2,note_on,41,49,0
2,note_on,41,0,120
2,note_on,50,43,0
2,note_on,50,0,120
2,note_on,36,70,0
2,note_on,36,0,90
2,note_on,48,45,30
2,note_on,48,0,120
2,note_on,41,51,0
2,note_on,41,0,120
2,note_on,48,43,0
2,note_on,48,0,120
2,note_on,34,70,0
2,note_on,34,0,90
2,note_on,46,47,30
2,note_on,46,0,120
2,note_on,41,53,0
2,note_on,41,0,120
2,note_on,46,48,0
2,note_on,46,0,120
2,note_on,32,72,0
2,note_on,32,0,90
2,note_on,44,47,30
2,note_on,44,0,120
2,note_on,41,53,0
2,note_on,41,0,120
2,note_on,44,50,0
2,note_on,44,0,120
2,note_on,31,75,0
2,note_on,31,0,90
2,note_on,43,50,30
2,note_on,43,0,120
2,note_on,39,55,0
2,note_on,39,0,120
2,note_on,43,50,0
2,note_on,43,0,120
2,note_on,31,76,0
2,note_on,31,0,90
2,note_on,43,56,30
2,note_on,43,0,120
2,note_on,39,58,0
2,note_on,39,0,120
2,note_on,43,55,0
2,note_on,43,0,120
2,note_on,32,71,0
2,note_on,44,84,0
2,note_on,44,0,240
2,note_on,32,0,0
2,note_on,46,84,720
2,note_on,34,71,0
2,note_on,34,0,240
2,note_on,46,0,0
2,note_on,51,45,720
2,note_on,58,30,120
2,note_on,58,0,120
2,note_on,55,32,0
2,note_on,55,0,120
2,note_on,58,29,0
2,note_on,58,0,120
2,note_on,55,38,0
2,note_on,55,0,120
2,note_on,58,30,0
2,note_on,58,0,120
2,note_on,55,33,0
2,note_on,55,0,120
2,note_on,58,30,0
2,note_on,58,0,120
2,note_on,55,38,0
2,note_on,55,0,120
2,note_on,58,29,0
2,note_on,58,0,120
2,note_on,55,32,0
2,note_on,55,0,120
2,note_on,58,29,0
2,note_on,58,0,120
2,note_on,51,0,0
2,note_on,51,38,0
2,note_on,58,30,120
2,note_on,58,0,120
2,note_on,55,33,0
2,note_on,55,0,120
2,note_on,58,29,0
2,note_on,58,0,120
2,note_on,51,0,0
2,note_on,49,45,0
2,note_on,58,30,120
2,note_on,58,0,120
2,note_on,55,32,0
2,note_on,55,0,120
2,note_on,58,29,0
2,note_on,58,0,120
2,note_on,55,38,0
2,note_on,55,0,120
2,note_on,58,30,0
2,note_on,58,0,120
2,note_on,55,33,0
2,note_on,55,0,120
2,note_on,58,30,0
2,note_on,58,0,120
2,note_on,55,38,0
2,note_on,55,0,120
2,note_on,58,29,0
2,note_on,58,0,120
2,note_on,55,32,0
2,note_on,55,0,120
2,note_on,58,29,0
2,note_on,58,0,120
2,note_on,49,0,0
2,note_on,49,38,0
2,note_on,58,30,120
2,note_on,58,0,120
2,note_on,55,33,0
2,note_on,55,0,120
2,note_on,58,29,0
2,note_on,58,0,120
2,note_on,49,0,0
2,note_on,48,55,0
2,note_on,48,0,90
2,note_on,56,36,30
2,note_on,56,0,120
2,note_on,51,39,0
2,note_on,51,0,120
2,note_on,56,35,0
2,note_on,56,0,120
2,note_on,46,56,0
2,note_on,46,0,90
2,note_on,55,36,30
2,note_on,55,0,120
2,note_on,48,43,0
2,note_on,48,0,120
2,note_on,55,41,0
2,note_on,55,0,120
2,note_on,44,58,0
2,note_on,44,0,90
2,note_on,56,38,30
2,note_on,56,0,120
2,note_on,48,43,0
2,note_on,48,0,120
2,note_on,56,38,0
2,note_on,56,0,120
2,note_on,43,60,0
2,note_on,43,0,90
2,note_on,55,40,30
2,note_on,55,0,120
2,note_on,48,43,0
2,note_on,48,0,120
2,note_on,55,38,0
2,note_on,55,0,120
2,note_on,41,63,0
2,note_on,41,0,90
2,note_on,53,42,30
2,note_on,53,0,120
2,note_on,48,45,0
2,note_on,48,0,120
2,note_on,53,42,0
2,note_on,53,0,120
2,note_on,39,66,0
2,note_on,39,0,90
2,note_on,51,41,30
2,note_on,51,0,120
2,note_on,41,47,0
2,note_on,41,0,120
2,note_on,51,41,0
2,note_on,51,0,120
2,note_on,38,68,0
2,note_on,38,0,90
2,note_on,50,45,30
2,note_on,50,0,120
2,note_on,41,49,0
2,note_on,41,0,120
2,note_on,50,43,0
2,note_on,50,0,120
2,note_on,36,70,0
2,note_on,36,0,90
2,note_on,48,45,30
2,note_on,48,0,120
2,note_on,41,51,0
2,note_on,41,0,120
2,note_on,48,43,0
2,note_on,48,0,120
2,note_on,34,70,0
2,note_on,34,0,90
2,note_on,46,47,30
2,note_on,46,0,120
2,note_on,41,53,0
2,note_on,41,0,120
2,note_on,46,48,0
2,note_on,46,0,120
2,note_on,32,72,0
2,note_on,32,0,90
2,note_on,44,47,30
2,note_on,44,0,120
2,note_on,41,53,0
2,note_on,41,0,120
2,note_on,44,50,0
2,note_on,44,0,120
2,note_on,31,75,0
2,note_on,31,0,90
2,note_on,43,50,30
2,note_on,43,0,120
2,note_on,39,55,0
2,note_on,39,0,120
2,note_on,43,50,0
2,note_on,43,0,120
2,note_on,31,76,0
2,note_on,31,0,90
2,note_on,43,56,30
2,note_on,43,0,120
2,note_on,31,58,0
2,note_on,31,0,120
2,note_on,43,55,0
2,note_on,43,0,120
2,note_on,32,71,0
2,note_on,44,84,0
2,note_on,44,0,240
2,note_on,32,0,0
2,note_on,46,84,720
2,note_on,34,71,0
2,note_on,34,0,240
2,note_on,46,0,0
2,note_on,39,84,720
2,note_on,51,84,0
2,note_on,51,0,240
2,note_on,39,0,0
2,note_on,63,34,0
2,note_on,67,34,0
2,note_on,67,0,228
2,note_on,63,0,0
2,note_on,63,34,12
2,note_on,67,34,0
2,note_on,67,0,228
2,note_on,63,0,0
2,note_on,63,34,12
2,note_on,67,34,0
2,note_on,67,0,228
2,note_on,63,0,0
2,note_on,60,34,12
2,note_on,63,34,240
2,note_on,67,34,0
2,note_on,67,0,228
2,note_on,63,0,0
2,note_on,63,34,12
2,note_on,67,34,0
2,note_on,67,0,228
2,note_on,63,0,0
2,note_on,63,34,12
2,note_on,67,34,0
2,note_on,67,0,228
2,note_on,63,0,0
2,note_on,60,0,12
2,note_on,56,34,0
2,note_on,65,34,240
2,note_on,63,34,0
2,note_on,63,0,228
2,note_on,65,0,0
2,note_on,63,34,12
2,note_on,65,34,0
2,note_on,65,0,228
2,note_on,63,0,0
2,note_on,63,34,12
2,note_on,65,34,0
2,note_on,65,0,228
2,note_on,63,0,0
2,note_on,56,0,12
2,note_on,58,34,0
2,note_on,62,34,240
2,note_on,65,34,0
2,note_on,65,0,228
2,note_on,62,0,0
2,note_on,62,34,12
2,note_on,65,34,0
2,note_on,65,0,228
2,note_on,62,0,0
2,note_on,62,34,12
2,note_on,65,34,0
2,note_on,65,0,228
2,note_on,62,0,0
2,note_on,58,0,12
2,note_on,51,59,0
2,note_on,55,44,240
2,note_on,63,44,0
2,note_on,63,0,228
2,note_on,55,0,0
2,note_on,55,44,12
2,note_on,63,44,0
2,note_on,63,0,228
2,note_on,55,0,0
2,note_on,55,44,12
2,note_on,63,44,0
2,note_on,63,0,228
2,note_on,55,0,0
2,note_on,51,0,12
2,note_on,48,45,0
2,note_on,55,46,240
2,note_on,51,46,0
2,note_on,60,46,0
2,note_on,60,0,228
2,note_on,51,0,0
2,note_on,55,0,0
2,note_on,55,46,12
2,note_on,51,46,0
2,note_on,60,46,0
2,note_on,60,0,228
2,note_on,51,0,0
2,note_on,55,0,0
2,note_on,55,47,12
2,note_on,51,47,0
2,note_on,60,47,0
2,note_on,60,0,228
2,note_on,51,0,0
2,note_on,55,0,0
2,note_on,48,0,12
2,note_on,44,47,0
2,note_on,53,48,240
2,note_on,56,48,0
2,note_on,51,48,0
2,note_on,51,0,228
2,note_on,56,0,0
2,note_on,53,0,0
2,note_on,53,48,12
2,note_on,51,48,0
2,note_on,56,48,0
2,note_on,56,0,228
2,note_on,51,0,0
2,note_on,53,0,0
2,note_on,53,49,12
2,note_on,51,49,0
2,note_on,56,49,0
2,note_on,56,0,228
2,note_on,51,0,0
2,note_on,53,0,0
2,note_on,44,0,12
2,note_on,46,49,0
2,note_on,53,50,240
2,note_on,50,50,0
2,note_on,58,50,0
2,note_on,58,0,228
2,note_on,50,0,0
2,note_on,53,0,0
2,note_on,53,50,12
2,note_on,50,50,0
2,note_on,58,50,0
2,note_on,58,0,228
2,note_on,50,0,0
2,note_on,53,0,0
2,note_on,53,51,12
2,note_on,50,51,0
2,note_on,58,51,0
2,note_on,58,0,228
2,note_on,50,0,0
2,note_on,53,0,0
2,note_on,46,0,12
2,note_on,39,67,0
2,note_on,51,60,120
2,note_on,39,0,108
2,note_on,51,0,12
2,note_on,39,67,0
2,note_on,51,59,120
2,note_on,39,0,108
2,note_on,51,0,12
2,note_on,39,67,0
2,note_on,51,60,120
2,note_on,39,0,108
2,note_on,51,0,12
2,note_on,39,66,0
2,note_on,51,60,120
2,note_on,39,0,108
2,note_on,51,0,12
2,note_on,39,66,0
2,note_on,51,59,120
2,note_on,39,0,108
2,note_on,51,0,12
2,note_on,39,66,0
2,note_on,51,60,120
2,note_on,39,0,108
2,note_on,51,0,12
2,note_on,39,66,0
2,note_on,51,60,120
2,note_on,39,0,108
2,note_on,51,0,12
2,note_on,39,66,0
2,note_on,51,61,120
2,note_on,39,0,108
2,note_on,51,0,12
2,note_on,39,67,0
2,note_on,51,60,120
2,note_on,39,0,108
2,note_on,51,0,12
2,note_on,39,67,0
2,note_on,51,59,120
2,note_on,39,0,108
2,note_on,51,0,12
2,note_on,39,67,0
2,note_on,51,60,120
2,note_on,39,0,108
2,note_on,51,0,12
2,note_on,39,66,0
2,note_on,51,60,120
2,note_on,39,0,108
2,note_on,51,0,12
2,note_on,39,66,0
2,note_on,51,59,120
2,note_on,39,0,108
2,note_on,51,0,12
2,note_on,39,66,0
2,note_on,51,60,120
2,note_on,39,0,108
2,note_on,51,0,12
2,note_on,39,66,0
2,note_on,51,60,120
2,note_on,39,0,108
2,note_on,51,0,12
2,note_on,39,66,0
2,note_on,51,61,120
2,note_on,39,0,108
2,note_on,51,0,12
2,note_on,39,66,0
2,note_on,51,59,120
2,note_on,39,0,108
2,note_on,51,0,12
2,note_on,39,66,0
2,note_on,51,60,120
2,note_on,39,0,108
2,note_on,51,0,12
2,note_on,39,66,0
2,note_on,51,60,120
2,note_on,39,0,108
2,note_on,51,0,12
2,note_on,39,66,0
2,note_on,51,61,120
2,note_on,39,0,108
2,note_on,51,0,12
2,note_on,38,66,0
2,note_on,50,59,120
2,note_on,38,0,108
2,note_on,50,0,12
2,note_on,38,66,0
2,note_on,50,60,120
2,note_on,38,0,108
2,note_on,50,0,12
2,note_on,38,66,0
2,note_on,50,60,120
2,note_on,38,0,108
2,note_on,50,0,12
2,note_on,38,66,0
2,note_on,50,61,120
2,note_on,38,0,108
2,note_on,50,0,12
2,note_on,36,66,0
2,note_on,48,59,120
2,note_on,36,0,108
2,note_on,48,0,12
2,note_on,36,66,0
2,note_on,48,60,120
2,note_on,36,0,108
2,note_on,48,0,12
2,note_on,36,66,0
2,note_on,48,60,120
2,note_on,36,0,108
2,note_on,48,0,12
2,note_on,36,66,0
2,note_on,48,61,120
2,note_on,36,0,108
2,note_on,48,0,12
2,note_on,34,66,0
2,note_on,46,59,120
2,note_on,34,0,108
2,note_on,46,0,12
2,note_on,34,66,0
2,note_on,46,60,120
2,note_on,34,0,108
2,note_on,46,0,12
2,note_on,34,66,0
2,note_on,46,60,120
2,note_on,34,0,108
2,note_on,46,0,12
2,note_on,34,66,0
2,note_on,46,61,120
2,note_on,34,0,108
2,note_on,46,0,12
2,note_on,32,66,0
2,note_on,44,59,120
2,note_on,32,0,108
2,note_on,44,0,12
2,note_on,32,66,0
2,note_on,44,60,120
2,note_on,32,0,108
2,note_on,44,0,12
2,note_on,32,66,0
2,note_on,44,60,120
2,note_on,32,0,108
2,note_on,44,0,12
2,note_on,32,66,0
2,note_on,44,61,120
2,note_on,32,0,108
2,note_on,44,0,12
2,note_on,31,66,0
2,note_on,43,59,120
2,note_on,31,0,108
2,note_on,43,0,12
2,note_on,31,66,0
2,note_on,43,60,120
2,note_on,31,0,108
2,note_on,43,0,12
2,note_on,31,66,0
2,note_on,43,60,120
2,note_on,31,0,108
2,note_on,43,0,12
2,note_on,31,66,0
2,note_on,43,61,120
2,note_on,31,0,108
2,note_on,43,0,12
2,note_on,30,62,0
2,note_on,42,74,0
2,note_on,42,0,960
2,note_on,30,0,0
2,note_on,31,71,0
2,note_on,43,84,0
2,note_on,43,0,960
2,note_on,31,0,0
2,note_on,36,44,0
2,note_on,48,41,120
2,note_on,36,0,108
2,note_on,48,0,12
2,note_on,36,44,0
2,note_on,48,41,120
2,note_on,36,0,108
2,note_on,48,0,12
2,note_on,36,44,0
2,note_on,48,41,120
2,note_on,36,0,108
2,note_on,48,0,12
2,note_on,36,45,0
2,note_on,48,41,120
2,note_on,36,0,108
2,note_on,48,0,12
2,note_on,36,45,0
2,note_on,48,46,120
2,note_on,36,0,108
2,note_on,48,0,12
2,note_on,36,47,0
2,note_on,48,47,120
2,note_on,36,0,108
2,note_on,48,0,12
2,note_on,36,49,0
2,note_on,48,50,120
2,note_on,36,0,108
2,note_on,48,0,12
2,note_on,36,51,0
2,note_on,48,53,120
2,note_on,36,0,108
2,note_on,48,0,12
2,note_on,36,55,0
2,note_on,48,50,120
2,note_on,36,0,108
2,note_on,48,0,12
2,note_on,36,53,0
2,note_on,48,47,120
2,note_on,36,0,108
2,note_on,48,0,12
2,note_on,36,53,0
2,note_on,48,47,120
2,note_on,36,0,108
2,note_on,48,0,12
2,note_on,36,44,0
2,note_on,48,40,120
2,note_on,36,0,108
2,note_on,48,0,12
2,note_on,36,43,0
2,note_on,48,45,120
2,note_on,36,0,108
2,note_on,48,0,12
2,note_on,36,46,0
2,note_on,48,47,120
2,note_on,36,0,108
2,note_on,48,0,12
2,note_on,36,48,0
2,note_on,48,50,120
2,note_on,36,0,108
2,note_on,48,0,12
2,note_on,36,51,0
2,note_on,48,53,120
2,note_on,36,0,108
2,note_on,48,0,12
2,note_on,36,55,0
2,note_on,48,50,120
2,note_on,36,0,108
2,note_on,48,0,12
2,note_on,36,53,0
2,note_on,48,47,120
2,note_on,36,0,108
2,note_on,48,0,12
2,note_on,38,55,0
2,note_on,50,50,120
2,note_on,38,0,108
2,note_on,50,0,12
2,note_on,38,55,0
2,note_on,50,51,120
2,note_on,38,0,108
2,note_on,50,0,12
2,note_on,39,55,0
2,note_on,51,55,120
2,note_on,39,0,108
2,note_on,51,0,12
2,note_on,39,55,0
2,note_on,51,55,120
2,note_on,39,0,108
2,note_on,51,0,12
2,note_on,41,55,0
2,note_on,53,53,120
2,note_on,41,0,108
2,note_on,53,0,12
2,note_on,41,55,0
2,note_on,53,55,120
2,note_on,41,0,108
2,note_on,53,0,12
2,note_on,43,56,0
2,note_on,55,56,120
2,note_on,43,0,108
2,note_on,55,0,12
2,note_on,43,57,0
2,note_on,55,57,120
2,note_on,43,0,108
2,note_on,55,0,12
2,note_on,44,58,0
2,note_on,56,59,120
2,note_on,44,0,108
2,note_on,56,0,12
2,note_on,44,59,0
2,note_on,56,60,120
2,note_on,44,0,108
2,note_on,56,0,12
2,note_on,42,60,0
2,note_on,54,55,120
2,note_on,42,0,108
2,note_on,54,0,12
2,note_on,42,61,0
2,note_on,54,55,120
2,note_on,42,0,108
2,note_on,54,0,12
2,note_on,43,58,0
2,note_on,55,55,120
2,note_on,43,0,108
2,note_on,55,0,12
2,note_on,43,58,0
2,note_on,55,55,120
2,note_on,43,0,108
2,note_on,55,0,12
2,note_on,36,48,0
2,note_on,48,45,120
2,note_on,36,0,108
2,note_on,48,0,12
2,note_on,36,44,0
2,note_on,48,41,120
2,note_on,36,0,108
2,note_on,48,0,12
2,note_on,36,44,0
2,note_on,48,40,120
2,note_on,36,0,108
2,note_on,48,0,12
2,note_on,36,44,0
2,note_on,48,41,120
2,note_on,36,0,108
2,note_on,48,0,12
2,note_on,36,44,0
2,note_on,48,46,120
2,note_on,36,0,108
2,note_on,48,0,12
2,note_on,36,47,0
2,note_on,48,47,120
2,note_on,36,0,108
2,note_on,48,0,12
2,note_on,36,49,0
2,note_on,48,50,120
2,note_on,36,0,108
2,note_on,48,0,12
2,note_on,36,51,0
2,note_on,48,53,120
2,note_on,36,0,108
2,note_on,48,0,12
2,note_on,36,55,0
2,note_on,48,50,120
2,note_on,36,0,108
2,note_on,48,0,12
2,note_on,36,53,0
2,note_on,48,47,120
2,note_on,36,0,108
2,note_on,48,0,12
2,note_on,36,53,0
2,note_on,48,47,120
2,note_on,36,0,108
2,note_on,48,0,12
2,note_on,36,44,0
2,note_on,48,40,120
2,note_on,36,0,108
2,note_on,48,0,12
2,note_on,36,43,0
2,note_on,48,45,120
2,note_on,36,0,108
2,note_on,48,0,12
2,note_on,36,46,0
2,note_on,48,47,120
2,note_on,36,0,108
2,note_on,48,0,12
2,note_on,36,48,0
2,note_on,48,50,120
2,note_on,36,0,108
2,note_on,48,0,12
2,note_on,36,51,0
2,note_on,48,53,120
2,note_on,36,0,108
2,note_on,48,0,12
2,note_on,36,55,0
2,note_on,48,50,120
2,note_on,36,0,108
2,note_on,48,0,12
2,note_on,36,53,0
2,note_on,48,47,120
2,note_on,36,0,108
2,note_on,48,0,12
2,note_on,38,55,0
2,note_on,50,50,120
2,note_on,38,0,108
2,note_on,50,0,12
2,note_on,38,55,0
2,note_on,50,51,120
2,note_on,38,0,108
2,note_on,50,0,12
2,note_on,39,55,0
2,note_on,51,55,120
2,note_on,39,0,108
2,note_on,51,0,12
2,note_on,39,55,0
2,note_on,51,55,120
2,note_on,39,0,108
2,note_on,51,0,12
2,note_on,41,55,0
2,note_on,53,53,120
2,note_on,41,0,108
2,note_on,53,0,12
2,note_on,41,55,0
2,note_on,53,55,120
2,note_on,41,0,108
2,note_on,53,0,12
2,note_on,43,56,0
2,note_on,55,56,120
2,note_on,43,0,108
2,note_on,55,0,12
2,note_on,43,57,0
2,note_on,55,57,120
2,note_on,43,0,108
2,note_on,55,0,12
2,note_on,44,58,0
2,note_on,56,59,120
2,note_on,44,0,108
2,note_on,56,0,12
2,note_on,44,59,0
2,note_on,56,60,120
2,note_on,44,0,108
2,note_on,56,0,12
2,note_on,42,60,0
2,note_on,54,55,120
2,note_on,42,0,108
2,note_on,54,0,12
2,note_on,42,61,0
2,note_on,54,55,120
2,note_on,42,0,108
2,note_on,54,0,12
2,note_on,42,58,0
2,note_on,54,55,120
2,note_on,42,0,108
2,note_on,54,0,12
2,note_on,42,58,0
2,note_on,54,55,120
2,note_on,42,0,108
2,note_on,54,0,12
2,note_on,43,55,0
2,note_on,55,55,0
2,note_on,55,0,240
2,note_on,43,0,0
2,note_on,62,50,0
2,note_on,59,50,0
2,note_on,59,0,228
2,note_on,62,0,0
2,note_on,62,50,12
2,note_on,59,50,0
2,note_on,59,0,228
2,note_on,62,0,0
2,note_on,59,50,12
2,note_on,62,50,0
2,note_on,62,0,228
2,note_on,59,0,0
2,note_on,55,50,12
2,note_on,55,0,240
2,note_on,63,50,0
2,note_on,60,50,0
2,note_on,60,0,228
2,note_on,63,0,0
2,note_on,63,50,12
2,note_on,60,50,0
2,note_on,60,0,228
2,note_on,63,0,0
2,note_on,63,50,12
2,note_on,60,50,0
2,note_on,60,0,228
2,note_on,63,0,0
2,note_on,65,50,12
2,note_on,62,50,0
2,note_on,62,0,240
2,note_on,65,0,0
2,note_on,32,55,1200
2,note_on,32,0,120
2,note_on,44,55,0
2,note_on,44,0,120
2,note_on,32,55,0
2,note_on,32,0,120
2,note_on,44,55,0
2,note_on,44,0,120
2,note_on,31,50,0
2,note_on,43,50,0
2,note_on,43,0,240
2,note_on,31,0,0
2,note_on,62,50,0
2,note_on,59,50,0
2,note_on,59,0,228
2,note_on,62,0,0
2,note_on,62,50,12
2,note_on,59,50,0
2,note_on,59,0,228
2,note_on,62,0,0
2,note_on,59,50,12
2,note_on,62,50,0
2,note_on,62,0,240
2,note_on,59,0,0
2,note_on,55,50,0
2,note_on,55,0,240
2,note_on,63,50,0
2,note_on,60,50,0
2,note_on,60,0,228
2,note_on,63,0,0
2,note_on,63,50,12
2,note_on,60,50,0
2,note_on,60,0,228
2,note_on,63,0,0
2,note_on,63,50,12
2,note_on,60,50,0
2,note_on,60,0,228
2,note_on,63,0,0
2,note_on,65,50,12
2,note_on,62,50,0
2,note_on,62,0,240
2,note_on,65,0,0
2,note_on,32,55,1200
2,note_on,44,55,120
2,note_on,32,0,108
2,note_on,44,0,12
2,note_on,32,55,0
2,note_on,44,49,120
2,note_on,32,0,108
2,note_on,44,0,12
2,note_on,31,50,0
2,note_on,43,51,120
2,note_on,31,0,108
2,note_on,43,0,12
2,note_on,31,51,0
2,note_on,43,52,120
2,note_on,31,0,108
2,note_on,43,0,12
2,note_on,31,53,0
2,note_on,43,54,120
2,note_on,31,0,108
2,note_on,43,0,12
2,note_on,31,55,0
2,note_on,43,56,120
2,note_on,31,0,108
2,note_on,43,0,12
2,note_on,31,57,0
2,note_on,43,58,120
2,note_on,31,0,108
2,note_on,43,0,12
2,note_on,31,59,0
2,note_on,43,60,120
2,note_on,31,0,108
2,note_on,43,0,12
2,note_on,31,61,0
2,note_on,43,61,120
2,note_on,31,0,108
2,note_on,43,0,12
2,note_on,31,62,0
2,note_on,43,63,120
2,note_on,31,0,108
2,note_on,43,0,12
2,note_on,31,64,0
2,note_on,43,55,120
2,note_on,31,0,108
2,note_on,43,0,12
2,note_on,31,61,0
2,note_on,43,55,120
2,note_on,31,0,108
2,note_on,43,0,12
2,note_on,31,61,0
2,note_on,43,55,120
2,note_on,31,0,108
2,note_on,43,0,12
2,note_on,31,60,0
2,note_on,43,55,120
2,note_on,31,0,108
2,note_on,43,0,12
2,note_on,31,64,0
2,note_on,43,55,120
2,note_on,31,0,108
2,note_on,43,0,12
2,note_on,31,61,0
2,note_on,43,55,120
2,note_on,31,0,108
2,note_on,43,0,12
2,note_on,31,61,0
2,note_on,43,55,120
2,note_on,31,0,108
2,note_on,43,0,12
2,note_on,31,60,0
2,note_on,43,55,120
2,note_on,31,0,108
2,note_on,43,0,12
2,note_on,32,50,0
2,note_on,44,51,120
2,note_on,32,0,108
2,note_on,44,0,12
2,note_on,32,51,0
2,note_on,44,52,120
2,note_on,32,0,108
2,note_on,44,0,12
2,note_on,32,53,0
2,note_on,44,54,120
2,note_on,32,0,108
2,note_on,44,0,12
2,note_on,32,55,0
2,note_on,44,56,120
2,note_on,32,0,108
2,note_on,44,0,12
2,note_on,32,57,0
2,note_on,44,58,120
2,note_on,32,0,108
2,note_on,44,0,12
2,note_on,32,59,0
2,note_on,44,60,120
2,note_on,32,0,108
2,note_on,44,0,12
2,note_on,32,61,0
2,note_on,44,61,120
2,note_on,32,0,108
2,note_on,44,0,12
2,note_on,32,62,0
2,note_on,44,63,120
2,note_on,32,0,108
2,note_on,44,0,12
2,note_on,32,64,0
2,note_on,44,55,120
2,note_on,32,0,108
2,note_on,44,0,12
2,note_on,32,61,0
2,note_on,44,55,120
2,note_on,32,0,108
2,note_on,44,0,12
2,note_on,32,61,0
2,note_on,44,55,120
2,note_on,32,0,108
2,note_on,44,0,12
2,note_on,32,60,0
2,note_on,44,55,120
2,note_on,32,0,108
2,note_on,44,0,12
2,note_on,33,64,0
2,note_on,45,55,120
2,note_on,33,0,108
2,note_on,45,0,12
2,note_on,33,61,0
2,note_on,45,55,120
2,note_on,33,0,108
2,note_on,45,0,12
2,note_on,33,61,0
2,note_on,45,55,120
2,note_on,33,0,108
2,note_on,45,0,12
2,note_on,33,60,0
2,note_on,45,55,120
2,note_on,33,0,108
2,note_on,45,0,12
2,note_on,34,50,0
2,note_on,46,51,120
2,note_on,34,0,108
2,note_on,46,0,12
2,note_on,34,51,0
2,note_on,46,52,120
2,note_on,34,0,108
2,note_on,46,0,12
2,note_on,34,53,0
2,note_on,46,54,120
2,note_on,34,0,108
2,note_on,46,0,12
2,note_on,34,55,0
2,note_on,46,56,120
2,note_on,34,0,108
2,note_on,46,0,12
2,note_on,34,57,0
2,note_on,46,58,120
2,note_on,34,0,108
2,note_on,46,0,12
2,note_on,34,59,0
2,note_on,46,60,120
2,note_on,34,0,108
2,note_on,46,0,12
2,note_on,34,61,0
2,note_on,46,61,120
2,note_on,34,0,108
2,note_on,46,0,12
2,note_on,34,62,0
2,note_on,46,63,120
2,note_on,34,0,108
2,note_on,46,0,12
2,note_on,34,64,0
2,note_on,46,55,120
2,note_on,34,0,108
2,note_on,46,0,12
2,note_on,34,61,0
2,note_on,46,55,120
2,note_on,34,0,108
2,note_on,46,0,12
2,note_on,34,61,0
2,note_on,46,55,120
2,note_on,34,0,108
2,note_on,46,0,12
2,note_on,34,60,0
2,note_on,46,55,120
2,note_on,34,0,108
2,note_on,46,0,12
2,note_on,34,64,0
2,note_on,46,55,120
2,note_on,34,0,108
2,note_on,46,0,12
2,note_on,34,61,0
2,note_on,46,55,120
2,note_on,34,0,108
2,note_on,46,0,12
2,note_on,34,61,0
2,note_on,46,55,120
2,note_on,34,0,108
2,note_on,46,0,12
2,note_on,34,60,0
2,note_on,46,55,120
2,note_on,34,0,108
2,note_on,46,0,12
2,note_on,34,64,0
2,note_on,46,55,120
2,note_on,34,0,108
2,note_on,46,0,12
2,note_on,34,61,0
2,note_on,46,55,120
2,note_on,34,0,108
2,note_on,46,0,12
2,note_on,34,61,0
2,note_on,46,55,120
2,note_on,34,0,108
2,note_on,46,0,12
2,note_on,34,60,0
2,note_on,46,55,120
2,note_on,34,0,108
2,note_on,46,0,12
2,note_on,34,64,0
2,note_on,46,55,120
2,note_on,34,0,108
2,note_on,46,0,12
2,note_on,34,61,0
2,note_on,46,55,120
2,note_on,34,0,108
2,note_on,46,0,12
2,note_on,34,61,0
2,note_on,46,55,120
2,note_on,34,0,108
2,note_on,46,0,12
2,note_on,34,60,0
2,note_on,46,55,120
2,note_on,34,0,108
2,note_on,46,0,12
2,note_on,46,55,0
2,note_on,34,64,0
2,note_on,34,0,240
2,note_on,46,0,0
2,note_on,58,44,1680
2,note_on,63,38,240
2,note_on,66,38,0
2,note_on,66,0,228
2,note_on,63,0,0
2,note_on,63,38,12
2,note_on,66,38,0
2,note_on,66,0,228
2,note_on,63,0,0
2,note_on,63,38,12
2,note_on,66,38,0
2,note_on,66,0,228
2,note_on,63,0,0
2,note_on,58,0,12
2,note_on,58,44,0
2,note_on,63,38,240
2,note_on,66,38,0
2,note_on,66,0,228
2,note_on,63,0,0
2,note_on,63,38,12
2,note_on,66,38,0
2,note_on,66,0,228
2,note_on,63,0,0
2,note_on,63,38,12
2,note_on,66,38,0
2,note_on,66,0,240
2,note_on,63,0,0
2,note_on,58,0,0
2,note_on,58,44,0
2,note_on,63,38,240
2,note_on,66,38,0
2,note_on,66,0,228
2,note_on,63,0,0
2,note_on,63,38,12
2,note_on,66,38,0
2,note_on,66,0,228
2,note_on,63,0,0
2,note_on,63,38,12
2,note_on,66,38,0
2,note_on,66,0,228
2,note_on,63,0,0
2,note_on,58,0,12
2,note_on,58,44,0
2,note_on,63,38,240
2,note_on,66,38,0
2,note_on,66,0,228
2,note_on,63,0,0
2,note_on,63,38,12
2,note_on,66,38,0
2,note_on,66,0,228
2,note_on,63,0,0
2,note_on,63,38,12
2,note_on,66,38,0
2,note_on,66,0,228
2,note_on,63,0,0
2,note_on,58,0,12
2,note_on,58,44,0
2,note_on,65,38,240
2,note_on,68,38,0
2,note_on,68,0,228
2,note_on,65,0,0
2,note_on,65,38,12
2,note_on,68,38,0
2,note_on,68,0,228
2,note_on,65,0,0
2,note_on,65,38,12
2,note_on,68,38,0
2,note_on,68,0,228
2,note_on,65,0,0
2,note_on,58,0,12
2,note_on,58,44,0
2,note_on,65,38,240
2,note_on,68,38,0
2,note_on,68,0,228
2,note_on,65,0,0
2,note_on,65,38,12
2,note_on,68,38,0
2,note_on,68,0,228
2,note_on,65,0,0
2,note_on,65,38,12
2,note_on,68,38,0
2,note_on,68,0,228
2,note_on,65,0,0
2,note_on,58,0,12
2,note_on,58,44,0
2,note_on,65,38,240
2,note_on,68,38,0
2,note_on,68,0,228
2,note_on,65,0,0
2,note_on,65,38,12
2,note_on,68,38,0
2,note_on,68,0,228
2,note_on,65,0,0
2,note_on,65,38,12
2,note_on,68,38,0
2,note_on,68,0,228
2,note_on,65,0,0
2,note_on,58,0,12
2,note_on,58,44,0
2,note_on,65,38,240
2,note_on,68,38,0
2,note_on,68,0,228
2,note_on,65,0,0
2,note_on,65,38,12
2,note_on,68,38,0
2,note_on,68,0,228
2,note_on,65,0,0
2,note_on,65,38,12
2,note_on,68,38,0
2,note_on,68,0,228
2,note_on,65,0,0
2,note_on,58,0,12
2,note_on,58,44,0
2,note_on,63,38,240
2,note_on,66,38,0
2,note_on,66,0,228
2,note_on,63,0,0
2,note_on,63,38,12
2,note_on,66,38,0
2,note_on,66,0,228
2,note_on,63,0,0
2,note_on,63,38,12
2,note_on,66,38,0
2,note_on,66,0,228
2,note_on,63,0,0
2,note_on,58,0,12
2,note_on,58,44,0
2,note_on,63,38,240
2,note_on,66,38,0
2,note_on,66,0,228
2,note_on,63,0,0
2,note_on,63,38,12
2,note_on,66,38,0
2,note_on,66,0,228
2,note_on,63,0,0
2,note_on,63,38,12
2,note_on,66,38,0
2,note_on,66,0,228
2,note_on,63,0,0
2,note_on,58,0,12
2,note_on,58,44,0
2,note_on,63,38,240
2,note_on,66,38,0
2,note_on,66,0,228
2,note_on,63,0,0
2,note_on,63,38,12
2,note_on,66,38,0
2,note_on,66,0,228
2,note_on,63,0,0
2,note_on,63,38,12
2,note_on,66,38,0
2,note_on,66,0,228
2,note_on,63,0,0
2,note_on,58,0,12
2,note_on,58,44,0
2,note_on,63,38,240
2,note_on,66,38,0
2,note_on,66,0,228
2,note_on,63,0,0
2,note_on,63,38,12
2,note_on,66,38,0
2,note_on,66,0,228
2,note_on,63,0,0
2,note_on,63,38,12
2,note_on,66,38,0
2,note_on,66,0,228
2,note_on,63,0,0
2,note_on,58,0,12
2,note_on,56,44,0
2,note_on,63,38,240
2,note_on,66,38,0
2,note_on,66,0,228
2,note_on,63,0,0
2,note_on,63,38,12
2,note_on,66,38,0
2,note_on,66,0,228
2,note_on,63,0,0
2,note_on,63,38,12
2,note_on,66,38,0
2,note_on,66,0,228
2,note_on,63,0,0
2,note_on,56,0,12
2,note_on,56,44,0
2,note_on,63,38,240
2,note_on,66,38,0
2,note_on,66,0,228
2,note_on,63,0,0
2,note_on,63,38,12
2,note_on,66,38,0
2,note_on,66,0,228
2,note_on,63,0,0
2,note_on,63,38,12
2,note_on,66,38,0
2,note_on,66,0,228
2,note_on,63,0,0
2,note_on,56,0,12
2,note_on,56,44,0
2,note_on,63,38,240
2,note_on,66,38,0
2,note_on,66,0,228
2,note_on,63,0,0
2,note_on,63,38,12
2,note_on,66,38,0
2,note_on,66,0,228
2,note_on,63,0,0
2,note_on,63,38,12
2,note_on,66,38,0
2,note_on,66,0,228
2,note_on,63,0,0
2,note_on,56,0,12
2,note_on,56,44,0
2,note_on,63,38,240
2,note_on,66,38,0
2,note_on,66,0,228
2,note_on,63,0,0
2,note_on,63,38,12
2,note_on,66,38,0
2,note_on,66,0,228
2,note_on,63,0,0
2,note_on,63,38,12
2,note_on,66,38,0
2,note_on,66,0,228
2,note_on,63,0,0
2,note_on,56,0,12
2,note_on,56,44,0
2,note_on,61,38,240
2,note_on,65,38,0
2,note_on,65,0,228
2,note_on,61,0,0
2,note_on,61,38,12
2,note_on,65,38,0
2,note_on,65,0,228
2,note_on,61,0,0
2,note_on,61,38,12
2,note_on,65,38,0
2,note_on,65,0,228
2,note_on,61,0,0
2,note_on,56,0,12
2,note_on,56,44,0
2,note_on,61,38,240
2,note_on,65,38,0
2,note_on,65,0,228
2,note_on,61,0,0
2,note_on,61,38,12
2,note_on,65,38,0
2,note_on,65,0,228
2,note_on,61,0,0
2,note_on,61,38,12
2,note_on,65,38,0
2,note_on,65,0,228
2,note_on,61,0,0
2,note_on,56,0,12
2,note_on,56,44,0
2,note_on,61,38,240
2,note_on,65,38,0
2,note_on,65,0,228
2,note_on,61,0,0
2,note_on,61,38,12
2,note_on,65,38,0
2,note_on,65,0,228
2,note_on,61,0,0
2,note_on,61,38,12
2,note_on,65,38,0
2,note_on,65,0,228
2,note_on,61,0,0
2,note_on,56,0,12
2,note_on,56,44,0
2,note_on,61,38,240
2,note_on,65,38,0
2,note_on,65,0,228
2,note_on,61,0,0
2,note_on,61,38,12
2,note_on,65,38,0
2,note_on,65,0,228
2,note_on,61,0,0
2,note_on,61,38,12
2,note_on,65,38,0
2,note_on,65,0,228
2,note_on,61,0,0
2,note_on,56,0,12
2,note_on,56,44,0
2,note_on,63,38,240
2,note_on,66,38,0
2,note_on,66,0,228
2,note_on,63,0,0
2,note_on,63,38,12
2,note_on,66,38,0
2,note_on,66,0,228
2,note_on,63,0,0
2,note_on,63,38,12
2,note_on,66,38,0
2,note_on,66,0,228
2,note_on,63,0,0
2,note_on,56,0,12
2,note_on,56,44,0
2,note_on,63,38,240
2,note_on,66,38,0
2,note_on,66,0,228
2,note_on,63,0,0
2,note_on,63,38,12
2,note_on,66,38,0
2,note_on,66,0,228
2,note_on,63,0,0
2,note_on,63,38,12
2,note_on,66,38,0
2,note_on,66,0,228
2,note_on,63,0,0
2,note_on,56,0,12
2,note_on,56,44,0
2,note_on,63,38,240
2,note_on,66,38,0
2,note_on,66,0,228
2,note_on,63,0,0
2,note_on,63,38,12
2,note_on,66,38,0
2,note_on,66,0,228
2,note_on,63,0,0
2,note_on,63,38,12
2,note_on,66,38,0
2,note_on,66,0,228
2,note_on,63,0,0
2,note_on,56,0,12
2,note_on,56,44,0
2,note_on,63,38,240
2,note_on,66,38,0
2,note_on,66,0,228
2,note_on,63,0,0
2,note_on,63,38,12
2,note_on,66,38,0
2,note_on,66,0,228
2,note_on,63,0,0
2,note_on,63,38,12
2,note_on,66,38,0
2,note_on,66,0,228
2,note_on,63,0,0
2,note_on,56,0,12
2,note_on,61,54,0
2,note_on,65,53,240
2,note_on,68,53,0
2,note_on,68,0,240
2,note_on,65,0,0
2,note_on,61,0,0
2,note_on,59,60,0
2,note_on,65,53,240
2,note_on,68,53,0
2,note_on,68,0,240
2,note_on,65,0,0
2,note_on,59,0,0
2,note_on,58,53,0
2,note_on,65,38,240
2,note_on,68,38,0
2,note_on,68,0,228
2,note_on,65,0,0
2,note_on,65,38,12
2,note_on,68,38,0
2,note_on,68,0,228
2,note_on,65,0,0
2,note_on,65,38,12
2,note_on,68,38,0
2,note_on,68,0,228
2,note_on,65,0,0
2,note_on,58,0,12
2,note_on,58,44,0
2,note_on,65,38,240
2,note_on,68,38,0
2,note_on,68,0,228
2,note_on,65,0,0
2,note_on,65,38,12
2,note_on,68,38,0
2,note_on,68,0,228
2,note_on,65,0,0
2,note_on,65,38,12
2,note_on,68,38,0
2,note_on,68,0,228
2,note_on,65,0,0
2,note_on,58,0,12
2,note_on,58,44,0
2,note_on,65,38,240
2,note_on,68,38,0
2,note_on,68,0,228
2,note_on,65,0,0
2,note_on,65,38,12
2,note_on,68,38,0
2,note_on,68,0,228
2,note_on,65,0,0
2,note_on,65,38,12
2,note_on,68,38,0
2,note_on,68,0,228
2,note_on,65,0,0
2,note_on,58,0,12
2,note_on,63,54,0
2,note_on,66,53,240
2,note_on,70,53,0
2,note_on,70,0,240
2,note_on,66,0,0
2,note_on,63,0,0
2,note_on,61,60,0
2,note_on,65,53,240
2,note_on,70,53,0
2,note_on,70,0,240
2,note_on,65,0,0
2,note_on,61,0,0
2,note_on,60,53,0
2,note_on,67,38,240
2,note_on,70,38,0
2,note_on,70,0,228
2,note_on,67,0,0
2,note_on,67,38,12
2,note_on,70,38,0
2,note_on,70,0,228
2,note_on,67,0,0
2,note_on,67,38,12
2,note_on,70,38,0
2,note_on,70,0,228
2,note_on,67,0,0
2,note_on,60,0,12
2,note_on,60,44,0
2,note_on,67,38,240
2,note_on,70,38,0
2,note_on,70,0,228
2,note_on,67,0,0
2,note_on,67,38,12
2,note_on,70,38,0
2,note_on,70,0,228
2,note_on,67,0,0
2,note_on,67,38,12
2,note_on,70,38,0
2,note_on,70,0,228
2,note_on,67,0,0
2,note_on,60,0,12
2,note_on,60,44,0
2,note_on,67,38,240
2,note_on,70,38,0
2,note_on,70,0,228
2,note_on,67,0,0
2,note_on,67,38,12
2,note_on,70,38,0
2,note_on,70,0,228
2,note_on,67,0,0
2,note_on,67,38,12
2,note_on,70,38,0
2,note_on,70,0,228
2,note_on,67,0,0
2,note_on,60,0,12
2,note_on,65,44,0
2,note_on,68,38,240
2,note_on,72,38,0
2,note_on,72,0,228
2,note_on,68,0,0
2,note_on,68,38,12
2,note_on,72,38,0
2,note_on,72,0,228
2,note_on,68,0,0
2,note_on,68,38,12
2,note_on,72,38,0
2,note_on,72,0,228
2,note_on,68,0,0
2,note_on,65,0,12
2,note_on,58,44,0
2,note_on,65,38,240
2,note_on,68,38,0
2,note_on,68,0,228
2,note_on,65,0,0
2,note_on,58,0,12
2,note_on,59,44,0
2,note_on,65,38,0
2,note_on,68,38,0
2,note_on,68,0,228
2,note_on,65,0,0
2,note_on,65,38,12
2,note_on,68,38,0
2,note_on,68,0,228
2,note_on,65,0,0
2,note_on,59,0,12
2,note_on,60,44,0
2,note_on,63,37,240
2,note_on,67,37,0
2,note_on,67,0,228
2,note_on,63,0,0
2,note_on,63,36,12
2,note_on,67,36,0
2,note_on,67,0,228
2,note_on,63,0,0
2,note_on,63,36,12
2,note_on,67,36,0
2,note_on,67,0,228
2,note_on,63,0,0
2,note_on,60,0,12
2,note_on,56,41,0
2,note_on,63,34,240
2,note_on,65,34,0
2,note_on,65,0,228
2,note_on,63,0,0
2,note_on,63,34,12
2,note_on,65,34,0
2,note_on,65,0,228
2,note_on,63,0,0
2,note_on,63,33,12
2,note_on,65,33,0
2,note_on,65,0,228
2,note_on,63,0,0
2,note_on,56,0,12
2,note_on,58,38,0
2,note_on,63,32,240
2,note_on,67,32,0
2,note_on,67,0,228
2,note_on,63,0,0
2,note_on,63,31,12
2,note_on,67,31,0
2,note_on,67,0,228
2,note_on,63,0,0
2,note_on,63,31,12
2,note_on,67,31,0
2,note_on,67,0,228
2,note_on,63,0,0
2,note_on,58,0,12
2,note_on,58,27,0
2,note_on,62,23,240
2,note_on,65,23,0
2,note_on,65,0,228
2,note_on,62,0,0
2,note_on,62,23,12
2,note_on,65,23,0
2,note_on,65,0,228
2,note_on,62,0,0
2,note_on,62,23,12
2,note_on,65,23,0
2,note_on,65,0,228
2,note_on,62,0,0
2,note_on,58,0,12
2,note_on,51,36,0
2,note_on,58,24,120
2,note_on,58,0,120
2,note_on,55,26,0
2,note_on,55,0,120
2,note_on,58,24,0
2,note_on,58,0,120
2,note_on,55,32,0
2,note_on,55,0,120
2,note_on,58,25,0
2,note_on,58,0,120
2,note_on,55,28,0
2,note_on,55,0,120
2,note_on,58,26,0
2,note_on,58,0,120
2,note_on,55,34,0
2,note_on,55,0,120
2,note_on,58,26,0
2,note_on,58,0,120
2,note_on,55,29,0
2,note_on,55,0,120
2,note_on,58,26,0
2,note_on,58,0,120
2,note_on,51,0,0
2,note_on,51,36,0
2,note_on,58,28,120
2,note_on,58,0,120
2,note_on,55,32,0
2,note_on,55,0,120
2,note_on,58,28,0
2,note_on,58,0,120
2,note_on,51,0,0
2,note_on,49,45,0
2,note_on,58,30,120
2,note_on,58,0,120
2,note_on,55,32,0
2,note_on,55,0,120
2,note_on,58,29,0
2,note_on,58,0,120
2,note_on,55,38,0
2,note_on,55,0,120
2,note_on,58,30,0
2,note_on,58,0,120
2,note_on,55,33,0
2,note_on,55,0,120
2,note_on,58,30,0
2,note_on,58,0,120
2,note_on,55,38,0
2,note_on,55,0,120
2,note_on,58,29,0
2,note_on,58,0,120
2,note_on,55,32,0
2,note_on,55,0,120
2,note_on,58,29,0
2,note_on,58,0,120
2,note_on,49,0,0
2,note_on,49,38,0
2,note_on,58,30,120
2,note_on,58,0,120
2,note_on,55,33,0
2,note_on,55,0,120
2,note_on,58,29,0
2,note_on,58,0,120
2,note_on,49,0,0
2,note_on,48,55,0
2,note_on,48,0,90
2,note_on,56,36,30
2,note_on,56,0,120
2,note_on,51,39,0
2,note_on,51,0,120
2,note_on,56,35,0
2,note_on,56,0,120
2,note_on,46,56,0
2,note_on,46,0,90
2,note_on,55,36,30
2,note_on,55,0,120
2,note_on,48,43,0
2,note_on,48,0,120
2,note_on,55,41,0
2,note_on,55,0,120
2,note_on,44,58,0
2,note_on,44,0,90
2,note_on,56,38,30
2,note_on,56,0,120
2,note_on,48,43,0
2,note_on,48,0,120
2,note_on,56,38,0
2,note_on,56,0,120
2,note_on,43,60,0
2,note_on,43,0,90
2,note_on,55,40,30
2,note_on,55,0,120
2,note_on,48,43,0
2,note_on,48,0,120
2,note_on,55,38,0
2,note_on,55,0,120
2,note_on,41,63,0
2,note_on,41,0,90
2,note_on,53,42,30
2,note_on,53,0,120
2,note_on,48,45,0
2,note_on,48,0,120
2,note_on,53,42,0
2,note_on,53,0,120
2,note_on,39,66,0
2,note_on,39,0,90
2,note_on,51,41,30
2,note_on,51,0,120
2,note_on,41,47,0
2,note_on,41,0,120
2,note_on,51,41,0
2,note_on,51,0,120
2,note_on,38,68,0
2,note_on,38,0,90
2,note_on,50,45,30
2,note_on,50,0,120
2,note_on,41,49,0
2,note_on,41,0,120
2,note_on,50,43,0
2,note_on,50,0,120
2,note_on,36,70,0
2,note_on,36,0,90
2,note_on,48,45,30
2,note_on,48,0,120
2,note_on,41,51,0
2,note_on,41,0,120
2,note_on,48,43,0
2,note_on,48,0,120
2,note_on,34,70,0
2,note_on,34,0,90
2,note_on,46,47,30
2,note_on,46,0,120
2,note_on,41,53,0
2,note_on,41,0,120
2,note_on,46,48,0
2,note_on,46,0,120
2,note_on,32,72,0
2,note_on,32,0,90
2,note_on,44,47,30
2,note_on,44,0,120
2,note_on,41,53,0
2,note_on,41,0,120
2,note_on,44,50,0
2,note_on,44,0,120
2,note_on,31,75,0
2,note_on,31,0,90
2,note_on,43,50,30
2,note_on,43,0,120
2,note_on,39,55,0
2,note_on,39,0,120
2,note_on,43,50,0
2,note_on,43,0,120
2,note_on,31,76,0
2,note_on,31,0,90
2,note_on,43,56,30
2,note_on,43,0,120
2,note_on,39,58,0
2,note_on,39,0,120
2,note_on,43,55,0
2,note_on,43,0,120
2,note_on,32,71,0
2,note_on,44,84,0
2,note_on,44,0,240
2,note_on,32,0,0
2,note_on,46,84,720
2,note_on,34,71,0
2,note_on,34,0,240
2,note_on,46,0,0
2,note_on,51,45,720
2,note_on,58,30,120
2,note_on,58,0,120
2,note_on,55,32,0
2,note_on,55,0,120
2,note_on,58,29,0
2,note_on,58,0,120
2,note_on,55,38,0
2,note_on,55,0,120
2,note_on,58,30,0
2,note_on,58,0,120
2,note_on,55,33,0
2,note_on,55,0,120
2,note_on,58,30,0
2,note_on,58,0,120
2,note_on,55,38,0
2,note_on,55,0,120
2,note_on,58,29,0
2,note_on,58,0,120
2,note_on,55,32,0
2,note_on,55,0,120
2,note_on,58,29,0
2,note_on,58,0,120
2,note_on,51,0,0
2,note_on,51,38,0
2,note_on,58,30,120
2,note_on,58,0,120
2,note_on,55,33,0
2,note_on,55,0,120
2,note_on,58,29,0
2,note_on,58,0,120
2,note_on,51,0,0
2,note_on,49,45,0
2,note_on,58,30,120
2,note_on,58,0,120
2,note_on,55,32,0
2,note_on,55,0,120
2,note_on,58,29,0
2,note_on,58,0,120
2,note_on,55,38,0
2,note_on,55,0,120
2,note_on,58,30,0
2,note_on,58,0,120
2,note_on,55,33,0
2,note_on,55,0,120
2,note_on,58,30,0
2,note_on,58,0,120
2,note_on,55,38,0
2,note_on,55,0,120
2,note_on,58,29,0
2,note_on,58,0,120
2,note_on,55,32,0
2,note_on,55,0,120
2,note_on,58,29,0
2,note_on,58,0,120
2,note_on,49,0,0
2,note_on,49,38,0
2,note_on,58,30,120
2,note_on,58,0,120
2,note_on,55,33,0
2,note_on,55,0,120
2,note_on,58,29,0
2,note_on,58,0,120
2,note_on,49,0,0
2,note_on,48,55,0
2,note_on,48,0,90
2,note_on,56,36,30
2,note_on,56,0,120
2,note_on,51,39,0
2,note_on,51,0,120
2,note_on,56,35,0
2,note_on,56,0,120
2,note_on,46,56,0
2,note_on,46,0,90
2,note_on,55,36,30
2,note_on,55,0,120
2,note_on,48,43,0
2,note_on,48,0,120
2,note_on,55,41,0
2,note_on,55,0,120
2,note_on,44,58,0
2,note_on,44,0,90
2,note_on,56,38,30
2,note_on,56,0,120
2,note_on,48,43,0
2,note_on,48,0,120
2,note_on,56,38,0
2,note_on,56,0,120
2,note_on,43,60,0
2,note_on,43,0,90
2,note_on,55,40,30
2,note_on,55,0,120
2,note_on,48,43,0
2,note_on,48,0,120
2,note_on,55,38,0
2,note_on,55,0,120
2,note_on,41,63,0
2,note_on,41,0,90
2,note_on,53,42,30
2,note_on,53,0,120
2,note_on,48,45,0
2,note_on,48,0,120
2,note_on,53,42,0
2,note_on,53,0,120
2,note_on,39,66,0
2,note_on,39,0,90
2,note_on,51,41,30
2,note_on,51,0,120
2,note_on,41,47,0
2,note_on,41,0,120
2,note_on,51,41,0
2,note_on,51,0,120
2,note_on,38,68,0
2,note_on,38,0,90
2,note_on,50,45,30
2,note_on,50,0,120
2,note_on,41,49,0
2,note_on,41,0,120
2,note_on,50,43,0
2,note_on,50,0,120
2,note_on,36,70,0
2,note_on,36,0,90
2,note_on,48,45,30
2,note_on,48,0,120
2,note_on,41,51,0
2,note_on,41,0,120
2,note_on,48,43,0
2,note_on,48,0,120
2,note_on,34,70,0
2,note_on,34,0,90
2,note_on,46,47,30
2,note_on,46,0,120
2,note_on,41,53,0
2,note_on,41,0,120
2,note_on,46,48,0
2,note_on,46,0,120
2,note_on,32,72,0
2,note_on,32,0,90
2,note_on,44,47,30
2,note_on,44,0,120
2,note_on,41,53,0
2,note_on,41,0,120
2,note_on,44,50,0
2,note_on,44,0,120
2,note_on,31,75,0
2,note_on,31,0,90
2,note_on,43,50,30
2,note_on,43,0,120
2,note_on,39,55,0
2,note_on,39,0,120
2,note_on,43,50,0
2,note_on,43,0,120
2,note_on,31,76,0
2,note_on,31,0,90
2,note_on,43,56,30
2,note_on,43,0,120
2,note_on,31,58,0
2,note_on,31,0,120
2,note_on,43,55,0
2,note_on,43,0,120
2,note_on,32,71,0
2,note_on,44,84,0
2,note_on,44,0,240
2,note_on,32,0,0
2,note_on,46,84,720
2,note_on,34,71,0
2,note_on,34,0,240
2,note_on,46,0,0
2,note_on,39,84,720
2,note_on,51,84,0
2,note_on,51,0,240
2,note_on,39,0,0
2,note_on,63,34,0
2,note_on,67,34,0
2,note_on,67,0,228
2,note_on,63,0,0
2,note_on,63,34,12
2,note_on,67,34,0
2,note_on,67,0,228
2,note_on,63,0,0
2,note_on,63,34,12
2,note_on,67,34,0
2,note_on,67,0,228
2,note_on,63,0,0
2,note_on,60,34,12
2,note_on,63,34,240
2,note_on,67,34,0
2,note_on,67,0,228
2,note_on,63,0,0
2,note_on,63,34,12
2,note_on,67,34,0
2,note_on,67,0,228
2,note_on,63,0,0
2,note_on,63,34,12
2,note_on,67,34,0
2,note_on,67,0,228
2,note_on,63,0,0
2,note_on,60,0,12
2,note_on,56,34,0
2,note_on,65,34,240
2,note_on,63,34,0
2,note_on,63,0,228
2,note_on,65,0,0
2,note_on,63,34,12
2,note_on,65,34,0
2,note_on,65,0,228
2,note_on,63,0,0
2,note_on,63,34,12
2,note_on,65,34,0
2,note_on,65,0,228
2,note_on,63,0,0
2,note_on,56,0,12
2,note_on,58,34,0
2,note_on,62,34,240
2,note_on,65,34,0
2,note_on,65,0,228
2,note_on,62,0,0
2,note_on,62,34,12
2,note_on,65,34,0
2,note_on,65,0,228
2,note_on,62,0,0
2,note_on,62,34,12
2,note_on,65,34,0
2,note_on,65,0,228
2,note_on,62,0,0
2,note_on,58,0,12
2,note_on,51,59,0
2,note_on,55,44,240
2,note_on,63,44,0
2,note_on,63,0,228
2,note_on,55,0,0
2,note_on,55,44,12
2,note_on,63,44,0
2,note_on,63,0,228
2,note_on,55,0,0
2,note_on,55,44,12
2,note_on,63,44,0
2,note_on,63,0,228
2,note_on,55,0,0
2,note_on,51,0,12
2,note_on,48,45,0
2,note_on,55,46,240
2,note_on,51,46,0
2,note_on,60,46,0
2,note_on,60,0,228
2,note_on,51,0,0
2,note_on,55,0,0
2,note_on,55,46,12
2,note_on,51,46,0
2,note_on,60,46,0
2,note_on,60,0,228
2,note_on,51,0,0
2,note_on,55,0,0
2,note_on,55,47,12
2,note_on,51,47,0
2,note_on,60,47,0
2,note_on,60,0,228
2,note_on,51,0,0
2,note_on,55,0,0
2,note_on,48,0,12
2,note_on,44,47,0
2,note_on,53,48,240
2,note_on,56,48,0
2,note_on,51,48,0
2,note_on,51,0,228
2,note_on,56,0,0
2,note_on,53,0,0
2,note_on,53,48,12
2,note_on,51,48,0
2,note_on,56,48,0
2,note_on,56,0,228
2,note_on,51,0,0
2,note_on,53,0,0
2,note_on,53,49,12
2,note_on,51,49,0
2,note_on,56,49,0
2,note_on,56,0,228
2,note_on,51,0,0
2,note_on,53,0,0
2,note_on,44,0,12
2,note_on,46,49,0
2,note_on,53,50,240
2,note_on,50,50,0
2,note_on,58,50,0
2,note_on,58,0,228
2,note_on,50,0,0
2,note_on,53,0,0
2,note_on,53,50,12
2,note_on,50,50,0
2,note_on,58,50,0
2,note_on,58,0,228
2,note_on,50,0,0
2,note_on,53,0,0
2,note_on,53,51,12
2,note_on,50,51,0
2,note_on,58,51,0
2,note_on,58,0,228
2,note_on,50,0,0
2,note_on,53,0,0
2,note_on,46,0,12
2,note_on,39,67,0
2,note_on,51,60,120
2,note_on,39,0,108
2,note_on,51,0,12
2,note_on,39,67,0
2,note_on,51,59,120
2,note_on,39,0,108
2,note_on,51,0,12
2,note_on,39,67,0
2,note_on,51,60,120
2,note_on,39,0,108
2,note_on,51,0,12
2,note_on,39,66,0
2,note_on,51,60,120
2,note_on,39,0,108
2,note_on,51,0,12
2,note_on,39,66,0
2,note_on,51,59,120
2,note_on,39,0,108
2,note_on,51,0,12
2,note_on,39,66,0
2,note_on,51,60,120
2,note_on,39,0,108
2,note_on,51,0,12
2,note_on,39,66,0
2,note_on,51,60,120
2,note_on,39,0,108
2,note_on,51,0,12
2,note_on,39,66,0
2,note_on,51,61,120
2,note_on,39,0,108
2,note_on,51,0,12
2,note_on,39,67,0
2,note_on,51,60,120
2,note_on,39,0,108
2,note_on,51,0,12
2,note_on,39,67,0
2,note_on,51,59,120
2,note_on,39,0,108
2,note_on,51,0,12
2,note_on,39,67,0
2,note_on,51,60,120
2,note_on,39,0,108
2,note_on,51,0,12
2,note_on,39,66,0
2,note_on,51,60,120
2,note_on,39,0,108
2,note_on,51,0,12
2,note_on,39,66,0
2,note_on,51,59,120
2,note_on,39,0,108
2,note_on,51,0,12
2,note_on,39,66,0
2,note_on,51,60,120
2,note_on,39,0,108
2,note_on,51,0,12
2,note_on,39,66,0
2,note_on,51,60,120
2,note_on,39,0,108
2,note_on,51,0,12
2,note_on,39,66,0
2,note_on,51,61,120
2,note_on,39,0,108
2,note_on,51,0,12
2,note_on,39,66,0
2,note_on,51,59,120
2,note_on,39,0,108
2,note_on,51,0,12
2,note_on,39,66,0
2,note_on,51,60,120
2,note_on,39,0,108
2,note_on,51,0,12
2,note_on,39,66,0
2,note_on,51,60,120
2,note_on,39,0,108
2,note_on,51,0,12
2,note_on,39,66,0
2,note_on,51,61,120
2,note_on,39,0,108
2,note_on,51,0,12
2,note_on,38,66,0
2,note_on,50,59,120
2,note_on,38,0,108
2,note_on,50,0,12
2,note_on,38,66,0
2,note_on,50,60,120
2,note_on,38,0,108
2,note_on,50,0,12
2,note_on,38,66,0
2,note_on,50,60,120
2,note_on,38,0,108
2,note_on,50,0,12
2,note_on,38,66,0
2,note_on,50,61,120
2,note_on,38,0,108
2,note_on,50,0,12
2,note_on,36,66,0
2,note_on,48,59,120
2,note_on,36,0,108
2,note_on,48,0,12
2,note_on,36,66,0
2,note_on,48,60,120
2,note_on,36,0,108
2,note_on,48,0,12
2,note_on,36,66,0
2,note_on,48,60,120
2,note_on,36,0,108
2,note_on,48,0,12
2,note_on,36,66,0
2,note_on,48,61,120
2,note_on,36,0,108
2,note_on,48,0,12
2,note_on,34,66,0
2,note_on,46,59,120
2,note_on,34,0,108
2,note_on,46,0,12
2,note_on,34,66,0
2,note_on,46,60,120
2,note_on,34,0,108
2,note_on,46,0,12
2,note_on,34,66,0
2,note_on,46,60,120
2,note_on,34,0,108
2,note_on,46,0,12
2,note_on,34,66,0
2,note_on,46,61,120
2,note_on,34,0,108
2,note_on,46,0,12
2,note_on,32,66,0
2,note_on,44,59,120
2,note_on,32,0,108
2,note_on,44,0,12
2,note_on,32,66,0
2,note_on,44,60,120
2,note_on,32,0,108
2,note_on,44,0,12
2,note_on,32,66,0
2,note_on,44,60,120
2,note_on,32,0,108
2,note_on,44,0,12
2,note_on,32,66,0
2,note_on,44,61,120
2,note_on,32,0,108
2,note_on,44,0,12
2,note_on,31,66,0
2,note_on,43,59,120
2,note_on,31,0,108
2,note_on,43,0,12
2,note_on,31,66,0
2,note_on,43,60,120
2,note_on,31,0,108
2,note_on,43,0,12
2,note_on,31,66,0
2,note_on,43,60,120
2,note_on,31,0,108
2,note_on,43,0,12
2,note_on,31,66,0
2,note_on,43,61,120
2,note_on,31,0,108
2,note_on,43,0,12
2,note_on,30,62,0
2,note_on,42,74,0
2,note_on,42,0,960
2,note_on,30,0,0
2,note_on,42,71,0
2,note_on,54,84,0
2,note_on,54,0,960
2,note_on,42,0,0
2,note_on,31,76,0
2,note_on,34,76,0
2,note_on,38,76,0
2,note_on,43,89,0
2,note_on,43,0,1320
2,note_on,31,0,0
2,note_on,34,0,0
2,note_on,38,0,0
2,note_on,58,39,0
2,note_on,58,0,114
2,note_on,57,45,6
2,note_on,57,0,360
2,note_on,55,39,0
2,note_on,55,0,114
2,note_on,61,42,6
2,note_on,61,0,960
2,note_on,62,27,0
2,note_on,62,0,480
2,note_on,51,86,360
2,note_on,51,0,120
2,note_on,63,90,0
2,note_on,63,0,1320
2,note_on,63,39,0
2,note_on,63,0,114
2,note_on,62,45,6
2,note_on,62,0,360
2,note_on,60,39,0
2,note_on,60,0,114
2,note_on,58,38,6
2,note_on,58,0,1440
2,note_on,51,81,360
2,note_on,51,0,120
2,note_on,63,86,0
2,note_on,63,0,1320
2,note_on,63,42,0
2,note_on,63,0,114
2,note_on,62,49,6
2,note_on,62,0,360
2,note_on,60,49,0
2,note_on,60,0,114
2,note_on,60,50,6
2,note_on,60,0,480
2,note_on,59,43,0
2,note_on,59,0,960
2,note_on,59,33,0
2,note_on,59,0,960
2,note_on,47,31,0
2,note_on,47,0,960
2,note_on,47,28,0
2,note_on,47,0,960
2,note_on,35,25,0
2,note_on,35,0,960
2,note_on,35,22,0
2,note_on,35,0,480
2,note_on,40,55,0
2,note_on,52,50,120
2,note_on,40,0,108
2,note_on,52,0,12
2,note_on,40,53,0
2,note_on,52,47,120
2,note_on,40,0,108
2,note_on,52,0,12
2,note_on,40,53,0
2,note_on,52,47,120
2,note_on,40,0,108
2,note_on,52,0,12
2,note_on,40,52,0
2,note_on,52,48,120
2,note_on,40,0,108
2,note_on,52,0,12
2,note_on,40,50,0
2,note_on,52,53,120
2,note_on,40,0,108
2,note_on,52,0,12
2,note_on,40,54,0
2,note_on,52,54,120
2,note_on,40,0,108
2,note_on,52,0,12
2,note_on,40,56,0
2,note_on,52,58,120
2,note_on,40,0,108
2,note_on,52,0,12
2,note_on,40,62,0
2,note_on,52,57,120
2,note_on,40,0,108
2,note_on,52,0,12
2,note_on,52,63,0
2,note_on,40,53,0
2,note_on,40,0,228
2,note_on,52,0,0
2,note_on,55,46,12
2,note_on,59,55,0
2,note_on,59,0,228
2,note_on,55,0,0
2,note_on,55,46,12
2,note_on,59,55,0
2,note_on,59,0,228
2,note_on,55,0,0
2,note_on,55,46,12
2,note_on,59,55,0
2,note_on,59,0,228
2,note_on,55,0,0
2,note_on,52,63,12
2,note_on,52,0,228
2,note_on,55,46,12
2,note_on,59,55,0
2,note_on,59,0,228
2,note_on,55,0,0
2,note_on,55,46,12
2,note_on,59,55,0
2,note_on,59,0,228
2,note_on,55,0,0
2,note_on,55,43,12
2,note_on,59,51,0
2,note_on,59,0,228
2,note_on,55,0,0
2,note_on,52,55,12
2,note_on,52,0,228
2,note_on,57,40,12
2,note_on,60,48,0
2,note_on,60,0,228
2,note_on,57,0,0
2,note_on,57,40,12
2,note_on,60,48,0
2,note_on,60,0,228
2,note_on,57,0,0
2,note_on,57,40,12
2,note_on,60,48,0
2,note_on,60,0,228
2,note_on,57,0,0
2,note_on,51,63,12
2,note_on,51,0,228
2,note_on,57,46,12
2,note_on,60,55,0
2,note_on,60,0,228
2,note_on,57,0,0
2,note_on,57,46,12
2,note_on,60,55,0
2,note_on,60,0,228
2,note_on,57,0,0
2,note_on,57,43,12
2,note_on,60,51,0
2,note_on,60,0,228
2,note_on,57,0,0
2,note_on,38,55,12
2,note_on,50,50,120
2,note_on,38,0,108
2,note_on,50,0,12
2,note_on,38,53,0
2,note_on,50,47,120
2,note_on,38,0,108
2,note_on,50,0,12
2,note_on,38,53,0
2,note_on,50,47,120
2,note_on,38,0,108
2,note_on,50,0,12
2,note_on,38,52,0
2,note_on,50,48,120
2,note_on,38,0,108
2,note_on,50,0,12
2,note_on,38,50,0
2,note_on,50,53,120
2,note_on,38,0,108
2,note_on,50,0,12
2,note_on,38,54,0
2,note_on,50,54,120
2,note_on,38,0,108
2,note_on,50,0,12
2,note_on,38,56,0
2,note_on,50,58,120
2,note_on,38,0,108
2,note_on,50,0,12
2,note_on,38,62,0
2,note_on,50,57,120
2,note_on,38,0,108
2,note_on,50,0,12
2,note_on,50,63,0
2,note_on,38,53,0
2,note_on,38,0,228
2,note_on,50,0,0
2,note_on,57,46,12
2,note_on,60,55,0
2,note_on,60,0,228
2,note_on,57,0,0
2,note_on,57,46,12
2,note_on,60,55,0
2,note_on,60,0,228
2,note_on,57,0,0
2,note_on,57,46,12
2,note_on,60,55,0
2,note_on,60,0,228
2,note_on,57,0,0
2,note_on,50,63,12
2,note_on,50,0,228
2,note_on,57,46,12
2,note_on,60,55,0
2,note_on,60,0,228
2,note_on,57,0,0
2,note_on,57,46,12
2,note_on,60,55,0
2,note_on,60,0,228
2,note_on,57,0,0
2,note_on,57,43,12
2,note_on,60,51,0
2,note_on,60,0,228
2,note_on,57,0,0
2,note_on,50,55,12
2,note_on,50,0,228
2,note_on,55,40,12
2,note_on,58,48,0
2,note_on,58,0,228
2,note_on,55,0,0
2,note_on,55,40,12
2,note_on,58,48,0
2,note_on,58,0,228
2,note_on,55,0,0
2,note_on,55,40,12
2,note_on,58,48,0
2,note_on,58,0,228
2,note_on,55,0,0
2,note_on,49,63,12
2,note_on,49,0,228
2,note_on,55,46,12
2,note_on,58,55,0
2,note_on,58,0,228
2,note_on,55,0,0
2,note_on,55,46,12
2,note_on,58,55,0
2,note_on,58,0,228
2,note_on,55,0,0
2,note_on,55,43,12
2,note_on,58,51,0
2,note_on,58,0,228
2,note_on,55,0,0
2,note_on,36,53,12
2,note_on,48,53,0
2,note_on,48,0,240
2,note_on,36,0,0
2,note_on,49,55,0
2,note_on,49,0,240
2,note_on,48,51,0
2,note_on,48,0,240
2,note_on,53,55,0
2,note_on,53,0,240
2,note_on,52,52,0
2,note_on,52,0,240
2,note_on,61,55,0
2,note_on,61,0,240
2,note_on,60,51,0
2,note_on,60,0,240
2,note_on,65,55,0
2,note_on,65,0,240
2,note_on,64,51,0
2,note_on,64,0,240
2,note_on,66,55,0
2,note_on,66,0,240
2,note_on,67,57,0
2,note_on,67,0,240
2,note_on,42,55,1440
2,note_on,42,0,240
2,note_on,41,51,0
2,note_on,41,0,240
2,note_on,49,55,0
2,note_on,49,0,240
2,note_on,48,52,0
2,note_on,48,0,240
2,note_on,54,55,0
2,note_on,54,0,240
2,note_on,53,51,0
2,note_on,53,0,240
2,note_on,61,55,0
2,note_on,61,0,240
2,note_on,60,51,0
2,note_on,60,0,240
2,note_on,64,55,0
2,note_on,64,0,240
2,note_on,65,57,0
2,note_on,65,0,240
2,note_on,48,55,1440
2,note_on,48,0,240
2,note_on,47,51,0
2,note_on,47,0,240
2,note_on,50,55,0
2,note_on,50,0,240
2,note_on,53,52,0
2,note_on,53,0,240
2,note_on,60,55,0
2,note_on,60,0,240
2,note_on,59,51,0
2,note_on,59,0,240
2,note_on,62,55,0
2,note_on,62,0,240
2,note_on,65,54,0
2,note_on,65,0,114
2,note_on,62,54,366
2,note_on,62,0,120
2,note_on,59,53,360
2,note_on,59,0,120
2,note_on,55,52,360
2,note_on,55,0,120
2,note_on,49,43,360
2,note_on,61,51,0
2,note_on,61,0,240
2,note_on,49,0,0
2,note_on,46,42,240
2,note_on,58,50,0
2,note_on,58,0,240
2,note_on,46,0,0
2,note_on,43,41,240
2,note_on,55,49,0
2,note_on,55,0,240
2,note_on,43,0,0
2,note_on,40,40,240
2,note_on,52,48,0
2,note_on,52,0,240
2,note_on,40,0,0
2,note_on,41,40,240
2,note_on,53,48,0
2,note_on,53,0,240
2,note_on,41,0,0
2,note_on,29,40,720
2,note_on,41,48,0
2,note_on,41,0,240
2,note_on,29,0,0
2,note_on,30,40,720
2,note_on,42,48,0
2,note_on,42,0,240
2,note_on,30,0,0
2,note_on,30,40,720
2,note_on,42,48,0
2,note_on,42,0,240
2,note_on,30,0,0
2,note_on,31,33,720
2,note_on,31,0,120
2,note_on,43,33,0
2,note_on,43,0,120
2,note_on,31,34,0
2,note_on,31,0,120
2,note_on,43,34,0
2,note_on,43,0,120
2,note_on,31,34,0
2,note_on,31,0,120
2,note_on,43,34,0
2,note_on,43,0,120
2,note_on,31,34,0
2,note_on,31,0,120
2,note_on,43,34,0
2,note_on,43,0,120
2,note_on,31,34,0
2,note_on,31,0,120
2,note_on,43,34,0
2,note_on,43,0,120
2,note_on,31,34,0
2,note_on,31,0,120
2,note_on,43,34,0
2,note_on,43,0,120
2,note_on,31,34,0
2,note_on,31,0,120
2,note_on,43,34,0
2,note_on,43,0,120
2,note_on,31,34,0
2,note_on,31,0,120
2,note_on,43,34,0
2,note_on,43,0,120
2,note_on,31,33,0
2,note_on,31,0,120
2,note_on,43,33,0
2,note_on,43,0,120
2,note_on,31,33,0
2,note_on,31,0,120
2,note_on,43,33,0
2,note_on,43,0,120
2,note_on,31,33,0
2,note_on,31,0,120
2,note_on,43,33,0
2,note_on,43,0,120
2,note_on,31,33,0
2,note_on,31,0,120
2,note_on,43,33,0
2,note_on,43,0,120
2,note_on,31,33,0
2,note_on,31,0,120
2,note_on,43,33,0
2,note_on,43,0,120
2,note_on,31,33,0
2,note_on,31,0,120
2,note_on,43,33,0
2,note_on,43,0,120
2,note_on,31,33,0
2,note_on,31,0,120
2,note_on,43,33,0
2,note_on,43,0,120
2,note_on,31,33,0
2,note_on,31,0,120
2,note_on,43,33,0
2,note_on,43,0,120
2,note_on,31,55,0
2,note_on,43,50,120
2,note_on,31,0,108
2,note_on,43,0,12
2,note_on,31,53,0
2,note_on,43,47,120
2,note_on,31,0,108
2,note_on,43,0,12
2,note_on,31,53,0
2,note_on,43,47,120
2,note_on,31,0,108
2,note_on,43,0,12
2,note_on,31,52,0
2,note_on,43,48,120
2,note_on,31,0,108
2,note_on,43,0,12
2,note_on,31,50,0
2,note_on,43,53,120
2,note_on,31,0,108
2,note_on,43,0,12
2,note_on,31,54,0
2,note_on,43,54,120
2,note_on,31,0,108
2,note_on,43,0,12
2,note_on,31,56,0
2,note_on,43,58,120
2,note_on,31,0,108
2,note_on,43,0,12
2,note_on,31,62,0
2,note_on,43,57,120
2,note_on,31,0,108
2,note_on,43,0,12
2,note_on,31,69,0
2,note_on,43,62,240
2,note_on,31,0,240
2,note_on,35,67,0
2,note_on,43,0,240
2,note_on,43,62,0
2,note_on,35,0,240
2,note_on,36,67,0
2,note_on,43,0,240
2,note_on,43,62,0
2,note_on,36,0,240
2,note_on,30,64,0
2,note_on,43,0,240
2,note_on,43,62,0
2,note_on,43,0,240
2,note_on,30,0,0
2,note_on,31,33,0
2,note_on,31,0,120
2,note_on,43,33,0
2,note_on,43,0,120
2,note_on,31,34,0
2,note_on,31,0,120
2,note_on,43,34,0
2,note_on,43,0,120
2,note_on,31,34,0
2,note_on,31,0,120
2,note_on,43,34,0
2,note_on,43,0,120
2,note_on,31,34,0
2,note_on,31,0,120
2,note_on,43,34,0
2,note_on,43,0,120
2,note_on,31,34,0
2,note_on,31,0,120
2,note_on,43,34,0
2,note_on,43,0,120
2,note_on,31,34,0
2,note_on,31,0,120
2,note_on,43,34,0
2,note_on,43,0,120
2,note_on,31,34,0
2,note_on,31,0,120
2,note_on,43,34,0
2,note_on,43,0,120
2,note_on,31,34,0
2,note_on,31,0,120
2,note_on,43,34,0
2,note_on,43,0,120
2,note_on,31,33,0
2,note_on,31,0,120
2,note_on,43,33,0
2,note_on,43,0,120
2,note_on,31,33,0
2,note_on,31,0,120
2,note_on,43,33,0
2,note_on,43,0,120
2,note_on,31,33,0
2,note_on,31,0,120
2,note_on,43,33,0
2,note_on,43,0,120
2,note_on,31,33,0
2,note_on,31,0,120
2,note_on,43,33,0
2,note_on,43,0,120
2,note_on,31,33,0
2,note_on,31,0,120
2,note_on,43,33,0
2,note_on,43,0,120
2,note_on,31,33,0
2,note_on,31,0,120
2,note_on,43,33,0
2,note_on,43,0,120
2,note_on,31,33,0
2,note_on,31,0,120
2,note_on,43,33,0
2,note_on,43,0,120
2,note_on,31,33,0
2,note_on,31,0,120
2,note_on,43,33,0
2,note_on,43,0,120
2,note_on,31,55,0
2,note_on,43,50,120
2,note_on,31,0,108
2,note_on,43,0,12
2,note_on,31,53,0
2,note_on,43,47,120
2,note_on,31,0,108
2,note_on,43,0,12
2,note_on,31,53,0
2,note_on,43,47,120
2,note_on,31,0,108
2,note_on,43,0,12
2,note_on,31,52,0
2,note_on,43,48,120
2,note_on,31,0,108
2,note_on,43,0,12
2,note_on,31,50,0
2,note_on,43,53,120
2,note_on,31,0,108
2,note_on,43,0,12
2,note_on,31,54,0
2,note_on,43,54,120
2,note_on,31,0,108
2,note_on,43,0,12
2,note_on,31,56,0
2,note_on,43,58,120
2,note_on,31,0,108
2,note_on,43,0,12
2,note_on,31,62,0
2,note_on,43,57,120
2,note_on,31,0,108
2,note_on,43,0,12
2,note_on,31,69,0
2,note_on,43,62,240
2,note_on,31,0,240
2,note_on,35,67,0
2,note_on,43,0,240
2,note_on,43,62,0
2,note_on,35,0,240
2,note_on,36,67,0
2,note_on,43,0,240
2,note_on,43,62,0
2,note_on,36,0,240
2,note_on,30,64,0
2,note_on,43,0,240
2,note_on,43,62,0
2,note_on,43,0,240
2,note_on,30,0,0
2,note_on,31,69,0
2,note_on,43,62,240
2,note_on,31,0,240
2,note_on,35,67,0
2,note_on,43,0,240
2,note_on,43,62,0
2,note_on,35,0,240
2,note_on,36,67,0
2,note_on,43,0,240
2,note_on,43,62,0
2,note_on,36,0,240
2,note_on,30,64,0
2,note_on,43,0,240
2,note_on,43,62,0
2,note_on,43,0,240
2,note_on,30,0,0
2,note_on,31,69,0
2,note_on,43,62,240
2,note_on,31,0,240
2,note_on,35,67,0
2,note_on,43,0,240
2,note_on,43,62,0
2,note_on,35,0,240
2,note_on,36,67,0
2,note_on,43,0,240
2,note_on,43,62,0
2,note_on,36,0,240
2,note_on,30,64,0
2,note_on,43,0,240
2,note_on,43,62,0
2,note_on,43,0,240
2,note_on,30,0,0
2,note_on,36,44,7680
2,note_on,48,41,120
2,note_on,36,0,108
2,note_on,48,0,12
2,note_on,36,44,0
2,note_on,48,41,120
2,note_on,36,0,108
2,note_on,48,0,12
2,note_on,36,44,0
2,note_on,48,41,120
2,note_on,36,0,108
2,note_on,48,0,12
2,note_on,36,45,0
2,note_on,48,41,120
2,note_on,36,0,108
2,note_on,48,0,12
2,note_on,36,45,0
2,note_on,48,46,120
2,note_on,36,0,108
2,note_on,48,0,12
2,note_on,36,47,0
2,note_on,48,47,120
2,note_on,36,0,108
2,note_on,48,0,12
2,note_on,36,49,0
2,note_on,48,50,120
2,note_on,36,0,108
2,note_on,48,0,12
2,note_on,36,51,0
2,note_on,48,53,120
2,note_on,36,0,108
2,note_on,48,0,12
2,note_on,36,55,0
2,note_on,48,50,120
2,note_on,36,0,108
2,note_on,48,0,12
2,note_on,36,53,0
2,note_on,48,47,120
2,note_on,36,0,108
2,note_on,48,0,12
2,note_on,36,53,0
2,note_on,48,47,120
2,note_on,36,0,108
2,note_on,48,0,12
2,note_on,36,44,0
2,note_on,48,40,120
2,note_on,36,0,108
2,note_on,48,0,12
2,note_on,36,43,0
2,note_on,48,45,120
2,note_on,36,0,108
2,note_on,48,0,12
2,note_on,36,46,0
2,note_on,48,47,120
2,note_on,36,0,108
2,note_on,48,0,12
2,note_on,36,48,0
2,note_on,48,50,120
2,note_on,36,0,108
2,note_on,48,0,12
2,note_on,36,51,0
2,note_on,48,53,120
2,note_on,36,0,108
2,note_on,48,0,12
2,note_on,36,55,0
2,note_on,48,50,120
2,note_on,36,0,108
2,note_on,48,0,12
2,note_on,36,53,0
2,note_on,48,47,120
2,note_on,36,0,108
2,note_on,48,0,12
2,note_on,38,55,0
2,note_on,50,50,120
2,note_on,38,0,108
2,note_on,50,0,12
2,note_on,38,55,0
2,note_on,50,51,120
2,note_on,38,0,108
2,note_on,50,0,12
2,note_on,39,55,0
2,note_on,51,55,120
2,note_on,39,0,108
2,note_on,51,0,12
2,note_on,39,55,0
2,note_on,51,55,120
2,note_on,39,0,108
2,note_on,51,0,12
2,note_on,41,55,0
2,note_on,53,53,120
2,note_on,41,0,108
2,note_on,53,0,12
2,note_on,41,55,0
2,note_on,53,55,120
2,note_on,41,0,108
2,note_on,53,0,12
2,note_on,43,56,0
2,note_on,55,56,120
2,note_on,43,0,108
2,note_on,55,0,12
2,note_on,43,57,0
2,note_on,55,57,120
2,note_on,43,0,108
2,note_on,55,0,12
2,note_on,44,58,0
2,note_on,56,59,120
2,note_on,44,0,108
2,note_on,56,0,12
2,note_on,44,59,0
2,note_on,56,60,120
2,note_on,44,0,108
2,note_on,56,0,12
2,note_on,42,60,0
2,note_on,54,55,120
2,note_on,42,0,108
2,note_on,54,0,12
2,note_on,42,61,0
2,note_on,54,55,120
2,note_on,42,0,108
2,note_on,54,0,12
2,note_on,43,58,0
2,note_on,55,55,120
2,note_on,43,0,108
2,note_on,55,0,12
2,note_on,43,58,0
2,note_on,55,55,120
2,note_on,43,0,108
2,note_on,55,0,12
2,note_on,36,48,0
2,note_on,48,45,120
2,note_on,36,0,108
2,note_on,48,0,12
2,note_on,36,44,0
2,note_on,48,41,120
2,note_on,36,0,108
2,note_on,48,0,12
2,note_on,36,44,0
2,note_on,48,40,120
2,note_on,36,0,108
2,note_on,48,0,12
2,note_on,36,44,0
2,note_on,48,41,120
2,note_on,36,0,108
2,note_on,48,0,12
2,note_on,36,44,0
2,note_on,48,46,120
2,note_on,36,0,108
2,note_on,48,0,12
2,note_on,36,47,0
2,note_on,48,47,120
2,note_on,36,0,108
2,note_on,48,0,12
2,note_on,36,49,0
2,note_on,48,50,120
2,note_on,36,0,108
2,note_on,48,0,12
2,note_on,36,51,0
2,note_on,48,53,120
2,note_on,36,0,108
2,note_on,48,0,12
2,note_on,36,55,0
2,note_on,48,50,120
2,note_on,36,0,108
2,note_on,48,0,12
2,note_on,36,53,0
2,note_on,48,47,120
2,note_on,36,0,108
2,note_on,48,0,12
2,note_on,36,53,0
2,note_on,48,47,120
2,note_on,36,0,108
2,note_on,48,0,12
2,note_on,36,44,0
2,note_on,48,40,120
2,note_on,36,0,108
2,note_on,48,0,12
2,note_on,36,43,0
2,note_on,48,45,120
2,note_on,36,0,108
2,note_on,48,0,12
2,note_on,36,46,0
2,note_on,48,47,120
2,note_on,36,0,108
2,note_on,48,0,12
2,note_on,36,48,0
2,note_on,48,50,120
2,note_on,36,0,108
2,note_on,48,0,12
2,note_on,36,51,0
2,note_on,48,53,120
2,note_on,36,0,108
2,note_on,48,0,12
2,note_on,36,55,0
2,note_on,48,50,120
2,note_on,36,0,108
2,note_on,48,0,12
2,note_on,36,53,0
2,note_on,48,47,120
2,note_on,36,0,108
2,note_on,48,0,12
2,note_on,36,55,0
2,note_on,48,50,120
2,note_on,36,0,108
2,note_on,48,0,12
2,note_on,36,55,0
2,note_on,48,51,120
2,note_on,36,0,108
2,note_on,48,0,12
2,note_on,37,55,0
2,note_on,49,55,120
2,note_on,37,0,108
2,note_on,49,0,12
2,note_on,37,55,0
2,note_on,49,55,120
2,note_on,37,0,108
2,note_on,49,0,12
2,note_on,39,55,0
2,note_on,51,53,120
2,note_on,39,0,108
2,note_on,51,0,12
2,note_on,39,55,0
2,note_on,51,55,120
2,note_on,39,0,108
2,note_on,51,0,12
2,note_on,41,56,0
2,note_on,53,56,120
2,note_on,41,0,108
2,note_on,53,0,12
2,note_on,41,57,0
2,note_on,53,57,120
2,note_on,41,0,108
2,note_on,53,0,12
2,note_on,42,58,0
2,note_on,54,59,120
2,note_on,42,0,108
2,note_on,54,0,12
2,note_on,42,59,0
2,note_on,54,60,120
2,note_on,42,0,108
2,note_on,54,0,12
2,note_on,44,60,0
2,note_on,56,55,120
2,note_on,44,0,108
2,note_on,56,0,12
2,note_on,44,61,0
2,note_on,56,55,120
2,note_on,44,0,108
2,note_on,56,0,12
2,note_on,44,58,0
2,note_on,56,55,120
2,note_on,44,0,108
2,note_on,56,0,12
2,note_on,44,58,0
2,note_on,56,55,120
2,note_on,44,0,108
2,note_on,56,0,12
2,note_on,44,52,0
2,note_on,56,45,120
2,note_on,44,0,108
2,note_on,56,0,12
2,note_on,44,53,0
2,note_on,56,47,120
2,note_on,44,0,108
2,note_on,56,0,12
2,note_on,38,55,0
2,note_on,50,50,120
2,note_on,38,0,108
2,note_on,50,0,12
2,note_on,38,55,0
2,note_on,50,51,120
2,note_on,38,0,108
2,note_on,50,0,12
2,note_on,39,55,0
2,note_on,51,55,120
2,note_on,39,0,108
2,note_on,51,0,12
2,note_on,39,55,0
2,note_on,51,55,120
2,note_on,39,0,108
2,note_on,51,0,12
2,note_on,41,55,0
2,note_on,53,53,120
2,note_on,41,0,108
2,note_on,53,0,12
2,note_on,41,55,0
2,note_on,53,55,120
2,note_on,41,0,108
2,note_on,53,0,12
2,note_on,42,56,0
2,note_on,54,56,120
2,note_on,42,0,108
2,note_on,54,0,12
2,note_on,42,57,0
2,note_on,54,57,120
2,note_on,42,0,108
2,note_on,54,0,12
2,note_on,44,58,0
2,note_on,56,59,120
2,note_on,44,0,108
2,note_on,56,0,12
2,note_on,44,59,0
2,note_on,56,60,120
2,note_on,44,0,108
2,note_on,56,0,12
2,note_on,46,60,0
2,note_on,58,55,120
2,note_on,46,0,108
2,note_on,58,0,12
2,note_on,46,61,0
2,note_on,58,55,120
2,note_on,46,0,108
2,note_on,58,0,12
2,note_on,46,58,0
2,note_on,58,55,120
2,note_on,46,0,108
2,note_on,58,0,12
2,note_on,46,58,0
2,note_on,58,55,120
2,note_on,46,0,108
2,note_on,58,0,12
2,note_on,46,53,0
2,note_on,58,46,120
2,note_on,46,0,108
2,note_on,58,0,12
2,note_on,46,50,0
2,note_on,58,47,120
2,note_on,46,0,108
2,note_on,58,0,12
2,note_on,40,55,0
2,note_on,52,50,120
2,note_on,40,0,108
2,note_on,52,0,12
2,note_on,40,55,0
2,note_on,52,51,120
2,note_on,40,0,108
2,note_on,52,0,12
2,note_on,41,55,0
2,note_on,53,55,120
2,note_on,41,0,108
2,note_on,53,0,12
2,note_on,41,55,0
2,note_on,53,55,120
2,note_on,41,0,108
2,note_on,53,0,12
2,note_on,43,55,0
2,note_on,55,53,120
2,note_on,43,0,108
2,note_on,55,0,12
2,note_on,43,55,0
2,note_on,55,55,120
2,note_on,43,0,108
2,note_on,55,0,12
2,note_on,44,56,0
2,note_on,56,56,120
2,note_on,44,0,108
2,note_on,56,0,12
2,note_on,44,57,0
2,note_on,56,57,120
2,note_on,44,0,108
2,note_on,56,0,12
2,note_on,46,58,0
2,note_on,58,59,120
2,note_on,46,0,108
2,note_on,58,0,12
2,note_on,46,59,0
2,note_on,58,60,120
2,note_on,46,0,108
2,note_on,58,0,12
2,note_on,48,60,0
2,note_on,60,55,120
2,note_on,48,0,108
2,note_on,60,0,12
2,note_on,48,61,0
2,note_on,60,55,120
2,note_on,48,0,108
2,note_on,60,0,12
2,note_on,49,58,0
2,note_on,61,55,120
2,note_on,49,0,108
2,note_on,61,0,12
2,note_on,49,58,0
2,note_on,61,55,120
2,note_on,49,0,108
2,note_on,61,0,12
2,note_on,48,58,0
2,note_on,60,58,0
2,note_on,60,0,240
2,note_on,48,0,0
2,note_on,60,44,1680
2,note_on,65,38,240
2,note_on,68,38,0
2,note_on,68,0,228
2,note_on,65,0,0
2,note_on,65,38,12
2,note_on,68,38,0
2,note_on,68,0,228
2,note_on,65,0,0
2,note_on,65,38,12
2,note_on,68,38,0
2,note_on,68,0,228
2,note_on,65,0,0
2,note_on,60,0,12
2,note_on,60,44,0
2,note_on,65,38,240
2,note_on,68,38,0
2,note_on,68,0,228
2,note_on,65,0,0
2,note_on,65,38,12
2,note_on,68,38,0
2,note_on,68,0,228
2,note_on,65,0,0
2,note_on,65,38,12
2,note_on,68,38,0
2,note_on,68,0,228
2,note_on,65,0,0
2,note_on,60,0,12
2,note_on,60,44,0
2,note_on,65,38,240
2,note_on,68,38,0
2,note_on,68,0,228
2,note_on,65,0,0
2,note_on,65,38,12
2,note_on,68,38,0
2,note_on,68,0,228
2,note_on,65,0,0
2,note_on,65,38,12
2,note_on,68,38,0
2,note_on,68,0,228
2,note_on,65,0,0
2,note_on,60,0,12
2,note_on,60,44,0
2,note_on,65,38,240
2,note_on,68,38,0
2,note_on,68,0,228
2,note_on,65,0,0
2,note_on,65,38,12
2,note_on,68,38,0
2,note_on,68,0,228
2,note_on,65,0,0
2,note_on,65,38,12
2,note_on,68,38,0
2,note_on,68,0,228
2,note_on,65,0,0
2,note_on,60,0,12
2,note_on,60,44,0
2,note_on,67,38,240
2,note_on,70,38,0
2,note_on,70,0,228
2,note_on,67,0,0
2,note_on,67,38,12
2,note_on,70,38,0
2,note_on,70,0,228
2,note_on,67,0,0
2,note_on,67,38,12
2,note_on,70,38,0
2,note_on,70,0,228
2,note_on,67,0,0
2,note_on,60,0,12
2,note_on,60,44,0
2,note_on,67,38,240
2,note_on,70,38,0
2,note_on,70,0,228
2,note_on,67,0,0
2,note_on,67,38,12
2,note_on,70,38,0
2,note_on,70,0,228
2,note_on,67,0,0
2,note_on,67,38,12
2,note_on,70,38,0
2,note_on,70,0,228
2,note_on,67,0,0
2,note_on,60,0,12
2,note_on,60,44,0
2,note_on,67,38,240
2,note_on,70,38,0
2,note_on,70,0,228
2,note_on,67,0,0
2,note_on,67,38,12
2,note_on,70,38,0
2,note_on,70,0,228
2,note_on,67,0,0
2,note_on,67,38,12
2,note_on,70,38,0
2,note_on,70,0,228
2,note_on,67,0,0
2,note_on,60,0,12
2,note_on,60,44,0
2,note_on,67,38,240
2,note_on,70,38,0
2,note_on,70,0,228
2,note_on,67,0,0
2,note_on,67,38,12
2,note_on,70,38,0
2,note_on,70,0,228
2,note_on,67,0,0
2,note_on,67,38,12
2,note_on,70,38,0
2,note_on,70,0,228
2,note_on,67,0,0
2,note_on,60,0,12
2,note_on,60,44,0
2,note_on,65,38,240
2,note_on,68,38,0
2,note_on,68,0,228
2,note_on,65,0,0
2,note_on,65,38,12
2,note_on,68,38,0
2,note_on,68,0,228
2,note_on,65,0,0
2,note_on,65,38,12
2,note_on,68,38,0
2,note_on,68,0,228
2,note_on,65,0,0
2,note_on,60,0,12
2,note_on,60,44,0
2,note_on,65,38,240
2,note_on,68,38,0
2,note_on,68,0,228
2,note_on,65,0,0
2,note_on,65,38,12
2,note_on,68,38,0
2,note_on,68,0,228
2,note_on,65,0,0
2,note_on,65,38,12
2,note_on,68,38,0
2,note_on,68,0,228
2,note_on,65,0,0
2,note_on,60,0,12
2,note_on,56,44,0
2,note_on,60,38,240
2,note_on,65,38,0
2,note_on,65,0,228
2,note_on,60,0,0
2,note_on,60,38,12
2,note_on,65,38,0
2,note_on,65,0,228
2,note_on,60,0,0
2,note_on,60,38,12
2,note_on,65,38,0
2,note_on,65,0,228
2,note_on,60,0,0
2,note_on,56,0,12
2,note_on,56,44,0
2,note_on,60,38,240
2,note_on,65,38,0
2,note_on,65,0,228
2,note_on,60,0,0
2,note_on,60,38,12
2,note_on,65,38,0
2,note_on,65,0,228
2,note_on,60,0,0
2,note_on,60,38,12
2,note_on,65,38,0
2,note_on,65,0,228
2,note_on,60,0,0
2,note_on,56,0,12
2,note_on,55,44,0
2,note_on,62,38,240
2,note_on,65,38,0
2,note_on,65,0,228
2,note_on,62,0,0
2,note_on,62,38,12
2,note_on,65,38,0
2,note_on,65,0,228
2,note_on,62,0,0
2,note_on,62,38,12
2,note_on,65,38,0
2,note_on,65,0,228
2,note_on,62,0,0
2,note_on,55,0,12
2,note_on,55,44,0
2,note_on,62,38,240
2,note_on,65,38,0
2,note_on,65,0,228
2,note_on,62,0,0
2,note_on,62,38,12
2,note_on,65,38,0
2,note_on,65,0,228
2,note_on,62,0,0
2,note_on,62,38,12
2,note_on,65,38,0
2,note_on,65,0,228
2,note_on,62,0,0
2,note_on,55,0,12
2,note_on,55,44,0
2,note_on,62,38,240
2,note_on,65,38,0
2,note_on,65,0,228
2,note_on,62,0,0
2,note_on,62,38,12
2,note_on,65,38,0
2,note_on,65,0,228
2,note_on,62,0,0
2,note_on,62,38,12
2,note_on,65,38,0
2,note_on,65,0,228
2,note_on,62,0,0
2,note_on,55,0,12
2,note_on,55,44,0
2,note_on,62,38,240
2,note_on,65,38,0
2,note_on,65,0,228
2,note_on,62,0,0
2,note_on,62,38,12
2,note_on,65,38,0
2,note_on,65,0,228
2,note_on,62,0,0
2,note_on,62,38,12
2,note_on,65,38,0
2,note_on,65,0,228
2,note_on,62,0,0
2,note_on,55,0,12
2,note_on,55,44,0
2,note_on,60,38,240
2,note_on,63,38,0
2,note_on,63,0,228
2,note_on,60,0,0
2,note_on,60,38,12
2,note_on,63,38,0
2,note_on,63,0,228
2,note_on,60,0,0
2,note_on,60,38,12
2,note_on,63,38,0
2,note_on,63,0,228
2,note_on,60,0,0
2,note_on,55,0,12
2,note_on,55,44,0
2,note_on,60,38,240
2,note_on,63,38,0
2,note_on,63,0,228
2,note_on,60,0,0
2,note_on,60,38,12
2,note_on,63,38,0
2,note_on,63,0,228
2,note_on,60,0,0
2,note_on,60,38,12
2,note_on,63,38,0
2,note_on,63,0,228
2,note_on,60,0,0
2,note_on,55,0,12
2,note_on,55,44,0
2,note_on,60,38,240
2,note_on,63,38,0
2,note_on,63,0,228
2,note_on,60,0,0
2,note_on,60,38,12
2,note_on,63,38,0
2,note_on,63,0,228
2,note_on,60,0,0
2,note_on,60,38,12
2,note_on,63,38,0
2,note_on,63,0,228
2,note_on,60,0,0
2,note_on,55,0,12
2,note_on,55,44,0
2,note_on,60,38,240
2,note_on,63,38,0
2,note_on,63,0,228
2,note_on,60,0,0
2,note_on,60,38,12
2,note_on,63,38,0
2,note_on,63,0,228
2,note_on,60,0,0
2,note_on,60,38,12
2,note_on,63,38,0
2,note_on,63,0,228
2,note_on,60,0,0
2,note_on,55,0,12
2,note_on,55,44,0
2,note_on,62,38,240
2,note_on,65,38,0
2,note_on,65,0,228
2,note_on,62,0,0
2,note_on,62,38,12
2,note_on,65,38,0
2,note_on,65,0,228
2,note_on,62,0,0
2,note_on,62,38,12
2,note_on,65,38,0
2,note_on,65,0,228
2,note_on,62,0,0
2,note_on,55,0,12
2,note_on,55,44,0
2,note_on,62,38,240
2,note_on,65,38,0
2,note_on,65,0,228
2,note_on,62,0,0
2,note_on,62,38,12
2,note_on,65,38,0
2,note_on,65,0,228
2,note_on,62,0,0
2,note_on,62,38,12
2,note_on,65,38,0
2,note_on,65,0,228
2,note_on,62,0,0
2,note_on,55,0,12
2,note_on,55,44,0
2,note_on,62,38,240
2,note_on,65,38,0
2,note_on,65,0,228
2,note_on,62,0,0
2,note_on,62,38,12
2,note_on,65,38,0
2,note_on,65,0,228
2,note_on,62,0,0
2,note_on,62,38,12
2,note_on,65,38,0
2,note_on,65,0,228
2,note_on,62,0,0
2,note_on,55,0,12
2,note_on,55,44,0
2,note_on,62,38,240
2,note_on,65,38,0
2,note_on,65,0,228
2,note_on,62,0,0
2,note_on,62,38,12
2,note_on,65,38,0
2,note_on,65,0,228
2,note_on,62,0,0
2,note_on,62,38,12
2,note_on,65,38,0
2,note_on,65,0,228
2,note_on,62,0,0
2,note_on,55,0,12
2,note_on,60,44,0
2,note_on,63,37,240
2,note_on,67,37,0
2,note_on,67,0,228
2,note_on,63,0,0
2,note_on,63,37,12
2,note_on,67,37,0
2,note_on,67,0,228
2,note_on,63,0,0
2,note_on,63,36,12
2,note_on,67,36,0
2,note_on,67,0,228
2,note_on,63,0,0
2,note_on,60,0,12
2,note_on,53,42,0
2,note_on,63,36,240
2,note_on,65,36,0
2,note_on,65,0,228
2,note_on,63,0,0
2,note_on,63,35,12
2,note_on,65,35,0
2,note_on,65,0,228
2,note_on,63,0,0
2,note_on,63,35,12
2,note_on,65,35,0
2,note_on,65,0,228
2,note_on,63,0,0
2,note_on,53,0,12
2,note_on,58,40,0
2,note_on,61,34,240
2,note_on,65,34,0
2,note_on,65,0,228
2,note_on,61,0,0
2,note_on,61,34,12
2,note_on,65,34,0
2,note_on,65,0,228
2,note_on,61,0,0
2,note_on,61,33,12
2,note_on,65,33,0
2,note_on,65,0,228
2,note_on,61,0,0
2,note_on,58,0,12
2,note_on,51,38,0
2,note_on,61,33,240
2,note_on,63,33,0
2,note_on,63,0,228
2,note_on,61,0,0
2,note_on,61,32,12
2,note_on,63,32,0
2,note_on,63,0,228
2,note_on,61,0,0
2,note_on,61,32,12
2,note_on,63,32,0
2,note_on,63,0,228
2,note_on,61,0,0
2,note_on,51,0,12
2,note_on,56,36,0
2,note_on,60,31,240
2,note_on,63,31,0
2,note_on,63,0,228
2,note_on,60,0,0
2,note_on,60,31,12
2,note_on,63,31,0
2,note_on,63,0,228
2,note_on,60,0,0
2,note_on,60,30,12
2,note_on,63,30,0
2,note_on,63,0,228
2,note_on,60,0,0
2,note_on,56,0,12
2,note_on,56,35,0
2,note_on,60,30,240
2,note_on,63,30,0
2,note_on,63,0,228
2,note_on,60,0,0
2,note_on,60,29,12
2,note_on,63,29,0
2,note_on,63,0,228
2,note_on,60,0,0
2,note_on,60,29,12
2,note_on,63,29,0
2,note_on,63,0,228
2,note_on,60,0,0
2,note_on,56,0,12
2,note_on,55,30,0
2,note_on,60,26,240
2,note_on,63,26,0
2,note_on,63,0,228
2,note_on,60,0,0
2,note_on,60,26,12
2,note_on,63,26,0
2,note_on,63,0,228
2,note_on,60,0,0
2,note_on,60,26,12
2,note_on,63,26,0
2,note_on,63,0,228
2,note_on,60,0,0
2,note_on,55,0,12
2,note_on,55,30,0
2,note_on,59,26,240
2,note_on,62,26,0
2,note_on,62,0,228
2,note_on,59,0,0
2,note_on,59,26,12
2,note_on,62,26,0
2,note_on,62,0,228
2,note_on,59,0,0
2,note_on,59,26,12
2,note_on,62,26,0
2,note_on,62,0,228
2,note_on,59,0,0
2,note_on,55,0,12
2,note_on,48,36,0
2,note_on,55,24,120
2,note_on,55,0,120
2,note_on,51,26,0
2,note_on,51,0,120
2,note_on,55,24,0
2,note_on,55,0,120
2,note_on,51,32,0
2,note_on,51,0,120
2,note_on,55,25,0
2,note_on,55,0,120
2,note_on,51,28,0
2,note_on,51,0,120
2,note_on,55,26,0
2,note_on,55,0,120
2,note_on,51,34,0
2,note_on,51,0,120
2,note_on,55,26,0
2,note_on,55,0,120
2,note_on,51,29,0
2,note_on,51,0,120
2,note_on,55,26,0
2,note_on,55,0,120
2,note_on,48,0,0
2,note_on,48,36,0
2,note_on,55,28,120
2,note_on,55,0,120
2,note_on,51,32,0
2,note_on,51,0,120
2,note_on,55,28,0
2,note_on,55,0,120
2,note_on,48,0,0
2,note_on,46,45,0
2,note_on,55,30,120
2,note_on,55,0,120
2,note_on,52,32,0
2,note_on,52,0,120
2,note_on,55,29,0
2,note_on,55,0,120
2,note_on,52,38,0
2,note_on,52,0,120
2,note_on,55,30,0
2,note_on,55,0,120
2,note_on,52,33,0
2,note_on,52,0,120
2,note_on,55,30,0
2,note_on,55,0,120
2,note_on,52,38,0
2,note_on,52,0,120
2,note_on,55,29,0
2,note_on,55,0,120
2,note_on,52,32,0
2,note_on,52,0,120
2,note_on,55,29,0
2,note_on,55,0,120
2,note_on,46,0,0
2,note_on,46,38,0
2,note_on,55,30,120
2,note_on,55,0,120
2,note_on,52,33,0
2,note_on,52,0,120
2,note_on,55,29,0
2,note_on,55,0,120
2,note_on,46,0,0
2,note_on,44,55,0
2,note_on,44,0,90
2,note_on,56,36,30
2,note_on,56,0,120
2,note_on,48,39,0
2,note_on,48,0,120
2,note_on,56,35,0
2,note_on,56,0,120
2,note_on,46,56,0
2,note_on,46,0,90
2,note_on,58,36,30
2,note_on,58,0,120
2,note_on,48,43,0
2,note_on,48,0,120
2,note_on,58,41,0
2,note_on,58,0,120
2,note_on,44,58,0
2,note_on,44,0,90
2,note_on,56,38,30
2,note_on,56,0,120
2,note_on,48,43,0
2,note_on,48,0,120
2,note_on,56,38,0
2,note_on,56,0,120
2,note_on,43,60,0
2,note_on,43,0,90
2,note_on,55,40,30
2,note_on,55,0,120
2,note_on,48,43,0
2,note_on,48,0,120
2,note_on,55,38,0
2,note_on,55,0,120
2,note_on,41,63,0
2,note_on,41,0,90
2,note_on,53,42,30
2,note_on,53,0,120
2,note_on,48,45,0
2,note_on,48,0,120
2,note_on,53,42,0
2,note_on,53,0,120
2,note_on,39,66,0
2,note_on,39,0,90
2,note_on,51,41,30
2,note_on,51,0,120
2,note_on,48,47,0
2,note_on,48,0,120
2,note_on,51,41,0
2,note_on,51,0,120
2,note_on,38,68,0
2,note_on,38,0,90
2,note_on,50,45,30
2,note_on,50,0,120
2,note_on,43,49,0
2,note_on,43,0,120
2,note_on,50,43,0
2,note_on,50,0,120
2,note_on,36,70,0
2,note_on,36,0,90
2,note_on,48,45,30
2,note_on,48,0,120
2,note_on,43,51,0
2,note_on,43,0,120
2,note_on,48,43,0
2,note_on,48,0,120
2,note_on,35,70,0
2,note_on,35,0,90
2,note_on,47,47,30
2,note_on,47,0,120
2,note_on,43,53,0
2,note_on,43,0,120
2,note_on,47,48,0
2,note_on,47,0,120
2,note_on,34,72,0
2,note_on,34,0,90
2,note_on,46,47,30
2,note_on,46,0,120
2,note_on,36,53,0
2,note_on,36,0,120
2,note_on,46,50,0
2,note_on,46,0,120
2,note_on,32,75,0
2,note_on,32,0,90
2,note_on,44,50,30
2,note_on,44,0,120
2,note_on,36,55,0
2,note_on,36,0,120
2,note_on,44,50,0
2,note_on,44,0,120
2,note_on,29,76,0
2,note_on,29,0,90
2,note_on,41,56,30
2,note_on,41,0,120
2,note_on,36,58,0
2,note_on,36,0,120
2,note_on,41,55,0
2,note_on,41,0,120
2,note_on,31,71,0
2,note_on,43,84,0
2,note_on,43,0,240
2,note_on,31,0,0
2,note_on,55,84,720
2,note_on,43,71,0
2,note_on,43,0,240
2,note_on,55,0,0
2,note_on,48,45,720
2,note_on,55,30,120
2,note_on,55,0,120
2,note_on,51,32,0
2,note_on,51,0,120
2,note_on,55,29,0
2,note_on,55,0,120
2,note_on,51,38,0
2,note_on,51,0,120
2,note_on,55,30,0
2,note_on,55,0,120
2,note_on,51,33,0
2,note_on,51,0,120
2,note_on,55,30,0
2,note_on,55,0,120
2,note_on,51,38,0
2,note_on,51,0,120
2,note_on,55,29,0
2,note_on,55,0,120
2,note_on,51,32,0
2,note_on,51,0,120
2,note_on,55,29,0
2,note_on,55,0,120
2,note_on,48,0,0
2,note_on,48,38,0
2,note_on,55,30,120
2,note_on,55,0,120
2,note_on,51,33,0
2,note_on,51,0,120
2,note_on,55,29,0
2,note_on,55,0,120
2,note_on,48,0,0
2,note_on,46,45,0
2,note_on,55,30,120
2,note_on,55,0,120
2,note_on,52,32,0
2,note_on,52,0,120
2,note_on,55,29,0
2,note_on,55,0,120
2,note_on,52,38,0
2,note_on,52,0,120
2,note_on,55,30,0
2,note_on,55,0,120
2,note_on,52,33,0
2,note_on,52,0,120
2,note_on,55,30,0
2,note_on,55,0,120
2,note_on,52,38,0
2,note_on,52,0,120
2,note_on,55,29,0
2,note_on,55,0,120
2,note_on,52,32,0
2,note_on,52,0,120
2,note_on,55,29,0
2,note_on,55,0,120
2,note_on,46,0,0
2,note_on,46,38,0
2,note_on,55,30,120
2,note_on,55,0,120
2,note_on,52,33,0
2,note_on,52,0,120
2,note_on,55,29,0
2,note_on,55,0,120
2,note_on,46,0,0
2,note_on,44,55,0
2,note_on,44,0,90
2,note_on,56,36,30
2,note_on,56,0,120
2,note_on,48,39,0
2,note_on,48,0,120
2,note_on,56,35,0
2,note_on,56,0,120
2,note_on,46,56,0
2,note_on,46,0,90
2,note_on,58,36,30
2,note_on,58,0,120
2,note_on,48,43,0
2,note_on,48,0,120
2,note_on,58,41,0
2,note_on,58,0,120
2,note_on,44,58,0
2,note_on,44,0,90
2,note_on,56,38,30
2,note_on,56,0,120
2,note_on,48,43,0
2,note_on,48,0,120
2,note_on,56,38,0
2,note_on,56,0,120
2,note_on,43,60,0
2,note_on,43,0,90
2,note_on,55,40,30
2,note_on,55,0,120
2,note_on,48,43,0
2,note_on,48,0,120
2,note_on,55,38,0
2,note_on,55,0,120
2,note_on,41,63,0
2,note_on,41,0,90
2,note_on,53,42,30
2,note_on,53,0,120
2,note_on,48,45,0
2,note_on,48,0,120
2,note_on,53,42,0
2,note_on,53,0,120
2,note_on,39,66,0
2,note_on,39,0,90
2,note_on,51,41,30
2,note_on,51,0,120
2,note_on,48,47,0
2,note_on,48,0,120
2,note_on,51,41,0
2,note_on,51,0,120
2,note_on,38,68,0
2,note_on,38,0,90
2,note_on,50,45,30
2,note_on,50,0,120
2,note_on,43,49,0
2,note_on,43,0,120
2,note_on,50,43,0
2,note_on,50,0,120
2,note_on,36,70,0
2,note_on,36,0,90
2,note_on,48,45,30
2,note_on,48,0,120
2,note_on,43,51,0
2,note_on,43,0,120
2,note_on,48,43,0
2,note_on,48,0,120
2,note_on,35,70,0
2,note_on,35,0,90
2,note_on,47,47,30
2,note_on,47,0,120
2,note_on,43,53,0
2,note_on,43,0,120
2,note_on,47,48,0
2,note_on,47,0,120
2,note_on,34,72,0
2,note_on,34,0,90
2,note_on,46,47,30
2,note_on,46,0,120
2,note_on,36,53,0
2,note_on,36,0,120
2,note_on,46,50,0
2,note_on,46,0,120
2,note_on,32,75,0
2,note_on,32,0,90
2,note_on,44,50,30
2,note_on,44,0,120
2,note_on,36,55,0
2,note_on,36,0,120
2,note_on,44,50,0
2,note_on,44,0,120
2,note_on,29,76,0
2,note_on,29,0,90
2,note_on,41,56,30
2,note_on,41,0,120
2,note_on,36,58,0
2,note_on,36,0,120
2,note_on,41,55,0
2,note_on,41,0,120
2,note_on,31,71,0
2,note_on,43,84,0
2,note_on,43,0,240
2,note_on,31,0,0
2,note_on,55,84,720
2,note_on,43,71,0
2,note_on,43,0,240
2,note_on,55,0,0
2,note_on,48,84,720
2,note_on,48,0,240
2,note_on,60,34,0
2,note_on,63,34,0
2,note_on,63,0,228
2,note_on,60,0,0
2,note_on,60,34,12
2,note_on,63,34,0
2,note_on,63,0,228
2,note_on,60,0,0
2,note_on,60,34,12
2,note_on,63,34,0
2,note_on,63,0,228
2,note_on,60,0,0
2,note_on,56,34,12
2,note_on,60,34,240
2,note_on,63,34,0
2,note_on,63,0,228
2,note_on,60,0,0
2,note_on,60,34,12
2,note_on,63,34,0
2,note_on,63,0,228
2,note_on,60,0,0
2,note_on,60,34,12
2,note_on,63,34,0
2,note_on,63,0,228
2,note_on,60,0,0
2,note_on,56,0,12
2,note_on,53,34,0
2,note_on,62,34,240
2,note_on,60,34,0
2,note_on,60,0,228
2,note_on,62,0,0
2,note_on,60,34,12
2,note_on,62,34,0
2,note_on,62,0,228
2,note_on,60,0,0
2,note_on,60,34,12
2,note_on,62,34,0
2,note_on,62,0,228
2,note_on,60,0,0
2,note_on,53,0,12
2,note_on,55,34,0
2,note_on,59,34,240
2,note_on,62,34,0
2,note_on,62,0,228
2,note_on,59,0,0
2,note_on,59,34,12
2,note_on,62,34,0
2,note_on,62,0,228
2,note_on,59,0,0
2,note_on,59,34,12
2,note_on,62,34,0
2,note_on,62,0,228
2,note_on,59,0,0
2,note_on,55,0,12
2,note_on,48,59,0
2,note_on,51,44,240
2,note_on,60,44,0
2,note_on,60,0,228
2,note_on,51,0,0
2,note_on,51,44,12
2,note_on,60,44,0
2,note_on,60,0,228
2,note_on,51,0,0
2,note_on,51,44,12
2,note_on,60,44,0
2,note_on,60,0,228
2,note_on,51,0,0
2,note_on,48,0,12
2,note_on,44,45,0
2,note_on,51,46,240
2,note_on,48,46,0
2,note_on,56,46,0
2,note_on,56,0,228
2,note_on,48,0,0
2,note_on,51,0,0
2,note_on,51,46,12
2,note_on,48,46,0
2,note_on,56,46,0
2,note_on,56,0,228
2,note_on,48,0,0
2,note_on,51,0,0
2,note_on,51,47,12
2,note_on,48,47,0
2,note_on,56,47,0
2,note_on,56,0,228
2,note_on,48,0,0
2,note_on,51,0,0
2,note_on,44,0,12
2,note_on,41,47,0
2,note_on,50,48,240
2,note_on,53,48,0
2,note_on,48,48,0
2,note_on,48,0,228
2,note_on,53,0,0
2,note_on,50,0,0
2,note_on,50,48,12
2,note_on,48,48,0
2,note_on,53,48,0
2,note_on,53,0,228
2,note_on,48,0,0
2,note_on,50,0,0
2,note_on,50,49,12
2,note_on,48,49,0
2,note_on,53,49,0
2,note_on,53,0,228
2,note_on,48,0,0
2,note_on,50,0,0
2,note_on,41,0,12
2,note_on,43,49,0
2,note_on,50,50,240
2,note_on,47,50,0
2,note_on,55,50,0
2,note_on,55,0,228
2,note_on,47,0,0
2,note_on,50,0,0
2,note_on,50,50,12
2,note_on,47,50,0
2,note_on,55,50,0
2,note_on,55,0,228
2,note_on,47,0,0
2,note_on,50,0,0
2,note_on,50,51,12
2,note_on,47,51,0
2,note_on,55,51,0
2,note_on,55,0,228
2,note_on,47,0,0
2,note_on,50,0,0
2,note_on,43,0,12
2,note_on,36,67,0
2,note_on,48,60,120
2,note_on,36,0,108
2,note_on,48,0,12
2,note_on,36,67,0
2,note_on,48,59,120
2,note_on,36,0,108
2,note_on,48,0,12
2,note_on,36,67,0
2,note_on,48,60,120
2,note_on,36,0,108
2,note_on,48,0,12
2,note_on,36,66,0
2,note_on,48,60,120
2,note_on,36,0,108
2,note_on,48,0,12
2,note_on,36,66,0
2,note_on,48,59,120
2,note_on,36,0,108
2,note_on,48,0,12
2,note_on,36,66,0
2,note_on,48,60,120
2,note_on,36,0,108
2,note_on,48,0,12
2,note_on,36,66,0
2,note_on,48,60,120
2,note_on,36,0,108
2,note_on,48,0,12
2,note_on,36,66,0
2,note_on,48,61,120
2,note_on,36,0,108
2,note_on,48,0,12
2,note_on,36,67,0
2,note_on,48,60,120
2,note_on,36,0,108
2,note_on,48,0,12
2,note_on,36,67,0
2,note_on,48,59,120
2,note_on,36,0,108
2,note_on,48,0,12
2,note_on,36,67,0
2,note_on,48,60,120
2,note_on,36,0,108
2,note_on,48,0,12
2,note_on,36,66,0
2,note_on,48,60,120
2,note_on,36,0,108
2,note_on,48,0,12
2,note_on,36,66,0
2,note_on,48,59,120
2,note_on,36,0,108
2,note_on,48,0,12
2,note_on,36,66,0
2,note_on,48,60,120
2,note_on,36,0,108
2,note_on,48,0,12
2,note_on,36,66,0
2,note_on,48,60,120
2,note_on,36,0,108
2,note_on,48,0,12
2,note_on,36,66,0
2,note_on,48,61,120
2,note_on,36,0,108
2,note_on,48,0,12
2,note_on,36,66,0
2,note_on,48,59,120
2,note_on,36,0,108
2,note_on,48,0,12
2,note_on,36,66,0
2,note_on,48,60,120
2,note_on,36,0,108
2,note_on,48,0,12
2,note_on,36,66,0
2,note_on,48,60,120
2,note_on,36,0,108
2,note_on,48,0,12
2,note_on,36,66,0
2,note_on,48,61,120
2,note_on,36,0,108
2,note_on,48,0,12
2,note_on,34,66,0
2,note_on,46,59,120
2,note_on,34,0,108
2,note_on,46,0,12
2,note_on,34,66,0
2,note_on,46,60,120
2,note_on,34,0,108
2,note_on,46,0,12
2,note_on,34,66,0
2,note_on,46,60,120
2,note_on,34,0,108
2,note_on,46,0,12
2,note_on,34,66,0
2,note_on,46,61,120
2,note_on,34,0,108
2,note_on,46,0,12
2,note_on,32,66,0
2,note_on,44,59,120
2,note_on,32,0,108
2,note_on,44,0,12
2,note_on,32,66,0
2,note_on,44,60,120
2,note_on,32,0,108
2,note_on,44,0,12
2,note_on,32,66,0
2,note_on,44,60,120
2,note_on,32,0,108
2,note_on,44,0,12
2,note_on,32,66,0
2,note_on,44,61,120
2,note_on,32,0,108
2,note_on,44,0,12
2,note_on,31,66,0
2,note_on,43,59,120
2,note_on,31,0,108
2,note_on,43,0,12
2,note_on,31,66,0
2,note_on,43,60,120
2,note_on,31,0,108
2,note_on,43,0,12
2,note_on,31,66,0
2,note_on,43,60,120
2,note_on,31,0,108
2,note_on,43,0,12
2,note_on,31,66,0
2,note_on,43,61,120
2,note_on,31,0,108
2,note_on,43,0,12
2,note_on,30,68,0
2,note_on,42,81,0
2,note_on,42,0,960
2,note_on,30,0,0
2,note_on,45,84,0
2,note_on,48,84,0
2,note_on,42,71,0
2,note_on,51,84,0
2,note_on,51,0,960
2,note_on,45,0,0
2,note_on,48,0,0
2,note_on,42,0,0
2,note_on,63,39,1320
2,note_on,63,0,114
2,note_on,62,45,6
2,note_on,62,0,360
2,note_on,60,39,0
2,note_on,60,0,114
2,note_on,60,42,6
2,note_on,60,0,960
2,note_on,59,27,0
2,note_on,59,0,480
2,note_on,68,39,1800
2,note_on,68,0,120
2,note_on,67,45,0
2,note_on,67,0,360
2,note_on,65,39,0
2,note_on,65,0,114
2,note_on,65,38,6
2,note_on,65,0,960
2,note_on,63,27,0
2,note_on,63,0,480
2,note_on,61,42,1800
2,note_on,64,42,0
2,note_on,67,50,0
2,note_on,67,0,120
2,note_on,64,0,0
2,note_on,61,0,0
2,note_on,60,49,0
2,note_on,64,49,0
2,note_on,67,58,0
2,note_on,67,0,360
2,note_on,64,0,0
2,note_on,60,0,0
2,note_on,58,49,0
2,note_on,64,49,0
2,note_on,67,58,0
2,note_on,67,0,114
2,note_on,64,0,0
2,note_on,58,0,0
2,note_on,56,60,6
2,note_on,58,60,0
2,note_on,64,60,0
2,note_on,67,72,0
2,note_on,67,0,960
2,note_on,64,0,0
2,note_on,58,0,0
2,note_on,60,46,0
2,note_on,65,46,0
2,note_on,68,55,0
2,note_on,68,0,480
2,note_on,65,0,0
2,note_on,60,0,0
2,note_on,55,44,0
2,note_on,60,44,0
2,note_on,64,52,0
2,note_on,64,0,480
2,note_on,56,0,0
2,note_on,55,0,0
2,note_on,60,0,0
2,note_on,53,35,0
2,note_on,60,35,0
2,note_on,65,42,0
2,note_on,65,0,480
2,note_on,60,0,0
2,note_on,53,0,0
2,note_on,51,34,0
2,note_on,55,34,0
2,note_on,60,40,0
2,note_on,60,0,480
2,note_on,55,0,0
2,note_on,51,0,0
2,note_on,50,32,0
2,note_on,55,32,0
2,note_on,59,38,0
2,note_on,59,0,480
2,note_on,55,0,0
2,note_on,50,0,0
2,note_on,48,30,0
2,note_on,55,30,0
2,note_on,60,36,0
2,note_on,60,0,480
2,note_on,55,0,0
2,note_on,48,0,0
2,note_on,53,34,0
2,note_on,53,0,480
2,note_on,31,30,480
2,note_on,43,36,0
2,note_on,43,0,480
2,note_on,31,0,0
2,note_on,50,29,0
2,note_on,53,29,0
2,note_on,59,35,0
2,note_on,59,0,480
2,note_on,53,0,0
2,note_on,50,0,0
2,note_on,36,44,0
2,note_on,48,41,120
2,note_on,36,0,108
2,note_on,48,0,12
2,note_on,36,44,0
2,note_on,48,41,120
2,note_on,36,0,108
2,note_on,48,0,12
2,note_on,36,44,0
2,note_on,48,41,120
2,note_on,36,0,108
2,note_on,48,0,12
2,note_on,36,45,0
2,note_on,48,41,120
2,note_on,36,0,108
2,note_on,48,0,12
2,note_on,36,45,0
2,note_on,48,46,120
2,note_on,36,0,108
2,note_on,48,0,12
2,note_on,36,47,0
2,note_on,48,47,120
2,note_on,36,0,108
2,note_on,48,0,12
2,note_on,36,49,0
2,note_on,48,50,120
2,note_on,36,0,108
2,note_on,48,0,12
2,note_on,36,51,0
2,note_on,48,53,120
2,note_on,36,0,108
2,note_on,48,0,12
2,note_on,36,55,0
2,note_on,48,50,120
2,note_on,36,0,108
2,note_on,48,0,12
2,note_on,36,53,0
2,note_on,48,47,120
2,note_on,36,0,108
2,note_on,48,0,12
2,note_on,36,53,0
2,note_on,48,47,120
2,note_on,36,0,108
2,note_on,48,0,12
2,note_on,36,44,0
2,note_on,48,40,120
2,note_on,36,0,108
2,note_on,48,0,12
2,note_on,36,40,0
2,note_on,48,43,120
2,note_on,36,0,108
2,note_on,48,0,12
2,note_on,36,44,0
2,note_on,48,46,120
2,note_on,36,0,108
2,note_on,48,0,12
2,note_on,36,48,0
2,note_on,48,50,120
2,note_on,36,0,108
2,note_on,48,0,12
2,note_on,36,52,0
2,note_on,48,54,120
2,note_on,36,0,108
2,note_on,48,0,12
2,note_on,36,63,0
2,note_on,48,57,120
2,note_on,36,0,108
2,note_on,48,0,12
2,note_on,36,62,0
2,note_on,48,56,120
2,note_on,36,0,108
2,note_on,48,0,12
2,note_on,34,66,0
2,note_on,46,61,120
2,note_on,34,0,108
2,note_on,46,0,12
2,note_on,34,68,0
2,note_on,46,64,120
2,note_on,34,0,108
2,note_on,46,0,12
2,note_on,32,70,0
2,note_on,44,72,120
2,note_on,32,0,108
2,note_on,44,0,12
2,note_on,32,73,0
2,note_on,44,74,120
2,note_on,32,0,108
2,note_on,44,0,12
2,note_on,31,75,0
2,note_on,43,73,120
2,note_on,31,0,108
2,note_on,43,0,12
2,note_on,31,76,0
2,note_on,43,78,120
2,note_on,31,0,108
2,note_on,43,0,12
2,note_on,30,93,0
2,note_on,42,93,0
2,note_on,42,0,240
2,note_on,30,0,0
2,note_on,57,79,720
2,note_on,63,93,0
2,note_on,60,93,0
2,note_on,54,79,0
2,note_on,54,0,240
2,note_on,57,0,0
2,note_on,63,0,0
2,note_on,60,0,0
2,note_on,60,93,720
2,note_on,55,79,0
2,note_on,63,93,0
2,note_on,63,0,240
2,note_on,55,0,0
2,note_on,60,0,0
2,note_on,43,89,720
2,note_on,38,74,0
2,note_on,31,74,0
2,note_on,35,74,0
2,note_on,35,0,240
2,note_on,43,0,0
2,note_on,38,0,0
2,note_on,31,0,0
2,note_on,48,89,720
2,note_on,36,74,0
2,note_on,39,74,0
2,note_on,43,74,0
2,note_on,43,0,240
2,note_on,48,0,0
2,note_on,36,0,0
2,note_on,39,0,0
