Track,Message Type,Note,Velocity,Time
1,note_on,60,50,0
1,note_on,60,0,480
1,note_on,58,46,0
1,note_on,58,0,480
1,note_on,63,50,0
1,note_on,63,0,720
1,note_on,61,48,0
1,note_on,61,0,240
1,note_on,60,47,0
1,note_on,60,0,240
1,note_on,63,49,0
1,note_on,63,0,240
1,note_on,68,51,0
1,note_on,68,0,240
1,note_on,70,56,0
1,note_on,70,0,240
1,note_on,63,50,0
1,note_on,63,0,720
1,note_on,64,46,0
1,note_on,64,0,240
1,note_on,65,50,0
1,note_on,65,0,480
1,note_on,58,50,0
1,note_on,58,0,360
1,note_on,60,46,0
1,note_on,60,0,60
1,note_on,61,46,0
1,note_on,61,0,60
1,note_on,63,50,0
1,note_on,63,0,480
1,note_on,57,48,0
1,note_on,57,0,480
1,note_on,61,50,0
1,note_on,61,0,480
1,note_on,60,48,0
1,note_on,60,0,120
1,note_on,58,48,0
1,note_on,58,0,120
1,note_on,56,48,0
1,note_on,56,0,120
1,note_on,55,48,0
1,note_on,55,0,120
1,note_on,55,40,0
1,note_on,58,50,0
1,note_on,58,0,480
1,note_on,55,0,0
1,note_on,56,50,0
1,note_on,56,0,240
1,note_on,60,36,0
1,note_on,60,0,60
1,note_on,63,35,20
1,note_on,63,0,60
1,note_on,68,35,20
1,note_on,68,0,60
1,note_on,72,50,20
1,note_on,72,0,480
1,note_on,70,46,0
1,note_on,70,0,480
1,note_on,75,50,0
1,note_on,75,0,720
1,note_on,73,48,0
1,note_on,73,0,240
1,note_on,72,47,0
1,note_on,72,0,240
1,note_on,75,49,0
1,note_on,75,0,240
1,note_on,80,51,0
1,note_on,80,0,240
1,note_on,82,56,0
1,note_on,82,0,240
1,note_on,75,50,0
1,note_on,75,0,720
1,note_on,76,46,0
1,note_on,76,0,240
1,note_on,77,50,0
1,note_on,77,0,480
1,note_on,70,50,0
1,note_on,70,0,360
1,note_on,72,46,0
1,note_on,72,0,60
1,note_on,73,46,0
1,note_on,73,0,60
1,note_on,75,50,0
1,note_on,75,0,480
1,note_on,69,48,0
1,note_on,69,0,480
1,note_on,73,50,0
1,note_on,73,0,480
1,note_on,72,48,0
1,note_on,72,0,120
1,note_on,70,48,0
1,note_on,70,0,120
1,note_on,68,48,0
1,note_on,68,0,120
1,note_on,67,48,0
1,note_on,67,0,120
1,note_on,70,50,0
1,note_on,70,0,480
1,note_on,68,50,0
1,note_on,68,0,240
1,note_on,60,45,180
1,note_on,60,0,60
1,note_on,72,50,0
1,note_on,72,0,600
1,note_on,80,50,0
1,note_on,80,0,120
1,note_on,79,51,0
1,note_on,79,0,120
1,note_on,77,48,0
1,note_on,77,0,120
1,note_on,84,54,0
1,note_on,84,0,600
1,note_on,80,50,0
1,note_on,80,0,120
1,note_on,79,50,0
1,note_on,79,0,120
1,note_on,77,48,0
1,note_on,77,0,120
1,note_on,72,52,0
1,note_on,72,0,600
1,note_on,80,46,0
1,note_on,80,0,120
1,note_on,79,49,0
1,note_on,79,0,120
1,note_on,77,51,0
1,note_on,77,0,120
1,note_on,75,57,0
1,note_on,75,0,240
1,note_on,74,53,0
1,note_on,74,0,360
1,note_on,75,55,0
1,note_on,75,0,30
1,note_on,74,55,0
1,note_on,74,0,30
1,note_on,72,54,0
1,note_on,72,0,30
1,note_on,74,54,0
1,note_on,74,0,30
1,note_on,77,63,0
1,note_on,77,0,180
1,note_on,75,55,0
1,note_on,75,0,60
1,note_on,75,62,0
1,note_on,75,0,480
1,note_on,65,55,0
1,note_on,67,54,240
1,note_on,67,0,30
1,note_on,65,54,0
1,note_on,65,0,30
1,note_on,64,53,0
1,note_on,64,0,30
1,note_on,65,53,0
1,note_on,65,0,30
1,note_on,65,0,0
1,note_on,68,58,0
1,note_on,68,0,60
1,note_on,72,51,0
1,note_on,72,0,60
1,note_on,71,45,0
1,note_on,71,0,40
1,note_on,72,45,0
1,note_on,72,0,40
1,note_on,74,45,0
1,note_on,74,0,40
1,note_on,72,49,0
1,note_on,72,0,60
1,note_on,70,45,0
1,note_on,70,0,60
1,note_on,79,52,0
1,note_on,79,0,240
1,note_on,77,50,0
1,note_on,77,0,60
1,note_on,75,49,0
1,note_on,75,0,60
1,note_on,74,47,0
1,note_on,74,0,60
1,note_on,72,46,0
1,note_on,72,0,60
1,note_on,70,44,0
1,note_on,70,0,60
1,note_on,69,43,0
1,note_on,69,0,60
1,note_on,72,47,0
1,note_on,72,0,60
1,note_on,70,46,0
1,note_on,70,0,60
1,note_on,68,45,0
1,note_on,68,0,60
1,note_on,65,43,0
1,note_on,65,0,60
1,note_on,63,49,0
1,note_on,63,0,240
1,note_on,58,44,120
1,note_on,58,0,120
1,note_on,55,49,0
1,note_on,55,0,120
1,note_on,58,45,0
1,note_on,58,0,120
1,note_on,55,49,0
1,note_on,55,0,120
1,note_on,51,45,0
1,note_on,51,0,120
1,note_on,53,38,0
1,note_on,56,45,0
1,note_on,56,0,235
1,note_on,53,0,0
1,note_on,53,39,5
1,note_on,56,47,0
1,note_on,56,0,235
1,note_on,53,0,0
1,note_on,53,42,5
1,note_on,56,50,0
1,note_on,56,0,235
1,note_on,53,0,0
1,note_on,50,36,5
1,note_on,53,41,0
1,note_on,56,49,0
1,note_on,56,0,235
1,note_on,53,0,0
1,note_on,50,0,0
1,note_on,46,36,5
1,note_on,51,41,0
1,note_on,55,49,0
1,note_on,55,0,240
1,note_on,51,0,0
1,note_on,46,0,0
1,note_on,58,49,480
1,note_on,58,0,180
1,note_on,63,49,0
1,note_on,63,0,60
1,note_on,63,49,0
1,note_on,63,0,120
1,note_on,62,44,0
1,note_on,62,0,115
1,note_on,62,49,5
1,note_on,62,0,120
1,note_on,60,45,0
1,note_on,60,0,115
1,note_on,60,53,5
1,note_on,60,0,120
1,note_on,59,47,0
1,note_on,59,0,115
1,note_on,59,53,5
1,note_on,59,0,120
1,note_on,58,49,0
1,note_on,58,0,115
1,note_on,55,50,5
1,note_on,58,50,0
1,note_on,58,0,1920
1,note_on,55,0,0
1,note_on,60,47,0
1,note_on,60,0,480
1,note_on,58,46,0
1,note_on,58,0,480
1,note_on,63,50,0
1,note_on,63,0,720
1,note_on,61,48,0
1,note_on,61,0,240
1,note_on,60,47,0
1,note_on,60,0,240
1,note_on,63,49,0
1,note_on,63,0,240
1,note_on,68,51,0
1,note_on,68,0,240
1,note_on,70,56,0
1,note_on,70,0,240
1,note_on,63,50,0
1,note_on,63,0,720
1,note_on,64,46,0
1,note_on,64,0,240
1,note_on,65,50,0
1,note_on,65,0,480
1,note_on,58,50,0
1,note_on,58,0,360
1,note_on,60,46,0
1,note_on,60,0,60
1,note_on,61,46,0
1,note_on,61,0,60
1,note_on,63,50,0
1,note_on,63,0,480
1,note_on,57,48,0
1,note_on,57,0,480
1,note_on,61,50,0
1,note_on,61,0,480
1,note_on,60,48,0
1,note_on,60,0,120
1,note_on,58,48,0
1,note_on,58,0,120
1,note_on,56,48,0
1,note_on,56,0,120
1,note_on,55,48,0
1,note_on,55,0,120
1,note_on,55,40,0
1,note_on,58,50,0
1,note_on,58,0,480
1,note_on,55,0,0
1,note_on,56,50,0
1,note_on,56,0,240
1,note_on,63,47,0
1,note_on,63,0,240
1,note_on,68,50,0
1,note_on,68,0,240
1,note_on,71,47,0
1,note_on,71,0,240
1,note_on,70,47,0
1,note_on,70,0,240
1,note_on,68,46,0
1,note_on,68,0,240
1,note_on,67,51,0
1,note_on,67,0,240
1,note_on,73,47,0
1,note_on,73,0,240
1,note_on,68,50,480
1,note_on,68,0,240
1,note_on,71,47,0
1,note_on,71,0,240
1,note_on,70,47,0
1,note_on,70,0,240
1,note_on,68,46,0
1,note_on,68,0,240
1,note_on,68,51,0
1,note_on,68,0,240
1,note_on,67,47,0
1,note_on,67,0,240
1,note_on,68,55,480
1,note_on,68,0,240
1,note_on,71,56,0
1,note_on,71,0,240
1,note_on,70,61,0
1,note_on,70,0,240
1,note_on,68,65,0
1,note_on,68,0,240
1,note_on,66,73,0
1,note_on,78,86,0
1,note_on,66,0,240
1,note_on,78,0,80
1,note_on,75,85,0
1,note_on,75,0,80
1,note_on,71,85,0
1,note_on,71,0,80
1,note_on,71,81,0
1,note_on,83,96,0
1,note_on,71,0,240
1,note_on,83,0,80
1,note_on,80,93,0
1,note_on,80,0,80
1,note_on,76,93,0
1,note_on,76,0,80
1,note_on,76,88,0
1,note_on,88,104,0
1,note_on,76,0,240
1,note_on,88,0,80
1,note_on,85,92,0
1,note_on,85,0,80
1,note_on,82,92,0
1,note_on,82,0,80
1,note_on,71,81,0
1,note_on,83,96,0
1,note_on,83,0,120
1,note_on,71,0,0
1,note_on,54,73,120
1,note_on,57,73,0
1,note_on,59,86,0
1,note_on,63,86,0
1,note_on,63,0,120
1,note_on,54,0,0
1,note_on,57,0,0
1,note_on,59,0,0
1,note_on,64,86,120
1,note_on,64,0,120
1,note_on,64,50,840
1,note_on,64,0,240
1,note_on,68,47,0
1,note_on,68,0,240
1,note_on,66,47,0
1,note_on,66,0,240
1,note_on,64,46,0
1,note_on,64,0,240
1,note_on,63,51,0
1,note_on,63,0,240
1,note_on,69,47,0
1,note_on,69,0,240
1,note_on,64,50,480
1,note_on,64,0,240
1,note_on,68,47,0
1,note_on,68,0,240
1,note_on,64,47,0
1,note_on,64,0,240
1,note_on,63,46,0
1,note_on,63,0,240
1,note_on,62,54,0
1,note_on,62,0,720
1,note_on,62,51,0
1,note_on,62,0,240
1,note_on,62,56,0
1,note_on,62,0,720
1,note_on,62,53,0
1,note_on,62,0,240
1,note_on,61,59,0
1,note_on,61,0,720
1,note_on,61,72,0
1,note_on,61,0,240
1,note_on,60,50,0
1,note_on,60,0,480
1,note_on,58,46,0
1,note_on,58,0,480
1,note_on,63,50,0
1,note_on,63,0,720
1,note_on,61,48,0
1,note_on,61,0,240
1,note_on,60,47,0
1,note_on,60,0,240
1,note_on,63,49,0
1,note_on,63,0,240
1,note_on,68,51,0
1,note_on,68,0,240
1,note_on,70,56,0
1,note_on,70,0,240
1,note_on,63,50,0
1,note_on,63,0,720
1,note_on,64,46,0
1,note_on,64,0,240
1,note_on,65,50,0
1,note_on,65,0,480
1,note_on,58,50,0
1,note_on,58,0,360
1,note_on,60,46,0
1,note_on,60,0,60
1,note_on,61,46,0
1,note_on,61,0,60
1,note_on,63,50,0
1,note_on,63,0,480
1,note_on,57,48,0
1,note_on,57,0,480
1,note_on,61,50,0
1,note_on,61,0,480
1,note_on,61,52,0
1,note_on,61,0,80
1,note_on,60,46,0
1,note_on,60,0,80
1,note_on,58,46,0
1,note_on,58,0,80
1,note_on,58,51,0
1,note_on,58,0,80
1,note_on,56,47,0
1,note_on,56,0,80
1,note_on,55,47,0
1,note_on,55,0,80
1,note_on,55,40,0
1,note_on,58,50,0
1,note_on,58,0,480
1,note_on,55,0,0
1,note_on,56,50,0
1,note_on,56,0,240
1,note_on,60,36,0
1,note_on,60,0,60
1,note_on,63,35,20
1,note_on,63,0,60
1,note_on,68,35,20
1,note_on,68,0,60
1,note_on,72,50,20
1,note_on,72,0,480
1,note_on,70,46,0
1,note_on,70,0,480
1,note_on,75,50,0
1,note_on,75,0,720
1,note_on,73,48,0
1,note_on,73,0,240
1,note_on,72,47,0
1,note_on,72,0,240
1,note_on,75,49,0
1,note_on,75,0,240
1,note_on,80,51,0
1,note_on,80,0,240
1,note_on,82,56,0
1,note_on,82,0,240
1,note_on,75,50,0
1,note_on,75,0,720
1,note_on,76,55,0
1,note_on,76,0,240
1,note_on,77,59,0
1,note_on,77,0,480
1,note_on,70,57,0
1,note_on,70,0,360
1,note_on,72,56,0
1,note_on,72,0,60
1,note_on,73,58,0
1,note_on,73,0,60
1,note_on,75,60,0
1,note_on,75,0,480
1,note_on,69,48,0
1,note_on,69,0,480
1,note_on,73,50,0
1,note_on,73,0,480
1,note_on,73,48,0
1,note_on,73,0,80
1,note_on,72,47,0
1,note_on,72,0,80
1,note_on,70,47,0
1,note_on,70,0,60
1,note_on,70,48,20
1,note_on,70,0,80
1,note_on,68,46,0
1,note_on,68,0,80
1,note_on,67,46,0
1,note_on,67,0,80
1,note_on,60,52,0
1,note_on,68,52,0
1,note_on,68,0,240
1,note_on,60,0,0
1,note_on,75,50,480
1,note_on,75,0,180
1,note_on,76,50,0
1,note_on,76,0,60
1,note_on,77,55,0
1,note_on,77,0,320
1,note_on,75,51,0
1,note_on,75,0,80
1,note_on,73,51,0
1,note_on,73,0,80
1,note_on,72,52,0
1,note_on,72,0,80
1,note_on,70,53,0
1,note_on,70,0,80
1,note_on,68,54,0
1,note_on,68,0,80
1,note_on,67,58,0
1,note_on,67,0,60
1,note_on,73,53,0
1,note_on,73,0,60
1,note_on,70,51,0
1,note_on,70,0,60
1,note_on,67,50,0
1,note_on,67,0,60
1,note_on,68,52,0
1,note_on,68,0,80
1,note_on,70,45,0
1,note_on,70,0,26
1,note_on,68,39,0
1,note_on,68,0,26
1,note_on,67,39,0
1,note_on,67,0,26
1,note_on,68,44,2
1,note_on,68,0,60
1,note_on,72,46,0
1,note_on,72,0,20
1,note_on,63,46,0
1,note_on,63,0,240
1,note_on,87,50,240
1,note_on,75,42,0
1,note_on,75,0,180
1,note_on,87,0,0
1,note_on,88,50,0
1,note_on,76,42,0
1,note_on,76,0,60
1,note_on,88,0,0
1,note_on,89,55,0
1,note_on,77,46,0
1,note_on,77,0,320
1,note_on,89,0,0
1,note_on,87,51,0
1,note_on,75,43,0
1,note_on,75,0,80
1,note_on,87,0,0
1,note_on,85,53,0
1,note_on,73,45,0
1,note_on,73,0,80
1,note_on,85,0,0
1,note_on,84,53,0
1,note_on,72,45,0
1,note_on,72,0,80
1,note_on,84,0,0
1,note_on,82,52,0
1,note_on,70,44,0
1,note_on,70,0,80
1,note_on,82,0,0
1,note_on,80,50,0
1,note_on,68,42,0
1,note_on,68,0,80
1,note_on,80,0,0
1,note_on,67,43,0
1,note_on,79,51,0
1,note_on,79,0,80
1,note_on,67,0,0
1,note_on,73,42,0
1,note_on,85,50,0
1,note_on,85,0,80
1,note_on,73,0,0
1,note_on,67,44,0
1,note_on,79,52,0
1,note_on,79,0,80
1,note_on,67,0,0
1,note_on,80,52,0
1,note_on,68,44,0
1,note_on,68,0,240
1,note_on,80,0,0
1,note_on,75,52,210
1,note_on,75,0,30
1,note_on,73,63,0
1,note_on,73,0,80
1,note_on,72,55,0
1,note_on,72,0,80
1,note_on,73,55,0
1,note_on,73,0,80
1,note_on,77,58,0
1,note_on,77,0,80
1,note_on,75,55,0
1,note_on,75,0,80
1,note_on,73,54,0
1,note_on,73,0,80
1,note_on,72,52,0
1,note_on,72,0,240
1,note_on,72,54,210
1,note_on,72,0,30
1,note_on,67,47,0
1,note_on,70,64,0
1,note_on,70,0,80
1,note_on,69,52,0
1,note_on,69,0,80
1,note_on,70,52,0
1,note_on,70,0,80
1,note_on,73,54,0
1,note_on,73,0,80
1,note_on,72,52,0
1,note_on,72,0,80
1,note_on,70,52,0
1,note_on,70,0,80
1,note_on,67,0,0
1,note_on,68,46,0
1,note_on,68,0,240
1,note_on,60,54,210
1,note_on,60,0,30
1,note_on,58,64,0
1,note_on,58,0,80
1,note_on,57,48,0
1,note_on,57,0,80
1,note_on,58,48,0
1,note_on,58,0,80
1,note_on,61,50,0
1,note_on,61,0,80
1,note_on,60,47,0
1,note_on,60,0,80
1,note_on,58,44,0
1,note_on,58,0,80
1,note_on,56,35,0
1,note_on,56,0,120
1,note_on,48,28,120
1,note_on,51,28,0
1,note_on,56,35,0
1,note_on,56,0,120
1,note_on,51,0,0
1,note_on,48,0,0
1,note_on,44,28,120
1,note_on,48,28,0
1,note_on,56,35,0
1,note_on,56,0,480
1,note_on,48,0,0
1,note_on,44,0,0
2,note_on,60,28,7680
2,note_on,60,0,120
2,note_on,63,24,0
2,note_on,63,0,120
2,note_on,60,26,0
2,note_on,60,0,120
2,note_on,63,23,0
2,note_on,63,0,120
2,note_on,58,28,0
2,note_on,58,0,120
2,note_on,63,24,0
2,note_on,63,0,120
2,note_on,58,26,0
2,note_on,58,0,120
2,note_on,63,24,0
2,note_on,63,0,120
2,note_on,63,28,0
2,note_on,63,0,120
2,note_on,68,25,0
2,note_on,68,0,120
2,note_on,63,25,0
2,note_on,63,0,120
2,note_on,68,25,0
2,note_on,68,0,120
2,note_on,63,28,0
2,note_on,63,0,120
2,note_on,70,25,0
2,note_on,70,0,120
2,note_on,63,25,0
2,note_on,63,0,120
2,note_on,70,25,0
2,note_on,70,0,120
2,note_on,63,31,0
2,note_on,63,0,120
2,note_on,68,31,0
2,note_on,68,0,120
2,note_on,63,32,0
2,note_on,63,0,120
2,note_on,70,33,0
2,note_on,70,0,120
2,note_on,68,33,0
2,note_on,68,0,120
2,note_on,72,34,0
2,note_on,72,0,120
2,note_on,68,35,0
2,note_on,68,0,120
2,note_on,74,35,0
2,note_on,74,0,120
2,note_on,67,33,0
2,note_on,67,0,120
2,note_on,70,25,0
2,note_on,70,0,120
2,note_on,67,25,0
2,note_on,67,0,120
2,note_on,70,25,0
2,note_on,70,0,120
2,note_on,67,29,0
2,note_on,67,0,120
2,note_on,70,30,0
2,note_on,70,0,120
2,note_on,67,33,0
2,note_on,67,0,120
2,note_on,70,34,0
2,note_on,70,0,120
2,note_on,67,30,0
2,note_on,67,0,120
2,note_on,70,24,0
2,note_on,70,0,120
2,note_on,67,26,0
2,note_on,67,0,120
2,note_on,70,23,0
2,note_on,70,0,118
2,note_on,67,28,2
2,note_on,67,0,120
2,note_on,63,24,0
2,note_on,63,0,120
2,note_on,67,24,0
2,note_on,67,0,120
2,note_on,63,24,0
2,note_on,63,0,120
2,note_on,68,30,0
2,note_on,68,0,120
2,note_on,63,27,0
2,note_on,63,0,120
2,note_on,68,27,0
2,note_on,68,0,120
2,note_on,63,25,0
2,note_on,63,0,90
2,note_on,63,28,30
2,note_on,63,0,120
2,note_on,60,24,0
2,note_on,60,0,120
2,note_on,63,26,0
2,note_on,63,0,120
2,note_on,60,24,0
2,note_on,60,0,120
2,note_on,65,29,0
2,note_on,65,0,120
2,note_on,61,25,0
2,note_on,61,0,120
2,note_on,65,27,0
2,note_on,65,0,120
2,note_on,61,24,0
2,note_on,61,0,90
2,note_on,61,30,30
2,note_on,61,0,90
2,note_on,61,26,30
2,note_on,61,0,90
2,note_on,61,28,30
2,note_on,61,0,90
2,note_on,61,26,30
2,note_on,61,0,90
2,note_on,61,30,30
2,note_on,61,0,120
2,note_on,63,26,0
2,note_on,63,0,120
2,note_on,61,28,0
2,note_on,61,0,120
2,note_on,63,24,0
2,note_on,63,0,120
2,note_on,60,36,0
2,note_on,60,0,240
2,note_on,59,24,19560
2,note_on,63,29,0
2,note_on,63,0,60
2,note_on,59,0,0
2,note_on,59,24,20
2,note_on,63,29,0
2,note_on,63,0,60
2,note_on,59,0,0
2,note_on,59,24,20
2,note_on,63,29,0
2,note_on,63,0,60
2,note_on,59,0,0
2,note_on,59,24,20
2,note_on,63,29,0
2,note_on,63,0,60
2,note_on,59,0,0
2,note_on,59,25,20
2,note_on,63,30,0
2,note_on,63,0,60
2,note_on,59,0,0
2,note_on,59,25,20
2,note_on,63,30,0
2,note_on,63,0,60
2,note_on,59,0,0
2,note_on,59,25,20
2,note_on,63,30,0
2,note_on,63,0,60
2,note_on,59,0,0
2,note_on,59,25,20
2,note_on,63,30,0
2,note_on,63,0,60
2,note_on,59,0,0
2,note_on,59,25,20
2,note_on,63,30,0
2,note_on,63,0,60
2,note_on,59,0,0
2,note_on,59,25,20
2,note_on,63,30,0
2,note_on,63,0,60
2,note_on,59,0,0
2,note_on,59,25,20
2,note_on,63,30,0
2,note_on,63,0,60
2,note_on,59,0,0
2,note_on,59,25,20
2,note_on,63,30,0
2,note_on,63,0,60
2,note_on,59,0,0
2,note_on,61,25,20
2,note_on,63,30,0
2,note_on,63,0,60
2,note_on,61,0,0
2,note_on,61,25,20
2,note_on,63,30,0
2,note_on,63,0,60
2,note_on,61,0,0
2,note_on,61,25,20
2,note_on,63,30,0
2,note_on,63,0,60
2,note_on,61,0,0
2,note_on,61,25,20
2,note_on,63,30,0
2,note_on,63,0,60
2,note_on,61,0,0
2,note_on,61,25,20
2,note_on,63,30,0
2,note_on,63,0,60
2,note_on,61,0,0
2,note_on,61,25,20
2,note_on,63,30,0
2,note_on,63,0,60
2,note_on,61,0,0
2,note_on,61,25,20
2,note_on,63,30,0
2,note_on,63,0,60
2,note_on,61,0,0
2,note_on,61,25,20
2,note_on,63,30,0
2,note_on,63,0,60
2,note_on,61,0,0
2,note_on,61,25,20
2,note_on,63,30,0
2,note_on,63,0,60
2,note_on,61,0,0
2,note_on,61,25,20
2,note_on,63,30,0
2,note_on,63,0,60
2,note_on,61,0,0
2,note_on,61,25,20
2,note_on,63,30,0
2,note_on,63,0,60
2,note_on,61,0,0
2,note_on,61,25,20
2,note_on,63,30,0
2,note_on,63,0,60
2,note_on,61,0,0
2,note_on,59,24,20
2,note_on,63,29,0
2,note_on,63,0,60
2,note_on,59,0,0
2,note_on,59,24,20
2,note_on,63,29,0
2,note_on,63,0,60
2,note_on,59,0,0
2,note_on,59,24,20
2,note_on,63,29,0
2,note_on,63,0,60
2,note_on,59,0,0
2,note_on,59,24,20
2,note_on,63,29,0
2,note_on,63,0,60
2,note_on,59,0,0
2,note_on,59,25,20
2,note_on,63,30,0
2,note_on,63,0,60
2,note_on,59,0,0
2,note_on,59,25,20
2,note_on,63,30,0
2,note_on,63,0,60
2,note_on,59,0,0
2,note_on,59,25,20
2,note_on,63,30,0
2,note_on,63,0,60
2,note_on,59,0,0
2,note_on,59,25,20
2,note_on,63,30,0
2,note_on,63,0,60
2,note_on,59,0,0
2,note_on,59,25,20
2,note_on,63,30,0
2,note_on,63,0,60
2,note_on,59,0,0
2,note_on,59,25,20
2,note_on,63,30,0
2,note_on,63,0,60
2,note_on,59,0,0
2,note_on,59,25,20
2,note_on,63,30,0
2,note_on,63,0,60
2,note_on,59,0,0
2,note_on,59,25,20
2,note_on,63,30,0
2,note_on,63,0,60
2,note_on,59,0,0
2,note_on,58,25,20
2,note_on,63,30,0
2,note_on,63,0,60
2,note_on,58,0,0
2,note_on,58,25,20
2,note_on,63,30,0
2,note_on,63,0,60
2,note_on,58,0,0
2,note_on,58,25,20
2,note_on,63,30,0
2,note_on,63,0,60
2,note_on,58,0,0
2,note_on,58,25,20
2,note_on,63,30,0
2,note_on,63,0,60
2,note_on,58,0,0
2,note_on,58,25,20
2,note_on,63,30,0
2,note_on,63,0,60
2,note_on,58,0,0
2,note_on,58,25,20
2,note_on,63,30,0
2,note_on,63,0,60
2,note_on,58,0,0
2,note_on,55,25,20
2,note_on,58,25,0
2,note_on,63,30,0
2,note_on,63,0,60
2,note_on,58,0,0
2,note_on,55,0,0
2,note_on,55,25,20
2,note_on,58,25,0
2,note_on,63,30,0
2,note_on,63,0,60
2,note_on,58,0,0
2,note_on,55,0,0
2,note_on,55,25,20
2,note_on,58,25,0
2,note_on,63,30,0
2,note_on,63,0,60
2,note_on,58,0,0
2,note_on,55,0,0
2,note_on,55,25,20
2,note_on,58,25,0
2,note_on,63,30,0
2,note_on,63,0,60
2,note_on,58,0,0
2,note_on,55,0,0
2,note_on,55,25,20
2,note_on,58,25,0
2,note_on,63,30,0
2,note_on,63,0,60
2,note_on,58,0,0
2,note_on,55,0,0
2,note_on,55,25,20
2,note_on,58,25,0
2,note_on,63,30,0
2,note_on,63,0,60
2,note_on,58,0,0
2,note_on,55,0,0
2,note_on,59,26,20
2,note_on,63,31,0
2,note_on,63,0,60
2,note_on,59,0,0
2,note_on,59,26,20
2,note_on,63,32,0
2,note_on,63,0,60
2,note_on,59,0,0
2,note_on,59,27,20
2,note_on,63,32,0
2,note_on,63,0,60
2,note_on,59,0,0
2,note_on,59,28,20
2,note_on,63,34,0
2,note_on,63,0,60
2,note_on,59,0,0
2,note_on,59,30,20
2,note_on,63,36,0
2,note_on,63,0,60
2,note_on,59,0,0
2,note_on,59,31,20
2,note_on,63,37,0
2,note_on,63,0,60
2,note_on,59,0,0
2,note_on,59,33,20
2,note_on,63,39,0
2,note_on,63,0,60
2,note_on,59,0,0
2,note_on,59,33,20
2,note_on,63,39,0
2,note_on,63,0,60
2,note_on,59,0,0
2,note_on,59,33,20
2,note_on,63,40,0
2,note_on,63,0,60
2,note_on,59,0,0
2,note_on,59,35,20
2,note_on,63,42,0
2,note_on,63,0,60
2,note_on,59,0,0
2,note_on,59,35,20
2,note_on,63,42,0
2,note_on,63,0,60
2,note_on,59,0,0
2,note_on,59,37,20
2,note_on,63,44,0
2,note_on,63,0,60
2,note_on,59,0,0
2,note_on,56,58,1940
2,note_on,59,58,0
2,note_on,59,0,60
2,note_on,56,0,0
2,note_on,56,35,20
2,note_on,59,35,0
2,note_on,59,0,60
2,note_on,56,0,0
2,note_on,56,35,20
2,note_on,59,35,0
2,note_on,59,0,60
2,note_on,56,0,0
2,note_on,56,35,20
2,note_on,59,35,0
2,note_on,59,0,60
2,note_on,56,0,0
2,note_on,56,35,20
2,note_on,59,35,0
2,note_on,59,0,60
2,note_on,56,0,0
2,note_on,56,35,20
2,note_on,59,35,0
2,note_on,59,0,60
2,note_on,56,0,0
2,note_on,56,33,20
2,note_on,59,33,0
2,note_on,59,0,60
2,note_on,56,0,0
2,note_on,56,33,20
2,note_on,59,33,0
2,note_on,59,0,60
2,note_on,56,0,0
2,note_on,56,32,20
2,note_on,59,32,0
2,note_on,59,0,60
2,note_on,56,0,0
2,note_on,56,31,20
2,note_on,59,31,0
2,note_on,59,0,60
2,note_on,56,0,0
2,note_on,56,30,20
2,note_on,59,30,0
2,note_on,59,0,60
2,note_on,56,0,0
2,note_on,56,29,20
2,note_on,59,29,0
2,note_on,59,0,60
2,note_on,56,0,0
2,note_on,56,24,20
2,note_on,59,29,0
2,note_on,59,0,60
2,note_on,56,0,0
2,note_on,56,24,20
2,note_on,59,29,0
2,note_on,59,0,60
2,note_on,56,0,0
2,note_on,56,24,20
2,note_on,59,29,0
2,note_on,59,0,60
2,note_on,56,0,0
2,note_on,56,24,20
2,note_on,59,29,0
2,note_on,59,0,60
2,note_on,56,0,0
2,note_on,56,25,20
2,note_on,59,30,0
2,note_on,59,0,60
2,note_on,56,0,0
2,note_on,56,25,20
2,note_on,59,30,0
2,note_on,59,0,60
2,note_on,56,0,0
2,note_on,56,25,20
2,note_on,59,30,0
2,note_on,59,0,60
2,note_on,56,0,0
2,note_on,56,25,20
2,note_on,59,30,0
2,note_on,59,0,60
2,note_on,56,0,0
2,note_on,56,25,20
2,note_on,59,30,0
2,note_on,59,0,60
2,note_on,56,0,0
2,note_on,56,25,20
2,note_on,59,30,0
2,note_on,59,0,60
2,note_on,56,0,0
2,note_on,56,25,20
2,note_on,59,30,0
2,note_on,59,0,60
2,note_on,56,0,0
2,note_on,56,25,20
2,note_on,59,30,0
2,note_on,59,0,60
2,note_on,56,0,0
2,note_on,57,25,20
2,note_on,59,30,0
2,note_on,59,0,60
2,note_on,57,0,0
2,note_on,57,25,20
2,note_on,59,30,0
2,note_on,59,0,60
2,note_on,57,0,0
2,note_on,57,25,20
2,note_on,59,30,0
2,note_on,59,0,60
2,note_on,57,0,0
2,note_on,57,25,20
2,note_on,59,30,0
2,note_on,59,0,60
2,note_on,57,0,0
2,note_on,57,25,20
2,note_on,59,30,0
2,note_on,59,0,60
2,note_on,57,0,0
2,note_on,57,25,20
2,note_on,59,30,0
2,note_on,59,0,60
2,note_on,57,0,0
2,note_on,57,25,20
2,note_on,59,30,0
2,note_on,59,0,60
2,note_on,57,0,0
2,note_on,57,25,20
2,note_on,59,30,0
2,note_on,59,0,60
2,note_on,57,0,0
2,note_on,57,25,20
2,note_on,59,30,0
2,note_on,59,0,60
2,note_on,57,0,0
2,note_on,57,25,20
2,note_on,59,30,0
2,note_on,59,0,60
2,note_on,57,0,0
2,note_on,57,25,20
2,note_on,59,30,0
2,note_on,59,0,60
2,note_on,57,0,0
2,note_on,57,25,20
2,note_on,59,30,0
2,note_on,59,0,60
2,note_on,57,0,0
2,note_on,56,24,20
2,note_on,59,29,0
2,note_on,59,0,60
2,note_on,56,0,0
2,note_on,56,24,20
2,note_on,59,29,0
2,note_on,59,0,60
2,note_on,56,0,0
2,note_on,56,24,20
2,note_on,59,29,0
2,note_on,59,0,60
2,note_on,56,0,0
2,note_on,56,24,20
2,note_on,59,29,0
2,note_on,59,0,60
2,note_on,56,0,0
2,note_on,56,25,20
2,note_on,59,30,0
2,note_on,59,0,60
2,note_on,56,0,0
2,note_on,56,25,20
2,note_on,59,30,0
2,note_on,59,0,60
2,note_on,56,0,0
2,note_on,56,25,20
2,note_on,59,30,0
2,note_on,59,0,60
2,note_on,56,0,0
2,note_on,56,25,20
2,note_on,59,30,0
2,note_on,59,0,60
2,note_on,56,0,0
2,note_on,56,25,20
2,note_on,59,30,0
2,note_on,59,0,60
2,note_on,56,0,0
2,note_on,56,25,20
2,note_on,59,30,0
2,note_on,59,0,60
2,note_on,56,0,0
2,note_on,56,25,20
2,note_on,59,30,0
2,note_on,59,0,60
2,note_on,56,0,0
2,note_on,56,25,20
2,note_on,59,30,0
2,note_on,59,0,60
2,note_on,56,0,0
2,note_on,50,24,20
2,note_on,56,24,0
2,note_on,59,29,0
2,note_on,59,0,60
2,note_on,56,0,0
2,note_on,50,0,0
2,note_on,50,24,20
2,note_on,56,24,0
2,note_on,59,29,0
2,note_on,59,0,60
2,note_on,56,0,0
2,note_on,50,0,0
2,note_on,50,24,20
2,note_on,56,24,0
2,note_on,59,29,0
2,note_on,59,0,60
2,note_on,56,0,0
2,note_on,50,0,0
2,note_on,50,24,20
2,note_on,56,24,0
2,note_on,59,29,0
2,note_on,59,0,60
2,note_on,56,0,0
2,note_on,50,0,0
2,note_on,50,24,20
2,note_on,56,25,0
2,note_on,59,30,0
2,note_on,59,0,60
2,note_on,56,0,0
2,note_on,50,0,0
2,note_on,50,24,20
2,note_on,56,25,0
2,note_on,59,30,0
2,note_on,59,0,60
2,note_on,56,0,0
2,note_on,50,0,0
2,note_on,50,24,20
2,note_on,56,25,0
2,note_on,59,30,0
2,note_on,59,0,60
2,note_on,56,0,0
2,note_on,50,0,0
2,note_on,50,24,20
2,note_on,56,25,0
2,note_on,59,30,0
2,note_on,59,0,60
2,note_on,56,0,0
2,note_on,50,0,0
2,note_on,50,24,20
2,note_on,56,25,0
2,note_on,59,30,0
2,note_on,59,0,60
2,note_on,56,0,0
2,note_on,50,0,0
2,note_on,50,24,20
2,note_on,56,25,0
2,note_on,59,30,0
2,note_on,59,0,60
2,note_on,56,0,0
2,note_on,50,0,0
2,note_on,50,24,20
2,note_on,56,25,0
2,note_on,59,30,0
2,note_on,59,0,60
2,note_on,56,0,0
2,note_on,50,0,0
2,note_on,50,24,20
2,note_on,56,25,0
2,note_on,59,30,0
2,note_on,59,0,60
2,note_on,56,0,0
2,note_on,50,0,0
2,note_on,50,25,20
2,note_on,56,25,0
2,note_on,59,30,0
2,note_on,59,0,60
2,note_on,56,0,0
2,note_on,50,0,0
2,note_on,50,25,20
2,note_on,56,25,0
2,note_on,59,30,0
2,note_on,59,0,60
2,note_on,56,0,0
2,note_on,50,0,0
2,note_on,50,25,20
2,note_on,56,25,0
2,note_on,59,30,0
2,note_on,59,0,60
2,note_on,56,0,0
2,note_on,50,0,0
2,note_on,50,25,20
2,note_on,56,25,0
2,note_on,59,30,0
2,note_on,59,0,60
2,note_on,56,0,0
2,note_on,50,0,0
2,note_on,50,25,20
2,note_on,56,26,0
2,note_on,59,31,0
2,note_on,59,0,60
2,note_on,56,0,0
2,note_on,50,0,0
2,note_on,50,25,20
2,note_on,56,26,0
2,note_on,59,31,0
2,note_on,59,0,60
2,note_on,56,0,0
2,note_on,50,0,0
2,note_on,50,25,20
2,note_on,56,26,0
2,note_on,59,31,0
2,note_on,59,0,60
2,note_on,56,0,0
2,note_on,50,0,0
2,note_on,50,25,20
2,note_on,56,26,0
2,note_on,59,31,0
2,note_on,59,0,60
2,note_on,56,0,0
2,note_on,50,0,0
2,note_on,50,25,20
2,note_on,56,26,0
2,note_on,59,31,0
2,note_on,59,0,60
2,note_on,56,0,0
2,note_on,50,0,0
2,note_on,50,25,20
2,note_on,56,26,0
2,note_on,59,31,0
2,note_on,59,0,60
2,note_on,56,0,0
2,note_on,50,0,0
2,note_on,50,25,20
2,note_on,56,26,0
2,note_on,59,31,0
2,note_on,59,0,60
2,note_on,56,0,0
2,note_on,50,0,0
2,note_on,50,25,20
2,note_on,56,26,0
2,note_on,59,31,0
2,note_on,59,0,60
2,note_on,56,0,0
2,note_on,50,0,0
2,note_on,49,26,20
2,note_on,56,26,0
2,note_on,58,31,0
2,note_on,58,0,60
2,note_on,56,0,0
2,note_on,49,0,0
2,note_on,49,26,20
2,note_on,56,26,0
2,note_on,58,31,0
2,note_on,58,0,60
2,note_on,56,0,0
2,note_on,49,0,0
2,note_on,49,26,20
2,note_on,56,26,0
2,note_on,58,32,0
2,note_on,58,0,60
2,note_on,56,0,0
2,note_on,49,0,0
2,note_on,49,26,20
2,note_on,56,26,0
2,note_on,58,32,0
2,note_on,58,0,60
2,note_on,56,0,0
2,note_on,49,0,0
2,note_on,49,27,20
2,note_on,56,28,0
2,note_on,58,33,0
2,note_on,58,0,60
2,note_on,56,0,0
2,note_on,49,0,0
2,note_on,49,27,20
2,note_on,56,28,0
2,note_on,58,34,0
2,note_on,58,0,60
2,note_on,56,0,0
2,note_on,49,0,0
2,note_on,49,27,20
2,note_on,55,28,0
2,note_on,58,34,0
2,note_on,58,0,60
2,note_on,55,0,0
2,note_on,49,0,0
2,note_on,49,27,20
2,note_on,55,28,0
2,note_on,58,34,0
2,note_on,58,0,60
2,note_on,55,0,0
2,note_on,49,0,0
2,note_on,49,27,20
2,note_on,55,29,0
2,note_on,58,34,0
2,note_on,58,0,60
2,note_on,55,0,0
2,note_on,49,0,0
2,note_on,51,28,20
2,note_on,49,23,0
2,note_on,55,29,0
2,note_on,58,35,0
2,note_on,58,0,60
2,note_on,51,0,0
2,note_on,49,0,0
2,note_on,55,0,0
2,note_on,51,28,20
2,note_on,49,23,0
2,note_on,55,29,0
2,note_on,58,35,0
2,note_on,58,0,60
2,note_on,51,0,0
2,note_on,49,0,0
2,note_on,55,0,0
2,note_on,51,28,20
2,note_on,49,23,0
2,note_on,55,29,0
2,note_on,58,35,0
2,note_on,58,0,60
2,note_on,51,0,0
2,note_on,49,0,0
2,note_on,55,0,0
2,note_on,60,28,7700
2,note_on,60,0,80
2,note_on,63,26,0
2,note_on,63,0,60
2,note_on,63,26,20
2,note_on,63,0,60
2,note_on,60,26,20
2,note_on,60,0,80
2,note_on,63,26,0
2,note_on,63,0,60
2,note_on,63,26,20
2,note_on,63,0,60
2,note_on,58,28,20
2,note_on,58,0,80
2,note_on,63,26,0
2,note_on,63,0,60
2,note_on,63,26,20
2,note_on,63,0,60
2,note_on,58,26,20
2,note_on,58,0,80
2,note_on,63,26,0
2,note_on,63,0,60
2,note_on,63,26,20
2,note_on,63,0,60
2,note_on,63,28,20
2,note_on,63,0,80
2,note_on,68,26,0
2,note_on,68,0,60
2,note_on,68,26,20
2,note_on,68,0,60
2,note_on,63,25,20
2,note_on,63,0,80
2,note_on,68,25,0
2,note_on,68,0,60
2,note_on,68,25,20
2,note_on,68,0,60
2,note_on,63,28,20
2,note_on,63,0,80
2,note_on,70,26,0
2,note_on,70,0,60
2,note_on,70,26,20
2,note_on,70,0,60
2,note_on,63,25,20
2,note_on,63,0,80
2,note_on,70,25,0
2,note_on,70,0,60
2,note_on,70,25,20
2,note_on,70,0,60
2,note_on,63,29,20
2,note_on,63,0,80
2,note_on,68,27,0
2,note_on,68,0,60
2,note_on,68,26,20
2,note_on,68,0,60
2,note_on,63,26,20
2,note_on,63,0,80
2,note_on,70,26,0
2,note_on,70,0,60
2,note_on,70,26,20
2,note_on,70,0,60
2,note_on,68,30,20
2,note_on,68,0,80
2,note_on,72,28,0
2,note_on,72,0,60
2,note_on,72,28,20
2,note_on,72,0,60
2,note_on,68,27,20
2,note_on,68,0,80
2,note_on,74,27,0
2,note_on,74,0,60
2,note_on,74,27,20
2,note_on,74,0,60
2,note_on,67,30,20
2,note_on,67,0,80
2,note_on,70,28,0
2,note_on,70,0,60
2,note_on,70,28,20
2,note_on,70,0,60
2,note_on,67,27,20
2,note_on,67,0,80
2,note_on,70,23,0
2,note_on,70,0,60
2,note_on,70,23,20
2,note_on,70,0,60
2,note_on,67,32,20
2,note_on,67,0,80
2,note_on,70,28,0
2,note_on,70,0,60
2,note_on,70,28,20
2,note_on,70,0,60
2,note_on,67,33,20
2,note_on,67,0,80
2,note_on,70,29,0
2,note_on,70,0,60
2,note_on,70,28,20
2,note_on,70,0,60
2,note_on,67,35,20
2,note_on,67,0,80
2,note_on,70,28,0
2,note_on,70,0,60
2,note_on,70,28,20
2,note_on,70,0,60
2,note_on,67,32,20
2,note_on,67,0,80
2,note_on,70,26,0
2,note_on,70,0,60
2,note_on,70,26,20
2,note_on,70,0,59
2,note_on,67,34,21
2,note_on,67,0,80
2,note_on,63,27,0
2,note_on,63,0,60
2,note_on,63,27,20
2,note_on,63,0,60
2,note_on,67,33,20
2,note_on,67,0,80
2,note_on,63,27,0
2,note_on,63,0,60
2,note_on,63,25,20
2,note_on,63,0,60
2,note_on,68,30,20
2,note_on,68,0,80
2,note_on,63,28,0
2,note_on,63,0,60
2,note_on,63,28,20
2,note_on,63,0,60
2,note_on,68,27,20
2,note_on,68,0,80
2,note_on,63,23,0
2,note_on,63,0,60
2,note_on,63,23,20
2,note_on,63,0,60
2,note_on,63,28,20
2,note_on,63,0,80
2,note_on,60,26,0
2,note_on,60,0,60
2,note_on,60,26,20
2,note_on,60,0,60
2,note_on,63,28,20
2,note_on,63,0,80
2,note_on,60,25,0
2,note_on,60,0,60
2,note_on,60,25,20
2,note_on,60,0,60
2,note_on,65,29,20
2,note_on,65,0,80
2,note_on,61,28,0
2,note_on,61,0,60
2,note_on,61,27,20
2,note_on,61,0,60
2,note_on,65,27,20
2,note_on,65,0,80
2,note_on,61,27,0
2,note_on,61,0,60
2,note_on,61,27,20
2,note_on,61,0,60
2,note_on,67,30,20
2,note_on,67,0,80
2,note_on,61,28,0
2,note_on,61,0,60
2,note_on,61,28,20
2,note_on,61,0,60
2,note_on,61,28,20
2,note_on,61,0,60
2,note_on,61,28,20
2,note_on,61,0,60
2,note_on,61,28,20
2,note_on,61,0,60
3,note_on,44,40,0
3,note_on,44,0,480
3,note_on,49,35,0
3,note_on,49,0,480
3,note_on,48,40,0
3,note_on,48,0,480
3,note_on,43,37,0
3,note_on,43,0,480
3,note_on,44,33,0
3,note_on,44,0,240
3,note_on,43,35,0
3,note_on,43,0,240
3,note_on,41,38,0
3,note_on,41,0,240
3,note_on,53,40,0
3,note_on,53,0,240
3,note_on,51,36,0
3,note_on,51,0,480
3,note_on,39,35,0
3,note_on,39,0,480
3,note_on,37,40,0
3,note_on,37,0,480
3,note_on,49,36,0
3,note_on,49,0,480
3,note_on,48,40,0
3,note_on,48,0,480
3,note_on,41,36,0
3,note_on,41,0,480
3,note_on,34,40,0
3,note_on,34,0,480
3,note_on,39,34,0
3,note_on,39,0,480
3,note_on,32,37,0
3,note_on,32,0,240
3,note_on,44,29,0
3,note_on,44,0,240
3,note_on,48,36,0
3,note_on,32,36,0
3,note_on,48,0,60
3,note_on,51,34,20
3,note_on,51,0,60
3,note_on,56,34,20
3,note_on,56,0,60
3,note_on,32,0,20
3,note_on,44,40,240
3,note_on,44,0,480
3,note_on,49,35,0
3,note_on,49,0,480
3,note_on,48,40,0
3,note_on,48,0,480
3,note_on,43,37,0
3,note_on,43,0,480
3,note_on,44,41,0
3,note_on,44,0,240
3,note_on,43,44,0
3,note_on,43,0,240
3,note_on,41,46,0
3,note_on,41,0,240
3,note_on,41,49,0
3,note_on,41,0,240
3,note_on,41,36,2400
3,note_on,41,0,480
3,note_on,46,40,0
3,note_on,46,0,480
3,note_on,39,34,0
3,note_on,39,0,480
3,note_on,44,37,0
3,note_on,56,36,480
3,note_on,56,0,240
3,note_on,44,0,0
3,note_on,51,25,6120
3,note_on,55,33,0
3,note_on,55,0,240
3,note_on,51,0,0
3,note_on,51,49,720
3,note_on,34,33,0
3,note_on,51,0,120
3,note_on,50,44,0
3,note_on,50,0,90
3,note_on,50,49,30
3,note_on,50,0,120
3,note_on,48,45,0
3,note_on,48,0,90
3,note_on,48,53,30
3,note_on,48,0,120
3,note_on,47,47,0
3,note_on,47,0,90
3,note_on,47,53,30
3,note_on,47,0,120
3,note_on,46,49,0
3,note_on,46,0,120
3,note_on,34,0,0
3,note_on,39,36,0
3,note_on,39,0,240
3,note_on,46,44,120
3,note_on,46,0,120
3,note_on,43,49,0
3,note_on,43,0,120
3,note_on,46,45,0
3,note_on,46,0,120
3,note_on,43,41,0
3,note_on,43,0,120
3,note_on,39,38,0
3,note_on,39,0,120
3,note_on,53,38,0
3,note_on,34,33,0
3,note_on,56,45,0
3,note_on,56,0,480
3,note_on,34,0,0
3,note_on,53,0,0
3,note_on,46,33,0
3,note_on,53,42,0
3,note_on,56,50,0
3,note_on,56,0,480
3,note_on,53,0,0
3,note_on,46,0,0
3,note_on,39,51,0
3,note_on,53,51,0
3,note_on,53,0,120
3,note_on,52,48,0
3,note_on,52,0,90
3,note_on,52,53,30
3,note_on,52,0,120
3,note_on,51,48,0
3,note_on,51,0,90
3,note_on,51,53,30
3,note_on,51,0,120
3,note_on,50,49,0
3,note_on,50,0,90
3,note_on,50,55,30
3,note_on,50,0,120
3,note_on,51,50,0
3,note_on,51,0,90
3,note_on,51,55,30
3,note_on,51,0,120
3,note_on,52,40,0
3,note_on,52,0,90
3,note_on,52,44,30
3,note_on,52,0,120
3,note_on,51,37,0
3,note_on,51,0,90
3,note_on,51,44,30
3,note_on,51,0,120
3,note_on,50,31,0
3,note_on,50,0,90
3,note_on,50,37,30
3,note_on,50,0,120
3,note_on,49,29,0
3,note_on,49,0,120
3,note_on,39,0,0
3,note_on,32,33,0
3,note_on,44,37,0
3,note_on,44,0,480
3,note_on,32,0,0
3,note_on,49,35,0
3,note_on,49,0,480
3,note_on,48,40,0
3,note_on,48,0,480
3,note_on,43,37,0
3,note_on,43,0,480
3,note_on,44,33,0
3,note_on,44,0,240
3,note_on,43,36,0
3,note_on,43,0,240
3,note_on,41,40,0
3,note_on,41,0,240
3,note_on,53,44,0
3,note_on,53,0,240
3,note_on,51,36,0
3,note_on,51,0,480
3,note_on,39,35,0
3,note_on,39,0,480
3,note_on,37,40,0
3,note_on,37,0,480
3,note_on,49,36,0
3,note_on,49,0,480
3,note_on,48,40,0
3,note_on,48,0,480
3,note_on,41,36,0
3,note_on,41,0,480
3,note_on,34,40,0
3,note_on,34,0,480
3,note_on,39,34,0
3,note_on,39,0,480
3,note_on,32,37,0
3,note_on,32,0,240
3,note_on,44,29,0
3,note_on,44,0,240
3,note_on,32,36,0
3,note_on,32,0,240
3,note_on,44,33,240
3,note_on,56,33,0
3,note_on,56,0,480
3,note_on,44,0,0
3,note_on,58,36,480
3,note_on,58,0,320
3,note_on,58,36,0
3,note_on,58,0,80
3,note_on,57,36,0
3,note_on,57,0,80
3,note_on,58,36,0
3,note_on,58,0,60
3,note_on,58,36,20
3,note_on,58,0,60
3,note_on,56,33,20
3,note_on,56,0,60
3,note_on,55,36,20
3,note_on,55,0,60
3,note_on,53,32,20
3,note_on,53,0,60
3,note_on,51,32,20
3,note_on,51,0,60
3,note_on,44,33,20
3,note_on,56,33,0
3,note_on,56,0,480
3,note_on,44,0,0
3,note_on,51,36,480
3,note_on,51,0,320
3,note_on,51,36,0
3,note_on,51,0,80
3,note_on,50,36,0
3,note_on,50,0,80
3,note_on,51,36,0
3,note_on,51,0,60
3,note_on,52,36,20
3,note_on,52,0,60
3,note_on,51,33,20
3,note_on,51,0,60
3,note_on,49,36,20
3,note_on,49,0,60
3,note_on,47,32,20
3,note_on,47,0,60
3,note_on,46,32,20
3,note_on,46,0,60
3,note_on,44,36,20
3,note_on,56,36,0
3,note_on,56,0,480
3,note_on,44,0,0
3,note_on,40,33,3360
3,note_on,52,33,0
3,note_on,52,0,480
3,note_on,40,0,0
3,note_on,54,36,480
3,note_on,54,0,320
3,note_on,54,36,0
3,note_on,54,0,80
3,note_on,53,36,0
3,note_on,53,0,80
3,note_on,54,36,0
3,note_on,54,0,60
3,note_on,54,36,20
3,note_on,54,0,60
3,note_on,52,33,20
3,note_on,52,0,60
3,note_on,51,36,20
3,note_on,51,0,60
3,note_on,49,32,20
3,note_on,49,0,60
3,note_on,47,32,20
3,note_on,47,0,60
3,note_on,52,33,20
3,note_on,52,0,480
3,note_on,29,41,560
3,note_on,29,0,40
3,note_on,32,44,40
3,note_on,32,0,40
3,note_on,35,46,40
3,note_on,35,0,40
3,note_on,38,47,40
3,note_on,38,0,40
3,note_on,41,49,40
3,note_on,41,0,40
3,note_on,44,51,40
3,note_on,44,0,240
3,note_on,29,42,320
3,note_on,29,0,40
3,note_on,32,46,40
3,note_on,32,0,40
3,note_on,35,48,40
3,note_on,35,0,40
3,note_on,38,49,40
3,note_on,38,0,40
3,note_on,41,51,40
3,note_on,41,0,40
3,note_on,44,53,40
3,note_on,44,0,240
3,note_on,40,45,320
3,note_on,40,0,40
3,note_on,44,48,40
3,note_on,44,0,40
3,note_on,46,51,40
3,note_on,46,0,120
3,note_on,39,57,200
3,note_on,39,0,40
3,note_on,43,60,40
3,note_on,43,0,40
3,note_on,46,64,40
3,note_on,46,0,120
3,note_on,32,34,120
3,note_on,44,40,0
3,note_on,44,0,480
3,note_on,32,0,0
3,note_on,49,35,0
3,note_on,49,0,480
3,note_on,48,40,0
3,note_on,48,0,480
3,note_on,43,37,0
3,note_on,43,0,480
3,note_on,44,33,0
3,note_on,44,0,240
3,note_on,43,35,0
3,note_on,43,0,240
3,note_on,41,38,0
3,note_on,41,0,240
3,note_on,53,40,0
3,note_on,53,0,240
3,note_on,51,36,0
3,note_on,51,0,480
3,note_on,39,35,0
3,note_on,39,0,480
3,note_on,37,40,0
3,note_on,37,0,480
3,note_on,49,36,0
3,note_on,49,0,480
3,note_on,48,40,0
3,note_on,48,0,480
3,note_on,41,36,0
3,note_on,41,0,480
3,note_on,34,40,0
3,note_on,34,0,480
3,note_on,39,34,0
3,note_on,39,0,480
3,note_on,32,37,0
3,note_on,32,0,240
3,note_on,44,29,0
3,note_on,44,0,240
3,note_on,48,36,0
3,note_on,32,36,0
3,note_on,48,0,60
3,note_on,51,34,20
3,note_on,51,0,60
3,note_on,56,34,20
3,note_on,56,0,60
3,note_on,32,0,20
3,note_on,44,40,240
3,note_on,44,0,480
3,note_on,49,35,0
3,note_on,49,0,480
3,note_on,48,40,0
3,note_on,48,0,480
3,note_on,43,37,0
3,note_on,43,0,480
3,note_on,44,33,0
3,note_on,44,0,240
3,note_on,43,35,0
3,note_on,43,0,240
3,note_on,41,38,0
3,note_on,41,0,240
3,note_on,41,40,0
3,note_on,41,0,240
3,note_on,39,50,0
3,note_on,39,0,40
3,note_on,43,44,40
3,note_on,43,0,40
3,note_on,46,45,40
3,note_on,46,0,40
3,note_on,51,47,40
3,note_on,51,0,40
3,note_on,55,49,40
3,note_on,55,0,40
3,note_on,58,50,40
3,note_on,58,0,40
3,note_on,63,52,40
3,note_on,63,0,480
3,note_on,37,50,0
3,note_on,37,0,40
3,note_on,43,43,40
3,note_on,43,0,40
3,note_on,46,44,40
3,note_on,46,0,40
3,note_on,49,46,40
3,note_on,49,0,40
3,note_on,55,47,40
3,note_on,55,0,40
3,note_on,58,49,40
3,note_on,58,0,40
3,note_on,61,50,40
3,note_on,61,0,480
3,note_on,60,40,0
3,note_on,60,0,480
3,note_on,53,36,0
3,note_on,53,0,480
3,note_on,46,40,0
3,note_on,46,0,480
3,note_on,63,44,4800
3,note_on,67,47,0
3,note_on,67,0,480
3,note_on,63,0,0
3,note_on,56,44,0
3,note_on,68,44,0
3,note_on,68,0,240
3,note_on,56,0,0
3,note_on,51,43,240
3,note_on,61,45,0
3,note_on,61,0,480
3,note_on,51,0,0
3,note_on,56,33,0
3,note_on,60,39,0
3,note_on,60,0,240
3,note_on,56,0,0
3,note_on,55,44,240
3,note_on,39,37,0
3,note_on,49,37,0
3,note_on,49,0,480
3,note_on,39,0,0
3,note_on,55,0,0
3,note_on,44,25,0
3,note_on,48,30,0
3,note_on,48,0,120
3,note_on,44,0,0
3,note_on,32,30,120
3,note_on,32,0,120
3,note_on,32,30,120
3,note_on,32,0,480
4,note_on,56,28,0
4,note_on,56,0,120
4,note_on,51,24,0
4,note_on,51,0,120
4,note_on,56,26,0
4,note_on,56,0,120
4,note_on,51,23,0
4,note_on,51,0,120
4,note_on,55,28,0
4,note_on,55,0,120
4,note_on,51,24,0
4,note_on,51,0,120
4,note_on,55,26,0
4,note_on,55,0,120
4,note_on,51,24,0
4,note_on,51,0,120
4,note_on,56,28,0
4,note_on,56,0,120
4,note_on,51,25,0
4,note_on,51,0,120
4,note_on,56,25,0
4,note_on,56,0,120
4,note_on,51,25,0
4,note_on,51,0,120
4,note_on,58,28,0
4,note_on,58,0,120
4,note_on,51,25,0
4,note_on,51,0,120
4,note_on,58,25,0
4,note_on,58,0,120
4,note_on,51,25,0
4,note_on,51,0,120
4,note_on,56,29,0
4,note_on,56,0,120
4,note_on,51,25,0
4,note_on,51,0,120
4,note_on,58,26,0
4,note_on,58,0,120
4,note_on,51,23,0
4,note_on,51,0,120
4,note_on,60,30,0
4,note_on,60,0,120
4,note_on,56,25,0
4,note_on,56,0,120
4,note_on,62,27,0
4,note_on,62,0,120
4,note_on,56,22,0
4,note_on,56,0,120
4,note_on,55,28,0
4,note_on,55,0,120
4,note_on,58,23,0
4,note_on,58,0,120
4,note_on,55,23,0
4,note_on,55,0,120
4,note_on,58,23,0
4,note_on,58,0,120
4,note_on,55,28,0
4,note_on,55,0,120
4,note_on,58,23,0
4,note_on,58,0,120
4,note_on,55,25,0
4,note_on,55,0,120
4,note_on,58,24,0
4,note_on,58,0,120
4,note_on,55,28,0
4,note_on,55,0,120
4,note_on,58,24,0
4,note_on,58,0,120
4,note_on,55,26,0
4,note_on,55,0,120
4,note_on,58,23,0
4,note_on,58,0,118
4,note_on,55,28,2
4,note_on,55,0,120
4,note_on,51,24,0
4,note_on,51,0,120
4,note_on,55,24,0
4,note_on,55,0,120
4,note_on,51,24,0
4,note_on,51,0,120
4,note_on,56,28,0
4,note_on,56,0,120
4,note_on,51,27,0
4,note_on,51,0,120
4,note_on,56,27,0
4,note_on,56,0,120
4,note_on,51,25,0
4,note_on,51,0,120
4,note_on,51,28,0
4,note_on,51,0,120
4,note_on,48,24,0
4,note_on,48,0,120
4,note_on,51,26,0
4,note_on,51,0,120
4,note_on,48,24,0
4,note_on,48,0,120
4,note_on,53,29,0
4,note_on,53,0,120
4,note_on,49,25,0
4,note_on,49,0,120
4,note_on,53,27,0
4,note_on,53,0,120
4,note_on,49,24,0
4,note_on,49,0,108
4,note_on,49,30,12
4,note_on,49,0,108
4,note_on,49,26,12
4,note_on,49,0,108
4,note_on,49,28,12
4,note_on,49,0,108
4,note_on,49,26,12
4,note_on,49,0,108
4,note_on,49,31,12
4,note_on,49,0,120
4,note_on,51,26,0
4,note_on,51,0,120
4,note_on,49,28,0
4,note_on,49,0,120
4,note_on,51,24,0
4,note_on,51,0,120
4,note_on,56,25,480
4,note_on,56,0,120
4,note_on,51,21,0
4,note_on,51,0,120
4,note_on,56,23,0
4,note_on,56,0,120
4,note_on,51,20,0
4,note_on,51,0,120
4,note_on,55,25,0
4,note_on,55,0,120
4,note_on,51,21,0
4,note_on,51,0,120
4,note_on,55,23,0
4,note_on,55,0,120
4,note_on,51,21,0
4,note_on,51,0,120
4,note_on,56,25,0
4,note_on,56,0,120
4,note_on,51,22,0
4,note_on,51,0,120
4,note_on,56,22,0
4,note_on,56,0,120
4,note_on,51,22,0
4,note_on,51,0,120
4,note_on,55,25,0
4,note_on,55,0,120
4,note_on,51,22,0
4,note_on,51,0,120
4,note_on,55,22,0
4,note_on,55,0,120
4,note_on,51,22,0
4,note_on,51,0,120
4,note_on,56,30,0
4,note_on,56,0,120
4,note_on,51,30,0
4,note_on,51,0,120
4,note_on,55,30,0
4,note_on,55,0,120
4,note_on,51,31,0
4,note_on,51,0,120
4,note_on,53,31,0
4,note_on,53,0,120
4,note_on,44,32,0
4,note_on,44,0,120
4,note_on,53,32,0
4,note_on,53,0,120
4,note_on,44,32,0
4,note_on,44,0,120
4,note_on,39,46,0
4,note_on,39,0,120
4,note_on,43,25,0
4,note_on,43,0,120
4,note_on,46,25,0
4,note_on,46,0,120
4,note_on,51,25,0
4,note_on,51,0,120
4,note_on,55,28,0
4,note_on,55,0,120
4,note_on,58,30,0
4,note_on,58,0,120
4,note_on,55,33,0
4,note_on,55,0,120
4,note_on,58,35,0
4,note_on,58,0,120
4,note_on,37,40,0
4,note_on,37,0,120
4,note_on,43,24,0
4,note_on,43,0,120
4,note_on,46,26,0
4,note_on,46,0,120
4,note_on,49,23,0
4,note_on,49,0,120
4,note_on,55,25,0
4,note_on,55,0,120
4,note_on,58,21,0
4,note_on,58,0,120
4,note_on,55,21,0
4,note_on,55,0,120
4,note_on,49,21,0
4,note_on,49,0,120
4,note_on,48,40,0
4,note_on,51,27,120
4,note_on,51,0,120
4,note_on,48,0,0
4,note_on,48,27,0
4,note_on,51,25,120
4,note_on,51,0,120
4,note_on,48,0,0
4,note_on,48,25,0
4,note_on,48,0,120
4,note_on,53,21,0
4,note_on,53,0,120
4,note_on,48,23,0
4,note_on,48,0,120
4,note_on,53,21,0
4,note_on,53,0,120
4,note_on,49,26,0
4,note_on,49,0,120
4,note_on,53,22,0
4,note_on,53,0,120
4,note_on,49,24,0
4,note_on,49,0,120
4,note_on,53,21,0
4,note_on,53,0,120
4,note_on,46,27,0
4,note_on,46,0,120
4,note_on,51,23,0
4,note_on,51,0,120
4,note_on,46,25,0
4,note_on,46,0,120
4,note_on,51,23,0
4,note_on,51,0,120
4,note_on,51,23,120
4,note_on,51,0,120
4,note_on,55,25,0
4,note_on,55,0,120
4,note_on,51,21,0
4,note_on,51,0,120
4,note_on,60,25,600
4,note_on,60,0,108
4,note_on,60,25,12
4,note_on,60,0,108
4,note_on,60,25,12
4,note_on,60,0,108
4,note_on,60,29,12
4,note_on,60,0,108
4,note_on,60,25,12
4,note_on,60,0,108
4,note_on,60,25,12
4,note_on,60,0,108
4,note_on,60,25,12
4,note_on,60,0,108
4,note_on,52,24,12
4,note_on,55,24,0
4,note_on,60,29,0
4,note_on,60,0,108
4,note_on,55,0,0
4,note_on,52,0,0
4,note_on,52,21,12
4,note_on,55,21,0
4,note_on,60,25,0
4,note_on,60,0,108
4,note_on,55,0,0
4,note_on,52,0,0
4,note_on,52,21,12
4,note_on,55,21,0
4,note_on,60,25,0
4,note_on,60,0,108
4,note_on,55,0,0
4,note_on,52,0,0
4,note_on,52,21,12
4,note_on,55,21,0
4,note_on,60,25,0
4,note_on,60,0,108
4,note_on,55,0,0
4,note_on,52,0,0
4,note_on,53,24,12
4,note_on,56,24,0
4,note_on,60,29,0
4,note_on,60,0,108
4,note_on,56,0,0
4,note_on,53,0,0
4,note_on,53,21,12
4,note_on,56,21,0
4,note_on,60,25,0
4,note_on,60,0,108
4,note_on,56,0,0
4,note_on,53,0,0
4,note_on,53,21,12
4,note_on,56,21,0
4,note_on,60,25,0
4,note_on,60,0,108
4,note_on,56,0,0
4,note_on,53,0,0
4,note_on,53,21,12
4,note_on,56,21,0
4,note_on,60,25,0
4,note_on,60,0,108
4,note_on,56,0,0
4,note_on,53,0,0
4,note_on,55,24,12
4,note_on,58,24,0
4,note_on,64,29,0
4,note_on,64,0,108
4,note_on,58,0,0
4,note_on,55,0,0
4,note_on,55,21,12
4,note_on,58,21,0
4,note_on,64,25,0
4,note_on,64,0,108
4,note_on,58,0,0
4,note_on,55,0,0
4,note_on,55,21,12
4,note_on,58,21,0
4,note_on,64,25,0
4,note_on,64,0,108
4,note_on,58,0,0
4,note_on,55,0,0
4,note_on,55,21,12
4,note_on,58,21,0
4,note_on,64,25,0
4,note_on,64,0,108
4,note_on,58,0,0
4,note_on,55,0,0
4,note_on,56,26,12
4,note_on,60,26,0
4,note_on,65,31,0
4,note_on,65,0,108
4,note_on,60,0,0
4,note_on,56,0,0
4,note_on,56,23,12
4,note_on,60,23,0
4,note_on,65,28,0
4,note_on,65,0,108
4,note_on,60,0,0
4,note_on,56,0,0
4,note_on,56,24,12
4,note_on,60,24,0
4,note_on,65,29,0
4,note_on,65,0,108
4,note_on,60,0,0
4,note_on,56,0,0
4,note_on,56,24,12
4,note_on,60,24,0
4,note_on,65,29,0
4,note_on,65,0,108
4,note_on,60,0,0
4,note_on,56,0,0
4,note_on,58,25,12
4,note_on,65,25,0
4,note_on,68,30,0
4,note_on,68,0,108
4,note_on,65,0,0
4,note_on,58,0,0
4,note_on,58,26,12
4,note_on,65,26,0
4,note_on,68,31,0
4,note_on,68,0,108
4,note_on,65,0,0
4,note_on,58,0,0
4,note_on,58,28,12
4,note_on,65,28,0
4,note_on,68,33,0
4,note_on,68,0,108
4,note_on,65,0,0
4,note_on,58,0,0
4,note_on,58,30,12
4,note_on,65,30,0
4,note_on,68,35,0
4,note_on,68,0,108
4,note_on,65,0,0
4,note_on,58,0,0
4,note_on,59,32,12
4,note_on,65,32,0
4,note_on,68,38,0
4,note_on,68,0,108
4,note_on,65,0,0
4,note_on,59,0,0
4,note_on,59,27,12
4,note_on,65,27,0
4,note_on,68,33,0
4,note_on,68,0,108
4,note_on,65,0,0
4,note_on,59,0,0
4,note_on,59,27,12
4,note_on,62,27,0
4,note_on,68,33,0
4,note_on,68,0,108
4,note_on,62,0,0
4,note_on,59,0,0
4,note_on,59,25,12
4,note_on,62,25,0
4,note_on,68,30,0
4,note_on,68,0,108
4,note_on,62,0,0
4,note_on,59,0,0
4,note_on,60,27,12
4,note_on,63,27,0
4,note_on,67,32,0
4,note_on,67,0,108
4,note_on,63,0,0
4,note_on,60,0,0
4,note_on,60,22,12
4,note_on,63,22,0
4,note_on,67,27,0
4,note_on,67,0,108
4,note_on,63,0,0
4,note_on,60,0,0
4,note_on,60,22,12
4,note_on,63,22,0
4,note_on,67,27,0
4,note_on,67,0,108
4,note_on,63,0,0
4,note_on,60,0,0
4,note_on,60,22,12
4,note_on,63,22,0
4,note_on,67,27,0
4,note_on,67,0,108
4,note_on,63,0,0
4,note_on,60,0,0
4,note_on,56,28,12
4,note_on,63,33,0
4,note_on,63,0,108
4,note_on,56,0,0
4,note_on,56,25,12
4,note_on,63,30,0
4,note_on,63,0,108
4,note_on,56,0,0
4,note_on,56,25,12
4,note_on,63,30,0
4,note_on,63,0,108
4,note_on,56,0,0
4,note_on,56,25,12
4,note_on,63,30,0
4,note_on,63,0,108
4,note_on,56,0,0
4,note_on,58,25,252
4,note_on,63,25,0
4,note_on,67,30,0
4,note_on,67,0,108
4,note_on,63,0,0
4,note_on,58,0,0
4,note_on,58,25,12
4,note_on,63,25,0
4,note_on,67,30,0
4,note_on,67,0,108
4,note_on,63,0,0
4,note_on,58,0,0
4,note_on,58,25,12
4,note_on,63,25,0
4,note_on,67,30,0
4,note_on,67,0,108
4,note_on,63,0,0
4,note_on,58,0,0
4,note_on,46,25,132
4,note_on,50,25,0
4,note_on,56,30,0
4,note_on,56,0,108
4,note_on,50,0,0
4,note_on,46,0,0
4,note_on,46,25,12
4,note_on,50,25,0
4,note_on,56,30,0
4,note_on,56,0,108
4,note_on,50,0,0
4,note_on,46,0,0
4,note_on,46,25,12
4,note_on,50,25,0
4,note_on,56,30,0
4,note_on,56,0,108
4,note_on,50,0,0
4,note_on,46,0,0
4,note_on,56,28,5772
4,note_on,56,0,120
4,note_on,51,24,0
4,note_on,51,0,120
4,note_on,56,26,0
4,note_on,56,0,120
4,note_on,51,23,0
4,note_on,51,0,120
4,note_on,55,28,0
4,note_on,55,0,120
4,note_on,51,24,0
4,note_on,51,0,120
4,note_on,55,26,0
4,note_on,55,0,120
4,note_on,51,24,0
4,note_on,51,0,120
4,note_on,56,28,0
4,note_on,56,0,120
4,note_on,51,25,0
4,note_on,51,0,120
4,note_on,56,25,0
4,note_on,56,0,120
4,note_on,51,25,0
4,note_on,51,0,120
4,note_on,58,28,0
4,note_on,58,0,120
4,note_on,51,25,0
4,note_on,51,0,120
4,note_on,58,25,0
4,note_on,58,0,120
4,note_on,51,25,0
4,note_on,51,0,120
4,note_on,56,29,0
4,note_on,56,0,120
4,note_on,51,25,0
4,note_on,51,0,120
4,note_on,58,27,0
4,note_on,58,0,120
4,note_on,51,24,0
4,note_on,51,0,120
4,note_on,60,33,0
4,note_on,60,0,120
4,note_on,56,28,0
4,note_on,56,0,120
4,note_on,62,31,0
4,note_on,62,0,120
4,note_on,56,26,0
4,note_on,56,0,120
4,note_on,55,28,0
4,note_on,55,0,120
4,note_on,58,23,0
4,note_on,58,0,120
4,note_on,55,23,0
4,note_on,55,0,120
4,note_on,58,23,0
4,note_on,58,0,120
4,note_on,55,28,0
4,note_on,55,0,120
4,note_on,58,23,0
4,note_on,58,0,120
4,note_on,55,25,0
4,note_on,55,0,120
4,note_on,58,24,0
4,note_on,58,0,120
4,note_on,55,28,0
4,note_on,55,0,120
4,note_on,58,24,0
4,note_on,58,0,120
4,note_on,55,26,0
4,note_on,55,0,120
4,note_on,58,23,0
4,note_on,58,0,118
4,note_on,55,28,2
4,note_on,55,0,120
4,note_on,51,24,0
4,note_on,51,0,120
4,note_on,55,24,0
4,note_on,55,0,120
4,note_on,51,24,0
4,note_on,51,0,120
4,note_on,56,28,0
4,note_on,56,0,120
4,note_on,51,27,0
4,note_on,51,0,120
4,note_on,56,27,0
4,note_on,56,0,120
4,note_on,51,25,0
4,note_on,51,0,120
4,note_on,51,28,0
4,note_on,51,0,120
4,note_on,48,24,0
4,note_on,48,0,120
4,note_on,51,26,0
4,note_on,51,0,120
4,note_on,48,24,0
4,note_on,48,0,120
4,note_on,53,29,0
4,note_on,53,0,120
4,note_on,49,25,0
4,note_on,49,0,120
4,note_on,53,27,0
4,note_on,53,0,120
4,note_on,49,24,0
4,note_on,49,0,90
4,note_on,49,30,30
4,note_on,49,0,90
4,note_on,49,26,30
4,note_on,49,0,90
4,note_on,49,28,30
4,note_on,49,0,90
4,note_on,49,26,30
4,note_on,49,0,90
4,note_on,49,31,30
4,note_on,49,0,120
4,note_on,51,26,0
4,note_on,51,0,120
4,note_on,49,28,0
4,note_on,49,0,120
4,note_on,51,24,0
4,note_on,51,0,120
4,note_on,45,45,5280
4,note_on,47,50,0
4,note_on,51,54,0
4,note_on,54,64,0
4,note_on,54,0,60
4,note_on,45,0,0
4,note_on,47,0,0
4,note_on,51,0,0
4,note_on,45,42,20
4,note_on,47,50,0
4,note_on,51,50,0
4,note_on,54,60,0
4,note_on,54,0,60
4,note_on,45,0,0
4,note_on,47,0,0
4,note_on,51,0,0
4,note_on,45,42,20
4,note_on,47,50,0
4,note_on,51,50,0
4,note_on,54,60,0
4,note_on,54,0,60
4,note_on,45,0,0
4,note_on,47,0,0
4,note_on,51,0,0
4,note_on,45,42,20
4,note_on,47,50,0
4,note_on,51,50,0
4,note_on,54,60,0
4,note_on,54,0,60
4,note_on,45,0,0
4,note_on,47,0,0
4,note_on,51,0,0
4,note_on,45,42,20
4,note_on,47,50,0
4,note_on,51,50,0
4,note_on,54,60,0
4,note_on,54,0,60
4,note_on,45,0,0
4,note_on,47,0,0
4,note_on,51,0,0
4,note_on,45,42,20
4,note_on,47,50,0
4,note_on,51,50,0
4,note_on,54,60,0
4,note_on,54,0,60
4,note_on,45,0,0
4,note_on,47,0,0
4,note_on,51,0,0
4,note_on,44,46,20
4,note_on,47,55,0
4,note_on,52,55,0
4,note_on,56,66,0
4,note_on,56,0,60
4,note_on,44,0,0
4,note_on,47,0,0
4,note_on,52,0,0
4,note_on,44,42,20
4,note_on,47,50,0
4,note_on,52,50,0
4,note_on,56,60,0
4,note_on,56,0,60
4,note_on,44,0,0
4,note_on,47,0,0
4,note_on,52,0,0
4,note_on,44,42,20
4,note_on,47,50,0
4,note_on,52,50,0
4,note_on,56,60,0
4,note_on,56,0,60
4,note_on,44,0,0
4,note_on,47,0,0
4,note_on,52,0,0
4,note_on,44,42,20
4,note_on,47,50,0
4,note_on,52,50,0
4,note_on,56,60,0
4,note_on,56,0,60
4,note_on,44,0,0
4,note_on,47,0,0
4,note_on,52,0,0
4,note_on,44,42,20
4,note_on,47,49,0
4,note_on,52,49,0
4,note_on,56,58,0
4,note_on,56,0,60
4,note_on,44,0,0
4,note_on,47,0,0
4,note_on,52,0,0
4,note_on,44,42,20
4,note_on,47,49,0
4,note_on,52,49,0
4,note_on,56,58,0
4,note_on,56,0,60
4,note_on,44,0,0
4,note_on,47,0,0
4,note_on,52,0,0
4,note_on,49,46,20
4,note_on,52,55,0
4,note_on,54,55,0
4,note_on,58,66,0
4,note_on,58,0,60
4,note_on,49,0,0
4,note_on,52,0,0
4,note_on,54,0,0
4,note_on,49,40,20
4,note_on,52,48,0
4,note_on,54,48,0
4,note_on,58,57,0
4,note_on,58,0,60
4,note_on,49,0,0
4,note_on,52,0,0
4,note_on,54,0,0
4,note_on,49,40,20
4,note_on,52,48,0
4,note_on,54,48,0
4,note_on,58,57,0
4,note_on,58,0,60
4,note_on,49,0,0
4,note_on,52,0,0
4,note_on,54,0,0
4,note_on,49,40,20
4,note_on,52,48,0
4,note_on,54,48,0
4,note_on,58,57,0
4,note_on,58,0,60
4,note_on,49,0,0
4,note_on,52,0,0
4,note_on,54,0,0
4,note_on,49,40,20
4,note_on,52,48,0
4,note_on,54,48,0
4,note_on,58,57,0
4,note_on,58,0,60
4,note_on,49,0,0
4,note_on,52,0,0
4,note_on,54,0,0
4,note_on,49,40,20
4,note_on,52,48,0
4,note_on,54,48,0
4,note_on,58,57,0
4,note_on,58,0,60
4,note_on,49,0,0
4,note_on,52,0,0
4,note_on,54,0,0
4,note_on,47,51,20
4,note_on,52,61,0
4,note_on,56,61,0
4,note_on,59,73,0
4,note_on,59,0,60
4,note_on,47,0,0
4,note_on,52,0,0
4,note_on,56,0,0
4,note_on,47,46,20
4,note_on,52,55,0
4,note_on,56,55,0
4,note_on,59,66,0
4,note_on,59,0,60
4,note_on,47,0,0
4,note_on,52,0,0
4,note_on,56,0,0
4,note_on,47,46,20
4,note_on,52,55,0
4,note_on,56,55,0
4,note_on,59,66,0
4,note_on,59,0,60
4,note_on,47,0,0
4,note_on,52,0,0
4,note_on,56,0,0
4,note_on,35,55,20
4,note_on,47,66,0
4,note_on,47,0,60
4,note_on,35,0,0
4,note_on,35,55,20
4,note_on,47,66,0
4,note_on,47,0,60
4,note_on,35,0,0
4,note_on,35,55,20
4,note_on,47,66,0
4,note_on,47,0,60
4,note_on,35,0,0
4,note_on,40,55,20
4,note_on,52,55,0
4,note_on,52,0,240
4,note_on,40,0,0
4,note_on,48,28,6480
4,note_on,48,0,80
4,note_on,51,26,0
4,note_on,51,0,60
4,note_on,51,26,20
4,note_on,51,0,60
4,note_on,56,28,20
4,note_on,56,0,80
4,note_on,51,26,0
4,note_on,51,0,60
4,note_on,51,26,20
4,note_on,51,0,60
4,note_on,55,28,20
4,note_on,55,0,80
4,note_on,51,26,0
4,note_on,51,0,60
4,note_on,51,26,20
4,note_on,51,0,60
4,note_on,55,28,20
4,note_on,55,0,80
4,note_on,51,27,0
4,note_on,51,0,60
4,note_on,51,27,20
4,note_on,51,0,60
4,note_on,56,28,20
4,note_on,56,0,80
4,note_on,51,26,0
4,note_on,51,0,60
4,note_on,51,26,20
4,note_on,51,0,60
4,note_on,56,28,20
4,note_on,56,0,80
4,note_on,51,26,0
4,note_on,51,0,60
4,note_on,51,26,20
4,note_on,51,0,60
4,note_on,58,28,20
4,note_on,58,0,80
4,note_on,51,25,0
4,note_on,51,0,60
4,note_on,51,25,20
4,note_on,51,0,60
4,note_on,58,25,20
4,note_on,58,0,80
4,note_on,51,25,0
4,note_on,51,0,60
4,note_on,51,25,20
4,note_on,51,0,60
4,note_on,56,29,20
4,note_on,56,0,80
4,note_on,51,27,0
4,note_on,51,0,60
4,note_on,51,27,20
4,note_on,51,0,60
4,note_on,58,26,20
4,note_on,58,0,80
4,note_on,51,26,0
4,note_on,51,0,60
4,note_on,51,26,20
4,note_on,51,0,60
4,note_on,60,30,20
4,note_on,60,0,80
4,note_on,56,27,0
4,note_on,56,0,60
4,note_on,56,27,20
4,note_on,56,0,60
4,note_on,62,27,20
4,note_on,62,0,80
4,note_on,56,27,0
4,note_on,56,0,60
4,note_on,56,25,20
4,note_on,56,0,60
4,note_on,55,28,20
4,note_on,55,0,80
4,note_on,58,27,0
4,note_on,58,0,60
4,note_on,58,27,20
4,note_on,58,0,60
4,note_on,55,23,20
4,note_on,55,0,80
4,note_on,58,23,0
4,note_on,58,0,60
4,note_on,58,23,20
4,note_on,58,0,60
4,note_on,55,28,20
4,note_on,55,0,80
4,note_on,58,26,0
4,note_on,58,0,60
4,note_on,58,26,20
4,note_on,58,0,60
4,note_on,55,25,20
4,note_on,55,0,80
4,note_on,58,25,0
4,note_on,58,0,60
4,note_on,58,25,20
4,note_on,58,0,60
4,note_on,55,28,20
4,note_on,55,0,80
4,note_on,58,25,0
4,note_on,58,0,60
4,note_on,58,25,20
4,note_on,58,0,60
4,note_on,55,26,20
4,note_on,55,0,80
4,note_on,58,26,0
4,note_on,58,0,60
4,note_on,58,26,20
4,note_on,58,0,59
4,note_on,55,28,21
4,note_on,55,0,80
4,note_on,51,26,0
4,note_on,51,0,60
4,note_on,51,26,20
4,note_on,51,0,60
4,note_on,55,24,20
4,note_on,55,0,80
4,note_on,51,24,0
4,note_on,51,0,60
4,note_on,51,24,20
4,note_on,51,0,60
4,note_on,56,28,20
4,note_on,56,0,80
4,note_on,51,26,0
4,note_on,51,0,60
4,note_on,51,26,20
4,note_on,51,0,60
4,note_on,56,27,20
4,note_on,56,0,80
4,note_on,51,25,0
4,note_on,51,0,60
4,note_on,51,25,20
4,note_on,51,0,60
4,note_on,51,28,20
4,note_on,51,0,80
4,note_on,48,25,0
4,note_on,48,0,60
4,note_on,48,25,20
4,note_on,48,0,60
4,note_on,51,26,20
4,note_on,51,0,80
4,note_on,48,26,0
4,note_on,48,0,60
4,note_on,48,26,20
4,note_on,48,0,60
4,note_on,53,29,20
4,note_on,53,0,80
4,note_on,49,26,0
4,note_on,49,0,60
4,note_on,49,26,20
4,note_on,49,0,60
4,note_on,53,27,20
4,note_on,53,0,80
4,note_on,49,25,0
4,note_on,49,0,60
4,note_on,49,25,20
4,note_on,49,0,60
4,note_on,55,30,20
4,note_on,55,0,80
4,note_on,49,28,0
4,note_on,49,0,60
4,note_on,49,28,20
4,note_on,49,0,60
4,note_on,49,28,20
4,note_on,49,0,60
4,note_on,49,25,20
4,note_on,49,0,60
4,note_on,49,25,20
4,note_on,49,0,60
4,note_on,49,31,20
4,note_on,49,0,80
4,note_on,51,28,0
4,note_on,51,0,60
4,note_on,51,28,20
4,note_on,51,0,60
4,note_on,49,28,20
4,note_on,49,0,80
4,note_on,51,25,0
4,note_on,51,0,60
4,note_on,51,25,20
4,note_on,51,0,60
4,note_on,56,28,500
4,note_on,56,0,80
4,note_on,51,26,0
4,note_on,51,0,60
4,note_on,51,26,20
4,note_on,51,0,60
4,note_on,56,28,20
4,note_on,56,0,80
4,note_on,51,26,0
4,note_on,51,0,60
4,note_on,51,26,20
4,note_on,51,0,60
4,note_on,55,28,20
4,note_on,55,0,80
4,note_on,51,26,0
4,note_on,51,0,60
4,note_on,51,26,20
4,note_on,51,0,60
4,note_on,55,28,20
4,note_on,55,0,80
4,note_on,51,27,0
4,note_on,51,0,60
4,note_on,51,27,20
4,note_on,51,0,60
4,note_on,56,28,20
4,note_on,56,0,80
4,note_on,51,26,0
4,note_on,51,0,60
4,note_on,51,26,20
4,note_on,51,0,60
4,note_on,56,28,20
4,note_on,56,0,80
4,note_on,51,26,0
4,note_on,51,0,60
4,note_on,51,26,20
4,note_on,51,0,60
4,note_on,55,28,20
4,note_on,55,0,80
4,note_on,51,25,0
4,note_on,51,0,60
4,note_on,51,25,20
4,note_on,51,0,60
4,note_on,55,25,20
4,note_on,55,0,80
4,note_on,51,25,0
4,note_on,51,0,60
4,note_on,51,25,20
4,note_on,51,0,60
4,note_on,56,29,20
4,note_on,56,0,80
4,note_on,51,27,0
4,note_on,51,0,60
4,note_on,51,27,20
4,note_on,51,0,60
4,note_on,55,26,20
4,note_on,55,0,80
4,note_on,51,26,0
4,note_on,51,0,60
4,note_on,51,26,20
4,note_on,51,0,60
4,note_on,53,30,20
4,note_on,53,0,80
4,note_on,44,27,0
4,note_on,44,0,60
4,note_on,44,27,20
4,note_on,44,0,60
4,note_on,53,27,20
4,note_on,53,0,80
4,note_on,44,27,0
4,note_on,44,0,60
4,note_on,44,25,20
4,note_on,44,0,60
4,note_on,39,34,3380
4,note_on,46,27,0
4,note_on,46,0,80
4,note_on,51,25,0
4,note_on,51,0,60
4,note_on,51,25,20
4,note_on,51,0,60
4,note_on,39,0,20
4,note_on,39,30,0
4,note_on,51,25,80
4,note_on,51,0,60
4,note_on,51,25,20
4,note_on,51,0,60
4,note_on,39,0,20
4,note_on,44,29,0
4,note_on,44,0,80
4,note_on,51,25,0
4,note_on,51,0,60
4,note_on,51,25,20
4,note_on,51,0,60
4,note_on,51,25,20
4,note_on,51,0,60
4,note_on,51,25,20
4,note_on,51,0,60
4,note_on,51,25,20
4,note_on,51,0,60
4,note_on,51,25,20
4,note_on,51,0,72
4,note_on,51,25,8
4,note_on,51,0,72
4,note_on,51,25,8
4,note_on,51,0,72
4,note_on,51,26,8
4,note_on,51,0,72
4,note_on,51,27,8
4,note_on,51,0,72
4,note_on,51,28,8
4,note_on,51,0,72
4,note_on,39,24,8
4,note_on,49,24,0
4,note_on,51,30,0
4,note_on,51,0,72
4,note_on,49,0,0
4,note_on,39,0,0
4,note_on,39,20,8
4,note_on,49,20,0
4,note_on,51,25,0
4,note_on,51,0,72
4,note_on,49,0,0
4,note_on,39,0,0
4,note_on,39,20,8
4,note_on,49,20,0
4,note_on,51,25,0
4,note_on,51,0,72
4,note_on,49,0,0
4,note_on,39,0,0
4,note_on,39,20,8
4,note_on,49,20,0
4,note_on,51,25,0
4,note_on,51,0,72
4,note_on,49,0,0
4,note_on,39,0,0
4,note_on,39,20,8
4,note_on,49,20,0
4,note_on,51,25,0
4,note_on,51,0,72
4,note_on,49,0,0
4,note_on,39,0,0
4,note_on,39,20,8
4,note_on,49,20,0
4,note_on,51,26,0
4,note_on,51,0,72
4,note_on,49,0,0
4,note_on,39,0,0
4,note_on,39,21,8
4,note_on,49,21,0
4,note_on,51,26,0
4,note_on,51,0,72
4,note_on,49,0,0
4,note_on,39,0,0
4,note_on,39,21,8
4,note_on,49,21,0
4,note_on,51,27,0
4,note_on,51,0,72
4,note_on,49,0,0
4,note_on,39,0,0
4,note_on,39,22,8
4,note_on,49,22,0
4,note_on,51,27,0
4,note_on,51,0,72
4,note_on,49,0,0
4,note_on,39,0,0
4,note_on,39,20,8
4,note_on,49,20,0
4,note_on,51,25,0
4,note_on,51,0,72
4,note_on,49,0,0
4,note_on,39,0,0
4,note_on,39,20,8
4,note_on,49,20,0
4,note_on,51,25,0
4,note_on,51,0,72
4,note_on,49,0,0
4,note_on,39,0,0
4,note_on,39,20,8
4,note_on,49,20,0
4,note_on,51,25,0
4,note_on,51,0,72
4,note_on,49,0,0
4,note_on,39,0,0
4,note_on,44,20,8
4,note_on,48,20,0
4,note_on,51,25,0
4,note_on,51,0,72
4,note_on,48,0,0
4,note_on,44,0,0
4,note_on,51,25,8
4,note_on,51,0,72
4,note_on,51,25,8
4,note_on,51,0,72
4,note_on,51,25,8
4,note_on,51,0,72
4,note_on,51,25,8
4,note_on,51,0,72
4,note_on,51,25,8
4,note_on,51,0,72
4,note_on,51,25,8
4,note_on,51,0,72
4,note_on,51,25,8
4,note_on,51,0,72
4,note_on,51,25,8
4,note_on,51,0,72
4,note_on,51,26,8
4,note_on,51,0,72
4,note_on,51,27,8
4,note_on,51,0,72
4,note_on,51,28,8
4,note_on,51,0,72
4,note_on,39,24,8
4,note_on,49,24,0
4,note_on,51,30,0
4,note_on,51,0,72
4,note_on,49,0,0
4,note_on,39,0,0
4,note_on,39,20,8
4,note_on,49,20,0
4,note_on,51,25,0
4,note_on,51,0,72
4,note_on,49,0,0
4,note_on,39,0,0
4,note_on,39,20,8
4,note_on,49,20,0
4,note_on,51,25,0
4,note_on,51,0,72
4,note_on,49,0,0
4,note_on,39,0,0
4,note_on,39,20,8
4,note_on,49,20,0
4,note_on,51,25,0
4,note_on,51,0,72
4,note_on,49,0,0
4,note_on,39,0,0
4,note_on,39,20,8
4,note_on,49,20,0
4,note_on,51,25,0
4,note_on,51,0,72
4,note_on,49,0,0
4,note_on,39,0,0
4,note_on,39,20,8
4,note_on,49,20,0
4,note_on,51,26,0
4,note_on,51,0,72
4,note_on,49,0,0
4,note_on,39,0,0
4,note_on,39,21,8
4,note_on,49,21,0
4,note_on,51,26,0
4,note_on,51,0,72
4,note_on,49,0,0
4,note_on,39,0,0
4,note_on,39,21,8
4,note_on,49,21,0
4,note_on,51,27,0
4,note_on,51,0,72
4,note_on,49,0,0
4,note_on,39,0,0
4,note_on,39,22,8
4,note_on,49,22,0
4,note_on,51,27,0
4,note_on,51,0,72
4,note_on,49,0,0
4,note_on,39,0,0
4,note_on,39,20,8
4,note_on,49,20,0
4,note_on,51,25,0
4,note_on,51,0,72
4,note_on,49,0,0
4,note_on,39,0,0
4,note_on,39,20,8
4,note_on,49,20,0
4,note_on,51,25,0
4,note_on,51,0,72
4,note_on,49,0,0
4,note_on,39,0,0
4,note_on,39,20,8
4,note_on,49,20,0
4,note_on,51,25,0
4,note_on,51,0,72
4,note_on,49,0,0
4,note_on,39,0,0
4,note_on,44,20,8
4,note_on,48,20,0
4,note_on,51,25,0
4,note_on,51,0,240
4,note_on,48,0,0
4,note_on,44,0,0
